<?xml version="1.0" encoding="utf-8"?>
<!-- Generator: Adobe Illustrator 28.1.0, SVG Export Plug-In . SVG Version: 6.00 Build 0)  -->
<svg version="1.1" id="Layer_1" xmlns="http://www.w3.org/2000/svg" xmlns:xlink="http://www.w3.org/1999/xlink" x="0px" y="0px"
	 viewBox="0 0 275 275" style="enable-background:new 0 0 275 275;" xml:space="preserve">
<style type="text/css">
	.st0{fill:#2067c3;}
</style>
<g>
	<path class="st0" d="M46.982,0H30.35c-2.134,0-3.92,1.59-4.124,3.673L24.622,20L0.019,270.548C-0.215,272.934,1.698,275,4.144,275
		h12.071c2.134,0,3.92-1.59,4.124-3.673L44.657,23.673C44.862,21.59,46.647,20,48.782,20h199.715c2.445,0,4.359,2.066,4.124,4.452
		l-17.859,181.874c-0.205,2.083-1.99,3.673-4.124,3.673h-89.354c-2.134,0-3.92,1.59-4.124,3.673l-5.585,56.874
		c-0.234,2.387,1.679,4.452,4.124,4.452H244.65c2.134,0,3.92-1.59,4.124-3.673L273.454,20l1.527-15.548
		C275.215,2.066,273.302,0,270.856,0h-15.835H46.982z"/>
	<path class="st0" d="M166.699,141.327l1.166-11.874c0.234-2.387-1.679-4.452-4.124-4.452h-80.62c-2.445,0-4.359-2.066-4.124-4.452
		l5.585-56.874C84.786,61.59,86.571,60,88.705,60h133.206c2.134,0,3.92-1.59,4.124-3.673l1.166-11.874
		c0.234-2.387-1.679-4.452-4.124-4.452H70.273c-2.134,0-3.92,1.59-4.124,3.673L43.871,270.548C43.637,272.934,45.55,275,47.995,275
		h12.071c2.134,0,3.92-1.59,4.124-3.673l12.044-122.653c0.205-2.083,1.99-3.673,4.124-3.673h82.216
		C164.709,145,166.494,143.41,166.699,141.327z"/>
	<path class="st0" d="M213.27,186.327l10.004-101.874c0.234-2.387-1.679-4.452-4.124-4.452H110.197c-2.134,0-3.92,1.59-4.124,3.673
		l-2.393,24.374c-0.234,2.387,1.679,4.452,4.124,4.452h12.071c2.134,0,3.92-1.59,4.124-3.673l0.506-5.153
		c0.205-2.083,1.99-3.673,4.124-3.673h68.16c2.445,0,4.359,2.066,4.124,4.452l-6.076,61.874c-0.205,2.083-1.99,3.673-4.124,3.673
		h-68.16c-2.445,0-4.359-2.066-4.124-4.452l0.353-3.595c0.234-2.387-1.679-4.452-4.124-4.452h-12.071
		c-2.134,0-3.92,1.59-4.124,3.673l-10.74,109.374c-0.234,2.387,1.679,4.452,4.124,4.452h12.071c2.134,0,3.92-1.59,4.124-3.673
		l7.625-77.653c0.205-2.083,1.99-3.673,4.124-3.673h89.354C211.28,190,213.065,188.41,213.27,186.327z"/>
</g>
</svg>
