<?xml version="1.0" encoding="utf-8"?>
<!-- Generator: Adobe Illustrator 24.1.1, SVG Export Plug-In . SVG Version: 6.00 Build 0)  -->
<svg version="1.1" id="Layer_1" xmlns="http://www.w3.org/2000/svg" xmlns:xlink="http://www.w3.org/1999/xlink" x="0px" y="0px"
	 viewBox="0 0 315 290" style="enable-background:new 0 0 315 290;" xml:space="preserve">
<style type="text/css">
	.st0{fill:#60BEE3;}
	.st1{fill:#7CC9E8;}
</style>
<g>
	<path class="st0" d="M309,72c0,0-169.5,0-169.8,0.1c-3.2,0.3-7.3,2.1-9.5,4.3l-15,15.4l0,0c-2.4,2.4-7,4.4-10.3,4.4L6,96.2
		c-3.3,0-6,2.7-6,6V284c0,3.3,2.7,6,6,6h303c3.3,0,6-2.7,6-6V78C315,74.7,312.3,72,309,72z"/>
	<path class="st1" d="M315,78c0-3.3-2.7-6-6-6c0,0-169.5,0-169.8,0.1c-3.2,0.3-7.3,2.1-9.5,4.3l-15,15.4l0,0
		c-2.4,2.4-7,4.4-10.3,4.4L6,96.2c-3.3,0-6,2.7-6,6V284c0,1.6,0.6,3,1.6,4L315,86.9V78z"/>
</g>
</svg>
