<?xml version="1.0" encoding="utf-8"?>
<!-- Generator: Adobe Illustrator 28.1.0, SVG Export Plug-In . SVG Version: 6.00 Build 0)  -->
<svg version="1.1" id="Layer_1" xmlns="http://www.w3.org/2000/svg" xmlns:xlink="http://www.w3.org/1999/xlink" x="0px" y="0px"
	 viewBox="0 0 48.5 80.9" style="enable-background:new 0 0 48.5 80.9;" xml:space="preserve">
<style type="text/css">
	.st0{fill:#C50200;}
</style>
<g>
	<g>
		<path class="st0" d="M20.4,58.3v-6c0-3.6,0.7-6.8,2.2-9.4c1.4-2.7,3.7-5,6.6-6.8c3.7-2.3,6.5-4.9,8.4-7.7c2-3,3-6.2,3-9.7
			c0-4-1.4-7.3-4.2-9.6c-2.6-2.2-6.2-3.3-10.8-3.3c-4.4,0-8.7,1.1-12.9,3.3c-3.1,1.6-5.9,3.6-8.3,6.1L0,10.4c2.5-2.8,5.7-5.1,9.7-7
			C14.7,1.2,20.1,0,25.9,0c7.3,0,13,1.6,16.9,4.8c3.8,3.1,5.6,7.4,5.6,13.2c0,4.1-1,7.7-3,11c-2.1,3.4-5.2,6.4-9.4,9.1
			c-3,2-5.3,4.2-6.9,6.6c-1.6,2.5-2.5,5.4-2.5,8.4v5.1h-6.2V58.3z"/>
		<path class="st0" d="M23.8,80.9c-1.7,0-3.1-0.6-4.4-1.8c-1.2-1.2-1.8-2.6-1.8-4.4s0.6-3.2,1.8-4.4c1.2-1.2,2.6-1.8,4.4-1.8
			s3.2,0.6,4.4,1.8c1.2,1.2,1.8,2.6,1.8,4.4s-0.6,3.1-1.8,4.4S25.6,80.9,23.8,80.9z"/>
	</g>
</g>
</svg>
