<?xml version="1.0" encoding="UTF-8"?><svg id="Layer_1" xmlns="http://www.w3.org/2000/svg" viewBox="0 0 44.16 45.07"><defs><style>.cls-1{fill:#4d4d4e;stroke-width:0px;}</style></defs><g id="_943_Antivirus_computer_firewall_network_security"><rect class="cls-1" x="11.07" y="25.82" width="8.14" height="3.51"/><polygon class="cls-1" points="14.59 33.87 14.59 30.44 6.45 30.44 6.45 33.87 10.52 33.87 14.59 33.87"/><polygon class="cls-1" points="33.09 33.87 33.09 30.44 24.95 30.44 24.95 33.87 29.02 33.87 33.09 33.87"/><path class="cls-1" d="M16.34,23.97c-1.02-2.87.09-4.72,1.39-6.2,1.48-1.85,1.94-3.7,1.94-3.7,0-.19.18-.37.37-.46.18-.09.46,0,.55.19,0,.09.83.93,1.02,2.31,1.2-1.85,1.29-4.16,1.11-4.9-.09-.18,0-.46.18-.65.19-.18.46-.18.65,0,2.77,1.67,4.81,4.35,5.64,7.4.55,2.04.37,4.16-.28,6.01,3.89-2.22,5.92-4.81,6.11-7.77.18-2.59-1.2-5.09-2.4-6.66-.74-1.02-1.48-1.76-2.13-2.4.09,1.2-.28,2.5-1.29,3.24-.19.09-.37.18-.56.09-.18-.09-.28-.19-.37-.37-1.11-3.61-3.14-5.74-4.63-6.94-.83-.65-1.66-1.11-2.22-1.3.09,3.05-1.85,6.66-5.74,10.64-.18.19-.37.19-.65.19-.19-.09-.37-.28-.37-.46-.09-.93-.09-1.67-.37-2.41-.37,1.02-.93,1.94-1.48,2.87-.65,1.11-1.3,2.22-1.57,3.33-.65,2.78,0,5.18,5.09,7.96Z"/><polygon class="cls-1" points="9.96 35.07 5.89 35.07 1.82 35.07 1.82 38.49 9.96 38.49 9.96 35.07"/><path class="cls-1" d="M20.32,15.55c-.37.83-.83,1.85-1.76,2.87-1.29,1.57-2.31,3.24-.65,6.2h9.44c1.11-1.94,1.39-4.16.74-6.47-.65-2.41-2.04-4.53-4.16-6.11-.09,1.66-.74,4.26-2.59,6.01-.18.28-.46.28-.65.18-.18-.09-.37-.37-.28-.65.18-.83.09-1.48-.09-2.03Z"/><polygon class="cls-1" points="23.84 33.87 23.84 30.44 15.7 30.44 15.7 33.87 19.77 33.87 23.84 33.87"/><rect class="cls-1" x="20.32" y="25.82" width="8.14" height="3.51"/><rect class="cls-1" x="29.57" y="25.82" width="8.14" height="3.51"/><polygon class="cls-1" points="29.57 35.07 29.57 38.49 37.71 38.49 37.71 35.07 33.64 35.07 29.57 35.07"/><polygon class="cls-1" points="34.2 30.44 34.2 33.87 38.27 33.87 42.34 33.87 42.34 30.44 34.2 30.44"/><rect class="cls-1" x="6.45" y="39.69" width="8.14" height="3.51"/><rect class="cls-1" x="24.95" y="39.69" width="8.14" height="3.51"/><polygon class="cls-1" points="28.46 35.07 24.39 35.07 20.32 35.07 20.32 38.49 28.46 38.49 28.46 35.07"/><polygon class="cls-1" points="11.07 35.07 11.07 38.49 19.21 38.49 19.21 35.07 15.14 35.07 11.07 35.07"/><rect class="cls-1" x="15.7" y="39.69" width="8.14" height="3.51"/></g></svg>