<?xml version="1.0" encoding="UTF-8"?><svg id="Layer_1" xmlns="http://www.w3.org/2000/svg" viewBox="0 0 57.1 55"><defs><style>.cls-1{fill:#4d4d4e;stroke-width:0px;}</style></defs><g id="_449_Awareness_feel_human_perception_sense"><path class="cls-1" d="M28.4,16.2c2.1,0,3.8,1.7,3.8,3.8s-1.7,3.8-3.8,3.8-3.8-1.7-3.8-3.8,1.7-3.8,3.8-3.8Z"/><path class="cls-1" d="M23.4,55h4.4v-6.9c0-.3.3-.6.6-.6s.6.3.6.6v6.9h4.4v-10h-10v10Z"/><path class="cls-1" d="M31.3,28.7h-5.9c-2.5,0-4.5,2-4.5,4.5v10.5h2.5v-8.1c0-.3.3-.6.6-.6s.6.3.6.6v8.1h7.5v-8.1c0-.3.3-.6.6-.6s.6.3.6.6v8.1h2.6v-10.4c0-2.5-2.1-4.6-4.6-4.6Z"/><path class="cls-1" d="M28.9,1.2c.2,0,.3-.1.4-.2.1-.1.2-.3.2-.4s-.1-.3-.2-.4c-.1-.1-.3-.2-.4-.2-.2,0-.3.1-.4.2-.1.1-.2.3-.2.4s.1.3.2.4c.1.2.2.2.4.2Z"/><path class="cls-1" d="M28.9,5c.2,0,.3-.1.4-.2.1-.1.2-.3.2-.4,0-.2-.1-.3-.2-.4-.1-.1-.3-.2-.4-.2-.2,0-.3.1-.4.2-.1.1-.2.3-.2.4,0,.2.1.3.2.4.1.1.2.2.4.2Z"/><path class="cls-1" d="M28.9,8.7c.2,0,.3-.1.4-.2.1-.1.2-.3.2-.4,0-.2-.1-.3-.2-.4-.1-.1-.3-.2-.4-.2-.2,0-.3.1-.4.2-.1.1-.2.3-.2.4,0,.2.1.3.2.4.1.2.2.2.4.2Z"/><path class="cls-1" d="M28.9,12.5c.2,0,.3-.1.4-.2.1-.1.2-.3.2-.4s-.1-.3-.2-.4c-.1-.1-.3-.2-.4-.2-.2,0-.3.1-.4.2-.1.1-.2.3-.2.4s.1.3.2.4c.1.1.2.2.4.2Z"/><path class="cls-1" d="M48.5,9.1c.2,0,.3-.1.4-.2.1-.1.2-.3.2-.4,0-.2-.1-.3-.2-.4-.1-.1-.3-.2-.4-.2-.2,0-.3.1-.4.2-.1.1-.2.3-.2.4,0,.2.1.3.2.4.1.1.3.2.4.2Z"/><path class="cls-1" d="M45.9,10.5c-.2,0-.3.1-.4.2-.1.1-.2.3-.2.4,0,.2.1.3.2.4.1.1.3.2.4.2.2,0,.3-.1.4-.2.1-.1.2-.3.2-.4,0-.2-.1-.3-.2-.4-.1-.1-.2-.2-.4-.2Z"/><path class="cls-1" d="M43.2,13.1c-.2,0-.3.1-.4.2-.1.1-.2.3-.2.4,0,.2.1.3.2.4.1.1.3.2.4.2.2,0,.3-.1.4-.2.1-.1.2-.3.2-.4,0-.2-.1-.3-.2-.4,0-.1-.2-.2-.4-.2Z"/><path class="cls-1" d="M40.6,15.8c-.2,0-.3.1-.4.2-.2.1-.2.3-.2.4,0,.2.1.3.2.4.1.1.3.2.4.2.2,0,.3-.1.4-.2.1-.1.2-.3.2-.4,0-.2-.1-.3-.2-.4-.1-.1-.2-.2-.4-.2Z"/><path class="cls-1" d="M16.4,37.9c-.2,0-.3.1-.4.2-.1.1-.2.3-.2.4s.1.3.2.4c.1.1.3.2.4.2.2,0,.3-.1.4-.2.1-.1.2-.3.2-.4s0-.3-.1-.4c-.2-.1-.3-.2-.5-.2Z"/><path class="cls-1" d="M13.8,40.6c-.2,0-.3.1-.4.2-.1.1-.2.3-.2.4,0,.2.1.3.2.4.1.1.3.2.4.2.2,0,.3-.1.4-.2.1-.1.2-.3.2-.4,0-.2-.1-.3-.2-.4-.1-.2-.3-.2-.4-.2Z"/><path class="cls-1" d="M11.1,43.2c-.2,0-.3.1-.4.2s-.2.3-.2.4c0,.2.1.3.2.4.1.1.3.2.4.2.2,0,.3-.1.4-.2.1-.1.2-.3.2-.4,0-.2-.1-.3-.2-.4-.1-.1-.2-.2-.4-.2Z"/><path class="cls-1" d="M8.5,45.9c-.2,0-.3.1-.4.2-.1.1-.2.3-.2.4,0,.2.1.3.2.4.1.1.3.2.4.2.2,0,.3-.1.4-.2.1-.1.2-.3.2-.4,0-.2-.1-.3-.2-.4-.1-.2-.3-.2-.4-.2Z"/><path class="cls-1" d="M56.9,27c-.1-.1-.3-.2-.4-.2-.2,0-.3.1-.4.2-.1.1-.2.3-.2.4s.1.3.2.4c.1.1.3.2.4.2.2,0,.3-.1.4-.2.1-.1.2-.3.2-.4-.1-.1-.1-.3-.2-.4Z"/><path class="cls-1" d="M52.7,26.9c-.2,0-.3.1-.4.2s-.2.3-.2.4.1.3.2.4.3.2.4.2c.2,0,.3-.1.4-.2.1-.1.2-.3.2-.4,0-.2-.1-.3-.2-.4-.1-.2-.3-.2-.4-.2Z"/><path class="cls-1" d="M48.9,26.9c-.2,0-.3.1-.4.2-.1.1-.2.3-.2.4s.1.3.2.4c.1.1.3.2.4.2.2,0,.3-.1.4-.2.1-.1.2-.3.2-.4s-.1-.3-.2-.4c-.1-.2-.2-.2-.4-.2Z"/><path class="cls-1" d="M45.8,27.5c0-.2-.1-.3-.2-.4-.1-.1-.3-.2-.4-.2-.2,0-.3.1-.4.2s-.2.3-.2.4.1.3.2.4.3.2.4.2c.2,0,.3-.1.4-.2.1-.1.2-.3.2-.4Z"/><path class="cls-1" d="M11.8,26.9c-.2,0-.3.1-.4.2-.1.1-.2.3-.2.4s.1.3.2.4c.1.1.3.2.4.2.2,0,.3-.1.4-.2s.2-.3.2-.4-.1-.3-.2-.4c0-.2-.2-.2-.4-.2Z"/><path class="cls-1" d="M8.5,27.9c.1-.1.2-.3.2-.4,0-.2-.1-.3-.2-.4-.1-.1-.3-.2-.4-.2-.2,0-.3.1-.4.2-.1.1-.2.3-.2.4,0,.2.1.3.2.4.1.1.3.2.4.2.2,0,.3-.1.4-.2Z"/><path class="cls-1" d="M4.3,26.9c-.2,0-.3.1-.4.2-.1.1-.2.3-.2.4s.1.3.2.4c.1.1.3.2.4.2.2,0,.3-.1.4-.2s.2-.3.2-.4c0-.2-.1-.3-.2-.4,0-.2-.2-.2-.4-.2Z"/><path class="cls-1" d="M.6,26.9c-.2,0-.3.1-.4.2-.2,0-.2.2-.2.4s.1.3.2.4c.1.1.3.2.4.2.2,0,.3-.1.4-.2.1-.1.2-.3.2-.4,0-.2-.1-.3-.2-.4-.1-.2-.2-.2-.4-.2Z"/><path class="cls-1" d="M8.5,7.8c-.2,0-.3.1-.4.2-.1.1-.2.3-.2.4,0,.2.1.3.2.4.1.1.3.2.4.2.2,0,.3-.1.4-.2.1-.1.2-.3.2-.4,0-.2-.1-.3-.2-.4-.1-.1-.3-.2-.4-.2Z"/><path class="cls-1" d="M11.1,11.7c.2,0,.3-.1.4-.2.1-.1.2-.3.2-.4,0-.2-.1-.3-.2-.4-.1-.1-.3-.2-.4-.2-.2,0-.3.1-.4.2-.1.1-.2.3-.2.4,0,.2.1.3.2.4.1.2.2.2.4.2Z"/><path class="cls-1" d="M13.8,13.1c-.2,0-.3.1-.4.2-.1.1-.2.3-.2.4,0,.2.1.3.2.4.1.1.3.2.4.2.2,0,.3-.1.4-.2.1-.1.2-.3.2-.4,0-.2-.1-.3-.2-.4-.1-.1-.3-.2-.4-.2Z"/><path class="cls-1" d="M16.4,15.8c-.2,0-.3.1-.4.2-.1.1-.2.3-.2.4,0,.2.1.3.2.4.1.1.3.2.4.2.2,0,.3-.1.4-.2.1-.1.2-.3.2-.4s0-.3-.1-.4c-.2-.1-.3-.2-.5-.2Z"/><path class="cls-1" d="M40.6,37.9c-.2,0-.3.1-.4.2-.2.1-.2.3-.2.4,0,.2.1.3.2.4.1.1.3.2.4.2.2,0,.3-.1.4-.2.1-.1.2-.3.2-.4,0-.2-.1-.3-.2-.4-.1-.1-.2-.2-.4-.2Z"/><path class="cls-1" d="M43.2,40.6c-.2,0-.3.1-.4.2s-.2.3-.2.4c0,.2.1.3.2.4.1.1.3.2.4.2.2,0,.3-.1.4-.2.1-.1.2-.3.2-.4,0-.2-.1-.3-.2-.4,0-.2-.2-.2-.4-.2Z"/><path class="cls-1" d="M45.9,43.2c-.2,0-.3.1-.4.2-.1.1-.2.3-.2.4,0,.2.1.3.2.4.1.1.3.2.4.2.2,0,.3-.1.4-.2.1-.1.2-.3.2-.4,0-.2-.1-.3-.2-.4s-.2-.2-.4-.2Z"/><path class="cls-1" d="M48.5,45.9c-.2,0-.3.1-.4.2-.1.1-.2.3-.2.4,0,.2.1.3.2.4.1.1.3.2.4.2.2,0,.3-.1.4-.2.1-.1.2-.3.2-.4,0-.2-.1-.3-.2-.4,0-.2-.2-.2-.4-.2Z"/></g></svg>