<?xml version="1.0" encoding="UTF-8"?><svg id="Layer_1" xmlns="http://www.w3.org/2000/svg" viewBox="0 0 58.83 58.83"><defs><style>.cls-1{fill:#4d4d4e;stroke-width:0px;}</style></defs><g id="_431_Command_control_human_manipulate_manipulation"><path class="cls-1" d="M27.1,17.2c3.1,0,5.6-2.5,5.6-5.6,0-2.9-2.2-5.3-5-5.6V.6c0-.3-.3-.6-.6-.6s-.6.3-.6.6v5.4c-2.8.3-5,2.7-5,5.6,0,3.1,2.5,5.6,5.6,5.6Z"/><path class="cls-1" d="M15.9,22.2h3.1v-3.8h-3.1c-.3,0-.6-.3-.6-.6V7.2h-2.5V.6c0-.3-.3-.6-.6-.6s-.6.3-.6.6v17.3c-.1,2.4,1.8,4.3,4.3,4.3Z"/><path class="cls-1" d="M39,22.9v10.6h3.8v-10.6c0-1.7-1-3.2-2.5-4V5.6c0-.3-.3-.6-.6-.6s-.6.3-.6.6v12.9h-3.7v3.8h3.1c.2-.1.5.2.5.6Z"/><path class="cls-1" d="M23.8,38.5h10.2v-5h-10.6c-.3,0-.6-.3-.6-.6s.3-.6.6-.6h10.6v-13.8h-13.8v16.4c0,2,1.6,3.6,3.6,3.6ZM26.7,21.2c.1-.1.3-.2.4-.2s.3.1.4.2c.1.1.2.3.2.4s-.1.3-.2.4c-.1.1-.3.2-.4.2s-.3-.1-.4-.2-.2-.3-.2-.4,0-.3.2-.4ZM26.7,24.9c.1-.1.3-.2.4-.2s.3.1.4.2c.1.1.2.3.2.4s-.1.3-.2.4c-.1.1-.3.2-.4.2s-.3-.1-.4-.2c-.1-.1-.2-.3-.2-.4s0-.3.2-.4Z"/><path class="cls-1" d="M49.6,5.6c-.3,0-.6.3-.6.6v38.7l-8.3-5.2h-13v3.8h13.1c.1,0,.2,0,.3.1l9,5.7V6.2c.1-.4-.2-.6-.5-.6Z"/><path class="cls-1" d="M48.4,57.2h-21.9v-17.5h-4l-2.3,6.9,2.4,10.6h-13c-.3,0-.6.3-.6.6s.3.6.6.6h38.8c.3,0,.6-.3.6-.6s-.3-.6-.6-.6Z"/></g></svg>