<?xml version="1.0" encoding="UTF-8"?><svg id="Layer_1" xmlns="http://www.w3.org/2000/svg" viewBox="0 0 50.59 50.59"><defs><style>.cls-1{fill:#4d4d4e;}.cls-1,.cls-2{stroke-width:0px;}.cls-2{fill:#c32026;}</style></defs><g id="_444_Brain_key_lock_mind_unlock"><path class="cls-2" d="M13.35,14.92h-.09c-.92,0-1.75.73-1.75,1.74,0,.83.64,1.56,1.47,1.65h.28c.92,0,1.74-.74,1.74-1.75-.09-.83-.73-1.56-1.65-1.65Z"/><path class="cls-2" d="M14.36,23c3.49,0,6.34-2.85,6.34-6.34,0-3.31-2.57-6.06-5.88-6.34h-.46c-3.49,0-6.34,2.85-6.34,6.34,0,3.12,2.2,5.69,5.23,6.25.28,0,.55.09.83.09h.28ZM13.26,19.51h-.46c-1.38-.28-2.39-1.38-2.39-2.85,0-1.56,1.29-2.85,2.85-2.85h.18c1.47.09,2.66,1.38,2.66,2.85,0,1.56-1.29,2.85-2.85,2.85Z"/><path class="cls-1" d="M29.33,2.34h-1.19c-5.14,0-9.83,2.66-12.4,6.98,3.1.42,6.22,3.32,6.15,6.61h17.72c.28,0,.55.28.55.55s-.28.55-.55.55h-2.85v4.04c0,.28-.28.55-.55.55s-.55-.28-.55-.55v-4.04h-2.3v6.52c0,.28-.28.55-.55.55s-.55-.28-.55-.55v-6.34h-10.47c-.28,3.86-3.49,6.89-7.44,6.89h-.55v24.15h18.27l-14.6-10.47c-.28-.18-.28-.55-.09-.83.18-.28.55-.28.83-.09l15.15,10.84v-11.48c0-.28.28-.55.55-.55h6.34v-9.83c0-.28.28-.55.55-.55h2.85v-8.63c0-7.9-6.43-14.33-14.33-14.33ZM27.03,13.27h-2.3v-2.3h2.3v2.3ZM30.43,13.27h-2.3v-2.3h2.3v2.3ZM33.92,13.27h-2.3v-2.3h2.3v2.3Z"/></g></svg>