<?xml version="1.0" encoding="UTF-8"?><svg id="Layer_1" xmlns="http://www.w3.org/2000/svg" viewBox="0 0 59.28 49"><defs><style>.cls-1{fill:#4d4d4e;stroke-width:0px;}</style></defs><g id="_930_louck_loucked_security_secure"><path class="cls-1" d="M21.48,16.54c0-4.54,3.63-8.17,8.17-8.17s8.17,3.63,8.17,8.17v3.73h3.02v-3.73c0-6.25-5.04-11.29-11.29-11.29s-11.29,5.04-11.29,11.29v3.73h3.21v-3.73Z"/><path class="cls-1" d="M29.64,31.56c-1.71,0-3.12,1.41-3.12,3.12,0,.91.4,1.71,1.01,2.32.1.1.2.3.2.5v1.61h3.83v-1.61c0-.2.1-.3.2-.5.71-.61,1.01-1.41,1.01-2.32,0-1.71-1.41-3.12-3.13-3.12Z"/><path class="cls-1" d="M10.79,15.12c1.71,0,3.13-1.41,3.13-3.12,0-1.51-1.11-2.82-2.52-3.13V.61c0-.3-.3-.61-.61-.61s-.6.3-.6.61v8.27c-1.41.3-2.52,1.61-2.52,3.13-.1,1.71,1.31,3.12,3.12,3.12Z"/><path class="cls-1" d="M48.6,15.12c1.71,0,3.12-1.41,3.12-3.12,0-1.51-1.11-2.82-2.52-3.13V.61c0-.3-.3-.61-.6-.61s-.61.3-.61.61v8.27c-1.41.3-2.52,1.61-2.52,3.13-.1,1.71,1.31,3.12,3.13,3.12Z"/><path class="cls-1" d="M56.16,36.6c-1.51,0-2.82,1.11-3.12,2.52h-6.35v-12.6h6.35c.3,1.41,1.61,2.52,3.12,2.52,1.71,0,3.13-1.41,3.13-3.13s-1.41-3.12-3.13-3.12c-1.51,0-2.82,1.11-3.12,2.52h-6.35v-.2c0-2.02-1.61-3.63-3.63-3.63h-26.82c-2.02,0-3.63,1.61-3.63,3.63v.1h-6.35c-.3-1.41-1.61-2.52-3.12-2.52-1.71,0-3.13,1.41-3.13,3.13s1.41,3.13,3.13,3.13c1.51,0,2.82-1.11,3.12-2.52h6.35v12.6h-6.35c-.3-1.41-1.61-2.52-3.12-2.52-1.71,0-3.13,1.41-3.13,3.12s1.41,3.13,3.13,3.13c1.51,0,2.82-1.11,3.12-2.52h6.35v3.83h28.33c.3,0,.6.3.6.6s-.3.61-.6.61H12.6v.1c0,2.02,1.61,3.63,3.63,3.63h26.72c2.02,0,3.63-1.61,3.63-3.63v-5.14h6.35c.3,1.41,1.61,2.52,3.13,2.52,1.71,0,3.12-1.41,3.12-3.13.1-1.61-1.31-3.02-3.02-3.02ZM18.35,28.43h-2.52v-2.52h2.52v2.52ZM22.08,28.43h-2.52v-2.52h2.52v2.52ZM23.39,25.91h2.52v2.52h-2.52v-2.52ZM32.77,37.81v1.92c0,.3-.3.61-.6.61h-5.04c-.3,0-.6-.3-.6-.61v-1.92c-.81-.81-1.31-1.92-1.31-3.13,0-2.42,2.02-4.44,4.44-4.44s4.44,2.02,4.44,4.44c0,1.11-.5,2.22-1.31,3.13ZM46.08,26.52h-16.43c-.3,0-.6-.3-.6-.61s.3-.6.6-.6h16.43c-.4-.1-.4,1.21,0,1.21Z"/></g></svg>