<?xml version="1.0" encoding="UTF-8"?><svg id="Layer_1" xmlns="http://www.w3.org/2000/svg" viewBox="0 0 46.58 50.31"><defs><style>.cls-1{fill:#4d4d4e;stroke-width:0px;}</style></defs><g id="_939_Lock_padlock_security_secure"><polygon class="cls-1" points="7.52 28.86 5.86 28.86 3.16 28.86 3.16 31.04 7.52 31.04 7.52 28.86"/><path class="cls-1" d="M23.55,36.35c-.09.09-.17.09-.26.09-.17,0-.35-.09-.44-.26l-2.18-3.31c-.17-.26-.09-.61.17-.78.26-.17.61-.09.78.17l1.92,2.79,4.53-2.88c-.61-2-2.44-3.49-4.7-3.49-2.7,0-4.88,2.18-4.88,4.88s2.18,4.88,4.88,4.88,4.88-2.18,4.88-4.88v-.26l-4.71,3.05Z"/><rect class="cls-1" x="3.16" y="32.08" width="4.36" height="2.18"/><polygon class="cls-1" points="7.52 38.62 3.16 38.62 3.16 40.79 5.86 40.79 7.52 40.79 7.52 38.62"/><rect class="cls-1" x="3.16" y="35.39" width="4.36" height="2.18"/><path class="cls-1" d="M38.02,41.4v-13.24c0-.26.26-.52.52-.52h1.66v-2.09h-15.77c-.26,0-.52-.26-.52-.52s.26-.52.52-.52h15.77v-1.22c0-1.74-1.39-3.14-3.14-3.14H9.52c-1.74,0-3.14,1.39-3.14,3.14v4.44h1.66c.26,0,.52.26.52.52v13.24c0,.26-.17.52-.44.52h26.05c.26,0,.52.26.52.52s-.26.52-.52.52H6.39v.7c0,1.74,1.39,3.14,3.14,3.14h27.45c1.74,0,3.14-1.39,3.14-3.14v-1.83h-1.57c-.26,0-.52-.26-.52-.52ZM12.05,26.24h-2.53v-2.44h2.53v2.44ZM15.8,26.24h-2.53v-2.44h2.53v2.44ZM17.1,23.8h2.53v2.53h-2.53v-2.53ZM32.26,30.95l-3.05,1.92c0,.26.09.61.09.87,0,3.31-2.7,6.01-6.01,6.01s-6.01-2.7-6.01-6.01,2.7-6.01,6.01-6.01c2.61,0,4.79,1.66,5.66,4.01l2.79-1.74c.26-.17.61-.09.78.17.09.26,0,.61-.26.78Z"/><path class="cls-1" d="M15.27,13.61c0-3.92,3.14-7.06,7.06-7.06h1.83c3.92,0,7.06,3.14,7.06,7.06v5.49h3.22c0-.09-.09-.17-.09-.26v-4.27c0-6.19-5.05-11.15-11.15-11.15s-11.15,5.05-11.15,11.15v4.27c0,.09,0,.17-.09.26h3.31v-5.49h0Z"/><polygon class="cls-1" points="40.72 28.86 39.06 28.86 39.06 31.04 43.42 31.04 43.42 28.86 40.72 28.86"/><rect class="cls-1" x="39.06" y="32.08" width="4.36" height="2.18"/><rect class="cls-1" x="39.06" y="35.39" width="4.36" height="2.18"/><polygon class="cls-1" points="39.06 40.79 40.72 40.79 43.42 40.79 43.42 38.62 39.06 38.62 39.06 40.79"/></g></svg>