<?xml version="1.0" encoding="utf-8"?>
<!-- Generator: Adobe Illustrator 28.1.0, SVG Export Plug-In . SVG Version: 6.00 Build 0)  -->
<svg version="1.1" id="Layer_1" xmlns="http://www.w3.org/2000/svg" xmlns:xlink="http://www.w3.org/1999/xlink" x="0px" y="0px"
	 viewBox="0 0 275 275" style="enable-background:new 0 0 275 275;" xml:space="preserve">
<style type="text/css">
	.st0{fill:#3ECC5F;}
</style>
<g>
	<path class="st0" d="M47,0H30.4c-2.1,0-3.9,1.6-4.1,3.7L24.6,20L0,270.5c-0.2,2.4,1.7,4.5,4.1,4.5h12.1c2.1,0,3.9-1.6,4.1-3.7
		L44.7,23.7c0.2-2.1,2-3.7,4.1-3.7h199.7c2.4,0,4.4,2.1,4.1,4.5l-17.9,181.9c-0.2,2.1-2,3.7-4.1,3.7h-89.4c-2.1,0-3.9,1.6-4.1,3.7
		l-5.6,56.9c-0.2,2.4,1.7,4.5,4.1,4.5h109c2.1,0,3.9-1.6,4.1-3.7L273.5,20L275,4.5c0.2-2.4-1.7-4.5-4.1-4.5H255H47z"/>
	<path class="st0" d="M166.7,141.3l1.2-11.9c0.2-2.4-1.7-4.5-4.1-4.5H83.1c-2.4,0-4.4-2.1-4.1-4.5l5.6-56.9c0.2-2.1,2-3.7,4.1-3.7
		h133.2c2.1,0,3.9-1.6,4.1-3.7l1.2-11.9c0.2-2.4-1.7-4.5-4.1-4.5H70.3c-2.1,0-3.9,1.6-4.1,3.7L43.9,270.5c-0.2,2.4,1.7,4.5,4.1,4.5
		h12.1c2.1,0,3.9-1.6,4.1-3.7l12-122.7c0.2-2.1,2-3.7,4.1-3.7h82.2C164.7,145,166.5,143.4,166.7,141.3z"/>
	<path class="st0" d="M213.3,186.3l10-101.9c0.2-2.4-1.7-4.5-4.1-4.5h-109c-2.1,0-3.9,1.6-4.1,3.7l-2.4,24.4
		c-0.2,2.4,1.7,4.5,4.1,4.5h12.1c2.1,0,3.9-1.6,4.1-3.7l0.5-5.2c0.2-2.1,2-3.7,4.1-3.7h68.2c2.4,0,4.4,2.1,4.1,4.5l-6.1,61.9
		c-0.2,2.1-2,3.7-4.1,3.7h-68.2c-2.4,0-4.4-2.1-4.1-4.5l0.4-3.6c0.2-2.4-1.7-4.5-4.1-4.5h-12.1c-2.1,0-3.9,1.6-4.1,3.7L87.7,270.5
		c-0.2,2.4,1.7,4.5,4.1,4.5h12.1c2.1,0,3.9-1.6,4.1-3.7l7.6-77.7c0.2-2.1,2-3.7,4.1-3.7h89.4C211.3,190,213.1,188.4,213.3,186.3z"/>
</g>
</svg>
