<?xml version="1.0" encoding="utf-8"?>
<!-- Generator: Adobe Illustrator 25.4.1, SVG Export Plug-In . SVG Version: 6.00 Build 0)  -->










<svg version="1.1" id="Layer_1" xmlns="http://www.w3.org/2000/svg" xmlns:xlink="http://www.w3.org/1999/xlink" x="0px" y="0px" viewBox="0 0 594 450.2" style="enable-background:new 0 0 594 450.2;" xml:space="preserve">
<style type="text/css">
	.st0{fill:url(#SVGID_1_);}
	.st1{fill:#F3F3F3;}
	.st2{fill:#ED1F2D;}
	.st3{fill:#FED500;}
	.st4{fill:url(#SVGID_00000016760757172526652870000002357475361555213718_);}
	.st5{fill:#E6E6E5;}
	.st6{fill:#B4B4B4;}
	.st7{fill:#989898;}
	.st8{fill:#676767;}
	.st9{fill:url(#SVGID_00000008860458692258360350000013795123104366090158_);}
	.st10{fill:#CCCCCC;}
	.st11{fill:url(#SVGID_00000140007415268771910000000011074986403336141967_);}
</style>
<switch>
	
	<g>
		<linearGradient id="SVGID_1_" gradientUnits="userSpaceOnUse" x1="567.3322" y1="250.4663" x2="471.558" y2="76.5608">
			<stop offset="0" style="stop-color:#B4B4B4"/>
			<stop offset="1" style="stop-color:#E6E6E5"/>
		</linearGradient>
		<path class="st0" d="M584.1,96.3L420,1.5c-3.2-1.8-6-2-7.8-0.7l0,0l-28.1,16.2l26.1,38.3V152c0,5.5,4.4,12.5,9.9,15.6l109.3,63.1
			l33.4,49.1l28.2-16.3h0c1.9-0.7,3.1-2.6,3.1-5.4V111.9C594,106.4,589.6,99.4,584.1,96.3z"/>
		<path class="st1" d="M555.7,278.7L391.7,184c-5.5-3.2-9.9-10.2-9.9-15.6V22.1c0-5.5,4.4-7.3,9.9-4.2l164.1,94.7
			c5.5,3.2,9.9,10.2,9.9,15.6v146.3C565.6,280,561.2,281.9,555.7,278.7z"/>
		<polygon class="st2" points="434.6,63.4 400.7,43.8 400.7,33.9 434.6,53.5 		"/>
		<polygon class="st3" points="544.1,126.6 510.2,107 510.2,97.1 544.1,116.7 		"/>
		
			<linearGradient id="SVGID_00000035497166511532082150000014557738900391222422_" gradientUnits="userSpaceOnUse" x1="291.0076" y1="319.1492" x2="451.9886" y2="226.2067" gradientTransform="matrix(1 0.5774 0 1 0 -259.84)">
			<stop offset="0" style="stop-color:#676767"/>
			<stop offset="1" style="stop-color:#333333"/>
		</linearGradient>
		<polygon style="fill:url(#SVGID_00000035497166511532082150000014557738900391222422_);" points="449.6,221.9 293.4,131.7 
			293.4,232.8 449.6,323 		"/>
		<polygon class="st1" points="258.3,319.7 162.4,264.3 162.4,321.1 258.3,376.4 		"/>
		<polygon class="st5" points="449.6,222.5 550.4,164.3 394.1,74.1 293.4,132.3 		"/>
		<polygon class="st6" points="449.6,323 550.4,264.8 550.4,163.7 449.6,221.9 		"/>
		<polygon class="st6" points="258.3,376.4 449.6,323 449.6,221.9 258.3,319.7 		"/>
		<polygon class="st5" points="162.4,264.3 293.4,131.7 449.6,221.9 258.3,319.7 		"/>
		<g>
			<polygon class="st7" points="183.9,242.6 222.5,266.5 212,274.5 175,251.6 			"/>
			<polygon class="st7" points="285.6,305.7 285.6,305.7 272.8,312.2 231.7,286.7 242.2,278.8 			"/>
			<polygon class="st7" points="201.6,224.6 243.4,250.6 232.9,258.6 192.7,233.6 			"/>
			<polygon class="st7" points="311.1,292.7 298.4,299.2 298.3,299.2 252.7,270.8 263.1,262.8 			"/>
			<polygon class="st7" points="219.3,206.6 264.4,234.6 253.9,242.6 210.5,215.6 			"/>
			<polygon class="st7" points="336.8,279.6 324,286.1 273.7,254.8 284.1,246.9 			"/>
			<polygon class="st7" points="237.1,188.7 285.3,218.7 274.9,226.7 228.2,197.7 			"/>
			<polygon class="st7" points="362.4,266.5 349.6,273 294.6,238.9 305.1,230.9 			"/>
			<polygon class="st7" points="254.8,170.7 306.3,202.7 295.8,210.7 245.9,179.7 			"/>
			<polygon class="st7" points="388,253.4 375.2,259.9 315.6,223 326,215 			"/>
		</g>
		<g>
			<polygon class="st8" points="285.6,305.7 285.6,328.1 272.8,332.9 272.8,312.2 			"/>
			<polygon class="st8" points="311.2,292.7 311.2,318.5 298.4,323 298.4,299.2 311.1,292.7 			"/>
			<polygon class="st8" points="336.8,279.6 336.8,309.3 324,313.9 324,286.1 			"/>
			<polygon class="st8" points="362.5,266.6 362.5,299.2 349.6,304.2 349.6,273 362.4,266.5 			"/>
			<polygon class="st8" points="388,253.4 388,290 375.2,294.8 375.2,259.9 			"/>
			<polygon class="st8" points="285.6,348.5 285.6,368.8 272.8,372.4 272.8,353.3 			"/>
			<polygon class="st8" points="298.4,343.7 311.2,339 311.2,361.7 298.4,365.2 			"/>
			<polygon class="st8" points="336.8,329.4 336.8,354.5 324,358.1 324,334.2 			"/>
			<polygon class="st8" points="349.6,324.7 362.5,319.9 362.5,347.1 349.6,350.9 			"/>
			<polygon class="st8" points="375.2,315.2 388,310.4 388,340.2 375.2,343.8 			"/>
		</g>
		<polygon class="st6" points="395.2,307.7 272.8,353.3 272.8,332.9 395.2,287.3 		"/>
		<g>
			
				<linearGradient id="SVGID_00000041978442626106520640000012330785745407541160_" gradientUnits="userSpaceOnUse" x1="133.2588" y1="393.0445" x2="110.0997" y2="352.9318">
				<stop offset="0" style="stop-color:#B4B4B4"/>
				<stop offset="1" style="stop-color:#E6E6E5"/>
			</linearGradient>
			<path style="fill:url(#SVGID_00000041978442626106520640000012330785745407541160_);" d="M242.1,338.3v1c0,3.6-1.4,6-3.6,7.1l0,0
				L60.7,449c0,0,0,0,0,0l-0.9,0.5c-2.5,1.2-6,0.8-9.9-1.4l-36.4-21C6.1,422.7,0,413.1,0,405.6v-1c0-2.7,0.8-4.8,2.2-6.1l2.4-1.4
				l176-101.6l0,0c2.4-2.4,6.6-2.5,11.5,0.3l36.4,21C236,321.1,242.1,330.7,242.1,338.3z"/>
			<path class="st1" d="M63.6,441.3v1c0,3.1-1.1,5.4-2.9,6.7c0,0,0,0,0,0c-0.3,0.2-0.6,0.4-0.9,0.5c-2.5,1.2-6,0.8-9.9-1.4l-36.4-21
				C6.1,422.7,0,413.1,0,405.6v-1c0-2.7,0.8-4.8,2.2-6.1c0.7-0.7,1.5-1.1,2.4-1.4c2.4-0.7,5.5-0.2,9,1.8l36.4,21
				C57.5,424.2,63.6,433.8,63.6,441.3z"/>
		</g>
		<polygon class="st10" points="469.7,122 502.6,103 502.6,92.7 497.9,90 446.5,60.3 418.3,76.6 		"/>
		<polygon class="st1" points="469.7,122 418.3,92.3 418.3,76.6 469.7,106.3 		"/>
		
			<linearGradient id="SVGID_00000080183922416491963170000005525075516803938208_" gradientUnits="userSpaceOnUse" x1="495.5806" y1="132.0306" x2="507.6083" y2="112.7874">
			<stop offset="0" style="stop-color:#E6E6E5"/>
			<stop offset="0.1518" style="stop-color:#DEDEDE"/>
			<stop offset="0.3352" style="stop-color:#CCCBCA"/>
			<stop offset="0.5349" style="stop-color:#B2B0B0"/>
			<stop offset="0.7462" style="stop-color:#918F8F"/>
			<stop offset="0.9645" style="stop-color:#6D6C6C"/>
			<stop offset="1" style="stop-color:#676767"/>
		</linearGradient>
		<path style="fill:url(#SVGID_00000080183922416491963170000005525075516803938208_);" d="M473.7,119.6l28.8-16.6v6.7
			c0,0,7.6,4.4,9,5.2s5.2,4.5,5.6,8.9c0.5,4.3,0,20.9,0,20.9L473.7,119.6z"/>
	</g>
</switch>

</svg>
