<?xml version="1.0" encoding="utf-8"?>
<!-- Generator: Adobe Illustrator 25.4.1, SVG Export Plug-In . SVG Version: 6.00 Build 0)  -->










<svg version="1.1" id="Layer_1" xmlns="http://www.w3.org/2000/svg" xmlns:xlink="http://www.w3.org/1999/xlink" x="0px" y="0px" viewBox="0 0 596.8 471.2" style="enable-background:new 0 0 596.8 471.2;" xml:space="preserve">
<style type="text/css">
	.st0{fill:#424F53;}
	.st1{fill:url(#SVGID_1_);}
	.st2{fill:#161F22;}
	.st3{fill:#4E5C60;}
	.st4{fill:#2E393C;}
	.st5{fill:#29363A;}
	.st6{fill:#D1D7DB;}
	.st7{fill:#EAF1F5;}
	.st8{fill:#B7BFC3;}
	.st9{fill:#C4CBCE;}
	.st10{fill:url(#SVGID_00000003819836850168685610000007175378105083414966_);}
	.st11{fill:url(#SVGID_00000000208130187914918910000009590820330061647787_);}
	.st12{fill:url(#SVGID_00000106842209441862473910000012659270161693060485_);}
	.st13{fill:url(#SVGID_00000105398294784875654870000009052676819089628817_);}
	.st14{fill:url(#SVGID_00000055681343935740413730000007386032213496766639_);}
	.st15{fill:url(#SVGID_00000183250530453630779470000010038389999259176875_);}
	.st16{fill:url(#SVGID_00000026864167588264406700000002846973465011113380_);}
	.st17{fill:url(#SVGID_00000074428752208765323660000003648779841257052549_);}
	.st18{fill:url(#SVGID_00000015350087396908871970000014114983654162389948_);}
	.st19{fill:url(#SVGID_00000144322416933192401960000002960368178405241507_);}
	.st20{fill:url(#SVGID_00000054227794067682414410000007175514137906888610_);}
	.st21{fill:url(#SVGID_00000022524327147636433440000000364295117693350824_);}
	.st22{fill:url(#SVGID_00000029006184838504406170000014165184921026781856_);}
	.st23{fill:url(#SVGID_00000176728275678556770050000001237884208313248176_);}
	.st24{fill:url(#SVGID_00000142176588089298140150000008688447639691578792_);}
	.st25{fill:url(#SVGID_00000057863270597252952740000002096265561117438399_);}
	.st26{fill:url(#SVGID_00000103245612337852881290000014814940773953766018_);}
	.st27{fill:#DCE4E8;}
	.st28{fill:url(#SVGID_00000044891330913324218660000016507112797774161560_);}
	.st29{fill:url(#SVGID_00000047768547382564638840000004324611328164839305_);}
	.st30{fill:url(#SVGID_00000093177360731029402290000003346100027146434950_);}
	.st31{fill:url(#SVGID_00000090982748206453643030000011639993200967030419_);}
	.st32{fill:url(#SVGID_00000060029763559663931930000002349693602372127147_);}
	.st33{fill:url(#SVGID_00000021105711557684457060000012531150575186938765_);}
	.st34{fill:url(#SVGID_00000090980798236283134320000005141615861576119473_);}
	.st35{fill:url(#SVGID_00000169557603592937386420000013122932820934356867_);}
	.st36{fill:url(#SVGID_00000155121596583305041270000010012698868912112278_);}
	.st37{fill:url(#SVGID_00000124849701187652116940000017740595516632231854_);}
	.st38{fill:url(#SVGID_00000070839061937442810600000015987913900488732847_);}
	.st39{fill:url(#SVGID_00000064326230049419760190000000185475790528330674_);}
	.st40{fill:url(#SVGID_00000109724865328987115340000003340777326427104925_);}
	.st41{fill:url(#SVGID_00000106135373929506336960000011701453953071633082_);}
	.st42{fill:url(#SVGID_00000039830449410692997700000012900443241368337029_);}
	.st43{fill:url(#SVGID_00000018215056947938336560000006559410264380190365_);}
	.st44{fill:#1B282C;}
	.st45{fill:url(#SVGID_00000013878710300626864490000001077406784709231524_);}
</style>
<switch>
	
	<g>
		<g>
			<path class="st0" d="M344,113.8c0,3.7-2.6,8.3-5.8,10.1l-19.9,11.5c-3.2,1.9-5.8,0.3-5.8-3.4v-5.6c0-3.7,2.6-8.3,5.8-10.1
				l19.9-11.5c3.2-1.9,5.8-0.3,5.8,3.4V113.8z"/>
			<g>
				<linearGradient id="SVGID_1_" gradientUnits="userSpaceOnUse" x1="234.7494" y1="68.3969" x2="229.066" y2="78.2409">
					<stop offset="0" style="stop-color:#424F53"/>
					<stop offset="0.8824" style="stop-color:#2E393C"/>
					<stop offset="1" style="stop-color:#293233"/>
				</linearGradient>
				<path class="st1" d="M312.4,132.1v-5.6c0-3.7,2.6-8.3,5.8-10.1l19.9-11.5c1.6-0.9,3-1,4.1-0.4l0,0L164.6,0.5
					c-1.1-0.7-2.6-0.7-4.3,0.3l-19.9,11.5c-3.2,1.9-5.8,6.4-5.8,10.1V28c0,2,0.8,3.4,2,3.9L314,135.7l0,0
					C313,135,312.4,133.8,312.4,132.1z"/>
			</g>
		</g>
		<polygon class="st2" points="429.8,193.6 504.8,150.1 504.8,206.7 429.8,250.3 		"/>
		<polygon class="st3" points="504.8,150.1 453.8,120.8 378.8,164.4 429.8,193.6 		"/>
		<polygon class="st0" points="453.8,120.8 349.6,92.1 300.1,121.3 378.8,164.4 		"/>
		<polygon class="st4" points="429.8,193.6 378.8,164.4 300.1,121.3 300.1,151.8 378.8,221 429.8,250.3 		"/>
		<g>
			<polygon class="st5" points="394.3,104.4 383.7,101.5 325.4,135.1 333.5,139.6 			"/>
			<polygon class="st5" points="318,131.1 373.9,98.8 363.3,95.8 309.9,126.7 			"/>
			<polygon class="st5" points="414.7,110 404.1,107.1 340.8,143.6 348.9,148 			"/>
			<polygon class="st5" points="435.1,115.7 424.5,112.7 356.3,152.1 364.4,156.5 			"/>
		</g>
		<g>
			<path class="st2" d="M360.3,186.7c-2.2-1.5-4-0.3-4,2.8v11.8l8,7V195C364.3,192,362.5,188.2,360.3,186.7z"/>
			<path class="st2" d="M344.9,175.8c-2.2-1.5-4-0.3-4,2.7v9.1l8,7v-10.5C348.9,181.1,347.1,177.4,344.9,175.8z"/>
			<path class="st2" d="M328.8,164.5c-2.2-1.5-4-0.3-4,2.7v6.2l8,7v-7.7C332.8,169.8,331,166.1,328.8,164.5z"/>
			<path class="st2" d="M313.6,153.8c-2.2-1.5-4-0.3-4,2.7v3.5l8,7v-4.9C317.6,159.1,315.8,155.4,313.6,153.8z"/>
		</g>
		<g>
			<path class="st2" d="M328.8,154.9c2.2,1.5,4,0.3,4-2.8v-12.9l-8-4.4v11.7C324.8,149.6,326.6,153.3,328.8,154.9z"/>
			<path class="st2" d="M344.9,166.1c2.2,1.5,4,0.3,4-2.7V148l-8-4.4v14.2C340.9,160.8,342.7,164.6,344.9,166.1z"/>
			<path class="st2" d="M356.3,152.1v16.6c0,3.1,1.8,6.8,4,8.4c2.2,1.5,4,0.3,4-2.8v-17.8L356.3,152.1z"/>
			<path class="st2" d="M313.6,144.2c2.2,1.5,4,0.3,4-2.8v-10.5l-8-4.4v9.3C309.6,138.9,311.4,142.6,313.6,144.2z"/>
		</g>
		<g>
			<g>
				<polygon class="st6" points="584.2,292.1 555,309 555,292.3 584.2,275.4 				"/>
				<polygon class="st7" points="584.2,275.4 555,292.3 469,242.7 498.3,225.8 				"/>
				<polygon class="st8" points="577.6,271.5 548.5,288.7 469,242.7 498.3,225.8 				"/>
				<polygon class="st9" points="555,309 555,292.3 469,242.7 469,259.3 				"/>
			</g>
			
				<linearGradient id="SVGID_00000109707962847820474370000016253200043872278419_" gradientUnits="userSpaceOnUse" x1="533.8824" y1="237.4365" x2="539.3945" y2="247.2353">
				<stop offset="0" style="stop-color:#EAF1F5"/>
				<stop offset="1" style="stop-color:#D1D7DB"/>
			</linearGradient>
			<path style="fill:url(#SVGID_00000109707962847820474370000016253200043872278419_);" d="M592,205.1l-87.9-50.7l-71.5,41.2
				l87.9,50.7c2.6,1.5,4.8,5.3,4.8,8.3v42.9c0,1.4-0.5,2.5-1.3,3l71-41c1.1-0.4,1.8-1.5,1.8-3.3v-42.9
				C596.8,210.4,594.7,206.7,592,205.1z"/>
			<path class="st9" d="M584.9,209l-49.6-28.6v7.4l48.2,60l6.2,3.3v-33.8C589.8,214.3,587.6,210.5,584.9,209z"/>
			<path class="st9" d="M520.6,246.4l-87.9-50.7v54l87.9,50.7c2.6,1.5,4.8,0.3,4.8-2.8v-42.9C525.4,251.6,523.2,247.9,520.6,246.4z"/>
			<polygon class="st6" points="485.5,216.8 479,213.1 535.4,180.4 535.4,187.8 			"/>
			<polygon class="st7" points="533.4,276.9 583.5,247.8 589.8,251.1 533.4,283.8 			"/>
			<path class="st6" d="M532.1,245.2c0.8,1.5,1.4,3.2,1.4,4.7v27l50.1-29.1l-0.1-32.3L532.1,245.2z"/>
			<path class="st7" d="M528.6,241.5c1.3,0.8,2.6,2.1,3.4,3.7l51.3-29.6l-48-27.7l-49.7,28.8L528.6,241.5z"/>
			<g>
				
					<linearGradient id="SVGID_00000063604237063979781120000007195386515686008983_" gradientUnits="userSpaceOnUse" x1="543.7047" y1="222.3683" x2="577.0869" y2="222.3683">
					<stop offset="0" style="stop-color:#B6A162"/>
					<stop offset="1" style="stop-color:#90712C"/>
				</linearGradient>
				<polygon style="fill:url(#SVGID_00000063604237063979781120000007195386515686008983_);" points="577.1,219.2 577,244.8 
					575.9,244.3 575.9,219.8 543.7,201.2 543.7,199.9 				"/>
				
					<linearGradient id="SVGID_00000158000260900430135290000018001861644176201095_" gradientUnits="userSpaceOnUse" x1="543.7047" y1="221.2301" x2="580.8782" y2="221.2301">
					<stop offset="0" style="stop-color:#D0BA7C"/>
					<stop offset="1" style="stop-color:#A88943"/>
				</linearGradient>
				<polygon style="fill:url(#SVGID_00000158000260900430135290000018001861644176201095_);" points="580.9,216.9 580.9,242.6 
					577,244.8 577.1,219.2 543.7,199.9 547.5,197.6 				"/>
			</g>
			<g>
				
					<linearGradient id="SVGID_00000137846898904053231380000007775230760915815601_" gradientUnits="userSpaceOnUse" x1="537.0909" y1="226.196" x2="570.473" y2="226.196">
					<stop offset="0" style="stop-color:#B6A162"/>
					<stop offset="1" style="stop-color:#90712C"/>
				</linearGradient>
				<polygon style="fill:url(#SVGID_00000137846898904053231380000007775230760915815601_);" points="570.5,223 570.4,248.7 
					569.2,248.1 569.3,223.6 537.1,205 537.1,203.7 				"/>
				
					<linearGradient id="SVGID_00000102538143144929560660000009363685043383612092_" gradientUnits="userSpaceOnUse" x1="537.0909" y1="225.0578" x2="574.2644" y2="225.0578">
					<stop offset="0" style="stop-color:#D0BA7C"/>
					<stop offset="1" style="stop-color:#A88943"/>
				</linearGradient>
				<polygon style="fill:url(#SVGID_00000102538143144929560660000009363685043383612092_);" points="574.3,220.8 574.3,246.4 
					570.4,248.7 570.5,223 537.1,203.7 540.9,201.4 				"/>
			</g>
			<g>
				
					<linearGradient id="SVGID_00000152246190102413583700000005050804202111062716_" gradientUnits="userSpaceOnUse" x1="530.478" y1="230.0237" x2="563.86" y2="230.0237">
					<stop offset="0" style="stop-color:#B6A162"/>
					<stop offset="1" style="stop-color:#90712C"/>
				</linearGradient>
				<polygon style="fill:url(#SVGID_00000152246190102413583700000005050804202111062716_);" points="563.9,226.8 563.8,252.5 
					562.6,252 562.7,227.5 530.5,208.8 530.5,207.5 				"/>
				
					<linearGradient id="SVGID_00000083064702378322292210000015898237339565904550_" gradientUnits="userSpaceOnUse" x1="530.478" y1="228.8856" x2="567.6514" y2="228.8856">
					<stop offset="0" style="stop-color:#D0BA7C"/>
					<stop offset="1" style="stop-color:#A88943"/>
				</linearGradient>
				<polygon style="fill:url(#SVGID_00000083064702378322292210000015898237339565904550_);" points="567.7,224.6 567.7,250.2 
					563.8,252.5 563.9,226.8 530.5,207.5 534.3,205.3 				"/>
			</g>
			<g>
				
					<linearGradient id="SVGID_00000101790467095077835050000010325084883637273236_" gradientUnits="userSpaceOnUse" x1="523.8641" y1="233.8515" x2="557.2462" y2="233.8515">
					<stop offset="0" style="stop-color:#B6A162"/>
					<stop offset="1" style="stop-color:#90712C"/>
				</linearGradient>
				<polygon style="fill:url(#SVGID_00000101790467095077835050000010325084883637273236_);" points="557.2,230.7 557.2,256.3 
					556,255.8 556.1,231.3 523.9,212.7 523.9,211.4 				"/>
				
					<linearGradient id="SVGID_00000180356140169600671610000002570788838666349981_" gradientUnits="userSpaceOnUse" x1="523.8641" y1="232.7133" x2="561.0376" y2="232.7133">
					<stop offset="0" style="stop-color:#D0BA7C"/>
					<stop offset="1" style="stop-color:#A88943"/>
				</linearGradient>
				<polygon style="fill:url(#SVGID_00000180356140169600671610000002570788838666349981_);" points="561,228.4 561,254.1 
					557.2,256.3 557.2,230.7 523.9,211.4 527.7,209.1 				"/>
			</g>
			<g>
				
					<linearGradient id="SVGID_00000045583964489926055590000001889967792024111748_" gradientUnits="userSpaceOnUse" x1="517.2512" y1="237.6787" x2="550.6334" y2="237.6787">
					<stop offset="0" style="stop-color:#B6A162"/>
					<stop offset="1" style="stop-color:#90712C"/>
				</linearGradient>
				<polygon style="fill:url(#SVGID_00000045583964489926055590000001889967792024111748_);" points="550.6,234.5 550.6,260.2 
					549.4,259.6 549.4,235.1 517.3,216.5 517.3,215.2 				"/>
				
					<linearGradient id="SVGID_00000146498125180167066580000012594146518605107334_" gradientUnits="userSpaceOnUse" x1="517.2512" y1="236.5405" x2="554.4246" y2="236.5405">
					<stop offset="0" style="stop-color:#D0BA7C"/>
					<stop offset="1" style="stop-color:#A88943"/>
				</linearGradient>
				<polygon style="fill:url(#SVGID_00000146498125180167066580000012594146518605107334_);" points="554.4,232.3 554.4,257.9 
					550.6,260.2 550.6,234.5 517.3,215.2 521.1,212.9 				"/>
			</g>
			<g>
				
					<linearGradient id="SVGID_00000152232858277823990150000017438833869431791242_" gradientUnits="userSpaceOnUse" x1="510.6372" y1="241.5064" x2="544.0194" y2="241.5064">
					<stop offset="0" style="stop-color:#B6A162"/>
					<stop offset="1" style="stop-color:#90712C"/>
				</linearGradient>
				<polygon style="fill:url(#SVGID_00000152232858277823990150000017438833869431791242_);" points="544,238.3 544,264 
					542.8,263.5 542.8,238.9 510.6,220.3 510.6,219 				"/>
				
					<linearGradient id="SVGID_00000101784877965279895240000002127767399875822494_" gradientUnits="userSpaceOnUse" x1="510.6372" y1="240.3683" x2="547.8108" y2="240.3683">
					<stop offset="0" style="stop-color:#D0BA7C"/>
					<stop offset="1" style="stop-color:#A88943"/>
				</linearGradient>
				<polygon style="fill:url(#SVGID_00000101784877965279895240000002127767399875822494_);" points="547.8,236.1 547.8,261.7 
					544,264 544,238.3 510.6,219 514.5,216.7 				"/>
			</g>
			<g>
				
					<linearGradient id="SVGID_00000070828400728623614410000015072893290594335410_" gradientUnits="userSpaceOnUse" x1="504.0244" y1="245.3332" x2="537.4066" y2="245.3332">
					<stop offset="0" style="stop-color:#B6A162"/>
					<stop offset="1" style="stop-color:#90712C"/>
				</linearGradient>
				<polygon style="fill:url(#SVGID_00000070828400728623614410000015072893290594335410_);" points="537.4,242.1 537.4,267.8 
					536.2,267.3 536.2,242.8 504,224.2 504,222.9 				"/>
				
					<linearGradient id="SVGID_00000023972606053518635650000007992256273762650800_" gradientUnits="userSpaceOnUse" x1="504.0244" y1="244.195" x2="541.1979" y2="244.195">
					<stop offset="0" style="stop-color:#D0BA7C"/>
					<stop offset="1" style="stop-color:#A88943"/>
				</linearGradient>
				<polygon style="fill:url(#SVGID_00000023972606053518635650000007992256273762650800_);" points="541.2,239.9 541.2,265.5 
					537.4,267.8 537.4,242.1 504,222.9 507.9,220.6 				"/>
			</g>
			
				<linearGradient id="SVGID_00000157305117932620660680000013239494203920750775_" gradientUnits="userSpaceOnUse" x1="500.1545" y1="247.6349" x2="534.584" y2="247.6349">
				<stop offset="0" style="stop-color:#D0BA7C"/>
				<stop offset="1" style="stop-color:#A88943"/>
			</linearGradient>
			<path style="fill:url(#SVGID_00000157305117932620660680000013239494203920750775_);" d="M534.6,243.7l-33.3-19.3l-1.1,0.6
				l28.5,16.4c1.3,0.8,2.6,2.1,3.4,3.7l0,25.7l2.5-1.5V243.7z"/>
		</g>
		<g>
			<g>
				<polygon class="st6" points="164.2,265.8 92.7,308.1 92.7,254.2 164.2,212.7 				"/>
				
					<linearGradient id="SVGID_00000040559325900773895680000017784587237623061632_" gradientUnits="userSpaceOnUse" x1="43.5588" y1="182.5891" x2="133.4601" y2="240.0769">
					<stop offset="0" style="stop-color:#EAF1F5"/>
					<stop offset="0.4005" style="stop-color:#E6EDF0"/>
					<stop offset="0.8025" style="stop-color:#DAE0E4"/>
					<stop offset="1" style="stop-color:#D1D7DB"/>
				</linearGradient>
				<path style="fill:url(#SVGID_00000040559325900773895680000017784587237623061632_);" d="M76.3,161.8c-1.3-0.8-2.5-0.8-3.4-0.4
					l-8.4,4.9l0,0c-0.7,0.6-1.1,1.5-1.1,2.8v12.2l-42.4,23.1l-9-5.2c-1-0.6-2-0.8-2.7-0.6l-0.6,0.2l-6.9,4l0,0
					c0.8-0.3,1.9-0.2,3.1,0.5l87.9,50.7l71.5-41.6L76.3,161.8z"/>
				<path class="st9" d="M4.8,203.4c-2.6-1.5-4.8-0.3-4.8,2.8V249c0,3.1,2.2,6.8,4.8,8.3l87.9,50.7v-54L4.8,203.4z"/>
				<path class="st9" d="M98.6,205.2l18.4-10.7l-48.7-28.1c-1.4-0.8-2.6-0.8-3.5-0.3c-0.8,0.5-1.3,1.6-1.3,3V188L98.6,205.2z"/>
				<polygon class="st27" points="67,173.3 17.1,202.3 60.7,227.4 110.5,198.4 				"/>
				<g>
					
						<linearGradient id="SVGID_00000125604209405887816760000010097584239984225968_" gradientUnits="userSpaceOnUse" x1="58.3551" y1="187.478" x2="95.5287" y2="187.478">
						<stop offset="0" style="stop-color:#B6A162"/>
						<stop offset="1" style="stop-color:#90712C"/>
					</linearGradient>
					<polygon style="fill:url(#SVGID_00000125604209405887816760000010097584239984225968_);" points="58.4,177.4 58.4,178.3 
						91.7,197.6 95.5,195.3 95.5,194.4 					"/>
					
						<linearGradient id="SVGID_00000070118887678196844740000013745088579771314352_" gradientUnits="userSpaceOnUse" x1="58.3551" y1="185.8879" x2="95.5287" y2="185.8879">
						<stop offset="0" style="stop-color:#D0BA7C"/>
						<stop offset="1" style="stop-color:#A88943"/>
					</linearGradient>
					<polygon style="fill:url(#SVGID_00000070118887678196844740000013745088579771314352_);" points="62.2,175.1 58.4,177.4 
						91.7,196.7 95.5,194.4 					"/>
				</g>
				<g>
					
						<linearGradient id="SVGID_00000057110010591435852570000001899332840883379085_" gradientUnits="userSpaceOnUse" x1="52.0397" y1="191.1671" x2="89.2133" y2="191.1671">
						<stop offset="0" style="stop-color:#B6A162"/>
						<stop offset="1" style="stop-color:#90712C"/>
					</linearGradient>
					<polygon style="fill:url(#SVGID_00000057110010591435852570000001899332840883379085_);" points="52,181.1 52,182 85.4,201.3 
						89.2,199 89.2,198.1 					"/>
					
						<linearGradient id="SVGID_00000038391996850865511190000004716966721965745828_" gradientUnits="userSpaceOnUse" x1="52.0397" y1="189.577" x2="89.2133" y2="189.577">
						<stop offset="0" style="stop-color:#D0BA7C"/>
						<stop offset="1" style="stop-color:#A88943"/>
					</linearGradient>
					<polygon style="fill:url(#SVGID_00000038391996850865511190000004716966721965745828_);" points="55.9,178.8 52,181.1 
						85.4,200.4 89.2,198.1 					"/>
				</g>
				<g>
					
						<linearGradient id="SVGID_00000101067365608593662640000015702935367260385190_" gradientUnits="userSpaceOnUse" x1="45.7242" y1="194.8561" x2="82.8977" y2="194.8561">
						<stop offset="0" style="stop-color:#B6A162"/>
						<stop offset="1" style="stop-color:#90712C"/>
					</linearGradient>
					<polygon style="fill:url(#SVGID_00000101067365608593662640000015702935367260385190_);" points="45.7,184.8 45.7,185.7 
						79.1,205 82.9,202.7 82.9,201.8 					"/>
					
						<linearGradient id="SVGID_00000049925947723338783750000017196814469264146568_" gradientUnits="userSpaceOnUse" x1="45.7242" y1="193.266" x2="82.8977" y2="193.266">
						<stop offset="0" style="stop-color:#D0BA7C"/>
						<stop offset="1" style="stop-color:#A88943"/>
					</linearGradient>
					<polygon style="fill:url(#SVGID_00000049925947723338783750000017196814469264146568_);" points="49.6,182.5 45.7,184.8 
						79.1,204.1 82.9,201.8 					"/>
				</g>
				<g>
					
						<linearGradient id="SVGID_00000021819307780517806980000004717310700983651514_" gradientUnits="userSpaceOnUse" x1="39.4088" y1="198.5452" x2="76.5823" y2="198.5452">
						<stop offset="0" style="stop-color:#B6A162"/>
						<stop offset="1" style="stop-color:#90712C"/>
					</linearGradient>
					<polygon style="fill:url(#SVGID_00000021819307780517806980000004717310700983651514_);" points="39.4,188.4 39.4,189.3 
						72.8,208.6 76.6,206.4 76.6,205.5 					"/>
					
						<linearGradient id="SVGID_00000080178924150819518590000007396997808232108961_" gradientUnits="userSpaceOnUse" x1="39.4088" y1="196.955" x2="76.5823" y2="196.955">
						<stop offset="0" style="stop-color:#D0BA7C"/>
						<stop offset="1" style="stop-color:#A88943"/>
					</linearGradient>
					<polygon style="fill:url(#SVGID_00000080178924150819518590000007396997808232108961_);" points="43.2,186.2 39.4,188.4 
						72.8,207.7 76.6,205.5 					"/>
				</g>
				<g>
					
						<linearGradient id="SVGID_00000134947910570835405260000003368760080800541091_" gradientUnits="userSpaceOnUse" x1="33.0942" y1="202.2337" x2="70.2678" y2="202.2337">
						<stop offset="0" style="stop-color:#B6A162"/>
						<stop offset="1" style="stop-color:#90712C"/>
					</linearGradient>
					<polygon style="fill:url(#SVGID_00000134947910570835405260000003368760080800541091_);" points="33.1,192.1 33.1,193 
						66.5,212.3 70.3,210.1 70.3,209.2 					"/>
					
						<linearGradient id="SVGID_00000145776815162025710480000009886584923441127071_" gradientUnits="userSpaceOnUse" x1="33.0942" y1="200.6436" x2="70.2678" y2="200.6436">
						<stop offset="0" style="stop-color:#D0BA7C"/>
						<stop offset="1" style="stop-color:#A88943"/>
					</linearGradient>
					<polygon style="fill:url(#SVGID_00000145776815162025710480000009886584923441127071_);" points="36.9,189.9 33.1,192.1 
						66.5,211.4 70.3,209.2 					"/>
				</g>
				<g>
					
						<linearGradient id="SVGID_00000039107991890906357720000012867623107189520042_" gradientUnits="userSpaceOnUse" x1="26.7788" y1="205.9228" x2="63.9524" y2="205.9228">
						<stop offset="0" style="stop-color:#B6A162"/>
						<stop offset="1" style="stop-color:#90712C"/>
					</linearGradient>
					<polygon style="fill:url(#SVGID_00000039107991890906357720000012867623107189520042_);" points="26.8,195.8 26.8,196.7 
						60.2,216 64,213.8 64,212.9 					"/>
					
						<linearGradient id="SVGID_00000145017122252905681640000006200796967958077057_" gradientUnits="userSpaceOnUse" x1="26.7788" y1="204.3326" x2="63.9524" y2="204.3326">
						<stop offset="0" style="stop-color:#D0BA7C"/>
						<stop offset="1" style="stop-color:#A88943"/>
					</linearGradient>
					<polygon style="fill:url(#SVGID_00000145017122252905681640000006200796967958077057_);" points="30.6,193.5 26.8,195.8 
						60.2,215.1 64,212.9 					"/>
				</g>
				<g>
					
						<linearGradient id="SVGID_00000121992262303969340710000000181839081617008036_" gradientUnits="userSpaceOnUse" x1="20.4633" y1="209.6118" x2="57.6368" y2="209.6118">
						<stop offset="0" style="stop-color:#B6A162"/>
						<stop offset="1" style="stop-color:#90712C"/>
					</linearGradient>
					<polygon style="fill:url(#SVGID_00000121992262303969340710000000181839081617008036_);" points="20.5,199.5 20.5,200.4 
						53.8,219.7 57.6,217.5 57.6,216.6 					"/>
					
						<linearGradient id="SVGID_00000054250631206948150660000005222664488071960739_" gradientUnits="userSpaceOnUse" x1="20.4633" y1="208.0217" x2="57.6368" y2="208.0217">
						<stop offset="0" style="stop-color:#D0BA7C"/>
						<stop offset="1" style="stop-color:#A88943"/>
					</linearGradient>
					<polygon style="fill:url(#SVGID_00000054250631206948150660000005222664488071960739_);" points="24.3,197.2 20.5,199.5 
						53.8,218.8 57.6,216.6 					"/>
				</g>
				
					<linearGradient id="SVGID_00000142167912112026226370000007707837368730303915_" gradientUnits="userSpaceOnUse" x1="36.658" y1="217.5573" x2="51.3214" y2="217.5573">
					<stop offset="0" style="stop-color:#B6A162"/>
					<stop offset="1" style="stop-color:#90712C"/>
				</linearGradient>
				<polygon style="fill:url(#SVGID_00000142167912112026226370000007707837368730303915_);" points="50.6,221.6 51.3,221.2 
					51.3,220.3 36.7,213.5 				"/>
				
					<linearGradient id="SVGID_00000061473564413164648810000001442640145194316989_" gradientUnits="userSpaceOnUse" x1="17.1483" y1="211.2445" x2="51.3214" y2="211.2445">
					<stop offset="0" style="stop-color:#D0BA7C"/>
					<stop offset="1" style="stop-color:#A88943"/>
				</linearGradient>
				<polygon style="fill:url(#SVGID_00000061473564413164648810000001442640145194316989_);" points="49.8,221.1 51.3,220.3 
					18.7,201.4 17.1,202.3 				"/>
			</g>
			<polygon class="st4" points="148.1,285.8 90.2,252.5 90.2,309.2 148.1,342.4 			"/>
			<polygon class="st3" points="223.2,242.2 165.2,209 90.2,252.5 148.1,285.8 			"/>
			<polygon class="st4" points="260.6,346.6 148.1,285.8 148.1,342.5 260.6,381.8 			"/>
			<polygon class="st0" points="306.9,319.8 223.2,242.3 148.1,285.8 260.6,346.6 			"/>
			<polygon class="st44" points="306.9,355 260.6,381.8 260.6,346.6 306.9,319.8 			"/>
			<g>
				<polygon class="st5" points="178.8,302.4 246.1,263.5 238.8,256.7 169,297.1 				"/>
				<polygon class="st5" points="262.6,278.8 255.3,272 191.1,309.1 201,314.4 				"/>
				<polygon class="st5" points="295.6,309.3 288.3,302.5 235.4,333 245.3,338.4 				"/>
				<polygon class="st5" points="279.1,294.1 271.8,287.3 213.3,321 223.1,326.4 				"/>
			</g>
			<g>
				<path class="st2" d="M195.9,344c-2.6-1.1-4.8,0.5-4.8,3.6v10l9.6,3.3v-9.4C200.7,348.4,198.5,345,195.9,344z"/>
				<path class="st2" d="M178.5,353.1v-10.8c0-3.1-2.2-6.4-4.8-7.5c-2.6-1.1-4.8,0.5-4.8,3.6v11.4L178.5,353.1z"/>
				<path class="st2" d="M240.2,362.3c-2.6-1.1-4.8,0.5-4.8,3.6v7.2l9.6,3.3v-6.6C245,366.8,242.8,363.4,240.2,362.3z"/>
				<path class="st2" d="M218.1,353.1c-2.6-1.1-4.8,0.5-4.8,3.6v8.6l9.6,3.3v-8C222.8,357.6,220.7,354.2,218.1,353.1z"/>
			</g>
			<g>
				<path class="st2" d="M173.7,322.4c2.6,1.1,4.8-0.5,4.8-3.6v-16.5l-9.6-5.2v17.8C169,317.9,171.1,321.3,173.7,322.4z"/>
				<path class="st2" d="M195.9,331.5c2.6,1.1,4.8-0.5,4.8-3.6v-13.7l-9.6-5.2V324C191.1,327,193.3,330.4,195.9,331.5z"/>
				<path class="st2" d="M235.4,333v9.3c0,3.1,2.2,6.4,4.8,7.5c2.6,1.1,4.8-0.5,4.8-3.6v-8.1L235.4,333z"/>
				<path class="st2" d="M218.1,340.7c2.6,1.1,4.8-0.5,4.8-3.6v-10.9l-9.6-5.2v12.1C213.3,336.2,215.4,339.6,218.1,340.7z"/>
			</g>
			<g>
				<path class="st0" d="M477.2,448.8c0,3.7-2.6,8.3-5.8,10.1l-19.9,11.5c-3.2,1.9-5.8,0.3-5.8-3.4v-5.6c0-3.7,2.6-8.3,5.8-10.1
					l19.9-11.5c3.2-1.9,5.8-0.3,5.8,3.4V448.8z"/>
				<g>
					
						<linearGradient id="SVGID_00000177480410635676826450000011104099749261874363_" gradientUnits="userSpaceOnUse" x1="367.9196" y1="403.39" x2="362.2365" y2="413.2336">
						<stop offset="0" style="stop-color:#424F53"/>
						<stop offset="0.8824" style="stop-color:#2E393C"/>
						<stop offset="1" style="stop-color:#293233"/>
					</linearGradient>
					<path style="fill:url(#SVGID_00000177480410635676826450000011104099749261874363_);" d="M445.6,467v-5.6
						c0-3.7,2.6-8.3,5.8-10.1l19.9-11.5c1.6-0.9,3-1,4.1-0.4h0L297.8,335.5c-1.1-0.7-2.6-0.7-4.3,0.3l-19.9,11.5
						c-3.2,1.9-5.8,6.4-5.8,10.1v5.6c0,2,0.8,3.4,2,3.9l177.3,103.8l0,0C446.2,470,445.6,468.8,445.6,467z"/>
				</g>
			</g>
		</g>
	</g>
</switch>

</svg>
