<?xml version="1.0" encoding="utf-8"?>
<!-- Generator: Adobe Illustrator 25.4.1, SVG Export Plug-In . SVG Version: 6.00 Build 0)  -->
<svg version="1.1" id="Layer_1" xmlns="http://www.w3.org/2000/svg" xmlns:xlink="http://www.w3.org/1999/xlink" x="0px" y="0px" viewBox="0 0 200 130.6" style="enable-background:new 0 0 200 130.6;" xml:space="preserve">
<style type="text/css">
	.st0{enable-background:new    ;}
	.st1{fill:#706F6F;}
	.st2{fill:#BBBBBB;}
	.st3{fill:#C7C4C4;}
	.st4{fill:#B3B1B2;}
	.st5{fill:#989898;}
	.st6{fill:#969393;}
	.st7{fill:#787878;}
	.st8{fill:#5D5B5B;}
	.st9{fill:#5E5F5F;}
	.st10{clip-path:url(#SVGID_00000129915281658730246490000015978776334919927194_);fill:#BBBBBB;}
	.st11{fill:#3F3D3E;}
	.st12{fill:#8C888A;}
	.st13{fill:#7B7679;}
	.st14{fill:#C7C1C4;}
	.st15{fill:#6D6E6E;}
	.st16{fill:#646262;}
	.st17{fill:#828182;}
	.st18{fill:#7F8080;}
	.st19{fill:#646363;}
	.st20{fill:#291B1B;}
	.st21{fill:#1F2C33;}
	.st22{fill:#1D374F;}
	.st23{fill:#162C3D;}
	.st24{fill:#34302F;}
	.st25{fill:#1A1718;}
	.st26{fill:#615B5B;}
	.st27{fill:#4A4444;}
	.st28{fill:#1E1B1B;}
	.st29{fill:#070707;}
	.st30{fill:#E4ECF2;}
	.st31{fill:#BDBFC1;}
	.st32{opacity:0.7;}
	.st33{fill:#44555E;}
	.st34{fill:#677880;}
	.st35{fill:#313E45;}
	.st36{fill:#67808D;}
</style>
<g>
	<g>
		<g>
			<g class="st0">
				<path class="st1" d="M197.1,90.1c-0.1-0.9-0.1-1.8-0.3-2.7c0-0.3-0.1-0.5-0.1-0.8c-0.1-0.4-0.1-0.8-0.2-1.2
					c0-0.3-0.1-0.6-0.2-0.9c-0.1-0.4-0.1-0.8-0.2-1.2c0-0.2-0.1-0.5-0.1-0.7c-0.2-1-0.5-2.1-0.8-3.1c0-0.2-0.1-0.4-0.2-0.5
					c-0.3-0.9-0.5-1.8-0.8-2.7c0-0.1,0-0.1-0.1-0.2c-0.3-0.9-0.6-1.7-0.9-2.6c-0.1-0.2-0.2-0.5-0.3-0.7c-0.3-0.7-0.6-1.4-0.9-2.1
					c-0.1-0.1-0.1-0.3-0.2-0.4c-0.4-0.8-0.7-1.6-1.1-2.4c-0.1-0.2-0.2-0.4-0.3-0.6c-0.3-0.6-0.6-1.3-1-1.9c-0.1-0.2-0.2-0.4-0.3-0.6
					c-0.4-0.8-0.8-1.6-1.3-2.3c-0.1-0.2-0.2-0.3-0.3-0.5c-0.4-0.7-0.8-1.3-1.2-2c-0.1-0.2-0.2-0.4-0.4-0.6c-0.5-0.8-1-1.6-1.6-2.4
					c-0.1-0.1-0.2-0.2-0.2-0.3c-0.6-0.8-1.2-1.6-1.8-2.4c-0.1-0.1-0.1-0.2-0.2-0.3c-0.7-1-1.5-1.9-2.3-2.8c-0.1-0.1-0.2-0.2-0.3-0.4
					c-0.5-0.5-1-1.1-1.5-1.6c0,0-0.1-0.1-0.1-0.1c-0.5-0.6-1.1-1.1-1.6-1.6c-0.1-0.1-0.2-0.2-0.4-0.4c-0.7-0.7-1.4-1.3-2.1-2
					c-0.1-0.1-0.1-0.1-0.2-0.2c-0.8-0.7-1.5-1.3-2.3-1.9c-0.1-0.1-0.3-0.2-0.4-0.3c-0.8-0.6-1.5-1.1-2.3-1.7
					c-0.1-0.1-0.3-0.2-0.4-0.3c-0.8-0.5-1.6-1.1-2.5-1.5c-0.7-0.4-1.3-0.7-2-1.1c-0.2-0.1-0.4-0.2-0.6-0.3c-0.5-0.2-1-0.5-1.5-0.7
					c-0.2-0.1-0.3-0.1-0.5-0.2c-0.5-0.2-0.9-0.4-1.4-0.5c-0.1,0-0.2-0.1-0.3-0.1c-0.6-0.2-1.1-0.4-1.7-0.5c-0.3-0.1-0.6-0.2-0.9-0.2
					c-0.2,0-0.3-0.1-0.5-0.1c-0.5-0.1-0.9-0.2-1.4-0.3c0,0,0,0,0,0c-0.4-0.1-0.9-0.1-1.3-0.2c-0.1,0-0.3,0-0.4,0c-0.3,0-0.5,0-0.8,0
					c-0.6,0-1.2,0-1.8,0c-0.1,0-0.2,0-0.3,0c-0.5,0-1,0.1-1.4,0.2c-0.2,0-0.3,0-0.5,0.1c-0.5,0.1-1,0.2-1.6,0.4c0,0,0,0-0.1,0
					c-0.5,0.1-1,0.3-1.4,0.5c-0.1,0.1-0.3,0.1-0.4,0.2c-0.4,0.2-0.8,0.4-1.1,0.6c-0.1,0.1-0.3,0.1-0.4,0.2c0.9-0.5,1.9-1.1,2.8-1.6
					c0.1,0,0.1-0.1,0.2-0.1c0.1,0,0.1-0.1,0.2-0.1c0.4-0.2,0.8-0.4,1.2-0.6c0.1,0,0.1-0.1,0.2-0.1c0.1,0,0.1,0,0.2-0.1
					c0.5-0.2,0.9-0.4,1.4-0.5c0,0,0,0,0,0c0,0,0,0,0,0c0.5-0.1,1-0.3,1.6-0.4c0.1,0,0.1,0,0.2,0c0.1,0,0.2,0,0.2,0
					c0.5-0.1,1-0.1,1.4-0.2c0.1,0,0.1,0,0.2,0l0,0c0,0,0.1,0,0.1,0c0.6,0,1.2,0,1.8,0c0.1,0,0.1,0,0.2,0c0.2,0,0.4,0,0.6,0
					c0.1,0,0.3,0,0.4,0c0.4,0,0.8,0.1,1.2,0.1c0.1,0,0.1,0,0.2,0c0.4,0.1,0.9,0.2,1.3,0.3c0.1,0,0.3,0.1,0.4,0.1
					c0.3,0.1,0.6,0.1,0.9,0.2c0,0,0.1,0,0.1,0c0.6,0.2,1.1,0.3,1.7,0.5c0.1,0,0.2,0.1,0.3,0.1c0.5,0.2,0.9,0.3,1.4,0.5
					c0.1,0,0.1,0,0.2,0.1c0.1,0,0.2,0.1,0.3,0.2c0.5,0.2,1,0.4,1.5,0.7c0.2,0.1,0.4,0.2,0.5,0.3c0.7,0.3,1.3,0.7,2,1.1
					c0.8,0.5,1.7,1,2.5,1.5c0.1,0.1,0.3,0.2,0.4,0.3c0.8,0.5,1.5,1.1,2.3,1.7c0.1,0.1,0.3,0.2,0.4,0.3c0.8,0.6,1.5,1.2,2.3,1.9
					c0.1,0.1,0.1,0.1,0.2,0.2c0.7,0.6,1.5,1.3,2.2,2c0.1,0.1,0.1,0.1,0.2,0.2c0,0,0.1,0.1,0.1,0.1c0.5,0.5,1.1,1.1,1.6,1.6
					c0,0,0,0,0,0c0.5,0.6,1,1.1,1.5,1.7c0,0,0.1,0.1,0.1,0.1c0.1,0.1,0.1,0.1,0.2,0.2c0.8,0.9,1.6,1.9,2.3,2.8c0,0,0,0,0.1,0.1
					c0.1,0.1,0.1,0.1,0.2,0.2c0.6,0.8,1.2,1.6,1.8,2.4c0.1,0.1,0.1,0.1,0.2,0.2c0,0,0,0.1,0.1,0.1c0.5,0.8,1.1,1.6,1.6,2.4
					c0.1,0.1,0.1,0.2,0.2,0.2c0.1,0.1,0.1,0.2,0.2,0.4c0.4,0.7,0.8,1.3,1.2,2c0.1,0.1,0.1,0.2,0.2,0.3c0,0,0,0.1,0.1,0.1
					c0.4,0.8,0.9,1.6,1.3,2.3c0,0.1,0.1,0.1,0.1,0.2c0.1,0.1,0.1,0.2,0.2,0.4c0.3,0.6,0.6,1.3,1,1.9c0.1,0.1,0.1,0.3,0.2,0.4
					c0,0.1,0.1,0.2,0.1,0.2c0.4,0.8,0.7,1.6,1.1,2.4c0,0,0,0.1,0,0.1c0,0.1,0.1,0.2,0.1,0.3c0.3,0.7,0.6,1.4,0.9,2.1
					c0,0.1,0.1,0.3,0.2,0.4c0,0.1,0.1,0.2,0.1,0.3c0.3,0.9,0.6,1.7,0.9,2.6c0,0,0,0,0,0.1c0,0.1,0,0.1,0.1,0.2
					c0.3,0.9,0.6,1.8,0.8,2.6c0,0.1,0.1,0.2,0.1,0.4c0,0.1,0,0.1,0,0.2c0.3,1,0.5,2.1,0.8,3.1c0,0.1,0,0.2,0.1,0.3
					c0,0.1,0.1,0.3,0.1,0.4c0.1,0.4,0.2,0.8,0.2,1.2c0.1,0.3,0.1,0.6,0.2,0.9c0.1,0.4,0.1,0.8,0.2,1.3c0,0.2,0.1,0.4,0.1,0.6
					c0,0.1,0,0.1,0,0.2c0.1,0.9,0.2,1.8,0.3,2.7c0,0.2,0,0.4,0,0.6c0.1,0.9,0.1,1.8,0.1,2.7c0,3.7-0.5,7-1.4,9.8
					c-1.5,4.7-4.2,8.2-7.7,10.3c-0.4,0.2-0.8,0.5-1.3,0.7c-0.5,0.3-0.9,0.5-1.4,0.8c0,0-0.1,0-0.1,0.1c0,0,0,0,0,0l0,0
					c3.5-2,6.2-5.5,7.7-10.3c0.9-2.8,1.4-6.1,1.4-9.8c0-0.9,0-1.8-0.1-2.7C197.1,90.5,197.1,90.3,197.1,90.1z"/>
				<g>
					<path class="st2" d="M166,39.4c-17.3-10-31.4-2-31.4,17.9c-0.1,19.9,13.9,44.1,31.2,54.1c17.3,10,31.4,2,31.4-17.9
						C197.3,73.6,183.3,49.4,166,39.4z"/>
				</g>
			</g>
		</g>
		<g>
			<g class="st0">
				<path class="st1" d="M154.6,54.5c-0.1,0-0.2-0.1-0.4-0.2c-0.3-0.1-0.7-0.3-1-0.4c-0.1,0-0.1-0.1-0.2-0.1
					c-0.4-0.1-0.8-0.3-1.2-0.4c-0.1,0-0.1,0-0.2,0c-0.6-0.2-1.2-0.3-1.8-0.4c-0.5-0.1-1-0.1-1.5-0.1c-0.1,0-0.2,0-0.3,0
					c-0.4,0-0.9,0-1.3,0c-0.1,0-0.1,0-0.2,0c-0.3,0-0.7,0.1-1,0.1c-0.1,0-0.2,0-0.3,0c-0.4,0.1-0.7,0.2-1.1,0.3c0,0,0,0,0,0
					c-0.3,0.1-0.7,0.2-1,0.4c-0.1,0-0.2,0.1-0.3,0.1c-0.3,0.1-0.5,0.2-0.8,0.4c-0.1,0.1-0.2,0.1-0.3,0.1l8.3-4.8c0,0,0.1,0,0.1-0.1
					c0,0,0.1,0,0.1-0.1c0.3-0.1,0.5-0.3,0.8-0.4c0,0,0.1-0.1,0.1-0.1c0,0,0.1,0,0.1,0c0.3-0.1,0.6-0.2,1-0.3c0,0,0,0,0.1,0
					c0,0,0,0,0,0c0.4-0.1,0.7-0.2,1.1-0.3c0,0,0.1,0,0.1,0c0.1,0,0.1,0,0.2,0c0.3-0.1,0.7-0.1,1-0.1c0.1,0,0.1,0,0.2,0
					c0,0,0,0,0.1,0c0.4,0,0.8,0,1.3,0c0,0,0.1,0,0.1,0c0.1,0,0.1,0,0.2,0c0.5,0,1,0.1,1.4,0.1c0,0,0,0,0,0c0,0,0,0,0,0
					c0.6,0.1,1.2,0.2,1.8,0.4c0,0,0.1,0,0.1,0c0,0,0,0,0.1,0c0.4,0.1,0.8,0.2,1.2,0.4c0.1,0,0.2,0.1,0.3,0.1c0.3,0.1,0.6,0.2,1,0.4
					c0,0,0.1,0,0.1,0.1c0.1,0,0.2,0.1,0.3,0.1c0.3,0.1,0.7,0.3,1,0.5c0.1,0.1,0.3,0.1,0.4,0.2c0.5,0.2,0.9,0.5,1.4,0.7
					c0.7,0.4,1.4,0.9,2.1,1.3c0.2,0.2,0.4,0.3,0.7,0.5c0.5,0.3,0.9,0.7,1.4,1c0.3,0.2,0.5,0.4,0.7,0.6c0.4,0.4,0.8,0.7,1.2,1.1
					c0.2,0.2,0.5,0.5,0.7,0.7c0.2,0.1,0.3,0.3,0.5,0.4c0.2,0.2,0.3,0.3,0.5,0.5c0.5,0.5,1,1,1.4,1.5c0.2,0.2,0.3,0.3,0.5,0.5
					c0.1,0.1,0.2,0.3,0.4,0.5c0.3,0.3,0.6,0.7,0.8,1c0.2,0.2,0.4,0.5,0.6,0.7c0.1,0.2,0.3,0.4,0.4,0.6c0.2,0.3,0.4,0.5,0.6,0.8
					c0.1,0.2,0.3,0.4,0.4,0.6c0.2,0.3,0.4,0.7,0.7,1c0.1,0.2,0.3,0.4,0.4,0.6c0.1,0.1,0.1,0.2,0.2,0.3c0.4,0.6,0.8,1.2,1.1,1.9
					c0,0,0,0.1,0.1,0.1c0.1,0.1,0.2,0.3,0.2,0.4c0.2,0.4,0.5,0.9,0.7,1.3c0.1,0.2,0.2,0.4,0.3,0.6c0.1,0.2,0.2,0.4,0.3,0.7
					c0.1,0.2,0.2,0.4,0.3,0.6c0.2,0.5,0.5,1,0.7,1.5c0,0.1,0.1,0.2,0.1,0.3c0,0,0,0,0,0.1c0.3,0.7,0.6,1.3,0.8,2
					c0,0.1,0.1,0.2,0.1,0.4c0.1,0.2,0.2,0.5,0.3,0.7c0.1,0.3,0.2,0.7,0.4,1c0.1,0.3,0.2,0.5,0.2,0.8c0.1,0.3,0.2,0.6,0.3,0.9
					c0.1,0.2,0.1,0.4,0.2,0.6c0.1,0.3,0.2,0.7,0.2,1c0.1,0.4,0.2,0.8,0.3,1.1c0,0.1,0.1,0.3,0.1,0.4c0.1,0.6,0.2,1.2,0.3,1.8
					c0,0.1,0,0.3,0.1,0.4c0,0.3,0.1,0.5,0.1,0.8c0,0.4,0.1,0.7,0.1,1.1c0,0.3,0.1,0.5,0.1,0.8c0.1,0.8,0.1,1.6,0.1,2.4
					c0,6.9-2.5,11.8-6.4,14.1l-8.3,4.8c3.9-2.3,6.4-7.2,6.4-14.1c0-0.8,0-1.6-0.1-2.4c0-0.3-0.1-0.5-0.1-0.8
					c-0.1-0.6-0.1-1.3-0.2-1.9c0-0.1,0-0.3-0.1-0.4c-0.1-0.7-0.3-1.5-0.4-2.2c-0.1-0.4-0.2-0.7-0.3-1.1c-0.1-0.5-0.3-1-0.4-1.6
					c-0.1-0.3-0.2-0.6-0.3-0.9c-0.2-0.6-0.4-1.2-0.6-1.7c-0.1-0.2-0.2-0.5-0.3-0.7c-0.3-0.8-0.6-1.6-1-2.4c0-0.1-0.1-0.2-0.1-0.3
					c-0.3-0.7-0.7-1.4-1-2.1c-0.1-0.2-0.2-0.4-0.3-0.7c-0.3-0.7-0.7-1.3-1.1-2c-0.1-0.1-0.1-0.3-0.2-0.4c-0.4-0.8-0.9-1.5-1.4-2.2
					c-0.1-0.2-0.3-0.4-0.4-0.6c-0.4-0.5-0.7-1-1.1-1.6c-0.2-0.3-0.4-0.6-0.6-0.8c-0.3-0.4-0.7-0.8-1-1.3c-0.3-0.4-0.6-0.7-0.9-1.1
					c-0.5-0.6-1-1.2-1.5-1.8c0,0,0,0,0,0c-0.5-0.6-1.1-1.1-1.7-1.6c-0.2-0.2-0.5-0.5-0.7-0.7c-0.4-0.4-0.8-0.7-1.2-1.1
					c-0.3-0.2-0.5-0.4-0.8-0.6c-0.5-0.4-0.9-0.7-1.4-1c-0.2-0.2-0.4-0.3-0.7-0.5c-0.7-0.5-1.4-0.9-2.1-1.3c-0.5-0.3-0.9-0.5-1.4-0.8
					c-0.1-0.1-0.3-0.1-0.4-0.2C155.4,54.8,155,54.6,154.6,54.5z"/>
				<g>
					<path class="st3" d="M157.5,55.9c-12.1-7-22-1.4-22,12.5c0,13.9,9.8,30.9,21.9,37.9c12.1,7,22,1.4,22-12.6
						C179.4,79.9,169.6,62.9,157.5,55.9z"/>
				</g>
				<g>
					<path class="st4" d="M157.3,58.7c-11-6.3-19.9-1.2-20,11.4c0,12.6,8.9,28,19.9,34.4c11,6.4,19.9,1.2,20-11.4
						C177.2,80.5,168.3,65.1,157.3,58.7z"/>
				</g>
				<path class="st5" d="M139.6,60.7c-1.1,2.2-1.6,4.9-1.6,8.1c0,12.6,8.9,28,19.9,34.4c7.6,4.4,14.3,3.3,17.6-2
					c-3.1,6.4-10.1,8-18.3,3.3c-11-6.3-19.9-21.7-19.9-34.4C137.3,66.2,138.1,63.1,139.6,60.7z"/>
				<g>
					<path class="st1" d="M158.7,72.9c-3.5-2-6.4-0.4-6.4,3.7c0,4.1,2.8,9,6.4,11c3.5,2,6.4,0.4,6.4-3.7
						C165,79.9,162.2,75,158.7,72.9z"/>
				</g>
			</g>
		</g>
		<g>
			<g class="st0">
				<path class="st6" d="M118.4,107.9c-0.1-0.4-0.2-0.8-0.3-1.2c0,0,0-0.1,0-0.1c-0.3-0.9-0.6-1.7-1.1-2.5c0,0,0,0,0,0
					c-0.2-0.4-0.5-0.8-0.7-1.1c0,0-0.1-0.1-0.1-0.1c-0.2-0.3-0.5-0.6-0.8-0.9c-0.1-0.1-0.1-0.1-0.2-0.2c-0.2-0.2-0.4-0.4-0.7-0.6
					c-0.1-0.1-0.2-0.2-0.3-0.3c-0.3-0.3-0.7-0.5-1-0.7c-0.2-0.1-0.4-0.2-0.7-0.3c-0.1,0-0.1-0.1-0.2-0.1c-0.1,0-0.3-0.1-0.4-0.1
					c-0.1,0-0.2,0-0.2-0.1c-0.1,0-0.1,0-0.2,0c-0.1,0-0.2,0-0.3,0c-0.1,0-0.1,0-0.2,0c-0.1,0-0.2,0-0.3,0c0,0,0,0-0.1,0
					c-0.1,0-0.3,0-0.4,0c0,0-0.1,0-0.1,0c-0.1,0-0.2,0.1-0.3,0.1c0,0-0.1,0-0.1,0c-0.1,0-0.2,0.1-0.3,0.2l44.4-25.8c0,0,0,0,0,0
					c0.1,0,0.2-0.1,0.3-0.1c0,0,0,0,0,0c0,0,0.1,0,0.1,0c0,0,0.1,0,0.1,0c0,0,0.1,0,0.2,0c0,0,0.1,0,0.1,0c0,0,0,0,0.1,0
					c0.1,0,0.2,0,0.3,0c0,0,0,0,0,0c0,0,0.1,0,0.1,0c0.1,0,0.2,0,0.3,0c0,0,0.1,0,0.1,0c0,0,0.1,0,0.1,0c0.1,0,0.1,0,0.2,0
					c0,0,0.1,0,0.1,0c0.1,0,0.1,0,0.2,0c0,0,0.1,0,0.1,0c0,0,0.1,0,0.1,0c0.1,0,0.2,0.1,0.4,0.1c0,0,0.1,0,0.1,0c0,0,0.1,0,0.1,0
					c0.2,0.1,0.4,0.2,0.7,0.3c0.3,0.2,0.7,0.4,1,0.7c0.1,0.1,0.2,0.2,0.3,0.3c0.2,0.1,0.3,0.3,0.5,0.4c0.1,0.1,0.1,0.1,0.2,0.2
					c0.1,0.1,0.1,0.1,0.2,0.2c0.1,0.1,0.1,0.1,0.2,0.2c0.1,0.2,0.3,0.3,0.4,0.5c0,0.1,0.1,0.1,0.1,0.2c0,0,0.1,0.1,0.1,0.1
					c0,0.1,0.1,0.1,0.1,0.2c0.1,0.2,0.2,0.3,0.3,0.5c0.1,0.1,0.2,0.3,0.3,0.5c0,0,0,0,0,0c0,0,0,0,0,0c0.1,0.1,0.1,0.2,0.2,0.4
					c0.1,0.1,0.2,0.3,0.2,0.5c0.1,0.1,0.1,0.3,0.2,0.4c0,0,0,0,0,0.1c0,0,0,0,0,0c0.1,0.2,0.1,0.3,0.2,0.5c0.1,0.2,0.1,0.3,0.2,0.5
					c0,0.1,0.1,0.2,0.1,0.3c0,0,0,0.1,0,0.1c0,0.1,0,0.1,0.1,0.2c0.1,0.2,0.1,0.4,0.1,0.6c0,0.1,0,0.2,0.1,0.4c0,0.1,0,0.1,0,0.2
					c0,0.1,0,0.1,0,0.2c0,0.4,0.1,0.7,0.1,1c0,1.7-0.6,2.9-1.6,3.4L117,112.7c1-0.6,1.5-1.7,1.6-3.4c0-0.4,0-0.8-0.1-1.2
					C118.4,108,118.4,108,118.4,107.9z"/>
				<g>
					<path class="st7" d="M118.6,109.3c0-0.2,0-0.4,0-0.6l39.7-23.1c1-0.6,1.5-1.7,1.6-3.4c0-0.3,0-0.7-0.1-1c0-0.1,0-0.1,0-0.2
						c0-0.1,0-0.1,0-0.2c0-0.1,0-0.2-0.1-0.4c0-0.2-0.1-0.4-0.1-0.6c0-0.1,0-0.1-0.1-0.2c0,0,0-0.1,0-0.1c0-0.1,0-0.2-0.1-0.3
						c-0.1-0.2-0.1-0.3-0.2-0.5c-0.1-0.2-0.1-0.3-0.2-0.5c0,0,0,0,0,0c0,0,0,0,0-0.1c-0.1-0.1-0.1-0.3-0.2-0.4
						c-0.1-0.2-0.1-0.3-0.2-0.5c-0.1-0.1-0.1-0.3-0.2-0.4c0,0,0,0,0,0c0,0,0,0,0,0c-0.1-0.2-0.2-0.3-0.3-0.4
						c-0.1-0.2-0.2-0.3-0.3-0.5c0-0.1-0.1-0.1-0.1-0.2c0,0-0.1-0.1-0.1-0.1c0-0.1-0.1-0.1-0.1-0.2c-0.1-0.2-0.3-0.4-0.4-0.5
						c-0.1-0.1-0.1-0.1-0.2-0.2c-0.1-0.1-0.1-0.1-0.2-0.2c-0.1-0.1-0.1-0.1-0.2-0.2c-0.2-0.1-0.3-0.3-0.5-0.4
						c-0.1-0.1-0.2-0.2-0.3-0.3c-0.1-0.1-0.1-0.1-0.2-0.2c0.1,0,0.1,0,0.2,0c0,0,0.1,0,0.1,0c0,0,0.1,0,0.1,0c0.1,0,0.1,0,0.2,0
						c0,0,0.1,0,0.1,0c0.1,0,0.1,0,0.2,0c0,0,0.1,0,0.1,0c0,0,0.1,0,0.1,0c0.1,0,0.2,0.1,0.4,0.1c0,0,0.1,0,0.1,0c0,0,0.1,0,0.1,0
						c0.2,0.1,0.4,0.2,0.7,0.3c0.3,0.2,0.7,0.4,1,0.7c0.1,0.1,0.2,0.2,0.3,0.3c0.2,0.1,0.3,0.3,0.5,0.4c0.1,0.1,0.1,0.1,0.2,0.2
						c0.1,0.1,0.1,0.1,0.2,0.2c0.1,0.1,0.1,0.1,0.2,0.2c0.1,0.2,0.3,0.3,0.4,0.5c0,0.1,0.1,0.1,0.1,0.2c0,0,0.1,0.1,0.1,0.1
						c0,0.1,0.1,0.1,0.1,0.2c0.1,0.2,0.2,0.3,0.3,0.5c0.1,0.1,0.2,0.3,0.3,0.5c0,0,0,0,0,0c0,0,0,0,0,0c0.1,0.1,0.1,0.2,0.2,0.4
						c0.1,0.1,0.2,0.3,0.2,0.5c0.1,0.1,0.1,0.3,0.2,0.4c0,0,0,0,0,0.1c0,0,0,0,0,0c0.1,0.2,0.1,0.3,0.2,0.5c0.1,0.2,0.1,0.3,0.2,0.5
						c0,0.1,0.1,0.2,0.1,0.3c0,0,0,0.1,0,0.1c0,0.1,0,0.1,0.1,0.2c0.1,0.2,0.1,0.4,0.1,0.6c0,0.1,0,0.2,0.1,0.4c0,0.1,0,0.1,0,0.2
						c0,0.1,0,0.1,0,0.2c0,0.4,0.1,0.7,0.1,1c0,1.7-0.6,2.9-1.6,3.4L117,112.7C118,112.2,118.5,111,118.6,109.3z"/>
				</g>
				<g>
					<path class="st8" d="M113.3,100.1c-2.9-1.7-5.3-0.3-5.3,3c0,3.4,2.4,7.5,5.3,9.2c2.9,1.7,5.3,0.3,5.3-3
						C118.6,105.9,116.2,101.8,113.3,100.1z"/>
				</g>
			</g>
		</g>
		<g>
			<g class="st0">
				<path class="st1" d="M117.2,117.3c0-0.3-0.1-0.6-0.1-0.9c0-0.3-0.1-0.7-0.2-1c0-0.2-0.1-0.5-0.1-0.7c0-0.2-0.1-0.4-0.2-0.7
					c-0.1-0.3-0.2-0.6-0.2-0.9c-0.1-0.2-0.1-0.4-0.2-0.5c-0.1-0.3-0.2-0.7-0.3-1c-0.1-0.1-0.1-0.3-0.2-0.4c-0.2-0.5-0.4-0.9-0.6-1.4
					c0-0.1-0.1-0.1-0.1-0.2c-0.2-0.4-0.4-0.8-0.6-1.2c-0.1-0.2-0.2-0.3-0.2-0.5c-0.2-0.4-0.4-0.8-0.6-1.1c0-0.1-0.1-0.2-0.1-0.2
					c-0.3-0.4-0.5-0.9-0.8-1.3c-0.1-0.1-0.2-0.3-0.3-0.4c-0.2-0.3-0.4-0.6-0.6-0.9c-0.1-0.2-0.3-0.4-0.4-0.5
					c-0.2-0.2-0.4-0.5-0.6-0.7c-0.2-0.2-0.3-0.4-0.5-0.6c-0.2-0.2-0.3-0.4-0.5-0.6c-0.3-0.3-0.6-0.6-0.9-0.9
					c-0.2-0.2-0.4-0.4-0.6-0.6c-0.1-0.1-0.3-0.3-0.4-0.4c-0.2-0.2-0.5-0.4-0.7-0.6c-0.2-0.1-0.3-0.3-0.5-0.4
					c-0.3-0.2-0.5-0.4-0.8-0.6c-0.1-0.1-0.3-0.2-0.4-0.3c-0.4-0.3-0.8-0.5-1.2-0.8c-0.4-0.2-0.8-0.4-1.2-0.6c-0.1,0-0.2-0.1-0.3-0.1
					c-0.2-0.1-0.4-0.2-0.7-0.3c-0.3-0.1-0.6-0.2-0.9-0.3c-0.2-0.1-0.4-0.1-0.6-0.2c-0.2,0-0.4-0.1-0.5-0.1c-0.2,0-0.5-0.1-0.7-0.1
					c-0.1,0-0.3,0-0.4,0c-0.3,0-0.6,0-0.8,0c-0.1,0-0.1,0-0.2,0c-0.3,0-0.6,0.1-1,0.1c-0.1,0-0.2,0-0.2,0.1
					c-0.2,0.1-0.5,0.1-0.7,0.2c-0.1,0-0.2,0.1-0.2,0.1c-0.3,0.1-0.6,0.2-0.8,0.4l8.3-4.8c0,0,0,0,0.1,0c0.2-0.1,0.4-0.2,0.7-0.3
					c0,0,0.1,0,0.1,0c0.1,0,0.2-0.1,0.2-0.1c0.1,0,0.2-0.1,0.3-0.1c0.1,0,0.3-0.1,0.4-0.1c0.1,0,0.1,0,0.2,0c0,0,0.1,0,0.1,0
					c0.3,0,0.5-0.1,0.8-0.1c0,0,0,0,0,0c0.1,0,0.1,0,0.2,0c0.2,0,0.4,0,0.6,0c0.1,0,0.1,0,0.2,0c0.1,0,0.3,0,0.4,0
					c0.1,0,0.2,0,0.4,0c0.1,0,0.2,0.1,0.3,0.1c0.2,0,0.3,0.1,0.5,0.1c0.1,0,0.2,0,0.3,0.1c0.1,0,0.2,0.1,0.3,0.1
					c0.3,0.1,0.6,0.2,0.9,0.3c0.1,0,0.2,0.1,0.3,0.1c0.1,0,0.2,0.1,0.3,0.1c0.1,0,0.2,0.1,0.3,0.1c0.4,0.2,0.8,0.4,1.2,0.6
					c0.4,0.2,0.8,0.5,1.2,0.8c0.1,0.1,0.3,0.2,0.4,0.3c0.3,0.2,0.5,0.4,0.8,0.6c0.2,0.1,0.3,0.2,0.5,0.4c0.2,0.2,0.5,0.4,0.7,0.6
					c0.1,0.1,0.3,0.3,0.4,0.4c0.1,0.1,0.2,0.2,0.3,0.3c0.1,0.1,0.2,0.2,0.3,0.3c0.3,0.3,0.6,0.6,0.9,0.9c0.1,0.1,0.2,0.2,0.3,0.3
					c0.1,0.1,0.1,0.2,0.2,0.3c0.2,0.2,0.3,0.4,0.5,0.6c0.1,0.1,0.2,0.3,0.3,0.4c0.1,0.1,0.2,0.2,0.2,0.3c0.1,0.2,0.2,0.3,0.4,0.5
					c0.1,0.1,0.2,0.2,0.2,0.3c0.1,0.2,0.3,0.4,0.4,0.6c0.1,0.1,0.2,0.2,0.2,0.4c0,0.1,0.1,0.1,0.1,0.2c0.2,0.4,0.5,0.7,0.7,1.1
					c0,0,0,0.1,0.1,0.1c0,0,0,0.1,0.1,0.1c0.2,0.3,0.3,0.6,0.5,0.9c0.1,0.1,0.1,0.2,0.2,0.4c0.1,0.1,0.1,0.3,0.2,0.4
					c0.1,0.1,0.1,0.2,0.2,0.3c0.1,0.3,0.3,0.6,0.4,0.9c0,0.1,0.1,0.1,0.1,0.2c0,0,0,0,0,0c0.2,0.4,0.3,0.8,0.5,1.2
					c0,0.1,0,0.1,0.1,0.2c0.1,0.1,0.1,0.3,0.2,0.4c0.1,0.2,0.1,0.4,0.2,0.6c0.1,0.2,0.1,0.3,0.1,0.5c0.1,0.2,0.1,0.3,0.2,0.5
					c0,0.1,0.1,0.2,0.1,0.3c0.1,0.2,0.1,0.4,0.2,0.6c0.1,0.2,0.1,0.4,0.2,0.6c0,0.1,0,0.2,0.1,0.2c0,0.2,0.1,0.3,0.1,0.5
					c0.1,0.3,0.1,0.7,0.2,1c0,0.1,0,0.2,0,0.3c0,0.2,0,0.4,0.1,0.6c0,0.2,0,0.3,0,0.5c0,0.5,0.1,1,0.1,1.4c0,4.1-1.5,7-3.8,8.3
					l-8.3,4.8c2.3-1.4,3.8-4.2,3.8-8.3c0-0.5,0-1-0.1-1.4C117.2,117.6,117.2,117.5,117.2,117.3z"/>
				<g>
					<path class="st9" d="M116.7,123.2l2.3-1.3c2.3-1.4,3.8-4.2,3.8-8.3c0-0.5,0-0.9-0.1-1.4c0-0.2,0-0.3,0-0.5c0-0.2,0-0.4-0.1-0.6
						c0-0.1,0-0.2,0-0.3c0-0.3-0.1-0.7-0.2-1c0-0.2,0-0.3-0.1-0.5c0-0.1,0-0.2-0.1-0.2c0-0.2-0.1-0.4-0.1-0.6
						c-0.1-0.2-0.1-0.4-0.2-0.6c0-0.1-0.1-0.2-0.1-0.3c0-0.2-0.1-0.3-0.2-0.5c0-0.2-0.1-0.3-0.1-0.5c-0.1-0.2-0.1-0.4-0.2-0.6
						c-0.1-0.1-0.1-0.3-0.2-0.4c0-0.1,0-0.1-0.1-0.2c-0.1-0.4-0.3-0.8-0.5-1.2c0,0,0,0,0,0c0-0.1-0.1-0.1-0.1-0.2
						c-0.1-0.3-0.3-0.6-0.4-0.9c-0.1-0.1-0.1-0.2-0.2-0.3c-0.1-0.1-0.1-0.3-0.2-0.4c-0.1-0.1-0.1-0.2-0.2-0.4
						c-0.2-0.3-0.3-0.6-0.5-0.9c0,0,0-0.1-0.1-0.1c0,0,0-0.1-0.1-0.1c-0.2-0.4-0.4-0.7-0.7-1.1c0-0.1-0.1-0.1-0.1-0.2
						c-0.1-0.1-0.2-0.2-0.2-0.4c-0.1-0.2-0.3-0.4-0.4-0.6c-0.1-0.1-0.2-0.2-0.2-0.3c-0.1-0.2-0.2-0.3-0.4-0.5
						c-0.1-0.1-0.2-0.2-0.2-0.3c-0.1-0.1-0.2-0.3-0.3-0.4c-0.2-0.2-0.3-0.4-0.5-0.6c-0.1-0.1-0.1-0.2-0.2-0.3
						c-0.1-0.1-0.2-0.2-0.3-0.3c-0.3-0.3-0.6-0.6-0.9-0.9c-0.1-0.1-0.2-0.2-0.3-0.3c-0.1-0.1-0.2-0.2-0.3-0.3
						c-0.1-0.1-0.3-0.3-0.4-0.4c-0.2-0.2-0.5-0.4-0.7-0.6c-0.2-0.1-0.3-0.3-0.5-0.4c-0.3-0.2-0.5-0.4-0.8-0.6
						c-0.1-0.1-0.3-0.2-0.4-0.3c-0.4-0.3-0.8-0.5-1.2-0.8c-0.4-0.2-0.8-0.4-1.2-0.6c-0.1-0.1-0.2-0.1-0.3-0.1c-0.1,0-0.1,0-0.1-0.1
						c0.1,0,0.2,0,0.3,0.1c0.2,0,0.3,0.1,0.5,0.1c0.1,0,0.2,0,0.3,0.1c0.1,0,0.2,0.1,0.3,0.1c0.3,0.1,0.6,0.2,0.9,0.3
						c0.1,0,0.2,0.1,0.3,0.1c0.1,0,0.2,0.1,0.3,0.1c0.1,0,0.2,0.1,0.3,0.1c0.4,0.2,0.8,0.4,1.2,0.6c0.4,0.2,0.8,0.5,1.2,0.8
						c0.1,0.1,0.3,0.2,0.4,0.3c0.3,0.2,0.5,0.4,0.8,0.6c0.2,0.1,0.3,0.2,0.5,0.4c0.2,0.2,0.5,0.4,0.7,0.6c0.1,0.1,0.3,0.3,0.4,0.4
						c0.1,0.1,0.2,0.2,0.3,0.3c0.1,0.1,0.2,0.2,0.3,0.3c0.3,0.3,0.6,0.6,0.9,0.9c0.1,0.1,0.2,0.2,0.3,0.3c0.1,0.1,0.1,0.2,0.2,0.3
						c0.2,0.2,0.3,0.4,0.5,0.6c0.1,0.1,0.2,0.3,0.3,0.4c0.1,0.1,0.2,0.2,0.2,0.3c0.1,0.2,0.2,0.3,0.4,0.5c0.1,0.1,0.2,0.2,0.2,0.3
						c0.1,0.2,0.3,0.4,0.4,0.6c0.1,0.1,0.2,0.2,0.2,0.4c0,0.1,0.1,0.1,0.1,0.2c0.2,0.4,0.5,0.7,0.7,1.1c0,0,0,0.1,0.1,0.1
						c0,0,0,0.1,0.1,0.1c0.2,0.3,0.3,0.6,0.5,0.9c0.1,0.1,0.1,0.2,0.2,0.4c0.1,0.1,0.1,0.3,0.2,0.4c0.1,0.1,0.1,0.2,0.2,0.3
						c0.1,0.3,0.3,0.6,0.4,0.9c0,0.1,0.1,0.1,0.1,0.2c0,0,0,0,0,0c0.2,0.4,0.3,0.8,0.5,1.2c0,0.1,0,0.1,0.1,0.2
						c0.1,0.1,0.1,0.3,0.2,0.4c0.1,0.2,0.1,0.4,0.2,0.6c0.1,0.2,0.1,0.3,0.1,0.5c0.1,0.2,0.1,0.3,0.2,0.5c0,0.1,0.1,0.2,0.1,0.3
						c0.1,0.2,0.1,0.4,0.2,0.6c0.1,0.2,0.1,0.4,0.2,0.6c0,0.1,0,0.2,0.1,0.2c0,0.2,0.1,0.3,0.1,0.5c0.1,0.3,0.1,0.7,0.2,1
						c0,0.1,0,0.2,0,0.3c0,0.2,0,0.4,0.1,0.6c0,0.2,0,0.3,0,0.5c0,0.5,0.1,1,0.1,1.4c0,4.1-1.5,7-3.8,8.3l-8.3,4.8
						C115,126.7,116.1,125.2,116.7,123.2z"/>
				</g>
				<g>
					<path class="st2" d="M104.3,96.8c-7.2-4.1-13-0.8-13,7.4c0,8.3,5.8,18.3,13,22.4c7.2,4.1,13,0.8,13-7.4
						C117.3,111,111.5,100.9,104.3,96.8z"/>
				</g>
			</g>
		</g>
	</g>
	<g>
		<g class="st0">
			<defs>
				<path id="SVGID_1_" class="st0" d="M95.4,97.4l-8.3,4.8c1.3-0.8,3-1,4.8-0.5l8.3-4.8C98.4,96.5,96.8,96.7,95.4,97.4z"/>
			</defs>
			<use xlink:href="#SVGID_1_" style="overflow:visible;fill:#969393;"/>
			<clipPath id="SVGID_00000156587366518413441890000016888606815737719954_">
				<use xlink:href="#SVGID_1_" style="overflow:visible;"/>
			</clipPath>
			<path style="clip-path:url(#SVGID_00000156587366518413441890000016888606815737719954_);fill:#BBBBBB;" d="M87.1,102.3
				C87.1,102.3,87.2,102.2,87.1,102.3l0.5-0.3l7.9-4.6c0,0,0,0,0.1,0c0.2-0.1,0.4-0.2,0.6-0.3c0.2-0.1,0.4-0.2,0.6-0.2
				c0.2-0.1,0.4-0.1,0.6-0.1c0.2,0,0.5-0.1,0.7-0.1c0.2,0,0.5,0,0.7,0c0.3,0,0.6,0,0.8,0.1c0.2,0,0.5,0.1,0.7,0.1l-8.3,4.8
				c-0.2-0.1-0.5-0.1-0.7-0.1c-0.3,0-0.6-0.1-0.8-0.1c-0.3,0-0.5,0-0.7,0c-0.2,0-0.5,0-0.7,0.1c-0.2,0-0.4,0.1-0.6,0.1
				c-0.2,0.1-0.4,0.1-0.6,0.2C87.5,102,87.4,102.1,87.1,102.3L87.1,102.3z"/>
		</g>
		<g>
			<g>
				<path class="st11" d="M89.6,112c0-0.4-0.1-0.7-0.1-1.1c0-1.8,0.6-3,1.6-3.6l8.3-4.8c-1,0.6-1.6,1.8-1.6,3.6c0,0.4,0,0.8,0.1,1.3
					c0,0.1,0,0.1,0,0.2c0.1,0.4,0.2,0.8,0.3,1.2c0,0,0,0.1,0,0.1c0.1,0.4,0.3,0.9,0.5,1.3c0,0,0,0,0,0c0.2,0.4,0.4,0.9,0.7,1.3
					c0,0,0,0,0,0c0.2,0.4,0.5,0.8,0.8,1.2c0,0,0.1,0.1,0.1,0.1c0.3,0.3,0.5,0.7,0.8,1c0.1,0.1,0.1,0.1,0.2,0.2
					c0.2,0.2,0.5,0.4,0.7,0.6c0.1,0.1,0.2,0.2,0.3,0.3c0.3,0.3,0.7,0.5,1,0.7c0.2,0.1,0.5,0.3,0.7,0.4c0.1,0,0.1,0.1,0.2,0.1
					c0.1,0.1,0.3,0.1,0.4,0.1c0.1,0,0.1,0,0.2,0.1c0.1,0,0.2,0,0.3,0.1c0.1,0,0.2,0,0.3,0c0.1,0,0.1,0,0.2,0c0.1,0,0.2,0,0.3,0
					c0,0,0.1,0,0.1,0c0.1,0,0.3,0,0.4-0.1c0,0,0.1,0,0.1,0c0.1,0,0.2-0.1,0.3-0.1c0,0,0.1,0,0.1,0c0.1-0.1,0.2-0.1,0.4-0.2l-8.3,4.8
					c0,0,0,0,0,0c-0.1,0.1-0.2,0.1-0.3,0.1c0,0,0,0-0.1,0c0,0-0.1,0-0.1,0c0,0-0.1,0-0.1,0c-0.1,0-0.1,0-0.2,0c0,0-0.1,0-0.1,0
					c0,0,0,0-0.1,0c-0.1,0-0.2,0-0.3,0c0,0,0,0,0,0c0,0-0.1,0-0.1,0c-0.1,0-0.2,0-0.3,0c0,0-0.1,0-0.1,0c-0.1,0-0.1,0-0.2,0
					c-0.1,0-0.1,0-0.2,0c0,0-0.1,0-0.1,0c-0.1,0-0.1,0-0.2,0c0,0-0.1,0-0.1,0c0,0-0.1,0-0.1,0c-0.1,0-0.3-0.1-0.4-0.1
					c0,0-0.1,0-0.1-0.1c0,0-0.1,0-0.1,0c-0.2-0.1-0.5-0.2-0.7-0.3c-0.4-0.2-0.7-0.5-1.1-0.7c-0.1-0.1-0.2-0.2-0.3-0.3
					c-0.2-0.1-0.3-0.3-0.5-0.4c-0.1-0.1-0.1-0.2-0.2-0.2c-0.1-0.1-0.1-0.1-0.2-0.2c-0.1-0.1-0.2-0.2-0.2-0.2
					c-0.2-0.2-0.3-0.4-0.5-0.6c-0.1-0.1-0.1-0.1-0.1-0.2c0,0-0.1-0.1-0.1-0.1c0-0.1-0.1-0.1-0.1-0.2c-0.1-0.2-0.2-0.3-0.3-0.5
					c-0.1-0.2-0.2-0.3-0.3-0.5c0,0,0,0,0,0c0,0,0,0,0,0c-0.1-0.1-0.2-0.3-0.2-0.4c-0.1-0.2-0.2-0.3-0.2-0.5
					c-0.1-0.1-0.1-0.3-0.2-0.4c0,0,0,0,0,0c0,0,0,0,0,0c-0.1-0.2-0.1-0.3-0.2-0.5c-0.1-0.2-0.1-0.4-0.2-0.5c0-0.1-0.1-0.2-0.1-0.3
					c0,0,0-0.1,0-0.1c0-0.1,0-0.1-0.1-0.2c-0.1-0.2-0.1-0.4-0.2-0.6c0-0.1,0-0.3-0.1-0.4c0-0.1,0-0.1,0-0.2
					C89.6,112.1,89.6,112,89.6,112z"/>
				<g>
					<polygon class="st1" points="91.9,107 100.3,102.1 100.3,96.9 92,101.7 					"/>
				</g>
				<g>
					<g>
						<path class="st12" d="M91.1,111.2c0,4.7,3.8,8.5,8.5,8.5c4.7,0,8.5-3.8,8.5-8.5c0-4.7-3.8-8.5-8.5-8.5
							C94.9,102.7,91.1,106.5,91.1,111.2z"/>
						<path class="st13" d="M98,116.5c4.7,0,8.5-3.8,8.5-8.5c0-0.7-0.1-1.5-0.3-2.1c1.2,1.5,1.9,3.3,1.9,5.3c0,4.7-3.8,8.5-8.5,8.5
							c-4,0-7.3-2.7-8.2-6.4C92.9,115.2,95.3,116.5,98,116.5z"/>
					</g>
					<path class="st14" d="M94.7,110.1c0.8,0.9,2.6,0.7,4.1-0.5c1.4-1.2,1.9-3,1.1-3.9c-0.8-0.9-2.6-0.7-4,0.5
						C94.3,107.4,93.8,109.2,94.7,110.1z"/>
				</g>
				<g>
					<g class="st0">
						<path class="st2" d="M97.3,86.5c0,0.1,0,0.1,0,0.2c0,0,0,0,0,0c0,0.1,0.1,0.1,0.1,0.2c0,0,0,0,0,0c0,0.1,0.1,0.1,0.2,0.2
							c0,0,0.1,0.1,0.2,0.1c0,0,0.1,0.1,0.1,0.1c0.2,0.1,0.4,0.2,0.7,0.3c0,0,0.1,0,0.1,0c0.2,0.1,0.5,0.1,0.7,0.1c0,0,0,0,0,0
							c0.3,0,0.5,0,0.8-0.1c0,0,0,0,0,0c0.3-0.1,0.5-0.1,0.7-0.3c0.4-0.2,0.6-0.6,0.6-0.9l0.1,18.3c0,0.3-0.2,0.6-0.6,0.9
							c-0.1,0.1-0.2,0.1-0.3,0.1c-0.1,0-0.2,0.1-0.3,0.1c0,0-0.1,0-0.1,0c0,0,0,0,0,0c0,0,0,0-0.1,0c-0.1,0-0.1,0-0.2,0
							c-0.1,0-0.1,0-0.2,0c-0.1,0-0.1,0-0.2,0c0,0-0.1,0-0.1,0c0,0,0,0,0,0c0,0-0.1,0-0.1,0c-0.1,0-0.2,0-0.2,0c-0.1,0-0.2,0-0.3,0
							c0,0-0.1,0-0.1,0c0,0-0.1,0-0.1,0c-0.1,0-0.1,0-0.2,0c-0.2-0.1-0.3-0.1-0.5-0.2c0,0,0,0,0,0c0,0-0.1-0.1-0.1-0.1
							c0,0-0.1-0.1-0.1-0.1c0,0,0,0,0,0c0,0-0.1-0.1-0.1-0.1c0,0,0,0,0,0c0,0,0,0,0,0c0,0,0,0,0-0.1c0,0,0-0.1-0.1-0.1c0,0,0,0,0,0
							c0,0,0,0,0,0c0,0,0-0.1,0-0.1c0,0,0-0.1,0-0.1l0-1.8L97.3,86.5z"/>
						<path class="st6" d="M97.3,103.7c0.1,0,0.2,0,0.3,0c0.1,0,0.2,0,0.2,0c0,0,0.1,0,0.1,0c0,0,0,0,0,0c0,0,0.1,0,0.1,0
							c0.1,0,0.1,0,0.2,0c0.1,0,0.1,0,0.2,0c0.1,0,0.1,0,0.2,0c0,0,0,0,0.1,0c0,0,0,0,0,0c0,0,0.1,0,0.1,0c0.1,0,0.2-0.1,0.3-0.1
							c0.1,0,0.2-0.1,0.3-0.1c0.4-0.2,0.6-0.6,0.6-0.9l0-14.9c0,0,0.1,0,0.1,0c0,0,0,0,0,0c0.3-0.1,0.5-0.1,0.7-0.3
							c0.4-0.2,0.6-0.6,0.6-0.9l0.1,18.3c0,0.3-0.2,0.6-0.6,0.9c-0.1,0.1-0.2,0.1-0.3,0.1c-0.1,0-0.2,0.1-0.3,0.1c0,0-0.1,0-0.1,0
							c0,0,0,0,0,0c0,0,0,0-0.1,0c-0.1,0-0.1,0-0.2,0c-0.1,0-0.1,0-0.2,0c-0.1,0-0.1,0-0.2,0c0,0-0.1,0-0.1,0c0,0,0,0,0,0
							c0,0-0.1,0-0.1,0c-0.1,0-0.2,0-0.2,0c-0.1,0-0.2,0-0.3,0c0,0-0.1,0-0.1,0c0,0-0.1,0-0.1,0c-0.1,0-0.1,0-0.2,0
							c-0.2-0.1-0.3-0.1-0.5-0.2c0,0,0,0,0,0c0,0-0.1-0.1-0.1-0.1c-0.1,0-0.1-0.1-0.1-0.1c0,0,0,0,0,0c-0.1,0-0.1-0.1-0.1-0.1
							c0,0,0,0,0,0c0,0,0,0,0,0c0,0,0,0,0-0.1c0,0,0-0.1-0.1-0.1c0,0,0,0,0,0c0,0,0,0,0,0c0,0,0-0.1,0-0.1c0,0,0-0.1,0-0.1
							L97.3,103.7C97.3,103.7,97.3,103.7,97.3,103.7z"/>
						<g>
							<path class="st15" d="M97.9,85.6c-0.8,0.5-0.8,1.3,0,1.8c0.8,0.5,2.2,0.5,3,0c0.8-0.5,0.8-1.3,0-1.8
								C100.1,85.1,98.7,85.1,97.9,85.6z"/>
						</g>
					</g>
				</g>
				<path class="st1" d="M106.5,122.6c0-0.4,0-0.7,0-1.1c0-0.2,0-0.4-0.1-0.5c0-0.2,0-0.4-0.1-0.6c-0.1-0.5-0.1-1-0.2-1.5
					c0-0.1-0.1-0.3-0.1-0.4c-0.1-0.3-0.1-0.5-0.2-0.8c0-0.2-0.1-0.4-0.2-0.5c-0.1-0.2-0.1-0.4-0.2-0.6c-0.1-0.2-0.1-0.4-0.2-0.6
					c-0.1-0.2-0.1-0.3-0.2-0.5c-0.1-0.2-0.2-0.5-0.3-0.7c-0.1-0.1-0.1-0.3-0.2-0.4c-0.1-0.2-0.2-0.5-0.3-0.7
					c-0.1-0.1-0.1-0.2-0.2-0.4c-0.2-0.3-0.3-0.7-0.5-1c-0.1-0.1-0.1-0.2-0.2-0.3c-0.1-0.2-0.3-0.5-0.4-0.7c-0.1-0.1-0.2-0.3-0.3-0.4
					c-0.1-0.2-0.2-0.4-0.4-0.6c-0.1-0.2-0.2-0.3-0.3-0.4c-0.1-0.2-0.3-0.4-0.4-0.6c-0.1-0.2-0.3-0.3-0.4-0.5
					c-0.1-0.2-0.2-0.3-0.3-0.5c-0.2-0.2-0.4-0.5-0.6-0.7c-0.1-0.1-0.2-0.2-0.3-0.4c-0.3-0.4-0.7-0.8-1.1-1.1
					c-0.2-0.2-0.5-0.5-0.7-0.7l8.3-4.8c0.2,0.2,0.4,0.4,0.6,0.6c0,0,0.1,0.1,0.1,0.1c0.4,0.4,0.7,0.7,1.1,1.1c0,0,0,0,0.1,0.1
					c0.1,0.1,0.2,0.2,0.3,0.3c0.2,0.2,0.4,0.4,0.5,0.7c0,0,0.1,0.1,0.1,0.1c0.1,0.1,0.2,0.2,0.3,0.4c0.1,0.2,0.2,0.3,0.3,0.5
					c0,0.1,0.1,0.1,0.1,0.2c0.1,0.1,0.2,0.3,0.3,0.4c0.1,0.1,0.2,0.3,0.3,0.4c0,0.1,0.1,0.1,0.1,0.2c0.1,0.2,0.2,0.3,0.3,0.5
					c0.1,0.1,0.2,0.2,0.2,0.4c0,0,0,0.1,0.1,0.1c0.2,0.3,0.3,0.5,0.4,0.8c0,0,0,0.1,0.1,0.1c0,0,0,0,0,0c0.2,0.3,0.3,0.6,0.5,1
					c0,0,0,0,0,0.1c0.1,0.1,0.1,0.2,0.2,0.3c0.1,0.2,0.2,0.4,0.3,0.6c0,0,0,0.1,0.1,0.1c0.1,0.1,0.1,0.3,0.2,0.4
					c0.1,0.1,0.1,0.3,0.2,0.4c0,0.1,0.1,0.2,0.1,0.2c0.1,0.2,0.1,0.3,0.2,0.5c0,0.1,0.1,0.2,0.1,0.4c0,0.1,0,0.2,0.1,0.3
					c0.1,0.2,0.1,0.4,0.2,0.6c0,0.1,0.1,0.2,0.1,0.3c0,0.1,0,0.1,0.1,0.2c0.1,0.3,0.1,0.5,0.2,0.8c0,0.1,0.1,0.2,0.1,0.3
					c0,0,0,0.1,0,0.1c0.1,0.5,0.2,1,0.2,1.4c0,0,0,0,0,0c0,0.2,0,0.4,0.1,0.6c0,0.2,0,0.3,0,0.5c0,0.4,0,0.7,0,1.1
					c0,3.6-1.3,6.1-3.3,7.3l-8.3,4.8C105.2,128.7,106.4,126.2,106.5,122.6z"/>
				<path class="st16" d="M105.9,126.4l2.9-1.7c2-1.2,3.3-3.7,3.3-7.3c0-0.4,0-0.7,0-1.1c0-0.2,0-0.3,0-0.5c0-0.2,0-0.4-0.1-0.6
					c0,0,0,0,0,0c-0.1-0.5-0.1-1-0.2-1.4c0,0,0-0.1,0-0.1c0-0.1-0.1-0.2-0.1-0.3c-0.1-0.3-0.1-0.5-0.2-0.8c0-0.1,0-0.1-0.1-0.2
					c0-0.1-0.1-0.2-0.1-0.3c-0.1-0.2-0.1-0.4-0.2-0.6c0-0.1-0.1-0.2-0.1-0.3c0-0.1-0.1-0.2-0.1-0.4c-0.1-0.2-0.1-0.3-0.2-0.5
					c0-0.1-0.1-0.2-0.1-0.2c-0.1-0.1-0.1-0.3-0.2-0.4c-0.1-0.1-0.1-0.3-0.2-0.4c0,0,0-0.1-0.1-0.1c-0.1-0.2-0.2-0.4-0.3-0.6
					c-0.1-0.1-0.1-0.2-0.2-0.3c0,0,0,0,0-0.1c-0.2-0.3-0.3-0.6-0.5-1c0,0,0,0,0,0c0,0,0-0.1-0.1-0.1c-0.1-0.3-0.3-0.5-0.5-0.8
					c0,0,0-0.1-0.1-0.1c-0.1-0.1-0.1-0.2-0.2-0.4c-0.1-0.2-0.2-0.3-0.3-0.5c0-0.1-0.1-0.1-0.1-0.1c-0.1-0.1-0.2-0.3-0.3-0.4
					c-0.1-0.1-0.2-0.3-0.3-0.4c0-0.1-0.1-0.1-0.1-0.2c-0.1-0.2-0.2-0.3-0.3-0.5c-0.1-0.1-0.2-0.2-0.3-0.4c0,0-0.1-0.1-0.1-0.1
					c-0.2-0.2-0.4-0.4-0.5-0.7c-0.1-0.1-0.2-0.2-0.3-0.3c0,0,0,0-0.1-0.1c-0.1-0.2-0.3-0.3-0.4-0.5l1.3-0.8c0.2,0.2,0.4,0.4,0.6,0.6
					c0,0,0.1,0.1,0.1,0.1c0.4,0.4,0.7,0.7,1.1,1.1c0,0,0,0,0.1,0.1c0.1,0.1,0.2,0.2,0.3,0.3c0.2,0.2,0.4,0.4,0.5,0.7
					c0,0,0.1,0.1,0.1,0.1c0.1,0.1,0.2,0.2,0.3,0.4c0.1,0.2,0.2,0.3,0.3,0.5c0,0.1,0.1,0.1,0.1,0.2c0.1,0.1,0.2,0.3,0.3,0.4
					c0.1,0.1,0.2,0.3,0.3,0.4c0,0.1,0.1,0.1,0.1,0.2c0.1,0.2,0.2,0.3,0.3,0.5c0.1,0.1,0.2,0.2,0.2,0.4c0,0,0,0.1,0.1,0.1
					c0.2,0.3,0.3,0.5,0.4,0.8c0,0,0,0.1,0.1,0.1c0,0,0,0,0,0c0.2,0.3,0.3,0.6,0.5,1c0,0,0,0,0,0.1c0.1,0.1,0.1,0.2,0.2,0.3
					c0.1,0.2,0.2,0.4,0.3,0.6c0,0,0,0.1,0.1,0.1c0.1,0.1,0.1,0.3,0.2,0.4c0.1,0.1,0.1,0.3,0.2,0.4c0,0.1,0.1,0.2,0.1,0.2
					c0.1,0.2,0.1,0.3,0.2,0.5c0,0.1,0.1,0.2,0.1,0.4c0,0.1,0,0.2,0.1,0.3c0.1,0.2,0.1,0.4,0.2,0.6c0,0.1,0.1,0.2,0.1,0.3
					c0,0.1,0,0.1,0.1,0.2c0.1,0.3,0.1,0.5,0.2,0.8c0,0.1,0.1,0.2,0.1,0.3c0,0,0,0.1,0,0.1c0.1,0.5,0.2,1,0.2,1.4c0,0,0,0,0,0
					c0,0.2,0,0.4,0.1,0.6c0,0.2,0,0.3,0,0.5c0,0.4,0,0.7,0,1.1c0,3.6-1.3,6.1-3.3,7.3l-8.3,4.8C104.4,129.3,105.4,128.1,105.9,126.4
					z"/>
				<g>
					<path class="st6" d="M92,101.7c-4.7-1.1-8.1,1.9-8.1,7.8c0,7.2,5,15.9,11.3,19.6c6.3,3.6,11.3,0.7,11.4-6.5
						c0-5.9-3.4-12.9-8.1-17.1l0,5.2c1.4,2,2.4,4.4,2.4,6.6c0,3.6-2.5,5-5.6,3.2c-3.1-1.8-5.6-6.1-5.6-9.7c0-2.2,1-3.5,2.4-3.9
						L92,101.7z"/>
				</g>
				<g>
					<path class="st17" d="M96.1,121c2.6,1,4.6-0.5,4.6-3.7c0-2.2-0.9-4.6-2.4-6.6l0-5.2c4.7,4.3,8.1,11.3,8.1,17.1
						c0,7.2-5.1,10.1-11.4,6.5c-0.8-0.5-1.6-1.1-2.4-1.7C94.3,125.5,95.4,123.3,96.1,121z"/>
				</g>
			</g>
			<g>
				<g class="st0">
					<path class="st18" d="M85.8,82.6c0,0.2,0,0.3,0.1,0.5c0,0.1,0.1,0.2,0.1,0.4c0,0.1,0.1,0.3,0.1,0.4c0,0.1,0.1,0.2,0.1,0.3
						c0.1,0.2,0.1,0.3,0.2,0.5c0.1,0.1,0.1,0.2,0.2,0.3c0.1,0.2,0.2,0.3,0.3,0.5c0.1,0.1,0.1,0.2,0.2,0.3c0.2,0.2,0.4,0.4,0.6,0.7
						c0.1,0.1,0.1,0.2,0.2,0.2c0.1,0.1,0.3,0.2,0.4,0.4c0.1,0.1,0.3,0.2,0.4,0.3c0.2,0.1,0.3,0.2,0.5,0.3c0.2,0.1,0.3,0.2,0.5,0.3
						c0.4,0.2,0.9,0.5,1.3,0.7c0.1,0.1,0.3,0.1,0.4,0.2c0.4,0.2,0.8,0.3,1.2,0.4c0.1,0,0.2,0.1,0.4,0.1c0.3,0.1,0.5,0.1,0.8,0.2
						c0.2,0,0.4,0.1,0.5,0.1c0.3,0.1,0.5,0.1,0.8,0.2c0.2,0,0.4,0.1,0.6,0.1c0.5,0.1,1.1,0.2,1.6,0.2c0.2,0,0.3,0,0.5,0
						c0.3,0,0.6,0,0.9,0.1c0.2,0,0.4,0,0.6,0c0.3,0,0.5,0,0.8,0c0.2,0,0.4,0,0.6,0c0.2,0,0.5,0,0.7,0c0.2,0,0.4,0,0.7-0.1
						c0.2,0,0.5,0,0.7-0.1c0.2,0,0.4-0.1,0.7-0.1c0.2,0,0.5-0.1,0.7-0.1c0.2,0,0.4-0.1,0.6-0.1c0.3-0.1,0.6-0.1,0.8-0.2
						c0.2,0,0.3-0.1,0.5-0.1c0.5-0.2,1-0.3,1.5-0.5c0.3-0.1,0.5-0.2,0.8-0.3c0.1,0,0.2-0.1,0.3-0.1c0.4-0.2,0.7-0.4,1.1-0.5
						c2.8-1.6,4.2-3.8,4.2-5.9l0,6.4c0,2.1-1.4,4.3-4.2,5.9c-0.3,0.2-0.7,0.4-1,0.5c-0.1,0.1-0.2,0.1-0.4,0.2
						c-0.2,0.1-0.4,0.2-0.7,0.3c0,0-0.1,0-0.1,0c-0.5,0.2-1,0.4-1.5,0.5c0,0-0.1,0-0.1,0c-0.1,0-0.2,0.1-0.4,0.1
						c-0.3,0.1-0.6,0.2-0.9,0.2c-0.1,0-0.2,0-0.2,0.1c-0.1,0-0.2,0-0.4,0.1c-0.3,0-0.5,0.1-0.8,0.1c-0.1,0-0.2,0-0.3,0.1
						c-0.1,0-0.2,0-0.3,0c-0.2,0-0.5,0.1-0.7,0.1c-0.1,0-0.2,0-0.3,0c-0.1,0-0.2,0-0.3,0c-0.2,0-0.5,0-0.7,0c-0.1,0-0.2,0-0.4,0
						c-0.1,0-0.2,0-0.3,0c-0.3,0-0.5,0-0.8,0c-0.1,0-0.2,0-0.4,0c-0.1,0-0.1,0-0.2,0c-0.3,0-0.7,0-1-0.1c-0.1,0-0.2,0-0.4,0
						c0,0-0.1,0-0.1,0c-0.6-0.1-1.1-0.1-1.6-0.2c0,0,0,0-0.1,0c-0.1,0-0.3-0.1-0.4-0.1c-0.3-0.1-0.6-0.1-0.8-0.2
						c-0.2,0-0.3-0.1-0.5-0.1c-0.3-0.1-0.5-0.1-0.8-0.2c0,0-0.1,0-0.1,0c-0.1,0-0.2-0.1-0.2-0.1c-0.4-0.1-0.8-0.3-1.1-0.4
						c-0.1-0.1-0.3-0.1-0.4-0.2c-0.5-0.2-0.9-0.4-1.4-0.7c-0.1,0-0.1-0.1-0.2-0.1c-0.1-0.1-0.2-0.2-0.4-0.2
						c-0.2-0.1-0.4-0.2-0.5-0.3c-0.1-0.1-0.3-0.2-0.4-0.3c-0.2-0.1-0.3-0.2-0.4-0.4c0,0-0.1,0-0.1-0.1c-0.1,0-0.1-0.1-0.1-0.2
						c-0.2-0.2-0.4-0.4-0.6-0.7c0,0-0.1-0.1-0.1-0.1c0,0-0.1-0.1-0.1-0.1c-0.1-0.2-0.2-0.3-0.3-0.5c0-0.1-0.1-0.1-0.1-0.2
						c0,0,0-0.1,0-0.1c-0.1-0.2-0.1-0.3-0.2-0.5c0-0.1-0.1-0.2-0.1-0.2c0,0,0-0.1,0-0.1C86.1,90.1,86,90,86,89.8
						c0-0.1-0.1-0.2-0.1-0.3c0,0,0,0,0-0.1c0-0.2,0-0.3-0.1-0.5c0-0.1,0-0.2,0-0.3c0,0,0-0.1,0-0.1l0-6.4
						C85.8,82.3,85.8,82.4,85.8,82.6z"/>
					<g>
						<path class="st19" d="M87,92c0.2,0.1,0.3,0.2,0.5,0.3c0.1,0.1,0.2,0.2,0.4,0.2c0.1,0,0.1,0.1,0.2,0.1c0.4,0.2,0.9,0.5,1.4,0.7
							c0.1,0.1,0.3,0.1,0.4,0.2c0.4,0.2,0.8,0.3,1.1,0.4c0.1,0,0.2,0.1,0.2,0.1c0,0,0.1,0,0.1,0c0.3,0.1,0.5,0.2,0.8,0.2
							c0.2,0,0.3,0.1,0.5,0.1c0.3,0.1,0.6,0.1,0.8,0.2c0.1,0,0.3,0.1,0.4,0.1c0,0,0,0,0.1,0c0.5,0.1,1.1,0.2,1.6,0.2
							c0,0,0.1,0,0.1,0c0.1,0,0.2,0,0.4,0c0.3,0,0.7,0.1,1,0.1c0.1,0,0.1,0,0.2,0c0.1,0,0.2,0,0.4,0c0.3,0,0.5,0,0.8,0
							c0.1,0,0.2,0,0.3,0c0.1,0,0.2,0,0.4,0c0.2,0,0.5,0,0.7,0c0.1,0,0.2,0,0.3,0c0.1,0,0.2,0,0.3,0c0.2,0,0.5,0,0.7-0.1
							c0.1,0,0.2,0,0.3,0c0.1,0,0.2,0,0.3-0.1c0.3,0,0.5-0.1,0.8-0.1c0.1,0,0.2,0,0.4-0.1c0.1,0,0.2,0,0.2-0.1
							c0.3-0.1,0.6-0.1,0.9-0.2c0.1,0,0.2-0.1,0.4-0.1c0,0,0.1,0,0.1,0c0.5-0.2,1-0.3,1.5-0.5c0,0,0.1,0,0.1,0
							c0.2-0.1,0.4-0.2,0.7-0.3c0.1-0.1,0.2-0.1,0.4-0.2c0.4-0.2,0.7-0.4,1-0.5c2.8-1.6,4.2-3.8,4.2-5.9l0-0.5
							c1.2-1.3,1.9-2.7,1.9-4.1l0,6.4c0,2.1-1.4,4.3-4.2,5.9c-0.3,0.2-0.7,0.4-1,0.5c-0.1,0.1-0.2,0.1-0.4,0.2
							c-0.2,0.1-0.4,0.2-0.7,0.3c0,0-0.1,0-0.1,0c-0.5,0.2-1,0.4-1.5,0.5c0,0-0.1,0-0.1,0c-0.1,0-0.2,0.1-0.4,0.1
							c-0.3,0.1-0.6,0.2-0.9,0.2c-0.1,0-0.2,0-0.2,0.1c-0.1,0-0.2,0-0.4,0.1c-0.3,0-0.5,0.1-0.8,0.1c-0.1,0-0.2,0-0.3,0.1
							c-0.1,0-0.2,0-0.3,0c-0.2,0-0.5,0.1-0.7,0.1c-0.1,0-0.2,0-0.3,0c-0.1,0-0.2,0-0.3,0c-0.2,0-0.5,0-0.7,0c-0.1,0-0.2,0-0.4,0
							c-0.1,0-0.2,0-0.3,0c-0.3,0-0.5,0-0.8,0c-0.1,0-0.2,0-0.4,0c-0.1,0-0.1,0-0.2,0c-0.3,0-0.7,0-1-0.1c-0.1,0-0.2,0-0.4,0
							c0,0-0.1,0-0.1,0c-0.6-0.1-1.1-0.1-1.6-0.2c0,0,0,0-0.1,0c-0.1,0-0.3-0.1-0.4-0.1c-0.3-0.1-0.6-0.1-0.9-0.2
							c-0.2,0-0.3-0.1-0.5-0.1c-0.3-0.1-0.5-0.1-0.8-0.2c0,0-0.1,0-0.1,0c-0.1,0-0.2-0.1-0.2-0.1c-0.4-0.1-0.8-0.3-1.1-0.4
							c-0.1-0.1-0.3-0.1-0.4-0.2c-0.5-0.2-0.9-0.4-1.4-0.7c-0.1,0-0.1-0.1-0.2-0.1c-0.1-0.1-0.2-0.2-0.4-0.2
							c-0.2-0.1-0.4-0.2-0.5-0.3c-0.1-0.1-0.3-0.2-0.4-0.3c-0.2-0.1-0.3-0.2-0.4-0.4c0,0-0.1,0-0.1-0.1c-0.1,0-0.1-0.1-0.1-0.2
							c-0.2-0.2-0.4-0.4-0.6-0.7c0,0-0.1-0.1-0.1-0.1C87.1,92.1,87,92.1,87,92c-0.1,0-0.1,0-0.1-0.1C87,91.9,87,92,87,92z"/>
					</g>
					<g>
						<path class="st2" d="M90,76.3c-5.6,3.2-5.6,8.5-0.1,11.7c5.5,3.2,14.6,3.2,20.2,0c5.6-3.2,5.6-8.5,0.1-11.7
							C104.6,73.1,95.6,73.1,90,76.3z"/>
					</g>
					<g>
						<path class="st20" d="M92.5,77.2c-4.4,2.5-4.4,6.7-0.1,9.2c4.4,2.5,11.5,2.5,15.9,0c4.4-2.5,4.4-6.7,0-9.2
							C104,74.6,96.9,74.6,92.5,77.2z"/>
					</g>
				</g>
			</g>
			<g>
				<g class="st0">
					<path class="st18" d="M89.6,69.2c0,0.1,0,0.2,0,0.4c0,0.1,0,0.2,0.1,0.2c0,0.1,0.1,0.2,0.1,0.3c0,0.1,0.1,0.2,0.1,0.3
						c0,0.1,0.1,0.2,0.2,0.3c0,0.1,0.1,0.2,0.1,0.2c0.1,0.1,0.2,0.3,0.3,0.4c0.1,0.1,0.1,0.1,0.2,0.2c0.1,0.2,0.3,0.3,0.5,0.5
						c0.1,0.1,0.1,0.1,0.2,0.2c0.1,0.1,0.2,0.2,0.3,0.3c0.1,0.1,0.2,0.2,0.3,0.2c0.1,0.1,0.2,0.1,0.3,0.2c0.2,0.1,0.3,0.2,0.5,0.3
						c0.5,0.3,1,0.5,1.5,0.7c0.1,0.1,0.3,0.1,0.4,0.2c0.3,0.1,0.7,0.2,1,0.3c0.3,0.1,0.7,0.2,1.1,0.3c0.4,0.1,0.9,0.2,1.3,0.2
						c0.1,0,0.2,0,0.3,0c0.6,0.1,1.2,0.1,1.8,0.1c0.1,0,0.2,0,0.3,0c0.6,0,1.2,0,1.8-0.1c0.1,0,0.2,0,0.3,0c0.6-0.1,1.2-0.2,1.7-0.3
						c0.1,0,0.2-0.1,0.3-0.1c0.5-0.1,1-0.3,1.5-0.5c0.1,0,0.2-0.1,0.3-0.1c0.6-0.2,1.1-0.5,1.6-0.8c2.1-1.2,3.2-2.8,3.2-4.4l0,12.9
						c0,1.6-1.1,3.2-3.2,4.4c-0.5,0.3-1,0.5-1.5,0.7c0,0-0.1,0-0.1,0c-0.1,0-0.2,0.1-0.3,0.1c-0.3,0.1-0.6,0.2-0.9,0.3
						c-0.2,0.1-0.4,0.1-0.5,0.1c-0.1,0-0.2,0.1-0.3,0.1c-0.1,0-0.2,0-0.3,0.1c-0.4,0.1-0.7,0.1-1.1,0.2c-0.1,0-0.3,0-0.4,0
						c-0.1,0-0.2,0-0.2,0c-0.1,0-0.3,0-0.4,0c-0.3,0-0.7,0-1.1,0.1c-0.1,0-0.2,0-0.3,0c-0.1,0-0.2,0-0.3,0c-0.2,0-0.3,0-0.5,0
						c-0.4,0-0.8,0-1.2-0.1c0,0-0.1,0-0.1,0c-0.1,0-0.2,0-0.3,0c-0.3,0-0.6-0.1-0.9-0.1c-0.2,0-0.5-0.1-0.7-0.2c-0.1,0-0.1,0-0.2,0
						c-0.4-0.1-0.8-0.2-1.1-0.3c-0.2,0-0.3-0.1-0.4-0.2c-0.1-0.1-0.3-0.1-0.4-0.2c-0.5-0.2-1-0.4-1.5-0.7c0,0-0.1-0.1-0.1-0.1
						c-0.1-0.1-0.2-0.1-0.3-0.2c-0.1-0.1-0.2-0.2-0.3-0.2c-0.1-0.1-0.2-0.2-0.3-0.3c-0.1-0.1-0.2-0.2-0.3-0.2c0,0-0.1,0-0.1-0.1
						c0,0-0.1-0.1-0.1-0.1c-0.2-0.2-0.3-0.3-0.4-0.5c0,0-0.1-0.1-0.1-0.1c0,0,0-0.1-0.1-0.1c-0.1-0.1-0.2-0.2-0.2-0.4
						c0-0.1-0.1-0.1-0.1-0.2c0,0,0-0.1,0-0.1c-0.1-0.1-0.1-0.2-0.2-0.3c0-0.1-0.1-0.1-0.1-0.2c0,0,0,0,0-0.1c0-0.1-0.1-0.2-0.1-0.3
						c0-0.1,0-0.1-0.1-0.2c0,0,0,0,0-0.1c0-0.1,0-0.2,0-0.3c0-0.1,0-0.1,0-0.2c0,0,0-0.1,0-0.1l0-12.9C89.6,69,89.6,69.1,89.6,69.2z
						"/>
					<g>
						<path class="st19" d="M91.8,85c0.1,0.1,0.3,0.1,0.4,0.2c0.1,0.1,0.3,0.1,0.4,0.2c0.4,0.1,0.7,0.2,1.1,0.3c0.1,0,0.1,0,0.2,0
							c0.2,0.1,0.5,0.1,0.7,0.2c0.3,0.1,0.6,0.1,0.9,0.1c0.1,0,0.2,0,0.3,0c0,0,0.1,0,0.1,0c0.4,0,0.8,0.1,1.2,0.1
							c0.2,0,0.3,0,0.5,0c0.1,0,0.2,0,0.3,0c0.1,0,0.2,0,0.3,0c0.4,0,0.7,0,1.1-0.1c0.1,0,0.3,0,0.4,0c0.1,0,0.2,0,0.2,0
							c0.1,0,0.3,0,0.4,0c0.4-0.1,0.7-0.1,1.1-0.2c0.1,0,0.2,0,0.3-0.1c0.1,0,0.2,0,0.3-0.1c0.2,0,0.4-0.1,0.5-0.1
							c0.3-0.1,0.6-0.2,0.9-0.3c0.1,0,0.2-0.1,0.3-0.1c0,0,0.1,0,0.1,0c0.5-0.2,1.1-0.5,1.5-0.7c2.1-1.2,3.2-2.8,3.2-4.4l0-7.1
							c1.6-1.1,2.4-2.5,2.4-3.9l0,12.9c0,1.6-1.1,3.2-3.2,4.4c-0.5,0.3-1,0.5-1.5,0.7c0,0-0.1,0-0.1,0c-0.1,0-0.2,0.1-0.3,0.1
							c-0.3,0.1-0.6,0.2-0.9,0.3c-0.2,0.1-0.4,0.1-0.5,0.1c-0.1,0-0.2,0.1-0.3,0.1c-0.1,0-0.2,0-0.3,0.1c-0.4,0.1-0.7,0.1-1.1,0.2
							c-0.1,0-0.3,0-0.4,0c-0.1,0-0.2,0-0.2,0c-0.1,0-0.3,0-0.4,0c-0.3,0-0.7,0-1.1,0.1c-0.1,0-0.2,0-0.3,0c-0.1,0-0.2,0-0.3,0
							c-0.2,0-0.3,0-0.5,0c-0.4,0-0.8,0-1.2-0.1c0,0-0.1,0-0.1,0c-0.1,0-0.2,0-0.3,0c-0.3,0-0.6-0.1-0.9-0.1c-0.2,0-0.5-0.1-0.7-0.2
							c-0.1,0-0.1,0-0.2,0c-0.4-0.1-0.8-0.2-1.1-0.3c-0.2,0-0.3-0.1-0.4-0.2c-0.1-0.1-0.3-0.1-0.4-0.2c-0.5-0.2-1-0.4-1.5-0.7
							c0,0-0.1-0.1-0.1-0.1c-0.1-0.1-0.2-0.1-0.3-0.2c-0.1-0.1-0.2-0.2-0.3-0.2c-0.1-0.1-0.2-0.2-0.3-0.3c-0.1-0.1-0.2-0.2-0.3-0.2
							c0,0-0.1,0-0.1-0.1c0,0-0.1-0.1-0.1-0.1c-0.1-0.1-0.3-0.3-0.4-0.4C91.1,84.6,91.4,84.8,91.8,85z"/>
					</g>
					<g>
						<path class="st2" d="M92.7,64.5c-4.2,2.4-4.2,6.3,0,8.8c4.2,2.4,11,2.4,15.1,0c4.2-2.4,4.2-6.4,0-8.8
							C103.7,62,96.9,62,92.7,64.5z"/>
					</g>
				</g>
			</g>
		</g>
	</g>
	<g>
		<path class="st21" d="M8.9,52.3L92.3,3.8C87.8,6.4,85,11.9,85,19.8L1.7,68.2C1.7,60.4,4.5,54.9,8.9,52.3z"/>
		<g>
			<g class="st0">
				<path class="st22" d="M58.3,87.5c-0.1-0.7-0.1-1.3-0.2-2c0-0.1,0-0.3-0.1-0.4c-0.1-0.8-0.3-1.5-0.5-2.3
					c-0.1-0.4-0.2-0.8-0.3-1.2c-0.1-0.5-0.3-1.1-0.4-1.6c-0.1-0.3-0.2-0.6-0.3-0.9c-0.2-0.6-0.4-1.2-0.6-1.8
					c-0.1-0.2-0.2-0.5-0.3-0.7c-0.3-0.8-0.6-1.7-1-2.5c0-0.1-0.1-0.2-0.1-0.3c-0.3-0.7-0.7-1.5-1-2.2c-0.1-0.2-0.2-0.5-0.3-0.7
					c-0.3-0.7-0.7-1.3-1.1-2c-0.1-0.1-0.2-0.3-0.2-0.4c-0.4-0.8-0.9-1.5-1.4-2.3c-0.1-0.2-0.3-0.5-0.5-0.7c-0.4-0.5-0.7-1.1-1.1-1.6
					c-0.2-0.3-0.4-0.6-0.6-0.8c-0.3-0.4-0.7-0.9-1-1.3c-0.3-0.4-0.6-0.7-0.9-1.1c-0.5-0.6-1.1-1.2-1.6-1.8c0,0,0,0,0,0
					c-0.6-0.6-1.1-1.1-1.7-1.7c-0.2-0.2-0.5-0.5-0.8-0.7c-0.4-0.4-0.9-0.8-1.3-1.1c-0.3-0.2-0.5-0.4-0.8-0.6
					c-0.5-0.4-0.9-0.7-1.4-1.1c-0.2-0.2-0.5-0.3-0.7-0.5c-0.7-0.5-1.4-1-2.2-1.4c-0.5-0.3-1-0.5-1.4-0.8c-0.1-0.1-0.3-0.1-0.4-0.2
					c-0.4-0.2-0.7-0.3-1.1-0.5c-0.1-0.1-0.3-0.1-0.4-0.2c-0.3-0.1-0.7-0.3-1-0.4c-0.1,0-0.2-0.1-0.2-0.1c-0.4-0.1-0.8-0.3-1.2-0.4
					c-0.1,0-0.1,0-0.2,0c-0.6-0.2-1.2-0.3-1.9-0.4c0,0,0,0,0,0c-0.5-0.1-1-0.1-1.5-0.2c-0.1,0-0.2,0-0.3,0c-0.4,0-0.9,0-1.3,0
					c-0.1,0-0.2,0-0.2,0c-0.3,0-0.7,0.1-1,0.1c-0.1,0-0.2,0-0.3,0c-0.4,0.1-0.8,0.2-1.1,0.3c0,0,0,0,0,0c-0.4,0.1-0.7,0.2-1.1,0.4
					c-0.1,0-0.2,0.1-0.3,0.1c-0.3,0.1-0.6,0.3-0.8,0.4c-0.1,0-0.2,0.1-0.3,0.1C42,37.2,64.2,24.3,86.5,11.4c0,0,0.1,0,0.1-0.1
					c0,0,0.1,0,0.1-0.1c0.3-0.2,0.6-0.3,0.9-0.4c0,0,0.1-0.1,0.1-0.1c0,0,0.1,0,0.1,0c0.3-0.1,0.7-0.3,1-0.4c0,0,0,0,0,0
					c0,0,0,0,0,0c0.4-0.1,0.7-0.2,1.1-0.3c0,0,0.1,0,0.1,0c0.1,0,0.1,0,0.2,0c0.3-0.1,0.7-0.1,1-0.1c0.1,0,0.1,0,0.2,0
					c0,0,0,0,0.1,0c0.4,0,0.9,0,1.3,0c0,0,0.1,0,0.1,0c0.1,0,0.1,0,0.2,0c0.5,0,1,0.1,1.5,0.2l0,0c0.3,0.1,0.7,0.1,1,0.2
					c0.1,0,0.2,0.1,0.4,0.1c0.2,0,0.4,0.1,0.6,0.1c0,0,0,0,0.1,0c0.4,0.1,0.8,0.2,1.2,0.4c0.1,0,0.1,0,0.2,0.1
					c0.4,0.1,0.7,0.3,1.1,0.4c0,0,0.1,0,0.1,0c0.1,0,0.2,0.1,0.2,0.1c0.4,0.2,0.7,0.3,1.1,0.5c0.1,0.1,0.3,0.1,0.4,0.2
					c0.5,0.2,1,0.5,1.4,0.8c0.7,0.4,1.4,0.9,2.2,1.4c0.2,0.2,0.5,0.3,0.7,0.5c0.5,0.3,0.9,0.7,1.4,1.1c0.3,0.2,0.5,0.4,0.8,0.7
					c0.4,0.4,0.8,0.7,1.3,1.1c0.3,0.2,0.5,0.5,0.8,0.7c0.2,0.2,0.3,0.3,0.5,0.4c0.4,0.4,0.8,0.8,1.2,1.2c0,0,0,0,0,0
					c0.4,0.4,0.8,0.9,1.2,1.4c0.1,0.1,0.3,0.3,0.4,0.5c0.3,0.4,0.6,0.7,0.9,1.1c0.2,0.2,0.4,0.5,0.6,0.7c0.2,0.2,0.3,0.4,0.4,0.6
					c0.2,0.3,0.4,0.6,0.6,0.8c0.1,0.2,0.3,0.4,0.4,0.6c0.2,0.3,0.5,0.7,0.7,1c0.1,0.2,0.3,0.4,0.4,0.7c0.1,0.1,0.1,0.2,0.2,0.3
					c0.4,0.6,0.8,1.3,1.2,1.9c0,0,0,0.1,0.1,0.1c0.1,0.1,0.2,0.3,0.2,0.4c0.3,0.4,0.5,0.9,0.8,1.3c0.1,0.2,0.2,0.4,0.3,0.7
					c0.1,0.2,0.2,0.4,0.3,0.7c0.1,0.2,0.2,0.4,0.3,0.6c0.3,0.5,0.5,1.1,0.7,1.6c0,0.1,0.1,0.2,0.1,0.3c0,0,0,0,0,0.1
					c0.3,0.7,0.6,1.4,0.8,2c0,0.1,0.1,0.2,0.1,0.4c0.1,0.2,0.2,0.5,0.3,0.7c0.1,0.3,0.3,0.7,0.4,1c0.1,0.3,0.2,0.5,0.2,0.8
					c0.1,0.3,0.2,0.6,0.3,0.9c0.1,0.2,0.1,0.4,0.2,0.6c0.1,0.4,0.2,0.7,0.3,1.1c0.1,0.4,0.2,0.8,0.3,1.2c0,0.1,0.1,0.3,0.1,0.4
					c0.1,0.6,0.3,1.3,0.4,1.9c0,0.1,0,0.2,0.1,0.4c0,0.3,0.1,0.6,0.1,0.9c0.1,0.4,0.1,0.8,0.1,1.2c0,0.3,0.1,0.5,0.1,0.8
					c0.1,0.8,0.1,1.7,0.1,2.5c0,7.1-2.5,12.2-6.6,14.5l-66.7,38.7c4.1-2.4,6.6-7.4,6.6-14.5c0-0.8,0-1.7-0.1-2.5
					C58.4,88,58.3,87.8,58.3,87.5z"/>
				<g>
					<path class="st23" d="M57.4,97.3l57.5-33.4c4.1-2.4,6.6-7.4,6.6-14.5c0-0.8,0-1.7-0.1-2.5c0-0.3,0-0.5-0.1-0.8
						c0-0.4-0.1-0.8-0.1-1.2c0-0.3-0.1-0.6-0.1-0.9c0-0.1,0-0.2-0.1-0.4c-0.1-0.6-0.2-1.3-0.4-1.9c0-0.1-0.1-0.3-0.1-0.4
						c-0.1-0.4-0.2-0.8-0.3-1.2c-0.1-0.4-0.2-0.7-0.3-1.1c-0.1-0.2-0.1-0.4-0.2-0.6c-0.1-0.3-0.2-0.6-0.3-0.9
						c-0.1-0.3-0.2-0.5-0.2-0.8c-0.1-0.3-0.2-0.7-0.4-1c-0.1-0.3-0.2-0.5-0.3-0.7c0-0.1-0.1-0.3-0.1-0.4c-0.3-0.7-0.5-1.4-0.8-2
						c0,0,0,0,0-0.1c0-0.1-0.1-0.2-0.1-0.3c-0.2-0.5-0.5-1.1-0.7-1.6c-0.1-0.2-0.2-0.4-0.3-0.6c-0.1-0.2-0.2-0.4-0.3-0.7
						c-0.1-0.2-0.2-0.4-0.3-0.7c-0.2-0.5-0.5-0.9-0.7-1.3c-0.1-0.1-0.2-0.3-0.2-0.4c0,0,0-0.1-0.1-0.1c-0.4-0.6-0.8-1.3-1.2-1.9
						c-0.1-0.1-0.1-0.2-0.2-0.3c-0.1-0.2-0.3-0.4-0.4-0.7c-0.2-0.3-0.5-0.7-0.7-1c-0.1-0.2-0.3-0.4-0.4-0.6
						c-0.2-0.3-0.4-0.6-0.6-0.8c-0.2-0.2-0.3-0.4-0.4-0.6c-0.2-0.2-0.4-0.5-0.6-0.7c-0.3-0.4-0.6-0.7-0.9-1.1
						c-0.1-0.2-0.2-0.3-0.4-0.5c-0.4-0.5-0.8-0.9-1.2-1.4c0,0,0,0,0,0c-0.4-0.4-0.8-0.8-1.2-1.3c-0.2-0.2-0.3-0.3-0.5-0.4
						c-0.1-0.1-0.3-0.3-0.4-0.4c0.3,0.2,0.7,0.5,1,0.7c0.3,0.2,0.5,0.4,0.8,0.7c0.4,0.4,0.8,0.7,1.3,1.1c0.3,0.2,0.5,0.5,0.8,0.7
						c0.2,0.2,0.3,0.3,0.5,0.4c0.4,0.4,0.8,0.8,1.2,1.2c0,0,0,0,0,0c0.4,0.4,0.8,0.9,1.2,1.4c0.1,0.2,0.3,0.3,0.4,0.5
						c0.3,0.4,0.6,0.7,0.9,1.1c0.2,0.2,0.4,0.5,0.6,0.7c0.2,0.2,0.3,0.4,0.4,0.6c0.2,0.3,0.4,0.6,0.6,0.8c0.1,0.2,0.3,0.4,0.4,0.6
						c0.2,0.3,0.5,0.7,0.7,1c0.1,0.2,0.3,0.4,0.4,0.7c0.1,0.1,0.1,0.2,0.2,0.3c0.4,0.6,0.8,1.3,1.2,1.9c0,0,0,0.1,0.1,0.1
						c0.1,0.1,0.2,0.3,0.3,0.4c0.3,0.4,0.5,0.9,0.7,1.3c0.1,0.2,0.2,0.4,0.3,0.7c0.1,0.2,0.2,0.4,0.3,0.7c0.1,0.2,0.2,0.4,0.3,0.6
						c0.3,0.5,0.5,1.1,0.7,1.6c0,0.1,0.1,0.2,0.1,0.3c0,0,0,0,0,0.1c0.3,0.7,0.6,1.4,0.8,2c0,0.1,0.1,0.2,0.1,0.4
						c0.1,0.3,0.2,0.5,0.3,0.7c0.1,0.3,0.3,0.7,0.4,1c0.1,0.3,0.2,0.5,0.2,0.8c0.1,0.3,0.2,0.6,0.3,0.9c0.1,0.2,0.1,0.4,0.2,0.6
						c0.1,0.4,0.2,0.7,0.3,1.1c0.1,0.4,0.2,0.8,0.3,1.2c0,0.1,0.1,0.3,0.1,0.4c0.1,0.6,0.3,1.3,0.4,1.9c0,0.1,0,0.2,0.1,0.4
						c0,0.3,0.1,0.6,0.1,0.9c0,0.4,0.1,0.8,0.1,1.2c0,0.3,0.1,0.5,0.1,0.8c0.1,0.8,0.1,1.7,0.1,2.5c0,7.1-2.5,12.2-6.6,14.5
						l-66.7,38.7C54.3,103.8,56.3,101.1,57.4,97.3z"/>
				</g>
				<g>
					<path class="st24" d="M35.9,51.7c-12.5-7.2-22.7-1.4-22.7,12.9c0,14.4,10.1,31.9,22.6,39.1c12.5,7.2,22.7,1.4,22.7-12.9
						C58.5,76.4,48.4,58.9,35.9,51.7z"/>
				</g>
				<path class="st25" d="M18.3,50.6c-1.8,2.7-2.9,6.4-2.9,11c0,14.4,10.1,31.9,22.6,39.1c7.2,4.2,13.7,4,17.9,0.3
					c-3.9,5.7-11.3,6.9-19.8,1.9c-12.5-7.2-22.6-24.7-22.6-39.1C13.5,57.8,15.3,53.2,18.3,50.6z"/>
				<g>
					<path class="st26" d="M37.6,55.2c-9.9-5.7-17.9-1.1-17.9,10.2c0,11.3,7.9,25.2,17.8,30.9c9.9,5.7,17.9,1.1,17.9-10.2
						C55.4,74.7,47.4,60.9,37.6,55.2z"/>
				</g>
				<g>
					<path class="st27" d="M39.1,57.5c-8.1-4.7-14.6-0.9-14.7,8.4c0,9.3,6.5,20.6,14.6,25.2c8.1,4.7,14.6,0.9,14.7-8.4
						C53.7,73.5,47.2,62.2,39.1,57.5z"/>
				</g>
				<g>
					<path class="st28" d="M40.1,61.7c-5.7-3.3-10.3-0.6-10.3,5.9c0,6.5,4.6,14.4,10.2,17.7c5.7,3.3,10.3,0.6,10.3-5.9
						C50.4,72.9,45.8,65,40.1,61.7z"/>
				</g>
				<g>
					<path class="st29" d="M40.4,67.9c-2.5-1.5-4.6-0.3-4.6,2.6c0,2.9,2,6.5,4.6,7.9c2.5,1.5,4.6,0.3,4.6-2.6
						C45,72.9,43,69.4,40.4,67.9z"/>
				</g>
				<g>
					<path class="st30" d="M39.9,70.7c-1-0.6-1.7-0.1-1.7,1c0,1.1,0.8,2.4,1.7,3c1,0.6,1.7,0.1,1.7-1C41.7,72.6,40.9,71.2,39.9,70.7
						z"/>
				</g>
				<g>
					<g>
						<path class="st31" d="M25.8,51.4c2.7,0,5.7,1,8.9,2.8c11.8,6.8,21.3,23.3,21.3,36.8c0,8.4-3.7,13.4-9.9,13.4
							c-2.7,0-5.7-1-8.9-2.8c-11.8-6.8-21.3-23.3-21.3-36.8C15.9,56.4,19.6,51.4,25.8,51.4L25.8,51.4L25.8,51.4z M25.8,48.7
							c-7.4,0-12.5,5.9-12.6,16.1c0,14.4,10.1,31.9,22.6,39.1c3.7,2.1,7.1,3.1,10.2,3.1c7.4,0,12.5-5.9,12.6-16.1
							c0-14.4-10.1-31.9-22.6-39.1C32.3,49.7,28.8,48.7,25.8,48.7L25.8,48.7z"/>
					</g>
				</g>
			</g>
		</g>
		<g class="st32">
			<path class="st24" d="M54.4,101.4c0-10.4-4.2-20.4-11.5-27.8c-7.3-7.3-17.4-11.5-27.8-11.5h-0.3c-0.5,0-1,0-1.5,0
				C14.6,49.8,24.2,45.3,35.9,52c12.5,7.2,22.6,24.7,22.6,39.1c0,5.6-1.6,9.8-4.2,12.6C54.4,102.9,54.4,102.1,54.4,101.4z"/>
		</g>
		<g>
			<g class="st0">
				<path class="st33" d="M52.8,92.9c0-0.2-0.1-0.4-0.1-0.7c0-0.3-0.1-0.7-0.2-1c0-0.3-0.1-0.5-0.1-0.8c-0.1-0.3-0.1-0.7-0.2-1
					c0-0.2-0.1-0.4-0.1-0.6c-0.2-0.9-0.4-1.8-0.6-2.6c0-0.1-0.1-0.3-0.1-0.4c-0.2-0.8-0.4-1.5-0.7-2.3c0-0.1,0-0.1-0.1-0.2
					c-0.2-0.7-0.5-1.5-0.8-2.2c-0.1-0.2-0.1-0.4-0.2-0.6c-0.2-0.6-0.5-1.2-0.7-1.8c-0.1-0.1-0.1-0.2-0.2-0.4
					c-0.3-0.7-0.6-1.4-0.9-2.1c-0.1-0.2-0.1-0.3-0.2-0.5c-0.3-0.6-0.6-1.1-0.8-1.7c-0.1-0.2-0.2-0.3-0.3-0.5c-0.4-0.7-0.7-1.3-1.1-2
					c-0.1-0.1-0.1-0.2-0.2-0.3c-0.3-0.6-0.7-1.1-1-1.7c-0.1-0.2-0.2-0.4-0.3-0.6c-0.4-0.7-0.9-1.3-1.3-2c-0.1-0.1-0.1-0.2-0.2-0.2
					c-0.5-0.7-1-1.4-1.5-2c-0.1-0.1-0.1-0.2-0.2-0.3c-0.6-0.8-1.3-1.6-1.9-2.4c-0.1-0.1-0.2-0.2-0.3-0.3c-0.4-0.5-0.8-0.9-1.2-1.3
					c-0.1-0.1-0.1-0.1-0.2-0.2c-0.4-0.5-0.9-0.9-1.3-1.3c-0.1-0.1-0.2-0.2-0.3-0.3c-0.6-0.6-1.2-1.2-1.8-1.7c-0.1,0-0.1-0.1-0.1-0.1
					c-0.6-0.6-1.3-1.1-1.9-1.6c-0.1-0.1-0.2-0.2-0.4-0.3c-0.6-0.5-1.3-1-1.9-1.4c-0.1-0.1-0.2-0.2-0.4-0.2c-0.7-0.5-1.4-0.9-2.1-1.3
					c-0.6-0.3-1.1-0.6-1.7-0.9c-0.2-0.1-0.3-0.2-0.5-0.2c-0.4-0.2-0.8-0.4-1.2-0.6c-0.2-0.1-0.3-0.1-0.5-0.2
					c-0.4-0.2-0.8-0.3-1.2-0.4c-0.1,0-0.2-0.1-0.3-0.1c-0.5-0.2-1-0.3-1.4-0.4c-0.3-0.1-0.5-0.1-0.8-0.2c-0.1,0-0.3-0.1-0.4-0.1
					c-0.4-0.1-0.8-0.2-1.2-0.2c-0.6-0.1-1.2-0.1-1.8-0.2c-0.1,0-0.2,0-0.3,0c-0.5,0-1,0-1.5,0c-0.1,0-0.2,0-0.3,0
					c-0.4,0-0.8,0.1-1.2,0.1c-0.1,0-0.2,0-0.4,0.1c-0.5,0.1-0.9,0.2-1.3,0.3c0,0,0,0,0,0c-0.4,0.1-0.8,0.3-1.2,0.4
					c-0.1,0-0.2,0.1-0.3,0.1c-0.3,0.2-0.7,0.3-1,0.5c-0.1,0.1-0.2,0.1-0.3,0.2C35.5,34.1,63.3,17.9,91.1,1.8c0,0,0.1-0.1,0.1-0.1
					c0.1,0,0.1-0.1,0.2-0.1c0.3-0.2,0.6-0.3,1-0.5c0.1,0,0.1-0.1,0.2-0.1c0.1,0,0.1,0,0.2-0.1c0.8-0.3,1.7-0.6,2.6-0.8
					c0,0,0.1,0,0.1,0c0.1,0,0.1,0,0.2,0c0.4-0.1,0.8-0.1,1.2-0.1C97,0,97,0,97.1,0c0,0,0,0,0.1,0c0.5,0,1,0,1.5,0c0.1,0,0.1,0,0.2,0
					C98.9,0,99,0,99,0c0.6,0,1.2,0.1,1.8,0.2c0,0,0,0,0,0c0.4,0.1,0.8,0.1,1.2,0.2c0.2,0,0.3,0.1,0.5,0.1c0.2,0.1,0.5,0.1,0.7,0.2
					c0,0,0,0,0.1,0c0.5,0.1,1,0.3,1.4,0.4c0.1,0,0.2,0.1,0.3,0.1c0.4,0.1,0.8,0.3,1.2,0.5c0.1,0,0.1,0,0.1,0.1
					c0.1,0,0.2,0.1,0.3,0.1c0.4,0.2,0.9,0.4,1.3,0.6c0.2,0.1,0.3,0.1,0.5,0.2c0.6,0.3,1.1,0.6,1.7,0.9c0.7,0.4,1.4,0.9,2.1,1.3
					c0.1,0.1,0.2,0.1,0.3,0.2c0.7,0.5,1.3,0.9,2,1.4c0.1,0.1,0.2,0.2,0.3,0.3c0.7,0.5,1.3,1.1,2,1.6c0,0,0.1,0.1,0.1,0.1
					c0.6,0.6,1.3,1.1,1.9,1.8c0,0,0.1,0.1,0.2,0.1c0,0,0.1,0.1,0.1,0.1c0.9,0.9,1.8,1.9,2.7,2.9c0,0,0.1,0.1,0.1,0.1
					c0,0,0.1,0.1,0.1,0.1c0.7,0.8,1.4,1.6,2,2.5c0,0,0,0,0,0c0,0,0.1,0.1,0.1,0.1c0.5,0.7,1.1,1.4,1.6,2.1c0,0,0.1,0.1,0.1,0.1
					c0,0,0,0,0,0.1c0.5,0.7,0.9,1.4,1.4,2.1c0,0.1,0.1,0.1,0.1,0.2c0.1,0.1,0.1,0.2,0.2,0.3c0.4,0.6,0.7,1.2,1.1,1.8
					c0,0.1,0.1,0.1,0.1,0.2c0,0,0,0,0,0.1c0.4,0.7,0.8,1.3,1.1,2c0,0,0.1,0.1,0.1,0.1c0.1,0.1,0.1,0.2,0.1,0.3
					c0.3,0.6,0.6,1.1,0.9,1.7c0,0.1,0.1,0.2,0.1,0.3c0,0.1,0.1,0.1,0.1,0.2c0.3,0.7,0.6,1.4,1,2.1c0,0,0,0,0,0.1
					c0,0.1,0.1,0.1,0.1,0.2c0.3,0.6,0.5,1.3,0.8,1.9c0,0.1,0.1,0.2,0.1,0.3c0,0.1,0.1,0.2,0.1,0.2c0.3,0.7,0.6,1.5,0.8,2.2
					c0,0,0,0,0,0c0,0,0,0.1,0,0.1c0.3,0.8,0.5,1.6,0.7,2.4c0,0.1,0.1,0.2,0.1,0.2c0,0,0,0.1,0,0.1c0.2,0.9,0.5,1.8,0.7,2.7
					c0,0.1,0,0.1,0.1,0.2c0,0.1,0,0.2,0.1,0.3c0.1,0.4,0.1,0.7,0.2,1.1c0,0.2,0.1,0.4,0.1,0.7c0.1,0.4,0.1,0.7,0.2,1.1
					c0,0.2,0.1,0.3,0.1,0.5c0,0,0,0.1,0,0.1c0.1,0.8,0.2,1.5,0.2,2.3c0,0.2,0,0.3,0,0.5c0,0.8,0.1,1.5,0.1,2.3L53.1,97.9
					c0-0.8,0-1.5-0.1-2.3c0-0.2,0-0.3,0-0.5C53,94.4,52.9,93.6,52.8,92.9z"/>
				<g>
					<path class="st34" d="M90.7,1.8c0.1,0,0.1-0.1,0.1-0.1c0.1,0,0.1-0.1,0.2-0.1c0.3-0.2,0.6-0.3,1-0.5c0.1,0,0.1-0.1,0.2-0.1
						c0.1,0,0.1,0,0.2-0.1c0.8-0.3,1.7-0.6,2.6-0.8c0,0,0.1,0,0.1,0c0.1,0,0.1,0,0.2,0c0.4-0.1,0.8-0.1,1.2-0.1c0.1,0,0.1,0,0.2,0
						c0,0,0,0,0.1,0c0.5,0,1,0,1.5,0c0.1,0,0.1,0,0.2,0c0.1,0,0.1,0,0.2,0c0.6,0,1.2,0.1,1.8,0.2c0,0,0,0,0,0
						c0.4,0.1,0.8,0.1,1.2,0.2c0.2,0,0.3,0.1,0.5,0.1c0.2,0.1,0.5,0.1,0.7,0.2c0,0,0,0,0.1,0c0.5,0.1,1,0.3,1.4,0.4
						c0.1,0,0.2,0.1,0.3,0.1c0.4,0.1,0.8,0.3,1.2,0.5c0,0,0.1,0,0.1,0.1c0.1,0,0.2,0.1,0.3,0.1c0.4,0.2,0.9,0.4,1.3,0.6
						c0.2,0.1,0.3,0.1,0.5,0.2c0.6,0.3,1.1,0.6,1.7,0.9c0.7,0.4,1.4,0.9,2.1,1.3c0.1,0.1,0.2,0.1,0.3,0.2c0.7,0.5,1.3,0.9,2,1.4
						c0.1,0.1,0.2,0.2,0.3,0.3c0.7,0.5,1.3,1.1,2,1.6c0,0,0.1,0.1,0.1,0.1c0.6,0.6,1.3,1.1,1.9,1.8c0.1,0,0.1,0.1,0.2,0.1
						c0,0,0.1,0.1,0.1,0.1c0.9,0.9,1.8,1.9,2.7,2.9c0,0,0.1,0.1,0.1,0.1c0,0,0.1,0.1,0.1,0.1c0.7,0.8,1.4,1.6,2,2.5c0,0,0,0,0,0
						c0,0,0.1,0.1,0.1,0.1c0.5,0.7,1.1,1.4,1.6,2.1c0,0,0.1,0.1,0.1,0.1c0,0,0,0,0,0.1c0.5,0.7,0.9,1.4,1.4,2.1
						c0,0.1,0.1,0.1,0.1,0.2c0.1,0.1,0.1,0.2,0.2,0.3c0.4,0.6,0.7,1.2,1.1,1.8c0,0.1,0.1,0.1,0.1,0.2c0,0,0,0.1,0,0.1
						c0.4,0.7,0.8,1.3,1.1,2c0,0,0.1,0.1,0.1,0.1c0.1,0.1,0.1,0.2,0.1,0.3c0.3,0.6,0.6,1.1,0.9,1.7c0,0.1,0.1,0.2,0.1,0.3
						c0,0.1,0.1,0.1,0.1,0.2c0.3,0.7,0.6,1.4,1,2.1c0,0,0,0,0,0.1c0,0.1,0.1,0.1,0.1,0.2c0.3,0.6,0.5,1.3,0.8,1.9
						c0,0.1,0.1,0.2,0.1,0.3c0,0.1,0.1,0.2,0.1,0.2c0.3,0.7,0.6,1.5,0.8,2.2c0,0,0,0,0,0c0,0,0,0.1,0,0.1c0.1,0.2,0.1,0.3,0.2,0.5
						c-0.2-0.4-0.3-0.8-0.5-1.2c0-0.1-0.1-0.1-0.1-0.2c0,0,0,0,0-0.1c-0.3-0.7-0.6-1.4-1-2.1c0-0.1-0.1-0.1-0.1-0.2
						c0-0.1-0.1-0.2-0.1-0.3c-0.3-0.6-0.6-1.1-0.9-1.7c-0.1-0.1-0.1-0.2-0.1-0.3c0,0-0.1-0.1-0.1-0.1c-0.4-0.7-0.7-1.4-1.1-2
						c0,0,0-0.1,0-0.1c0-0.1-0.1-0.1-0.1-0.2c-0.4-0.6-0.7-1.2-1.1-1.8c-0.1-0.1-0.1-0.2-0.2-0.3c0-0.1-0.1-0.1-0.1-0.2
						c-0.4-0.7-0.9-1.4-1.4-2.1c0,0,0,0,0-0.1c0-0.1-0.1-0.1-0.1-0.1c-0.5-0.7-1-1.4-1.6-2.1c0,0-0.1-0.1-0.1-0.1c0,0,0,0,0,0
						c-0.7-0.8-1.3-1.7-2-2.5c0,0-0.1-0.1-0.1-0.1c0,0-0.1-0.1-0.1-0.1c-0.9-1-1.8-2-2.7-2.9c0,0-0.1-0.1-0.1-0.1
						c0,0-0.1-0.1-0.2-0.1c-0.6-0.6-1.2-1.2-1.9-1.8c0,0-0.1-0.1-0.1-0.1c-0.6-0.6-1.3-1.1-2-1.6c-0.1-0.1-0.2-0.2-0.3-0.3
						c-0.7-0.5-1.3-1-2-1.4c-0.1-0.1-0.2-0.1-0.3-0.2c-0.7-0.5-1.4-0.9-2.1-1.3c-0.6-0.3-1.1-0.6-1.7-0.9c-0.2-0.1-0.3-0.2-0.5-0.2
						c-0.4-0.2-0.9-0.4-1.3-0.6c-0.1,0-0.2-0.1-0.3-0.1c0,0-0.1,0-0.1-0.1c-0.4-0.2-0.8-0.3-1.2-0.5c-0.1,0-0.2-0.1-0.3-0.1
						c-0.5-0.2-1-0.3-1.4-0.4c0,0,0,0-0.1,0c-0.2-0.1-0.5-0.1-0.7-0.2c-0.2,0-0.3-0.1-0.5-0.1c-0.4-0.1-0.8-0.2-1.2-0.2c0,0,0,0,0,0
						c-0.6-0.1-1.2-0.1-1.8-0.2c-0.1,0-0.1,0-0.2,0c-0.1,0-0.1,0-0.2,0c-0.5,0-1,0-1.5,0c0,0,0,0-0.1,0c-0.1,0-0.1,0-0.2,0
						c-0.4,0-0.8,0.1-1.2,0.1c-0.1,0-0.1,0-0.2,0c0,0-0.1,0-0.1,0c-0.9,0.2-1.8,0.4-2.6,0.8c-0.1,0-0.1,0-0.2,0.1
						c-0.1,0-0.1,0.1-0.2,0.1c-0.3,0.1-0.7,0.3-1,0.5c-0.1,0-0.1,0.1-0.2,0.1c-0.1,0-0.1,0.1-0.1,0.1c-24.6,14.3-49.3,28.6-73.9,43
						c-0.4-0.1-0.8-0.2-1.2-0.2c-0.6-0.1-1.2-0.1-1.8-0.2c-0.1,0-0.2,0-0.3,0c-0.5,0-1,0-1.5,0c-0.1,0-0.2,0-0.3,0
						c-0.4,0-0.8,0.1-1.2,0.1c-0.1,0-0.2,0-0.4,0.1c-0.5,0.1-0.9,0.2-1.3,0.3c0,0,0,0,0,0c-0.4,0.1-0.8,0.3-1.2,0.4
						c-0.1,0-0.2,0.1-0.3,0.1c-0.3,0.2-0.7,0.3-1,0.5c-0.1,0.1-0.2,0.1-0.3,0.2C35.2,34.1,62.9,17.9,90.7,1.8z"/>
				</g>
				<g>
					<path class="st35" d="M123.3,43.6c0-0.8,0-1.5-0.1-2.3c0-0.2,0-0.3,0-0.5c-0.1-0.8-0.1-1.5-0.2-2.3c0,0,0-0.1,0-0.1
						c0-0.2,0-0.3-0.1-0.5c-0.1-0.4-0.1-0.7-0.2-1.1c0-0.2-0.1-0.4-0.1-0.7c-0.1-0.4-0.1-0.7-0.2-1.1c0-0.1,0-0.2-0.1-0.3
						c0-0.1,0-0.1-0.1-0.2c-0.2-0.9-0.4-1.8-0.7-2.7c0,0,0-0.1,0-0.1c0-0.1-0.1-0.2-0.1-0.2c-0.2-0.8-0.5-1.6-0.7-2.4
						c0,0,0-0.1,0-0.1c0,0,0,0,0,0c-0.3-0.8-0.5-1.5-0.8-2.2c0-0.1-0.1-0.2-0.1-0.2c0-0.1-0.1-0.2-0.1-0.3c-0.2-0.6-0.5-1.3-0.8-1.9
						c0-0.1-0.1-0.1-0.1-0.2c0,0,0,0,0-0.1c-0.3-0.7-0.6-1.4-1-2.1c0-0.1-0.1-0.1-0.1-0.2c0-0.1-0.1-0.2-0.1-0.3
						c-0.3-0.6-0.6-1.1-0.9-1.7c-0.1-0.1-0.1-0.2-0.1-0.3c0,0-0.1-0.1-0.1-0.1c-0.4-0.7-0.7-1.4-1.1-2c0,0,0-0.1,0-0.1
						c0-0.1-0.1-0.1-0.1-0.2c-0.4-0.6-0.7-1.2-1.1-1.8c-0.1-0.1-0.1-0.2-0.2-0.3c0-0.1-0.1-0.1-0.1-0.2c-0.4-0.7-0.9-1.4-1.4-2.1
						c0,0,0,0,0-0.1c0-0.1-0.1-0.1-0.1-0.1c-0.5-0.7-1-1.4-1.6-2.1c0,0-0.1-0.1-0.1-0.1c0,0,0,0,0,0c-0.7-0.8-1.3-1.7-2-2.5
						c0,0-0.1-0.1-0.1-0.1c0,0-0.1-0.1-0.1-0.1c-0.9-1-1.8-2-2.7-2.9c0,0-0.1-0.1-0.1-0.1c-0.1,0-0.1-0.1-0.2-0.1
						c-0.6-0.6-1.2-1.2-1.9-1.8c0,0-0.1-0.1-0.1-0.1c-0.6-0.6-1.3-1.1-2-1.6c-0.1-0.1-0.2-0.2-0.3-0.3c-0.1-0.1-0.2-0.1-0.3-0.2
						c0.4,0.1,0.7,0.1,1.1,0.2c0.2,0,0.3,0.1,0.5,0.1c0.2,0.1,0.5,0.1,0.7,0.2c0,0,0,0,0.1,0c0.5,0.1,1,0.3,1.4,0.4
						c0.1,0,0.2,0.1,0.3,0.1c0.4,0.1,0.8,0.3,1.2,0.5c0.1,0,0.1,0,0.1,0.1c0.1,0,0.2,0.1,0.3,0.1c0.4,0.2,0.9,0.4,1.3,0.6
						c0.2,0.1,0.3,0.1,0.5,0.2c0.6,0.3,1.1,0.6,1.7,0.9c0.7,0.4,1.4,0.9,2.1,1.3c0.1,0.1,0.2,0.1,0.3,0.2c0.7,0.5,1.3,0.9,2,1.4
						c0.1,0.1,0.2,0.2,0.3,0.3c0.7,0.5,1.3,1.1,2,1.6c0,0,0.1,0.1,0.1,0.1c0.6,0.6,1.3,1.1,1.9,1.8c0,0,0.1,0.1,0.2,0.1
						c0,0,0.1,0.1,0.1,0.1c0.9,0.9,1.8,1.9,2.7,2.9c0,0,0.1,0.1,0.1,0.1c0,0,0.1,0.1,0.1,0.1c0.7,0.8,1.4,1.6,2,2.5c0,0,0,0,0,0
						c0,0,0.1,0.1,0.1,0.1c0.5,0.7,1.1,1.4,1.6,2.1c0,0,0.1,0.1,0.1,0.1c0,0,0,0,0,0.1c0.5,0.7,0.9,1.4,1.4,2.1
						c0,0.1,0.1,0.1,0.1,0.2c0.1,0.1,0.1,0.2,0.2,0.3c0.4,0.6,0.7,1.2,1.1,1.8c0,0.1,0.1,0.1,0.1,0.2c0,0,0,0,0,0.1
						c0.4,0.7,0.8,1.3,1.1,2c0,0,0.1,0.1,0.1,0.1c0.1,0.1,0.1,0.2,0.1,0.3c0.3,0.6,0.6,1.1,0.9,1.7c0,0.1,0.1,0.2,0.1,0.3
						c0,0.1,0.1,0.1,0.1,0.2c0.3,0.7,0.6,1.4,1,2.1c0,0,0,0,0,0.1c0,0.1,0.1,0.1,0.1,0.2c0.3,0.6,0.5,1.3,0.8,1.9
						c0,0.1,0.1,0.2,0.1,0.3c0,0.1,0.1,0.2,0.1,0.2c0.3,0.7,0.6,1.5,0.8,2.2c0,0,0,0,0,0c0,0,0,0.1,0,0.1c0.3,0.8,0.5,1.6,0.7,2.4
						c0,0.1,0.1,0.2,0.1,0.2c0,0,0,0.1,0,0.1c0.2,0.9,0.5,1.8,0.7,2.7c0,0.1,0,0.1,0.1,0.2c0,0.1,0,0.2,0.1,0.3
						c0.1,0.4,0.1,0.7,0.2,1.1c0,0.2,0.1,0.4,0.1,0.7c0.1,0.4,0.1,0.7,0.2,1.1c0,0.2,0.1,0.3,0.1,0.5c0,0,0,0.1,0,0.1
						c0.1,0.8,0.2,1.5,0.2,2.3c0,0.2,0,0.3,0,0.5c0,0.8,0.1,1.5,0.1,2.3L53.1,98.2c0-0.8,0-1.5-0.1-2.3c0-0.2,0-0.3,0-0.5
						c-0.1-0.7-0.1-1.5-0.2-2.3c0-0.2-0.1-0.4-0.1-0.7c0-0.3-0.1-0.7-0.2-1c0-0.3-0.1-0.5-0.1-0.8c-0.1-0.3-0.1-0.7-0.2-1
						c0-0.2-0.1-0.4-0.1-0.6c-0.2-0.9-0.4-1.8-0.6-2.6c0-0.1-0.1-0.3-0.1-0.4c0-0.2-0.1-0.3-0.2-0.5L123.3,43.6z"/>
				</g>
				<g>
					<path class="st36" d="M26.6,52.1C12,43.6,0,50.4,0,67.2l1.7,1c0-15.8,11.2-22.2,25-14.2c13.7,7.9,24.8,27.2,24.8,43l1.7,1
						C53.2,81.1,41.3,60.5,26.6,52.1z"/>
				</g>
			</g>
		</g>
	</g>
</g>
</svg>
