<?xml version="1.0" encoding="utf-8"?>
<!-- Generator: Adobe Illustrator 25.4.1, SVG Export Plug-In . SVG Version: 6.00 Build 0)  -->
<svg version="1.1" id="Layer_1" xmlns="http://www.w3.org/2000/svg" xmlns:xlink="http://www.w3.org/1999/xlink" x="0px" y="0px" viewBox="0 0 100 190.6" style="enable-background:new 0 0 100 190.6;" xml:space="preserve">
<style type="text/css">
	.st0{enable-background:new    ;}
	.st1{fill:#D2D2CE;}
	.st2{fill:url(#SVGID_1_);}
	.st3{opacity:0.5;fill:#EDECE8;enable-background:new    ;}
	.st4{fill:#B7B6B3;}
	.st5{fill:#373333;}
	.st6{fill:url(#SVGID_00000100352004619212929450000016454163981422920888_);}
	.st7{opacity:0.3;fill:#504B4B;enable-background:new    ;}
	.st8{fill:url(#SVGID_00000023996317060464660460000010946195328375803554_);}
	.st9{opacity:0.7;fill:#504B4B;enable-background:new    ;}
	.st10{fill:#8BC53F;}
	.st11{opacity:0.7;}
	.st12{fill:#504B4B;}
</style>
<g class="st0">
	<path class="st1" d="M100,31.7l-4.6,2.7v107.9c0,1.8-1.2,3.3-3.2,4.4l4.6-2.7c1.9-1.1,3.2-2.6,3.2-4.4V31.7z"/>
	
		<linearGradient id="SVGID_1_" gradientUnits="userSpaceOnUse" x1="76.6676" y1="192.0968" x2="96.2882" y2="158.1128" gradientTransform="matrix(1 0 0 -1 0 192)">
		<stop offset="0" style="stop-color:#EDECE8"/>
		<stop offset="1" style="stop-color:#E8E7E3"/>
	</linearGradient>
	<path class="st2" d="M98.7,27.4C96.4,22.2,91,14.6,85.8,8.6C82.4,4.7,79,1.4,76.5,0l-4.6,2.7c2.5,1.4,5.9,4.7,9.4,8.6
		c5.2,6,10.6,13.6,12.9,18.8c0.8,1.8,1.2,3.2,1.2,4.3l4.6-2.7C100,30.6,99.5,29.1,98.7,27.4z"/>
	<path class="st3" d="M85.8,8.6l-4.6,2.7c5.2,6,10.6,13.6,12.9,18.8l4.6-2.7C96.4,22.2,91.1,14.6,85.8,8.6z"/>
	<path class="st4" d="M95.4,34.4c0-6.5-15.9-27.3-23.5-31.7l-0.1,144.2c7.6,4.4,23.6,1.9,23.6-4.6V34.4z"/>
</g>
<g class="st0">
	<path class="st5" d="M26.9,74.2v106.3c0,1.7-1.2,3.1-3,4.2l67.2-39c1.8-1.1,3-2.5,3-4.2V35.2l-31.4,2.9L26.9,74.2z"/>
	
		<linearGradient id="SVGID_00000143606816614576984950000003888415297443827076_" gradientUnits="userSpaceOnUse" x1="40.6319" y1="168.7474" x2="59.2437" y2="136.5108" gradientTransform="matrix(1 0 0 -1 0 192)">
		<stop offset="0" style="stop-color:#4E4949"/>
		<stop offset="0.3669" style="stop-color:#4C4747"/>
		<stop offset="0.6764" style="stop-color:#464242"/>
		<stop offset="0.9643" style="stop-color:#3E3A3A"/>
		<stop offset="1" style="stop-color:#3C3939"/>
	</linearGradient>
	<path style="fill:url(#SVGID_00000143606816614576984950000003888415297443827076_);" d="M92.9,31c-2.2-5-7.2-12.1-12.2-17.7
		c-3.2-3.7-6.5-6.7-8.8-8.1l-67.2,39c2.4,1.4,5.6,4.4,8.8,8.1c5,5.6,10,12.8,12.2,17.7c0.7,1.7,1.2,3.1,1.2,4.1l67.2-39
		C94.1,34.1,93.7,32.7,92.9,31z"/>
	<path class="st7" d="M80.7,13.3l-67.2,39c5,5.6,10,12.8,12.2,17.7l67.2-39C90.7,26.1,85.7,19,80.7,13.3z"/>
</g>
<g class="st0">
	<path class="st1" d="M28.1,73.2l-4.6,2.7v107.9c0,1.8-1.2,3.3-3.2,4.4l4.6-2.7c1.9-1.1,3.2-2.6,3.2-4.4V73.2z"/>
	
		<linearGradient id="SVGID_00000124127032065460477050000012728510897823695260_" gradientUnits="userSpaceOnUse" x1="4.8211" y1="150.6276" x2="24.4418" y2="116.6437" gradientTransform="matrix(1 0 0 -1 0 192)">
		<stop offset="0" style="stop-color:#EDECE8"/>
		<stop offset="1" style="stop-color:#E8E7E3"/>
	</linearGradient>
	<path style="fill:url(#SVGID_00000124127032065460477050000012728510897823695260_);" d="M26.9,68.9C24.6,63.6,19.3,56,14,50.1
		c-3.4-3.9-6.8-7.2-9.4-8.6L0,44.2c2.5,1.4,5.9,4.7,9.4,8.6c5.2,6,10.6,13.6,12.9,18.8c0.8,1.8,1.2,3.2,1.2,4.3l4.6-2.7
		C28.1,72.1,27.7,70.6,26.9,68.9z"/>
	<path class="st3" d="M14,50.1l-4.6,2.7c5.2,6,10.6,13.6,12.9,18.8l4.6-2.7C24.6,63.6,19.3,56,14,50.1z"/>
	<path class="st4" d="M23.5,75.9c0-6.5-15.9-27.3-23.5-31.7v144.2c7.6,4.4,23.6,1.9,23.6-4.6L23.5,75.9z"/>
</g>
<path class="st9" d="M80.5,114.4l-2-2.2c-0.2-0.2-0.3-0.4-0.4-0.7c-0.4-0.8-1.2-2.9-1.5-4.5c-0.1-1-2-3.1-2.1-3.2
	c-1.2-1.1-4.7-1.7-5.2-1.8L67,92.5c-0.2-1-1.4-1.1-2.5-0.2l-13.1,10.4c-1.2,0.9-1.9,2.5-1.6,3.5l4.7,19.1c0.2,1,1.4,1.1,2.5,0.2
	l3.9-3.1c0,0.3,0,0.6,0.1,0.8c0.2,0.4,0.6,0.6,1.1,0.5c0.4-0.1,0.8-0.3,1.2-0.6c0.1-0.1,0.2-0.1,0.2-0.2c-0.3,0.7-0.4,1.4-0.1,1.9
	c0.2,0.4,0.6,0.6,1.1,0.5c0.4-0.1,0.8-0.3,1.2-0.6c0.1-0.1,0.2-0.2,0.3-0.3l1.6-1.6c2,1.3,3.8,2.4,4.7,3c0.2,0.2,0.6,0.1,0.9-0.2
	c0.1-0.1,0.3-0.2,0.4-0.4l6.6-9.1C80.7,115.4,80.8,114.7,80.5,114.4z M56.8,125.1c-0.9,0.7-1.8,0.7-2-0.1l-4.7-19.1
	c-0.2-0.8,0.4-2.1,1.3-2.8l13.1-10.4c0.9-0.7,1.8-0.7,2,0.1l4.5,18.5c0.2,0.7-0.3,1.8-1.1,2.7c-0.7,0.7-1.7,1.3-2.5,0.8
	c0,0-1.8-0.9-3.5-1.8c-0.9-0.5-2.3,0.4-3.1,1.4c-1,1.4-1.3,3.1-0.5,3.8c0.6,0.6,1.4,1.1,2.7,1.9L56.8,125.1z M62.2,123.2
	c-0.4,0.1-0.7-0.1-0.8-0.4c-0.1-0.2-0.1-0.5-0.1-0.8l2.2-1.8c0.4,0.3,0.9,0.5,1.3,0.8l-1.4,1.4C63.1,122.9,62.6,123.1,62.2,123.2z
	 M65.8,124c-0.4,0.4-0.8,0.6-1.2,0.7c-0.4,0.1-0.7-0.1-0.8-0.4c-0.3-0.6,0.1-1.8,0.9-2.6l0.5-0.5c0.2,0.1,0.4,0.2,0.6,0.4
	c0.5,0.3,1,0.6,1.5,0.9L65.8,124z M80,115.8l-6.6,9.1c-0.2,0.3-0.6,0.5-0.7,0.3c-1-0.7-3.8-2.5-6.5-4.1c-2.8-1.7-4.3-2.6-5.3-3.5
	c-0.7-0.6-0.5-2,0.4-3.2c0.2-0.3,0.4-0.5,0.7-0.7c0.6-0.5,1.2-0.7,1.8-0.4c1.7,0.9,3.5,1.8,3.5,1.8c0.9,0.6,2.2-0.1,3-1
	c1-1,1.5-2.4,1.3-3.3l-2-8.3c1.1,0.2,3.7,0.8,4.7,1.6c0,0,1.9,2.2,2,3.1c0.2,1.7,1.1,3.8,1.5,4.6c0.1,0.3,0.3,0.5,0.5,0.7l2,2.2
	C80.3,115.1,80.2,115.4,80,115.8z"/>
<g>
	<g>
		<path class="st10" d="M65.4,66.5c0,1.4-1.2,3.3-2.6,4.1c-1.4,0.8-2.6,0.3-2.6-1.1s1.2-3.3,2.6-4.1C64.2,64.6,65.4,65.1,65.4,66.5z
			"/>
		<path class="st10" d="M65.8,68.2c-0.1,1.8-2.3,3.6-4.4,2.3l-0.3-0.2c-0.3-0.2-0.5-0.7-0.5-1.3c0.1-1.3,1.1-2.8,2.3-3.4
			c0.6-0.3,1.1-0.3,1.5,0l0.3,0.2C65.4,66.3,65.8,67.2,65.8,68.2z"/>
	</g>
	<path class="st10" d="M71.1,67.3c0,3.9-3.2,7-7,7s-7-3.2-7-7s3.2-7,7-7C67.9,60.3,71.1,63.4,71.1,67.3z"/>
</g>
<g class="st11">
	<path class="st12" d="M55.2,90.1l-0.3,0.2c-3,2.3-5.9,5.3-7.9,8.8c-0.1,0.2,0.6,0.5,0.8,0.3c1.9-3.3,4.5-6.1,7.3-8.3l0.3-0.2
		c2.8-2.2,5.7-3.4,8.2-3.5c0.2,0,0.5-1,0.3-1C61.2,86.5,58.1,87.8,55.2,90.1z"/>
	<path class="st12" d="M55.7,93l-0.3,0.2c-2.3,1.8-4.3,4.1-6,6.8c-0.1,0.2,0.6,0.5,0.8,0.2c1.6-2.5,3.3-4.6,5.4-6.3l0.3-0.2
		c2.1-1.6,4.3-2.6,6.3-2.9c0.2,0,0.4-1,0.3-1C60.3,90.1,58,91.2,55.7,93z"/>
	<path class="st12" d="M65.1,83c-3.3,0.1-7,1.7-10.5,4.5l-0.2,0.2c-3.6,2.8-7.4,6.5-9.9,10.8c-0.1,0.2,0.7,0.6,0.8,0.3
		c2.4-4.2,5.8-7.7,9.2-10.3l0.2-0.2c3.4-2.6,6.9-4.1,10-4.2C65,84,65.2,83,65.1,83z"/>
</g>
</svg>
