<?xml version="1.0" encoding="utf-8"?>
<!-- Generator: Adobe Illustrator 25.4.1, SVG Export Plug-In . SVG Version: 6.00 Build 0)  -->
<svg version="1.1" xmlns="http://www.w3.org/2000/svg" xmlns:xlink="http://www.w3.org/1999/xlink" x="0px" y="0px" viewBox="0 0 100 190.6" style="enable-background:new 0 0 100 190.6;" xml:space="preserve">
<style type="text/css">
	.st0{enable-background:new    ;}
	.st1{fill:#D2D2CE;}
	.st2{fill:url(#SVGID_1_);}
	.st3{opacity:0.5;fill:#EDECE8;}
	.st4{fill:#B7B6B3;}
	.st5{fill:#373333;}
	.st6{fill:url(#SVGID_00000167356435930711974030000001498579511684562064_);}
	.st7{opacity:0.3;fill:#504B4B;}
	.st8{fill:url(#SVGID_00000055675962350641812290000001435589713597828511_);}
	.st9{opacity:0.7;fill:#504B4B;}
	.st10{opacity:0.7;}
	.st11{fill:#504B4B;}
	.st12{fill:#F9ED32;}
	.st13{fill:#8DC63F;}
</style>
<g id="Layer_1">
	<g class="st0">
		<path class="st1" d="M0,31.7l4.6,2.7l0,107.9c0,1.8,1.2,3.3,3.2,4.4L3.2,144c-1.9-1.1-3.2-2.6-3.2-4.4L0,31.7z"/>
		
			<linearGradient id="SVGID_1_" gradientUnits="userSpaceOnUse" x1="-152.8118" y1="-0.1154" x2="-133.197" y2="33.8584" gradientTransform="matrix(-1 0 0 1 -129.5014 0)">
			<stop offset="0" style="stop-color:#EDECE8"/>
			<stop offset="1" style="stop-color:#E8E7E3"/>
		</linearGradient>
		<path class="st2" d="M1.3,27.4c2.3-5.2,7.7-12.8,12.9-18.8C17.6,4.7,21,1.4,23.5,0l4.6,2.7c-2.5,1.4-5.9,4.7-9.4,8.6
			c-5.2,6-10.6,13.6-12.9,18.8c-0.8,1.8-1.2,3.2-1.2,4.3L0,31.7C0,30.6,0.5,29.1,1.3,27.4z"/>
		<path class="st3" d="M14.2,8.6l4.6,2.7c-5.2,6-10.6,13.6-12.9,18.8l-4.6-2.7C3.6,22.2,8.9,14.6,14.2,8.6z"/>
		<path class="st4" d="M4.6,34.4c0-6.5,15.9-27.3,23.5-31.7l0.1,144.2c-7.6,4.4-23.6,1.9-23.6-4.6L4.6,34.4z"/>
	</g>
	<g class="st0">
		<path class="st5" d="M73.1,74.2l0,106.3c0,1.7,1.2,3.1,3,4.2l-67.2-39c-1.8-1.1-3-2.5-3-4.2l0-106.3l31.4,2.9L73.1,74.2z"/>
		
			<linearGradient id="SVGID_00000155854338256439286020000009456030565087119258_" gradientUnits="userSpaceOnUse" x1="-188.8517" y1="23.2488" x2="-170.2399" y2="55.4854" gradientTransform="matrix(-1 0 0 1 -129.5014 0)">
			<stop offset="0" style="stop-color:#4E4949"/>
			<stop offset="0.3669" style="stop-color:#4C4747"/>
			<stop offset="0.6764" style="stop-color:#464242"/>
			<stop offset="0.9643" style="stop-color:#3E3A3A"/>
			<stop offset="1" style="stop-color:#3C3939"/>
		</linearGradient>
		<path style="fill:url(#SVGID_00000155854338256439286020000009456030565087119258_);" d="M7.1,31c2.2-5,7.2-12.1,12.2-17.7
			c3.2-3.7,6.5-6.7,8.8-8.1l67.2,39c-2.4,1.4-5.6,4.4-8.8,8.1c-5,5.6-10,12.8-12.2,17.7c-0.7,1.7-1.2,3.1-1.2,4.1l-67.2-39
			C5.9,34.1,6.3,32.7,7.1,31z"/>
		<path class="st7" d="M19.3,13.3l67.2,39c-5,5.6-10,12.8-12.2,17.7L7.1,31C9.3,26.1,14.3,19,19.3,13.3z"/>
	</g>
	<g class="st0">
		<path class="st1" d="M71.9,73.2l4.6,2.7l0,107.9c0,1.8,1.2,3.3,3.2,4.4l-4.6-2.7c-1.9-1.1-3.2-2.6-3.2-4.4L71.9,73.2z"/>
		
			<linearGradient id="SVGID_00000116936513408283622880000015075928008067425409_" gradientUnits="userSpaceOnUse" x1="-224.6366" y1="41.3529" x2="-205.0219" y2="75.3266" gradientTransform="matrix(-1 0 0 1 -129.5014 0)">
			<stop offset="0" style="stop-color:#EDECE8"/>
			<stop offset="1" style="stop-color:#E8E7E3"/>
		</linearGradient>
		<path style="fill:url(#SVGID_00000116936513408283622880000015075928008067425409_);" d="M73.1,68.9C75.4,63.6,80.7,56,86,50.1
			c3.4-3.9,6.8-7.2,9.4-8.6l4.6,2.7c-2.5,1.4-5.9,4.7-9.4,8.6c-5.2,6-10.6,13.6-12.9,18.8c-0.8,1.8-1.2,3.2-1.2,4.3l-4.6-2.7
			C71.9,72.1,72.3,70.6,73.1,68.9z"/>
		<path class="st3" d="M86,50.1l4.6,2.7c-5.2,6-10.6,13.6-12.9,18.8l-4.6-2.7C75.4,63.6,80.7,56,86,50.1z"/>
		<path class="st4" d="M76.5,75.9c0-6.5,15.9-27.3,23.5-31.7l0.1,144.2c-7.6,4.4-23.6,1.9-23.6-4.6L76.5,75.9z"/>
	</g>
	<path class="st9" d="M19.7,116l6.6,9.1c0.1,0.2,0.3,0.3,0.4,0.4c0.3,0.3,0.7,0.4,0.9,0.2c0.8-0.5,2.6-1.7,4.7-3l1.6,1.6
		c0.1,0.1,0.2,0.2,0.3,0.3c0.4,0.3,0.8,0.5,1.2,0.6c0.5,0.1,0.9-0.1,1.1-0.5c0.2-0.5,0.2-1.2-0.1-1.9c0.1,0.1,0.2,0.2,0.2,0.2
		c0.4,0.3,0.8,0.5,1.2,0.6c0.5,0.1,0.9-0.1,1.1-0.5c0.1-0.2,0.2-0.5,0.1-0.8l3.9,3.1c1.2,0.9,2.3,0.8,2.5-0.2l4.7-19.1
		c0.2-1-0.5-2.6-1.6-3.5L35.5,92.3c-1.2-0.9-2.3-0.8-2.5,0.2l-2.4,9.6c-0.5,0.1-4,0.7-5.2,1.8c-0.1,0.1-1.9,2.2-2.1,3.2
		c-0.2,1.6-1.1,3.7-1.5,4.5c-0.1,0.3-0.3,0.5-0.4,0.7l-2,2.2C19.2,114.7,19.3,115.4,19.7,116z M36.8,120.1c1.3-0.8,2.1-1.4,2.7-1.9
		c0.8-0.7,0.6-2.4-0.5-3.8c-0.8-1.1-2.1-1.9-3.1-1.4c-1.7,0.9-3.5,1.8-3.5,1.8c-0.8,0.5-1.8-0.1-2.5-0.8c-0.8-0.8-1.2-1.9-1.1-2.7
		l4.5-18.5c0.2-0.8,1.1-0.9,2-0.1l13.1,10.4c0.9,0.7,1.5,2,1.3,2.8L45.2,125c-0.2,0.8-1.1,0.9-2,0.1L36.8,120.1z M36.5,122.5
		l-1.4-1.4c0.5-0.3,0.9-0.6,1.3-0.8l2.2,1.8c0,0.3,0,0.6-0.1,0.8c-0.2,0.3-0.5,0.4-0.8,0.4C37.4,123.1,36.9,122.9,36.5,122.5z
		 M32.7,122.6c0.5-0.3,1-0.6,1.5-0.9c0.2-0.1,0.4-0.3,0.6-0.4c0,0,0.5,0.5,0.5,0.5c0.8,0.8,1.2,2,0.9,2.6c-0.2,0.3-0.5,0.4-0.8,0.4
		c-0.4-0.1-0.8-0.3-1.2-0.7L32.7,122.6z M19.9,114.9l2-2.2c0.2-0.2,0.3-0.4,0.5-0.7c0.4-0.8,1.3-2.9,1.5-4.6c0.1-1,2-3.1,2-3.1
		c1-0.9,3.6-1.5,4.7-1.6l-2,8.3c-0.2,0.9,0.3,2.2,1.3,3.3c0.8,0.9,2,1.6,3,1c0,0,1.8-0.9,3.5-1.8c0.5-0.3,1.2-0.1,1.8,0.4
		c0.3,0.2,0.5,0.5,0.7,0.7c0.9,1.2,1,2.6,0.4,3.2c-1,0.9-2.4,1.8-5.3,3.5c-2.7,1.6-5.4,3.4-6.5,4.1c-0.2,0.1-0.5,0-0.7-0.3l-6.6-9.1
		C19.8,115.4,19.7,115.1,19.9,114.9z"/>
	<g class="st10">
		<path class="st11" d="M44.8,90.1l0.3,0.2c3,2.3,5.9,5.3,7.9,8.8c0.1,0.2-0.6,0.5-0.8,0.3c-1.9-3.3-4.5-6.1-7.3-8.3l-0.3-0.2
			c-2.8-2.2-5.7-3.4-8.2-3.5c-0.2,0-0.5-1-0.3-1C38.8,86.5,41.9,87.8,44.8,90.1z"/>
		<path class="st11" d="M44.3,93l0.3,0.2c2.3,1.8,4.3,4.1,6,6.8c0.1,0.2-0.6,0.5-0.8,0.2c-1.6-2.5-3.3-4.6-5.4-6.3l-0.3-0.2
			c-2.1-1.6-4.3-2.6-6.3-2.9c-0.2,0-0.4-1-0.3-1C39.7,90.1,42,91.2,44.3,93z"/>
		<path class="st11" d="M34.9,83c3.3,0.1,7,1.7,10.5,4.5l0.2,0.2c3.6,2.8,7.4,6.5,9.9,10.8c0.1,0.2-0.7,0.6-0.8,0.3
			c-2.4-4.2-5.8-7.7-9.2-10.3l-0.2-0.2c-3.4-2.6-6.9-4.1-10-4.2C35,84,34.8,83,34.9,83z"/>
	</g>
</g>
<g id="Layer_2">
	<g>
		<path class="st12" d="M34.6,66.5c0,1.4,1.2,3.3,2.6,4.1c1.4,0.8,2.6,0.3,2.6-1.1c0-1.4-1.2-3.3-2.6-4.1
			C35.8,64.6,34.6,65.1,34.6,66.5z"/>
		<path class="st12" d="M34.2,68.2c0.1,1.8,2.3,3.6,4.4,2.3l0.3-0.2c0.3-0.2,0.5-0.7,0.5-1.3c-0.1-1.3-1.1-2.8-2.3-3.4
			c-0.6-0.3-1.1-0.3-1.5,0l-0.3,0.2C34.6,66.3,34.2,67.2,34.2,68.2z"/>
	</g>
	<path class="st13" d="M28.9,67.3c0,3.9,3.2,7,7,7s7-3.2,7-7s-3.2-7-7-7S28.9,63.4,28.9,67.3z"/>
</g>
</svg>
