<?xml version="1.0" encoding="utf-8"?>
<!-- Generator: Adobe Illustrator 25.4.1, SVG Export Plug-In . SVG Version: 6.00 Build 0)  -->
<svg version="1.1" id="Layer_1" xmlns="http://www.w3.org/2000/svg" xmlns:xlink="http://www.w3.org/1999/xlink" x="0px" y="0px" viewBox="0 0 200 130.6" style="enable-background:new 0 0 200 130.6;" xml:space="preserve">
<style type="text/css">
	.st0{enable-background:new    ;}
	.st1{fill:#706F6F;}
	.st2{fill:#BBBBBB;}
	.st3{fill:#C7C4C4;}
	.st4{fill:#B3B1B2;}
	.st5{fill:#989898;}
	.st6{fill:#969393;}
	.st7{fill:#787878;}
	.st8{fill:#5D5B5B;}
	.st9{fill:#5E5F5F;}
	.st10{clip-path:url(#SVGID_00000084494521409551577160000013795046953124503215_);fill:#BBBBBB;}
	.st11{fill:#3F3D3E;}
	.st12{fill:#8C888A;}
	.st13{fill:#7B7679;}
	.st14{fill:#C7C1C4;}
	.st15{fill:#6D6E6E;}
	.st16{fill:#646262;}
	.st17{fill:#828182;}
	.st18{fill:#7F8080;}
	.st19{fill:#646363;}
	.st20{fill:#291B1B;}
	.st21{fill:#1F2C33;}
	.st22{fill:#1D374F;}
	.st23{fill:#162C3D;}
	.st24{fill:#34302F;}
	.st25{fill:#1A1718;}
	.st26{fill:#615B5B;}
	.st27{fill:#4A4444;}
	.st28{fill:#1E1B1B;}
	.st29{fill:#070707;}
	.st30{fill:#E4ECF2;}
	.st31{fill:#BDBFC1;}
	.st32{opacity:0.7;}
	.st33{fill:#44555E;}
	.st34{fill:#677880;}
	.st35{fill:#313E45;}
	.st36{fill:#67808D;}
</style>
<g>
	<g>
		<g>
			<g class="st0">
				<path class="st1" d="M2.9,90.1C3,89.3,3,88.4,3.2,87.5c0-0.3,0.1-0.5,0.1-0.8c0.1-0.4,0.1-0.8,0.2-1.2c0-0.3,0.1-0.6,0.2-0.9
					c0.1-0.4,0.1-0.8,0.2-1.2c0-0.2,0.1-0.5,0.1-0.7c0.2-1,0.5-2.1,0.8-3.1c0-0.2,0.1-0.4,0.2-0.5c0.3-0.9,0.5-1.8,0.8-2.7
					c0-0.1,0-0.1,0.1-0.2c0.3-0.9,0.6-1.7,0.9-2.6c0.1-0.2,0.2-0.5,0.3-0.7c0.3-0.7,0.6-1.4,0.9-2.1C7.9,70.6,8,70.5,8,70.3
					c0.4-0.8,0.7-1.6,1.1-2.4c0.1-0.2,0.2-0.4,0.3-0.6c0.3-0.6,0.6-1.3,1-1.9c0.1-0.2,0.2-0.4,0.3-0.6c0.4-0.8,0.8-1.6,1.3-2.3
					c0.1-0.2,0.2-0.3,0.3-0.5c0.4-0.7,0.8-1.3,1.2-2c0.1-0.2,0.2-0.4,0.4-0.6c0.5-0.8,1-1.6,1.6-2.4c0.1-0.1,0.2-0.2,0.2-0.3
					c0.6-0.8,1.2-1.6,1.8-2.4c0.1-0.1,0.1-0.2,0.2-0.3c0.7-1,1.5-1.9,2.3-2.8c0.1-0.1,0.2-0.2,0.3-0.4c0.5-0.5,1-1.1,1.5-1.6
					c0,0,0.1-0.1,0.1-0.1c0.5-0.6,1.1-1.1,1.6-1.6c0.1-0.1,0.2-0.2,0.4-0.4c0.7-0.7,1.4-1.3,2.1-2c0.1-0.1,0.1-0.1,0.2-0.2
					c0.8-0.7,1.5-1.3,2.3-1.9c0.1-0.1,0.3-0.2,0.4-0.3c0.8-0.6,1.5-1.1,2.3-1.7c0.1-0.1,0.3-0.2,0.4-0.3c0.8-0.5,1.6-1.1,2.5-1.5
					c0.7-0.4,1.3-0.7,2-1.1c0.2-0.1,0.4-0.2,0.6-0.3c0.5-0.2,1-0.5,1.5-0.7c0.2-0.1,0.3-0.1,0.5-0.2c0.5-0.2,0.9-0.4,1.4-0.5
					c0.1,0,0.2-0.1,0.3-0.1c0.6-0.2,1.1-0.4,1.7-0.5c0.3-0.1,0.6-0.2,0.9-0.2c0.2,0,0.3-0.1,0.5-0.1c0.5-0.1,0.9-0.2,1.4-0.3
					c0,0,0,0,0,0c0.4-0.1,0.9-0.1,1.3-0.2c0.1,0,0.3,0,0.4,0c0.3,0,0.5,0,0.8,0c0.6,0,1.2,0,1.8,0c0.1,0,0.2,0,0.3,0
					c0.5,0,1,0.1,1.4,0.2c0.2,0,0.3,0,0.5,0.1c0.5,0.1,1,0.2,1.6,0.4c0,0,0,0,0.1,0c0.5,0.1,1,0.3,1.4,0.5c0.1,0.1,0.3,0.1,0.4,0.2
					c0.4,0.2,0.8,0.4,1.1,0.6c0.1,0.1,0.3,0.1,0.4,0.2c-0.9-0.5-1.9-1.1-2.8-1.6c-0.1,0-0.1-0.1-0.2-0.1c-0.1,0-0.1-0.1-0.2-0.1
					c-0.4-0.2-0.8-0.4-1.2-0.6c-0.1,0-0.1-0.1-0.2-0.1c-0.1,0-0.1,0-0.2-0.1c-0.5-0.2-0.9-0.4-1.4-0.5c0,0,0,0,0,0c0,0,0,0,0,0
					c-0.5-0.1-1-0.3-1.6-0.4c-0.1,0-0.1,0-0.2,0c-0.1,0-0.2,0-0.2,0c-0.5-0.1-1-0.1-1.4-0.2c-0.1,0-0.1,0-0.2,0l0,0c0,0-0.1,0-0.1,0
					c-0.6,0-1.2,0-1.8,0c-0.1,0-0.1,0-0.2,0c-0.2,0-0.4,0-0.6,0c-0.1,0-0.3,0-0.4,0c-0.4,0-0.8,0.1-1.2,0.1c-0.1,0-0.1,0-0.2,0
					c-0.4,0.1-0.9,0.2-1.3,0.3c-0.1,0-0.3,0.1-0.4,0.1c-0.3,0.1-0.6,0.1-0.9,0.2c0,0-0.1,0-0.1,0c-0.6,0.2-1.1,0.3-1.7,0.5
					c-0.1,0-0.2,0.1-0.3,0.1c-0.5,0.2-0.9,0.3-1.4,0.5c-0.1,0-0.1,0-0.2,0.1c-0.1,0-0.2,0.1-0.3,0.2c-0.5,0.2-1,0.4-1.5,0.7
					c-0.2,0.1-0.4,0.2-0.5,0.3c-0.7,0.3-1.3,0.7-2,1.1c-0.8,0.5-1.7,1-2.5,1.5c-0.1,0.1-0.3,0.2-0.4,0.3c-0.8,0.5-1.5,1.1-2.3,1.7
					c-0.1,0.1-0.3,0.2-0.4,0.3c-0.8,0.6-1.5,1.2-2.3,1.9c-0.1,0.1-0.1,0.1-0.2,0.2c-0.7,0.6-1.5,1.3-2.2,2c-0.1,0.1-0.1,0.1-0.2,0.2
					c0,0-0.1,0.1-0.1,0.1c-0.5,0.5-1.1,1.1-1.6,1.6c0,0,0,0,0,0c-0.5,0.6-1,1.1-1.5,1.7c0,0-0.1,0.1-0.1,0.1
					c-0.1,0.1-0.1,0.1-0.2,0.2c-0.8,0.9-1.6,1.9-2.3,2.8c0,0,0,0-0.1,0.1c-0.1,0.1-0.1,0.1-0.2,0.2c-0.6,0.8-1.2,1.6-1.8,2.4
					c-0.1,0.1-0.1,0.1-0.2,0.2c0,0,0,0.1-0.1,0.1c-0.5,0.8-1.1,1.6-1.6,2.4c-0.1,0.1-0.1,0.2-0.2,0.2c-0.1,0.1-0.1,0.2-0.2,0.4
					c-0.4,0.7-0.8,1.3-1.2,2c-0.1,0.1-0.1,0.2-0.2,0.3c0,0,0,0.1-0.1,0.1c-0.4,0.8-0.9,1.6-1.3,2.3c0,0.1-0.1,0.1-0.1,0.2
					c-0.1,0.1-0.1,0.2-0.2,0.4c-0.3,0.6-0.6,1.3-1,1.9c-0.1,0.1-0.1,0.3-0.2,0.4c0,0.1-0.1,0.2-0.1,0.2c-0.4,0.8-0.7,1.6-1.1,2.4
					c0,0,0,0.1,0,0.1c0,0.1-0.1,0.2-0.1,0.3c-0.3,0.7-0.6,1.4-0.9,2.1c0,0.1-0.1,0.3-0.2,0.4c0,0.1-0.1,0.2-0.1,0.3
					c-0.3,0.9-0.6,1.7-0.9,2.6c0,0,0,0,0,0.1c0,0.1,0,0.1-0.1,0.2c-0.3,0.9-0.6,1.8-0.8,2.6c0,0.1-0.1,0.2-0.1,0.4
					c0,0.1,0,0.1,0,0.2c-0.3,1-0.5,2.1-0.8,3.1c0,0.1,0,0.2-0.1,0.3c0,0.1-0.1,0.3-0.1,0.4C1,82.2,0.9,82.6,0.8,83
					c-0.1,0.3-0.1,0.6-0.2,0.9c-0.1,0.4-0.1,0.8-0.2,1.3c0,0.2-0.1,0.4-0.1,0.6c0,0.1,0,0.1,0,0.2c-0.1,0.9-0.2,1.8-0.3,2.7
					c0,0.2,0,0.4,0,0.6C0,90,0,90.9,0,91.8c0,3.7,0.5,7,1.4,9.8c1.5,4.7,4.2,8.2,7.7,10.3c0.4,0.2,0.8,0.5,1.3,0.7
					c0.5,0.3,0.9,0.5,1.4,0.8c0,0,0.1,0,0.1,0.1c0,0,0,0,0,0l0,0c-3.5-2-6.2-5.5-7.7-10.3c-0.9-2.8-1.4-6.1-1.4-9.8
					c0-0.9,0-1.8,0.1-2.7C2.9,90.5,2.9,90.3,2.9,90.1z"/>
				<g>
					<path class="st2" d="M34,39.4c17.3-10,31.4-2,31.4,17.9c0.1,19.9-13.9,44.1-31.2,54.1c-17.3,10-31.4,2-31.4-17.9
						C2.7,73.6,16.7,49.4,34,39.4z"/>
				</g>
			</g>
		</g>
		<g>
			<g class="st0">
				<path class="st1" d="M45.4,54.5c0.1,0,0.2-0.1,0.4-0.2c0.3-0.1,0.7-0.3,1-0.4c0.1,0,0.1-0.1,0.2-0.1c0.4-0.1,0.8-0.3,1.2-0.4
					c0.1,0,0.1,0,0.2,0c0.6-0.2,1.2-0.3,1.8-0.4c0.5-0.1,1-0.1,1.5-0.1c0.1,0,0.2,0,0.3,0c0.4,0,0.9,0,1.3,0c0.1,0,0.1,0,0.2,0
					c0.3,0,0.7,0.1,1,0.1c0.1,0,0.2,0,0.3,0c0.4,0.1,0.7,0.2,1.1,0.3c0,0,0,0,0,0c0.3,0.1,0.7,0.2,1,0.4c0.1,0,0.2,0.1,0.3,0.1
					c0.3,0.1,0.5,0.2,0.8,0.4c0.1,0.1,0.2,0.1,0.3,0.1l-8.3-4.8c0,0-0.1,0-0.1-0.1c0,0-0.1,0-0.1-0.1c-0.3-0.1-0.5-0.3-0.8-0.4
					c0,0-0.1-0.1-0.1-0.1c0,0-0.1,0-0.1,0c-0.3-0.1-0.6-0.2-1-0.3c0,0,0,0-0.1,0c0,0,0,0,0,0c-0.4-0.1-0.7-0.2-1.1-0.3
					c0,0-0.1,0-0.1,0c-0.1,0-0.1,0-0.2,0c-0.3-0.1-0.7-0.1-1-0.1c-0.1,0-0.1,0-0.2,0c0,0,0,0-0.1,0c-0.4,0-0.8,0-1.3,0
					c0,0-0.1,0-0.1,0c-0.1,0-0.1,0-0.2,0c-0.5,0-1,0.1-1.4,0.1c0,0,0,0,0,0c0,0,0,0,0,0c-0.6,0.1-1.2,0.2-1.8,0.4c0,0-0.1,0-0.1,0
					c0,0,0,0-0.1,0c-0.4,0.1-0.8,0.2-1.2,0.4c-0.1,0-0.2,0.1-0.3,0.1c-0.3,0.1-0.6,0.2-1,0.4c0,0-0.1,0-0.1,0.1
					c-0.1,0-0.2,0.1-0.3,0.1c-0.3,0.1-0.7,0.3-1,0.5c-0.1,0.1-0.3,0.1-0.4,0.2c-0.5,0.2-0.9,0.5-1.4,0.7c-0.7,0.4-1.4,0.9-2.1,1.3
					c-0.2,0.2-0.4,0.3-0.7,0.5c-0.5,0.3-0.9,0.7-1.4,1c-0.3,0.2-0.5,0.4-0.7,0.6c-0.4,0.4-0.8,0.7-1.2,1.1c-0.2,0.2-0.5,0.5-0.7,0.7
					c-0.2,0.1-0.3,0.3-0.5,0.4c-0.2,0.2-0.3,0.3-0.5,0.5c-0.5,0.5-1,1-1.4,1.5c-0.2,0.2-0.3,0.3-0.5,0.5c-0.1,0.1-0.2,0.3-0.4,0.5
					c-0.3,0.3-0.6,0.7-0.8,1c-0.2,0.2-0.4,0.5-0.6,0.7c-0.1,0.2-0.3,0.4-0.4,0.6c-0.2,0.3-0.4,0.5-0.6,0.8c-0.1,0.2-0.3,0.4-0.4,0.6
					c-0.2,0.3-0.4,0.7-0.7,1c-0.1,0.2-0.3,0.4-0.4,0.6c-0.1,0.1-0.1,0.2-0.2,0.3c-0.4,0.6-0.8,1.2-1.1,1.9c0,0,0,0.1-0.1,0.1
					c-0.1,0.1-0.2,0.3-0.2,0.4c-0.2,0.4-0.5,0.9-0.7,1.3c-0.1,0.2-0.2,0.4-0.3,0.6c-0.1,0.2-0.2,0.4-0.3,0.7
					c-0.1,0.2-0.2,0.4-0.3,0.6c-0.2,0.5-0.5,1-0.7,1.5c0,0.1-0.1,0.2-0.1,0.3c0,0,0,0,0,0.1c-0.3,0.7-0.6,1.3-0.8,2
					c0,0.1-0.1,0.2-0.1,0.4c-0.1,0.2-0.2,0.5-0.3,0.7c-0.1,0.3-0.2,0.7-0.4,1c-0.1,0.3-0.2,0.5-0.2,0.8c-0.1,0.3-0.2,0.6-0.3,0.9
					c-0.1,0.2-0.1,0.4-0.2,0.6c-0.1,0.3-0.2,0.7-0.2,1c-0.1,0.4-0.2,0.8-0.3,1.1c0,0.1-0.1,0.3-0.1,0.4c-0.1,0.6-0.2,1.2-0.3,1.8
					c0,0.1,0,0.3-0.1,0.4c0,0.3-0.1,0.5-0.1,0.8c0,0.4-0.1,0.7-0.1,1.1c0,0.3-0.1,0.5-0.1,0.8c-0.1,0.8-0.1,1.6-0.1,2.4
					c0,6.9,2.5,11.8,6.4,14.1l8.3,4.8c-3.9-2.3-6.4-7.2-6.4-14.1c0-0.8,0-1.6,0.1-2.4c0-0.3,0.1-0.5,0.1-0.8
					c0.1-0.6,0.1-1.3,0.2-1.9c0-0.1,0-0.3,0.1-0.4c0.1-0.7,0.3-1.5,0.4-2.2c0.1-0.4,0.2-0.7,0.3-1.1c0.1-0.5,0.3-1,0.4-1.6
					c0.1-0.3,0.2-0.6,0.3-0.9c0.2-0.6,0.4-1.2,0.6-1.7c0.1-0.2,0.2-0.5,0.3-0.7c0.3-0.8,0.6-1.6,1-2.4c0-0.1,0.1-0.2,0.1-0.3
					c0.3-0.7,0.7-1.4,1-2.1c0.1-0.2,0.2-0.4,0.3-0.7c0.3-0.7,0.7-1.3,1.1-2c0.1-0.1,0.1-0.3,0.2-0.4c0.4-0.8,0.9-1.5,1.4-2.2
					c0.1-0.2,0.3-0.4,0.4-0.6c0.4-0.5,0.7-1,1.1-1.6c0.2-0.3,0.4-0.6,0.6-0.8c0.3-0.4,0.7-0.8,1-1.3c0.3-0.4,0.6-0.7,0.9-1.1
					c0.5-0.6,1-1.2,1.5-1.8c0,0,0,0,0,0c0.5-0.6,1.1-1.1,1.7-1.6c0.2-0.2,0.5-0.5,0.7-0.7c0.4-0.4,0.8-0.7,1.2-1.1
					c0.3-0.2,0.5-0.4,0.8-0.6c0.5-0.4,0.9-0.7,1.4-1c0.2-0.2,0.4-0.3,0.7-0.5c0.7-0.5,1.4-0.9,2.1-1.3c0.5-0.3,0.9-0.5,1.4-0.8
					c0.1-0.1,0.3-0.1,0.4-0.2C44.6,54.8,45,54.6,45.4,54.5z"/>
				<g>
					<path class="st3" d="M42.5,55.9c12.1-7,22-1.4,22,12.5c0,13.9-9.8,30.9-21.9,37.9c-12.1,7-22,1.4-22-12.6
						C20.6,79.9,30.4,62.9,42.5,55.9z"/>
				</g>
				<g>
					<path class="st4" d="M42.7,58.7c11-6.3,19.9-1.2,20,11.4c0,12.6-8.9,28-19.9,34.4c-11,6.4-19.9,1.2-20-11.4
						C22.8,80.5,31.7,65.1,42.7,58.7z"/>
				</g>
				<path class="st5" d="M60.4,60.7c1.1,2.2,1.6,4.9,1.6,8.1c0,12.6-8.9,28-19.9,34.4c-7.6,4.4-14.3,3.3-17.6-2
					c3.1,6.4,10.1,8,18.3,3.3c11-6.3,19.9-21.7,19.9-34.4C62.7,66.2,61.9,63.1,60.4,60.7z"/>
				<g>
					<path class="st1" d="M41.3,72.9c3.5-2,6.4-0.4,6.4,3.7c0,4.1-2.8,9-6.4,11c-3.5,2-6.4,0.4-6.4-3.7C35,79.9,37.8,75,41.3,72.9z"/>
				</g>
			</g>
		</g>
		<g>
			<g class="st0">
				<path class="st6" d="M81.6,107.9c0.1-0.4,0.2-0.8,0.3-1.2c0,0,0-0.1,0-0.1c0.3-0.9,0.6-1.7,1.1-2.5c0,0,0,0,0,0
					c0.2-0.4,0.5-0.8,0.7-1.1c0,0,0.1-0.1,0.1-0.1c0.2-0.3,0.5-0.6,0.8-0.9c0.1-0.1,0.1-0.1,0.2-0.2c0.2-0.2,0.4-0.4,0.7-0.6
					c0.1-0.1,0.2-0.2,0.3-0.3c0.3-0.3,0.7-0.5,1-0.7c0.2-0.1,0.4-0.2,0.7-0.3c0.1,0,0.1-0.1,0.2-0.1c0.1,0,0.3-0.1,0.4-0.1
					c0.1,0,0.2,0,0.2-0.1c0.1,0,0.1,0,0.2,0c0.1,0,0.2,0,0.3,0c0.1,0,0.1,0,0.2,0c0.1,0,0.2,0,0.3,0c0,0,0,0,0.1,0
					c0.1,0,0.3,0,0.4,0c0,0,0.1,0,0.1,0c0.1,0,0.2,0.1,0.3,0.1c0,0,0.1,0,0.1,0c0.1,0,0.2,0.1,0.3,0.2L46.1,73.9c0,0,0,0,0,0
					c-0.1,0-0.2-0.1-0.3-0.1c0,0,0,0,0,0c0,0-0.1,0-0.1,0c0,0-0.1,0-0.1,0c0,0-0.1,0-0.2,0c0,0-0.1,0-0.1,0c0,0,0,0-0.1,0
					c-0.1,0-0.2,0-0.3,0c0,0,0,0,0,0c0,0-0.1,0-0.1,0c-0.1,0-0.2,0-0.3,0c0,0-0.1,0-0.1,0c0,0-0.1,0-0.1,0c-0.1,0-0.1,0-0.2,0
					c0,0-0.1,0-0.1,0c-0.1,0-0.1,0-0.2,0c0,0-0.1,0-0.1,0c0,0-0.1,0-0.1,0c-0.1,0-0.2,0.1-0.4,0.1c0,0-0.1,0-0.1,0c0,0-0.1,0-0.1,0
					c-0.2,0.1-0.4,0.2-0.7,0.3c-0.3,0.2-0.7,0.4-1,0.7c-0.1,0.1-0.2,0.2-0.3,0.3c-0.2,0.1-0.3,0.3-0.5,0.4c-0.1,0.1-0.1,0.1-0.2,0.2
					c-0.1,0.1-0.1,0.1-0.2,0.2c-0.1,0.1-0.1,0.1-0.2,0.2c-0.1,0.2-0.3,0.3-0.4,0.5c0,0.1-0.1,0.1-0.1,0.2c0,0-0.1,0.1-0.1,0.1
					c0,0.1-0.1,0.1-0.1,0.2c-0.1,0.2-0.2,0.3-0.3,0.5c-0.1,0.1-0.2,0.3-0.3,0.5c0,0,0,0,0,0c0,0,0,0,0,0c-0.1,0.1-0.1,0.2-0.2,0.4
					c-0.1,0.1-0.2,0.3-0.2,0.5c-0.1,0.1-0.1,0.3-0.2,0.4c0,0,0,0,0,0.1c0,0,0,0,0,0c-0.1,0.2-0.1,0.3-0.2,0.5
					c-0.1,0.2-0.1,0.3-0.2,0.5c0,0.1-0.1,0.2-0.1,0.3c0,0,0,0.1,0,0.1c0,0.1,0,0.1-0.1,0.2c-0.1,0.2-0.1,0.4-0.1,0.6
					c0,0.1,0,0.2-0.1,0.4c0,0.1,0,0.1,0,0.2c0,0.1,0,0.1,0,0.2c0,0.4-0.1,0.7-0.1,1c0,1.7,0.6,2.9,1.6,3.4L83,112.7
					c-1-0.6-1.5-1.7-1.6-3.4c0-0.4,0-0.8,0.1-1.2C81.6,108,81.6,108,81.6,107.9z"/>
				<g>
					<path class="st7" d="M81.4,109.3c0-0.2,0-0.4,0-0.6L41.8,85.6c-1-0.6-1.5-1.7-1.6-3.4c0-0.3,0-0.7,0.1-1c0-0.1,0-0.1,0-0.2
						c0-0.1,0-0.1,0-0.2c0-0.1,0-0.2,0.1-0.4c0-0.2,0.1-0.4,0.1-0.6c0-0.1,0-0.1,0.1-0.2c0,0,0-0.1,0-0.1c0-0.1,0-0.2,0.1-0.3
						c0.1-0.2,0.1-0.3,0.2-0.5c0.1-0.2,0.1-0.3,0.2-0.5c0,0,0,0,0,0c0,0,0,0,0-0.1c0.1-0.1,0.1-0.3,0.2-0.4c0.1-0.2,0.1-0.3,0.2-0.5
						c0.1-0.1,0.1-0.3,0.2-0.4c0,0,0,0,0,0c0,0,0,0,0,0c0.1-0.2,0.2-0.3,0.3-0.4c0.1-0.2,0.2-0.3,0.3-0.5c0-0.1,0.1-0.1,0.1-0.2
						c0,0,0.1-0.1,0.1-0.1c0-0.1,0.1-0.1,0.1-0.2c0.1-0.2,0.3-0.4,0.4-0.5c0.1-0.1,0.1-0.1,0.2-0.2c0.1-0.1,0.1-0.1,0.2-0.2
						c0.1-0.1,0.1-0.1,0.2-0.2c0.2-0.1,0.3-0.3,0.5-0.4c0.1-0.1,0.2-0.2,0.3-0.3c0.1-0.1,0.1-0.1,0.2-0.2c-0.1,0-0.1,0-0.2,0
						c0,0-0.1,0-0.1,0c0,0-0.1,0-0.1,0c-0.1,0-0.1,0-0.2,0c0,0-0.1,0-0.1,0c-0.1,0-0.1,0-0.2,0c0,0-0.1,0-0.1,0c0,0-0.1,0-0.1,0
						c-0.1,0-0.2,0.1-0.4,0.1c0,0-0.1,0-0.1,0c0,0-0.1,0-0.1,0c-0.2,0.1-0.4,0.2-0.7,0.3c-0.3,0.2-0.7,0.4-1,0.7
						c-0.1,0.1-0.2,0.2-0.3,0.3c-0.2,0.1-0.3,0.3-0.5,0.4c-0.1,0.1-0.1,0.1-0.2,0.2c-0.1,0.1-0.1,0.1-0.2,0.2
						c-0.1,0.1-0.1,0.1-0.2,0.2c-0.1,0.2-0.3,0.3-0.4,0.5c0,0.1-0.1,0.1-0.1,0.2c0,0-0.1,0.1-0.1,0.1c0,0.1-0.1,0.1-0.1,0.2
						c-0.1,0.2-0.2,0.3-0.3,0.5c-0.1,0.1-0.2,0.3-0.3,0.5c0,0,0,0,0,0c0,0,0,0,0,0c-0.1,0.1-0.1,0.2-0.2,0.4
						c-0.1,0.1-0.2,0.3-0.2,0.5c-0.1,0.1-0.1,0.3-0.2,0.4c0,0,0,0,0,0.1c0,0,0,0,0,0c-0.1,0.2-0.1,0.3-0.2,0.5
						c-0.1,0.2-0.1,0.3-0.2,0.5c0,0.1-0.1,0.2-0.1,0.3c0,0,0,0.1,0,0.1c0,0.1,0,0.1-0.1,0.2c-0.1,0.2-0.1,0.4-0.1,0.6
						c0,0.1,0,0.2-0.1,0.4c0,0.1,0,0.1,0,0.2c0,0.1,0,0.1,0,0.2c0,0.4-0.1,0.7-0.1,1c0,1.7,0.6,2.9,1.6,3.4L83,112.7
						C82,112.2,81.5,111,81.4,109.3z"/>
				</g>
				<g>
					<path class="st8" d="M86.7,100.1c2.9-1.7,5.3-0.3,5.3,3c0,3.4-2.4,7.5-5.3,9.2c-2.9,1.7-5.3,0.3-5.3-3
						C81.4,105.9,83.8,101.8,86.7,100.1z"/>
				</g>
			</g>
		</g>
		<g>
			<g class="st0">
				<path class="st1" d="M82.8,117.3c0-0.3,0.1-0.6,0.1-0.9c0-0.3,0.1-0.7,0.2-1c0-0.2,0.1-0.5,0.1-0.7c0-0.2,0.1-0.4,0.2-0.7
					c0.1-0.3,0.2-0.6,0.2-0.9c0.1-0.2,0.1-0.4,0.2-0.5c0.1-0.3,0.2-0.7,0.3-1c0.1-0.1,0.1-0.3,0.2-0.4c0.2-0.5,0.4-0.9,0.6-1.4
					c0-0.1,0.1-0.1,0.1-0.2c0.2-0.4,0.4-0.8,0.6-1.2c0.1-0.2,0.2-0.3,0.2-0.5c0.2-0.4,0.4-0.8,0.6-1.1c0-0.1,0.1-0.2,0.1-0.2
					c0.3-0.4,0.5-0.9,0.8-1.3c0.1-0.1,0.2-0.3,0.3-0.4c0.2-0.3,0.4-0.6,0.6-0.9c0.1-0.2,0.3-0.4,0.4-0.5c0.2-0.2,0.4-0.5,0.6-0.7
					c0.2-0.2,0.3-0.4,0.5-0.6c0.2-0.2,0.3-0.4,0.5-0.6c0.3-0.3,0.6-0.6,0.9-0.9c0.2-0.2,0.4-0.4,0.6-0.6c0.1-0.1,0.3-0.3,0.4-0.4
					c0.2-0.2,0.5-0.4,0.7-0.6c0.2-0.1,0.3-0.3,0.5-0.4c0.3-0.2,0.5-0.4,0.8-0.6c0.1-0.1,0.3-0.2,0.4-0.3c0.4-0.3,0.8-0.5,1.2-0.8
					c0.4-0.2,0.8-0.4,1.2-0.6c0.1,0,0.2-0.1,0.3-0.1c0.2-0.1,0.4-0.2,0.7-0.3c0.3-0.1,0.6-0.2,0.9-0.3c0.2-0.1,0.4-0.1,0.6-0.2
					c0.2,0,0.4-0.1,0.5-0.1c0.2,0,0.5-0.1,0.7-0.1c0.1,0,0.3,0,0.4,0c0.3,0,0.6,0,0.8,0c0.1,0,0.1,0,0.2,0c0.3,0,0.6,0.1,1,0.1
					c0.1,0,0.2,0,0.2,0.1c0.2,0.1,0.5,0.1,0.7,0.2c0.1,0,0.2,0.1,0.2,0.1c0.3,0.1,0.6,0.2,0.8,0.4L96.6,91c0,0,0,0-0.1,0
					c-0.2-0.1-0.4-0.2-0.7-0.3c0,0-0.1,0-0.1,0c-0.1,0-0.2-0.1-0.2-0.1c-0.1,0-0.2-0.1-0.3-0.1c-0.1,0-0.3-0.1-0.4-0.1
					c-0.1,0-0.1,0-0.2,0c0,0-0.1,0-0.1,0c-0.3,0-0.5-0.1-0.8-0.1c0,0,0,0,0,0c-0.1,0-0.1,0-0.2,0c-0.2,0-0.4,0-0.6,0
					c-0.1,0-0.1,0-0.2,0c-0.1,0-0.3,0-0.4,0c-0.1,0-0.2,0-0.4,0c-0.1,0-0.2,0.1-0.3,0.1c-0.2,0-0.3,0.1-0.5,0.1
					c-0.1,0-0.2,0-0.3,0.1c-0.1,0-0.2,0.1-0.3,0.1c-0.3,0.1-0.6,0.2-0.9,0.3c-0.1,0-0.2,0.1-0.3,0.1c-0.1,0-0.2,0.1-0.3,0.1
					c-0.1,0-0.2,0.1-0.3,0.1c-0.4,0.2-0.8,0.4-1.2,0.6c-0.4,0.2-0.8,0.5-1.2,0.8c-0.1,0.1-0.3,0.2-0.4,0.3c-0.3,0.2-0.5,0.4-0.8,0.6
					c-0.2,0.1-0.3,0.2-0.5,0.4c-0.2,0.2-0.5,0.4-0.7,0.6c-0.1,0.1-0.3,0.3-0.4,0.4c-0.1,0.1-0.2,0.2-0.3,0.3
					c-0.1,0.1-0.2,0.2-0.3,0.3c-0.3,0.3-0.6,0.6-0.9,0.9c-0.1,0.1-0.2,0.2-0.3,0.3c-0.1,0.1-0.1,0.2-0.2,0.3
					c-0.2,0.2-0.3,0.4-0.5,0.6c-0.1,0.1-0.2,0.3-0.3,0.4c-0.1,0.1-0.2,0.2-0.2,0.3c-0.1,0.2-0.2,0.3-0.4,0.5
					c-0.1,0.1-0.2,0.2-0.2,0.3c-0.1,0.2-0.3,0.4-0.4,0.6c-0.1,0.1-0.2,0.2-0.2,0.4c0,0.1-0.1,0.1-0.1,0.2c-0.2,0.4-0.5,0.7-0.7,1.1
					c0,0,0,0.1-0.1,0.1c0,0,0,0.1-0.1,0.1c-0.2,0.3-0.3,0.6-0.5,0.9c-0.1,0.1-0.1,0.2-0.2,0.4c-0.1,0.1-0.1,0.3-0.2,0.4
					c-0.1,0.1-0.1,0.2-0.2,0.3c-0.1,0.3-0.3,0.6-0.4,0.9c0,0.1-0.1,0.1-0.1,0.2c0,0,0,0,0,0c-0.2,0.4-0.3,0.8-0.5,1.2
					c0,0.1,0,0.1-0.1,0.2c-0.1,0.1-0.1,0.3-0.2,0.4c-0.1,0.2-0.1,0.4-0.2,0.6c-0.1,0.2-0.1,0.3-0.1,0.5c-0.1,0.2-0.1,0.3-0.2,0.5
					c0,0.1-0.1,0.2-0.1,0.3c-0.1,0.2-0.1,0.4-0.2,0.6c-0.1,0.2-0.1,0.4-0.2,0.6c0,0.1,0,0.2-0.1,0.2c0,0.2-0.1,0.3-0.1,0.5
					c-0.1,0.3-0.1,0.7-0.2,1c0,0.1,0,0.2,0,0.3c0,0.2,0,0.4-0.1,0.6c0,0.2,0,0.3,0,0.5c0,0.5-0.1,1-0.1,1.4c0,4.1,1.5,7,3.8,8.3
					l8.3,4.8c-2.3-1.4-3.8-4.2-3.8-8.3c0-0.5,0-1,0.1-1.4C82.8,117.6,82.8,117.5,82.8,117.3z"/>
				<g>
					<path class="st9" d="M83.3,123.2l-2.3-1.3c-2.3-1.4-3.8-4.2-3.8-8.3c0-0.5,0-0.9,0.1-1.4c0-0.2,0-0.3,0-0.5
						c0-0.2,0-0.4,0.1-0.6c0-0.1,0-0.2,0-0.3c0-0.3,0.1-0.7,0.2-1c0-0.2,0-0.3,0.1-0.5c0-0.1,0-0.2,0.1-0.2c0-0.2,0.1-0.4,0.1-0.6
						c0.1-0.2,0.1-0.4,0.2-0.6c0-0.1,0.1-0.2,0.1-0.3c0-0.2,0.1-0.3,0.2-0.5c0-0.2,0.1-0.3,0.1-0.5c0.1-0.2,0.1-0.4,0.2-0.6
						c0.1-0.1,0.1-0.3,0.2-0.4c0-0.1,0-0.1,0.1-0.2c0.1-0.4,0.3-0.8,0.5-1.2c0,0,0,0,0,0c0-0.1,0.1-0.1,0.1-0.2
						c0.1-0.3,0.3-0.6,0.4-0.9c0.1-0.1,0.1-0.2,0.2-0.3c0.1-0.1,0.1-0.3,0.2-0.4c0.1-0.1,0.1-0.2,0.2-0.4c0.2-0.3,0.3-0.6,0.5-0.9
						c0,0,0-0.1,0.1-0.1c0,0,0-0.1,0.1-0.1c0.2-0.4,0.4-0.7,0.7-1.1c0-0.1,0.1-0.1,0.1-0.2c0.1-0.1,0.2-0.2,0.2-0.4
						c0.1-0.2,0.3-0.4,0.4-0.6c0.1-0.1,0.2-0.2,0.2-0.3c0.1-0.2,0.2-0.3,0.4-0.5c0.1-0.1,0.2-0.2,0.2-0.3c0.1-0.1,0.2-0.3,0.3-0.4
						c0.2-0.2,0.3-0.4,0.5-0.6c0.1-0.1,0.1-0.2,0.2-0.3c0.1-0.1,0.2-0.2,0.3-0.3c0.3-0.3,0.6-0.6,0.9-0.9c0.1-0.1,0.2-0.2,0.3-0.3
						c0.1-0.1,0.2-0.2,0.3-0.3c0.1-0.1,0.3-0.3,0.4-0.4c0.2-0.2,0.5-0.4,0.7-0.6c0.2-0.1,0.3-0.3,0.5-0.4c0.3-0.2,0.5-0.4,0.8-0.6
						c0.1-0.1,0.3-0.2,0.4-0.3c0.4-0.3,0.8-0.5,1.2-0.8c0.4-0.2,0.8-0.4,1.2-0.6c0.1-0.1,0.2-0.1,0.3-0.1c0.1,0,0.1,0,0.1-0.1
						c-0.1,0-0.2,0-0.3,0.1c-0.2,0-0.3,0.1-0.5,0.1c-0.1,0-0.2,0-0.3,0.1c-0.1,0-0.2,0.1-0.3,0.1c-0.3,0.1-0.6,0.2-0.9,0.3
						c-0.1,0-0.2,0.1-0.3,0.1c-0.1,0-0.2,0.1-0.3,0.1c-0.1,0-0.2,0.1-0.3,0.1c-0.4,0.2-0.8,0.4-1.2,0.6c-0.4,0.2-0.8,0.5-1.2,0.8
						c-0.1,0.1-0.3,0.2-0.4,0.3c-0.3,0.2-0.5,0.4-0.8,0.6c-0.2,0.1-0.3,0.2-0.5,0.4c-0.2,0.2-0.5,0.4-0.7,0.6
						c-0.1,0.1-0.3,0.3-0.4,0.4c-0.1,0.1-0.2,0.2-0.3,0.3c-0.1,0.1-0.2,0.2-0.3,0.3c-0.3,0.3-0.6,0.6-0.9,0.9
						c-0.1,0.1-0.2,0.2-0.3,0.3c-0.1,0.1-0.1,0.2-0.2,0.3c-0.2,0.2-0.3,0.4-0.5,0.6c-0.1,0.1-0.2,0.3-0.3,0.4
						c-0.1,0.1-0.2,0.2-0.2,0.3c-0.1,0.2-0.2,0.3-0.4,0.5c-0.1,0.1-0.2,0.2-0.2,0.3c-0.1,0.2-0.3,0.4-0.4,0.6
						c-0.1,0.1-0.2,0.2-0.2,0.4c0,0.1-0.1,0.1-0.1,0.2c-0.2,0.4-0.5,0.7-0.7,1.1c0,0,0,0.1-0.1,0.1c0,0,0,0.1-0.1,0.1
						c-0.2,0.3-0.3,0.6-0.5,0.9c-0.1,0.1-0.1,0.2-0.2,0.4c-0.1,0.1-0.1,0.3-0.2,0.4c-0.1,0.1-0.1,0.2-0.2,0.3
						c-0.1,0.3-0.3,0.6-0.4,0.9c0,0.1-0.1,0.1-0.1,0.2c0,0,0,0,0,0c-0.2,0.4-0.3,0.8-0.5,1.2c0,0.1,0,0.1-0.1,0.2
						c-0.1,0.1-0.1,0.3-0.2,0.4c-0.1,0.2-0.1,0.4-0.2,0.6c-0.1,0.2-0.1,0.3-0.1,0.5c-0.1,0.2-0.1,0.3-0.2,0.5c0,0.1-0.1,0.2-0.1,0.3
						c-0.1,0.2-0.1,0.4-0.2,0.6c-0.1,0.2-0.1,0.4-0.2,0.6c0,0.1,0,0.2-0.1,0.2c0,0.2-0.1,0.3-0.1,0.5c-0.1,0.3-0.1,0.7-0.2,1
						c0,0.1,0,0.2,0,0.3c0,0.2,0,0.4-0.1,0.6c0,0.2,0,0.3,0,0.5c0,0.5-0.1,1-0.1,1.4c0,4.1,1.5,7,3.8,8.3l8.3,4.8
						C85,126.7,83.9,125.2,83.3,123.2z"/>
				</g>
				<g>
					<path class="st2" d="M95.7,96.8c7.2-4.1,13-0.8,13,7.4c0,8.3-5.8,18.3-13,22.4c-7.2,4.1-13,0.8-13-7.4
						C82.7,111,88.5,100.9,95.7,96.8z"/>
				</g>
			</g>
		</g>
	</g>
	<g>
		<g class="st0">
			<defs>
				<path id="SVGID_1_" class="st0" d="M104.6,97.4l8.3,4.8c-1.3-0.8-3-1-4.8-0.5l-8.3-4.8C101.6,96.5,103.2,96.7,104.6,97.4z"/>
			</defs>
			<use xlink:href="#SVGID_1_" style="overflow:visible;fill:#969393;"/>
			<clipPath id="SVGID_00000172429960969376392810000009193525691142670006_">
				<use xlink:href="#SVGID_1_" style="overflow:visible;"/>
			</clipPath>
			<path style="clip-path:url(#SVGID_00000172429960969376392810000009193525691142670006_);fill:#BBBBBB;" d="M112.9,102.3
				C112.9,102.3,112.8,102.2,112.9,102.3l-0.5-0.3l-7.9-4.6c0,0,0,0-0.1,0c-0.2-0.1-0.4-0.2-0.6-0.3c-0.2-0.1-0.4-0.2-0.6-0.2
				c-0.2-0.1-0.4-0.1-0.6-0.1c-0.2,0-0.5-0.1-0.7-0.1c-0.2,0-0.5,0-0.7,0c-0.3,0-0.6,0-0.8,0.1c-0.2,0-0.5,0.1-0.7,0.1l8.3,4.8
				c0.2-0.1,0.5-0.1,0.7-0.1c0.3,0,0.6-0.1,0.8-0.1c0.3,0,0.5,0,0.7,0c0.2,0,0.5,0,0.7,0.1c0.2,0,0.4,0.1,0.6,0.1
				c0.2,0.1,0.4,0.1,0.6,0.2C112.5,102,112.6,102.1,112.9,102.3L112.9,102.3z"/>
		</g>
		<g>
			<g>
				<path class="st11" d="M110.4,112c0-0.4,0.1-0.7,0.1-1.1c0-1.8-0.6-3-1.6-3.6l-8.3-4.8c1,0.6,1.6,1.8,1.6,3.6
					c0,0.4,0,0.8-0.1,1.3c0,0.1,0,0.1,0,0.2c-0.1,0.4-0.2,0.8-0.3,1.2c0,0,0,0.1,0,0.1c-0.1,0.4-0.3,0.9-0.5,1.3c0,0,0,0,0,0
					c-0.2,0.4-0.4,0.9-0.7,1.3c0,0,0,0,0,0c-0.2,0.4-0.5,0.8-0.8,1.2c0,0-0.1,0.1-0.1,0.1c-0.3,0.3-0.5,0.7-0.8,1
					c-0.1,0.1-0.1,0.1-0.2,0.2c-0.2,0.2-0.5,0.4-0.7,0.6c-0.1,0.1-0.2,0.2-0.3,0.3c-0.3,0.3-0.7,0.5-1,0.7c-0.2,0.1-0.5,0.3-0.7,0.4
					c-0.1,0-0.1,0.1-0.2,0.1c-0.1,0.1-0.3,0.1-0.4,0.1c-0.1,0-0.1,0-0.2,0.1c-0.1,0-0.2,0-0.3,0.1c-0.1,0-0.2,0-0.3,0
					c-0.1,0-0.1,0-0.2,0c-0.1,0-0.2,0-0.3,0c0,0-0.1,0-0.1,0c-0.1,0-0.3,0-0.4-0.1c0,0-0.1,0-0.1,0c-0.1,0-0.2-0.1-0.3-0.1
					c0,0-0.1,0-0.1,0c-0.1-0.1-0.2-0.1-0.4-0.2l8.3,4.8c0,0,0,0,0,0c0.1,0.1,0.2,0.1,0.3,0.1c0,0,0,0,0.1,0c0,0,0.1,0,0.1,0
					c0,0,0.1,0,0.1,0c0.1,0,0.1,0,0.2,0c0,0,0.1,0,0.1,0c0,0,0,0,0.1,0c0.1,0,0.2,0,0.3,0c0,0,0,0,0,0c0,0,0.1,0,0.1,0
					c0.1,0,0.2,0,0.3,0c0,0,0.1,0,0.1,0c0.1,0,0.1,0,0.2,0c0.1,0,0.1,0,0.2,0c0,0,0.1,0,0.1,0c0.1,0,0.1,0,0.2,0c0,0,0.1,0,0.1,0
					c0,0,0.1,0,0.1,0c0.1,0,0.3-0.1,0.4-0.1c0,0,0.1,0,0.1-0.1c0,0,0.1,0,0.1,0c0.2-0.1,0.5-0.2,0.7-0.3c0.4-0.2,0.7-0.5,1.1-0.7
					c0.1-0.1,0.2-0.2,0.3-0.3c0.2-0.1,0.3-0.3,0.5-0.4c0.1-0.1,0.1-0.2,0.2-0.2c0.1-0.1,0.1-0.1,0.2-0.2c0.1-0.1,0.2-0.2,0.2-0.2
					c0.2-0.2,0.3-0.4,0.5-0.6c0.1-0.1,0.1-0.1,0.1-0.2c0,0,0.1-0.1,0.1-0.1c0-0.1,0.1-0.1,0.1-0.2c0.1-0.2,0.2-0.3,0.3-0.5
					c0.1-0.2,0.2-0.3,0.3-0.5c0,0,0,0,0,0c0,0,0,0,0,0c0.1-0.1,0.2-0.3,0.2-0.4c0.1-0.2,0.2-0.3,0.2-0.5c0.1-0.1,0.1-0.3,0.2-0.4
					c0,0,0,0,0,0c0,0,0,0,0,0c0.1-0.2,0.1-0.3,0.2-0.5c0.1-0.2,0.1-0.4,0.2-0.5c0-0.1,0.1-0.2,0.1-0.3c0,0,0-0.1,0-0.1
					c0-0.1,0-0.1,0.1-0.2c0.1-0.2,0.1-0.4,0.2-0.6c0-0.1,0-0.3,0.1-0.4c0-0.1,0-0.1,0-0.2C110.4,112.1,110.4,112,110.4,112z"/>
				<g>
					<polygon class="st1" points="108.1,107 99.7,102.1 99.7,96.9 108,101.7 					"/>
				</g>
				<g>
					<g>
						<path class="st12" d="M108.9,111.2c0,4.7-3.8,8.5-8.5,8.5c-4.7,0-8.5-3.8-8.5-8.5c0-4.7,3.8-8.5,8.5-8.5
							C105.1,102.7,108.9,106.5,108.9,111.2z"/>
						<path class="st13" d="M102,116.5c-4.7,0-8.5-3.8-8.5-8.5c0-0.7,0.1-1.5,0.3-2.1c-1.2,1.5-1.9,3.3-1.9,5.3
							c0,4.7,3.8,8.5,8.5,8.5c4,0,7.3-2.7,8.2-6.4C107.1,115.2,104.7,116.5,102,116.5z"/>
					</g>
					<path class="st14" d="M105.3,110.1c-0.8,0.9-2.6,0.7-4.1-0.5c-1.4-1.2-1.9-3-1.1-3.9c0.8-0.9,2.6-0.7,4,0.5
						C105.7,107.4,106.2,109.2,105.3,110.1z"/>
				</g>
				<g>
					<g class="st0">
						<path class="st2" d="M102.7,86.5c0,0.1,0,0.1,0,0.2c0,0,0,0,0,0c0,0.1-0.1,0.1-0.1,0.2c0,0,0,0,0,0c0,0.1-0.1,0.1-0.2,0.2
							c0,0-0.1,0.1-0.2,0.1c0,0-0.1,0.1-0.1,0.1c-0.2,0.1-0.4,0.2-0.7,0.3c0,0-0.1,0-0.1,0c-0.2,0.1-0.5,0.1-0.7,0.1c0,0,0,0,0,0
							c-0.3,0-0.5,0-0.8-0.1c0,0,0,0,0,0c-0.3-0.1-0.5-0.1-0.7-0.3c-0.4-0.2-0.6-0.6-0.6-0.9l-0.1,18.3c0,0.3,0.2,0.6,0.6,0.9
							c0.1,0.1,0.2,0.1,0.3,0.1c0.1,0,0.2,0.1,0.3,0.1c0,0,0.1,0,0.1,0c0,0,0,0,0,0c0,0,0,0,0.1,0c0.1,0,0.1,0,0.2,0
							c0.1,0,0.1,0,0.2,0c0.1,0,0.1,0,0.2,0c0,0,0.1,0,0.1,0c0,0,0,0,0,0c0,0,0.1,0,0.1,0c0.1,0,0.2,0,0.2,0c0.1,0,0.2,0,0.3,0
							c0,0,0.1,0,0.1,0c0,0,0.1,0,0.1,0c0.1,0,0.1,0,0.2,0c0.2-0.1,0.3-0.1,0.5-0.2c0,0,0,0,0,0c0,0,0.1-0.1,0.1-0.1
							c0,0,0.1-0.1,0.1-0.1c0,0,0,0,0,0c0,0,0.1-0.1,0.1-0.1c0,0,0,0,0,0c0,0,0,0,0,0c0,0,0,0,0-0.1c0,0,0-0.1,0.1-0.1c0,0,0,0,0,0
							c0,0,0,0,0,0c0,0,0-0.1,0-0.1c0,0,0-0.1,0-0.1l0-1.8L102.7,86.5z"/>
						<path class="st6" d="M102.7,103.7c-0.1,0-0.2,0-0.3,0c-0.1,0-0.2,0-0.2,0c0,0-0.1,0-0.1,0c0,0,0,0,0,0c0,0-0.1,0-0.1,0
							c-0.1,0-0.1,0-0.2,0c-0.1,0-0.1,0-0.2,0c-0.1,0-0.1,0-0.2,0c0,0,0,0-0.1,0c0,0,0,0,0,0c0,0-0.1,0-0.1,0
							c-0.1,0-0.2-0.1-0.3-0.1c-0.1,0-0.2-0.1-0.3-0.1c-0.4-0.2-0.6-0.6-0.6-0.9l0-14.9c0,0-0.1,0-0.1,0c0,0,0,0,0,0
							c-0.3-0.1-0.5-0.1-0.7-0.3c-0.4-0.2-0.6-0.6-0.6-0.9l-0.1,18.3c0,0.3,0.2,0.6,0.6,0.9c0.1,0.1,0.2,0.1,0.3,0.1
							c0.1,0,0.2,0.1,0.3,0.1c0,0,0.1,0,0.1,0c0,0,0,0,0,0c0,0,0,0,0.1,0c0.1,0,0.1,0,0.2,0c0.1,0,0.1,0,0.2,0c0.1,0,0.1,0,0.2,0
							c0,0,0.1,0,0.1,0c0,0,0,0,0,0c0,0,0.1,0,0.1,0c0.1,0,0.2,0,0.2,0c0.1,0,0.2,0,0.3,0c0,0,0.1,0,0.1,0c0,0,0.1,0,0.1,0
							c0.1,0,0.1,0,0.2,0c0.2-0.1,0.3-0.1,0.5-0.2c0,0,0,0,0,0c0,0,0.1-0.1,0.1-0.1c0.1,0,0.1-0.1,0.1-0.1c0,0,0,0,0,0
							c0.1,0,0.1-0.1,0.1-0.1c0,0,0,0,0,0c0,0,0,0,0,0c0,0,0,0,0-0.1c0,0,0-0.1,0.1-0.1c0,0,0,0,0,0c0,0,0,0,0,0c0,0,0-0.1,0-0.1
							c0,0,0-0.1,0-0.1L102.7,103.7C102.7,103.7,102.7,103.7,102.7,103.7z"/>
						<g>
							<path class="st15" d="M102.1,85.6c0.8,0.5,0.8,1.3,0,1.8c-0.8,0.5-2.2,0.5-3,0c-0.8-0.5-0.8-1.3,0-1.8
								C99.9,85.1,101.3,85.1,102.1,85.6z"/>
						</g>
					</g>
				</g>
				<path class="st1" d="M93.5,122.6c0-0.4,0-0.7,0-1.1c0-0.2,0-0.4,0.1-0.5c0-0.2,0-0.4,0.1-0.6c0.1-0.5,0.1-1,0.2-1.5
					c0-0.1,0.1-0.3,0.1-0.4c0.1-0.3,0.1-0.5,0.2-0.8c0-0.2,0.1-0.4,0.2-0.5c0.1-0.2,0.1-0.4,0.2-0.6c0.1-0.2,0.1-0.4,0.2-0.6
					c0.1-0.2,0.1-0.3,0.2-0.5c0.1-0.2,0.2-0.5,0.3-0.7c0.1-0.1,0.1-0.3,0.2-0.4c0.1-0.2,0.2-0.5,0.3-0.7c0.1-0.1,0.1-0.2,0.2-0.4
					c0.2-0.3,0.3-0.7,0.5-1c0.1-0.1,0.1-0.2,0.2-0.3c0.1-0.2,0.3-0.5,0.4-0.7c0.1-0.1,0.2-0.3,0.3-0.4c0.1-0.2,0.2-0.4,0.4-0.6
					c0.1-0.2,0.2-0.3,0.3-0.4c0.1-0.2,0.3-0.4,0.4-0.6c0.1-0.2,0.3-0.3,0.4-0.5c0.1-0.2,0.2-0.3,0.3-0.5c0.2-0.2,0.4-0.5,0.6-0.7
					c0.1-0.1,0.2-0.2,0.3-0.4c0.3-0.4,0.7-0.8,1.1-1.1c0.2-0.2,0.5-0.5,0.7-0.7l-8.3-4.8c-0.2,0.2-0.4,0.4-0.6,0.6
					c0,0-0.1,0.1-0.1,0.1c-0.4,0.4-0.7,0.7-1.1,1.1c0,0,0,0-0.1,0.1c-0.1,0.1-0.2,0.2-0.3,0.3c-0.2,0.2-0.4,0.4-0.5,0.7
					c0,0-0.1,0.1-0.1,0.1c-0.1,0.1-0.2,0.2-0.3,0.4c-0.1,0.2-0.2,0.3-0.3,0.5c0,0.1-0.1,0.1-0.1,0.2c-0.1,0.1-0.2,0.3-0.3,0.4
					c-0.1,0.1-0.2,0.3-0.3,0.4c0,0.1-0.1,0.1-0.1,0.2c-0.1,0.2-0.2,0.3-0.3,0.5c-0.1,0.1-0.2,0.2-0.2,0.4c0,0,0,0.1-0.1,0.1
					c-0.2,0.3-0.3,0.5-0.4,0.8c0,0,0,0.1-0.1,0.1c0,0,0,0,0,0c-0.2,0.3-0.3,0.6-0.5,1c0,0,0,0,0,0.1c-0.1,0.1-0.1,0.2-0.2,0.3
					c-0.1,0.2-0.2,0.4-0.3,0.6c0,0,0,0.1-0.1,0.1c-0.1,0.1-0.1,0.3-0.2,0.4c-0.1,0.1-0.1,0.3-0.2,0.4c0,0.1-0.1,0.2-0.1,0.2
					c-0.1,0.2-0.1,0.3-0.2,0.5c0,0.1-0.1,0.2-0.1,0.4c0,0.1,0,0.2-0.1,0.3c-0.1,0.2-0.1,0.4-0.2,0.6c0,0.1-0.1,0.2-0.1,0.3
					c0,0.1,0,0.1-0.1,0.2c-0.1,0.3-0.1,0.5-0.2,0.8c0,0.1-0.1,0.2-0.1,0.3c0,0,0,0.1,0,0.1c-0.1,0.5-0.2,1-0.2,1.4c0,0,0,0,0,0
					c0,0.2,0,0.4-0.1,0.6c0,0.2,0,0.3,0,0.5c0,0.4,0,0.7,0,1.1c0,3.6,1.3,6.1,3.3,7.3l8.3,4.8C94.8,128.7,93.6,126.2,93.5,122.6z"/>
				<path class="st16" d="M94.1,126.4l-2.9-1.7c-2-1.2-3.3-3.7-3.3-7.3c0-0.4,0-0.7,0-1.1c0-0.2,0-0.3,0-0.5c0-0.2,0-0.4,0.1-0.6
					c0,0,0,0,0,0c0.1-0.5,0.1-1,0.2-1.4c0,0,0-0.1,0-0.1c0-0.1,0.1-0.2,0.1-0.3c0.1-0.3,0.1-0.5,0.2-0.8c0-0.1,0-0.1,0.1-0.2
					c0-0.1,0.1-0.2,0.1-0.3c0.1-0.2,0.1-0.4,0.2-0.6c0-0.1,0.1-0.2,0.1-0.3c0-0.1,0.1-0.2,0.1-0.4c0.1-0.2,0.1-0.3,0.2-0.5
					c0-0.1,0.1-0.2,0.1-0.2c0.1-0.1,0.1-0.3,0.2-0.4c0.1-0.1,0.1-0.3,0.2-0.4c0,0,0-0.1,0.1-0.1c0.1-0.2,0.2-0.4,0.3-0.6
					c0.1-0.1,0.1-0.2,0.2-0.3c0,0,0,0,0-0.1c0.2-0.3,0.3-0.6,0.5-1c0,0,0,0,0,0c0,0,0-0.1,0.1-0.1c0.1-0.3,0.3-0.5,0.5-0.8
					c0,0,0-0.1,0.1-0.1c0.1-0.1,0.1-0.2,0.2-0.4c0.1-0.2,0.2-0.3,0.3-0.5c0-0.1,0.1-0.1,0.1-0.1c0.1-0.1,0.2-0.3,0.3-0.4
					c0.1-0.1,0.2-0.3,0.3-0.4c0-0.1,0.1-0.1,0.1-0.2c0.1-0.2,0.2-0.3,0.3-0.5c0.1-0.1,0.2-0.2,0.3-0.4c0,0,0.1-0.1,0.1-0.1
					c0.2-0.2,0.4-0.4,0.5-0.7c0.1-0.1,0.2-0.2,0.3-0.3c0,0,0,0,0.1-0.1c0.1-0.2,0.3-0.3,0.4-0.5l-1.3-0.8c-0.2,0.2-0.4,0.4-0.6,0.6
					c0,0-0.1,0.1-0.1,0.1c-0.4,0.4-0.7,0.7-1.1,1.1c0,0,0,0-0.1,0.1c-0.1,0.1-0.2,0.2-0.3,0.3c-0.2,0.2-0.4,0.4-0.5,0.7
					c0,0-0.1,0.1-0.1,0.1c-0.1,0.1-0.2,0.2-0.3,0.4c-0.1,0.2-0.2,0.3-0.3,0.5c0,0.1-0.1,0.1-0.1,0.2c-0.1,0.1-0.2,0.3-0.3,0.4
					c-0.1,0.1-0.2,0.3-0.3,0.4c0,0.1-0.1,0.1-0.1,0.2c-0.1,0.2-0.2,0.3-0.3,0.5c-0.1,0.1-0.2,0.2-0.2,0.4c0,0,0,0.1-0.1,0.1
					c-0.2,0.3-0.3,0.5-0.4,0.8c0,0,0,0.1-0.1,0.1c0,0,0,0,0,0c-0.2,0.3-0.3,0.6-0.5,1c0,0,0,0,0,0.1c-0.1,0.1-0.1,0.2-0.2,0.3
					c-0.1,0.2-0.2,0.4-0.3,0.6c0,0,0,0.1-0.1,0.1c-0.1,0.1-0.1,0.3-0.2,0.4c-0.1,0.1-0.1,0.3-0.2,0.4c0,0.1-0.1,0.2-0.1,0.2
					c-0.1,0.2-0.1,0.3-0.2,0.5c0,0.1-0.1,0.2-0.1,0.4c0,0.1,0,0.2-0.1,0.3c-0.1,0.2-0.1,0.4-0.2,0.6c0,0.1-0.1,0.2-0.1,0.3
					c0,0.1,0,0.1-0.1,0.2c-0.1,0.3-0.1,0.5-0.2,0.8c0,0.1-0.1,0.2-0.1,0.3c0,0,0,0.1,0,0.1c-0.1,0.5-0.2,1-0.2,1.4c0,0,0,0,0,0
					c0,0.2,0,0.4-0.1,0.6c0,0.2,0,0.3,0,0.5c0,0.4,0,0.7,0,1.1c0,3.6,1.3,6.1,3.3,7.3l8.3,4.8C95.6,129.3,94.6,128.1,94.1,126.4z"/>
				<g>
					<path class="st6" d="M108,101.7c4.7-1.1,8.1,1.9,8.1,7.8c0,7.2-5,15.9-11.3,19.6c-6.3,3.6-11.3,0.7-11.4-6.5
						c0-5.9,3.4-12.9,8.1-17.1l0,5.2c-1.4,2-2.4,4.4-2.4,6.6c0,3.6,2.5,5,5.6,3.2c3.1-1.8,5.6-6.1,5.6-9.7c0-2.2-1-3.5-2.4-3.9
						L108,101.7z"/>
				</g>
				<g>
					<path class="st17" d="M103.9,121c-2.6,1-4.6-0.5-4.6-3.7c0-2.2,0.9-4.6,2.4-6.6l0-5.2c-4.7,4.3-8.1,11.3-8.1,17.1
						c0,7.2,5.1,10.1,11.4,6.5c0.8-0.5,1.6-1.1,2.4-1.7C105.7,125.5,104.6,123.3,103.9,121z"/>
				</g>
			</g>
			<g>
				<g class="st0">
					<path class="st18" d="M114.2,82.6c0,0.2,0,0.3-0.1,0.5c0,0.1-0.1,0.2-0.1,0.4c0,0.1-0.1,0.3-0.1,0.4c0,0.1-0.1,0.2-0.1,0.3
						c-0.1,0.2-0.1,0.3-0.2,0.5c-0.1,0.1-0.1,0.2-0.2,0.3c-0.1,0.2-0.2,0.3-0.3,0.5c-0.1,0.1-0.1,0.2-0.2,0.3
						c-0.2,0.2-0.4,0.4-0.6,0.7c-0.1,0.1-0.1,0.2-0.2,0.2c-0.1,0.1-0.3,0.2-0.4,0.4c-0.1,0.1-0.3,0.2-0.4,0.3
						c-0.2,0.1-0.3,0.2-0.5,0.3c-0.2,0.1-0.3,0.2-0.5,0.3c-0.4,0.2-0.9,0.5-1.3,0.7c-0.1,0.1-0.3,0.1-0.4,0.2
						c-0.4,0.2-0.8,0.3-1.2,0.4c-0.1,0-0.2,0.1-0.4,0.1c-0.3,0.1-0.5,0.1-0.8,0.2c-0.2,0-0.4,0.1-0.5,0.1c-0.3,0.1-0.5,0.1-0.8,0.2
						c-0.2,0-0.4,0.1-0.6,0.1c-0.5,0.1-1.1,0.2-1.6,0.2c-0.2,0-0.3,0-0.5,0c-0.3,0-0.6,0-0.9,0.1c-0.2,0-0.4,0-0.6,0
						c-0.3,0-0.5,0-0.8,0c-0.2,0-0.4,0-0.6,0c-0.2,0-0.5,0-0.7,0c-0.2,0-0.4,0-0.7-0.1c-0.2,0-0.5,0-0.7-0.1c-0.2,0-0.4-0.1-0.7-0.1
						c-0.2,0-0.5-0.1-0.7-0.1c-0.2,0-0.4-0.1-0.6-0.1c-0.3-0.1-0.6-0.1-0.8-0.2c-0.2,0-0.3-0.1-0.5-0.1c-0.5-0.2-1-0.3-1.5-0.5
						c-0.3-0.1-0.5-0.2-0.8-0.3c-0.1,0-0.2-0.1-0.3-0.1c-0.4-0.2-0.7-0.4-1.1-0.5c-2.8-1.6-4.2-3.8-4.2-5.9l0,6.4
						c0,2.1,1.4,4.3,4.2,5.9c0.3,0.2,0.7,0.4,1,0.5c0.1,0.1,0.2,0.1,0.4,0.2c0.2,0.1,0.4,0.2,0.7,0.3c0,0,0.1,0,0.1,0
						c0.5,0.2,1,0.4,1.5,0.5c0,0,0.1,0,0.1,0c0.1,0,0.2,0.1,0.4,0.1c0.3,0.1,0.6,0.2,0.9,0.2c0.1,0,0.2,0,0.2,0.1
						c0.1,0,0.2,0,0.4,0.1c0.3,0,0.5,0.1,0.8,0.1c0.1,0,0.2,0,0.3,0.1c0.1,0,0.2,0,0.3,0c0.2,0,0.5,0.1,0.7,0.1c0.1,0,0.2,0,0.3,0
						c0.1,0,0.2,0,0.3,0c0.2,0,0.5,0,0.7,0c0.1,0,0.2,0,0.4,0c0.1,0,0.2,0,0.3,0c0.3,0,0.5,0,0.8,0c0.1,0,0.2,0,0.4,0
						c0.1,0,0.1,0,0.2,0c0.3,0,0.7,0,1-0.1c0.1,0,0.2,0,0.4,0c0,0,0.1,0,0.1,0c0.6-0.1,1.1-0.1,1.6-0.2c0,0,0,0,0.1,0
						c0.1,0,0.3-0.1,0.4-0.1c0.3-0.1,0.6-0.1,0.8-0.2c0.2,0,0.3-0.1,0.5-0.1c0.3-0.1,0.5-0.1,0.8-0.2c0,0,0.1,0,0.1,0
						c0.1,0,0.2-0.1,0.2-0.1c0.4-0.1,0.8-0.3,1.1-0.4c0.1-0.1,0.3-0.1,0.4-0.2c0.5-0.2,0.9-0.4,1.4-0.7c0.1,0,0.1-0.1,0.2-0.1
						c0.1-0.1,0.2-0.2,0.4-0.2c0.2-0.1,0.4-0.2,0.5-0.3c0.1-0.1,0.3-0.2,0.4-0.3c0.2-0.1,0.3-0.2,0.4-0.4c0,0,0.1,0,0.1-0.1
						c0.1,0,0.1-0.1,0.1-0.2c0.2-0.2,0.4-0.4,0.6-0.7c0,0,0.1-0.1,0.1-0.1c0,0,0.1-0.1,0.1-0.1c0.1-0.2,0.2-0.3,0.3-0.5
						c0-0.1,0.1-0.1,0.1-0.2c0,0,0-0.1,0-0.1c0.1-0.2,0.1-0.3,0.2-0.5c0-0.1,0.1-0.2,0.1-0.2c0,0,0-0.1,0-0.1
						c0.1-0.1,0.1-0.3,0.1-0.4c0-0.1,0.1-0.2,0.1-0.3c0,0,0,0,0-0.1c0-0.2,0-0.3,0.1-0.5c0-0.1,0-0.2,0-0.3c0,0,0-0.1,0-0.1l0-6.4
						C114.2,82.3,114.2,82.4,114.2,82.6z"/>
					<g>
						<path class="st19" d="M113,92c-0.2,0.1-0.3,0.2-0.5,0.3c-0.1,0.1-0.2,0.2-0.4,0.2c-0.1,0-0.1,0.1-0.2,0.1
							c-0.4,0.2-0.9,0.5-1.4,0.7c-0.1,0.1-0.3,0.1-0.4,0.2c-0.4,0.2-0.8,0.3-1.1,0.4c-0.1,0-0.2,0.1-0.2,0.1c0,0-0.1,0-0.1,0
							c-0.3,0.1-0.5,0.2-0.8,0.2c-0.2,0-0.3,0.1-0.5,0.1c-0.3,0.1-0.6,0.1-0.8,0.2c-0.1,0-0.3,0.1-0.4,0.1c0,0,0,0-0.1,0
							c-0.5,0.1-1.1,0.2-1.6,0.2c0,0-0.1,0-0.1,0c-0.1,0-0.2,0-0.4,0c-0.3,0-0.7,0.1-1,0.1c-0.1,0-0.1,0-0.2,0c-0.1,0-0.2,0-0.4,0
							c-0.3,0-0.5,0-0.8,0c-0.1,0-0.2,0-0.3,0c-0.1,0-0.2,0-0.4,0c-0.2,0-0.5,0-0.7,0c-0.1,0-0.2,0-0.3,0c-0.1,0-0.2,0-0.3,0
							c-0.2,0-0.5,0-0.7-0.1c-0.1,0-0.2,0-0.3,0c-0.1,0-0.2,0-0.3-0.1c-0.3,0-0.5-0.1-0.8-0.1c-0.1,0-0.2,0-0.4-0.1
							c-0.1,0-0.2,0-0.2-0.1c-0.3-0.1-0.6-0.1-0.9-0.2c-0.1,0-0.2-0.1-0.4-0.1c0,0-0.1,0-0.1,0c-0.5-0.2-1-0.3-1.5-0.5
							c0,0-0.1,0-0.1,0c-0.2-0.1-0.4-0.2-0.7-0.3c-0.1-0.1-0.2-0.1-0.4-0.2c-0.4-0.2-0.7-0.4-1-0.5c-2.8-1.6-4.2-3.8-4.2-5.9l0-0.5
							c-1.2-1.3-1.9-2.7-1.9-4.1l0,6.4c0,2.1,1.4,4.3,4.2,5.9c0.3,0.2,0.7,0.4,1,0.5c0.1,0.1,0.2,0.1,0.4,0.2
							c0.2,0.1,0.4,0.2,0.7,0.3c0,0,0.1,0,0.1,0c0.5,0.2,1,0.4,1.5,0.5c0,0,0.1,0,0.1,0c0.1,0,0.2,0.1,0.4,0.1
							c0.3,0.1,0.6,0.2,0.9,0.2c0.1,0,0.2,0,0.2,0.1c0.1,0,0.2,0,0.4,0.1c0.3,0,0.5,0.1,0.8,0.1c0.1,0,0.2,0,0.3,0.1
							c0.1,0,0.2,0,0.3,0c0.2,0,0.5,0.1,0.7,0.1c0.1,0,0.2,0,0.3,0c0.1,0,0.2,0,0.3,0c0.2,0,0.5,0,0.7,0c0.1,0,0.2,0,0.4,0
							c0.1,0,0.2,0,0.3,0c0.3,0,0.5,0,0.8,0c0.1,0,0.2,0,0.4,0c0.1,0,0.1,0,0.2,0c0.3,0,0.7,0,1-0.1c0.1,0,0.2,0,0.4,0
							c0,0,0.1,0,0.1,0c0.6-0.1,1.1-0.1,1.6-0.2c0,0,0,0,0.1,0c0.1,0,0.3-0.1,0.4-0.1c0.3-0.1,0.6-0.1,0.9-0.2
							c0.2,0,0.3-0.1,0.5-0.1c0.3-0.1,0.5-0.1,0.8-0.2c0,0,0.1,0,0.1,0c0.1,0,0.2-0.1,0.2-0.1c0.4-0.1,0.8-0.3,1.1-0.4
							c0.1-0.1,0.3-0.1,0.4-0.2c0.5-0.2,0.9-0.4,1.4-0.7c0.1,0,0.1-0.1,0.2-0.1c0.1-0.1,0.2-0.2,0.4-0.2c0.2-0.1,0.4-0.2,0.5-0.3
							c0.1-0.1,0.3-0.2,0.4-0.3c0.2-0.1,0.3-0.2,0.4-0.4c0,0,0.1,0,0.1-0.1c0.1,0,0.1-0.1,0.1-0.2c0.2-0.2,0.4-0.4,0.6-0.7
							c0,0,0.1-0.1,0.1-0.1C112.9,92.1,113,92.1,113,92c0.1,0,0.1,0,0.1-0.1C113,91.9,113,92,113,92z"/>
					</g>
					<g>
						<path class="st2" d="M110,76.3c5.6,3.2,5.6,8.5,0.1,11.7c-5.5,3.2-14.6,3.2-20.2,0c-5.6-3.2-5.6-8.5-0.1-11.7
							C95.4,73.1,104.4,73.1,110,76.3z"/>
					</g>
					<g>
						<path class="st20" d="M107.5,77.2c4.4,2.5,4.4,6.7,0.1,9.2c-4.4,2.5-11.5,2.5-15.9,0c-4.4-2.5-4.4-6.7,0-9.2
							C96,74.6,103.1,74.6,107.5,77.2z"/>
					</g>
				</g>
			</g>
			<g>
				<g class="st0">
					<path class="st18" d="M110.4,69.2c0,0.1,0,0.2,0,0.4c0,0.1,0,0.2-0.1,0.2c0,0.1-0.1,0.2-0.1,0.3c0,0.1-0.1,0.2-0.1,0.3
						c0,0.1-0.1,0.2-0.2,0.3c0,0.1-0.1,0.2-0.1,0.2c-0.1,0.1-0.2,0.3-0.3,0.4c-0.1,0.1-0.1,0.1-0.2,0.2c-0.1,0.2-0.3,0.3-0.5,0.5
						c-0.1,0.1-0.1,0.1-0.2,0.2c-0.1,0.1-0.2,0.2-0.3,0.3c-0.1,0.1-0.2,0.2-0.3,0.2c-0.1,0.1-0.2,0.1-0.3,0.2
						c-0.2,0.1-0.3,0.2-0.5,0.3c-0.5,0.3-1,0.5-1.5,0.7c-0.1,0.1-0.3,0.1-0.4,0.2c-0.3,0.1-0.7,0.2-1,0.3c-0.3,0.1-0.7,0.2-1.1,0.3
						c-0.4,0.1-0.9,0.2-1.3,0.2c-0.1,0-0.2,0-0.3,0c-0.6,0.1-1.2,0.1-1.8,0.1c-0.1,0-0.2,0-0.3,0c-0.6,0-1.2,0-1.8-0.1
						c-0.1,0-0.2,0-0.3,0c-0.6-0.1-1.2-0.2-1.7-0.3c-0.1,0-0.2-0.1-0.3-0.1c-0.5-0.1-1-0.3-1.5-0.5c-0.1,0-0.2-0.1-0.3-0.1
						c-0.6-0.2-1.1-0.5-1.6-0.8C90.1,72,89,70.4,89,68.8l0,12.9c0,1.6,1.1,3.2,3.2,4.4c0.5,0.3,1,0.5,1.5,0.7c0,0,0.1,0,0.1,0
						c0.1,0,0.2,0.1,0.3,0.1c0.3,0.1,0.6,0.2,0.9,0.3c0.2,0.1,0.4,0.1,0.5,0.1c0.1,0,0.2,0.1,0.3,0.1c0.1,0,0.2,0,0.3,0.1
						c0.4,0.1,0.7,0.1,1.1,0.2c0.1,0,0.3,0,0.4,0c0.1,0,0.2,0,0.2,0c0.1,0,0.3,0,0.4,0c0.3,0,0.7,0,1.1,0.1c0.1,0,0.2,0,0.3,0
						c0.1,0,0.2,0,0.3,0c0.2,0,0.3,0,0.5,0c0.4,0,0.8,0,1.2-0.1c0,0,0.1,0,0.1,0c0.1,0,0.2,0,0.3,0c0.3,0,0.6-0.1,0.9-0.1
						c0.2,0,0.5-0.1,0.7-0.2c0.1,0,0.1,0,0.2,0c0.4-0.1,0.8-0.2,1.1-0.3c0.2,0,0.3-0.1,0.4-0.2c0.1-0.1,0.3-0.1,0.4-0.2
						c0.5-0.2,1-0.4,1.5-0.7c0,0,0.1-0.1,0.1-0.1c0.1-0.1,0.2-0.1,0.3-0.2c0.1-0.1,0.2-0.2,0.3-0.2c0.1-0.1,0.2-0.2,0.3-0.3
						c0.1-0.1,0.2-0.2,0.3-0.2c0,0,0.1,0,0.1-0.1c0,0,0.1-0.1,0.1-0.1c0.2-0.2,0.3-0.3,0.4-0.5c0,0,0.1-0.1,0.1-0.1
						c0,0,0-0.1,0.1-0.1c0.1-0.1,0.2-0.2,0.2-0.4c0-0.1,0.1-0.1,0.1-0.2c0,0,0-0.1,0-0.1c0.1-0.1,0.1-0.2,0.2-0.3
						c0-0.1,0.1-0.1,0.1-0.2c0,0,0,0,0-0.1c0-0.1,0.1-0.2,0.1-0.3c0-0.1,0-0.1,0.1-0.2c0,0,0,0,0-0.1c0-0.1,0-0.2,0-0.3
						c0-0.1,0-0.1,0-0.2c0,0,0-0.1,0-0.1l0-12.9C110.4,69,110.4,69.1,110.4,69.2z"/>
					<g>
						<path class="st19" d="M108.2,85c-0.1,0.1-0.3,0.1-0.4,0.2c-0.1,0.1-0.3,0.1-0.4,0.2c-0.4,0.1-0.7,0.2-1.1,0.3
							c-0.1,0-0.1,0-0.2,0c-0.2,0.1-0.5,0.1-0.7,0.2c-0.3,0.1-0.6,0.1-0.9,0.1c-0.1,0-0.2,0-0.3,0c0,0-0.1,0-0.1,0
							c-0.4,0-0.8,0.1-1.2,0.1c-0.2,0-0.3,0-0.5,0c-0.1,0-0.2,0-0.3,0c-0.1,0-0.2,0-0.3,0c-0.4,0-0.7,0-1.1-0.1c-0.1,0-0.3,0-0.4,0
							c-0.1,0-0.2,0-0.2,0c-0.1,0-0.3,0-0.4,0c-0.4-0.1-0.7-0.1-1.1-0.2c-0.1,0-0.2,0-0.3-0.1c-0.1,0-0.2,0-0.3-0.1
							c-0.2,0-0.4-0.1-0.5-0.1c-0.3-0.1-0.6-0.2-0.9-0.3c-0.1,0-0.2-0.1-0.3-0.1c0,0-0.1,0-0.1,0c-0.5-0.2-1.1-0.5-1.5-0.7
							c-2.1-1.2-3.2-2.8-3.2-4.4l0-7.1c-1.6-1.1-2.4-2.5-2.4-3.9l0,12.9c0,1.6,1.1,3.2,3.2,4.4c0.5,0.3,1,0.5,1.5,0.7
							c0,0,0.1,0,0.1,0c0.1,0,0.2,0.1,0.3,0.1c0.3,0.1,0.6,0.2,0.9,0.3c0.2,0.1,0.4,0.1,0.5,0.1c0.1,0,0.2,0.1,0.3,0.1
							c0.1,0,0.2,0,0.3,0.1c0.4,0.1,0.7,0.1,1.1,0.2c0.1,0,0.3,0,0.4,0c0.1,0,0.2,0,0.2,0c0.1,0,0.3,0,0.4,0c0.3,0,0.7,0,1.1,0.1
							c0.1,0,0.2,0,0.3,0c0.1,0,0.2,0,0.3,0c0.2,0,0.3,0,0.5,0c0.4,0,0.8,0,1.2-0.1c0,0,0.1,0,0.1,0c0.1,0,0.2,0,0.3,0
							c0.3,0,0.6-0.1,0.9-0.1c0.2,0,0.5-0.1,0.7-0.2c0.1,0,0.1,0,0.2,0c0.4-0.1,0.8-0.2,1.1-0.3c0.2,0,0.3-0.1,0.4-0.2
							c0.1-0.1,0.3-0.1,0.4-0.2c0.5-0.2,1-0.4,1.5-0.7c0,0,0.1-0.1,0.1-0.1c0.1-0.1,0.2-0.1,0.3-0.2c0.1-0.1,0.2-0.2,0.3-0.2
							c0.1-0.1,0.2-0.2,0.3-0.3c0.1-0.1,0.2-0.2,0.3-0.2c0,0,0.1,0,0.1-0.1c0,0,0.1-0.1,0.1-0.1c0.1-0.1,0.3-0.3,0.4-0.4
							C108.9,84.6,108.6,84.8,108.2,85z"/>
					</g>
					<g>
						<path class="st2" d="M107.3,64.5c4.2,2.4,4.2,6.3,0,8.8c-4.2,2.4-11,2.4-15.1,0c-4.2-2.4-4.2-6.4,0-8.8
							C96.3,62,103.1,62,107.3,64.5z"/>
					</g>
				</g>
			</g>
		</g>
	</g>
	<g>
		<path class="st21" d="M191.1,52.3L107.7,3.8c4.5,2.6,7.2,8.1,7.3,15.9l83.3,48.4C198.3,60.4,195.5,54.9,191.1,52.3z"/>
		<g>
			<g class="st0">
				<path class="st22" d="M141.7,87.5c0.1-0.7,0.1-1.3,0.2-2c0-0.1,0-0.3,0.1-0.4c0.1-0.8,0.3-1.5,0.5-2.3c0.1-0.4,0.2-0.8,0.3-1.2
					c0.1-0.5,0.3-1.1,0.4-1.6c0.1-0.3,0.2-0.6,0.3-0.9c0.2-0.6,0.4-1.2,0.6-1.8c0.1-0.2,0.2-0.5,0.3-0.7c0.3-0.8,0.6-1.7,1-2.5
					c0-0.1,0.1-0.2,0.1-0.3c0.3-0.7,0.7-1.5,1-2.2c0.1-0.2,0.2-0.5,0.3-0.7c0.3-0.7,0.7-1.3,1.1-2c0.1-0.1,0.2-0.3,0.2-0.4
					c0.4-0.8,0.9-1.5,1.4-2.3c0.1-0.2,0.3-0.5,0.5-0.7c0.4-0.5,0.7-1.1,1.1-1.6c0.2-0.3,0.4-0.6,0.6-0.8c0.3-0.4,0.7-0.9,1-1.3
					c0.3-0.4,0.6-0.7,0.9-1.1c0.5-0.6,1.1-1.2,1.6-1.8c0,0,0,0,0,0c0.6-0.6,1.1-1.1,1.7-1.7c0.2-0.2,0.5-0.5,0.8-0.7
					c0.4-0.4,0.9-0.8,1.3-1.1c0.3-0.2,0.5-0.4,0.8-0.6c0.5-0.4,0.9-0.7,1.4-1.1c0.2-0.2,0.5-0.3,0.7-0.5c0.7-0.5,1.4-1,2.2-1.4
					c0.5-0.3,1-0.5,1.4-0.8c0.1-0.1,0.3-0.1,0.4-0.2c0.4-0.2,0.7-0.3,1.1-0.5c0.1-0.1,0.3-0.1,0.4-0.2c0.3-0.1,0.7-0.3,1-0.4
					c0.1,0,0.2-0.1,0.2-0.1c0.4-0.1,0.8-0.3,1.2-0.4c0.1,0,0.1,0,0.2,0c0.6-0.2,1.2-0.3,1.9-0.4c0,0,0,0,0,0c0.5-0.1,1-0.1,1.5-0.2
					c0.1,0,0.2,0,0.3,0c0.4,0,0.9,0,1.3,0c0.1,0,0.2,0,0.2,0c0.3,0,0.7,0.1,1,0.1c0.1,0,0.2,0,0.3,0c0.4,0.1,0.8,0.2,1.1,0.3
					c0,0,0,0,0,0c0.4,0.1,0.7,0.2,1.1,0.4c0.1,0,0.2,0.1,0.3,0.1c0.3,0.1,0.6,0.3,0.8,0.4c0.1,0,0.2,0.1,0.3,0.1
					c-22.2-12.9-44.4-25.8-66.7-38.7c0,0-0.1,0-0.1-0.1c0,0-0.1,0-0.1-0.1c-0.3-0.2-0.6-0.3-0.9-0.4c0,0-0.1-0.1-0.1-0.1
					c0,0-0.1,0-0.1,0c-0.3-0.1-0.7-0.3-1-0.4c0,0,0,0,0,0c0,0,0,0,0,0c-0.4-0.1-0.7-0.2-1.1-0.3c0,0-0.1,0-0.1,0c-0.1,0-0.1,0-0.2,0
					c-0.3-0.1-0.7-0.1-1-0.1c-0.1,0-0.1,0-0.2,0c0,0,0,0-0.1,0c-0.4,0-0.9,0-1.3,0c0,0-0.1,0-0.1,0c-0.1,0-0.1,0-0.2,0
					c-0.5,0-1,0.1-1.5,0.2l0,0c-0.3,0.1-0.7,0.1-1,0.2c-0.1,0-0.2,0.1-0.4,0.1c-0.2,0-0.4,0.1-0.6,0.1c0,0,0,0-0.1,0
					c-0.4,0.1-0.8,0.2-1.2,0.4c-0.1,0-0.1,0-0.2,0.1c-0.4,0.1-0.7,0.3-1.1,0.4c0,0-0.1,0-0.1,0c-0.1,0-0.2,0.1-0.2,0.1
					c-0.4,0.2-0.7,0.3-1.1,0.5c-0.1,0.1-0.3,0.1-0.4,0.2c-0.5,0.2-1,0.5-1.4,0.8c-0.7,0.4-1.4,0.9-2.2,1.4c-0.2,0.2-0.5,0.3-0.7,0.5
					c-0.5,0.3-0.9,0.7-1.4,1.1c-0.3,0.2-0.5,0.4-0.8,0.7c-0.4,0.4-0.8,0.7-1.3,1.1c-0.3,0.2-0.5,0.5-0.8,0.7
					c-0.2,0.2-0.3,0.3-0.5,0.4c-0.4,0.4-0.8,0.8-1.2,1.2c0,0,0,0,0,0c-0.4,0.4-0.8,0.9-1.2,1.4c-0.1,0.1-0.3,0.3-0.4,0.5
					c-0.3,0.4-0.6,0.7-0.9,1.1c-0.2,0.2-0.4,0.5-0.6,0.7c-0.2,0.2-0.3,0.4-0.4,0.6c-0.2,0.3-0.4,0.6-0.6,0.8
					c-0.1,0.2-0.3,0.4-0.4,0.6c-0.2,0.3-0.5,0.7-0.7,1c-0.1,0.2-0.3,0.4-0.4,0.7c-0.1,0.1-0.1,0.2-0.2,0.3c-0.4,0.6-0.8,1.3-1.2,1.9
					c0,0,0,0.1-0.1,0.1c-0.1,0.1-0.2,0.3-0.2,0.4c-0.3,0.4-0.5,0.9-0.8,1.3c-0.1,0.2-0.2,0.4-0.3,0.7c-0.1,0.2-0.2,0.4-0.3,0.7
					c-0.1,0.2-0.2,0.4-0.3,0.6C79.3,34,79,34.5,78.8,35c0,0.1-0.1,0.2-0.1,0.3c0,0,0,0,0,0.1c-0.3,0.7-0.6,1.4-0.8,2
					c0,0.1-0.1,0.2-0.1,0.4c-0.1,0.2-0.2,0.5-0.3,0.7c-0.1,0.3-0.3,0.7-0.4,1c-0.1,0.3-0.2,0.5-0.2,0.8c-0.1,0.3-0.2,0.6-0.3,0.9
					c-0.1,0.2-0.1,0.4-0.2,0.6c-0.1,0.4-0.2,0.7-0.3,1.1c-0.1,0.4-0.2,0.8-0.3,1.2c0,0.1-0.1,0.3-0.1,0.4c-0.1,0.6-0.3,1.3-0.4,1.9
					c0,0.1,0,0.2-0.1,0.4c0,0.3-0.1,0.6-0.1,0.9c-0.1,0.4-0.1,0.8-0.1,1.2c0,0.3-0.1,0.5-0.1,0.8c-0.1,0.8-0.1,1.7-0.1,2.5
					c0,7.1,2.5,12.2,6.6,14.5l66.7,38.7c-4.1-2.4-6.6-7.4-6.6-14.5c0-0.8,0-1.7,0.1-2.5C141.6,88,141.7,87.8,141.7,87.5z"/>
				<g>
					<path class="st23" d="M142.6,97.3L85.1,63.9c-4.1-2.4-6.6-7.4-6.6-14.5c0-0.8,0-1.7,0.1-2.5c0-0.3,0-0.5,0.1-0.8
						c0-0.4,0.1-0.8,0.1-1.2c0-0.3,0.1-0.6,0.1-0.9c0-0.1,0-0.2,0.1-0.4c0.1-0.6,0.2-1.3,0.4-1.9c0-0.1,0.1-0.3,0.1-0.4
						c0.1-0.4,0.2-0.8,0.3-1.2c0.1-0.4,0.2-0.7,0.3-1.1c0.1-0.2,0.1-0.4,0.2-0.6c0.1-0.3,0.2-0.6,0.3-0.9c0.1-0.3,0.2-0.5,0.2-0.8
						c0.1-0.3,0.2-0.7,0.4-1c0.1-0.3,0.2-0.5,0.3-0.7c0-0.1,0.1-0.3,0.1-0.4c0.3-0.7,0.5-1.4,0.8-2c0,0,0,0,0-0.1
						c0-0.1,0.1-0.2,0.1-0.3c0.2-0.5,0.5-1.1,0.7-1.6c0.1-0.2,0.2-0.4,0.3-0.6c0.1-0.2,0.2-0.4,0.3-0.7c0.1-0.2,0.2-0.4,0.3-0.7
						c0.2-0.5,0.5-0.9,0.7-1.3c0.1-0.1,0.2-0.3,0.2-0.4c0,0,0-0.1,0.1-0.1c0.4-0.6,0.8-1.3,1.2-1.9c0.1-0.1,0.1-0.2,0.2-0.3
						c0.1-0.2,0.3-0.4,0.4-0.7c0.2-0.3,0.5-0.7,0.7-1c0.1-0.2,0.3-0.4,0.4-0.6c0.2-0.3,0.4-0.6,0.6-0.8c0.2-0.2,0.3-0.4,0.4-0.6
						c0.2-0.2,0.4-0.5,0.6-0.7c0.3-0.4,0.6-0.7,0.9-1.1c0.1-0.2,0.2-0.3,0.4-0.5c0.4-0.5,0.8-0.9,1.2-1.4c0,0,0,0,0,0
						c0.4-0.4,0.8-0.8,1.2-1.3c0.2-0.2,0.3-0.3,0.5-0.4c0.1-0.1,0.3-0.3,0.4-0.4c-0.3,0.2-0.7,0.5-1,0.7c-0.3,0.2-0.5,0.4-0.8,0.7
						c-0.4,0.4-0.8,0.7-1.3,1.1c-0.3,0.2-0.5,0.5-0.8,0.7c-0.2,0.2-0.3,0.3-0.5,0.4c-0.4,0.4-0.8,0.8-1.2,1.2c0,0,0,0,0,0
						c-0.4,0.4-0.8,0.9-1.2,1.4c-0.1,0.2-0.3,0.3-0.4,0.5c-0.3,0.4-0.6,0.7-0.9,1.1c-0.2,0.2-0.4,0.5-0.6,0.7
						c-0.2,0.2-0.3,0.4-0.4,0.6c-0.2,0.3-0.4,0.6-0.6,0.8c-0.1,0.2-0.3,0.4-0.4,0.6c-0.2,0.3-0.5,0.7-0.7,1
						c-0.1,0.2-0.3,0.4-0.4,0.7c-0.1,0.1-0.1,0.2-0.2,0.3c-0.4,0.6-0.8,1.3-1.2,1.9c0,0,0,0.1-0.1,0.1c-0.1,0.1-0.2,0.3-0.3,0.4
						c-0.3,0.4-0.5,0.9-0.7,1.3c-0.1,0.2-0.2,0.4-0.3,0.7c-0.1,0.2-0.2,0.4-0.3,0.7c-0.1,0.2-0.2,0.4-0.3,0.6
						c-0.3,0.5-0.5,1.1-0.7,1.6c0,0.1-0.1,0.2-0.1,0.3c0,0,0,0,0,0.1c-0.3,0.7-0.6,1.4-0.8,2c0,0.1-0.1,0.2-0.1,0.4
						c-0.1,0.3-0.2,0.5-0.3,0.7c-0.1,0.3-0.3,0.7-0.4,1c-0.1,0.3-0.2,0.5-0.2,0.8c-0.1,0.3-0.2,0.6-0.3,0.9
						c-0.1,0.2-0.1,0.4-0.2,0.6c-0.1,0.4-0.2,0.7-0.3,1.1c-0.1,0.4-0.2,0.8-0.3,1.2c0,0.1-0.1,0.3-0.1,0.4c-0.1,0.6-0.3,1.3-0.4,1.9
						c0,0.1,0,0.2-0.1,0.4c0,0.3-0.1,0.6-0.1,0.9c0,0.4-0.1,0.8-0.1,1.2c0,0.3-0.1,0.5-0.1,0.8c-0.1,0.8-0.1,1.7-0.1,2.5
						c0,7.1,2.5,12.2,6.6,14.5l66.7,38.7C145.7,103.8,143.7,101.1,142.6,97.3z"/>
				</g>
				<g>
					<path class="st24" d="M164.1,51.7c12.5-7.2,22.7-1.4,22.7,12.9c0,14.4-10.1,31.9-22.6,39.1c-12.5,7.2-22.7,1.4-22.7-12.9
						C141.5,76.4,151.6,58.9,164.1,51.7z"/>
				</g>
				<path class="st25" d="M181.7,50.6c1.8,2.7,2.9,6.4,2.9,11c0,14.4-10.1,31.9-22.6,39.1c-7.2,4.2-13.7,4-17.9,0.3
					c3.9,5.7,11.3,6.9,19.8,1.9c12.5-7.2,22.6-24.7,22.6-39.1C186.5,57.8,184.7,53.2,181.7,50.6z"/>
				<g>
					<path class="st26" d="M162.4,55.2c9.9-5.7,17.9-1.1,17.9,10.2c0,11.3-7.9,25.2-17.8,30.9c-9.9,5.7-17.9,1.1-17.9-10.2
						C144.6,74.7,152.6,60.9,162.4,55.2z"/>
				</g>
				<g>
					<path class="st27" d="M160.9,57.5c8.1-4.7,14.6-0.9,14.7,8.4c0,9.3-6.5,20.6-14.6,25.2c-8.1,4.7-14.6,0.9-14.7-8.4
						C146.3,73.5,152.8,62.2,160.9,57.5z"/>
				</g>
				<g>
					<path class="st28" d="M159.9,61.7c5.7-3.3,10.3-0.6,10.3,5.9c0,6.5-4.6,14.4-10.2,17.7c-5.7,3.3-10.3,0.6-10.3-5.9
						C149.6,72.9,154.2,65,159.9,61.7z"/>
				</g>
				<g>
					<path class="st29" d="M159.6,67.9c2.5-1.5,4.6-0.3,4.6,2.6c0,2.9-2,6.5-4.6,7.9c-2.5,1.5-4.6,0.3-4.6-2.6
						C155,72.9,157,69.4,159.6,67.9z"/>
				</g>
				<g>
					<path class="st30" d="M160.1,70.7c1-0.6,1.7-0.1,1.7,1c0,1.1-0.8,2.4-1.7,3c-1,0.6-1.7,0.1-1.7-1
						C158.3,72.6,159.1,71.2,160.1,70.7z"/>
				</g>
				<g>
					<g>
						<path class="st31" d="M174.2,51.4L174.2,51.4c6.2,0,9.9,5,9.9,13.4c0,13.5-9.5,30-21.3,36.8c-3.1,1.8-6.2,2.8-8.9,2.8
							c-6.2,0-9.9-5-9.9-13.4c0-13.5,9.5-30,21.3-36.8C168.5,52.3,171.6,51.4,174.2,51.4L174.2,51.4z M174.2,48.7
							c-3.1,0-6.5,1-10.2,3.1c-12.5,7.2-22.6,24.7-22.6,39.1c0,10.2,5.1,16.1,12.6,16.1c3.1,0,6.5-1,10.2-3.1
							c12.5-7.2,22.6-24.7,22.6-39.1C186.7,54.6,181.6,48.7,174.2,48.7L174.2,48.7z"/>
					</g>
				</g>
			</g>
		</g>
		<g class="st32">
			<path class="st24" d="M145.6,101.4c0-10.4,4.2-20.4,11.5-27.8c7.3-7.3,17.4-11.5,27.8-11.5h0.3c0.5,0,1,0,1.5,0
				c-1.3-12.3-10.9-16.9-22.6-10.2c-12.5,7.2-22.6,24.7-22.6,39.1c0,5.6,1.6,9.8,4.2,12.6C145.6,102.9,145.6,102.1,145.6,101.4z"/>
		</g>
		<g>
			<g class="st0">
				<path class="st33" d="M147.2,92.9c0-0.2,0.1-0.4,0.1-0.7c0-0.3,0.1-0.7,0.2-1c0-0.3,0.1-0.5,0.1-0.8c0.1-0.3,0.1-0.7,0.2-1
					c0-0.2,0.1-0.4,0.1-0.6c0.2-0.9,0.4-1.8,0.6-2.6c0-0.1,0.1-0.3,0.1-0.4c0.2-0.8,0.4-1.5,0.7-2.3c0-0.1,0-0.1,0.1-0.2
					c0.2-0.7,0.5-1.5,0.8-2.2c0.1-0.2,0.1-0.4,0.2-0.6c0.2-0.6,0.5-1.2,0.7-1.8c0.1-0.1,0.1-0.2,0.2-0.4c0.3-0.7,0.6-1.4,0.9-2.1
					c0.1-0.2,0.1-0.3,0.2-0.5c0.3-0.6,0.6-1.1,0.8-1.7c0.1-0.2,0.2-0.3,0.3-0.5c0.4-0.7,0.7-1.3,1.1-2c0.1-0.1,0.1-0.2,0.2-0.3
					c0.3-0.6,0.7-1.1,1-1.7c0.1-0.2,0.2-0.4,0.3-0.6c0.4-0.7,0.9-1.3,1.3-2c0.1-0.1,0.1-0.2,0.2-0.2c0.5-0.7,1-1.4,1.5-2
					c0.1-0.1,0.1-0.2,0.2-0.3c0.6-0.8,1.3-1.6,1.9-2.4c0.1-0.1,0.2-0.2,0.3-0.3c0.4-0.5,0.8-0.9,1.2-1.3c0.1-0.1,0.1-0.1,0.2-0.2
					c0.4-0.5,0.9-0.9,1.3-1.3c0.1-0.1,0.2-0.2,0.3-0.3c0.6-0.6,1.2-1.2,1.8-1.7c0.1,0,0.1-0.1,0.1-0.1c0.6-0.6,1.3-1.1,1.9-1.6
					c0.1-0.1,0.2-0.2,0.4-0.3c0.6-0.5,1.3-1,1.9-1.4c0.1-0.1,0.2-0.2,0.4-0.2c0.7-0.5,1.4-0.9,2.1-1.3c0.6-0.3,1.1-0.6,1.7-0.9
					c0.2-0.1,0.3-0.2,0.5-0.2c0.4-0.2,0.8-0.4,1.2-0.6c0.2-0.1,0.3-0.1,0.5-0.2c0.4-0.2,0.8-0.3,1.2-0.4c0.1,0,0.2-0.1,0.3-0.1
					c0.5-0.2,1-0.3,1.4-0.4c0.3-0.1,0.5-0.1,0.8-0.2c0.1,0,0.3-0.1,0.4-0.1c0.4-0.1,0.8-0.2,1.2-0.2c0.6-0.1,1.2-0.1,1.8-0.2
					c0.1,0,0.2,0,0.3,0c0.5,0,1,0,1.5,0c0.1,0,0.2,0,0.3,0c0.4,0,0.8,0.1,1.2,0.1c0.1,0,0.2,0,0.4,0.1c0.5,0.1,0.9,0.2,1.3,0.3
					c0,0,0,0,0,0c0.4,0.1,0.8,0.3,1.2,0.4c0.1,0,0.2,0.1,0.3,0.1c0.3,0.2,0.7,0.3,1,0.5c0.1,0.1,0.2,0.1,0.3,0.2
					c-27.8-16.1-55.6-32.3-83.3-48.4c0,0-0.1-0.1-0.1-0.1c-0.1,0-0.1-0.1-0.2-0.1c-0.3-0.2-0.6-0.3-1-0.5c-0.1,0-0.1-0.1-0.2-0.1
					c-0.1,0-0.1,0-0.2-0.1c-0.8-0.3-1.7-0.6-2.6-0.8c0,0-0.1,0-0.1,0c-0.1,0-0.1,0-0.2,0c-0.4-0.1-0.8-0.1-1.2-0.1
					c-0.1,0-0.1,0-0.2,0c0,0,0,0-0.1,0c-0.5,0-1,0-1.5,0c-0.1,0-0.1,0-0.2,0c-0.1,0-0.1,0-0.2,0c-0.6,0-1.2,0.1-1.8,0.2c0,0,0,0,0,0
					c-0.4,0.1-0.8,0.1-1.2,0.2c-0.2,0-0.3,0.1-0.5,0.1c-0.2,0.1-0.5,0.1-0.7,0.2c0,0,0,0-0.1,0c-0.5,0.1-1,0.3-1.4,0.4
					c-0.1,0-0.2,0.1-0.3,0.1c-0.4,0.1-0.8,0.3-1.2,0.5c-0.1,0-0.1,0-0.1,0.1c-0.1,0-0.2,0.1-0.3,0.1c-0.4,0.2-0.9,0.4-1.3,0.6
					c-0.2,0.1-0.3,0.1-0.5,0.2C91.1,3,90.6,3.3,90,3.6c-0.7,0.4-1.4,0.9-2.1,1.3c-0.1,0.1-0.2,0.1-0.3,0.2c-0.7,0.5-1.3,0.9-2,1.4
					c-0.1,0.1-0.2,0.2-0.3,0.3c-0.7,0.5-1.3,1.1-2,1.6c0,0-0.1,0.1-0.1,0.1c-0.6,0.6-1.3,1.1-1.9,1.8c0,0-0.1,0.1-0.2,0.1
					c0,0-0.1,0.1-0.1,0.1c-0.9,0.9-1.8,1.9-2.7,2.9c0,0-0.1,0.1-0.1,0.1c0,0-0.1,0.1-0.1,0.1c-0.7,0.8-1.4,1.6-2,2.5c0,0,0,0,0,0
					c0,0-0.1,0.1-0.1,0.1c-0.5,0.7-1.1,1.4-1.6,2.1c0,0-0.1,0.1-0.1,0.1c0,0,0,0,0,0.1c-0.5,0.7-0.9,1.4-1.4,2.1
					c0,0.1-0.1,0.1-0.1,0.2c-0.1,0.1-0.1,0.2-0.2,0.3c-0.4,0.6-0.7,1.2-1.1,1.8c0,0.1-0.1,0.1-0.1,0.2c0,0,0,0,0,0.1
					c-0.4,0.7-0.8,1.3-1.1,2c0,0-0.1,0.1-0.1,0.1c-0.1,0.1-0.1,0.2-0.1,0.3c-0.3,0.6-0.6,1.1-0.9,1.7c0,0.1-0.1,0.2-0.1,0.3
					c0,0.1-0.1,0.1-0.1,0.2c-0.3,0.7-0.6,1.4-1,2.1c0,0,0,0,0,0.1c0,0.1-0.1,0.1-0.1,0.2c-0.3,0.6-0.5,1.3-0.8,1.9
					c0,0.1-0.1,0.2-0.1,0.3c0,0.1-0.1,0.2-0.1,0.2c-0.3,0.7-0.6,1.5-0.8,2.2c0,0,0,0,0,0c0,0,0,0.1,0,0.1c-0.3,0.8-0.5,1.6-0.7,2.4
					c0,0.1-0.1,0.2-0.1,0.2c0,0,0,0.1,0,0.1c-0.2,0.9-0.5,1.8-0.7,2.7c0,0.1,0,0.1-0.1,0.2c0,0.1,0,0.2-0.1,0.3
					c-0.1,0.4-0.1,0.7-0.2,1.1c0,0.2-0.1,0.4-0.1,0.7c-0.1,0.4-0.1,0.7-0.2,1.1c0,0.2-0.1,0.3-0.1,0.5c0,0,0,0.1,0,0.1
					c-0.1,0.8-0.2,1.5-0.2,2.3c0,0.2,0,0.3,0,0.5c0,0.8-0.1,1.5-0.1,2.3l83.3,48.4c0-0.8,0-1.5,0.1-2.3c0-0.2,0-0.3,0-0.5
					C147,94.4,147.1,93.6,147.2,92.9z"/>
				<g>
					<path class="st34" d="M109.3,1.8c-0.1,0-0.1-0.1-0.1-0.1c-0.1,0-0.1-0.1-0.2-0.1c-0.3-0.2-0.6-0.3-1-0.5
						c-0.1,0-0.1-0.1-0.2-0.1c-0.1,0-0.1,0-0.2-0.1c-0.8-0.3-1.7-0.6-2.6-0.8c0,0-0.1,0-0.1,0c-0.1,0-0.1,0-0.2,0
						c-0.4-0.1-0.8-0.1-1.2-0.1c-0.1,0-0.1,0-0.2,0c0,0,0,0-0.1,0c-0.5,0-1,0-1.5,0c-0.1,0-0.1,0-0.2,0c-0.1,0-0.1,0-0.2,0
						c-0.6,0-1.2,0.1-1.8,0.2c0,0,0,0,0,0c-0.4,0.1-0.8,0.1-1.2,0.2c-0.2,0-0.3,0.1-0.5,0.1c-0.2,0.1-0.5,0.1-0.7,0.2c0,0,0,0-0.1,0
						c-0.5,0.1-1,0.3-1.4,0.4c-0.1,0-0.2,0.1-0.3,0.1c-0.4,0.1-0.8,0.3-1.2,0.5c0,0-0.1,0-0.1,0.1c-0.1,0-0.2,0.1-0.3,0.1
						c-0.4,0.2-0.9,0.4-1.3,0.6c-0.2,0.1-0.3,0.1-0.5,0.2C91.5,3,91,3.3,90.4,3.6C89.7,4,89,4.5,88.3,4.9C88.2,5,88.1,5.1,88,5.2
						c-0.7,0.5-1.3,0.9-2,1.4c-0.1,0.1-0.2,0.2-0.3,0.3c-0.7,0.5-1.3,1.1-2,1.6c0,0-0.1,0.1-0.1,0.1c-0.6,0.6-1.3,1.1-1.9,1.8
						c-0.1,0-0.1,0.1-0.2,0.1c0,0-0.1,0.1-0.1,0.1c-0.9,0.9-1.8,1.9-2.7,2.9c0,0-0.1,0.1-0.1,0.1c0,0-0.1,0.1-0.1,0.1
						c-0.7,0.8-1.4,1.6-2,2.5c0,0,0,0,0,0c0,0-0.1,0.1-0.1,0.1c-0.5,0.7-1.1,1.4-1.6,2.1c0,0-0.1,0.1-0.1,0.1c0,0,0,0,0,0.1
						c-0.5,0.7-0.9,1.4-1.4,2.1c0,0.1-0.1,0.1-0.1,0.2c-0.1,0.1-0.1,0.2-0.2,0.3c-0.4,0.6-0.7,1.2-1.1,1.8c0,0.1-0.1,0.1-0.1,0.2
						c0,0,0,0.1,0,0.1c-0.4,0.7-0.8,1.3-1.1,2c0,0-0.1,0.1-0.1,0.1c-0.1,0.1-0.1,0.2-0.1,0.3c-0.3,0.6-0.6,1.1-0.9,1.7
						c0,0.1-0.1,0.2-0.1,0.3c0,0.1-0.1,0.1-0.1,0.2c-0.3,0.7-0.6,1.4-1,2.1c0,0,0,0,0,0.1c0,0.1-0.1,0.1-0.1,0.2
						c-0.3,0.6-0.5,1.3-0.8,1.9c0,0.1-0.1,0.2-0.1,0.3c0,0.1-0.1,0.2-0.1,0.2c-0.3,0.7-0.6,1.5-0.8,2.2c0,0,0,0,0,0c0,0,0,0.1,0,0.1
						c-0.1,0.2-0.1,0.3-0.2,0.5c0.2-0.4,0.3-0.8,0.5-1.2c0-0.1,0.1-0.1,0.1-0.2c0,0,0,0,0-0.1c0.3-0.7,0.6-1.4,1-2.1
						c0-0.1,0.1-0.1,0.1-0.2c0-0.1,0.1-0.2,0.1-0.3c0.3-0.6,0.6-1.1,0.9-1.7c0.1-0.1,0.1-0.2,0.1-0.3c0,0,0.1-0.1,0.1-0.1
						c0.4-0.7,0.7-1.4,1.1-2c0,0,0-0.1,0-0.1c0-0.1,0.1-0.1,0.1-0.2c0.4-0.6,0.7-1.2,1.1-1.8c0.1-0.1,0.1-0.2,0.2-0.3
						c0-0.1,0.1-0.1,0.1-0.2c0.4-0.7,0.9-1.4,1.4-2.1c0,0,0,0,0-0.1c0-0.1,0.1-0.1,0.1-0.1c0.5-0.7,1-1.4,1.6-2.1
						c0,0,0.1-0.1,0.1-0.1c0,0,0,0,0,0c0.7-0.8,1.3-1.7,2-2.5c0,0,0.1-0.1,0.1-0.1c0,0,0.1-0.1,0.1-0.1c0.9-1,1.8-2,2.7-2.9
						c0,0,0.1-0.1,0.1-0.1c0,0,0.1-0.1,0.2-0.1c0.6-0.6,1.2-1.2,1.9-1.8c0,0,0.1-0.1,0.1-0.1c0.6-0.6,1.3-1.1,2-1.6
						c0.1-0.1,0.2-0.2,0.3-0.3c0.7-0.5,1.3-1,2-1.4c0.1-0.1,0.2-0.1,0.3-0.2c0.7-0.5,1.4-0.9,2.1-1.3c0.6-0.3,1.1-0.6,1.7-0.9
						c0.2-0.1,0.3-0.2,0.5-0.2c0.4-0.2,0.9-0.4,1.3-0.6c0.1,0,0.2-0.1,0.3-0.1c0,0,0.1,0,0.1-0.1c0.4-0.2,0.8-0.3,1.2-0.5
						c0.1,0,0.2-0.1,0.3-0.1c0.5-0.2,1-0.3,1.4-0.4c0,0,0,0,0.1,0c0.2-0.1,0.5-0.1,0.7-0.2c0.2,0,0.3-0.1,0.5-0.1
						c0.4-0.1,0.8-0.2,1.2-0.2c0,0,0,0,0,0c0.6-0.1,1.2-0.1,1.8-0.2c0.1,0,0.1,0,0.2,0c0.1,0,0.1,0,0.2,0c0.5,0,1,0,1.5,0
						c0,0,0,0,0.1,0c0.1,0,0.1,0,0.2,0c0.4,0,0.8,0.1,1.2,0.1c0.1,0,0.1,0,0.2,0c0,0,0.1,0,0.1,0c0.9,0.2,1.8,0.4,2.6,0.8
						c0.1,0,0.1,0,0.2,0.1c0.1,0,0.1,0.1,0.2,0.1c0.3,0.1,0.7,0.3,1,0.5c0.1,0,0.1,0.1,0.2,0.1c0.1,0,0.1,0.1,0.1,0.1
						c24.6,14.3,49.3,28.6,73.9,43c0.4-0.1,0.8-0.2,1.2-0.2c0.6-0.1,1.2-0.1,1.8-0.2c0.1,0,0.2,0,0.3,0c0.5,0,1,0,1.5,0
						c0.1,0,0.2,0,0.3,0c0.4,0,0.8,0.1,1.2,0.1c0.1,0,0.2,0,0.4,0.1c0.5,0.1,0.9,0.2,1.3,0.3c0,0,0,0,0,0c0.4,0.1,0.8,0.3,1.2,0.4
						c0.1,0,0.2,0.1,0.3,0.1c0.3,0.2,0.7,0.3,1,0.5c0.1,0.1,0.2,0.1,0.3,0.2C164.8,34.1,137.1,17.9,109.3,1.8z"/>
				</g>
				<g>
					<path class="st35" d="M76.7,43.6c0-0.8,0-1.5,0.1-2.3c0-0.2,0-0.3,0-0.5c0.1-0.8,0.1-1.5,0.2-2.3c0,0,0-0.1,0-0.1
						c0-0.2,0-0.3,0.1-0.5c0.1-0.4,0.1-0.7,0.2-1.1c0-0.2,0.1-0.4,0.1-0.7c0.1-0.4,0.1-0.7,0.2-1.1c0-0.1,0-0.2,0.1-0.3
						c0-0.1,0-0.1,0.1-0.2c0.2-0.9,0.4-1.8,0.7-2.7c0,0,0-0.1,0-0.1c0-0.1,0.1-0.2,0.1-0.2c0.2-0.8,0.5-1.6,0.7-2.4c0,0,0-0.1,0-0.1
						c0,0,0,0,0,0c0.3-0.8,0.5-1.5,0.8-2.2c0-0.1,0.1-0.2,0.1-0.2c0-0.1,0.1-0.2,0.1-0.3c0.2-0.6,0.5-1.3,0.8-1.9
						c0-0.1,0.1-0.1,0.1-0.2c0,0,0,0,0-0.1c0.3-0.7,0.6-1.4,1-2.1c0-0.1,0.1-0.1,0.1-0.2c0-0.1,0.1-0.2,0.1-0.3
						c0.3-0.6,0.6-1.1,0.9-1.7c0.1-0.1,0.1-0.2,0.1-0.3c0,0,0.1-0.1,0.1-0.1c0.4-0.7,0.7-1.4,1.1-2c0,0,0-0.1,0-0.1
						c0-0.1,0.1-0.1,0.1-0.2c0.4-0.6,0.7-1.2,1.1-1.8c0.1-0.1,0.1-0.2,0.2-0.3c0-0.1,0.1-0.1,0.1-0.2c0.4-0.7,0.9-1.4,1.4-2.1
						c0,0,0,0,0-0.1c0-0.1,0.1-0.1,0.1-0.1c0.5-0.7,1-1.4,1.6-2.1c0,0,0.1-0.1,0.1-0.1c0,0,0,0,0,0c0.7-0.8,1.3-1.7,2-2.5
						c0,0,0.1-0.1,0.1-0.1c0,0,0.1-0.1,0.1-0.1c0.9-1,1.8-2,2.7-2.9c0,0,0.1-0.1,0.1-0.1c0.1,0,0.1-0.1,0.2-0.1
						c0.6-0.6,1.2-1.2,1.9-1.8c0,0,0.1-0.1,0.1-0.1c0.6-0.6,1.3-1.1,2-1.6c0.1-0.1,0.2-0.2,0.3-0.3c0.1-0.1,0.2-0.1,0.3-0.2
						c-0.4,0.1-0.7,0.1-1.1,0.2c-0.2,0-0.3,0.1-0.5,0.1c-0.2,0.1-0.5,0.1-0.7,0.2c0,0,0,0-0.1,0c-0.5,0.1-1,0.3-1.4,0.4
						c-0.1,0-0.2,0.1-0.3,0.1c-0.4,0.1-0.8,0.3-1.2,0.5c-0.1,0-0.1,0-0.1,0.1c-0.1,0-0.2,0.1-0.3,0.1c-0.4,0.2-0.9,0.4-1.3,0.6
						C92,2.9,91.9,2.9,91.7,3c-0.6,0.3-1.1,0.6-1.7,0.9c-0.7,0.4-1.4,0.9-2.1,1.3c-0.1,0.1-0.2,0.1-0.3,0.2c-0.7,0.5-1.3,0.9-2,1.4
						c-0.1,0.1-0.2,0.2-0.3,0.3c-0.7,0.5-1.3,1.1-2,1.6c0,0-0.1,0.1-0.1,0.1c-0.6,0.6-1.3,1.1-1.9,1.8c0,0-0.1,0.1-0.2,0.1
						c0,0-0.1,0.1-0.1,0.1c-0.9,0.9-1.8,1.9-2.7,2.9c0,0-0.1,0.1-0.1,0.1c0,0-0.1,0.1-0.1,0.1c-0.7,0.8-1.4,1.6-2,2.5c0,0,0,0,0,0
						c0,0-0.1,0.1-0.1,0.1c-0.5,0.7-1.1,1.4-1.6,2.1c0,0-0.1,0.1-0.1,0.1c0,0,0,0,0,0.1c-0.5,0.7-0.9,1.4-1.4,2.1
						c0,0.1-0.1,0.1-0.1,0.2c-0.1,0.1-0.1,0.2-0.2,0.3c-0.4,0.6-0.7,1.2-1.1,1.8c0,0.1-0.1,0.1-0.1,0.2c0,0,0,0,0,0.1
						c-0.4,0.7-0.8,1.3-1.1,2c0,0-0.1,0.1-0.1,0.1c-0.1,0.1-0.1,0.2-0.1,0.3c-0.3,0.6-0.6,1.1-0.9,1.7c0,0.1-0.1,0.2-0.1,0.3
						c0,0.1-0.1,0.1-0.1,0.2c-0.3,0.7-0.6,1.4-1,2.1c0,0,0,0,0,0.1c0,0.1-0.1,0.1-0.1,0.2c-0.3,0.6-0.5,1.3-0.8,1.9
						c0,0.1-0.1,0.2-0.1,0.3c0,0.1-0.1,0.2-0.1,0.2c-0.3,0.7-0.6,1.5-0.8,2.2c0,0,0,0,0,0c0,0,0,0.1,0,0.1c-0.3,0.8-0.5,1.6-0.7,2.4
						c0,0.1-0.1,0.2-0.1,0.2c0,0,0,0.1,0,0.1c-0.2,0.9-0.5,1.8-0.7,2.7c0,0.1,0,0.1-0.1,0.2c0,0.1,0,0.2-0.1,0.3
						c-0.1,0.4-0.1,0.7-0.2,1.1c0,0.2-0.1,0.4-0.1,0.7c-0.1,0.4-0.1,0.7-0.2,1.1c0,0.2-0.1,0.3-0.1,0.5c0,0,0,0.1,0,0.1
						c-0.1,0.8-0.2,1.5-0.2,2.3c0,0.2,0,0.3,0,0.5c0,0.8-0.1,1.5-0.1,2.3l83.3,48.4c0-0.8,0-1.5,0.1-2.3c0-0.2,0-0.3,0-0.5
						c0.1-0.7,0.1-1.5,0.2-2.3c0-0.2,0.1-0.4,0.1-0.7c0-0.3,0.1-0.7,0.2-1c0-0.3,0.1-0.5,0.1-0.8c0.1-0.3,0.1-0.7,0.2-1
						c0-0.2,0.1-0.4,0.1-0.6c0.2-0.9,0.4-1.8,0.6-2.6c0-0.1,0.1-0.3,0.1-0.4c0-0.2,0.1-0.3,0.2-0.5L76.7,43.6z"/>
				</g>
				<g>
					<path class="st36" d="M173.4,52.1C188,43.6,200,50.4,200,67.2l-1.7,1c0-15.8-11.2-22.2-25-14.2c-13.7,7.9-24.8,27.2-24.8,43
						l-1.7,1C146.8,81.1,158.7,60.5,173.4,52.1z"/>
				</g>
			</g>
		</g>
	</g>
</g>
</svg>
