<?xml version="1.0" encoding="utf-8"?>
<!-- Generator: Adobe Illustrator 25.4.1, SVG Export Plug-In . SVG Version: 6.00 Build 0)  -->
<svg version="1.1" id="Layer_1" xmlns="http://www.w3.org/2000/svg" xmlns:xlink="http://www.w3.org/1999/xlink" x="0px" y="0px" viewBox="0 0 200 333.7" style="enable-background:new 0 0 200 333.7;" xml:space="preserve">
<style type="text/css">
	.st0{fill:#FFFFFF;}
	.st1{fill:#010101;}
	.st2{fill-rule:evenodd;clip-rule:evenodd;fill:#010101;}
	.st3{fill-rule:evenodd;clip-rule:evenodd;fill:#FFFFFF;}
	.st4{fill-rule:evenodd;clip-rule:evenodd;fill:#ED2224;}
</style>
<g>
	<g>
		<path class="st0" d="M6.2,4.8C4.9,4,3.7,4.1,3.7,4.9v212.7c0,0.8,1.1,2.3,2.5,3.2L194,329.1c1.2,0.7,2.1,0.5,2.1-0.5V115.9
			c0-1.1-1-2.2-2.1-2.8L6.2,4.8z"/>
	</g>
</g>
<g>
	<g>
		<path class="st1" d="M193.4,332.6L7,224.9c-3.8-2.2-7-6.9-7-10.3V3.3C0-0.1,3.1-1,7,1.2l186.4,107.6c3.7,2.2,6.6,6.4,6.6,9.9
			v211.4C200,333.6,197.1,334.7,193.4,332.6z M7,5.7C5.7,5,4.5,5.1,4.5,5.9v211.4c0,0.8,1.1,2.3,2.5,3.1l186.4,107.6
			c1.2,0.7,2.1,0.5,2.1-0.5V116.1c0-1.1-1-2.2-2.1-2.8L7,5.7z"/>
	</g>
</g>
<g>
	<g>
		<g>
			
				<ellipse transform="matrix(0.7992 -0.6011 0.6011 0.7992 -40.1959 80.4921)" class="st2" cx="100.4" cy="100.4" rx="7.6" ry="13.5"/>
		</g>
		<g>
			<path class="st2" d="M111.7,122.3c-8.1-4.7-15-8.6-23-13.3c-8.1-4.7-12.9-2.9-12.9,5.5c0,10.1,0,31.4,0,39.1
				c0,4.6,2.4,7.6,5.1,9.2c2.6,1.5,5.1,1.4,5.1-3.2c0-4,0-26.4,0-31.7c0-0.8,0.1-1.3,0.7-0.9c0.9,0.5,0.8,1.2,0.8,1.7
				c0,1.1,0,55.7,0,75c0,3.4,1.9,7.4,5.9,9.7c3.8,2.2,6.1,0.8,6-3.2c0-2.8,0-48.1,0-48.1l0.9,0.5l0.9,0.5c0,0,0,45.4,0,48.1
				c0,4,2.3,8,6,10.2c4,2.3,5.9,0.4,5.9-2.9c0-19.3,0-73.8,0-75c0-0.5-0.2-1.4,0.8-0.8c0.7,0.4,0.7,1,0.7,1.8c0,5.3,0,27.8,0,31.7
				c0,4.6,2.4,7.6,5.1,9.1c2.7,1.5,5.1,1.3,5.1-3.3c0-7.7,0-29,0-39.1C124.7,134.3,119.7,126.9,111.7,122.3z"/>
		</g>
	</g>
	<g>
		<g>
			<path class="st3" d="M43,73.4c-0.4,0.1-0.9,0.2-1.3,0.3c34.3,54.4,68.7,108.9,103,163.4c0.8,0.4,1.7,0.8,2.5,1.3
				c2,0.9,4,1.8,5.9,2.4c0.5,0.1,1,0.1,1.5,0.1c0.6-0.1,1.1-0.3,1.6-0.5c1.3-0.9,2.3-2,3.3-3.2c0.2-0.4,0.5-0.7,0.7-1.1
				C125.2,180.7,90.3,125.4,55.5,70.2c-2.2,0.4-4.2,1.1-6.5,1.3c0.3,0,0.6,0,0.8-0.1C47.3,71.6,45.3,72.7,43,73.4z"/>
		</g>
		<g>
			<path class="st4" d="M184.8,203.4c-0.5,23.8-9.6,39.7-28,45.7c-16.9,5.5-37.2,1.3-60.1-12.9c-21.9-13.5-40.9-32.7-56.4-57.1
				c-16.6-26.2-25.1-51.4-25-74.8c0-21.9,7.7-36.9,22.7-44.2c17.7-8.6,39.7-5,65.6,10.9c23.8,14.7,43.8,35.9,59.6,62.6
				C177.6,158,184.5,181.1,184.8,203.4z M47.8,81.7c-7.6,4.8-12,12.8-13.9,23.2c-1.9,10.5-0.8,22.5,3.4,35.9
				c4.1,13.4,10.7,26.6,19.7,39.3c24.1,34.3,59.6,55.4,84.6,50.1C110.3,180.6,79,131.1,47.8,81.7z M152.6,225.4
				c11.1-8.1,15.9-21.7,13.9-40.9c-2-19.2-10.2-38.8-24.2-58.5c-24-33.6-59.5-54.4-83.4-48.9C90.1,126.6,121.3,175.9,152.6,225.4z"/>
		</g>
	</g>
</g>
<g>
	<path class="st1" d="M19.6,216.7v-12.4l5.3,3c1.3,0.8,2.3,1.4,2.9,2c0.6,0.6,1.1,1.2,1.4,2c0.4,0.8,0.5,1.5,0.5,2.3
		c0,0.9-0.3,1.5-0.8,1.8c-0.5,0.3-1.4,0.2-2.4-0.3c0.5,0.6,1,1.2,1.3,1.8c0.4,0.6,0.8,1.5,1.4,2.8l1.5,3.3l-3-1.7l-1.8-3.7
		c-0.6-1.3-1.1-2.2-1.3-2.6c-0.2-0.4-0.5-0.7-0.8-0.9c-0.3-0.2-0.7-0.5-1.3-0.9l-0.5-0.3v5.2L19.6,216.7z M22.1,211l1.8,1.1
		c1.2,0.7,1.9,1.1,2.2,1.1c0.3,0.1,0.5,0,0.7-0.1c0.2-0.2,0.3-0.4,0.3-0.8c0-0.4-0.1-0.8-0.3-1.2c-0.2-0.4-0.5-0.7-0.9-1
		c-0.2-0.1-0.8-0.5-1.8-1.1l-1.9-1.1V211z"/>
	<path class="st1" d="M32,223.9v-12.4l9.2,5.3v2.1l-6.7-3.9v2.7l6.2,3.6v2.1l-6.2-3.6v3.4l6.9,4v2.1L32,223.9z"/>
	<path class="st1" d="M42.9,226.1l2.4,1.2c0.1,0.9,0.4,1.7,0.9,2.3c0.4,0.6,1.1,1.2,1.8,1.6c0.8,0.5,1.4,0.6,1.8,0.5
		c0.4-0.1,0.6-0.4,0.6-0.8c0-0.3-0.1-0.6-0.3-0.9s-0.5-0.7-0.9-1.1c-0.3-0.3-1-0.8-2-1.7c-1.3-1.1-2.3-2.1-2.8-2.9
		c-0.8-1.1-1.1-2.2-1.1-3.1c0-0.6,0.2-1.1,0.5-1.5c0.4-0.3,0.9-0.5,1.5-0.4c0.7,0.1,1.5,0.4,2.4,1c1.6,0.9,2.7,1.9,3.5,3
		c0.8,1.1,1.2,2.3,1.2,3.4l-2.5-1.3c-0.1-0.7-0.3-1.3-0.7-1.8c-0.4-0.5-0.9-0.9-1.6-1.3c-0.7-0.4-1.3-0.6-1.7-0.5
		c-0.3,0-0.4,0.2-0.4,0.5c0,0.3,0.1,0.6,0.4,1c0.3,0.4,1.1,1.2,2.3,2.2c1.2,1,2.1,1.8,2.7,2.4c0.6,0.6,1,1.3,1.4,2
		c0.3,0.7,0.5,1.5,0.5,2.3c0,0.7-0.2,1.3-0.6,1.6c-0.4,0.4-1,0.5-1.7,0.4c-0.7-0.1-1.6-0.5-2.7-1.1c-1.6-0.9-2.8-2-3.6-3.2
		C43.6,228.9,43.1,227.6,42.9,226.1z"/>
	<path class="st1" d="M57.9,238.8v-10.3l-3.7-2.1v-2.1L64,230v2.1l-3.7-2.1v10.3L57.9,238.8z"/>
	<path class="st1" d="M65.6,243.3v-12.4l5.3,3c1.3,0.8,2.3,1.4,2.9,2c0.6,0.6,1.1,1.2,1.4,2c0.4,0.8,0.5,1.5,0.5,2.3
		c0,0.9-0.3,1.5-0.8,1.8c-0.5,0.3-1.4,0.2-2.4-0.3c0.5,0.6,1,1.2,1.3,1.8c0.4,0.6,0.8,1.5,1.4,2.8l1.5,3.3l-3-1.7l-1.8-3.7
		c-0.6-1.3-1.1-2.2-1.3-2.6c-0.2-0.4-0.5-0.7-0.8-0.9c-0.3-0.2-0.7-0.5-1.3-0.9l-0.5-0.3v5.2L65.6,243.3z M68.1,237.6l1.8,1.1
		c1.2,0.7,1.9,1.1,2.2,1.1c0.3,0.1,0.5,0,0.7-0.1c0.2-0.2,0.3-0.4,0.3-0.8c0-0.4-0.1-0.8-0.3-1.2c-0.2-0.4-0.5-0.7-0.9-1
		c-0.2-0.1-0.8-0.5-1.8-1.1l-1.9-1.1V237.6z"/>
	<path class="st1" d="M78,250.4V238l2.5,1.4v12.4L78,250.4z"/>
	<path class="st1" d="M90.8,253.3l2.4,2.2c-0.4,1.1-1,1.8-1.9,1.9c-0.9,0.2-2-0.1-3.3-0.9c-1.6-0.9-3-2.3-4-4
		c-1.1-1.7-1.6-3.6-1.6-5.5c0-2.1,0.5-3.4,1.6-3.9c1.1-0.5,2.5-0.3,4.2,0.7c1.5,0.9,2.7,2,3.7,3.5c0.6,0.9,1,1.9,1.3,3l-2.5-0.8
		c-0.1-0.7-0.5-1.4-0.9-2c-0.5-0.6-1-1.2-1.7-1.5c-0.9-0.5-1.7-0.6-2.2-0.3c-0.6,0.3-0.9,1.2-0.9,2.7c0,1.6,0.3,2.8,0.8,3.8
		c0.6,1,1.3,1.7,2.2,2.3c0.7,0.4,1.2,0.5,1.7,0.4C90.3,254.5,90.6,254,90.8,253.3z"/>
	<path class="st1" d="M98.2,262v-10.3l-3.7-2.1v-2.1l9.8,5.7v2.1l-3.7-2.1v10.3L98.2,262z"/>
	<path class="st1" d="M105.9,266.5v-12.4l9.2,5.3v2.1l-6.7-3.9v2.7l6.2,3.6v2.1l-6.2-3.6v3.4l6.9,4v2.1L105.9,266.5z"/>
	<path class="st1" d="M117.5,260.8l4.6,2.6c1,0.6,1.8,1.1,2.4,1.6c0.7,0.6,1.3,1.4,1.9,2.2c0.5,0.8,0.9,1.7,1.2,2.7
		c0.3,0.9,0.4,2,0.4,3.2c0,1-0.1,1.8-0.4,2.4c-0.3,0.7-0.8,1.2-1.3,1.4c-0.4,0.2-1,0.2-1.8,0c-0.6-0.1-1.3-0.5-2.2-1l-4.7-2.7V260.8
		z M120,264.3v8.2l1.9,1.1c0.7,0.4,1.2,0.7,1.5,0.8c0.4,0.1,0.7,0.2,1,0.1c0.3-0.1,0.5-0.4,0.7-0.8c0.2-0.5,0.3-1.2,0.3-2.1
		c0-1-0.1-1.7-0.3-2.3c-0.2-0.6-0.4-1.1-0.7-1.6c-0.3-0.5-0.7-0.9-1.2-1.2c-0.3-0.3-1-0.7-2-1.3L120,264.3z"/>
	<path class="st1" d="M145.3,289.2l-2.7-1.6l-1.1-3.4l-4.9-2.9l-1,2.2l-2.6-1.5l4.8-9.6l2.6,1.5L145.3,289.2z M140.7,281.7l-1.7-5.6
		l-1.7,3.6L140.7,281.7z"/>
	<path class="st1" d="M146.6,290v-12.4l5.3,3c1.3,0.8,2.3,1.4,2.9,2c0.6,0.6,1.1,1.2,1.4,2c0.4,0.8,0.5,1.5,0.5,2.3
		c0,0.9-0.3,1.5-0.8,1.8c-0.5,0.3-1.4,0.2-2.4-0.3c0.5,0.6,1,1.2,1.3,1.8c0.4,0.6,0.8,1.5,1.4,2.8l1.5,3.3l-3-1.7l-1.8-3.7
		c-0.6-1.3-1.1-2.2-1.3-2.6c-0.2-0.4-0.5-0.7-0.8-0.9c-0.3-0.2-0.7-0.5-1.3-0.9l-0.5-0.3v5.2L146.6,290z M149.1,284.3l1.8,1.1
		c1.2,0.7,1.9,1.1,2.2,1.1c0.3,0.1,0.5,0,0.7-0.1c0.2-0.2,0.3-0.4,0.3-0.8c0-0.4-0.1-0.8-0.3-1.2c-0.2-0.4-0.5-0.7-0.9-1
		c-0.2-0.1-0.8-0.5-1.8-1.1l-1.9-1.1V284.3z"/>
	<path class="st1" d="M159.1,297.2v-12.4l9.2,5.3v2.1l-6.7-3.9v2.7l6.2,3.6v2.1l-6.2-3.6v3.4l6.9,4v2.1L159.1,297.2z"/>
	<path class="st1" d="M181.7,310.3l-2.7-1.6l-1.1-3.4l-4.9-2.9l-1,2.2l-2.6-1.5l4.8-9.6l2.6,1.5L181.7,310.3z M177.1,302.7l-1.7-5.6
		l-1.7,3.6L177.1,302.7z"/>
</g>
</svg>
