<?xml version="1.0" encoding="utf-8"?>
<!-- Generator: Adobe Illustrator 25.4.1, SVG Export Plug-In . SVG Version: 6.00 Build 0)  -->
<svg version="1.1" id="Layer_1" xmlns="http://www.w3.org/2000/svg" xmlns:xlink="http://www.w3.org/1999/xlink" x="0px" y="0px" viewBox="0 0 200 376.4" style="enable-background:new 0 0 200 376.4;" xml:space="preserve">
<style type="text/css">
	.st0{fill:none;stroke:#C9C7C8;stroke-miterlimit:10;}
	.st1{fill:#A3A1A4;}
	.st2{fill:#C9C7C8;}
	.st3{fill:#F4F4F4;}
	.st4{fill:#E6E7E8;}
	.st5{fill:#1A1A1A;}
</style>
<polyline class="st0" points="40.7,332.9 40.7,325.4 73.4,111.9 "/>
<g id="Layer_3">
	<g>
		<g>
			<g>
				<polygon class="st1" points="117.2,376.3 200,328.8 200,321.6 117.2,369.1 				"/>
			</g>
		</g>
		<g>
			<g>
				<polygon class="st2" points="40.7,325.4 40.7,332.6 117,376.4 117.2,376.3 117.2,369.1 117,369.2 				"/>
			</g>
		</g>
		<g>
			<g>
				<polygon class="st3" points="125.2,276.9 40.7,325.4 117,369.2 200,321.6 				"/>
			</g>
		</g>
	</g>
	<g>
		<g>
			<g>
				<polygon class="st3" points="83.3,105.1 74.7,110.4 150.9,156.4 159.4,151.9 				"/>
			</g>
		</g>
		<g>
			<polygon class="st3" points="74.7,110.3 40.7,325.4 117.1,369.2 125.9,315.4 151,156.4 			"/>
		</g>
		<g>
			<g>
				<polygon class="st1" points="150.7,156.4 117.1,369.2 127.2,363.8 159.4,151.7 				"/>
			</g>
		</g>
	</g>
	<g>
		<g>
			<g>
				<polygon class="st1" points="76.5,204.3 159.3,156.8 159.3,149.6 76.5,197.1 				"/>
			</g>
		</g>
		<g>
			<g>
				<polygon class="st2" points="0,153.4 0,160.6 76.3,204.5 76.5,204.3 76.5,197.1 76.3,197.3 				"/>
			</g>
		</g>
		<g>
			<g>
				<polygon class="st3" points="84.5,104.9 0,153.4 76.3,197.3 159.3,149.6 				"/>
			</g>
		</g>
	</g>
	<g>
		<g>
			<polygon class="st3" points="55.9,0 47.9,3.9 125,44.8 133.6,40.3 			"/>
		</g>
	</g>
	<g>
		<polygon class="st4" points="125.2,44.8 47.9,3.9 21.7,141 99.3,184.1 		"/>
	</g>
	<g>
		<g>
			<polygon class="st1" points="133.6,40.1 124.8,44.8 99.3,184.1 110,178.2 			"/>
		</g>
	</g>
</g>
<g id="Layer_1_00000033333395189139625290000017488460007147868592_">
</g>
<g id="Layer_2_00000092456692328265074050000015606310437987568031_">
	<g id="XMLID_805_">
		<path id="XMLID_806_" class="st5" d="M42,96.6l13.5,7.8l-2.9,17.4L39.1,114L42,96.6z M51,117.9l2-12.1l-9.4-5.4l-2,12.1L51,117.9"/>
	</g>
	<g id="XMLID_803_">
		<polygon id="XMLID_804_" class="st5" points="50.5,107.3 49.4,114 44.2,111 45.3,104.3 		"/>
	</g>
	<g id="XMLID_756_">
		<polygon id="XMLID_757_" class="st5" points="70.1,131.9 70.6,129 72.8,130.3 72.3,133.2 		"/>
	</g>
	<g id="XMLID_732_">
		<polygon id="XMLID_733_" class="st5" points="51.5,83.5 51,86.4 50.5,89.3 52.7,90.5 52.3,93.4 54.5,94.7 55,91.8 57.2,93.1 
			57.6,90.2 62.1,92.8 61.6,95.7 59.4,94.4 58.9,97.2 63.3,99.8 64.3,94.1 66.5,95.4 66,98.2 68.2,99.5 67.8,102.4 67.3,105.2 
			60.6,101.4 60.2,104.2 57.9,102.9 58.4,100.1 56.2,98.8 55.7,101.7 49.1,97.8 49.6,95 47.4,93.7 46.9,96.5 44.7,95.2 45.1,92.4 
			42.9,91.1 44.4,82.6 46.6,83.8 46.1,86.7 48.3,88 48.8,85.1 46.6,83.8 47.1,81 		"/>
	</g>
	<g id="XMLID_698_">
		<polygon id="XMLID_699_" class="st5" points="77.7,130 79.9,131.3 79.4,134.2 77.2,132.9 76.7,135.8 74.5,134.5 75,131.6 
			72.8,130.3 73.3,127.5 75.5,128.8 76,125.9 78.2,127.2 		"/>
	</g>
	<g id="XMLID_688_">
		<path id="XMLID_689_" class="st5" d="M72.5,117.6l2.2,1.3l-1.4,8.6l-4.4-2.6l-1,5.7l-2.2-1.3l1.4-8.6l-2.2-1.3l0.5-2.9l-2.2-1.3
			l-1,5.7l2.2,1.3l-0.5,2.9l-4.4-2.6l0.5-2.9l-2.2-1.3l-1,5.7l-2.2-1.3l1.9-11.4l2.2,1.3l0.5-2.9l-2.2-1.3l0.5-2.9l2.2,1.3l0.5-2.9
			l4.4,2.6l-1,5.7l4.4,2.6l0.5-2.9l4.4,2.6L72.5,117.6z M71.5,123.3l0.5-2.9l-2.2-1.3l-0.5,2.9L71.5,123.3"/>
	</g>
	<g id="XMLID_666_">
		<polygon id="XMLID_667_" class="st5" points="72.7,102.1 72.2,104.9 74.4,106.2 73.9,109.1 76.1,110.4 76.6,107.5 78.8,108.8 
			76.9,120.2 74.7,118.9 75.2,116.1 73,114.8 73.4,111.9 66.8,108.1 67.3,105.2 69.5,106.5 70.4,100.8 		"/>
	</g>
	<g id="XMLID_582_">
		<path id="XMLID_583_" class="st5" d="M51,42.6l13.5,7.8l-2.9,17.4L48.1,60L51,42.6z M60,64l2-12.1l-9.4-5.4l-2,12.1L60,64"/>
	</g>
	<g id="XMLID_580_">
		<polygon id="XMLID_581_" class="st5" points="59.5,53.4 58.4,60 53.2,57 54.3,50.4 		"/>
	</g>
	<g id="XMLID_404_">
		<path id="XMLID_405_" class="st5" d="M89.4,74.2L87.2,73l-0.5,2.9l2.2,1.3L88.5,80l-2.2-1.3l-0.5,2.9l2.2,1.3l-0.5,2.9l-2.2-1.3
			l-0.5,2.8l-4.4-2.6l0.5-2.9l-2.2-1.3l-1,5.7l4.4,2.6l-1.4,8.6l2.2,1.3l-1.4,8.6l-4.4-2.6l0.5-2.9l-2.2-1.3l0.5-2.9l-6.6-3.8
			l-0.5,2.9l-2.2-1.3l0.5-2.9l-2.2-1.3l-0.5,2.9l-2.2-1.3l0.5-2.9l-4.4-2.6l-0.5,2.9L55.4,89L55,91.8l-2.2-1.3l1-5.7l-2.2-1.3
			l0.5-2.9L47.7,78l-0.6,3l-2.2-1.3l1-5.7l2.2,1.3l0.5-2.9L53,75l-0.5,2.9l4.4,2.6l-0.5,2.9l11.1,6.4l0.5-2.9l0.5-2.8l-2.2-1.3
			l-0.5,2.8l-8.9-5.1l0.5-2.9L52.9,75l0.5-2.9L49,69.6l-0.5,2.9l-2.2-1.3l1.4-8.6l2.2,1.3l-0.5,2.9l13.3,7.7l0.5-2.9l2.2,1.3l1-5.7
			l2.2,1.3l0.5-2.9l-2.2-1.3l0.5-2.9l-2.2-1.3l0.5-2.9l8.9,5.1l1-5.7l4.4,2.6l-0.5,2.9l-2.2-1.3l-1,5.7l2.2,1.3l0.5-2.9l2.2,1.3
			l1-5.7l8.9,5.1L89.4,74.2z M72.4,89.4l2.2,1.3l1.4-8.6l-2.2-1.3l0.5-2.9L72,76.7l0.5-2.9l2.2,1.3l0.5-2.8l-4.4-2.6l-1,5.7l2.2,1.3
			l-0.5,2.9L67.1,77l-0.5,2.9l2.2,1.3L68.4,84l2.2,1.3l0.5-2.9l2.2,1.3L72.4,89.4l-2.2-1.3L69.7,91l2.2,1.3L72.4,89.4 M83.3,67.5
			l4.4,2.6l0.5-2.9l-4.4-2.6L83.3,67.5 M78.5,96.1L78,98.9l2.2,1.3l0.5-2.9L78.5,96.1 M74,65.3l-0.5,2.8l2.2,1.3l0.5-2.8L74,65.3"/>
	</g>
	<g id="XMLID_378_">
		<path id="XMLID_379_" class="st5" d="M98.3,123.2l-2.2-1.3l-1.4,8.6l2.2,1.3l-0.5,2.9l-2.2-1.3l-1.4,8.6l2.2,1.3l-0.5,2.9
			l-4.4-2.6l0.5-2.9l-6.6-3.8l1.4-8.6l-2.2-1.3l-1,5.7l-2.2-1.3l1-5.7l-4.4-2.6l0.5-2.9l2.2,1.3l1-5.7l6.6,3.8l-0.5,2.9l2.2,1.3
			l-1,5.7l2.2,1.3l-0.5,2.9l-2.2-1.3l-0.5,2.9l2.2,1.3l0.5-2.9l2.2,1.3l0.5-2.9l-2.2-1.3l0.5-2.9l2.2,1.3l0.5-2.9l-2.2-1.3l0.5-2.9
			l-2.2-1.3l0.5-2.9l4.4,2.6l0.5-2.9l2.2,1.3l1-5.7l-2.2-1.3l-0.5,2.9l-2.2-1.3l-0.5,2.9l-2.2-1.3l-0.5,2.9l-2.2-1.3l1-5.7l-4.4-2.6
			l-0.5,2.9l2.2,1.3l-0.5,2.9l-4.4-2.6l1-5.7l2.2,1.3l1.9-11.4l2.2,1.3l0.5-2.9l-4.4-2.6l1-5.7l4.4,2.6l0.5-2.9l2.2,1.3l-0.5,2.9
			l4.4,2.6l0.5-2.9l2.2,1.3L98.4,95l2.2,1.3l0.5-2.9l2.2,1.3l-0.5,2.9l-0.5,2.9L91,93.9l-1.9,11.4l-2.2-1.3l-0.5,2.9l6.6,3.8l1-5.7
			l-2.2-1.3l0.5-2.9l6.6,3.8l-0.5,2.9l-2.2-1.3l-0.5,2.9l4.4,2.6L98.3,123.2z M83.6,124.1l0.5-2.9l-2.2-1.3l-0.5,2.9L83.6,124.1"/>
	</g>
	<g id="XMLID_249_">
		<polygon id="XMLID_250_" class="st5" points="101.3,77.6 100.2,84.3 95,81.3 96.2,74.6 		"/>
	</g>
	<g id="XMLID_237_">
		<path id="XMLID_238_" class="st5" d="M92.9,66.9l13.5,7.8l-2.9,17.4L90,84.3L92.9,66.9z M101.9,88.2l2-12.1l-9.4-5.4l-2,12.1
			L101.9,88.2"/>
	</g>
</g>
<polyline class="st0" points="0,153.4 21.7,141 47.9,3.9 55.9,0 "/>
<line class="st0" x1="139.1" y1="285.2" x2="200" y2="321.6"/>
<line class="st0" x1="119" y1="125.5" x2="159.3" y2="149.6"/>
</svg>
