<?xml version="1.0" encoding="utf-8"?>
<!-- Generator: Adobe Illustrator 25.4.1, SVG Export Plug-In . SVG Version: 6.00 Build 0)  -->
<svg version="1.1" id="&#xD1;&#xEB;&#xEE;&#xE9;_1" xmlns="http://www.w3.org/2000/svg" xmlns:xlink="http://www.w3.org/1999/xlink" x="0px" y="0px" viewBox="0 0 70.7 70.7" style="enable-background:new 0 0 70.7 70.7;" xml:space="preserve">
<style type="text/css">
	.st0{fill:#374551;}
</style>
<g>
	<g>
		<path class="st0" d="M65.1,35.4c0-3.7,2.2-7,5.6-8.8c-0.9-3.5-2.2-6.8-4.1-10c-3.7,1.1-7.6,0.4-10.3-2.2
			c-2.6-2.6-3.3-6.5-2.2-10.2C51,2.2,47.6,0.9,44.1,0c-1.8,3.4-5.1,5.6-8.8,5.6c-3.7,0-6.9-2.2-8.8-5.6c-3.5,0.9-6.8,2.2-10,4.1
			c1.1,3.7,0.4,7.6-2.2,10.3c-2.6,2.6-6.6,3.3-10.3,2.2c-1.9,3.1-3.3,6.5-4.1,10c3.4,1.8,5.7,5.1,5.7,8.8c0,3.7-2.3,7-5.7,8.8
			c0.9,3.5,2.2,6.8,4.1,10c3.7-1.1,7.6-0.4,10.2,2.2c2.6,2.6,3.3,6.5,2.2,10.2c3.2,1.9,6.5,3.3,10,4.1c1.8-3.4,5.1-5.6,8.8-5.6
			c3.7,0,7,2.3,8.8,5.6c3.5-0.9,6.9-2.2,10-4.2c-1.1-3.7-0.4-7.6,2.2-10.2c2.6-2.6,6.5-3.3,10.2-2.2c1.9-3.2,3.3-6.5,4.2-10
			C67.4,42.3,65.1,39.1,65.1,35.4z M35.4,58.3c-12.7,0-23-10.3-23-23c0-12.7,10.3-23,23-23c12.7,0,23,10.3,23,23
			C58.3,48.1,48.1,58.3,35.4,58.3z"/>
		<path class="st0" d="M45.3,32.1h-0.4c-0.1-5.2-4.3-9.3-9.5-9.3c-5.2,0-9.4,4.2-9.4,9.3h-0.4c-0.6,0-1,0.5-1,1v13.8
			c0,0.6,0.5,1,1,1h19.8c0.6,0,1-0.5,1-1V33.1C46.3,32.6,45.8,32.1,45.3,32.1z M37.2,38.2c-0.2,0.4-0.3,0.9-0.3,1.3v3.3
			c0,0.8-0.6,1.5-1.4,1.6c-0.9,0.1-1.6-0.6-1.6-1.5v-3.3c0-0.5-0.1-0.9-0.3-1.3c-0.2-0.3-0.2-0.6-0.2-1c0-1.2,0.9-2.1,2.1-2.1
			s2.1,0.9,2.1,2.1C37.5,37.6,37.4,38,37.2,38.2z M29.1,32.1c0.1-3.4,2.8-6.1,6.3-6.1c3.4,0,6.2,2.7,6.3,6.1H29.1z"/>
	</g>
</g>
</svg>
