<?xml version="1.0" encoding="utf-8"?>
<!-- Generator: Adobe Illustrator 25.4.1, SVG Export Plug-In . SVG Version: 6.00 Build 0)  -->
<svg version="1.1" id="&#xD1;&#xEB;&#xEE;&#xE9;_1" xmlns="http://www.w3.org/2000/svg" xmlns:xlink="http://www.w3.org/1999/xlink" x="0px" y="0px" viewBox="0 0 93 70.7" style="enable-background:new 0 0 93 70.7;" xml:space="preserve">
<style type="text/css">
	.st0{fill-rule:evenodd;clip-rule:evenodd;fill:#374551;}
</style>
<g>
	<g>
		<path class="st0" d="M4,0h84.9c2.2,0,4,1.8,4,4v62.7c0,2.2-1.8,4-4,4H4c-2.2,0-4-1.8-4-4V4C0,1.8,1.8,0,4,0L4,0z M40.1,25.9
			c-0.7-1.3,1.3-2.4,2-1.1l2.6,4.7c0.6-0.1,1.6-0.1,2.2,0l2.6-4.7c0.7-1.3,2.7-0.2,2,1.1l-2.4,4.3c2.5,1.5,2.9,3.6,2.9,6.2h-2.7
			c1,1,1.7,2.4,2.3,4.1l0-0.2c2,0.3,4.6,0.5,5-1.9c0.2-1,0-2.3-0.4-3.9l2.2-0.6c0.5,2,0.7,3.6,0.4,4.9c-0.6,3.5-3.6,4.3-6.7,4
			c0.1,0.6,0.2,1.2,0.2,1.9c4.2-1,8.1-0.3,8.3,4.8l-2.3,0.1c-0.1-3.7-3.2-3.3-5.9-2.5c0,0.9-0.1,1.7-0.3,2.5
			c5.5,0.6,5.3,6.4,4.4,10.5l-2.3-0.5c0.6-2.8,1.3-7.5-2.7-7.8c-1.1,3.5-3.3,5.8-5.8,5.8c-2.5,0-4.7-2.3-5.8-5.8
			c-4.1,0.2-3.3,4.9-2.7,7.8L35,59.9c-0.9-4.1-1-9.9,4.4-10.5c-0.1-0.8-0.2-1.6-0.3-2.5c-2.7-0.7-5.8-1.2-5.9,2.5l-2.3-0.1
			c0.2-5.1,4.1-5.8,8.3-4.8c0.1-0.6,0.1-1.3,0.2-1.9c-3.1,0.3-6.1-0.4-6.7-4c-0.2-1.3-0.1-2.9,0.4-4.9l2.2,0.6
			C35,36,34.8,37.3,35,38.3c0.4,2.5,3,2.3,5,1.9l0,0.2c0.6-1.7,1.4-3.1,2.3-4.1h-2.7c0-2.6,0.4-4.7,2.9-6.2L40.1,25.9L40.1,25.9z
			 M42.1,34h7.5C48.5,30.9,43.3,30.8,42.1,34L42.1,34z M29.5,5.5c1.7,0,3.1,1.4,3.1,3.1s-1.4,3.1-3.1,3.1c-1.7,0-3.1-1.4-3.1-3.1
			S27.7,5.5,29.5,5.5L29.5,5.5z M20.6,5.5c1.7,0,3.1,1.4,3.1,3.1s-1.4,3.1-3.1,3.1c-1.7,0-3.1-1.4-3.1-3.1S18.9,5.5,20.6,5.5
			L20.6,5.5z M11.8,5.5c1.7,0,3.1,1.4,3.1,3.1s-1.4,3.1-3.1,3.1c-1.7,0-3.1-1.4-3.1-3.1S10.1,5.5,11.8,5.5L11.8,5.5z M5.8,20.1h81.4
			v45H5.8V20.1L5.8,20.1z"/>
	</g>
</g>
</svg>
