<?xml version="1.0" encoding="utf-8"?>
<!-- Generator: Adobe Illustrator 25.3.1, SVG Export Plug-In . SVG Version: 6.00 Build 0)  -->










<svg version="1.1" id="&#xD1;&#xEB;&#xEE;&#xE9;_1" xmlns="http://www.w3.org/2000/svg" xmlns:xlink="http://www.w3.org/1999/xlink" x="0px" y="0px" viewBox="0 0 290 91.7" style="enable-background:new 0 0 290 91.7;" xml:space="preserve">
<style type="text/css">
	.st0{fill:#FD2F2B;}
	.st1{fill-rule:evenodd;clip-rule:evenodd;fill:#FFFFFF;}
</style>
<switch>
	
	<g>
		<g>
			<path class="st0" d="M49.9,89.8h190.2c3.4,0,6.5-1.8,8.2-4.8l38.9-69.2c3.5-6.3-1-14-8.2-14H11c-7.2,0-11.7,7.7-8.2,14L41.7,85
				C43.4,88,46.5,89.8,49.9,89.8z"/>
			<g>
				<path class="st1" d="M102.6,10.5h84.9c2.2,0,4,1.8,4,4v62.7c0,2.2-1.8,4-4,4h-84.9c-2.2,0-4-1.8-4-4V14.5
					C98.5,12.3,100.3,10.5,102.6,10.5L102.6,10.5z M138.6,36.3c-0.7-1.3,1.3-2.4,2-1.1l2.6,4.7c0.6-0.1,1.6-0.1,2.2,0l2.6-4.7
					c0.7-1.3,2.7-0.2,2,1.1l-2.4,4.3c2.5,1.5,2.9,3.6,2.9,6.2h-2.7c1,1,1.7,2.4,2.3,4.1l0-0.2c2,0.3,4.6,0.5,5-1.9
					c0.2-1,0-2.3-0.4-3.9l2.2-0.6c0.5,2,0.7,3.6,0.4,4.9c-0.6,3.5-3.6,4.3-6.7,4c0.1,0.6,0.2,1.2,0.2,1.9c4.2-1,8.1-0.3,8.3,4.8
					l-2.3,0.1c-0.1-3.7-3.2-3.3-5.9-2.5c0,0.9-0.1,1.7-0.3,2.5c5.5,0.6,5.3,6.4,4.4,10.5l-2.3-0.5c0.6-2.8,1.3-7.5-2.7-7.8
					c-1.1,3.5-3.3,5.8-5.8,5.8c-2.5,0-4.7-2.3-5.8-5.8c-4.1,0.2-3.3,4.9-2.7,7.8l-2.3,0.5c-0.9-4.1-1-9.9,4.4-10.5
					c-0.1-0.8-0.2-1.6-0.3-2.5c-2.7-0.7-5.8-1.2-5.9,2.5l-2.3-0.1c0.2-5.1,4.1-5.8,8.3-4.8c0.1-0.6,0.1-1.3,0.2-1.9
					c-3.1,0.3-6.1-0.4-6.7-4c-0.2-1.3-0.1-2.9,0.4-4.9l2.2,0.6c-0.4,1.6-0.6,2.9-0.4,3.9c0.4,2.5,3,2.3,5,1.9l0,0.2
					c0.6-1.7,1.4-3.1,2.3-4.1h-2.7c0-2.6,0.4-4.7,2.9-6.2L138.6,36.3L138.6,36.3z M140.6,44.5h7.5C147,41.4,141.8,41.2,140.6,44.5
					L140.6,44.5z M128,15.9c1.7,0,3.1,1.4,3.1,3.1c0,1.7-1.4,3.1-3.1,3.1c-1.7,0-3.1-1.4-3.1-3.1C124.9,17.3,126.2,15.9,128,15.9
					L128,15.9z M119.1,15.9c1.7,0,3.1,1.4,3.1,3.1c0,1.7-1.4,3.1-3.1,3.1s-3.1-1.4-3.1-3.1C116,17.3,117.4,15.9,119.1,15.9
					L119.1,15.9z M110.3,15.9c1.7,0,3.1,1.4,3.1,3.1c0,1.7-1.4,3.1-3.1,3.1c-1.7,0-3.1-1.4-3.1-3.1
					C107.2,17.3,108.6,15.9,110.3,15.9L110.3,15.9z M104.3,30.6h81.4v45h-81.4V30.6L104.3,30.6z"/>
			</g>
		</g>
	</g>
</switch>

</svg>
