<?xml version="1.0" encoding="utf-8"?>
<!-- Generator: Adobe Illustrator 25.4.1, SVG Export Plug-In . SVG Version: 6.00 Build 0)  -->
<svg version="1.1" id="&#xD1;&#xEB;&#xEE;&#xE9;_1" xmlns="http://www.w3.org/2000/svg" xmlns:xlink="http://www.w3.org/1999/xlink" x="0px" y="0px" viewBox="0 0 143.4 70.7" style="enable-background:new 0 0 143.4 70.7;" xml:space="preserve">
<style type="text/css">
	.st0{fill:#374551;}
</style>
<g>
	<g>
		<g>
			<g>
				<path class="st0" d="M118.2,58.6c-2.7,0.1-5,1.9-5.7,4.4h-6.7c-0.9,0-1.7,0.7-1.7,1.7c0,0.9,0.7,1.7,1.6,1.6h6.7
					c0.3,1,0.9,2,1.7,2.8c1.2,1.1,2.7,1.7,4.3,1.7c3.3-0.1,5.9-2.8,5.9-6.1v-0.1c0-1.6-0.7-3.1-1.9-4.2
					C121.4,59.2,119.8,58.6,118.2,58.6z"/>
				<path class="st0" d="M139,58.8v-5.4c0-3.6-3-6.6-6.6-6.6h-26.5c-0.9,0-1.7,0.7-1.7,1.7c0,0.9,0.7,1.7,1.7,1.7h26.5
					c1.8,0,3.3,1.5,3.3,3.3v5.4c-2.6,0.7-4.4,3.1-4.4,5.8c0,3.3,2.7,6.1,6.1,6.1c3.3,0,6.1-2.7,6.1-6.1
					C143.4,61.9,141.5,59.6,139,58.8z"/>
				<path class="st0" d="M105.8,33.8h6.7c0.3,1,0.9,2,1.7,2.8c1.2,1.1,2.7,1.7,4.3,1.7c3.3-0.1,5.9-2.8,5.9-6.1V32
					c0-1.6-0.7-3.1-1.9-4.2c-1.2-1.1-2.7-1.7-4.3-1.7c-2.7,0.1-5,1.9-5.7,4.4h-6.7c-0.9,0-1.7,0.7-1.7,1.7
					C104.2,33.1,104.9,33.8,105.8,33.8z"/>
				<path class="st0" d="M37.6,63h-6.7c-0.7-2.5-3-4.4-5.7-4.4c-1.6,0-3.2,0.6-4.3,1.7c-1.2,1.1-1.8,2.6-1.9,4.2v0.1
					c0,3.3,2.7,6,5.9,6.1c1.6,0,3.2-0.6,4.3-1.7c0.8-0.8,1.4-1.7,1.7-2.8h6.7c0.9,0,1.6-0.7,1.6-1.6C39.2,63.8,38.5,63,37.6,63z"/>
				<path class="st0" d="M37.6,46.8H11c-3.6,0-6.6,3-6.6,6.6v5.4C1.9,59.6,0,61.9,0,64.7c0,3.4,2.7,6.1,6.1,6.1
					c3.4,0,6.1-2.7,6.1-6.1c0-2.8-1.9-5.1-4.4-5.8v-5.4c0-1.8,1.5-3.3,3.3-3.3h26.5c0.9,0,1.7-0.7,1.7-1.7
					C39.2,47.5,38.5,46.8,37.6,46.8z"/>
				<path class="st0" d="M37.6,30.5h-6.7c-0.7-2.5-3-4.4-5.7-4.4c-1.6,0-3.2,0.6-4.3,1.7C19.7,28.9,19,30.4,19,32v0.1
					c0,3.3,2.7,6,5.9,6.1c1.6,0,3.2-0.6,4.3-1.7c0.8-0.8,1.4-1.7,1.7-2.8h6.7c0.9,0,1.6-0.7,1.6-1.6C39.2,31.3,38.5,30.5,37.6,30.5z
					"/>
			</g>
		</g>
		<path class="st0" d="M95.5,28.2h-3.7v-7.6c0-10.6-8-19.7-18.6-20.5c-6.1-0.4-11.7,1.9-15.7,5.8c-2.5,2.5-4.4,5.7-5.3,9.3
			c-0.1,0.3-0.1,0.7-0.2,1.2c-0.3,2.2,1.4,4.2,3.6,4.2l0,0c1.8,0,3.3-1.3,3.6-3.1c0.1-0.7,0.2-1.3,0.4-1.7c1.8-4.9,6.5-8.5,12-8.5v0
			c7,0,12.8,5.7,12.8,12.8v8.1H71.7v0H47.9c-1.7,0-3.1,1.4-3.1,3.1v34.3c0,1.7,1.4,3.1,3.1,3.1h23.8v0h23.8c1.7,0,3.1-1.4,3.1-3.1
			V31.3C98.7,29.5,97.2,28.2,95.5,28.2z M75.1,48.9l-0.5,0.4v6.6c0,1.1-0.5,2.1-1.4,2.6c-0.5,0.2-1,0.4-1.5,0.4
			c-0.5,0-1-0.1-1.5-0.4c-0.9-0.5-1.5-1.5-1.4-2.6v-6.6l-0.5-0.4c-1.3-1-2-2.5-2-4.2c0-2.6,1.9-4.7,4.4-5.2h0c0.3-0.1,0.6-0.1,1-0.1
			c0.3,0,0.7,0,1,0.1c1.3,0.3,2.4,0.9,3.2,1.9c0.8,0.9,1.2,2.1,1.3,3.4C77.1,46.4,76.4,47.9,75.1,48.9z"/>
	</g>
</g>
</svg>
