<?xml version="1.0" encoding="utf-8"?>
<!-- Generator: Adobe Illustrator 25.3.1, SVG Export Plug-In . SVG Version: 6.00 Build 0)  -->










<svg version="1.1" id="&#xD1;&#xEB;&#xEE;&#xE9;_1" xmlns="http://www.w3.org/2000/svg" xmlns:xlink="http://www.w3.org/1999/xlink" x="0px" y="0px" viewBox="0 0 413.1 91.2" style="enable-background:new 0 0 413.1 91.2;" xml:space="preserve">
<style type="text/css">
	.st0{fill:#02A7F0;}
	.st1{fill:#FFFFFF;}
</style>
<switch>
	
	<g>
		<g>
			<path class="st0" d="M49.7,90h313.7c3.4,0,6.5-1.8,8.2-4.8L410.5,16c3.5-6.3-1-14-8.2-14H10.9C3.7,2-0.8,9.7,2.7,16l38.9,69.2
				C43.2,88.1,46.3,90,49.7,90z"/>
			<g>
				<g>
					<g>
						<path class="st1" d="M253.1,69.2c-2.7,0.1-5,1.9-5.7,4.4h-6.7c-0.9,0-1.7,0.7-1.7,1.7c0,0.9,0.7,1.7,1.6,1.6h6.7
							c0.3,1,0.9,2,1.7,2.8c1.2,1.1,2.7,1.7,4.3,1.7c3.3-0.1,5.9-2.8,5.9-6.1v-0.1c0-1.6-0.7-3.1-1.9-4.2
							C256.2,69.8,254.7,69.2,253.1,69.2z"/>
						<path class="st1" d="M273.8,69.4V64c0-3.6-3-6.6-6.6-6.6h-26.5c-0.9,0-1.7,0.7-1.7,1.7c0,0.9,0.7,1.7,1.7,1.7h26.5
							c1.8,0,3.3,1.5,3.3,3.3v5.4c-2.6,0.7-4.4,3.1-4.4,5.8c0,3.3,2.7,6.1,6.1,6.1c3.3,0,6.1-2.7,6.1-6.1
							C278.3,72.5,276.4,70.2,273.8,69.4z"/>
						<path class="st1" d="M240.7,44.4h6.7c0.3,1,0.9,2,1.7,2.8c1.2,1.1,2.7,1.7,4.3,1.7c3.3-0.1,5.9-2.8,5.9-6.1v-0.1
							c0-1.6-0.7-3.1-1.9-4.2c-1.2-1.1-2.7-1.7-4.3-1.7c-2.7,0.1-5,1.9-5.7,4.4h-6.7c-0.9,0-1.7,0.7-1.7,1.7
							C239,43.7,239.8,44.5,240.7,44.4z"/>
						<path class="st1" d="M172.4,73.6h-6.7c-0.7-2.5-3-4.4-5.7-4.4c-1.6,0-3.2,0.6-4.3,1.7c-1.2,1.1-1.8,2.6-1.9,4.2v0.1
							c0,3.3,2.7,6,5.9,6.1c1.6,0,3.2-0.6,4.3-1.7c0.8-0.8,1.4-1.7,1.7-2.8h6.7c0.9,0,1.6-0.7,1.6-1.6
							C174.1,74.4,173.3,73.6,172.4,73.6z"/>
						<path class="st1" d="M172.4,57.4h-26.5c-3.6,0-6.6,3-6.6,6.6v5.4c-2.6,0.7-4.4,3.1-4.4,5.8c0,3.4,2.7,6.1,6.1,6.1
							c3.4,0,6.1-2.7,6.1-6.1c0-2.8-1.9-5.1-4.4-5.8V64c0-1.8,1.5-3.3,3.3-3.3h26.5c0.9,0,1.7-0.7,1.7-1.7
							C174.1,58.1,173.3,57.4,172.4,57.4z"/>
						<path class="st1" d="M172.4,41.1h-6.7c-0.7-2.5-3-4.4-5.7-4.4c-1.6,0-3.2,0.6-4.3,1.7c-1.2,1.1-1.8,2.6-1.9,4.2v0.1
							c0,3.3,2.7,6,5.9,6.1c1.6,0,3.2-0.6,4.3-1.7c0.8-0.8,1.4-1.7,1.7-2.8h6.7c0.9,0,1.6-0.7,1.6-1.6
							C174.1,41.9,173.3,41.1,172.4,41.1z"/>
					</g>
				</g>
				<path class="st1" d="M230.4,38.8h-3.7v-7.6c0-10.6-8-19.7-18.6-20.5c-6.1-0.4-11.7,1.9-15.7,5.8c-2.5,2.5-4.4,5.7-5.3,9.3
					c-0.1,0.3-0.1,0.7-0.2,1.2c-0.3,2.2,1.4,4.2,3.6,4.2l0,0c1.8,0,3.3-1.3,3.6-3.1c0.1-0.7,0.2-1.3,0.4-1.7c1.8-4.9,6.5-8.5,12-8.5
					v0c7,0,12.8,5.7,12.8,12.8v8.1h-12.8v0h-23.8c-1.7,0-3.1,1.4-3.1,3.1v34.3c0,1.7,1.4,3.1,3.1,3.1h23.8v0h23.8
					c1.7,0,3.1-1.4,3.1-3.1V41.9C233.5,40.2,232.1,38.8,230.4,38.8z M210,59.5l-0.5,0.4v6.6c0,1.1-0.5,2.1-1.4,2.6
					c-0.5,0.2-1,0.4-1.5,0.4c-0.5,0-1-0.1-1.5-0.4c-0.9-0.5-1.5-1.5-1.4-2.6v-6.6l-0.5-0.4c-1.3-1-2-2.5-2-4.2
					c0-2.6,1.9-4.7,4.4-5.2h0c0.3-0.1,0.6-0.1,1-0.1s0.7,0,1,0.1c1.3,0.3,2.4,0.9,3.2,1.9c0.8,0.9,1.2,2.1,1.3,3.4
					C212,57,211.3,58.5,210,59.5z"/>
			</g>
		</g>
	</g>
</switch>

</svg>
