<?xml version="1.0" encoding="utf-8"?>
<!-- Generator: Adobe Illustrator 25.3.1, SVG Export Plug-In . SVG Version: 6.00 Build 0)  -->










<svg version="1.1" id="&#xD1;&#xEB;&#xEE;&#xE9;_1" xmlns="http://www.w3.org/2000/svg" xmlns:xlink="http://www.w3.org/1999/xlink" x="0px" y="0px" viewBox="0 0 536.9 91.6" style="enable-background:new 0 0 536.9 91.6;" xml:space="preserve">
<style type="text/css">
	.st0{fill:#0075CC;}
	.st1{fill:#FFFFFF;}
</style>
<switch>
	
	<g>
		<g>
			<path class="st0" d="M2.8,15.8L41.6,85c1.7,3,4.8,4.8,8.2,4.8H487c3.4,0,6.5-1.8,8.2-4.8l38.9-69.2c3.5-6.3-1-14-8.2-14H11
				C3.8,1.8-0.7,9.5,2.8,15.8z"/>
			<g id="XMLID_7_">
				<g>
					<g>
						<path class="st1" d="M385,60.7c-1.1,0-2,0.9-2,2c0,1.1,0.9,2,2,2c1.1,0,2-0.9,2-2C387.1,61.6,386.2,60.7,385,60.7z M371,67
							h-3.9c-1.8,0-3.2-1.5-3.2-3.2V52.9v-3.6V34.9c0-1.8,1.5-3.2,3.2-3.2h35.8c1.8,0,3.2,1.5,3.2,3.2v28.8c0,1.8-1.5,3.2-3.2,3.2
							h-4H371z M367.7,36.2v22.3h34.4V36.2H367.7z"/>
						<path class="st1" d="M368.7,74.1c-0.2,0.2-0.3,0.4-0.3,0.6c0,0.5,0.4,0.9,0.9,0.9h7.4c0.5,0,0.9-0.4,0.9-0.9
							c0-0.5-0.4-0.9-0.9-0.9h-7.4C369.1,73.8,368.8,73.9,368.7,74.1z M405.1,73.4v2.8c0,1.8-1.5,3.2-3.2,3.2h-34.4
							c-1.8,0-3.2-1.5-3.2-3.2v-2.8c0-1.8,1.5-3.2,3.2-3.2h3.5h27.9h3C403.6,70.2,405.1,71.7,405.1,73.4z"/>
						<path class="st1" d="M371,70.2c-0.9,0-1.6-0.7-1.6-1.6c0-0.4,0.2-0.9,0.5-1.1c0.3-0.3,0.7-0.5,1.1-0.5h27.9
							c0.9,0,1.6,0.7,1.6,1.6c0,0.9-0.7,1.6-1.6,1.6H371z"/>
					</g>
					<g>
						<path class="st1" d="M245.8,60.7c-1.1,0-2,0.9-2,2c0,1.1,0.9,2,2,2c1.1,0,2-0.9,2-2C247.8,61.6,246.9,60.7,245.8,60.7z
							 M224.7,34.9c0-1.8,1.5-3.2,3.2-3.2h35.8c1.8,0,3.2,1.5,3.2,3.2v28.8c0,1.8-1.5,3.2-3.2,3.2h-4h-27.9h-3.9
							c-1.8,0-3.2-1.5-3.2-3.2V47.3v-5.2V34.9z M262.9,58.5V36.2h-34.4v22.3H262.9z"/>
						<path class="st1" d="M231.8,70.2c-0.9,0-1.6-0.7-1.6-1.6c0-0.4,0.2-0.9,0.5-1.1c0.3-0.3,0.7-0.5,1.1-0.5h27.9
							c0.9,0,1.6,0.7,1.6,1.6c0,0.9-0.7,1.6-1.6,1.6H231.8z"/>
						<path class="st1" d="M237.5,73.8h-7.4c-0.3,0-0.5,0.1-0.6,0.3c-0.2,0.2-0.3,0.4-0.3,0.6c0,0.5,0.4,0.9,0.9,0.9h7.4
							c0.5,0,0.9-0.4,0.9-0.9C238.4,74.2,238,73.8,237.5,73.8z M225,73.4c0-1.8,1.5-3.2,3.2-3.2h3.5h27.9h3c1.8,0,3.2,1.5,3.2,3.2
							v2.8c0,1.8-1.5,3.2-3.2,3.2h-34.4c-1.8,0-3.2-1.5-3.2-3.2V73.4z"/>
					</g>
					<g>
						<path class="st1" d="M315.4,60.7c-1.1,0-2,0.9-2,2c0,1.1,0.9,2,2,2c1.1,0,2-0.9,2-2C317.4,61.6,316.5,60.7,315.4,60.7z
							 M298.1,36.2v22.3h34.4V36.2H298.1z M297.5,67c-1.8,0-3.2-1.5-3.2-3.2v-12v-5.4V34.9c0-1.8,1.5-3.2,3.2-3.2h35.8
							c1.8,0,3.2,1.5,3.2,3.2v28.8c0,1.8-1.5,3.2-3.2,3.2h-4h-27.9H297.5z"/>
						<path class="st1" d="M299.8,68.6c0-0.4,0.2-0.9,0.5-1.1c0.3-0.3,0.7-0.5,1.1-0.5h27.9c0.9,0,1.6,0.7,1.6,1.6
							c0,0.9-0.7,1.6-1.6,1.6h-27.9C300.5,70.2,299.8,69.5,299.8,68.6z"/>
						<path class="st1" d="M298.8,74.7c0,0.5,0.4,0.9,0.9,0.9h7.4c0.5,0,0.9-0.4,0.9-0.9c0-0.5-0.4-0.9-0.9-0.9h-7.4
							c-0.3,0-0.5,0.1-0.6,0.3C298.9,74.2,298.8,74.4,298.8,74.7z M294.6,73.4c0-1.8,1.5-3.2,3.2-3.2h3.5h27.9h3
							c1.8,0,3.2,1.5,3.2,3.2v2.8c0,1.8-1.5,3.2-3.2,3.2h-34.4c-1.8,0-3.2-1.5-3.2-3.2V73.4z"/>
					</g>
					<g>
						<path class="st1" d="M180.1,66.4h-39.4c-1.3,0-2.3-1-2.3-2.3c0-0.6,0.3-1.2,0.7-1.6c0.4-0.4,1-0.7,1.6-0.7h39.4
							c1.3,0,2.3,1,2.3,2.3C182.4,65.4,181.4,66.4,180.1,66.4z"/>
						<path class="st1" d="M137.4,71.8c-0.2,0.2-0.4,0.6-0.4,0.9c0,0.7,0.6,1.3,1.3,1.3h10.4c0.7,0,1.3-0.6,1.3-1.3
							s-0.6-1.3-1.3-1.3h-10.4C138,71.4,137.7,71.6,137.4,71.8z M131.2,71c0-2.5,2-4.6,4.6-4.6h5h39.4h4.2c2.5,0,4.6,2,4.6,4.6v4
							c0,2.5-2,4.6-4.6,4.6h-48.5c-2.5,0-4.6-2-4.6-4.6V71z"/>
						<path class="st1" d="M163.4,55.8c0-1.6-1.3-2.9-2.9-2.9c-1.6,0-2.9,1.3-2.9,2.9c0,1.6,1.3,2.9,2.9,2.9
							C162.1,58.7,163.4,57.4,163.4,55.8z M184.7,18.3h-48.6v31.5h48.6V18.3z M135.2,61.8c-2.5,0-4.6-2.1-4.6-4.6V16.6
							c0-2.5,2-4.6,4.6-4.6h50.5c2.5,0,4.6,2.1,4.6,4.6v20.3v5.1v15.2c0,2.5-2,4.6-4.6,4.6h-5.7h-39.4H135.2z"/>
					</g>
					<polygon class="st1" points="387.9,19.3 387.9,32.7 384.3,32.7 384.3,23.6 317,23.6 317,32.7 311.7,32.7 311.7,23.6 
						249.2,23.6 249.2,33.1 244.1,33.1 244.1,23.7 188.3,23.7 188.3,19.3 					"/>
				</g>
			</g>
		</g>
	</g>
</switch>

</svg>
