<?xml version="1.0" encoding="utf-8"?>
<!-- Generator: Adobe Illustrator 25.4.1, SVG Export Plug-In . SVG Version: 6.00 Build 0)  -->
<svg version="1.1" id="&#xD1;&#xEB;&#xEE;&#xE9;_1" xmlns="http://www.w3.org/2000/svg" xmlns:xlink="http://www.w3.org/1999/xlink" x="0px" y="0px" viewBox="0 0 275.5 67.5" style="enable-background:new 0 0 275.5 67.5;" xml:space="preserve">
<style type="text/css">
	.st0{fill:#374551;}
</style>
<g>
	<g id="XMLID_7_">
		<g>
			<g>
				<path class="st0" d="M254.4,48.7c-1.1,0-2,0.9-2,2c0,1.1,0.9,2,2,2c1.1,0,2-0.9,2-2C256.4,49.6,255.5,48.7,254.4,48.7z
					 M240.3,54.9h-3.9c-1.8,0-3.2-1.5-3.2-3.2V40.9v-3.6V22.9c0-1.8,1.5-3.2,3.2-3.2h35.8c1.8,0,3.2,1.5,3.2,3.2v28.8
					c0,1.8-1.5,3.2-3.2,3.2h-4H240.3z M237,24.1v22.3h34.4V24.1H237z"/>
				<path class="st0" d="M238,62c-0.2,0.2-0.3,0.4-0.3,0.6c0,0.5,0.4,0.9,0.9,0.9h7.4c0.5,0,0.9-0.4,0.9-0.9c0-0.5-0.4-0.9-0.9-0.9
					h-7.4C238.4,61.7,238.2,61.8,238,62z M274.4,61.4v2.8c0,1.8-1.5,3.2-3.2,3.2h-34.4c-1.8,0-3.2-1.5-3.2-3.2v-2.8
					c0-1.8,1.5-3.2,3.2-3.2h3.5h27.9h3C273,58.2,274.4,59.6,274.4,61.4z"/>
				<path class="st0" d="M240.3,58.2c-0.9,0-1.6-0.7-1.6-1.6c0-0.4,0.2-0.9,0.5-1.1c0.3-0.3,0.7-0.5,1.1-0.5h27.9
					c0.9,0,1.6,0.7,1.6,1.6c0,0.9-0.7,1.6-1.6,1.6H240.3z"/>
			</g>
			<g>
				<path class="st0" d="M115.1,48.7c-1.1,0-2,0.9-2,2c0,1.1,0.9,2,2,2c1.1,0,2-0.9,2-2C117.2,49.6,116.3,48.7,115.1,48.7z M94,22.9
					c0-1.8,1.5-3.2,3.2-3.2H133c1.8,0,3.2,1.5,3.2,3.2v28.8c0,1.8-1.5,3.2-3.2,3.2h-4h-27.9h-3.9c-1.8,0-3.2-1.5-3.2-3.2V35.3v-5.2
					V22.9z M132.3,46.4V24.1H97.8v22.3H132.3z"/>
				<path class="st0" d="M101.1,58.2c-0.9,0-1.6-0.7-1.6-1.6c0-0.4,0.2-0.9,0.5-1.1c0.3-0.3,0.7-0.5,1.1-0.5H129
					c0.9,0,1.6,0.7,1.6,1.6c0,0.9-0.7,1.6-1.6,1.6H101.1z"/>
				<path class="st0" d="M106.8,61.7h-7.4c-0.3,0-0.5,0.1-0.6,0.3c-0.2,0.2-0.3,0.4-0.3,0.6c0,0.5,0.4,0.9,0.9,0.9h7.4
					c0.5,0,0.9-0.4,0.9-0.9C107.7,62.1,107.3,61.7,106.8,61.7z M94.3,61.4c0-1.8,1.5-3.2,3.2-3.2h3.5H129h3c1.8,0,3.2,1.5,3.2,3.2
					v2.8c0,1.8-1.5,3.2-3.2,3.2H97.6c-1.8,0-3.2-1.5-3.2-3.2V61.4z"/>
			</g>
			<g>
				<path class="st0" d="M184.7,48.7c-1.1,0-2,0.9-2,2c0,1.1,0.9,2,2,2c1.1,0,2-0.9,2-2C186.8,49.6,185.9,48.7,184.7,48.7z
					 M167.4,24.1v22.3h34.4V24.1H167.4z M166.8,54.9c-1.8,0-3.2-1.5-3.2-3.2v-12v-5.4V22.9c0-1.8,1.5-3.2,3.2-3.2h35.8
					c1.8,0,3.2,1.5,3.2,3.2v28.8c0,1.8-1.5,3.2-3.2,3.2h-4h-27.9H166.8z"/>
				<path class="st0" d="M169.1,56.5c0-0.4,0.2-0.9,0.5-1.1c0.3-0.3,0.7-0.5,1.1-0.5h27.9c0.9,0,1.6,0.7,1.6,1.6
					c0,0.9-0.7,1.6-1.6,1.6h-27.9C169.8,58.2,169.1,57.4,169.1,56.5z"/>
				<path class="st0" d="M168.1,62.6c0,0.5,0.4,0.9,0.9,0.9h7.4c0.5,0,0.9-0.4,0.9-0.9c0-0.5-0.4-0.9-0.9-0.9H169
					c-0.3,0-0.5,0.1-0.6,0.3C168.2,62.2,168.1,62.4,168.1,62.6z M164,61.4c0-1.8,1.5-3.2,3.2-3.2h3.5h27.9h3c1.8,0,3.2,1.5,3.2,3.2
					v2.8c0,1.8-1.5,3.2-3.2,3.2h-34.4c-1.8,0-3.2-1.5-3.2-3.2V61.4z"/>
			</g>
			<g>
				<path class="st0" d="M49.4,54.3H10c-1.3,0-2.3-1-2.3-2.3c0-0.6,0.3-1.2,0.7-1.6c0.4-0.4,1-0.7,1.6-0.7h39.4c1.3,0,2.3,1,2.3,2.3
					C51.7,53.3,50.7,54.3,49.4,54.3z"/>
				<path class="st0" d="M6.8,59.8c-0.2,0.2-0.4,0.6-0.4,0.9C6.4,61.4,7,62,7.7,62h10.4c0.7,0,1.3-0.6,1.3-1.3
					c0-0.7-0.6-1.3-1.3-1.3H7.7C7.3,59.4,7,59.5,6.8,59.8z M0.5,58.9c0-2.5,2-4.6,4.6-4.6h5h39.4h4.2c2.5,0,4.6,2,4.6,4.6v4
					c0,2.5-2,4.6-4.6,4.6H5.1c-2.5,0-4.6-2-4.6-4.6V58.9z"/>
				<path class="st0" d="M32.7,43.8c0-1.6-1.3-2.9-2.9-2.9c-1.6,0-2.9,1.3-2.9,2.9c0,1.6,1.3,2.9,2.9,2.9
					C31.4,46.6,32.7,45.4,32.7,43.8z M54,6.3H5.4v31.5H54V6.3z M4.6,49.8C2,49.8,0,47.7,0,45.2V4.6C0,2.1,2,0,4.6,0h50.5
					c2.5,0,4.6,2.1,4.6,4.6v20.3V30v15.2c0,2.5-2,4.6-4.6,4.6h-5.7H10H4.6z"/>
			</g>
			<polygon class="st0" points="257.2,7.3 257.2,20.7 253.6,20.7 253.6,11.5 186.4,11.5 186.4,20.7 181,20.7 181,11.5 118.5,11.5 
				118.5,21.1 113.4,21.1 113.4,11.6 57.6,11.6 57.6,7.3 			"/>
		</g>
	</g>
</g>
</svg>
