<?xml version="1.0" encoding="utf-8"?>
<!-- Generator: Adobe Illustrator 25.4.1, SVG Export Plug-In . SVG Version: 6.00 Build 0)  -->
<svg version="1.1" id="&#xD1;&#xEB;&#xEE;&#xE9;_1" xmlns="http://www.w3.org/2000/svg" xmlns:xlink="http://www.w3.org/1999/xlink" x="0px" y="0px" viewBox="0 0 66.6 70.7" style="enable-background:new 0 0 66.6 70.7;" xml:space="preserve">
<style type="text/css">
	.st0{fill:#374551;}
</style>
<g>
	<g>
		<path class="st0" d="M56.3,37.3c0,1-0.8,1.7-1.7,1.7H37.4c0.2-1.1,0.4-2.3,0.5-3.5h16.7C55.5,35.6,56.3,36.4,56.3,37.3z"/>
		<path class="st0" d="M56.3,27.6c0,1-0.8,1.7-1.7,1.7H38.2c-0.1-1.2-0.6-2.4-1.3-3.5h17.7C55.5,25.9,56.3,26.7,56.3,27.6z"/>
		<path class="st0" d="M56.3,46.9c0,1-0.8,1.7-1.7,1.7H34c0.2-0.5,0.5-1,0.7-1.5c0.3-0.7,0.6-1.3,0.9-2h19
			C55.5,45.1,56.3,45.9,56.3,46.9z"/>
		<path class="st0" d="M56.3,56.4c0,1-0.8,1.7-1.7,1.7h-28c-0.1,0-0.1,0-0.2,0c1.3-1.1,2.4-2.2,3.5-3.4h24.7
			C55.5,54.7,56.3,55.4,56.3,56.4z"/>
		<g>
			<g>
				<path class="st0" d="M53.9,9.5c-0.1-0.3-0.3-0.7-0.5-1c-0.4-0.6-1.1-1.1-1.9-1.3c-0.3-0.1-0.6-0.1-0.9-0.1h-2V6.8
					c0-3.8-3.1-6.8-6.9-6.8h-0.1c-1.9,0-3.6,0.8-4.9,2c-1.3,1.2-2,2.9-2.1,4.8v0.3h-2c-0.3,0-0.6,0-0.9,0.1
					c-0.8,0.2-1.4,0.7-1.9,1.3c-0.2,0.3-0.4,0.6-0.5,1c-0.1,0.2-0.1,0.4-0.1,0.6V14c0,0.2,0.1,0.4,0.1,0.6c0.4,1.4,1.6,2.3,3.1,2.4
					h18.1c1.5-0.1,2.7-1,3.1-2.4c0.1-0.2,0.1-0.4,0.1-0.6v-3.9C54,9.9,53.9,9.7,53.9,9.5z M45.4,7.1H38V6.8c0.1-2,1.7-3.5,3.6-3.5
					h0.2c2,0,3.6,1.6,3.6,3.5V7.1z"/>
			</g>
		</g>
		<path class="st0" d="M14.7,18.1c0.4-3.5,2.1-6.1,5.2-7.8c1.2-0.6,2.5-0.9,4.4-0.9h0.9v4.4H25c-0.6,0-1.1,0-1.6,0.1
			c-2.3,0.1-4.2,2-4.4,4.2C17.6,17.7,16.1,17.7,14.7,18.1z"/>
		<path class="st0" d="M66.5,61.8c-0.1,2.4-1,4.6-2.8,6.3c-1.7,1.7-4,2.7-6.4,2.7h0c-5.1,0-10,0-15.1,0h-3.3c-5,0-10,0-15.1,0h0
			c-2.4,0-4.6-0.9-6.4-2.7c-1.5-1.5-2.4-3.3-2.7-5.3c0.7,0.2,1.4,0.3,2.1,0.3c0.8,0,1.5-0.1,2.2-0.3c0.1,0.3,0.2,0.5,0.3,0.8
			c1,1.9,2.5,2.8,4.4,2.8h33.5c2,0,3.4-0.9,4.4-2.8c0.6-1.1,0.6-2.4,0.6-3.6c0-5.4,0-5.1,0-10.4V25c0-2.1,0-4.4-0.1-6.6
			c-0.1-2.3-2.1-4.3-4.5-4.4c-0.5,0-1,0-1.6-0.1H56V9.4H57c1.8,0,3.2,0.3,4.4,0.9c3.5,1.9,5.2,5,5.2,9.2c0,5.6,0,11.4,0,16.9v1.8
			c0,3.6,0,7.2,0,10.7c0,1.5,0,3.1,0,4.6l0,0.6C66.6,58.6,66.6,57.4,66.5,61.8z"/>
		<path class="st0" d="M18,59.6c-0.7,0-1.3-0.1-1.9-0.4l0,0c-5-2.3-8.8-5.6-11.5-9.8c-1.8-2.8-3.1-6.1-3.8-9.8l0,0
			C0.3,37.3,0,35.1,0,32.6l0,0v-0.7c0-0.5,0-1,0-1.5c0-2,1.2-4.4,4.4-4.6c3.4-0.2,6.3-1,8.9-2.4l0,0c0.6-0.3,1.2-0.7,1.8-1.1
			l0.1-0.1l0.3-0.2c0.8-0.5,1.7-0.7,2.5-0.7c1,0,1.9,0.3,2.7,0.9c2.4,1.7,4.9,2.8,7.6,3.3c0.6,0.1,1.3,0.2,2,0.3l0.3,0
			c0.2,0,0.4,0,0.6,0.1c0.2,0,0.3,0,0.5,0l0,0c2.8,0.3,4.2,2.5,4.2,4.6l0,0c-0.1,5.9-1.1,10.9-3.2,15.4C30.2,51.3,26,55.8,20.3,59
			C19.7,59.4,18.8,59.6,18,59.6z M17.6,55.7c0.1,0,0.2,0.1,0.4,0.1c0.2,0,0.4-0.1,0.4-0.1c5-2.8,8.6-6.7,10.9-11.6
			c1.8-3.9,2.7-8.4,2.8-13.8c0-0.4-0.2-0.7-0.7-0.7c-0.2,0-0.4,0-0.6-0.1c-0.2,0-0.3,0-0.5,0l-0.4,0c-0.8-0.1-1.5-0.2-2.3-0.3l0,0
			c-3.2-0.6-6.2-1.9-9.1-3.9l0,0c-0.3-0.2-0.6-0.2-1,0l-0.5,0.3c-0.7,0.4-1.3,0.8-2,1.2c-3.1,1.7-6.5,2.6-10.4,2.9
			c-0.6,0-0.8,0.2-0.8,0.8l0,0.1c0,0.4,0,0.9,0,1.4l0,0.1v0.7c0,2.2,0.2,4.3,0.6,6.2c0.7,3.3,1.7,6.1,3.3,8.5
			C10,50.9,13.4,53.7,17.6,55.7z"/>
		<path class="st0" d="M26.6,34.3c0-0.3-0.2-0.4-0.7-0.4c0,0-0.1,0-0.1,0c-0.2,0-0.3,0.1-0.4,0.1l-0.1,0.1c-0.1,0.1-0.2,0.1-0.4,0.2
			c-0.3,0.2-0.7,0.4-1,0.6c-2.4,1.6-4.7,3.4-6.9,5.2l-0.1,0.1c-0.5,0.4-1.1,0.9-1.6,1.3c-0.1,0.1-0.3,0.2-0.4,0.4
			c-0.2-0.2-0.5-0.4-0.7-0.6c-0.7-0.6-1.4-1.2-2.1-1.7c-0.4-0.3-0.9-0.6-1.3-0.7c-0.4-0.2-0.8-0.1-1,0.2c-0.2,0.2-0.2,0.5-0.1,0.8
			c0.1,0.3,0.1,0.6,0.3,0.9c0.7,1.7,1.7,3.4,3.1,5.4c0.4,0.6,1.1,1,1.8,1c0.6,0,1.2-0.2,1.6-0.7c0.4-0.4,0.9-0.9,1.3-1.3
			c1.6-1.7,3.2-3.4,4.8-5.1c0.8-0.9,1.7-1.9,2.5-2.8C25.1,36.7,26.6,35.1,26.6,34.3z"/>
	</g>
</g>
</svg>
