<?xml version="1.0" encoding="utf-8"?>
<!-- Generator: Adobe Illustrator 25.3.1, SVG Export Plug-In . SVG Version: 6.00 Build 0)  -->










<svg version="1.1" id="&#xD1;&#xEB;&#xEE;&#xE9;_1" xmlns="http://www.w3.org/2000/svg" xmlns:xlink="http://www.w3.org/1999/xlink" x="0px" y="0px" viewBox="0 0 658.9 90" style="enable-background:new 0 0 658.9 90;" xml:space="preserve">
<style type="text/css">
	.st0{fill:#155982;}
	.st1{fill:#FFFFFF;}
</style>
<switch>
	
	<g>
		<g>
			<path class="st0" d="M2,15l38.9,69.2c1.7,3,4.8,4.8,8.2,4.8h560.7c3.4,0,6.5-1.8,8.2-4.8L656.8,15c3.5-6.3-1-14-8.2-14H10.2
				C3,1-1.5,8.8,2,15z"/>
			<g>
				<path class="st1" d="M352.5,47c0,1-0.8,1.7-1.7,1.7h-17.2c0.2-1.1,0.4-2.3,0.5-3.5h16.7C351.7,45.3,352.5,46,352.5,47z"/>
				<path class="st1" d="M352.5,37.3c0,1-0.8,1.7-1.7,1.7h-16.4c-0.1-1.2-0.6-2.4-1.3-3.5h17.7C351.7,35.5,352.5,36.3,352.5,37.3z"/>
				<path class="st1" d="M352.5,56.5c0,1-0.8,1.7-1.7,1.7h-20.5c0.2-0.5,0.5-1,0.7-1.5c0.3-0.7,0.6-1.3,0.9-2h19
					C351.7,54.8,352.5,55.6,352.5,56.5z"/>
				<path class="st1" d="M352.5,66c0,1-0.8,1.7-1.7,1.7h-28c-0.1,0-0.1,0-0.2,0c1.3-1.1,2.4-2.2,3.5-3.4h24.7
					C351.7,64.3,352.5,65.1,352.5,66z"/>
				<g>
					<g>
						<path class="st1" d="M350,19.1c-0.1-0.3-0.3-0.7-0.5-1c-0.4-0.6-1.1-1.1-1.9-1.3c-0.3-0.1-0.6-0.1-0.9-0.1h-2v-0.3
							c0-3.8-3.1-6.8-6.9-6.8h-0.1c-1.9,0-3.6,0.8-4.9,2c-1.3,1.2-2,2.9-2.1,4.8v0.3h-2c-0.3,0-0.6,0-0.9,0.1
							c-0.8,0.2-1.4,0.7-1.9,1.3c-0.2,0.3-0.4,0.6-0.5,1c-0.1,0.2-0.1,0.4-0.1,0.6v3.8c0,0.2,0.1,0.4,0.1,0.6
							c0.4,1.4,1.6,2.3,3.1,2.4h18.1c1.5-0.1,2.7-1,3.1-2.4c0.1-0.2,0.1-0.4,0.1-0.6v-3.9C350.1,19.6,350.1,19.3,350,19.1z
							 M341.6,16.8h-7.4v-0.3c0.1-2,1.7-3.5,3.6-3.5h0.2c2,0,3.6,1.6,3.6,3.5V16.8z"/>
					</g>
				</g>
				<path class="st1" d="M310.8,27.8c0.4-3.5,2.1-6.1,5.2-7.8c1.2-0.6,2.5-0.9,4.4-0.9h0.9v4.4h-0.2c-0.6,0-1.1,0-1.6,0.1
					c-2.3,0.1-4.2,2-4.4,4.2C313.7,27.4,312.2,27.4,310.8,27.8z"/>
				<path class="st1" d="M362.7,71.4c-0.1,2.4-1,4.6-2.8,6.3c-1.7,1.7-4,2.7-6.4,2.7h0c-5.1,0-10,0-15.1,0h-3.3c-5,0-10,0-15.1,0h0
					c-2.4,0-4.6-0.9-6.4-2.7c-1.5-1.5-2.4-3.3-2.7-5.3c0.7,0.2,1.4,0.3,2.1,0.3c0.8,0,1.5-0.1,2.2-0.3c0.1,0.3,0.2,0.5,0.3,0.8
					c1,1.9,2.5,2.8,4.4,2.8h33.5c2,0,3.4-0.9,4.4-2.8c0.6-1.1,0.6-2.4,0.6-3.6c0-5.4,0-5.1,0-10.4V34.6c0-2.1,0-4.4-0.1-6.6
					c-0.1-2.3-2.1-4.3-4.5-4.4c-0.5,0-1,0-1.6-0.1h-0.2v-4.4h0.9c1.8,0,3.2,0.3,4.4,0.9c3.5,1.9,5.2,5,5.2,9.2c0,5.6,0,11.4,0,16.9
					V48c0,3.6,0,7.2,0,10.7c0,1.5,0,3.1,0,4.6l0,0.6C362.7,68.3,362.7,67,362.7,71.4z"/>
				<path class="st1" d="M314.2,69.3c-0.7,0-1.3-0.1-1.9-0.4l0,0c-5-2.3-8.8-5.6-11.5-9.8c-1.8-2.8-3.1-6.1-3.8-9.8l0,0
					c-0.4-2.2-0.6-4.4-0.7-6.9l0,0v-0.7c0-0.5,0-1,0-1.5c0-2,1.2-4.4,4.4-4.6c3.4-0.2,6.3-1,8.9-2.4l0,0c0.6-0.3,1.2-0.7,1.8-1.1
					l0.1-0.1l0.3-0.2c0.8-0.5,1.7-0.7,2.5-0.7c1,0,1.9,0.3,2.7,0.9c2.4,1.7,4.9,2.8,7.6,3.3c0.6,0.1,1.3,0.2,2,0.3l0.3,0
					c0.2,0,0.4,0,0.6,0.1c0.2,0,0.3,0,0.5,0l0,0c2.8,0.3,4.2,2.5,4.2,4.6l0,0c-0.1,5.9-1.1,10.9-3.2,15.4
					c-2.6,5.6-6.8,10.1-12.5,13.3C315.8,69.1,315,69.3,314.2,69.3z M313.8,65.4c0.1,0,0.2,0.1,0.4,0.1c0.2,0,0.4-0.1,0.4-0.1
					c5-2.8,8.6-6.7,10.9-11.6c1.8-3.9,2.7-8.4,2.8-13.8c0-0.4-0.2-0.7-0.7-0.7c-0.2,0-0.4,0-0.6-0.1c-0.2,0-0.3,0-0.5,0l-0.4,0
					c-0.8-0.1-1.5-0.2-2.3-0.3l0,0c-3.2-0.6-6.2-1.9-9.1-3.9l0,0c-0.3-0.2-0.6-0.2-1,0l-0.5,0.3c-0.7,0.4-1.3,0.8-2,1.2
					c-3.1,1.7-6.5,2.6-10.4,2.9c-0.6,0-0.8,0.2-0.8,0.8l0,0.1c0,0.4,0,0.9,0,1.4l0,0.1v0.7c0,2.2,0.2,4.3,0.6,6.2
					c0.7,3.3,1.7,6.1,3.3,8.5C306.2,60.5,309.5,63.4,313.8,65.4z"/>
				<path class="st1" d="M322.7,43.9c0-0.3-0.2-0.4-0.7-0.4c0,0-0.1,0-0.1,0c-0.2,0-0.3,0.1-0.4,0.1l-0.1,0.1
					c-0.1,0.1-0.2,0.1-0.4,0.2c-0.3,0.2-0.7,0.4-1,0.6c-2.4,1.6-4.7,3.4-6.9,5.2l-0.1,0.1c-0.5,0.4-1.1,0.9-1.6,1.3
					c-0.1,0.1-0.3,0.2-0.4,0.4c-0.2-0.2-0.5-0.4-0.7-0.6c-0.7-0.6-1.4-1.2-2.1-1.7c-0.4-0.3-0.9-0.6-1.3-0.7c-0.4-0.2-0.8-0.1-1,0.2
					c-0.2,0.2-0.2,0.5-0.1,0.8c0.1,0.3,0.1,0.6,0.3,0.9c0.7,1.7,1.7,3.4,3.1,5.4c0.4,0.6,1.1,1,1.8,1c0.6,0,1.2-0.2,1.6-0.7
					c0.4-0.4,0.9-0.9,1.3-1.3c1.6-1.7,3.2-3.4,4.8-5.1c0.8-0.9,1.7-1.9,2.5-2.8C321.2,46.4,322.8,44.7,322.7,43.9z"/>
			</g>
		</g>
	</g>
</switch>

</svg>
