<?xml version="1.0" encoding="utf-8"?>
<!-- Generator: Adobe Illustrator 25.4.1, SVG Export Plug-In . SVG Version: 6.00 Build 0)  -->
<svg version="1.1" id="&#xD1;&#xEB;&#xEE;&#xE9;_1" xmlns="http://www.w3.org/2000/svg" xmlns:xlink="http://www.w3.org/1999/xlink" x="0px" y="0px" viewBox="0 0 48.4 70.7" style="enable-background:new 0 0 48.4 70.7;" xml:space="preserve">
<style type="text/css">
	.st0{fill:#374551;}
</style>
<g>
	<g>
		<path class="st0" d="M15.6,38.3c-0.2-0.2-0.6,0-0.6,0s-0.4,0.5-1.5,3.5l0,0c-0.3,0.1-0.7,0.2-1,0.3C3.9,44.6,1.2,49.9,0.4,52.8
			C0,54,0,56.2,0,56.2v8.1c0,0,0,0,0,0v1.3c0,2.8,2.3,5.1,5.1,5.1h15.3c0.7-8.2,2.1-19.1,2.1-19.1s-1.1-1-0.9-2.4
			c0.4-1.4,1-2.1,1.5-2.5C17.5,43.5,15.7,38.6,15.6,38.3z"/>
		<path class="st0" d="M48.1,52.9c-0.9-3-3.7-8.7-13.1-11.1c0,0,0,0,0,0c-1.1-3-1.5-3.5-1.5-3.5s-0.3-0.2-0.6,0
			c-0.1,0.3-1.9,5.2-7.4,8.4c0.5,0.4,1.1,1.1,1.5,2.5c0.1,1.4-0.9,2.4-0.9,2.4s1.4,10.9,2.1,19.1h15.2c2.8,0,5.1-2.3,5.1-5.1v-0.3
			v-1V57C48.4,57,48.4,54,48.1,52.9z M39.2,53.8c-0.4,0.3-0.8,0.9-0.4,1.7c0.7,1.2,0.9,3.5-2.8,4.9c-3.7-1.4-3.6-3.6-2.8-4.9
			c0.5-0.8,0-1.4-0.4-1.7c-0.2-0.2-0.2-0.3,0.1-0.4c0.5-0.2,1.6-0.5,3.2-0.5c1.5,0,2.5,0.3,3.1,0.4C39.5,53.5,39.4,53.7,39.2,53.8z"/>
		<path class="st0" d="M37.4,29.5c0,0,0.1,0,0.1,0c1.1,0,2.2-1.2,2.6-2.9c0.4-1.8-0.1-3.5-1.2-3.8c0.2-0.9,0.4-1.7,0.6-2.6
			c0.3-1.5,0-2.3,0-2.3s-3.5-1.5-15.1-1.5c-11.6,0-15.1,1.5-15.1,1.5s-0.2,0.6,0.1,2c0.3,1.4,0.4,1.9,0.6,2.8c0,0-0.1,0-0.1,0
			c-1.2,0.3-1.8,2-1.3,3.8c0.4,1.7,1.5,2.9,2.6,2.9c0.1,0,0.1,0,0.2,0c2.7,6.9,9.4,11.9,13.1,11.9C28.3,41.4,34.7,36.4,37.4,29.5z
			 M24.2,39.5c-1.1,0-3.2-0.8-5.8-2.9c-2-1.7-3.7-3.9-4.9-6.2c-1.7-3.8-1.8-8.4-1.8-8.8c0.1-0.7,0.1-1.3,0.3-2
			c2.8,1.6,7.3,2.6,12.2,2.6c4.9,0,9.4-1,12.2-2.6c0.2,0.9,0.3,1.9,0.3,2.9c-0.1,1.6-0.4,5.1-1.8,8.1c0,0,0,0,0,0
			C32.1,36.1,26.9,39.5,24.2,39.5z"/>
		<path class="st0" d="M6.1,14.9c0.8,0.6,1.8,0.6,1.8,0.6h0.1c0-0.3,0-0.5,0-0.8c0-2.7,7.1-3.4,13.9-3.5C20.1,9.7,20.4,8,21,6.9
			C21.6,6,21,5.3,20.6,5c-0.2-0.2-0.3-0.4,0.1-0.5c0.6-0.2,1.8-0.5,3.7-0.5c1.8,0,2.9,0.3,3.6,0.5C28.3,4.6,28.2,4.8,28,5
			c-0.5,0.4-1,1-0.4,1.9c0.6,1,0.9,2.8-0.7,4.2c6.7,0.1,13.7,0.8,13.7,3.5c0,0.3,0,0.5,0,0.8h0.1c0,0,1,0.1,1.8-0.6
			c0.8-0.6,4.2-3.7,5.1-4.7c0.3-0.3,0.3-0.6,0.2-0.8c-0.1-0.2-0.3-0.4-0.3-0.4l-6.9-5.3c0,0-0.5-0.4-1-0.6c-0.1,0-0.2-0.1-0.2-0.1h0
			c-0.3-0.1-0.6-0.2-0.7-0.2c0,0,0,0,0,0c-0.1,0-0.1,0-0.1,0C30.7,2.8,25.4,0,24.2,0l0,0h0C23,0,17.7,2.8,10.1,2.9c0,0-0.1,0-0.1,0
			c0,0,0,0,0,0C9.8,2.9,9.5,2.9,9.2,3c0,0,0,0,0,0l0,0C9.1,3.1,9,3.1,8.9,3.1C8.4,3.4,8,3.8,8,3.8L1.1,9.1c0,0-0.2,0.2-0.3,0.4
			C0.7,9.6,0.7,9.9,1,10.2C1.8,11.3,5.3,14.3,6.1,14.9z"/>
		<path class="st0" d="M27.9,33.3c-0.1,0-3.1-0.4-3.5-0.5v0l0,0l0,0v0c-0.4,0.1-3.4,0.5-3.5,0.5c-2.1,0.3-2.2,1.5-2.1,2.1
			c2-0.3,3.5-0.3,4.4-0.4c1.2-0.1,1.2-1.2,1.2-1.2s0,1.1,1.2,1.2c0.9,0.1,2.4,0.1,4.4,0.4C30.1,34.8,29.9,33.7,27.9,33.3z"/>
	</g>
</g>
</svg>
