<?xml version="1.0" encoding="utf-8"?>
<!-- Generator: Adobe Illustrator 25.3.1, SVG Export Plug-In . SVG Version: 6.00 Build 0)  -->










<svg version="1.1" id="&#xD1;&#xEB;&#xEE;&#xE9;_1" xmlns="http://www.w3.org/2000/svg" xmlns:xlink="http://www.w3.org/1999/xlink" x="0px" y="0px" viewBox="0 0 781.3 89" style="enable-background:new 0 0 781.3 89;" xml:space="preserve">
<style type="text/css">
	.st0{fill:#124159;}
	.st1{fill:#FFFFFF;}
</style>
<switch>
	
	<g>
		<g>
			<path class="st0" d="M1.8,14.5l38.9,69.2c1.7,3,4.8,4.8,8.2,4.8h683.5c3.4,0,6.5-1.8,8.2-4.8l38.9-69.2c3.5-6.3-1-14-8.2-14H10
				C2.9,0.5-1.7,8.2,1.8,14.5z"/>
			<g>
				<path class="st1" d="M382,47.4c-0.2-0.2-0.6,0-0.6,0s-0.4,0.5-1.5,3.5l0,0c-0.3,0.1-0.7,0.2-1,0.3c-8.6,2.5-11.3,7.9-12.2,10.8
					c-0.3,1.2-0.4,3.4-0.4,3.4v8.1c0,0,0,0,0,0v1.3c0,2.8,2.3,5.1,5.1,5.1h15.3c0.7-8.2,2.1-19.1,2.1-19.1s-1.1-1-0.9-2.4
					c0.4-1.4,1-2.1,1.5-2.5C383.9,52.6,382.1,47.8,382,47.4z"/>
				<path class="st1" d="M414.5,62c-0.9-3-3.7-8.7-13.1-11.1c0,0,0,0,0,0c-1.1-3-1.5-3.5-1.5-3.5s-0.3-0.2-0.6,0
					c-0.1,0.3-1.9,5.2-7.4,8.4c0.5,0.4,1.1,1.1,1.5,2.5c0.1,1.4-0.9,2.4-0.9,2.4s1.4,10.9,2.1,19.1h15.2c2.8,0,5.1-2.3,5.1-5.1v-0.3
					v-1v-7.4C414.9,66.1,414.8,63.1,414.5,62z M405.6,63c-0.4,0.3-0.8,0.9-0.4,1.7c0.7,1.2,0.9,3.5-2.8,4.9
					c-3.7-1.4-3.6-3.6-2.8-4.9c0.5-0.8,0-1.4-0.4-1.7c-0.2-0.2-0.2-0.3,0.1-0.4c0.5-0.2,1.6-0.5,3.2-0.5c1.5,0,2.5,0.3,3.1,0.4
					C405.9,62.6,405.8,62.8,405.6,63z"/>
				<path class="st1" d="M403.8,38.6c0,0,0.1,0,0.1,0c1.1,0,2.2-1.2,2.6-2.9c0.4-1.8-0.1-3.5-1.2-3.8c0.2-0.9,0.4-1.7,0.6-2.6
					c0.3-1.5,0-2.3,0-2.3s-3.5-1.5-15.1-1.5c-11.6,0-15.1,1.5-15.1,1.5s-0.2,0.6,0.1,2c0.3,1.4,0.4,1.9,0.6,2.8c0,0-0.1,0-0.1,0
					c-1.2,0.3-1.8,2-1.3,3.8c0.4,1.7,1.5,2.9,2.6,2.9c0.1,0,0.1,0,0.2,0c2.7,6.9,9.4,11.9,13.1,11.9
					C394.7,50.5,401.1,45.6,403.8,38.6z M390.6,48.7c-1.1,0-3.2-0.8-5.8-2.9c-2-1.7-3.7-3.9-4.9-6.2c-1.7-3.8-1.8-8.4-1.8-8.8
					c0.1-0.7,0.1-1.3,0.3-2c2.8,1.6,7.3,2.6,12.2,2.6c4.9,0,9.4-1,12.2-2.6c0.2,0.9,0.3,1.9,0.3,2.9c-0.1,1.6-0.4,5.1-1.8,8.1
					c0,0,0,0,0,0C398.5,45.2,393.3,48.7,390.6,48.7z"/>
				<path class="st1" d="M372.5,24c0.8,0.6,1.8,0.6,1.8,0.6h0.1c0-0.3,0-0.5,0-0.8c0-2.7,7.1-3.4,13.9-3.5c-1.7-1.5-1.4-3.2-0.7-4.2
					c0.6-0.9,0-1.6-0.5-1.9c-0.2-0.2-0.3-0.4,0.1-0.5c0.6-0.2,1.8-0.5,3.7-0.5c1.8,0,2.9,0.3,3.6,0.5c0.4,0.1,0.4,0.4,0.1,0.6
					c-0.5,0.4-1,1-0.4,1.9c0.6,1,0.9,2.8-0.7,4.2c6.7,0.1,13.7,0.8,13.7,3.5c0,0.3,0,0.5,0,0.8h0.1c0,0,1,0.1,1.8-0.6
					c0.8-0.6,4.2-3.7,5.1-4.7c0.3-0.3,0.3-0.6,0.2-0.8c-0.1-0.2-0.3-0.4-0.3-0.4l-6.9-5.3c0,0-0.5-0.4-1-0.6c-0.1,0-0.2-0.1-0.2-0.1
					h0c-0.3-0.1-0.6-0.2-0.7-0.2c0,0,0,0,0,0c-0.1,0-0.1,0-0.1,0c-7.6-0.1-12.9-2.9-14.1-2.9l0,0h0c-1.2,0-6.5,2.8-14.1,2.9
					c0,0-0.1,0-0.1,0c0,0,0,0,0,0c-0.2,0-0.4,0.1-0.7,0.2c0,0,0,0,0,0l0,0c-0.1,0-0.2,0.1-0.2,0.1c-0.5,0.3-1,0.6-1,0.6l-6.9,5.3
					c0,0-0.2,0.2-0.3,0.4c-0.1,0.2-0.1,0.5,0.2,0.8C368.2,20.4,371.7,23.4,372.5,24z"/>
				<path class="st1" d="M394.3,42.4c-0.1,0-3.1-0.4-3.5-0.5v0l0,0l0,0v0c-0.4,0.1-3.4,0.5-3.5,0.5c-2.1,0.3-2.2,1.5-2.1,2.1
					c2-0.3,3.5-0.3,4.4-0.4c1.2-0.1,1.2-1.2,1.2-1.2s0,1.1,1.2,1.2c0.9,0.1,2.4,0.1,4.4,0.4C396.5,43.9,396.4,42.8,394.3,42.4z"/>
			</g>
		</g>
	</g>
</switch>

</svg>
