<?xml version="1.0" encoding="utf-8"?>
<!-- Generator: Adobe Illustrator 25.2.0, SVG Export Plug-In . SVG Version: 6.00 Build 0)  -->
<svg version="1.1" id="Layer_1" xmlns="http://www.w3.org/2000/svg" xmlns:xlink="http://www.w3.org/1999/xlink" x="0px" y="0px"
	 viewBox="0 0 1516.2 774.9" style="enable-background:new 0 0 1516.2 774.9;" xml:space="preserve">
<style type="text/css">
	.st0{fill:#194432;}
</style>
<g>
	<g>
		<g>
			<path class="st0" d="M1247.6,638.4c-14.6,0-26.5,13.2-26.5,29.3s11.9,29.3,26.5,29.3c14.6,0,26.5-13.2,26.5-29.3
				S1262.2,638.4,1247.6,638.4z"/>
		</g>
	</g>
	<g>
		<path class="st0" d="M1516.1,408.3c-0.2-3.9-0.6-5.8-1.2-9c-0.4-1.9-1.5-6.5-1.9-7.9c-1.5-6.3-2.1-8.7-4.9-20
			c-2-8.2-4.1-16.4-6.1-24.6c-0.2-0.8-0.5-1.9-0.7-2.7c-0.7-2.7-1.3-5.4-2-8.1c-1.3-5.4-2.6-10.8-3.9-16.1c-2.2-9-4.3-17.9-6.5-26.9
			c-0.5-2.5-2.4-10.3-3-12.8c-2.1-9-4.1-17.4-5.7-24.1c-1.5-6.2-3.9-16.4-7.2-29.7c-2.6-10.6-4.1-16.6-5.3-21.9
			c-5.2-21.1-9.2-37-11.9-47.4c-0.4-1.5-0.8-3.1-1.2-4.6c-0.4-1.5-0.8-3-1.3-4.6c-0.8-2.9-1.2-4.1-1.5-4.8c-0.1-0.4-0.5-1.4-0.7-2
			c-0.2-0.4-0.3-0.8-0.5-1.2c-0.1-0.2-0.2-0.4-0.3-0.6c-0.4-0.9-1.8-3.4-5-6.6c-0.8-0.8-3.3-3.2-7.4-5.4c-4-2.1-7.3-2.9-9-3.3
			c-1.9-0.4-4-0.6-5.1-0.8c-1-0.1-1.8-0.1-3.8-0.1c0,0,0,0,0,0c-0.2,0-0.3,0-0.5,0c-0.2,0-0.4,0-0.6,0c-0.9,0-1.9,0-2.8,0
			c-1.8,0-3.7,0-5.5,0c-3.1,0-6.2,0-9.3,0c-2,0-4,0-6,0c-4.4,0-8.8,0-13.2,0c-5.2,0-10.4,0-15.6,0.1c-12.8,0.1-19.6,0.2-26.2,0.2
			c0,0,0,0,0,0c0,0-0.1,0-0.1,0c0,0,0,0-0.1,0c0,0-0.1,0-0.1,0c0,0-0.1,0-0.1,0c0,0,0,0-0.1,0c0,0-0.1,0-0.1,0c-0.1,0-0.2,0-0.3,0
			c-0.1,0-0.2,0-0.2,0c0,0,0.1,0,0.1,0c0,0,0,0,0,0c0,0-0.1,0-0.1,0c-3.8,0-7.6,0.1-11.4,0.2c-0.1,0-8.8,0.1-16.6,0.3
			c-3.5,0.1-7,0.1-10.5,0.2c-4.8,0.1-9.5,0.2-14.3,0.3c-6.1,0.2-12.2,0.3-18.4,0.5c-2.8,0.1-5.6,0.2-8.4,0.3c-0.5,0-0.9,0-1.4,0
			c-0.1,0-0.2,0-0.4,0c-1.3,0-3.2,0.1-3.3,0.1c-9,0.4-16.1,2.3-21.9,4.1c-1.4,0.4-5.7,1.8-13.5,4.9c-5.4,2.2-10.3,4.6-13.3,6
			l-7.7,3.8c-2.3,1.1-4.4,2.2-6.5,3.3c-0.3-0.6-0.7-1.3-1.2-2.1c-1-1.7-1.2-2.1-2.4-3.8c-1.5-2.3-3.2-4.1-4.3-5.2
			c-1-1.1-4.9-5-10.5-7.4c-5.1-2.1-9.5-2.8-14.5-3.2c0,0,0,0,0,0c0,0,0,0,0,0c0,0,0,0,0,0c0,0,0,0,0,0c-0.9-0.1-1.8-0.1-2.6-0.2
			c-0.4,0-0.7,0-1.1-0.1c-0.5,0-0.9,0-1.4,0c0,0,0,0,0,0c-0.6,0-1.2,0-1.9,0c-0.3,0-0.6,0-0.9,0c-0.5,0-1.1,0-1.6,0
			c0.1,0,0.2,0,0.2,0c-0.1,0-0.2,0-0.2,0c0,0,0,0,0,0c0,0,0,0,0,0c0,0,0,0,0,0c0,0,0,0,0,0c-0.3,0-1.1,0-2.1,0.1
			c-0.7,0-1.4,0.1-2.1,0.1c0,0-1.6,0.1-2.9,0.2c0,0,0,0,0,0c-0.1,0-0.1,0-0.2,0c-0.1,0-0.1,0-0.2,0c0,0,0,0,0,0
			c-5.3,0.6-10.5,1.4-19.9,4.7c-10.2,3.5-20.2,8.5-24,10.5l-7.5,3.8c0,0,0,0,0,0c-2.5,1.3-5.9,3.1-9.6,5.2c-2.7,1.5-5.5,3.3-8.1,5
			c-0.1,0.1-0.2,0.2-0.3,0.2c-1,0.7-2,1.3-3,2c-0.5,0.3-1,0.7-1.4,1c0,0,0,0,0,0c-0.6,0.4-1.2,0.8-1.7,1.3c0,0-0.1,0.1-0.1,0.1
			c-0.5,0.4-0.9,0.7-1.5,1.1c-0.6,0.5-1.2,1-1.8,1.5c0,0,0,0,0,0c0,0,0,0,0,0c-0.4,0.4-0.8,0.7-1.2,1c-0.2,0.1-0.3,0.3-0.5,0.4
			c-0.4,0.3-0.7,0.6-0.9,0.9c0,0,0,0-0.1,0.1c-0.4,0.4-0.7,0.7-0.7,0.7c-0.1,0.1-0.2,0.2-0.3,0.3c-0.1,0.1-0.3,0.3-0.4,0.4
			c-0.1,0.1-0.1,0.1-0.2,0.2c-0.3,0.4-0.7,0.8-1,1.1c-0.5,0.6-1,1.3-1.6,2.1c-0.1,0.2-0.3,0.4-0.4,0.6c-0.1,0.1-0.1,0.2-0.2,0.4
			c-0.2,0.4-0.4,0.7-0.6,1.1c0,0,0,0,0,0c-0.6,1.1-1,2.1-1.3,3c0,0,0,0,0,0.1c0,0,0,0,0,0.1c-0.2,0.5-0.3,1-0.4,1.4
			c0,0.1,0,0.2-0.1,0.3c0,0.1-0.1,0.2-0.1,0.4c-0.1,0.5-0.3,1.3-0.4,2.4c0,0.2,0,0.4-0.1,0.6c0,0.2,0,0.4,0,0.5c0,0.3,0,0.6-0.1,1
			c0,0.1,0,0.2,0,0.4c0,0.4,0,1,0,1.5c0,0.1,0,0.2,0,0.3c0,0.1,0,0.2,0,0.3c0,0.3,0,0.5,0.1,0.7c0,0,0,0.1,0,0.1
			c0,0.4,0.1,0.8,0.1,1.2c0,0,0,0,0,0c0,0,0.4,2.7,1.9,11.7c0,0.2,0.1,0.4,0.1,0.6c0.1,0.3,0.1,0.6,0.2,0.9c0.1,0.6,0.2,1.2,0.3,1.8
			c0.1,0.6,0.2,1.4,0.4,2.2c0.8,4.5,1.5,8.5,2.2,12.3c0.4,2,0.7,4.1,1.1,6.2c1.7,9.5,1.7,9.5,3.4,18.7c0,0.2,0.1,0.4,0.1,0.6
			c0.5,2.8,1.2,6.5,1.6,8.5c0,0,0,0,0,0c0,0,0,0,0,0c0.1,0.6,1.9,9.8,2.1,10.8c3.5,18.1,5.9,30.8,8.5,44.4c2,10.7,5.2,27.5,7.3,39.1
			c2.6,14.4,4.5,24.8,6,33.1c-3.1,0.1-6.2,0.3-9.2,0.4c-3.2,0.1-6.4,0.3-9.6,0.4c-3.2,0.1-6.5,0.3-9.7,0.4
			c-1.6-11.7-3.1-23.3-4.7-35c-1.5-11.2-3-22.4-4.5-33.6c-0.4-3-0.8-5.9-1.2-8.9c-0.2-1.1-0.4-2.6-0.5-3.8c-0.1-1-0.3-2.3-0.4-3.3
			c-0.1-0.8-0.3-1.9-0.4-2.7c-0.1-0.6-0.2-1.5-0.3-2.1c-0.7-5.5-2.4-18.6-2.4-19.2c-1.1-9.3-2.3-18.3-4.3-36
			c0-0.1-2.8-23.6-3.5-30.4c-0.9-7.6-1.6-13.4-2.3-19.2c-0.6-5-1-7.5-1.1-8.3c-0.2-1.7-0.4-3-1.1-6.3c-0.6-2.7-1.4-5.6-1.9-7.2
			c-0.5-1.6-0.8-2.5-1.3-4c0,0,0,0,0,0c-0.5-1.2-1.1-2.8-1.6-4.1c-0.3-0.8-2.2-4.9-4.3-8c-2-3.1-4-5.6-5.8-7.3
			c-1.1-1.1-2.2-2.2-3.6-3.2c-1.8-1.4-2.7-1.9-4.5-2.9c-2.3-1.3-5.3-2.4-8.7-3.3c-3.8-1-7.8-1.3-9.6-1.4c0,0,0,0,0,0c0,0,0,0,0,0
			c0,0,0,0,0,0c0,0,0,0,0,0c-0.9-0.1-1.9-0.1-2.8-0.2c-0.4,0-0.8,0-1.1-0.1c-0.5,0-1,0-1.5,0c0,0,0,0,0,0c-0.7,0-1.3,0-2,0
			c-0.3,0-0.6,0-0.9,0c-0.6,0-1.2,0-1.7,0c-0.4,0-1.1,0-2.2,0.1c-0.7,0-1.5,0.1-2.2,0.1c0,0-1.7,0.1-3,0.2c0,0,0,0,0,0
			c0,0-0.1,0-0.1,0c-0.1,0-0.2,0-0.2,0c0,0,0,0,0.1,0c-1.9,0.2-4.2,0.5-6,0.8c-1.2,0.2-2.9,0.6-4.1,0.8c-4.2,1-7,1.9-11.2,3.4
			c-2.4,0.9-7,2.7-10.7,4.5c-5.9,2.7-8.7,4.2-13.1,6.6l-7.2,4c0,0,0,0,0,0c-0.2,0.1-0.4,0.2-0.6,0.3c-3,1.7-5.7,3.2-8.1,4.7
			c-2.8,1.7-5.8,3.6-8.5,5.6c-0.1,0.1-0.2,0.1-0.3,0.2c-0.9,0.6-1.6,1.2-2.4,1.7c-5-28.9-10.1-57.9-15.1-86.8
			c-2.8-16.1-2.8-16.1-3.4-18.2c-0.4-1.4-1.1-4.3-2.5-8c-1-2.7-2.2-5.2-2.7-6.1c-0.3-0.6-0.8-1.4-1-2c0-0.1-2.8-5.4-6.2-9.6
			c-1.7-2.2-2.2-2.7-4.5-5c-0.8-0.8-1.3-1.2-3.3-2.9c0,0,0,0,0,0c-4.2-3.3-9.4-5.6-15.3-6.9c-6.3-1.4-12.6-1.8-19.9-1.8
			c-1.4,0-2.9,0-4.3,0c-1.5,0-3,0.1-4.6,0.1c-0.4,0-0.8,0-1.1,0c-0.3,0-0.5,0-0.8,0c-0.8,0-1.5,0-2.3,0c-0.1,0-0.2,0-0.4,0
			c-0.5,0-1,0-1.5,0c0,0,0,0-0.1,0c-0.3,0-1.7,0-6.7,0.1c-21.9-0.2-43.8-0.4-65.8-0.5l-2-0.1c-0.2,0-0.8,0-1.7,0
			c-1.2,0-3.1,0-5.2,0.1c-8.2,0.4-16.1,2.1-23.4,5c-12.2,4.8-23.1,12.1-27.7,15.2l-6.6,4.5c-0.7,0.5-1.5,1.1-2.5,1.7
			c-0.5,0.4-1.1,0.8-1.6,1.1c-0.6,0.5-1.3,1-2.1,1.5c-0.2,0.2-0.4,0.3-0.7,0.5c-0.7,0.5-1.5,1.1-2.2,1.7c-0.1-0.4-0.2-0.8-0.3-1.2
			c-0.2-0.8-0.4-1.5-0.6-2.3c-0.5-1.7-0.8-2.7-0.9-3.1c-1.3-3.9-2.8-6.4-3.8-8c-0.8-1.3-2.4-3.5-3.9-5c-2.3-2.4-3.5-3.2-5.6-4.7
			c-0.8-0.6-3.5-2.2-5.5-3.1c-1.7-0.7-3.8-1.7-7.8-2.7c-6.9-1.8-14.3-2.2-17.4-2.4c0.1,0,0.2,0,0.3,0c-0.1,0-0.2,0-0.3,0
			c-0.6,0-1.1,0-1.7-0.1c-0.8,0-1.6,0-2.3,0l-8,0c-1,0-2.1,0-3.1,0c-2.1,0-2.9,0.1-3.3,0.1c-14.2,0.1-21,1.6-28.5,4.3
			c-5.9,2.1-12.3,5.8-14.4,7c-6,3.5-11.9,7.7-14.4,9.5l-6.2,4.6c-0.7,0.5-1.3,1-2,1.5c-2,1.5-3.8,2.9-5.4,4.2
			c-0.1,0.1-0.2,0.2-0.3,0.3c-2.7,2.2-5,4.3-7,6.2c0,0,0,0-0.1,0.1c-0.1,0-0.1,0.1-0.2,0.1c-0.7,0.6-1.3,1.2-1.9,1.8
			c-0.4,0.4-0.8,0.8-1.2,1.2c-0.3,0.3-0.5,0.5-0.7,0.8c-0.6,0.7-1.2,1.3-1.8,2c-0.4,0.5-0.9,1-1.3,1.5c-0.1,0.2-0.3,0.4-0.5,0.5
			c-0.7,0.9-1.3,1.7-1.8,2.4c0,0,0,0,0,0c0,0,0,0,0,0c-1.1,1.6-1.8,2.7-2.2,3.4c-0.1,0.2-0.2,0.4-0.3,0.7c-0.2,0.3-0.3,0.7-0.5,1
			c-0.2,0.4-0.4,0.8-0.6,1.3c-0.1,0.2-0.2,0.5-0.3,0.7c-0.2,0.6-0.5,1.3-0.7,2c0,0,0,0.1,0,0.1c-0.2,0.6-0.4,1.3-0.5,2
			c-0.2,0.7-0.3,1.4-0.4,2.2c0,0,0,0,0,0c-0.2,1.8-0.3,3.6-0.2,5.4c0,0,0,0.8,0.1,1.8c0,0.1,0,0.2,0,0.3c0,0.1,0,0.2,0,0.2
			c0,0.1,0,0.3,0,0.4c0,0,0,0.1,0,0.1c0,0.2,0,0.4,0.1,0.5c0,0.2,0.1,0.4,0.1,0.6l0,0.1c0.1,0.6,0.1,1.1,0.1,1.1
			c0.1,0.6,0.1,1.1,0.2,1.7l0.1,0.9c0,0.2,0.1,0.4,0.1,0.6c0,0,0,0.1,0,0.1c0,0.1,0,0.3,0.1,0.5c0,0.1,0,0.2,0.1,0.4
			c0,0.1,0,0.2,0,0.3c0.1,0.5,0.1,1,0.2,1.4c0.1,0.4,0.1,0.8,0.2,1.2c0,0,0,0,0,0c0,0,0,0,0,0c0.6,3.3,1.1,6.6,1.7,9.9
			c0.3,1.9,0.7,4.8,1.3,7.9c0.7,3.5,1.4,6.5,1.7,7.6c0.1,0.6,0.4,1.8,0.9,3.3c0.3,1.1,0.7,2.3,1,3.4c0.1,0.3,0.2,0.7,0.3,0.9
			c0.4,1.2,0.7,2,0.7,2c0.1,0.3,0.3,0.8,0.5,1.1v0c0.3,0.8,0.8,1.5,1.1,2.3c0.4,0.8,1,1.7,1.4,2.4c0.4,0.8,1.2,1.7,1.8,2.5
			c0.1,0.2,0.3,0.3,0.4,0.5c-0.2,0-0.4,0-0.5,0c-13.6,0.8-22,4.1-26.1,5.6c-1.7,0.7-6.4,2.6-12.8,6.1c-6,3.3-10.5,6.4-13.4,8.4
			l-6.1,4.2c0,0-1.2,0.9-3.1,2.2c-0.1,0-0.1,0.1-0.2,0.1c-0.7,0.5-1.5,1.1-2.4,1.8c-0.3,0.2-0.5,0.4-0.8,0.6
			c-0.6,0.5-1.2,0.9-1.9,1.5c-0.2,0.2-0.4,0.3-0.6,0.5c-0.6,0.5-1.2,1-1.9,1.5c-0.1,0.1-0.2,0.2-0.3,0.3c-0.4,0.3-0.8,0.7-1.2,1
			c-0.7,0.6-1.4,1.2-2,1.7c-3-17.7-6.6-38.7-10.5-61.6c-2.5-14.2-4-23.1-5.2-29.5c-2-11.2-5.4-30.1-5.8-32.1
			c-1.7-8.6-4.2-14.6-5.4-17.3c-2.9-6.3-5.4-9.9-8.3-13.4c-1.1-1.3-4.9-5.6-10.2-8.9c-9.2-5.7-20.2-6.9-29.7-7.3
			c0,0-2.9-0.1-7.2-0.1c-0.3,0-0.7,0-1,0c-1.3,0-2.6,0-3.9,0c-2.4,0-4.9,0.1-7.3,0.1c-0.3,0-0.6,0-0.9,0c-0.3,0-0.6,0-0.9,0
			c-0.5,0-1,0-1.4,0c-1.5,0-3.4,0.2-4.9,0.3c-2.8,0.2-6.5,1-9.2,1.7c-1.4,0.3-3.2,1-4.6,1.4c-3.6,1.2-7.6,3.2-9.3,4
			c-2.6,1.3-5.7,3.2-7.9,4.5c-8,5-15,10.9-18,13.4c0,0,0,0,0,0l-5.6,4.8c-9,7.7-14.8,14.3-15.9,15.5c-1.7,2-4.1,4.8-6.6,8.2
			c-2.7,3.7-3.7,5.4-5.7,8.9c-1.7,3-4.7,9.1-6.4,13.9c-0.8,2.3-1.9,5.3-2.6,7.7c-0.4,1.1-0.8,2.6-1.2,3.8c-0.6,2.2-1.5,5.1-2.1,7.3
			c0,0,0,0,0,0c-0.2,0.7-0.4,1.3-0.6,2c-0.3,1.2-0.6,2.3-1,3.5c-0.2,0.7-0.4,1.5-0.6,2.2c-0.1,0.3-0.2,0.7-0.3,1
			c0,0.2-0.1,0.4-0.2,0.5c-0.1,0.3-0.2,0.7-0.3,1.1c-0.1,0.3-0.2,0.7-0.3,1.1c0,0.2-0.1,0.4-0.2,0.5c-0.1,0.3-0.2,0.7-0.3,1.1
			c-0.1,0.3-0.2,0.7-0.3,1.1c0,0.2-0.1,0.4-0.2,0.5c-0.1,0.3-0.2,0.7-0.3,1.1c-0.1,0.3-0.2,0.7-0.3,1.1c0,0.2-0.1,0.4-0.2,0.5
			c-0.1,0.3-0.2,0.7-0.3,1.1c0-0.1,0.1-0.3,0.2-0.4c-0.1,0.2-0.1,0.3-0.2,0.4c-1.6,5.2-3.2,10.4-4.7,15.6c-2.5,8.4-4.3,14.4-5.7,19
			c-0.7-1.3-1.3-2.5-2-3.7c-2.8-5.3-11.4-21.3-21-37.7c-10.5-18-17.8-29.4-20.2-33.2c-2.1-3.2-3.8-6-4.9-7.8
			c-1.6-2.6-2.8-4.5-4.5-7.4c-1.5-2.5-3-5-4.5-7.4c-2.5-4.2-3.7-6.1-4.6-7.5c-0.7-1.1-1.6-2.5-2.3-3.6v0c-1-1.6-4.4-6.4-4.7-7
			c-0.7-1-1.7-2.3-2.5-3.3c-1.4-1.8-3.1-3.9-5.2-6.3c-1.7-1.9-3.8-4-5.7-5.7c-2.7-2.4-3.7-3.1-6.3-5c0,0-3.1-2.2-7-4.2
			c-3-1.5-3.3-1.6-7.9-3.4c-2.3-0.8-2.6-0.9-9-2.4c-1.4-0.3-3.4-0.6-4.8-0.8c-0.1,0-2.4-0.3-5-0.6c-2.8-0.3-5.1-0.4-6-0.5
			c-1.8-0.1-5.6-0.3-10.5-0.3c-0.1,0-0.1,0-0.2,0c-4.5,0-11.5,0.2-19.1,1.3C62.1,3.8,54.7,8,51.9,9.6c-2.5,1.4-4.4,2.7-5.9,3.8
			c-0.9,0.6-4.1,3-5.3,4c-5.4,4.4-8.2,6.9-13.3,12.1c-0.1,0.1-0.3,0.3-0.5,0.5c-0.1,0.1-0.2,0.2-0.2,0.2c-0.1,0.1-0.3,0.3-0.5,0.5
			c-0.1,0.1-0.3,0.3-0.5,0.5c-0.1,0.1-0.2,0.2-0.2,0.2c-0.1,0.1-0.3,0.3-0.5,0.5c-0.1,0.1-0.3,0.3-0.5,0.5c-0.1,0.1-0.2,0.2-0.2,0.2
			c-0.1,0.1-0.3,0.3-0.5,0.5c-0.1,0.1-0.3,0.3-0.5,0.5c-0.1,0.1-0.2,0.2-0.2,0.2c-0.1,0.1-0.3,0.3-0.5,0.5
			c-4.6,4.7-7.7,8.4-11.1,13.1c-3.1,4.2-5.7,8.8-6.8,11.3c-1.2,2.6-1.7,3.8-2.6,6.6c-0.8,2.6-1.2,4.8-1.4,6.2
			c-0.2,1-0.5,3.1-0.5,6.2c-0.1,2.3,0.1,4.1,0.2,6c0-0.1,0-0.2,0-0.2c0,0.1,0,0.2,0,0.2c0,6.3,1.4,14.7,2,21
			c1.2,12.6,2.8,29.4,4,42.1c4.1,42.3,8.1,84.6,12.2,126.9c0.6,6.4,1.4,14.9,2,21.3c6.9,71.5,13.7,143,20.6,214.5v0
			c1.5,16.1,7.7,27.2,9.5,30.2c1,1.6,2.1,3.3,3.9,5.6c1.8,2.2,3.3,3.7,4.1,4.4c27.4,50,5.1,114.8,3.5,196.6c0,4,0.4,9.5,1.6,14.1
			c2.8,8.2,13,14.4,25.9,14.4c3,0,6.1-0.3,9.3-1.1c40.9-9,5.1-65,9-138.5c2.4-44.3,2.4-44.3,4.9-54.4c3.1-12.6,10.7-19.6,20.1-24.8
			c2.6-0.6,4.9-1.3,5.8-1.6c8.5-2.8,15-6.4,18.5-8.3l5.4-3c2.4-1.4,5.5-3.2,10.1-6.5c3.8-2.7,6.6-5.2,7.8-6.3c2-1.8,4.3-4.3,5.2-5.4
			c2.3-2.8,3.1-4,4.6-6.7c0.6-1,3.4-6.2,4.5-13.8c1-6.9,0.2-13.7-0.1-17c0,0,0,0,0,0c0-4.1-1-9.4-1.4-13.5
			c-1.8-17.7-3.6-35.4-5.4-53c0.7,1,1.7,2.2,2.9,3.6c1.7,2,3.4,3.4,4.4,4.3c2.1,1.8,5.7,4.4,9.7,6.2c1.4,0.6,5.8,2.6,12.2,3.6
			c3.9,0.6,7.4,0.7,10.2,0.7c1.9,0,3.5-0.1,4.8-0.1c0,0,0,0,0,0c0.8,0,1.7-0.1,2.5-0.1c1-0.1,2-0.1,3-0.2c2.6-0.2,5.4-0.3,8.2-0.6
			c2.2-0.2,8.7-0.9,16-3.1c5.5-1.7,9.4-3.4,12.9-5c5.3-2.4,9.7-5,12.4-6.6l5.7-3.4c2.1-1.2,6.9-4.2,12.4-8.4
			c5.1-3.9,8.1-6.9,9.7-8.6c0.4-0.4,3.6-3.6,6.1-7.5c2.8-4.3,4-7.7,4.2-8.3c0.7-2.1,1.5-4.8,2-6.9c0,0,0.1-0.3,0.2-0.7
			c6.2,39,11.1,67.4,16.2,95.3c0.5,2.9,3,16.2,3.8,20c0.2,1.1,0.6,2.6,0.7,3.4c0.4,1.5,0.8,3.3,0.9,3.7l0,0
			c2.3,13.2,10.5,46.1,12.4,58.7c2.4,21.9-29.7,106.3,16.4,106.3c0.8,0,1.6,0,2.5-0.1c69.4-9.9-16.6-109.4,31.2-130.7
			c1.5-0.1,2.9-0.3,4.2-0.4c2.5-0.3,6.3-0.7,10.6-1.5c5.2-0.9,9.5-2,14.4-3.6c6.4-2.1,11.7-4.6,14.5-5.9c0,0,0,0,0,0l6.2-3
			c3.4-1.7,9.8-4.8,17.1-10c7-5,10.3-8.9,11.3-10.2c3.6-4.3,5.5-8.5,6.5-11.2c0.5-1.5,1.3-3.9,1.8-6.5c0.7-4,0.7-7,0.7-7.3
			c0-1.6-0.1-3.7-0.2-5.3c-0.1-0.8-0.2-2-0.3-2.8c-0.1-0.9-0.3-2-0.5-2.9c-0.6-3.3-1.4-7.6-2-10.9c-3.1-16.9-7.4-41.1-9.8-54.8
			c-4.5-25.8-8.7-50.4-9.5-55.1c-2.7-15.9-7.2-42.7-9.3-54.9c-1.6-9.7-3.2-19.4-4.9-29.1c0,0,0,0,0,0c0.8,0.1,1.7,0.3,2.8,0.4
			c0.1,0,0.2,0,0.3,0c1.2,0.1,2.5,0.3,4,0.4c1.1,0.1,2.8,0.2,5.4,0.2c1.9,0.1,4.5,0.1,5.7,0.1c0,0,0,0,0,0c0.2,0,0.3,0,0.5,0
			c-0.1,0-0.2,0-0.3,0c1.1,0,2.2-0.1,3.3-0.1c4.7-0.1,9.3-0.3,14-0.4c14.2-0.4,28.4-0.9,42.6-1.4c1.3,5.4,2.1,12.7,3,18.2
			c0.5,2.8,1.1,6.5,1.6,9.3c0.5,2.8,1.1,6.5,1.6,9.3c3.1,18.7,6.3,37.4,9.4,56.1c5.3,31.5,10.5,63,15.8,94.5
			c0.3,1.8,0.5,3.5,0.8,5.3c0.7,4.7,1.1,7.4,1.5,9.6c0.9,5.6,1.5,9.1,1.7,10.2c0.4,2.4,0.9,4.8,1.4,7.1c0.4,1.6,0.9,4.1,1.8,7
			c1.1,3.6,2.2,6.4,2.5,7.4c1.7,4.3,3.5,7.3,4.3,8.6c2.9,4.9,6.2,8.1,7.3,9.1c1.3,1.2,3.5,3,5.9,4.3c0.9,0.5,3.4,1.9,6.9,2.9
			c3.2,0.9,5.8,1,6.1,1.1c0.8,0,2.3,0.1,4.9,0.1c1.6,0,3.7,0,6.4-0.1c3.7-0.1,6.6-0.4,7.5-0.4c4.5-0.3,8.3-0.7,11.2-1
			c7-0.7,11.7-1.6,13.4-2c10.7-2.2,19-5.3,26.3-8.4l6.8-2.9c4.8-2.1,9.1-4.2,14.7-7.3c4.9-2.8,8.8-5.7,10.3-7c2-1.7,4.7-3.9,7.6-7.9
			c1.8-2.5,3.3-5.5,4.5-8.8c0.4-1.2,1.4-4.4,1.9-8.4c0.5-4.4,0.2-7.3,0-9.8c-0.1-0.8-0.2-1.9-0.3-2.7c-0.1-0.8-0.3-1.9-0.5-2.8
			c-0.7-4-1.3-7.4-2.6-15.4c-1.2-7.4-2.7-17-3.3-21.1c0,0,0,0,0,0c0,0,0,0,0,0c-0.9-5.6-1.8-11.1-2.7-16.7c-0.4-2.5-0.8-5-1.2-7.4
			c-0.5-2.8-0.9-5.7-1.4-8.5c-0.5-3.1-1-6.3-1.5-9.4c-0.6-3.4-1.1-6.8-1.7-10.2c-0.2-1.1-0.4-2.5-0.6-3.6c-0.2-1.1-0.4-2.5-0.6-3.6
			c-0.4-2.2-0.8-5.2-1.2-7.5c-0.4-2.6-0.8-5.1-1.2-7.7c-0.9-5.3-1.7-10.6-2.6-15.9c-0.9-5.5-1.8-10.9-2.7-16.4
			c-0.7-4.1-1.3-8.3-2-12.4c-0.7-4.1-1.3-8.3-2-12.4c-1.3-8.1-2.6-16.1-3.9-24.2c-1.4-8.9-3.6-22.3-7-42.7c0-0.2-4.3-25.9-4.7-28.5
			c-1.1-6.4-1.4-8.5-2.2-11.6c-1-4.4-2.1-7.6-3-10.1c-0.2-0.7-0.6-1.5-0.8-2.1c-0.3-0.7-0.7-1.5-0.9-2.2c0,0,0,0,0,0
			c-0.6-1.3-1.5-3-2.1-4.3c-0.4-0.8-2.8-5.1-5.5-8.3c-0.8-1-1.9-2.3-3.4-3.8c-1.1-1.1-2.7-2.4-3.9-3.4c0,0,0,0,0,0c0,0,0,0,0,0
			c-4.5-3.4-10.1-5.7-16.5-7c-5.7-1.1-11.4-1.5-17.7-1.5c-0.7,0-1.4,0-2.1,0c1.5-0.9,2.8-1.7,4.8-3c2.2-1.4,4.3-2.8,6.5-4.2
			c2.2-1.4,6.7-4.4,11.7-8.2c0.1,0.3,0.3,0.7,0.5,1.2c0.1,0.2,0.2,0.3,0.2,0.5c0.3,0.7,0.6,1.3,0.9,1.8c0.1,0.3,0.3,0.5,0.4,0.7
			c0.4,0.8,0.9,1.5,1.3,2.1c0.2,0.2,0.3,0.4,0.5,0.7c0.6,0.8,1.1,1.4,1.5,1.9c0.1,0.1,0.1,0.1,0.2,0.2c0.6,0.7,1.3,1.4,2,2.1
			c0,0,0,0,0,0c1.5,1.4,3.3,2.7,4.9,3.7c0,0,0.1,0.1,0.1,0.1c0.1,0.1,0.2,0.1,0.4,0.2c0.6,0.3,1.2,0.7,1.8,1c0.3,0.2,0.7,0.3,1,0.5
			c0.8,0.4,1.6,0.7,2.5,1c0,0,0,0,0.1,0c0.2,0.1,0.3,0.1,0.5,0.2c0.2,0.1,0.5,0.2,0.8,0.3c1.3,0.4,2.7,0.8,4.5,1.2c0,0,0.1,0,0.1,0
			c0,0,0.1,0,0.1,0c0.5,0.1,0.9,0.2,1.4,0.3c0.4,0.1,0.8,0.1,1.2,0.2c0,0,0,0,0.1,0c0.8,0.1,1.6,0.2,2.4,0.3c0.2,0,0.3,0,0.5,0.1
			c0.4,0,0.7,0.1,1.1,0.1c0.3,0,0.7,0.1,1,0.1c0.2,0,0.5,0,0.7,0.1c0.5,0,1.1,0.1,1.7,0.1c0,0,0.1,0,0.1,0c0.5,0,1.1,0.1,1.6,0.1
			c0,0,0,0,0.1,0c0.4,0,0.8,0,1.2,0.1c0.5,0,1,0,1.3,0.1c0,0,0.1,0,0.1,0c0.1,0,0.3,0,0.5,0c-0.1,0-0.2,0-0.3,0
			c18.6-0.2,37.3-0.5,55.9-0.7c16.8,97.2,33.7,194.4,50.5,291.5c0,0,0,0,0,0c0.1,0.8,2.5,14,2.5,14.1c2.7,15,3.6,18.8,3.9,20.1
			c0.8,3.8,1.6,6.5,2,7.8c1.3,4.4,2.5,7.3,2.9,8.3c0.2,0.4,0.4,0.8,0.5,1.2c0.2,0.7,0.8,1.6,1.1,2.3c0,0,0,0,0,0
			c0.4,0.9,2,3.8,3,5.2c1.2,1.7,2.5,3.6,4.6,5.8c2.1,2.2,4,3.7,5.3,4.5c2.8,1.9,5.2,2.8,6.1,3.1c3.4,1.2,5.2,1.4,7.6,1.7
			c0.6,0.1,2.1,0.1,4.8,0.1c1,0,2,0,3.3,0c1.4,0,4.2-0.1,7.8-0.3c2.7-0.2,9.3-0.7,10.1-0.8c5.7-0.6,9.7-1,15.4-2.1
			c11.6-2.2,22.5-6.4,26.6-8l7.3-2.9c0,0,0,0,0,0c7.7-3.1,13.5-5.9,17.8-8.3c0.6,1,1.2,1.8,1.7,2.3c0.4,0.6,1.8,2.1,3.1,3.3
			c1.6,1.4,2.1,1.7,4,2.9c0,0,1.4,0.9,3.6,1.7c1.1,0.4,2.7,0.9,3.9,1.2c1.5,0.4,4.5,0.9,7.5,1.1c2,0.1,3.7,0.2,5.9,0.2
			c1.7,0,3.6,0,6.2-0.1c0.2,0,0.5,0,0.7,0c-0.1,0-0.3,0-0.4,0c0.5,0,7.2-0.4,19.6-1.2c6.2-0.4,12.5-0.8,18.7-1.2
			c8.7-0.6,17.3-1.1,26-1.7c0.1,0,15.2-1,35.6-2.5c0,0,0,0,0,0c4.9-0.4,11.5-0.9,13.3-1c5.3-0.4,10.7-0.9,19-1.6
			c9.1-0.8,18.2-1.6,27.4-2.4c0.2,0,23.2-2.1,27.7-2.6c-0.3,0-0.7,0.1-1,0.1c0.6-0.1,1.2-0.1,1.8-0.2c4.1-0.4,4.1-0.4,5.4-0.5
			c5.2-0.6,9.5-1.3,14.8-2.4c10.2-2.2,19.8-5.6,23.5-6.9l7.8-2.8c0,0,0,0,0,0c4.8-1.7,9.3-3.5,13.4-5.3c2,2.6,3.6,4.2,4.6,5.1
			c0.1,0.1,0.5,0.4,1,0.8c14.3,15.3,2.2,64.6-1.8,99.1c-1.2,10.2-4.1,26.3,13.4,32.1c4,1.3,7.7,1.9,11,1.9
			c14.7,0,23.1-11.2,24.5-20.3c4.6-31.4-15.7-62.5,0.6-93.7c5.3-10.1,14.3-17.3,24.7-21.6c2.4-0.8,4.4-1.4,5.9-1.9l2.2-0.7
			c1.5-0.6,2.8-1,2.8-1l3.1-1.1c3.3-1.2,10.2-3.6,17.7-7c7.5-3.4,11.3-5.9,12.5-6.8c3.2-2.2,5.1-4.2,7.1-6.8
			c2.6-3.6,3.7-7.3,4.2-8.9c1.7-5.4,1.6-11.9,1.1-16.1c-0.1-0.7-0.2-1.7-0.3-2.4c-0.4-2.3-0.9-4.5-1.3-6.7
			c-0.4-2.2-1.1-5.8-2.5-13.1c0-0.2-3.7-19.4-6.7-35.8v0c-3.5-20.4-7.1-40.6-8.5-48.5c-1.3-7.5-4.5-25.2-7.8-42.9
			c-2.5-13.1-3.6-19.1-5.4-28.1c-0.1-0.5-0.3-1.4-0.5-2.7c1.7,0,3.5,0,5.2,0c1.3,0,2.6,0,3.9-0.1c0.3,1.3,0.7,2.6,1,3.9
			c4,15.4,8,30.8,11.9,46.3c1.1,4.1,2.1,8.2,3.2,12.4c4.5,17.5,5.3,21,5.6,22.1c0.7,3.1,1.4,6.2,2.1,9.2c0.6,2.5,1.9,8.3,3.8,16.1
			c0.7,3,1.5,6.1,2.2,9.1c4.1,16.9,6.7,27.4,13.5,55.2c0,0.1,3,12.2,3.1,12.7c0,0.2,0.1,0.4,0.1,0.6c0.4,1.7,0.9,4.3,1.6,6.8
			c1,4,1.6,5.4,2.7,8.7c0.7,2.1,2.6,6.4,4.4,9.3c1.6,2.5,6.4,10.2,14.9,12.9c3.2,1,5.8,1.2,9.8,1.2c0.8,0,1.6,0,2.5,0
			c9.2-0.1,20.7-1.6,22-1.7c14.5-1.8,28.7-6.4,34-8.1l8.3-2.7c0,0,0,0,0,0c9.7-3.2,18-6.5,24.5-9.8c4.5-2.2,9.1-4.8,12.3-8.5
			c4.6-5.4,5.6-11.2,6.1-14C1515.8,415.9,1516.4,412.5,1516.1,408.3z M1.1,81.1C1.1,81.1,1.1,81.1,1.1,81.1c0-0.1,0.1-0.2,0.1-0.2
			C1.1,80.9,1.1,81,1.1,81.1z M3.7,76.9C3.7,76.9,3.7,76.9,3.7,76.9c0.4-0.6,0.9-1.2,1.5-1.9C4.7,75.6,4.2,76.3,3.7,76.9z
			 M194.7,487.2C194.7,487.3,194.7,487.3,194.7,487.2C194.7,487.3,194.7,487.3,194.7,487.2C194.7,487.2,194.7,487.2,194.7,487.2z
			 M194.5,487.1C194.5,487.1,194.5,487.1,194.5,487.1C194.5,487.1,194.5,487.1,194.5,487.1C194.5,487.1,194.5,487.1,194.5,487.1z
			 M194.2,487C194.3,487,194.3,487,194.2,487C194.3,487,194.3,487,194.2,487C194.2,487,194.2,487,194.2,487z M235.8,438.6
			c-0.3,0.1-0.6,0.1-0.8,0.2C235.2,438.7,235.5,438.7,235.8,438.6C235.8,438.6,235.8,438.6,235.8,438.6z M240.5,436.9
			c-0.4,0.2-0.7,0.3-1.1,0.4C239.8,437.2,240.1,437.1,240.5,436.9C240.5,436.9,240.5,436.9,240.5,436.9z M246.1,434.3
			c-0.4,0.2-0.7,0.3-1.1,0.5C245.4,434.7,245.8,434.5,246.1,434.3C246.1,434.3,246.1,434.3,246.1,434.3z M465,362.5
			c6,35,12.1,69.8,18.5,104.5c0.5,2.9,0.7,5.5,0.6,7.8c-0.1,2.4-0.5,4.4-1.1,6.3c-0.6,1.8-1.4,3.4-2.3,4.7c-0.9,1.3-2,2.3-3.1,3.1
			c-0.5,0.4-1.6,0.7-3.1,1.1c-1.5,0.3-3.4,0.7-5.6,1c-2.2,0.3-4.7,0.6-7.2,0.8c-2.6,0.2-5.3,0.5-7.9,0.7c-1.8,0.1-3.5,0.2-5.2,0.3
			c-1.7,0.1-3.3,0.2-4.8,0.2c-1.5,0.1-2.9,0.1-4.2,0.1c-1.3,0-2.4,0-3.3,0c-3.7-0.1-6.7-1.5-9.2-3.6c-2.5-2.1-4.4-5-6-8.3
			c-1.6-3.2-2.7-6.8-3.6-10.2c-0.9-3.4-1.5-6.7-2.1-9.4c-4.8-24.6-9.3-50.3-13.7-76.5c-4.4-26.2-8.7-52.9-12.9-79.6
			c-4.2-26.7-8.4-53.4-12.7-79.5c-4.2-26.1-8.5-51.7-13-76.3c-1.9,6.3-3.7,12.1-5.3,17.5c-1.6,5.4-3.1,10.5-4.4,15.3
			c-1.3,4.7-2.6,9.2-3.7,13.3c-1.1,4.2-2.1,8.1-3.1,11.8c-3.4,13.3-6.5,26.7-9.4,40.4c-2.9,13.6-5.7,27.4-8.4,41.3
			c-2.7,13.9-5.4,28-8.1,42.1c-2.7,14.1-5.5,28.3-8.4,42.6c-0.7,3.4-1.9,6.2-3.6,8.3c-1.7,2.1-3.8,3.7-6.2,4.9
			c-2.5,1.2-5.4,1.9-8.6,2.4c-3.2,0.5-6.8,0.8-10.6,1c-0.5,0-1,0.1-1.6,0.1c-0.5,0-1.1,0-1.6,0.1c-0.5,0-1.1,0-1.6,0.1
			c-0.5,0-1.1,0-1.6,0.1c-5.8,0.2-10.5-0.3-14.5-1.4c-4-1.2-7.1-3.1-9.8-5.6c-2.7-2.6-4.8-5.8-6.7-9.7c-1.9-3.9-3.6-8.5-5.4-13.7
			c-2.3-6.7-4.6-13.4-7-20.2c-2.4-6.7-4.9-13.5-7.4-20.2c-2.5-6.7-5.2-13.5-7.9-20.2c-2.7-6.7-5.4-13.4-8.3-20.2
			c-2.8-6.7-5.7-13.4-8.7-20.1c-2.9-6.7-6-13.4-9-20.1c-3.1-6.7-6.2-13.4-9.4-20c-3.2-6.7-6.5-13.3-9.8-20
			c-2.2-4.5-4.5-8.9-6.8-13.4c-2.3-4.5-4.7-9-7.1-13.5c-2.4-4.5-4.9-9.1-7.4-13.7c-2.5-4.6-5.1-9.3-7.7-14
			c2.8,28.2,5.7,56.5,8.6,84.8c2.9,28.4,5.7,56.8,8.6,85.3c2.9,28.6,5.8,57.2,8.7,85.8c2.9,28.7,5.8,57.5,8.7,86.4
			c0.3,3.1,0.5,6.1,0.4,8.9c-0.1,2.7-0.4,5.2-1.1,7.3c-0.7,2.1-1.7,3.9-3.2,5.3c-1.5,1.4-3.5,2.3-6,2.7c-1.7,0.3-3.3,0.5-4.8,0.8
			c-1.5,0.2-3,0.4-4.5,0.6c-1.5,0.2-2.9,0.3-4.3,0.5c-1.4,0.1-2.8,0.3-4.2,0.3c-1.9,0.1-3.9,0.2-5.9,0.3c-2,0.1-4,0.1-6.1,0.1
			c-2.1,0-4.3,0-6.6-0.1c-2.3-0.1-4.7-0.2-7.4-0.3c-3.7-0.2-6.8-1.6-9.4-3.8c-2.6-2.2-4.8-5.3-6.5-8.6c-1.7-3.3-3-7-3.9-10.5
			c-0.9-3.5-1.5-6.8-1.7-9.5c-3.6-37.1-7.3-74.1-10.9-111c-3.6-36.8-7.2-73.5-10.8-110.1c-3.6-36.5-7.2-72.9-10.7-109.2
			c-3.6-36.2-7.1-72.4-10.6-108.4c-0.2-1.9-0.2-3.8,0-5.5c0.2-1.7,0.6-3.4,1.3-4.9c0.6-1.5,1.4-3,2.5-4.3c1-1.3,2.2-2.5,3.6-3.6
			c1.1-0.9,2.7-1.7,4.8-2.4c2.1-0.7,4.5-1.4,7.4-1.9c2.8-0.5,6-1,9.5-1.2c3.5-0.3,7.2-0.4,11.2-0.4c1.4,0,2.8,0,4.3,0.1
			c1.4,0.1,2.9,0.1,4.4,0.2c1.5,0.1,3,0.2,4.5,0.4c1.5,0.1,3.1,0.3,4.6,0.5c7.3,0.9,13.2,3,18.3,6.1c5.1,3.1,9.4,7.3,13.5,12.5
			c4.1,5.2,8.1,11.5,12.5,18.8c4.4,7.3,9.2,15.6,15.1,24.8c4.1,6.4,8.2,13.1,12.4,19.9c4.1,6.9,8.3,14,12.6,21.5
			c4.2,7.4,8.6,15.2,13,23.4c4.4,8.2,9,16.7,13.6,25.7c3,5.7,5.9,11.5,8.9,17.4c2.9,5.9,5.9,11.9,8.8,18c2.9,6.1,5.8,12.3,8.7,18.6
			c2.9,6.3,5.8,12.8,8.7,19.4c1.7-7,3.4-13.9,5.1-20.8c1.7-6.9,3.4-13.8,5.2-20.6c1.7-6.8,3.5-13.6,5.2-20.3
			c1.8-6.7,3.5-13.4,5.3-20c2.1-7.8,4.3-15.6,6.5-23.4c2.2-7.8,4.4-15.5,6.7-23.2c2.3-7.7,4.5-15.4,6.8-23
			c2.3-7.6,4.5-15.2,6.8-22.6c1.8-6.1,3.4-12.5,5.4-18.8c1.9-6.2,4.2-12.3,7.2-17.6c3-5.3,6.8-9.8,11.9-13c5.1-3.2,11.4-5,19.5-5
			c0.9,0,2,0,3.1,0c1.1,0,2.4-0.1,3.7-0.1c1.3,0,2.7-0.1,4.1-0.1c1.4,0,2.9,0,4.3,0c2.5,0,5,0.1,7.5,0.3c2.5,0.2,5,0.4,7.4,0.8
			c2.4,0.4,4.6,0.9,6.7,1.7c2,0.7,3.9,1.6,5.4,2.8c2.2,1.6,4.1,3.7,5.6,5.9c1.6,2.3,2.9,4.8,4,7.3c1.1,2.5,1.9,5.1,2.6,7.6
			c0.7,2.4,1.2,4.7,1.5,6.7c6.2,34.2,12.2,68.7,18.1,103.4c5.9,34.7,11.7,69.6,17.5,104.5C453.2,292.6,459,327.6,465,362.5z
			 M485,261.7c-0.1,0-0.1,0-0.2,0c0.1,0,0.2-0.1,0.3-0.1C485.1,261.6,485,261.6,485,261.7z M721.2,414.4L721.2,414.4
			C721.2,414.4,721.2,414.4,721.2,414.4C721.2,414.4,721.2,414.4,721.2,414.4z M619.6,12.3c0.1,0.1,0.1,0.2,0.1,0.3
			C619.7,12.5,619.7,12.4,619.6,12.3C619.6,12.3,619.6,12.3,619.6,12.3z M619.3,12c0.1,0.1,0.1,0.1,0.2,0.2
			C619.5,12.1,619.4,12.1,619.3,12C619.3,12,619.3,12,619.3,12z M618.9,11.8c0.1,0,0.1,0.1,0.2,0.1C619.1,11.9,619,11.9,618.9,11.8
			C618.9,11.8,618.9,11.8,618.9,11.8z M601.5,12.3C601.5,12.3,601.5,12.3,601.5,12.3c0,0-0.1-0.1-0.1-0.1
			C601.4,12.2,601.4,12.3,601.5,12.3z M601.1,12C601.1,12,601.1,12,601.1,12c0,0-0.1,0-0.2-0.1C601,12,601.1,12,601.1,12z
			 M600.6,11.8C600.6,11.8,600.6,11.8,600.6,11.8c0,0-0.1,0-0.2,0C600.4,11.8,600.5,11.8,600.6,11.8z M626.9,149.4
			c1.2,0,2.4-0.1,3.6-0.1c2.3,0,4.7,0,7.2,0.1c2.4,0.1,4.8,0.3,7.1,0.7c2.3,0.4,4.5,0.9,6.5,1.5c2,0.7,3.8,1.6,5.3,2.7
			c2,1.5,3.8,3.5,5.3,5.7c1.5,2.2,2.8,4.6,3.8,7.1c1,2.5,1.9,5,2.5,7.3c0.7,2.4,1.1,4.6,1.5,6.5c0.2,1,0.5,2.7,0.9,5
			c0.4,2.4,0.9,5.4,1.5,8.9c0.6,3.6,1.3,7.7,2,12.3c0.8,4.6,1.6,9.7,2.5,15.1c0.9,5.4,1.8,11.2,2.8,17.3c1,6.1,2,12.4,3.1,19
			c1.1,6.5,2.2,13.3,3.3,20.1c1.1,6.8,2.2,13.7,3.3,20.6c1.1,6.9,2.2,13.8,3.3,20.6c1.1,6.8,2.2,13.5,3.2,20
			c1.1,6.5,2.1,12.8,3,18.8c1,6,1.9,11.7,2.8,17.1c0.9,5.3,1.7,10.3,2.4,14.7c0.7,4.5,1.4,8.4,1.9,11.8c0.5,3.4,1,6.2,1.3,8.3
			c0.3,2.1,0.6,3.6,0.7,4.3c0,0.3,0.3,2,0.7,4.6c0.4,2.6,0.9,6,1.5,9.8c0.6,3.8,1.3,7.9,1.9,11.9c0.7,4,1.3,7.7,1.9,10.8
			c0.5,2.7,0.7,5.3,0.6,7.5c-0.1,2.3-0.4,4.3-1,6c-0.5,1.8-1.3,3.3-2.1,4.5c-0.8,1.3-1.8,2.3-2.8,3c-0.5,0.4-1.5,0.7-2.9,1
			c-1.4,0.3-3.2,0.6-5.2,0.9c-2,0.3-4.3,0.5-6.7,0.8c-2.4,0.2-4.9,0.4-7.4,0.6c-1.6,0.1-3.3,0.2-4.8,0.3c-1.6,0.1-3.1,0.1-4.5,0.2
			c-1.4,0-2.7,0.1-3.9,0.1c-1.2,0-2.2,0-3.1,0c-3.4-0.1-6.3-1.4-8.6-3.5c-2.4-2-4.3-4.8-5.9-7.9c-1.6-3.1-2.8-6.5-3.7-9.8
			c-0.9-3.3-1.6-6.5-2.1-9.1c-0.5-2.3-1-5.1-1.5-8.1c-0.5-3-1-6.1-1.5-9c-0.5-2.9-0.9-5.5-1.1-7.4c-0.3-2-0.5-3.3-0.5-3.5
			c-3-17.6-5.9-35.1-8.9-52.7c-3-17.5-5.9-35-8.9-52.5c-3-17.5-5.9-34.9-8.9-52.4c-2.9-17.4-5.9-34.8-8.8-52.2
			c-11.5,0.3-22,0.5-31.2,0.8c-9.3,0.2-17.4,0.4-24,0.6c-6.7,0.2-12,0.3-15.7,0.4c-3.7,0.1-5.9,0.1-6.2,0.1
			c-3.2-0.1-6.1-0.2-8.9-0.3c-2.7-0.2-5.2-0.5-7.4-1.1c-2.2-0.6-4-1.4-5.5-2.6c-1.5-1.2-2.5-2.8-3.1-4.9c-1-3.4-1.7-6.5-2.4-9.4
			c-0.6-3-1.1-5.8-1.6-8.7c-0.4-2.9-0.8-5.8-1.2-8.9c-0.4-3.1-0.8-6.4-1.2-10c-0.3-2.6,0.6-4.8,2.3-6.6c1.7-1.8,4.2-3.1,7.2-4.2
			c2.9-1,6.2-1.7,9.5-2.2c3.3-0.5,6.6-0.7,9.4-0.7c0.3,0,0.6,0,0.9,0c0.3,0,0.6,0,0.8,0c0.3,0,0.5,0,0.8,0c0.3,0,0.5,0,0.8,0
			c0.4,0,2.4,0,5.9-0.1c3.5,0,8.5-0.1,14.8-0.2c6.3-0.1,13.9-0.2,22.7-0.3c8.8-0.1,18.7-0.3,29.6-0.4c1.7-0.1,3.1-0.1,4.3-0.2
			c1.2,0,2.2-0.1,3-0.1c0.9,0,1.6,0,2.4-0.1c0.8,0,1.5,0,2.4,0c0.8,0,1.7,0,2.7-0.1c1,0,2-0.1,3.1-0.1
			C624.6,149.4,625.7,149.4,626.9,149.4z M654.4,88c-1.7,1.8-4.1,3.1-6.9,4c-2.9,0.9-6.2,1.4-9.8,1.7c-3.5,0.3-7.2,0.4-10.8,0.4
			c-0.8,0-1.6,0-2.4,0c-0.8,0-1.5,0-2.3,0c-0.8,0-1.5,0-2.2,0c-0.7,0-1.4,0-2.1,0c-0.5,0-1.1,0-1.6,0c-0.5,0-1,0-1.5,0
			c-0.5,0-1,0-1.4,0.1c-0.5,0-0.9,0-1.3,0.1c-3.5-0.2-6.8-0.4-9.9-0.9c-3.1-0.5-5.9-1.1-8.4-2c-2.5-0.9-4.6-2.1-6.2-3.7
			c-1.7-1.6-2.9-3.5-3.6-5.8c-0.6-2-1.1-3.9-1.5-5.7c-0.4-1.8-0.8-3.5-1.2-5.1c-0.3-1.7-0.7-3.3-0.9-4.8c-0.3-1.6-0.5-3.1-0.8-4.7
			c-0.2-0.9-0.3-1.7-0.5-2.6c-0.2-0.9-0.3-1.7-0.5-2.6c-0.2-0.9-0.3-1.7-0.5-2.6c-0.2-0.9-0.3-1.7-0.5-2.6c-0.2-1.1-0.3-2.1-0.4-3.1
			c-0.1-1-0.3-1.9-0.4-2.8c-0.1-0.9-0.2-1.7-0.3-2.4c-0.1-0.7-0.1-1.4-0.2-2c-0.2-3,0.7-5.2,2.3-7c1.6-1.8,3.9-3,6.6-3.9
			c2.7-0.9,5.9-1.4,9.1-1.7c3.2-0.3,6.6-0.4,9.7-0.4c0.4,0,1.1,0,2.1-0.1c1,0,2.2,0,3.6,0c1.4,0,2.8,0,4.2,0c1.4,0,2.8,0,4,0
			c0.4,0,0.7,0,1,0c0.3,0,0.6,0,0.9,0c0.3,0,0.6,0,0.8,0s0.5,0,0.6,0c3.5,0.2,6.8,0.5,9.8,1c3,0.5,5.8,1.2,8.2,2.1
			c2.4,0.9,4.5,2.1,6.1,3.7c1.6,1.6,2.8,3.5,3.5,5.8c0.6,2,1.1,3.8,1.5,5.6c0.4,1.8,0.8,3.4,1.2,5.1c0.3,1.6,0.7,3.2,0.9,4.8
			c0.3,1.6,0.5,3.1,0.8,4.7c0.3,1.6,0.6,3.4,0.9,5.2c0.3,1.9,0.6,3.8,0.9,5.6c0.3,1.9,0.6,3.7,0.8,5.3c0.2,1.7,0.4,3.1,0.4,4.3
			C657,83.9,656.1,86.2,654.4,88z M862.5,22C862.5,22,862.5,22,862.5,22C862.5,22,862.5,22,862.5,22C862.5,22,862.5,22,862.5,22
			C862.5,22,862.5,22,862.5,22z M807,13.9C807,13.9,807,13.9,807,13.9c0,0-0.1-0.1-0.1-0.1C806.9,13.9,807,13.9,807,13.9z
			 M806.7,13.6C806.7,13.6,806.7,13.7,806.7,13.6c0,0-0.1,0-0.2-0.1C806.5,13.6,806.6,13.6,806.7,13.6z M806.1,13.5
			C806.1,13.5,806.2,13.5,806.1,13.5c-0.1,0-0.2,0-0.2,0C806,13.5,806.1,13.5,806.1,13.5z M741.1,13.4
			C741.1,13.4,741.1,13.4,741.1,13.4C741,13.4,741,13.4,741.1,13.4C741,13.4,741,13.4,741.1,13.4z M740.7,13.1
			C740.8,13.1,740.8,13.1,740.7,13.1c0,0-0.1,0-0.1-0.1C740.6,13.1,740.7,13.1,740.7,13.1z M740.3,12.9
			C740.3,12.9,740.3,13,740.3,12.9c0,0-0.1,0-0.2,0C740.2,12.9,740.2,12.9,740.3,12.9z M937.5,444.6c-0.1,2.2-0.5,4.1-1,5.8
			c-0.6,1.7-1.3,3.2-2.1,4.4c-0.8,1.2-1.7,2.2-2.7,2.9c-0.5,0.3-1.4,0.7-2.7,1c-1.3,0.3-3,0.6-4.8,0.9c-1.9,0.3-4,0.5-6.2,0.7
			c-2.2,0.2-4.5,0.4-6.8,0.6c-1.5,0.1-3,0.2-4.5,0.3c-1.5,0.1-2.9,0.1-4.2,0.2c-1.3,0-2.5,0.1-3.6,0.1c-1.1,0-2.1,0-2.9,0
			c-3.2-0.1-5.8-1.4-8.1-3.4c-2.2-2-4.1-4.7-5.5-7.7c-1.5-3-2.6-6.3-3.6-9.4c-0.9-3.2-1.6-6.2-2.1-8.7c-0.5-2.6-1.1-5.8-1.8-9.1
			c-0.6-3.4-1.3-6.9-1.9-10.1c-0.6-3.2-1.1-6.2-1.5-8.4c-0.4-2.2-0.7-3.7-0.7-3.9c-4.6-26.5-9.3-53-13.9-79.4
			c-4.6-26.4-9.3-52.7-13.9-79.1c-4.6-26.3-9.2-52.5-13.8-78.7c-4.6-26.2-9.2-52.3-13.7-78.4c-10.7,0-20.4,0.1-29,0.1
			c-8.6,0-16.1,0.1-22.3,0.1c-6.2,0-11.1,0-14.6,0.1c-3.4,0-5.4,0-5.8,0c-2.9-0.1-5.7-0.4-8.3-0.8c-2.6-0.4-4.9-1-7-1.8
			c-2.1-0.8-3.8-1.8-5.2-3.2c-1.4-1.3-2.4-3-3-5c-0.9-3.2-1.7-6.1-2.2-8.8c-0.6-2.7-1-5.2-1.4-7.7c-0.4-2.5-0.7-5.1-1.1-7.9
			c-0.4-2.8-0.7-5.8-1.2-9.3c-0.3-2.5,0.5-4.6,2-6.2c1.6-1.6,3.9-2.9,6.6-3.8c2.7-0.9,5.8-1.5,8.8-1.9c3.1-0.4,6.1-0.5,8.7-0.5
			c0.3,0,0.5,0,0.8,0c0.3,0,0.5,0,0.8,0c0.3,0,0.5,0,0.7,0c0.2,0,0.5,0,0.7,0c0.3,0,2.1,0,5.2,0c3.1,0,7.6,0,13.3,0.1
			c5.7,0,12.6,0.1,20.6,0.1c8,0,17.1,0.1,27.3,0.1c1.6,0,2.9-0.1,4-0.1c1.1,0,2,0,2.8,0c0.8,0,1.5,0,2.2,0c0.7,0,1.4,0,2.2,0
			c0.8,0,1.6,0,2.5,0c0.9,0,1.9,0,2.9-0.1c1,0,2.1,0,3.2-0.1c1.1,0,2.2,0,3.4,0c2.2,0,4.4,0.1,6.7,0.2c2.2,0.1,4.5,0.4,6.6,0.8
			c2.1,0.4,4.2,0.9,6,1.6c1.9,0.7,3.5,1.6,5,2.7c1.9,1.5,3.7,3.4,5.2,5.5c1.5,2.1,2.9,4.4,4.1,6.7c1.2,2.3,2.1,4.7,2.9,7
			c0.8,2.2,1.3,4.4,1.6,6.2c0.2,1,1.1,6.3,2.6,15c1.5,8.7,3.6,20.7,6.1,35c2.5,14.3,5.4,31,8.5,48.9c3.1,18,6.5,37.2,9.9,56.8
			c3.4,19.6,6.9,39.4,10.2,58.5c3.3,19.1,6.5,37.5,9.4,54.1c2.9,16.6,5.5,31.4,7.5,43.3c2.1,12,3.7,21.1,4.6,26.3
			c0.1,0.3,0.4,2.2,0.8,5c0.5,2.8,1.1,6.5,1.8,10.6c0.7,4.1,1.5,8.6,2.3,12.9c0.8,4.3,1.5,8.4,2.2,11.7
			C937.5,440,937.6,442.4,937.5,444.6z M1502,346.7C1502,346.7,1502.1,346.7,1502,346.7C1502.1,346.7,1502.1,346.7,1502,346.7
			C1502.1,346.7,1502.1,346.7,1502,346.7C1502.1,346.7,1502,346.7,1502,346.7L1502,346.7z M1489.1,292.9
			C1489.1,292.9,1489.1,292.9,1489.1,292.9C1489.1,292.9,1489.1,292.9,1489.1,292.9C1489.1,292.9,1489.1,292.9,1489.1,292.9z
			 M1489,292.9C1489,292.9,1489,292.9,1489,292.9C1489,292.9,1489,292.9,1489,292.9L1489,292.9z M1489,292.9
			C1489,292.9,1489,292.9,1489,292.9C1489,292.9,1489,292.9,1489,292.9L1489,292.9z M1421.1,123.6
			C1421.2,123.6,1421.2,123.7,1421.1,123.6c0,0-0.1,0-0.2-0.1C1421,123.6,1421.1,123.6,1421.1,123.6z M1420.6,123.4
			C1420.6,123.4,1420.6,123.4,1420.6,123.4c0,0-0.1,0-0.2,0C1420.4,123.3,1420.5,123.3,1420.6,123.4z M1419.5,123.2
			c0.1,0,0.1,0,0.2,0c0,0,0.1,0,0.1,0c0,0,0.1,0,0.1,0C1419.7,123.2,1419.6,123.2,1419.5,123.2
			C1419.5,123.2,1419.5,123.2,1419.5,123.2z M1342.5,124L1342.5,124c0,0-0.1,0-0.1-0.1C1342.4,123.9,1342.5,124,1342.5,124z
			 M1342,123.7C1342,123.7,1342,123.7,1342,123.7c-0.1,0-0.2,0-0.3-0.1C1341.8,123.7,1342,123.7,1342,123.7z M1341.5,124
			c0.1,0.1,0.2,0.3,0.2,0.4c0.1,0,0.2,0,0.3,0c0,0,0,0,0.1,0l-0.3,0C1341.6,124.3,1341.6,124.1,1341.5,124L1341.5,124z
			 M1341.3,123.5C1341.3,123.5,1341.3,123.5,1341.3,123.5C1341.3,123.5,1341.3,123.5,1341.3,123.5
			C1341.3,123.5,1341.3,123.5,1341.3,123.5z M1261.7,125.8C1261.8,125.8,1261.8,125.8,1261.7,125.8c0,0-0.1,0-0.1-0.1
			C1261.7,125.7,1261.7,125.7,1261.7,125.8z M1261.3,125.5C1261.3,125.5,1261.3,125.5,1261.3,125.5c0,0-0.1,0-0.2,0
			C1261.1,125.5,1261.2,125.5,1261.3,125.5z M1260.5,125.3c0,0,0.1,0,0.1,0c-0.1,0-0.2,0-0.3,0
			C1260.4,125.3,1260.5,125.3,1260.5,125.3z M1160.5,126.2C1160.5,126.3,1160.5,126.3,1160.5,126.2c0,0-0.1-0.1-0.1-0.1
			C1160.4,126.2,1160.4,126.2,1160.5,126.2z M1160.1,126C1160.1,126,1160.1,126,1160.1,126c0,0-0.1,0-0.2-0.1
			C1160,125.9,1160.1,125.9,1160.1,126z M1159.7,125.8C1159.7,125.8,1159.7,125.8,1159.7,125.8c-0.1,0-0.2,0-0.3,0
			C1159.5,125.8,1159.6,125.8,1159.7,125.8z M1155.6,125.9C1155.6,125.9,1155.6,126,1155.6,125.9c0,0-0.1-0.1-0.1-0.1
			C1155.5,125.9,1155.5,125.9,1155.6,125.9z M1155.2,125.7C1155.2,125.7,1155.2,125.7,1155.2,125.7c-0.1,0-0.1,0-0.2-0.1
			C1155,125.6,1155.1,125.6,1155.2,125.7z M1154.6,125.5C1154.6,125.5,1154.6,125.5,1154.6,125.5c-0.1,0-0.2,0-0.3,0
			C1154.4,125.5,1154.5,125.5,1154.6,125.5z M1145.2,126.2C1145.2,126.2,1145.2,126.2,1145.2,126.2c0,0-0.1-0.1-0.2-0.1
			C1145,126.1,1145.1,126.1,1145.2,126.2z M1144.5,125.9C1144.5,125.9,1144.5,125.9,1144.5,125.9c-0.1,0-0.2,0-0.4,0
			C1144.2,125.9,1144.4,125.8,1144.5,125.9z M1143.4,125.8C1143.4,125.8,1143.4,125.8,1143.4,125.8
			C1143.4,125.8,1143.4,125.8,1143.4,125.8C1143.4,125.8,1143.4,125.8,1143.4,125.8c-0.1,0-0.3,0-0.5,0
			C1143,125.8,1143.2,125.8,1143.4,125.8z M1059.2,378.7C1059.2,378.7,1059.2,378.7,1059.2,378.7
			C1059.2,378.7,1059.2,378.7,1059.2,378.7C1059.2,378.7,1059.2,378.7,1059.2,378.7z M992.4,128.3
			C992.4,128.3,992.4,128.3,992.4,128.3c0,0-0.1-0.1-0.1-0.1C992.3,128.3,992.4,128.3,992.4,128.3z M992.1,128.1
			C992.1,128.1,992.1,128.1,992.1,128.1c0,0-0.1,0-0.2-0.1C992,128,992,128,992.1,128.1z M991.6,127.9
			C991.6,127.9,991.6,127.9,991.6,127.9c-0.1,0-0.2,0-0.3,0C991.4,127.8,991.5,127.8,991.6,127.9z M987.2,128
			C987.2,128,987.2,128,987.2,128c0,0-0.1-0.1-0.1-0.1C987.1,128,987.2,128,987.2,128z M986.8,127.7
			C986.8,127.7,986.8,127.7,986.8,127.7c-0.1,0-0.1,0-0.2-0.1C986.7,127.7,986.8,127.7,986.8,127.7z M986.2,127.6
			C986.3,127.6,986.3,127.6,986.2,127.6c-0.1,0-0.2,0-0.3,0C986,127.5,986.2,127.5,986.2,127.6z M976.2,128.3
			C976.3,128.3,976.3,128.3,976.2,128.3c0,0-0.1-0.1-0.2-0.1C976.1,128.2,976.2,128.3,976.2,128.3z M975.6,128
			C975.6,128,975.6,128,975.6,128c-0.1,0-0.2,0-0.3,0C975.3,127.9,975.5,127.9,975.6,128z M974.5,127.9
			C974.5,127.9,974.5,127.9,974.5,127.9C974.6,127.9,974.6,127.9,974.5,127.9C974.6,127.9,974.6,127.9,974.5,127.9
			c-0.1,0-0.3,0-0.4,0C974.2,127.9,974.4,127.9,974.5,127.9z M967.7,493.4c-0.1,0-0.2,0-0.2,0c0.5-0.1,1.1-0.2,1.6-0.3
			C968.7,493.2,968.2,493.3,967.7,493.4z M973.8,492c0,0-0.1,0-0.1,0c0.6-0.2,1.3-0.4,2-0.5C975.1,491.7,974.4,491.9,973.8,492z
			 M981,489.9C981,489.9,981,489.9,981,489.9c0.8-0.3,1.7-0.6,2.5-0.9C982.7,489.3,981.9,489.6,981,489.9z M1067.3,486.7
			c0.1,0,0.2,0,0.4-0.1c0,0,0,0,0,0C1067.6,486.7,1067.4,486.7,1067.3,486.7z M1073.4,485.3c0.1,0,0.2-0.1,0.4-0.1c0,0,0,0,0,0
			C1073.7,485.3,1073.6,485.3,1073.4,485.3z M1232.9,433.5c-1.6,1.7-3.9,2.8-6.5,3.6c-2.6,0.8-5.6,1.2-8.4,1.5
			c-2.9,0.3-5.6,0.5-7.9,0.7c-0.8,0.1-2,0.2-3.7,0.3c-1.7,0.2-3.9,0.3-6.5,0.6c-2.6,0.2-5.5,0.5-8.8,0.8c-3.3,0.3-6.9,0.6-10.8,0.9
			c-3.9,0.3-8.1,0.7-12.5,1c-4.4,0.4-9,0.7-13.8,1.1c-4.8,0.4-9.7,0.7-14.8,1.1c-5.1,0.4-10.2,0.7-15.4,1.1
			c-6.1,0.4-12.2,0.8-18.2,1.2c-6,0.4-11.9,0.8-17.7,1.1c-5.7,0.4-11.3,0.7-16.6,1c-5.3,0.3-10.3,0.6-15,0.9
			c-4.7,0.3-9,0.5-12.9,0.7c-3.9,0.2-7.3,0.4-10.1,0.6c-2.9,0.2-5.2,0.3-6.9,0.4c-1.7,0.1-2.7,0.1-3.1,0.2c-2.7,0-5.3,0.1-7.7,0
			c-2.4-0.1-4.5-0.3-6.4-0.7c-1.9-0.5-3.5-1.2-4.8-2.2c-1.3-1.1-2.3-2.5-2.8-4.5c-0.9-3.1-1.6-5.9-2.2-8.7c-0.6-2.7-1.1-5.4-1.6-8.1
			c-0.4-2.7-0.8-5.4-1.2-8.2c-0.4-2.9-0.8-5.9-1.3-9.2c-1-8.5-2.5-20.5-4.3-33.8c-1.7-13.3-3.7-27.8-5.5-41.5
			c-1.8-13.7-3.6-26.5-4.9-36.2c-1.3-9.8-2.3-16.6-2.5-18.2c-0.7-4.9-1.3-9.9-2-14.8c-0.7-4.9-1.3-9.9-2-14.8
			c-0.7-4.9-1.3-9.9-2-14.8c-0.7-4.9-1.3-9.9-2-14.8c-0.1-0.7-0.5-4.3-1.2-9.6c-0.7-5.3-1.5-12.3-2.5-19.5
			c-0.9-7.3-1.9-14.9-2.8-21.5c-0.9-6.6-1.6-12.3-2.1-15.6c-0.3-2,0.1-3.7,1.1-5.2c1-1.4,2.4-2.6,4.2-3.6c1.8-1,3.9-1.7,6.2-2.3
			c2.2-0.6,4.6-1,6.9-1.2c0,0,0.3,0,0.7-0.1c0.4,0,0.9-0.1,1.5-0.1c0.6,0,1.2-0.1,1.8-0.1c0.6,0,1.2-0.1,1.7-0.1c0.4,0,0.8,0,1.2,0
			c0.4,0,0.7,0,1,0c0.3,0,0.6,0,0.9,0c0.3,0,0.6,0,0.9,0c0.3,0,0.7,0,1.2,0c0.5,0,1,0,1.5,0.1c0.5,0,1,0.1,1.3,0.1
			c0.4,0,0.6,0,0.6,0c1.4,0.1,2.8,0.3,4.2,0.5c1.4,0.2,2.7,0.5,3.9,0.9c1.3,0.4,2.4,0.8,3.5,1.3c1.1,0.5,2.1,1.1,3,1.8
			c1.8,1.4,3.4,3.3,4.8,5.3c1.4,2.1,2.5,4.3,3.5,6.6c1,2.3,1.7,4.7,2.4,6.9c0.6,2.2,1.1,4.3,1.4,6.1c0.3,1.8,0.9,6.4,1.7,13
			c0.8,6.7,1.8,15.4,3,25.7c1.2,10.3,2.6,22,4.1,34.6c1.5,12.6,3.1,26.1,4.9,39.7c0.1,0.9,1,7.9,2.4,17.8c1.3,9.9,3.1,22.9,4.8,35.9
			c1.7,13,3.5,26.1,4.9,36.3c1.4,10.2,2.3,17.4,2.5,18.7c0.4,0,2.6-0.1,6.2-0.2c3.6-0.1,8.5-0.3,14.4-0.6c5.9-0.3,12.7-0.6,20-0.9
			c7.3-0.4,15.1-0.8,22.9-1.2c7.6-0.4,15.1-0.9,22.2-1.4c7-0.5,13.6-1,19.3-1.4c5.7-0.4,10.5-0.8,14-1.1c3.5-0.3,5.8-0.5,6.4-0.5
			c-2.2-13.8-5.2-31-8.5-49.1c-3.3-18.1-6.8-37.1-10.1-54.6c-3.3-17.4-6.4-33.3-8.7-45.2c-2.3-11.9-3.9-19.8-4.1-21.2
			c-0.1-0.6-0.8-4.2-1.7-9.3c-1-5.1-2.2-11.9-3.5-18.9c-1.3-7.1-2.6-14.4-3.7-20.9c-1.1-6.4-2.1-11.9-2.5-15.1c-0.3-2,0.1-3.6,1-5
			c0.9-1.4,2.3-2.6,3.9-3.5c1.7-0.9,3.7-1.7,5.8-2.2c2.1-0.5,4.3-0.9,6.5-1.2c0,0,0.3,0,0.6-0.1c0.4,0,0.8-0.1,1.4-0.1
			c0.5,0,1.1-0.1,1.7-0.1c0.6,0,1.1-0.1,1.6-0.1c0.4,0,0.8,0,1.2,0s0.7,0,1,0c0.3,0,0.6,0,0.9,0c0.3,0,0.5,0,0.8,0
			c0.3,0,0.7,0,1.1,0c0.4,0,0.9,0,1.4,0.1c0.5,0,0.9,0.1,1.2,0.1c0.3,0,0.6,0,0.6,0c1.3,0.1,2.6,0.3,3.9,0.5
			c1.3,0.2,2.5,0.5,3.7,0.8c1.2,0.3,2.3,0.8,3.4,1.3c1,0.5,2,1.1,2.9,1.8c1.8,1.4,3.3,3.2,4.6,5.2c1.3,2,2.4,4.2,3.4,6.5
			c0.9,2.3,1.7,4.5,2.3,6.7c0.6,2.2,1.1,4.2,1.4,5.9c0.4,2.3,2.4,12.8,5.1,27.2c2.7,14.5,6.2,33,9.6,51.4
			c3.4,18.5,6.9,36.9,9.6,51.2c2.7,14.3,4.6,24.4,4.9,26.3c0.1,0.6,0.7,3.8,1.6,8.5c0.9,4.8,2.1,11.1,3.3,18
			c1.3,6.9,2.7,14.3,4,21.3c1.3,6.9,2.6,13.4,3.6,18.3c1,5.1,1.9,9.4,2.5,13.1c0.7,3.7,1.2,6.8,1.5,9.5c0.4,2.7,0.6,5,0.9,7.1
			c0.2,2.1,0.4,3.9,0.5,5.8C1235.4,429.6,1234.5,431.8,1232.9,433.5z M1339.3,356.8C1339.3,356.8,1339.3,356.8,1339.3,356.8
			C1339.3,356.8,1339.3,356.8,1339.3,356.8C1339.3,356.8,1339.3,356.8,1339.3,356.8z M1339.1,356.8
			C1339.1,356.8,1339.1,356.8,1339.1,356.8C1339.1,356.8,1339.1,356.8,1339.1,356.8C1339.1,356.8,1339.1,356.8,1339.1,356.8
			C1339.1,356.8,1339.1,356.8,1339.1,356.8z M1505.3,412c-0.3,1.5-0.9,2.8-1.5,3.9c-0.6,1.1-1.3,1.9-2,2.6c-0.4,0.3-1.1,0.6-2.2,0.9
			c-1.1,0.3-2.4,0.5-3.9,0.8c-1.5,0.2-3.3,0.4-5.1,0.6c-1.8,0.2-3.7,0.3-5.5,0.5c-1.2,0.1-2.5,0.2-3.6,0.2c-1.2,0.1-2.3,0.1-3.4,0.1
			c-1.1,0-2.1,0-3,0c-0.9,0-1.7,0-2.3-0.1c-2.6-0.1-4.8-1.3-6.6-3.1c-1.9-1.8-3.4-4.2-4.6-6.9c-1.3-2.7-2.2-5.7-3-8.5
			c-0.8-2.9-1.4-5.6-1.9-7.9c-0.2-1-1.6-6.6-3.6-14.8c-2-8.2-4.7-18.9-7.5-30.3c-2.8-11.4-5.8-23.4-8.3-34.1
			c-2.6-10.7-4.8-20.1-6.1-26.2c-0.3-1.3-1.6-6.5-3.6-14.1c-1.9-7.6-4.5-17.5-7.2-28c-2.7-10.6-5.7-21.8-8.3-32.1
			c-2.7-10.3-5.1-19.7-6.9-26.4c-0.1,0-0.1,0-0.2,0c-0.1,0-0.1,0-0.2,0c-0.1,0-0.1,0-0.2,0c-0.1,0-0.1,0-0.2,0
			c-3.7,0.1-7.4,0.1-11.2,0.2c-3.8,0-7.7,0-11.7,0c-4.1,0-8.3,0-12.7,0.1c-4.5,0-9.2,0.1-14.2,0.2c-5.1,0.1-10.1,0.3-15.1,0.5
			c-5,0.2-9.8,0.4-14.6,0.6c-4.8,0.2-9.4,0.4-13.8,0.6c-4.5,0.2-8.7,0.3-12.8,0.4c1.2,7.7,2.3,13.5,3.6,20
			c1.3,6.5,2.8,13.6,4.8,23.9c2.1,10.4,4.7,23.9,8.2,43.3c3.6,19.4,8,44.6,13.8,78.3c0.1,0.6,0.7,3.8,1.6,8.4
			c0.9,4.6,2,10.6,3.2,16.8c1.2,6.2,2.4,12.5,3.4,17.7c1,5.2,1.8,9.3,2.2,11.1c0.5,2.5,0.7,4.7,0.7,6.7c0,2-0.3,3.8-0.7,5.4
			c-0.4,1.6-1,2.9-1.7,4.1c-0.7,1.1-1.5,2-2.2,2.7c-0.4,0.3-1.2,0.6-2.3,0.9c-1.1,0.3-2.6,0.5-4.2,0.8c-1.6,0.2-3.5,0.5-5.4,0.7
			c-1.9,0.2-3.9,0.4-5.9,0.5c-1.3,0.1-2.6,0.2-3.9,0.2c-1.3,0.1-2.5,0.1-3.6,0.1c-1.1,0-2.2,0.1-3.1,0.1c-0.9,0-1.8,0-2.5,0
			c-2.8-0.1-5.1-1.3-7.1-3.2c-2-1.8-3.6-4.4-5-7.1c-1.4-2.8-2.4-5.8-3.3-8.8c-0.9-2.9-1.5-5.8-2-8.1c-0.2-1.1-0.4-2.2-0.6-3.2
			c-0.2-1.1-0.4-2.2-0.5-3.3c-0.2-1.1-0.3-2.2-0.5-3.3c-0.2-1.1-0.4-2.2-0.6-3.3c-0.4-2.1-0.8-4.2-1.1-6.3c-0.4-2.1-0.8-4.2-1.1-6.3
			c-0.4-2.1-0.8-4.2-1.1-6.3c-0.4-2.1-0.8-4.2-1.1-6.3c-1.5-8.2-3.5-19.4-5.7-31.6c-2.2-12.2-4.7-25.4-7-37.7
			c-2.3-12.3-4.4-23.7-6-32.3c-1.6-8.6-2.7-14.4-2.9-15.4c-1.1-5.3-2.7-14.1-4.6-24.3c-1.9-10.1-4-21.7-5.9-32.6
			c-2-10.9-3.8-21.1-5.1-28.7c-1.4-7.6-2.2-12.6-2.3-12.8c0-0.1,0-0.2-0.1-0.4s0-0.2,0-0.4c0-0.1,0-0.2,0-0.3s0-0.2,0-0.3
			c-0.1-2.2,0.7-3.9,2-5.4c1.4-1.4,3.3-2.5,5.5-3.4c2.2-0.8,4.7-1.4,7.2-1.8c2.5-0.4,4.9-0.5,7.1-0.6c0.2,0,0.5,0,0.7,0s0.4,0,0.7,0
			c0.2,0,0.4,0,0.6,0s0.4,0,0.6,0c0.2,0,1.1,0,2.3-0.1c1.3,0,3.1-0.1,5.3-0.2c2.2-0.1,4.9-0.2,7.9-0.2c3-0.1,6.4-0.2,10.1-0.3
			c3.7-0.1,7.6-0.2,11.8-0.3c4.2-0.1,8.6-0.2,13.2-0.3c4.6-0.1,9.4-0.2,14.3-0.3c4.9-0.1,9.9-0.2,14.9-0.3c0.1,0,0.2,0,0.3,0
			c0.1,0,0.2,0,0.3,0s0.2,0,0.3,0c0.1,0,0.2,0,0.3,0c10.2-0.2,19.9-0.3,28.8-0.3c8.9-0.1,17.1-0.1,24.1-0.1c7,0,12.9,0,17.3,0
			c4.4,0,7.3,0,8.5,0c0.2,0,0.3,0,0.4,0c0.1,0,0.2,0,0.3,0c0.1,0,0.2,0,0.2,0s0.1,0,0.2,0c2.1,0,4,0.2,5.8,0.6
			c1.8,0.4,3.4,0.9,4.8,1.6c1.4,0.7,2.7,1.5,3.8,2.3c1.1,0.8,1.9,1.7,2.6,2.6c0.3,0.4,1.1,2.9,2.2,7c1.1,4.1,2.6,9.8,4.3,16.6
			c1.7,6.8,3.7,14.6,5.8,23c2.1,8.4,4.3,17.4,6.5,26.4c2.2,9,4.4,18.1,6.5,26.6c2.1,8.6,4,16.7,5.7,23.7c1.7,7.1,3.1,13.1,4.2,17.7
			c1.1,4.5,1.8,7.5,1.9,8.5c1.1,4.5,2.2,9,3.3,13.5c1.1,4.5,2.2,9,3.3,13.5c1.1,4.5,2.2,9,3.3,13.6c1.1,4.5,2.2,9,3.3,13.6
			c0.1,0.6,0.9,3.7,2,8.1c1.1,4.5,2.5,10.3,4,16.2c1.5,6,3,12.1,4.2,17.1c1.2,5,2.2,9,2.5,10.7c0.5,2.4,0.8,4.6,0.8,6.5
			C1505.8,408.7,1505.6,410.5,1505.3,412z"/>
		<polygon class="st0" points="1149.5,125.4 1149.5,125.4 1149.5,125.4 1149.5,125.4 		"/>
		<polygon class="st0" points="1149.5,125.4 1149.5,125.4 1149.5,125.4 		"/>
	</g>
</g>
</svg>
