<?xml version="1.0" encoding="utf-8"?>
<!-- Generator: Adobe Illustrator 25.2.0, SVG Export Plug-In . SVG Version: 6.00 Build 0)  -->
<svg version="1.1" id="Layer_1" xmlns="http://www.w3.org/2000/svg" xmlns:xlink="http://www.w3.org/1999/xlink" x="0px" y="0px"
	 viewBox="0 0 499 774.9" style="enable-background:new 0 0 499 774.9;" xml:space="preserve">
<style type="text/css">
	.st0{fill:url(#SVGID_1_);}
</style>
<g>
	<g>
		
			<linearGradient id="SVGID_1_" gradientUnits="userSpaceOnUse" x1="-41.181" y1="30.4182" x2="448.194" y2="803.2932" gradientTransform="matrix(1 0 0 -1 0 774)">
			<stop  offset="1.576239e-02" style="stop-color:#5DB737"/>
			<stop  offset="0.5" style="stop-color:#26B24D"/>
			<stop  offset="1" style="stop-color:#15BC80"/>
		</linearGradient>
		<path class="st0" d="M447.4,170.3c-3.7-22.5-11.5-67.5-15.7-91.1c-5.4-27.6-5.4-45.7-19.5-62.8C399.6,0.8,379.2-0.4,360,0.1
			c-8.2,0.1-16.6-0.1-24.6,2.1c-13.9,3.2-31.6,16.2-39.8,23.4l0,0c-27.2,22.5-37.6,37.8-46,69.9l0,0c-1.7,6.1-3.6,12.1-5.4,18.1
			c0-0.1,0.1-0.3,0.2-0.4c-3.2,10.3-8.1,26.7-10.6,35c-4.7-9.9-37-66-43.2-74.6c-7.3-11.3-14-23.3-20.7-33.8l0,0
			C159.5,24.1,149.5,11.7,130.7,5c-2.3-0.8-2.6-0.9-9-2.4c-3.7-0.8-12-1.7-15.9-1.9c-8.4-0.5-18.4-0.6-29.8,1
			C62.1,3.8,54.7,8,51.9,9.6c-4.6,2.7-7.2,4.7-11.2,7.8c-6.8,5.3-12,10.7-18.2,17.1C9.1,48.5-2,64.3,0.2,83.8c0-0.1,0-0.2,0-0.2
			c0,0.1,0,0.2,0,0.2C13.8,225.7,27.5,367.6,41,509.5l0,0c2.2,18.5,7.7,29.2,14.7,37.2c0.9,1,4.4,6,5.1,7.6
			c23.7,49.3,2.7,112.7,1.2,192c0,4,0.4,9.5,1.6,14.1c3.6,11.3,21.3,17,35.2,13.4c40.9-9,5.1-65,9-138.5
			c3.2-49.2,0.5-63.5,22.5-77.7c0.8-0.5,4.4-2,5.3-2.2c8.4-2.3,17.5-6.9,21.5-9.2c5.8-3.4,8.5-4.6,15.5-9.5
			c18.5-13,24.8-26.8,22-49.2l0,0c-2-22.1-4.6-44.3-6.7-66.5c10.1,14.2,26,19.5,44.2,18.4l0,0c4.6-0.2,9-0.4,13.7-0.9
			c2.2-0.2,8.7-0.9,16-3.1c9.5-2.8,18.7-7.6,25.3-11.5c11.5-6.8,25.8-15.7,34-27.9c4.9-8.1,4.3-8.6,6.2-15.2c0,0,0.1-0.3,0.2-0.7
			c8.4,50.8,12.7,80.2,21.7,122.3l0,0c2.3,13.2,10.3,36.9,12.4,58.7c2.2,22.4-30.4,109.7,18.9,106.2c69.4-9.9-17.1-126.5,31.2-130.7
			c9-0.8,20.1-2.3,29.2-5.5c9.9-3.4,13.6-5.5,20.7-8.9c13.2-6.3,30.2-17.1,34.9-31.4c2.6-7.1,2.9-15.4,2-21.9
			c-3.7-20.9-9.1-50.2-12.3-68.6C471.5,315.6,460.8,250.2,447.4,170.3z M194.7,487.2C194.7,487.3,194.7,487.3,194.7,487.2
			C194.7,487.3,194.7,487.3,194.7,487.2L194.7,487.2z M194.5,487.1L194.5,487.1L194.5,487.1L194.5,487.1z M194.2,487
			C194.3,487,194.3,487,194.2,487C194.3,487,194.3,487,194.2,487L194.2,487z M465,362.5c6,35,12.1,69.8,18.5,104.5
			c0.9,5,0.9,9.7-0.6,14.1c-1.1,3.2-2.9,6-5.4,7.8c-4.5,2-10.7,2.2-16,2.9c-7.2,0.7-15,1.2-22.2,1.3c-13.6,1.4-19.2-10.9-22.1-22.1
			c-21.4-105.1-35.1-215.9-54.4-321.4c-14.7,46.3-25.3,92-34.4,139.6c-5.5,28.1-10.7,56.4-16.5,84.6c-0.7,3.4-1.9,6.2-3.6,8.3
			c-7,8.6-19.8,7.7-30.2,8.5c-15.3,1-26.2-2.8-32.6-16.7c-4.7-10.1-8.3-23-12.4-33.8c-4.8-13.5-10-27-15.3-40.4
			c-21.3-53.2-46.1-105-74.2-155c11.5,114,23,228.1,34.5,342.3c0.6,7.5,1.5,16-3.9,21.5c-2.5,2.5-7.3,3-10.8,3.5
			c-8.3,1.2-16.4,1.9-24.9,1.8c-4.6-0.1-9.1-0.1-13.9-0.4c-7.6-0.4-12.5-6-15.8-12.4c-3.1-5.9-5-13.9-5.6-20
			C96,407,88.8,333.3,81.6,259.7c-7.1-72.6-14.2-145.2-21.3-217.6c-0.5-5.3,0.5-10.6,3.8-14.8c3.7-5,9.4-6.7,15.8-7.9
			c7.8-1.4,16.6-1.9,25-1.6c19.6,0.6,33,3.7,45.3,19.7c10,13.3,17.4,27.9,27.6,43.6c32.8,51.9,61.6,107.3,86.7,163.8
			c10.5-43,21.5-85.8,34-128.2c6.3-21.6,12.8-42.8,18.9-64.4c3.7-11.8,8.5-23.8,19.1-30.6c5.1-3.2,11.4-5,19.5-5
			c3.5,0,7.2-0.2,10.9-0.2c12.9,0.1,29.2-0.6,37,11.4c4.4,6.2,6.8,14.4,8.1,21.6C430.6,153.5,447.2,258.4,465,362.5z"/>
	</g>
</g>
</svg>
