<?xml version="1.0" encoding="utf-8"?>
<!-- Generator: Adobe Illustrator 27.4.1, SVG Export Plug-In . SVG Version: 6.00 Build 0)  -->
<svg version="1.1" id="Layer_1" xmlns="http://www.w3.org/2000/svg" xmlns:xlink="http://www.w3.org/1999/xlink" x="0px" y="0px" viewBox="0 0 3088.1 616.5" style="enable-background:new 0 0 3088.1 616.5;" xml:space="preserve">
<style type="text/css">
	.st0{fill:#EF4436;}
	.st1{fill:#674727;}
</style>
<g>
	<g>
		<g>
			<path class="st0" d="M261.3,243.4c-14.3-7.9-27.4-18.7-35.5-21.8c-7.7-3-12.8,0.4-15.1,3.5c-2.3,3-6.7,9,3.1,14.8
				c10.5,6.2,25.3,12.2,34,17.5c5.2,3.1,25.4,14.5,31.3,6.6C283.1,258.7,275.3,251.2,261.3,243.4z"/>
			<path class="st0" d="M295.5,87.3c8.2,5.8,18.3,11.6,29.9,16c5.8,2.3,12,4.2,18.3,5.6c3.2,0.8,6.3,1.3,9.7,2
				c3.2,0.4,6.5,1.1,9.8,1.5c6.6,0.8,13.2,1.3,19.8,1.3c2.7,0,5.2,0,7.8,0c0.1-0.8,0.4-1.5,0.5-2.3c4-21-1.1-30.8-8.1-33.6
				c-10-3.9-25.7,15.7-35.1,30.3l0,0c23.7-36.3,45.3-68.6,40.5-72.9c-5.1-5.9-23.9-3-41.6,5c-22.5,10-41.3,24.9-53.7,45.5
				C293.9,86.2,294.7,86.7,295.5,87.3z"/>
			<path class="st0" d="M229.2,276.6c-3.9-1.1-12-1.2-14.9,4.7c-3.2,6.3-0.5,8.6,5.2,11.4c4.6,2.2,51.1,11.6,52.7,2.2
				C273.7,286.6,236.3,278.7,229.2,276.6z"/>
			<path class="st0" d="M289,228.6c6.7,3.5,13.4,5.8,15.6,3.1c4.2-5-10.5-16.7-14.7-20.2c-7.7-6.5-17.2-13.2-23.5-17.8
				c-8.6-6.1-18.4,4.2-14,10.2C255.4,208,282.4,225.3,289,228.6z"/>
			<path class="st0" d="M420,385c4,6.6,15.3,25.1,18.3,29.2c9.3,12.5,21.1-0.5,11.6-10.8c-3.2-3.5-17.3-20-23-26.1
				C420.5,370.4,414.1,375.4,420,385z"/>
			<path class="st0" d="M411.9,180.2c-1.6,1.2-3.2,2.4-4.7,3.8c4.2,5.6,5,13.2,2.7,19c-0.7,1.6-2.2,2.7-3.8,2.7
				c-0.5,0-0.9-0.1-1.5-0.3c-2.2-0.8-3.1-3.1-2.4-5.2c0.9-2.6,1.1-7.4-1.5-11c-13.4,11.6-26.4,24.7-36.3,36
				c-38.6,43.2-36.2,54.6,4.2,85.9c53.5,41.6,69,12.5,92.7-44c3-7,5.5-13.6,7.8-19.9c-0.5-0.9-0.7-2-0.4-3.1c1.3-4.4,0.1-7.9-0.9-10
				c-1.7-3.1-4.8-5.5-8.5-6.5c-5.2-1.3-10.1,0-14.3,4c-1.6,1.6-4.2,1.5-5.6,0c-1.6-1.6-1.5-4.2,0-5.6c6.2-6.1,14-8.2,21.9-6.1
				c5.6,1.5,10.5,5.2,13.3,10.2c0.4-1.6,0.9-3.2,1.3-4.8c7.1-27.2,6.3-46.1-3.4-56.1c-1.2-1.2-2.4-2.3-3.9-3.2
				C453.4,155.9,432.4,165,411.9,180.2z"/>
			<path class="st0" d="M322.9,396.1c0,0,45.2,29.3,68.2-12.4c12.8-24.7,20.4-40.6-22.5-54.1c-36.7-11.4-45.6-24.2-64.6,11.3
				C292.1,363.1,287.7,379,322.9,396.1z"/>
			<path class="st0" d="M351.7,167.2c18.6-9.8,30.4-25.6,36.4-44c-1.9,0-3.8-0.1-5.6-0.1c-6.9-0.3-13.7-0.9-20.6-2
				c-3.5-0.5-6.9-1.2-10.4-1.9c-3.2-0.7-6.7-1.6-10-2.6c-6.6-1.9-12.9-4.2-19-6.7c-12-5.2-22.3-11.7-30.5-18.3
				c-0.5-0.5-1.1-0.9-1.6-1.3c-0.1,0.1-0.1,0.3-0.3,0.4c-5.4,10-9.3,21.4-11.6,34.4C270.6,171.3,313.5,187.2,351.7,167.2z"/>
			<path class="st0" d="M375.5,565.2c1.7,4.8,5.4,12,13.3,22.5c13.4,17.9,56.1,39.7,67.4,3.6C414.4,593.2,389.5,578.7,375.5,565.2z"/>
			<path class="st0" d="M576,249.9c-11.3-5.2-22.2-13.4-31.2-23.1l-3.4-3.8l-3.1-3.6c-2.2-2.7-4.2-5.1-6.1-7.8
				c-3.8-5.2-7.3-10.6-10.2-16c-0.1-0.3-0.3-0.4-0.4-0.7c-9.5,9-15.9,19-18.8,32.3c-0.5,2.7-1.1,5.4-1.3,8.3
				c-4,37.9,31.2,67.8,69.1,50.2c11.8-5.5,21.5-12.4,29.3-20.3c1.7-1.7,3.4-3.6,4.8-5.5c0.4-0.5,0.7-0.9,1.1-1.5
				c-4.2-0.5-8.6-1.2-13.2-2.3C587.4,254.4,581.7,252.4,576,249.9z"/>
			<path class="st0" d="M606.1,158.7c-6.6,3.4-12.5,12-18.2,19c-9.1,11-11.6,16-23,31.5c9.7-13,13.3-22.5,5.9-30.4
				c-5.2-5.6-18-6.9-36.4,6.1c-1.6,1.2-3.2,2.4-4.8,3.5c0.4,0.8,0.8,1.6,1.2,2.6c2.7,5.2,5.8,10.4,9.1,15.5c1.6,2.6,3.5,5.1,5.4,7.5
				l3,3.8l3,3.5c4,4.7,8.3,9.1,13,12.9c4.7,3.9,9.7,7.3,14.8,10c5.1,2.7,10.4,4.8,15.5,6.5c5.1,1.5,10.1,2.8,14.8,3.5c0,0,0,0,0.1,0
				c11.2-16.8,16.4-38.2,18.2-57.7c0.4-3.8,0.5-7.5,0.4-11C627.8,173.6,622.3,150.2,606.1,158.7z"/>
			<path class="st0" d="M373.1,444.7c9.5-29.3-4-26.6-22.5-28.6c-17.5-2-33.5-9.5-41.7-14.9c-14.9-10.8-19.2,12-19.2,12
				c-8.7,35.8,10.5,44.1,26.9,51.9C357.3,482,369.2,456.2,373.1,444.7z"/>
			<path class="st0" d="M508.1,333.8c-6.7-2.6-24.9-9.1-34.8-12.5c-14.7-4.8-21.2-0.8-6.5,8.9c6.2,4,7.3,5.1,23.1,14.4
				s22.1,9.8,25.6,3.6C518.9,342.3,514.8,336.5,508.1,333.8z"/>
			<path class="st0" d="M489.3,367.7c0,0-34.6-17.9-40.3-21c-7.7-4-16,1.6-5.1,9.8c7.1,5.4,25.7,19.5,31.3,23.8
				c7,5.2,14.5,11.2,20.8,2.4C502.2,373.9,489.3,367.7,489.3,367.7z"/>
			<path class="st0" d="M394.3,512.1c-2.3-9.3-12.2-25.8-24.5-26.9c-4.4-0.4-7.7-0.3-11.4-0.3c-10.8,0.1-18.8-1.3-28-3
				c-6.7-1.2-13.3-3.6-16.7,1.1c-2.8,5-4.7,10,2.7,20.8c8.2,11.8,18,24.7,39.3,28C363.7,533,400.6,538.1,394.3,512.1z"/>
			<path class="st0" d="M453.6,519.1c-10,1.5-34.3,4.8-42,15.7c-2.8,4.4-7.8,15.5-36.8,17.8c-2.6,0.4-7.1,1.1-7.5,3.6
				c-0.1,1.3,1.1,3.4,4.8,6.2c0.3,0.3,0.7,0.5,1.1,0.8c11,7.9,33.8,20.4,61.2,22.7c3.6,0.3,13.4,1.1,22.9-0.5l0,0
				c14.4-2.3,27.7-9.4,18.3-30.3c-12.1,6.6-36.3,11.4-84.6,2.8c37.7,4.8,77.2-3.6,91.2-13.4c0.7-1.9,0.8-4,0.7-6.3
				C482,530.3,479,515.2,453.6,519.1z"/>
		</g>
		<g>
			<g>
				<path class="st1" d="M407.1,204c0.4,0.1,0.9,0.3,1.5,0.3c1.6,0,3.2-0.9,3.8-2.7c3.1-8.5,0.1-20.3-10.2-25
					c-9-4-17.8,0.5-21.9,6.5c-1.3,1.7-0.9,4.3,0.9,5.6s4.3,0.9,5.6-0.9c1.9-2.6,6.5-6.3,12.1-3.9c6.9,3.1,7.3,11.2,5.9,14.8
					C404,200.9,405.1,203.2,407.1,204z"/>
				<path class="st1" d="M389.6,123.2c-0.1,0.4-0.3,0.8-0.4,1.2c-2,4.7-4.2,9.1-6.6,13c-2.6,3.9-5.1,7.5-7.8,10.6s-5.5,5.8-8.1,8.1
					s-5,4-7,5.5c-2,1.5-3.6,2.6-4.7,3.4c-1.1,0.8-1.7,1.2-1.7,1.2l0,0c-0.5,0.4-0.8,1.1-0.5,1.9c0.3,0.8,1.2,1.2,2,0.9
					c0,0,0.7-0.3,2-0.7c1.3-0.4,3.2-1.2,5.6-2.3c2.4-1.1,5.2-2.6,8.3-4.4c3.1-2,6.6-4.4,10.1-7.4c3.4-3.1,7-6.7,10.1-11
					c3.2-4.3,6.1-9,8.5-14.4c0.5-1.3,1.3-2.8,1.7-4c0.1-0.5,0.4-0.9,0.5-1.5C397.7,123.3,393.6,123.3,389.6,123.2z"/>
				<path class="st1" d="M272.6,148.2c3.5,9.5,10,16.8,16.7,21.1c6.7,4.3,13.6,6.2,19,7.1c5.5,0.9,9.8,0.8,12.8,0.5
					c1.5-0.1,2.6-0.1,3.4-0.3c0.7-0.1,1.1-0.1,1.1-0.1c0.7,0,1.1-0.5,1.2-1.2c0-0.7-0.5-1.3-1.2-1.3c0,0-0.4,0-1.1,0
					c-0.8,0-1.9,0-3.2-0.1c-2.8-0.1-6.9-0.5-11.8-1.9c-5-1.3-10.8-3.6-16.1-7.9c-5.4-4.2-10.1-10.6-12.2-18.6
					c-1.1-4-1.6-8.3-1.6-12.9c0-2.3,0.3-4.6,0.5-6.9c0.3-2.2,0.7-5.1,1.1-7.4c1.7-9.4,4.7-19.2,9.1-28.6c-0.3-0.1-0.4-0.4-0.7-0.5
					l-0.9-0.7l-0.7-0.7c-0.4-0.4-0.9-0.8-1.3-1.2c-1.7-1.6-3.4-3-4.8-4.6c-0.7-0.7-1.3-1.3-2-2c-0.4,0.9-0.8,2-1.3,3.2
					c-4.6,11.3-7.1,22.6-8.3,33.6c-0.4,2.8-0.4,5.1-0.7,7.9c-0.1,2.7-0.1,5.4,0.1,8.1C269.6,138.4,270.9,143.5,272.6,148.2z"/>
				<path class="st1" d="M471.9,246.9c1.7,0,3.4-1.1,3.9-2.8c1.6-5.5,1.1-11.3-1.6-16.3c-2.8-5.1-7.7-8.9-13.4-10.4
					c-7.9-2.2-15.7,0-21.9,6.1c-1.6,1.6-1.6,4.2,0,5.6c1.6,1.6,4.2,1.6,5.6,0c4.2-4,8.9-5.4,14.3-4c3.6,0.9,6.6,3.4,8.5,6.5
					c1.2,2.2,2.3,5.5,0.9,10c-0.7,2.2,0.5,4.4,2.7,5C471.1,246.8,471.5,246.9,471.9,246.9z"/>
				<path class="st1" d="M501.2,236.3c0.5,0.1,1.2-0.3,1.2-0.9l0,0c0,0,0.4-2.7,1.1-7.3c0.5-2.3,0.9-4.8,2-8.1c1.1-3,2-6.5,3.6-9.8
					c1.6-3.5,3.6-7,6.1-10.6c1.6-2.3,3.6-4.4,5.6-6.6c-0.9-1.9-2-3.6-3-5.5c-0.7-1.3-1.3-2.6-1.9-3.9v-0.1
					c-3.2,3.8-5.6,7.8-7.9,11.7c-2.3,4.4-4,8.6-5.1,12.8c-1.2,4-1.9,7.8-2.3,11.2c-0.4,3.2-0.5,6.3-0.5,8.7c0.3,4.7,0.4,7.5,0.4,7.5
					C500.3,235.8,500.7,236.2,501.2,236.3z"/>
				<path class="st1" d="M445.2,152.8c-8.3,1.5-15.5,4.4-21.2,7.5c-5.8,3.1-10.1,6.3-13,8.6c-3,2.4-4.4,3.9-4.4,3.9l0,0
					c-0.4,0.4-0.4,0.9-0.3,1.3c0.3,0.5,0.9,0.8,1.6,0.5c0,0,0.4-0.3,1.3-0.7c0.9-0.5,2.2-1.1,3.8-1.9c3.2-1.6,7.9-3.8,13.7-5.6
					c5.6-2,12.5-3.8,19.8-4.3c3.6-0.3,7.3-0.1,10.8,0.5c3.5,0.7,6.9,1.7,9.5,3.6c1.3,0.9,2.7,1.9,3.8,3.1l0.3,0.3l0,0v0.1l0.5,0.5
					l1.1,1.2c0.7,0.8,0.9,1.3,1.5,2c2,2.8,3.4,5.8,4.3,9c0.9,3.1,1.3,6.5,1.5,9.7c0.3,3.2,0.1,6.5,0,9.4c-0.1,1.5-0.1,3-0.3,4.3
					c-0.1,1.3-0.3,2.7-0.4,3.9c-0.1,2.6-0.5,4.7-0.5,6.6c-0.4,3.6-0.5,5.8-0.5,5.8l0,0c0,0.4,0.1,0.8,0.5,1.1
					c0.5,0.4,1.3,0.1,1.6-0.4c0,0,1.2-1.9,2.8-5.2c0.8-1.7,1.7-3.8,2.7-6.2c0.9-2.4,1.9-5.2,2.7-8.5c0.8-3.2,1.5-6.7,1.7-10.8
					c0.3-3.9,0.1-8.2-1.1-12.6c-1.1-4.4-3.1-8.9-6.1-12.8c-0.8-0.9-1.6-2-2.3-2.8l-1.1-1.2l-0.5-0.5l-0.4-0.4l-0.4-0.3
					c-1.7-1.7-3.9-3.4-6.1-4.6c-4.3-2.6-9.3-3.9-13.9-4.4C453.8,151.7,449.3,152,445.2,152.8z"/>
				<path class="st1" d="M456.6,419.7c-1.1,0.5-2.4,0.7-3.8,0.3c-2.7-0.7-5.4-2.8-7.5-5.5c-2.3-3-4.4-5.6-6.5-8.2
					c-2-2.6-3.8-4.8-5.4-7c-1.6-2-3.1-3.9-4.2-5.4c-2.4-3-3.8-4.6-3.8-4.6c-0.3-0.4-0.8-0.5-1.3-0.3c-0.5,0.3-0.7,0.9-0.4,1.3
					c0,0,1.1,1.9,3,5.2c0.9,1.6,2.2,3.6,3.5,5.9c1.3,2.3,2.8,5,4.6,7.7c1.7,2.7,3.6,5.6,5.8,8.7c2.2,3.2,5.4,7,10.6,8.5
					c5,1.7,12.2-0.7,14.7-6.3c1.2-2.7,1.6-5.8,0.9-8.6c-0.1-0.8-0.4-1.3-0.7-2c-0.3-0.7-0.4-1.3-0.8-2c-0.4-0.7-0.8-1.2-1.2-1.9
					c-0.1-0.3-0.4-0.7-0.5-0.9L463,404l-1.1-1.2l-0.3-0.3l-0.5-0.5l-0.5-0.5l-2.3-2.3c-1.5-1.5-3-3.1-4.6-4.6
					c-3-3.1-5.9-5.9-8.9-8.9c-2.8-2.8-5.6-5.6-8.5-8.2c-1.3-1.3-2.7-2.6-3.9-3.8c-1.2-1.1-2.6-2.4-4.3-3.5c-1.6-1.1-3.4-1.7-5.4-2
					c-1.9-0.3-4.2,0.3-5.6,1.7c-1.5,1.5-1.7,3.2-1.7,4.7s0.4,2.6,0.7,3.6c0.4,0.9,0.8,1.9,1.2,2.6c0.4,0.7,0.8,1.2,1.1,1.6
					c0.7,0.8,0.9,1.2,0.9,1.2c0.3,0.3,0.7,0.4,1.1,0.3c0.4-0.1,0.7-0.7,0.4-1.1c0,0-0.3-0.5-0.7-1.5c-0.3-0.4-0.5-1.1-0.7-1.6
					c-0.3-0.7-0.4-1.3-0.5-2.2c-0.3-1.6-0.1-3.9,0.9-4.6c0.9-0.7,3.4-0.3,5.4,1.5c1.1,0.8,2,1.9,3.2,3.4c1.2,1.3,2.4,2.7,3.6,4
					c2.4,2.8,5.1,5.8,7.8,8.7c2.7,3,5.5,6.1,8.5,9.1c1.5,1.5,3,3.1,4.4,4.7l2.3,2.3l0.9,0.9l1.1,1.2c2.2,2.4,2.8,5.6,1.7,7.9
					C458.6,418.4,457.7,419.3,456.6,419.7z"/>
				<path class="st1" d="M441.9,315.4c5.1-6.7,8.9-13.4,12-19.6c3.1-6.3,5.5-12.1,7.5-17.3c2-5.2,3.9-9.7,5.2-13.6
					c1.3-3.8,2.2-6.9,2.8-8.9c0.5-2.2,0.8-3.2,0.8-3.2c0.1-0.5-0.1-0.9-0.5-1.3c-0.5-0.3-1.2-0.1-1.6,0.4c0,0-0.5,0.9-1.7,2.8
					c-1.1,1.9-2.7,4.6-4.4,8.2c-1.7,3.5-4,7.8-6.6,12.6s-5.6,10.2-9.1,16c-3.5,5.6-7.4,11.7-12.2,17.1c-2.4,2.7-5.1,5-8.1,7.7
					c-2.7,2.3-5,3.5-8.3,3.9c-3.2,0.4-7.1-0.1-10.9-1.1c-1.9-0.4-4-1.1-5.8-1.6l-3.1-1.1l-2.8-1.1c-7.8-3.4-15.3-7.8-22.7-12.8
					c-7.5-5-14.9-10.1-21.7-15.6c-6.6-5.4-12.6-11.4-14.8-17.9c-2.3-6.3-0.1-13.4,3.2-20c3.4-6.5,7.7-12.5,11.7-17.8
					c4-5.4,7.9-10.2,11.4-14.4c3.6-4.2,6.6-8.1,9.3-11c5.2-5.9,8.1-9.5,8.1-9.5l0,0c0.4-0.4,0.4-1.1,0-1.6c-0.4-0.5-1.2-0.5-1.7-0.1
					c0,0-3.5,3-9.5,8.3c-3.1,2.7-6.5,6.1-10.5,10c-4,3.9-8.3,8.5-12.9,13.7c-4.6,5.2-9.4,11-13.6,18.3c-2,3.6-4,7.7-5.1,12.2
					c-1.1,4.6-1.2,10,0.3,14.9c1.5,5,4.3,9.3,7.3,12.9c3.1,3.8,6.5,7,10.1,10.1c7.1,6.1,14.7,11.4,22.2,16.7
					c7.8,5.2,15.9,10.1,24.6,13.9l3.5,1.3l3.2,1.1c2.4,0.8,4.6,1.5,7,2c4.7,1.1,9.5,1.9,14.8,1.2c2.6-0.3,5.4-1.1,7.8-2.2
					c2.4-1.2,4.6-2.7,6.3-4.3C436.3,322,439.4,318.7,441.9,315.4z"/>
				<path class="st1" d="M392,381.1c-0.7,2.2-0.9,3.2-0.9,3.2c-0.1,0.5,0,1.2,0.5,1.6c0.7,0.4,1.5,0.3,2-0.4c0,0,0.7-0.9,1.9-2.8
					c1.2-1.9,3-4.6,4.8-8.3c1.9-3.8,4.2-8.6,4.7-15.3c0.7-6.7-2.6-15.1-8.2-20.6c-5.5-5.8-12.4-10.2-19.8-14
					c-3.8-1.9-7.5-3.6-11.2-5.4c-3.6-1.9-7.5-3.8-11.3-5.8c-3.9-2-7.8-4.2-12-6.2c-4.3-2-8.7-4-14.1-5.1c-2.7-0.5-5.8-0.7-8.7,0
					c-3.1,0.5-5.9,2-8.3,3.6c-4.7,3.5-7.8,7.8-10.4,12c-2.6,4.3-4.7,8.6-6.7,12.9c-1.9,4.3-3.8,8.7-5.1,13.4s-2.4,9.7-2.3,14.8
					s1.7,10.2,4.3,14.5c2.6,4.2,5.9,7.7,9.3,10.5c3.5,2.8,7,5.2,10.6,7.3c3.6,2,7.1,3.8,10.6,5.4c0.9,0.4,1.7,0.8,2.6,1.2l0.7,0.3
					l0.5,0.3l1.3,0.7c1.7,0.8,3.4,1.5,5.1,2.2c13.4,5.1,25.7,6.2,33.9,4.8c4.2-0.5,7.3-1.6,9.4-2.6c1.1-0.4,1.7-0.8,2.3-1.1
					c0.5-0.3,0.8-0.4,0.8-0.4c0.4-0.1,0.5-0.5,0.4-0.9c-0.1-0.4-0.5-0.5-0.9-0.4l0,0c0,0-0.3,0.1-0.8,0.3c-0.5,0.1-1.2,0.5-2.3,0.8
					c-2,0.7-5.1,1.5-9,1.7c-7.9,0.7-19.5-0.9-32-6.6c-1.6-0.7-3.1-1.5-4.7-2.3c-1.6-0.8-3.2-1.7-4.8-2.6c-3.2-1.7-6.6-3.6-9.8-5.9
					c-6.5-4.3-12.9-9.5-16.5-16.3c-1.7-3.4-2.7-7-2.6-10.9c0-3.9,0.9-7.9,2.4-12c1.5-4,3.2-8.1,5.4-12.2c2-4,4.2-8.1,6.5-11.7
					c2.3-3.6,5.1-6.9,7.9-8.9c2.8-1.9,5.6-2.3,9.3-1.6c3.6,0.7,7.5,2.4,11.3,4.3c3.9,1.9,7.8,4,11.6,6.2c3.9,2.2,7.7,4.2,11.4,6.1
					c3.9,2,7.5,3.8,11,5.4c6.9,3.5,13,7.1,17.5,11.3c4.6,4.2,6.9,8.5,7.1,13.3c0.4,4.7-0.8,9.4-1.9,13.2
					C393.6,376,392.7,379.1,392,381.1z"/>
				<path class="st1" d="M615.6,259c-1.1,0-2.2-0.1-3.4-0.1h-0.8h-0.5h-0.4c-0.5,0-1.2-0.1-1.7-0.1c-1.1-0.1-2.2-0.3-3.2-0.4
					l-0.4,0.4c-1.7,1.6-3.4,3.5-5.4,5c-1.9,1.5-3.8,3-5.6,4.4c-1.9,1.3-3.8,2.6-5.6,3.9c-0.9,0.7-1.9,1.3-2.8,1.9
					c-1.1,0.7-2.2,1.2-3.2,1.7c-1.1,0.5-2.2,1.2-3.2,1.7l-1.6,0.9l-0.8,0.4l-0.1,0.1l0,0l-0.3,0.1c-7.7,3.8-15.6,5.9-23,6.2
					c-7.4,0.3-14.3-1.2-20-3.6c-5.8-2.3-10.4-5.5-13.9-8.5c-3.5-3.1-5.8-5.6-7.4-7.8c-1.6-2-2.4-3.2-2.4-3.2
					c-0.4-0.5-1.1-0.7-1.6-0.4c-0.7,0.3-0.9,1.1-0.7,1.9c0,0,0.5,1.2,1.6,3.6c1.1,2.4,3.2,5.9,6.5,10c3.2,3.9,7.9,8.3,14.1,12.1
					c6.3,3.6,14.4,6.7,23.5,7.1c9.1,0.5,19.2-1.1,28.9-5.1l0.4-0.1l0.7-0.3l0.8-0.4l1.6-0.8c1.1-0.5,2.2-1.1,3.2-1.6
					c1.1-0.5,2.2-1.1,3.4-1.6c1.1-0.5,2.3-1.3,3.5-2c2.3-1.5,4.7-2.8,7-4.3c2.2-1.6,4.4-3.2,6.6-4.8c2.3-1.6,4.2-3.6,6.3-5.5
					l1.6-1.5l0.8-0.7l0.1-0.1l0.4-0.4l0.3-0.4l2.7-3l1.3-1.5l0.7-0.8l0.3-0.4c0.3-0.3-0.4,0.5,0.5-0.7l0.1-0.1l0.1-0.3l0.7-0.8
					c-1.1,0-2.2,0.1-3.4,0.1C619.9,259,617.7,259.2,615.6,259z"/>
				<path class="st1" d="M503.1,364.6c-0.7-0.4-1.2-0.8-1.9-1.2l-1.1-0.5l-0.9-0.4l-3.5-1.6c-2.3-1.1-4.7-2.2-7-3.2
					c-4.7-2.2-9.1-4.2-13.6-6.2c-8.9-3.9-17.1-7.5-24.3-10.6c-4.3-1.7-9-1.7-12.5,0.9c-1.7,1.3-2.7,3.6-2.4,5.5
					c0,0.9,0.4,1.7,0.5,2.6c0.3,0.7,0.7,1.3,1.1,1.9c0.8,0.9,1.5,1.9,2.3,2.6c0.7,0.7,1.3,1.2,1.9,1.5c0.9,0.7,1.5,1.1,1.5,1.1
					c0.5,0.3,1.1,0.3,1.5-0.1c0.4-0.5,0.4-1.2,0-1.6c0,0-0.5-0.4-1.3-1.2c-0.5-0.4-0.9-0.9-1.5-1.5c-0.5-0.5-0.9-1.3-1.5-2.2
					c-0.9-1.7-1.1-3.8,0.7-4.8c1.7-1.2,5-1.1,7.7,0.4c6.9,3.5,14.9,7.8,23.5,12.1c4.3,2.2,8.9,4.4,13.3,6.7c2.3,1.1,4.6,2.3,6.9,3.4
					l3.5,1.7l0.8,0.4l0.7,0.4c0.5,0.3,0.9,0.5,1.3,0.8c1.7,1.2,3.4,2.7,4.2,4.2c0.9,1.5,0.9,2.7,0.5,4.3c-0.1,0.4-0.1,0.8-0.4,1.2
					l-0.7,1.2l0,0l-0.1,0.1l-0.3,0.4l-0.5,0.8c-0.4,0.5-0.7,0.8-0.9,1.1c-1.2,1.2-2.6,2-3.8,2.2c-2.8,0.3-6.9-1.9-10.4-4.2
					c-3.6-2.4-7.1-4.7-10.4-6.9c-6.6-4.2-12-7.7-15.9-10c-1.9-1.2-3.5-2-4.6-2.7c-1.1-0.5-1.6-0.9-1.6-0.9c-0.4-0.3-1.1-0.1-1.3,0.3
					c-0.4,0.4-0.4,1.2,0.1,1.6c0,0,0.5,0.4,1.3,1.2c0.9,0.8,2.3,2,3.9,3.5c3.4,3,8.3,7.1,14.4,12c3.1,2.4,6.3,5,10,7.8
					c1.9,1.3,3.9,2.7,6.3,4c2.4,1.2,5.2,2.3,8.9,2c1.7-0.1,3.5-0.7,5-1.5c0.8-0.4,1.5-0.8,2.2-1.3c0.7-0.5,1.3-1.1,1.9-1.6
					s1.2-1.3,1.5-1.7l0.5-0.8l0.3-0.4l0.1-0.1l0.3-0.3l0.1-0.1c0.8-1.3,1.6-2.8,2-4.6c1.1-3.4,0.5-7.7-1.5-10.5
					C508,368.4,505.5,366.2,503.1,364.6z"/>
				<path class="st1" d="M481.9,516.2c-1.9-3.2-4.7-6.2-7.9-8.3c-3.4-2-7-3.4-10.8-4.2c-3.8-0.7-7.4-0.7-11-0.4
					c-3.8,0.4-6.9,0.8-10.1,1.5c-3.4,0.5-6.6,1.2-10,2.2c-6.6,1.7-13.2,4-19.4,7.5c-3.1,1.7-6.1,3.9-8.7,6.7c-1.3,1.3-2.4,3-3.5,4.7
					l-0.7,1.3l-0.5,1.3l-0.9,2.2c-1.2,2.8-2.8,5.1-4.8,7c-2,2-4.6,3.5-7.4,4.6c-2.7,1.2-5.8,1.9-8.7,2.6l-4.7,0.7l-4.7,0.4h-0.1
					h-0.3c-1.6,0.3-3.4,0.5-5.6,1.5c-2.6-0.1-5,1.6-5.4,4.2c0,0,0,0.1,0,0.4c0,0.3-0.1,1.2-0.1,2.2c0,0.3,0,0.5,0,0.8s0,0.4,0.1,0.5
					c0.1,0.4,0.1,0.8,0.3,1.2c0.1,0.8,0.4,1.9,0.7,2.7c0.4,0.9,0.7,1.9,1.1,3c0.4,0.9,1.1,2,1.6,3.1c1.1,2.3,2.6,4.6,4.2,7
					c1.5,2.6,3.5,5,5.5,7.7c1.9,2.7,4.2,5.2,6.6,8.1c2.4,2.7,4.6,5.5,7.5,8.3c2.8,2.7,5.9,5.1,9,7.4c6.3,4.6,13.3,8.2,20.4,10.4
					c7,2.3,14.1,3,20.2,1.7c3-0.7,5.6-1.7,7.8-3c2.2-1.2,3.8-2.7,5.1-3.9c1.2-1.2,2.2-2.3,2.7-3.1c0.5-0.8,0.8-1.1,0.8-1.1
					c0.5-0.7,0.4-1.6-0.3-2.2c-0.7-0.5-1.6-0.4-2.2,0.1l-0.1,0.1c0,0-0.3,0.4-0.8,0.9c-0.5,0.7-1.3,1.5-2.4,2.6
					c-1.2,0.9-2.6,2.2-4.6,3.1c-1.9,0.9-4.2,1.7-6.7,2.2c-5.1,0.8-11.4-0.1-17.6-2.6c-6.3-2.4-12.5-6.2-18.2-10.6
					c-2.8-2.3-5.5-4.7-7.8-7.3c-2.3-2.4-4.4-5.5-6.5-8.2c-2.2-2.8-4.2-5.4-5.8-8.1c-1.5-2.3-3.1-4.4-4.2-6.6
					c1.2,0.8,2.4,1.7,3.6,2.6c3,2,5.9,3.9,9,5.8c3.1,1.7,6.2,3.5,9.3,5.1c3.2,1.6,6.5,3.1,9.7,4.6c3.2,1.3,6.6,2.7,10,3.8l5.1,1.6
					l5.2,1.3l5.2,1.2l5.2,0.9c3.6,0.5,7.3,0.8,10.9,0.9c1.7,0.1,3.6,0.1,5.5,0c0.9,0,1.9,0,2.8-0.1c0.9-0.1,1.6-0.1,2.7-0.3
					c3.8-0.4,7.5-1.2,11.2-2.8c3.6-1.5,7.1-3.8,10-7c2.7-3.2,4.4-7.4,4.8-11.4c0.5-4,0.1-7.9-0.7-11.7c-0.8-3.8-2-7.3-3.4-10.6l0,0
					c-0.8-2-3.2-3-5.2-2.2c-0.1,0-0.1,0.1-0.3,0.1c-0.4,0.1-0.8,0.3-1.2,0.4l-0.7,0.4c0,0-1.1,0.7-3,1.7c-0.9,0.7-2.2,1.1-3.6,1.7
					c-0.8,0.3-1.5,0.7-2.4,0.9c-0.8,0.3-1.7,0.5-2.8,0.8c-0.9,0.3-2,0.5-3.1,0.8s-2.3,0.4-3.4,0.7c-1.2,0.3-2.4,0.4-3.6,0.7
					c-1.2,0.1-2.6,0.3-3.8,0.4c-2.6,0.4-5.4,0.5-8.1,0.7c-2.8,0.3-5.6,0.1-8.5,0.3c-5.6,0-11.4-0.1-16.8-0.5
					c-5.4-0.3-10.4-0.8-14.7-1.2s-7.8-0.9-10.4-1.3s-3.9-0.5-3.9-0.5c-0.7-0.1-1.3,0.3-1.5,0.9c-0.1,0.7,0.3,1.3,0.9,1.6
					c0,0,1.3,0.3,3.9,0.9c2.4,0.5,6.1,1.3,10.4,2.2s9.3,1.6,14.7,2.4c5.4,0.8,11.2,1.3,17.1,1.9c3,0.1,5.9,0.4,8.7,0.4
					c3,0,5.8,0.1,8.6-0.1c1.3,0,2.8-0.1,4.2-0.1c1.3-0.1,2.7-0.3,3.9-0.4c1.3-0.1,2.6-0.3,3.8-0.4c1.2-0.3,2.4-0.4,3.5-0.7
					c1.1-0.3,2.2-0.4,3.2-0.7s2-0.7,3-0.9c1.9-0.5,3.5-1.1,4.7-1.7c0.3-0.1,0.5-0.3,0.8-0.4c0.4,1.2,0.8,2.6,1.1,3.8
					c0.7,3.1,0.9,6.2,0.7,9c-0.3,2.8-1.3,5.4-3.1,7.5c-1.7,2.2-4.2,3.8-6.9,5c-2.8,1.2-5.9,2-9,2.3c-0.7,0.1-1.7,0.1-2.6,0.3
					c-0.8,0-1.6,0.1-2.4,0.1c-1.6,0-3.4,0.1-5,0c-3.4,0-6.7-0.4-10-0.8l-5.1-0.8l-5-1.1l-5-1.2l-4.8-1.5c-3.2-1.1-6.5-2.3-9.5-3.5
					c-6.3-2.6-12.4-5.6-18.3-9c-3-1.7-5.8-3.5-8.6-5.4c-2.8-1.9-5.5-3.9-8.2-6.1c-1.7-1.3-3.5-2.8-4.8-4.3c0-0.1,0-0.4-0.1-0.5
					c0-0.3,0-0.4-0.1-0.5c0,0,0,0,0-0.1c0,0.1-0.1,0.3-0.1,0.1c0-0.3,0.1-0.3,0.1-0.3l0.1-0.4c0-0.1,0-0.1,0-0.3c0-0.3,0-0.5,0-0.8
					c0.5-0.1,1.2-0.3,1.9-0.3l4.8-0.4c1.7-0.3,3.4-0.4,5.1-0.7c3.4-0.7,6.9-1.5,10.1-3c3.4-1.3,6.5-3.2,9.3-5.8
					c2.8-2.4,5-5.6,6.6-8.9l1.1-2.3l0.4-0.9l0.5-0.8c0.7-1.1,1.6-2.2,2.7-3.1c2-1.9,4.6-3.4,7.3-4.6c5.5-2.6,11.6-4,17.8-5.5
					c3.1-0.7,6.2-1.3,9.4-1.9c3.1-0.5,6.5-1.3,9.3-1.6c5.9-0.8,11.7-0.4,16.5,2.2c2.3,1.3,4.6,3,6.2,5.2c1.7,2.2,3,4.8,3.9,7.7
					c0.8,2.8,1.3,5.9,1.5,9c0.1,3.1-0.1,6.2-0.8,9.4c-0.1,0.5,0.1,0.9,0.7,1.2c0.5,0.3,1.2,0,1.5-0.5l0,0c1.5-3,2.6-6.5,3-9.8
					c0.5-3.5,0.5-7,0-10.6C485,523,483.9,519.4,481.9,516.2z"/>
				<path class="st1" d="M651.9,170.4v-0.5c0-1.5-0.1-3.2-0.4-4.6c-0.7-5.9-2-11.7-4.4-17.5c-1.2-2.8-2.8-5.8-5-8.5
					c-2.3-2.7-5.4-5.5-9.5-6.9c-4.2-1.5-8.6-1.1-12,0c-1.7,0.5-3.2,1.2-4.7,2l-0.5,0.3h-0.1l-0.1,0.1l-0.4,0.3l-0.8,0.5
					c-0.5,0.4-0.9,0.5-1.6,1.1c-1.2,0.9-2.7,2-3.8,3.1c-0.9,0.9-1.9,1.9-2.8,2.8c-1.7,1.9-3.4,3.8-4.8,5.6c-1.5,1.9-2.8,3.6-4.2,5.4
					c-1.3,1.7-2.7,3.5-3.9,5.1c-1.3,1.9-2.7,3.8-4,5.6c-0.4-1.1-0.9-2.3-1.7-3.4l-0.9-1.3l-0.5-0.7l-0.3-0.3l-0.1-0.1
					c-0.1-0.1,0.3,0.3-0.4-0.4l0,0l-0.7-0.7c-0.3-0.3-0.3-0.3-0.8-0.8c-0.8-0.7-1.9-1.5-2.7-1.9c-0.8-0.4-1.7-0.9-2.6-1.2
					c-3.5-1.5-7.1-2-10.5-1.9c-3.4,0.1-6.6,0.7-9.5,1.5c-6.1,1.7-11.3,4.6-16.1,7.7c-1.2,0.8-2.4,1.5-3.6,2.4l-3.6,2.6
					c-2.2,1.7-4.2,3.2-6.2,5.1c-1.6,1.5-3.2,3-4.8,4.4c0,0.1,0.1,0.1,0.1,0.3l0.8,1.9l0.4,0.9l0.4,0.9c0.5,1.3,1.2,2.6,1.7,3.9
					c0.4,0.9,0.9,1.9,1.3,2.7c0.4-0.4,0.9-0.8,1.3-1.2c1.7-1.5,3.9-2.8,5.8-4.3c2-1.5,4.3-3,6.6-4.4l3.1-1.9
					c1.1-0.7,2.2-1.2,3.2-1.7c4.4-2.3,8.9-4.2,13-5.1c2.2-0.4,4.2-0.7,5.9-0.5c1.7,0.1,3.2,0.5,4.3,1.1c0.3,0.1,0.5,0.3,0.8,0.4
					s0.1,0.3,0.3,0.3c0-0.1,0.4,0.3,0.5,0.5l0.4,0.4c0,0,0.1,0.1,0,0l0,0l0,0v0.1l0.1,0.1c0.3,0.5,0.5,1.2,0.5,2.6
					c0,2.6-0.9,6.3-2.2,9.5c-1.2,3.4-2.7,6.5-3.9,9.1c-1.3,2.8-2.6,5.2-3.6,7.3c-2,4.2-3.2,6.5-3.2,6.5l0,0l0,0
					c-1.5,2.3-1.1,5.5,1.2,7.1c2.3,1.9,5.8,1.3,7.5-0.9c0,0,0,0,0-0.1c0,0,0.5-0.5,1.3-1.3c0.9-0.8,2.2-2.4,3.8-4.3
					c1.5-1.9,3.5-4.3,5.4-7.1c0.8-1.2,1.7-2.7,2.6-4.2c2-2.7,4.3-5.6,6.7-8.7c4.2-5.2,8.9-11.3,14-17.8c2.6-3.1,5.2-6.3,8.1-9.7
					c1.3-1.6,2.8-3.1,4.2-4.6c0.7-0.7,1.5-1.3,2.2-2c0.7-0.5,1.2-0.9,1.7-1.5c3.6-2.7,6.1-2.8,7.1-2.3c0.5,0.1,1.5,0.8,2.4,2
					c0.9,1.2,1.9,3,2.7,4.8c1.5,3.9,2.6,8.5,3,13.2c0.1,1.2,0.1,2.3,0.3,3.4v0.5v0.1v0.8l-0.1,2c-0.1,2.7-0.3,5.4-0.4,8.1v0.9v0.3
					v0.5l-0.3,1.9l-0.4,3.9c-0.3,2.7-0.8,5.2-1.2,7.8l-0.7,3.9l-0.8,3.9c-0.5,2.6-1.1,5.1-1.9,7.7s-1.3,5.1-2.2,7.5L625,228
					c-1.1,2.3-2.2,4.7-3.1,7c-1.1,2.4-2.3,4.3-3.5,6.5c-0.9,2-2.7,4.3-4.2,6.5l-2.3,3.4l-2.2,2.4l-0.5,0.7c0.5,0.1,1.1,0.1,1.6,0.3
					l0.4,0.1c0,0,0.3,0,0.4,0l0.8,0.1c1.2,0.1,2.3,0.3,3.4,0.4c2.2,0.3,4.2,0.4,6.1,0.4c2.2,0.1,4,0.1,5.9,0.1
					c1.3-1.7,2.6-3.5,3.9-5.8c1.5-2.7,3.2-5.2,4.4-7.9c1.2-2.7,2.4-5.4,3.8-7.9l3.1-8.2c1.1-2.7,1.7-5.5,2.6-8.3
					c0.9-2.8,1.5-5.6,2-8.5l0.9-4.3l0.7-4.3c0.4-2.8,1.1-5.6,1.2-8.5l0.5-4.3l0.3-2.2v-0.5v-0.3v-0.7V183c0.1-2.7,0.3-5.4,0.3-8.1
					l0.1-2V172v-0.8L651.9,170.4z"/>
				<path class="st1" d="M284.7,78.8c1.5,1.3,3.2,2.7,5,4.2c0.4,0.4,0.9,0.7,1.3,1.1l0.4,0.3l0.3,0.3l0.5,0.4c0.7-1.3,1.3-2.6,2-3.6
					l2-3.5l2.3-3.5c3.1-4.6,6.5-9,10.2-13.3c7.4-8.5,16.1-16.1,25.7-22.7c4.8-3.2,9.8-6.3,14.9-9c2.6-1.3,5.1-2.7,7.8-3.9
					c2.6-1.1,5.1-2.2,7.8-3.1c5.2-1.9,10.6-3.1,15.9-3.9c5.1-0.8,10.4-0.9,14.1-0.3c0.9,0.1,1.7,0.4,2.3,0.7
					c0.3,0.1,0.4,0.3,0.7,0.3c-0.1,1.3-0.8,3.4-1.6,5.5c-0.8,2.2-1.9,4.3-3.1,6.5c-4.7,8.6-10,17.1-14.9,24.6
					C368.5,71,360,83.9,354.4,93.1c-0.8,1.2-1.5,2.4-2.2,3.5c-1.5,2.3-2.8,4.3-3.9,6.2c-1.3,2.3-2.3,4-3,5.2
					c-0.3,0.5-0.5,0.9-0.8,1.3c2.8,0.7,5.6,1.2,8.7,1.7c0.7-0.9,1.5-2,2.4-3.2c1.5-2,3.4-4.4,5.5-7.1s4.6-5.8,7.4-8.9
					c2.8-3.1,5.9-6.5,9.4-9.5c1.7-1.5,3.6-3,5.4-4.3c1.9-1.2,3.8-2.3,5.5-2.7c0.8-0.3,1.5-0.3,2-0.3c0.3,0,0.4,0,0.5,0.1l0,0
					l0.1,0.1l0.9,0.5c0.3,0.3,0.3,0.3,0.5,0.5c0.3,0.3,0.5,0.5,0.8,0.8c0.3,0.3,0.5,0.7,0.8,1.1c0.3,0.4,0.4,0.8,0.7,1.2
					c1.7,3.6,2,8.7,1.7,14c-0.4,5.2-1.5,10.6-3,15.9c-0.4,1.3-0.8,2.7-1.2,4c-0.1,0.3-0.1,0.4-0.3,0.7c3.1,0,6.2-0.1,9.4-0.3
					c0.9-0.1,1.9-0.1,2.8-0.1c0.1-0.3,0.3-0.7,0.3-0.9c1.7-5.9,3.1-11.8,3.6-18.2c0.4-6.3,0.3-13.2-2.8-20c-0.4-0.8-0.8-1.7-1.3-2.6
					c-0.5-0.8-1.1-1.6-1.7-2.4c-0.7-0.8-1.3-1.5-2.2-2.2c-0.8-0.7-2-1.5-2.8-2l-0.9-0.5l-0.8-0.4l-0.8-0.3c-1.2-0.4-2.3-0.7-3.5-0.7
					c-0.5,0-0.9,0-1.5,0c5.5-7.1,11.6-14.7,17.3-23.8c1.5-2.4,3-4.8,4.3-7.7s2.7-5.9,3.4-10.1c0.3-2,0.5-4.6-0.3-7.7l-0.3-1.2
					c-0.1-0.5-0.4-0.9-0.5-1.5l-0.3-0.7v-0.1l-0.3-0.5l-0.3-0.4c-0.8-1.2-1.7-2.4-2.7-3.4c-4.2-3.9-8.5-5.1-12.2-5.8
					s-7.3-0.8-10.8-0.5c-3.4,0.1-6.7,0.7-9.8,1.3c-6.5,1.3-12.5,3.4-18.4,5.8c-3,1.2-5.9,2.6-8.9,4c-2.8,1.5-5.6,2.8-8.3,4.4
					c-5.5,3.1-10.9,6.5-16.3,10.1c-11,7-20.8,15.6-28.9,25.4c-4.2,4.8-7.7,10.1-10.9,15.5l-2.3,4c-0.8,1.5-1.5,3-2.2,4.3
					c-0.1,0.3-0.3,0.5-0.4,0.8C282.6,76.8,283.6,77.7,284.7,78.8z M397.9,19.2L397.9,19.2C397.9,19.2,398.1,19.4,397.9,19.2z
					 M397.8,18.7C397.8,18.7,397.7,18.7,397.8,18.7c0-0.1,0-0.1,0-0.1C397.7,18.3,397.7,18.4,397.8,18.7z"/>
				<path class="st1" d="M518.6,326c-2.6-1.3-5.1-1.9-7.3-2.6c-4.4-1.2-8.7-2.3-13-3.5c-4.3-1.1-8.3-2-12.2-3s-7.5-1.7-11-2.4
					c-3.5-0.8-6.9-1.2-10-1.2c-3.1,0.1-5.8,0.3-8.2,2.2c-0.5,0.5-1.1,1.2-1.2,2c-0.1,0.8-0.1,1.5,0,2c0.3,1.1,0.8,1.7,1.2,2.3
					c0.4,0.5,0.8,0.9,0.9,1.1c0.3,0.1,0.3,0.3,0.3,0.3l0,0c0.4,0.4,1.2,0.5,1.7,0c0.5-0.4,0.5-1.2,0.1-1.7c0,0-0.4-0.5-0.8-1.2
					c-0.3-0.4-0.4-0.9-0.5-1.3c0-0.4,0.1-0.5,0.4-0.8c0.9-0.5,3.4-0.8,5.9-0.5c2.6,0.3,5.5,1.1,8.7,2c3.4,1.1,6.9,2.2,10.8,3.4
					c3.8,1.2,7.9,2.3,12,3.6c4.2,1.3,8.3,2.6,12.8,3.9c1.1,0.3,2.3,0.7,3.1,0.9l0.8,0.3l0.5,0.3c0.4,0.1,0.8,0.4,1.2,0.5
					c1.6,0.8,2.8,2,3.6,3.2c0.7,1.2,1.1,2.6,0.9,4.2c0,0.8-0.3,1.6-0.5,2.4l-0.1,0.5c-0.1,0.3-0.3,0.5-0.3,0.7
					c-0.1,0.3-0.3,0.7-0.5,0.9c-0.8,1.1-1.2,1.3-2.7,1.5c-1.3,0.1-3.2-0.3-5.1-0.7c-3.8-0.9-7.5-2.6-11.2-4.2
					c-3.5-1.5-7-3.2-10.1-4.7c-3.2-1.3-6.1-2.8-8.6-3.9c-2.6-1.2-4.7-2.3-6.6-3.1c-3.6-1.7-5.8-2.7-5.8-2.7
					c-0.7-0.3-1.5-0.1-1.9,0.4c-0.5,0.7-0.4,1.6,0.3,2.2l0,0c0,0,1.9,1.3,5.2,3.8s8.3,5.6,14.4,9c3,1.7,6.3,3.6,10,5.5
					s7.5,3.8,12.1,5.2c2.3,0.7,4.8,1.2,7.9,1.1c1.5-0.1,3.2-0.5,4.8-1.3c1.6-0.9,3-2.2,3.8-3.6c0.4-0.7,0.8-1.3,1.2-2.2
					c0.3-0.4,0.3-0.7,0.4-0.9c0.1-0.4,0.3-0.7,0.4-1.1c0.4-1.3,0.8-2.8,0.9-4.3c0.3-3.1-0.5-6.5-2.3-9.1
					C523.6,329.2,521.1,327.3,518.6,326z"/>
				<path class="st1" d="M366.6,554.2C366.6,554.2,366.6,554.4,366.6,554.2C366.6,554.4,366.6,554.4,366.6,554.2
					C366.6,554.4,366.6,554.2,366.6,554.2z"/>
				<path class="st1" d="M370.4,537.7c5.9-0.5,11.4-1.6,16-3.8c2.3-1.1,4.3-2.4,5.9-4c1.6-1.6,2.7-3.5,3.4-5.4
					c1.3-3.6,0.8-6.6,0.5-8.5c-0.4-1.9-0.7-2.8-0.7-2.8c-0.1-0.5-0.8-0.9-1.3-0.8c-0.7,0.1-1.1,0.7-1.1,1.3c0,0,0.1,0.9,0.3,2.6
					c0.1,1.6,0,4.2-1.2,6.6c-1.2,2.6-3.9,4.8-7.8,6.2c-3.9,1.3-8.9,2-14.3,2.2c-2.7,0-5.5-0.1-8.5-0.4c-1.5-0.1-3-0.3-4.6-0.4
					c-1.5-0.3-3-0.4-4.4-0.7c-6.1-1.2-12.1-3.2-17.9-6.5c-5.8-3.2-11.2-7.7-16.3-12.6c-2.6-2.6-5-5.2-7.5-7.9
					c-2.4-2.8-4.8-5.4-6.7-8.2c-1.9-2.8-3.4-5.8-3.6-8.2c-0.1-1.2,0.1-2.2,0.5-3.1c0.1-0.3,0.3-0.5,0.4-0.7c0.1-0.3,0.1-0.3,0.5-0.8
					l0.4-0.5l0,0l0,0l0.1-0.1c0.1-0.1,0.4-0.4,0.5-0.5c0.8-0.7,1.6-0.9,2.8-1.1c1.2-0.1,2.7,0,4.3,0.3c3.2,0.5,6.7,1.7,10.4,2.6
					c7,1.5,13.9,2.8,20.4,3.8c3.4,0.4,6.5,0.8,9.7,0.9c1.6,0.1,3.1,0.1,4.6,0.3c0.8,0,1.5,0,2.3,0c0.7,0,1.5,0,2.2,0
					c2.8,0,5.2,0,7.9,0.4c1.3,0.1,2.3,0.1,3.4,0.5c1.1,0.3,2,0.7,3,1.1c3.8,1.7,6.7,4.3,8.9,6.5c2.2,2.3,3.6,4.3,4.6,5.6
					c0.9,1.5,1.5,2.3,1.5,2.3c0.4,0.7,1.2,0.9,2,0.7c0.8-0.4,1.1-1.2,0.8-2v-0.1c0,0-0.4-0.8-1.2-2.4c-0.9-1.6-2.3-4-4.4-6.7
					c-2.3-2.7-5.2-5.8-9.8-8.2c-1.1-0.5-2.3-1.2-3.6-1.6c-1.2-0.4-3-0.7-4-0.9c-2.4-0.5-5.5-0.8-8.3-1.1c-0.7,0-1.5-0.1-2.2-0.1
					c-0.7,0-1.3-0.1-2.2-0.1c-1.5-0.1-3-0.3-4.4-0.5c-3-0.4-5.9-0.8-9-1.5c-6.2-1.2-12.9-2.8-19.6-4.6c-3.2-0.8-6.6-2-10.6-3
					c-2-0.4-4.2-0.8-6.7-0.7c-2.4,0.1-5.2,1.1-7.4,2.7c-0.5,0.4-1.1,0.8-1.5,1.3l-0.4,0.4l-0.1,0.1c-0.1,0.1,0-0.1-0.3,0.3l-0.1,0.1
					l-0.4,0.1c-0.3,0.3-0.8,0.9-1.1,1.5c-0.4,0.5-0.7,1.2-0.9,1.7c-1.2,2.4-1.7,5.2-1.5,7.8c0.5,5.1,2.8,9,5,12.5
					c2.3,3.5,5,6.6,7.5,9.4s5.2,5.6,7.9,8.3c5.5,5.4,11.7,10.2,18.4,13.7c6.7,3.5,13.9,5.6,20.7,6.5c1.7,0.3,3.4,0.3,5.1,0.5
					c1.6,0.1,3.2,0.1,4.8,0.1C364.3,538.1,367.4,537.9,370.4,537.7z"/>
				<path class="st1" d="M223.7,245.6c4.7,2.2,9,4.2,13,5.8c4,1.7,7.7,3.4,11,4.8c3.2,1.5,5.9,3,8.3,4s4.3,1.9,5.6,2.3
					c1.3,0.5,2,0.8,2,0.8c0.5,0.1,1.1,0,1.5-0.5c0.3-0.5,0.1-1.2-0.4-1.6l0,0c0,0-2.6-1.3-6.9-4.2c-2.2-1.3-4.7-3.1-7.8-5.1
					c-3.1-1.9-6.7-3.9-10.6-6.1c-3.9-2-8.1-4.3-12.5-6.7c-4.4-2.4-9-4.8-13.7-7.7c-2-1.3-4.2-2.8-5.6-4.4c-1.5-1.6-2.3-3.4-2.3-5
					c0-0.8,0.3-1.7,0.7-2.8c0.3-0.5,0.5-1.1,0.8-1.6l0.5-0.9c0.1-0.1,0.3-0.4,0.4-0.5c1.1-1.5,2.7-2.6,4.7-2.8
					c1.9-0.4,4.4,0.1,6.5,0.9c2.6,0.9,4.8,2.3,7.3,3.8c4.8,2.8,9.4,6.2,14,9.3c4.6,3.1,9,6.2,13.2,9c4.3,2.8,8.5,5.4,12.2,7.5
					c7.5,4.3,13.4,8.7,16.4,12.5c1.5,1.9,2.2,3.6,2,4.7c0,0.5-0.1,0.9-0.3,1.2c-0.1,0.3-0.3,0.5-0.3,0.5c-0.1,0.4-0.1,0.8,0.3,1.1
					s0.9,0.1,1.2-0.1c0,0,0.1-0.1,0.3-0.4c0.3-0.4,0.5-0.9,0.7-1.9c0.4-1.6-0.3-4.2-1.6-6.5c-3-4.8-8.6-10-16-15.1
					c-3.8-2.6-7.5-5.2-11.6-8.3c-4-3-8.2-6.3-12.6-9.7c-4.4-3.4-9-6.9-14-10.1c-2.4-1.6-5.4-3.2-8.2-4.4c-1.7-0.7-3.4-1.2-5.1-1.5
					s-3.6-0.4-5.6-0.1c-3.9,0.5-7.8,2.7-10.1,6.1c-0.3,0.4-0.5,0.8-0.8,1.2l-0.5,1.1c-0.4,0.8-0.8,1.6-1.1,2.4
					c-0.7,1.7-1.2,3.6-1.2,5.6c0,2,0.5,4.2,1.3,5.9c0.8,1.7,1.9,3.2,3.1,4.6c2.4,2.6,5,4.2,7.7,5.8
					C214.1,240.9,219.1,243.6,223.7,245.6z"/>
				<path class="st1" d="M245.2,199.7l0.1,0.3l0.1,0.1l0,0c-0.3-0.3,0.3,0.4,0.3,0.4l0.3,0.3l0.7,0.7l1.2,1.2c1.9,1.6,4,3.2,5.9,4.6
					s3.8,2.6,5.5,3.8c3.6,2.4,7,4.6,10.2,6.6c6.5,4,11.8,7.1,15.7,9.1c1.9,1.1,3.5,1.7,4.6,2.3c1.1,0.5,1.6,0.8,1.6,0.8
					c0.5,0.3,1.1,0.1,1.5-0.4c0.4-0.5,0.3-1.2-0.3-1.6h-0.1c0,0-0.5-0.4-1.5-1.1s-2.3-1.6-4.2-3c-3.5-2.6-8.6-6.2-14.5-10.6
					c-3.1-2.2-6.2-4.7-9.7-7.3c-1.6-1.3-3.4-2.7-5.1-4c-1.6-1.3-3.1-2.6-4.8-4l-1.2-1.2l-0.7-0.7l-0.1-0.1l0,0v-0.1
					c-0.4-0.7-0.7-1.2-0.7-2c-0.3-1.5,0.1-3.1,1.1-4.6c0.8-1.5,2.3-2.7,3.8-3.4c1.5-0.7,3.1-0.7,4.6-0.1c0.3,0.1,0.5,0.1,0.9,0.4
					l1.6,1.1l0.1,0.1l0,0l0.3,0.1l0.7,0.5l1.5,1.1c2,1.5,3.9,3,5.8,4.4s3.9,3,5.8,4.4c1.9,1.5,3.8,3,5.5,4.4c3.6,3,7.1,5.8,10.5,8.5
					c3.2,2.7,6.2,5.4,8.9,7.9c2.6,2.6,4.8,5,6.3,7.3c0.7,1.2,1.2,2.3,1.5,3.2c0.1,0.4,0.1,0.8,0,1.2v0.4l-0.3,0.4l-0.1,0.1l0,0
					c-0.7,0.9-2.4,1.1-3.5,1.1s-1.7-0.1-1.7-0.1c-0.5-0.1-1.1,0.3-1.2,0.8c-0.1,0.5,0.3,1.1,0.8,1.2c0,0,0.5,0.3,1.9,0.4
					c0.7,0.1,1.5,0.3,2.4,0.3s2.4-0.3,3.6-1.5c0.1-0.1,0.1,0,0.3-0.3l0.1-0.1l0.3-0.3c0.3-0.3,0.5-0.8,0.7-1.2
					c0.3-0.8,0.4-1.7,0.4-2.6c-0.1-1.7-0.7-3.2-1.3-4.8c-1.5-3.1-3.6-5.9-6.2-8.9c-2.6-3-5.4-5.9-8.6-8.9c-3.2-3.1-6.6-5.9-10.1-9.1
					c-1.7-1.6-3.5-3.1-5.4-4.7c-1.9-1.5-3.9-3.1-5.8-4.6c-2-1.5-3.9-3.1-5.9-4.7l-1.5-1.2l-0.8-0.5l-0.4-0.3l-0.7-0.4l-1.6-0.9
					c-0.7-0.4-1.6-0.8-2.4-1.1c-3.2-1.2-7-1.1-10.1,0.3c-3.1,1.3-5.5,3.6-7.1,6.5c-1.6,2.8-2.4,6.1-1.7,9.4
					C243.6,196.8,244.2,198.4,245.2,199.7z"/>
				<path class="st1" d="M314.6,466.5c5.9,2.4,11.6,3.8,16.7,4.7s9.7,1.1,13.4,0.8c3.8-0.3,6.6-1.1,8.6-1.7c0.9-0.4,1.7-0.7,2.2-0.8
					c0.4-0.1,0.7-0.3,0.7-0.3c0.5-0.3,0.8-0.8,0.7-1.3c-0.1-0.5-0.8-0.9-1.3-0.7c0,0-0.3,0.1-0.7,0.3c-0.5,0.1-1.2,0.4-2,0.5
					c-1.7,0.4-4.6,0.8-7.9,0.8c-3.5,0-7.7-0.5-12.4-1.7c-4.7-1.2-10-3.1-15.5-5.6c-5.6-2.6-11.4-5.4-16.8-9.4
					c-5.2-4-9.7-9.3-12.2-15.9c-2.7-6.6-3.5-14.1-3.2-21.8c0-0.9,0-1.9,0.1-3l0.3-3.1c0.1-1.7,0.4-3.6,0.8-5.4
					c0.8-3.5,2.4-6.7,4-7.4c0.8-0.4,1.7-0.4,3.1-0.1c1.3,0.3,2.8,1.1,4.3,2c0.8,0.4,1.5,1.1,2.3,1.5l2.7,1.9
					c1.9,1.2,3.6,2.3,5.4,3.4c7.3,4.3,14.7,7.8,22.2,10.6c7.4,2.8,15.1,4.8,22.3,5.8c3.6,0.5,7,0.9,10.2,1.5
					c3.1,0.5,6.1,1.2,8.1,2.4c2.2,1.2,3.4,3,3.8,5.2c0.5,2.3,0.4,4.7,0,7.1c-0.8,4.7-2.3,8.7-3.5,12.1c-1.3,3.4-2.4,5.9-3.1,7.7
					c-0.8,1.7-1.2,2.7-1.2,2.7l0,0c-0.1,0.4,0,0.9,0.4,1.1c0.4,0.3,0.9,0.1,1.2-0.3c0,0,0.5-0.9,1.5-2.6c0.9-1.7,2.4-4.2,4-7.4
					c1.6-3.4,3.6-7.4,4.8-12.5c0.7-2.6,1.2-5.5,0.7-8.9c-0.3-1.6-0.7-3.5-1.7-5.1c-0.9-1.6-2.4-3.1-3.9-4c-3.1-2.2-6.6-3.1-10-3.9
					c-3.4-0.8-6.9-1.3-10.2-2c-3.4-0.7-6.7-1.6-10.2-2.7c-3.5-1.1-6.9-2.3-10.4-3.8c-6.9-3-14-6.5-20.7-10.5c-1.7-1.1-3.4-2.2-5-3.2
					l-2.4-1.6c-0.9-0.7-1.9-1.3-2.8-1.9c-2-1.2-4.2-2.4-6.9-3.1c-2.7-0.7-6.1-0.7-9,0.8c-3,1.5-4.8,3.9-6.1,6.2s-2,4.6-2.4,6.9
					c-0.5,2.3-0.8,4.4-0.9,6.9l-0.1,3.1c-0.1,1.1-0.1,2.2-0.1,3.2c-0.1,8.5,0.9,17.2,4.4,25c1.7,3.9,4,7.4,6.6,10.5
					c2.7,3.1,5.6,5.6,8.7,7.8C302.2,461.7,308.7,464.2,314.6,466.5z"/>
				<path class="st1" d="M278.3,288.3c-1.1-2.6-3.2-4.2-5.8-5.8c-2.4-1.6-5.4-3-8.6-4.3c-6.5-2.7-14.1-5-22.3-7.3
					c-4.2-1.1-8.3-2.2-12.6-3.2c-0.9-0.3-2.2-0.7-3.6-0.8c-1.3-0.1-2.7-0.3-3.9-0.3c-2.6,0-5.2,0.4-7.9,1.6
					c-2.7,1.1-5.5,3.2-6.9,6.5c-0.7,1.5-0.9,3.4-0.9,4.4c-0.1,1.7,0.1,3.1,0.4,4.6c0.8,3,2.6,5.5,4.7,7.3c2.2,1.7,4.4,3,6.7,3.8
					c0.7,0.3,0.9,0.3,1.9,0.5l1.5,0.3c0.9,0.3,2.2,0.4,3.2,0.5c2.2,0.4,4.2,0.5,6.2,0.8c3.9,0.4,7.7,0.8,11,0.9
					c6.9,0.4,12.6,0.1,16.7,0c4-0.4,6.3-0.7,6.3-0.7c0.7-0.1,1.1-0.5,1.2-1.2c0-0.8-0.5-1.3-1.2-1.5h-0.1c0,0-2.3-0.1-6.1-0.4
					c-1.9-0.1-4.3-0.4-7-0.7c-2.7-0.4-5.8-0.7-9-1.2c-3.4-0.5-6.9-1.1-10.6-1.7c-1.9-0.4-3.9-0.7-5.6-1.1c-0.9-0.3-1.9-0.3-2.8-0.7
					l-1.5-0.4l-1.1-0.4c-3.4-1.3-6.2-3.5-6.7-6.2c-0.1-0.7-0.3-1.5-0.3-2c0.1-1.2,0.1-1.6,0.4-2.2c0.4-0.9,1.3-1.9,2.8-2.6
					c1.5-0.7,3.4-0.9,5.2-1.1c0.9,0,1.9,0,2.8,0.1c0.8,0.1,1.7,0.3,3,0.5c4.3,0.9,8.6,1.7,12.8,2.7c8.2,1.7,15.9,3.5,22.2,5.5
					c3.1,0.9,6.1,2,8.3,3.1c2.3,1.1,4.2,2.4,4.7,3.6c0.1,0.3,0.3,0.5,0.3,0.7c0,0.3,0,0.5,0,0.7c-0.1,0.4-0.4,0.8-0.7,1.1
					c-0.5,0.5-1.1,0.8-1.1,0.8c-0.4,0.3-0.7,0.8-0.5,1.2c0.1,0.7,0.8,0.9,1.3,0.8h0.3c0,0,0.5-0.1,1.6-0.8
					C277.4,293.4,279.3,291.3,278.3,288.3z"/>
			</g>
			<path class="st1" d="M490.1,148.5c0,0,0.1-0.1,0.4-0.5c0.1-0.1,0.3-0.4,0.4-0.5c0.3-0.3,0.5-0.5,0.8-0.9c1.3-1.3,3.1-3.5,7.3-4.8
				c2.2-0.7,5-0.8,7.5,0.1c2.7,0.9,4.8,2.6,6.6,4.4c1.7,1.9,3.1,4,4.3,6.3c0.5,1.1,1.1,2.3,1.6,3.5c0.4,1.1,0.8,2.2,1.2,3.4
				c0.8,2.3,1.7,4.6,2.7,7c0.9,2.3,2,4.7,3.1,7.3l0.8,1.9l0.4,0.9l0.4,0.9c0.5,1.2,1.2,2.6,1.7,3.9c1.2,2.6,2.4,5.1,3.8,7.7
				c2.7,5.2,5.8,10.4,9.1,15.5c1.6,2.6,3.5,5.1,5.4,7.5l3,3.8l3,3.5c4,4.7,8.3,9.1,13,13c4.7,3.9,9.7,7.3,14.8,10
				c5.1,2.7,10.4,4.8,15.5,6.5c5.1,1.5,10.1,2.8,14.8,3.5c0.5,0.1,1.2,0.1,1.7,0.3l0.4,0.1c0,0,0.3,0,0.4,0l0.8,0.1
				c1.2,0.1,2.3,0.3,3.4,0.4c2.2,0.3,4.2,0.4,6.1,0.4c3.8,0.3,7.1,0.1,10,0.1c2.8-0.1,5-0.3,6.5-0.4c1.5-0.1,2.3-0.1,2.3-0.1h0.1
				c0.7,0,1.3,0.5,1.3,1.2s-0.4,1.2-1.1,1.3c0,0-0.8,0.1-2.3,0.3c-1.5,0.1-3.8,0.5-6.6,0.9c-2.8,0.3-6.2,0.7-10.2,0.5
				c-2,0-4.2,0.1-6.3,0c-1.1,0-2.2-0.1-3.4-0.1h-0.8h-0.5H613c-0.5,0-1.2-0.1-1.7-0.1c-4.8-0.4-10.2-1.3-15.7-2.7
				c-5.5-1.3-11.2-3.4-16.8-6.1c-11.3-5.2-22.2-13.4-31.2-23.1l-3.4-3.8l-3.1-3.6c-2.2-2.7-4.2-5.1-6.1-7.8
				c-3.8-5.2-7.1-10.6-10.2-16c-1.5-2.7-3-5.4-4.3-8.1c-0.7-1.3-1.3-2.6-1.9-3.9l-0.4-0.9l-0.5-1.1l-0.9-1.9
				c-1.2-2.6-2.3-5.1-3.5-7.5c-0.9-2.4-2-4.7-3-6.9c-0.3-0.5-0.4-1.1-0.7-1.6c-0.3-0.5-0.4-1.1-0.7-1.6c-0.4-0.9-0.8-1.7-1.2-2.7
				c-0.8-1.6-1.7-3.1-2.6-4c-0.8-1.1-1.6-1.6-2.2-1.9c-0.5-0.3-0.9-0.4-1.5-0.4c-1.2,0-3,0.9-3.9,1.6c-0.3,0.1-0.4,0.3-0.7,0.4
				s-0.4,0.3-0.5,0.4c-0.3,0.3-0.5,0.4-0.5,0.4c-1.7,1.3-4.3,1.1-5.8-0.8C489,152,489.1,149.9,490.1,148.5z"/>
			<path class="st1" d="M449.9,134.1c0,0,0.1-0.5,0.4-1.9c0.3-1.3,0.4-3.4,0.1-5.5c-0.3-2.3-1.1-4.3-3.1-5.8c-2-1.5-5.5-2.7-10-2.8
				c-2.3-0.1-4.6,0-7.3,0.1c-2.7,0.1-5.5,0.4-8.5,0.5c-5.9,0.4-12.1,0.5-18.6,0.8c-6.3,0.1-13.2,0.1-19.9-0.3
				c-6.9-0.3-13.7-0.9-20.6-2c-3.5-0.5-6.9-1.2-10.4-1.9c-3.2-0.7-6.7-1.6-10-2.6c-6.6-1.9-12.9-4.2-19-6.7
				c-12.1-5-22.6-11.6-30.7-18c-0.9-0.8-2-1.6-3-2.4l-0.7-0.5l-0.7-0.7c-0.4-0.4-0.9-0.8-1.3-1.2c-1.7-1.6-3.4-3-4.8-4.6
				c-1.5-1.5-3-3-4.2-4.2c-1.2-1.3-2.3-2.6-3.4-3.8c-2-2.3-3.4-4.2-4.4-5.4c-0.9-1.2-1.5-1.9-1.5-1.9c-0.5-0.7-0.4-1.7,0.3-2.4
				c0.7-0.5,1.7-0.5,2.3,0.1l0,0c0,0,0.5,0.7,1.6,1.7s2.6,3,4.7,5c1.1,1.1,2.2,2.2,3.5,3.4c1.2,1.2,2.7,2.4,4.2,3.8
				c1.5,1.3,3.2,2.7,5,4.2c0.4,0.4,0.9,0.7,1.3,1.1l0.4,0.3l0.3,0.3l0.7,0.5c0.9,0.7,1.9,1.5,3,2.2c8.2,5.8,18.3,11.6,29.9,16
				c5.8,2.3,12,4.2,18.3,5.6c3.2,0.8,6.3,1.3,9.7,2c3.2,0.4,6.5,1.1,9.8,1.5c6.6,0.8,13.2,1.3,19.8,1.3c6.6,0.1,12.9,0,19.4-0.3
				c6.2-0.4,12.2-0.8,18.2-1.3c3-0.3,5.8-0.5,8.5-0.8c2.7-0.3,5.8-0.4,8.6-0.3c2.8,0.1,5.6,0.5,8.5,1.5c2.7,0.8,5.4,2.2,7.5,4.2
				c2.2,1.9,3.8,4.3,4.7,6.6c0.8,2.3,1.2,4.6,1.2,6.3c0,3.8-0.7,6.5-1.2,8.2s-1.1,2.8-1.1,2.8c-0.9,2-3.4,2.8-5.4,1.9
				C450.1,138.1,449.3,136.1,449.9,134.1L449.9,134.1z"/>
		</g>
	</g>
	<g>
		<g>
			<path class="st0" d="M883,188.7v66.2c0,14.8,1.2,24.5,4,28.9c3.2,5.2,10,7.6,20.1,7.6c10.8,0,19.7-2.4,26.1-7.2
				c6.4-4.8,10.8-12.4,13.2-22.5c1.6-6.4,4.8-9.2,9.6-9.2c5.2,0,9.2,2.4,12.4,6.8c3.2,4.4,4.8,10.4,4.8,17.7
				c0,12-4.4,24.5-13.2,38.1c-2.8,4.4-5.2,7.2-7.2,8.8c-2,1.6-4.8,2.4-7.6,2.4l-32.1-4H812.4c-6.8,0-11.2-0.8-14-2.4
				c-4-2-6-5.6-6-10c0-2.8,0.8-4.8,2-6c1.2-1.2,4.4-3.2,9.6-5.6c5.6-2.4,8.8-6.4,10.4-10.8c1.2-4,2-15.2,2-34.5
				c0-8.8-0.4-21.7-0.8-38.1c-0.4-16-0.8-28.1-0.8-36.1c0-7.6-0.4-12.8-1.6-15.6c-1.2-2.8-3.6-4.8-7.6-6c-6.4-2-10.4-4-12-5.2
				c-3.2-2.4-4.4-5.2-4.4-8c0-6.8,5.6-12.4,17.3-16c10-3.2,23.3-4.8,39.7-4.8c18.5,0,32.5,0.8,41.7,2.8c12,2.4,18.1,7.6,18.1,15.6
				c0,3.2-0.8,5.6-2.4,7.2s-5.6,3.6-11.6,6c-3.6,1.6-6,4.4-6.8,8.4C883.4,167,883,175.5,883,188.7z"/>
			<path class="st0" d="M1065.9,178.7c17.7,0,32.9,4.4,46.1,13.6c9.6,6.4,17.3,14.8,22.9,25.7c6,10.8,8.8,22.5,8.8,34.1
				c0,20.9-9.6,38.5-28.5,53c-18.1,14-39.3,20.9-62.6,20.9c-22.9,0-41.3-6.4-55.8-19.7c-13.6-12.8-20.9-29.3-20.9-49.4
				c0-22.5,8.4-41.3,25.3-55.8C1019,186.3,1040.7,178.7,1065.9,178.7z M1054.3,212c-4.4,0-7.6,1.6-10,4.8c-2.4,3.2-4,7.2-4,12.4
				c0,5.6,1.2,13.6,3.2,23.7c2,10,4.8,18.9,7.6,26.5c2.8,8,7.6,11.6,14.4,11.6c8.4,0,12.8-5.6,12.8-16.5c0-8-1.2-17.3-3.2-27.7
				c-2-10.4-4.8-18.5-8-24.9C1064.3,215.6,1059.9,212.4,1054.3,212z"/>
			<path class="st0" d="M1232.5,134.5l-2,56.2c0,1.2,0,2.4,0,3.2c0,2,0.8,2.8,2,2.8c0.8,0,2.4-1.2,5.6-4
				c11.2-9.2,23.7-13.6,37.3-13.6s25.3,4.8,35.7,14.4c12.8,12,19.3,28.1,19.3,47.7c0,28.1-10.4,50.2-31.3,67
				c-14.8,12-32.5,18.1-52.6,18.1c-10,0-18.9-1.2-26.9-4c-8-2.4-16.9-6.8-26.5-12.8c-1.6-0.8-2.4-1.2-3.6-1.2s-4,0.8-8.8,2.8
				c-2.4,0.8-5.6,1.6-8.8,1.6c-6,0-8.8-2-8.8-5.6c0-1.2,0.4-2.8,0.8-4.4c2-6.4,3.2-14,4-23.3c0.8-9.2,1.2-23.7,1.2-43.7v-39.7
				c0-10-0.4-16-1.2-18.5c-0.8-2.4-2.8-4.4-6.4-6c-4.8-2-8.4-4-10.4-6.4c-2-2-2.8-4.8-2.8-8c0-6.4,6.8-12.8,20.5-18.9
				c7.6-3.2,16.9-6,28.1-8.4c11.2-2.4,20.9-3.6,28.9-3.6C1230.1,125.7,1232.5,128.5,1232.5,134.5z M1244.9,222.4
				c-5.2,0-8.8,1.6-11.2,5.2c-2,2.8-2.8,8-2.8,16.5c0,22.5,0.8,37.7,2.4,45.7c1.2,7.2,5.6,10.8,12.4,10.8s12.4-2.8,16-8.8
				s5.6-14.4,5.6-26.1c0-16.9-3.2-28.9-9.2-36.5C1254.1,224.8,1250.1,222.4,1244.9,222.4z"/>
			<path class="st0" d="M1398.2,179.1c4.8,0,12.4,1.2,23.7,3.2c2,0.4,4,0.4,5.6,0.4c1.6,0,4.8-0.8,9.6-2.4c2-0.8,4-1.2,5.6-1.2
				c4.4,0,8.8,2.8,13.2,8.4c3.6,4.4,6.8,9.6,8.8,14.8c2.4,5.2,3.6,10,3.6,14c0,4-1.2,7.2-4,9.6c-2.8,2.4-6,4-10,4
				c-3.2,0-6.4-0.8-8.8-2.4c-2.8-1.6-6.8-5.2-12.8-10.8c-6-6-11.2-8.8-15.2-8.8c-2.8,0-5.2,0.8-6.8,2.8c-2,2-2.8,4.4-2.8,6.8
				c0,4.8,4.4,9.2,13.6,13.2c16,7.2,28.5,15.2,37.3,24.1c7.2,7.2,10.8,16,10.8,26.9c0,13.2-6,24.5-17.7,33.3
				c-10,7.6-22.5,11.6-36.9,11.6c-3.6,0-10.4-0.8-20.5-2c-9.2-1.2-14.4-1.6-15.6-1.6c-1.2,0-2.8,0-4.4,0.4c-2.8,0.4-4.8,0.4-6,0.4
				c-4.4,0-8-1.2-10.8-3.6c-4-3.6-7.6-9.2-10.8-16.9s-5.2-14-5.2-19.7c0-8.8,3.6-13.2,10.4-13.2c2.8,0,5.2,0.8,7.2,2.8
				c2.4,1.6,6.8,6.4,14,14c4,4.4,7.2,7.2,9.6,8.8c2.4,1.6,5.2,2.4,8.4,2.4c3.2,0,5.6-0.8,7.6-2.4c2-1.6,2.8-4,2.8-6.8
				c0-4.4-3.6-8.4-11.2-11.6c-15.6-7.6-26.5-15.2-33.3-23.3c-6.8-8-10.4-17.3-10.4-28.1c0-11.2,3.6-21.3,10.4-29.7
				C1367.3,184.7,1380.9,179.1,1398.2,179.1z"/>
			<path class="st0" d="M1567.5,216.8v48.5c0,5.6,1.6,10.4,4.4,14s6.4,5.6,10.8,5.6c3.6,0,8.8-1.6,14.8-5.2c1.6-0.8,2.8-1.2,4.4-1.2
				c2.4,0,4.4,1.2,6.4,4c2,2.8,2.8,5.6,2.8,9.2c0,6-3.2,11.6-9.6,17.3c-13.6,11.6-30.1,17.3-49.4,17.3c-15.2,0-27.7-4.4-36.9-12.8
				c-9.2-8.8-14-20.1-14-34.5v-66.6c0-2-0.4-3.6-0.8-4c-0.4-0.4-2-0.8-4-0.8h-14.8c-2.8,0-4.4-0.4-5.2-1.2c-0.8-0.8-1.2-3.2-1.2-6.4
				v-6.4c0-2.8,1.2-4.8,3.2-6.4l65.8-41.3c1.6-0.8,3.6-1.2,6-1.2h11.6c2.4,0,4,0.4,4.8,1.6c0.8,1.2,1.2,3.2,1.2,6.4v19.3
				c0,2.8,0.4,4.8,1.2,5.6c0.8,0.8,2.8,1.2,6,1.2h26.5c3.6,0,6,0.8,6.8,2c1.2,1.2,1.6,4,1.6,8.4v8.4c0,4.4-0.8,7.6-2,9.6
				c-1.2,1.6-3.6,2.8-7.2,2.8h-26.1c-2.8,0-4.4,0.4-5.6,1.6C1568.3,212,1567.5,214,1567.5,216.8z"/>
			<path class="st0" d="M1749.7,257.7h-67.8c-2.8,0-4.4,1.2-4.4,4c0,6.4,3.2,12,10,17.7s14,8.4,21.7,8.4c4.4,0,9.6-0.8,15.2-2.8
				c5.6-1.6,10.4-4,14-6.4c3.2-2.4,6-3.6,7.6-3.6c2.4,0,4.8,1.6,7.2,4.4c2.4,3.2,3.6,6.4,3.6,9.6c0,6.8-4.4,13.6-12.8,20.1
				c-15.2,11.2-32.9,17.3-53,17.3s-36.9-6-50.6-17.7c-6.8-5.6-12-12.8-16.5-20.9c-5.6-10.8-8.4-22.5-8.4-34.1
				c0-16,4.8-30.5,14.8-43.3c8.4-11.2,19.3-19.3,32.1-24.9c9.6-4,20.5-6,31.7-6c18.1,0,33.7,5.2,46.5,15.6
				c6.4,5.2,11.6,11.2,15.6,18.5c4.4,8,6.8,16,6.8,23.7c0,6.4-1.2,11.2-4,15.2C1757.3,255.7,1754.1,257.7,1749.7,257.7z
				 M1685.9,230.8h14.4c6,0,9.2-2.8,9.2-8.4c0-5.2-1.6-9.2-4.4-12.8c-2.8-3.2-6.8-4.8-11.6-4.8c-5.2,0-9.6,2-12.8,6.4
				c-2.8,4-4.4,8-4.4,12c0,2.8,0.8,4.8,2,6C1679.8,230.4,1682.6,230.8,1685.9,230.8z"/>
			<path class="st0" d="M1840.3,179.9c5.2,0,8,0.8,9.2,2c1.2,1.6,2,6,2.8,13.6c0.4,4.4,2,6.4,4.4,6.4c2,0,3.6-1.2,5.6-4
				c7.6-12,17.7-18.1,30.1-18.1c8.8,0,16,2.8,21.3,8.4c2.8,2.8,4.8,6.4,6.8,10.8c1.6,4.4,2.4,8.4,2.4,12.4c0,4.4-1.2,9.2-3.2,14
				c-2,4.8-4.8,8.8-8,11.6c-6,6-13.6,8.8-22.5,8.8c-4.8,0-8.8-0.8-12.4-2.4c-3.2-1.6-7.6-5.2-12.8-10.4c-2-2-4-3.2-5.6-3.2
				c-2.8,0-4.4,1.6-5.2,4.4c-0.8,3.2-1.2,9.2-1.2,19.3c0,14.4,0.4,24.5,1.6,29.7c0.8,2.8,1.6,4.8,2.8,6c1.2,1.2,3.6,2.4,7.6,3.2
				c8.8,2.4,12.8,7.2,12.8,13.6c0,4-1.2,7.2-4,10.4c-2.8,2.8-6.4,4.8-11.2,6c-9.2,2-22.9,2.8-40.5,2.8c-16.9,0-30.1-1.6-38.9-4.4
				c-8-2.8-11.6-7.2-11.6-14c0-4.8,2.8-9.6,8.8-13.2c2.8-2,4.8-3.6,5.6-4.8c1.2-1.6,1.6-3.6,2-6c1.6-8.8,2.4-24.9,2.4-48.5
				c0-4.4-0.4-7.2-1.6-9.2c-0.8-2-2.8-3.2-5.6-4.4c-6.8-2.8-10-6.4-10-11.6c0-4.4,2.4-8.4,7.2-12c4.8-3.2,12.4-6.4,23.7-10
				C1817.5,182.3,1829.9,179.9,1840.3,179.9z"/>
			<path class="st0" d="M2009.3,322.3H1990c-13.6,0-23.3,0.4-29.7,0.8c-5.6,0.4-9.6,0.8-12,0.8c-6,0-10.4-1.6-14-4.4
				c-3.2-2.8-5.2-6.4-5.2-10.8c0-2.8,0.8-4.8,2-6.4c1.2-1.6,4.4-4,9.2-7.2c2.8-2,4.8-4.8,5.6-8.8c1.2-4,2-12.8,3.6-26.5
				c2-20.9,2.8-46.5,2.8-77.4c0-11.2-0.8-18.9-2.4-22.5c-1.6-3.6-4.8-6.8-10.4-9.2c-6.4-2.8-9.6-6.8-9.6-11.6c0-4.4,2-7.6,5.6-10.4
				c3.6-2.8,8.8-4,14.4-4c3.2,0,7.6,0,12.4,0.4c8.4,0.4,17.7,0.4,27.3,0.4c7.2,0,21.3-0.4,42.5-0.8c6.8,0,12.4-0.4,18.1-0.4
				c12.8,0,22.9,1.2,30.9,3.2c8,2,14.4,5.6,20.5,10.4c9.2,8,14,18.5,14,32.1c0,6.8-1.2,13.2-4,19.3c-2.8,6.4-6.4,11.2-11.2,14.8
				c-3.2,2.8-5.2,5.2-5.2,7.2c0,2.4,2,4.4,6,6c8,3.2,14.8,8.4,21.3,16c6.8,7.6,10,17.7,10,29.3c0,13.6-5.2,26.5-15.2,37.7
				c-13.2,15.2-32.9,22.5-59.4,22.5c-3.6,0-12.4-0.4-26.1-0.8C2019.7,322.7,2012.1,322.3,2009.3,322.3z M2019.3,165.8v29.7
				c0,4.8,0.4,8,1.6,10c1.2,2,3.2,2.8,6.4,2.8c7.2,0,12.4-2,15.6-6.4c3.2-4.4,5.2-11.2,5.2-20.5c0-8.8-1.6-16-5.2-20.9
				c-3.6-4.8-8.4-7.2-14.8-7.2c-3.2,0-5.6,0.8-6.8,2.8C2019.7,157.8,2019.3,161,2019.3,165.8z M2019.3,248.9v13.6
				c0,12.4,0.8,20.9,2.8,24.9c2,4,5.6,6,11.2,6c14.4,0,22.1-8.4,22.1-25.7c0-21.3-8-32.1-24.5-32.1c-4.4,0-7.2,0.8-8.8,2.8
				C2020.1,240.9,2019.3,244.1,2019.3,248.9z"/>
			<path class="st0" d="M2222.3,188.7v83.9c0,6.4,0.4,11.6,1.6,14.4c1.2,3.2,3.6,6,7.2,8.4c2.8,2,4.8,4,6,5.2
				c1.2,1.6,1.6,3.2,1.6,5.6c0,12.4-15.6,18.5-46.9,18.5c-16.9,0-30.1-1.2-40.1-4c-3.2-0.8-6-2.8-8-5.2c-2-2.4-3.2-5.2-3.2-8
				c0-2.4,0.4-4.4,1.6-6c1.2-1.6,3.6-3.6,8-6.8c2.8-2,5.2-5.6,6.4-10.8c1.2-4.8,2-12.4,2-22.5c0-3.2-0.4-9.2-0.8-17.7
				c-0.4-8.8-0.8-13.6-0.8-15.2c-0.4-4-3.2-6.8-8-9.2c-6-2.4-8.8-6.4-8.8-11.6c0-6,4-10.4,11.6-13.6c10.8-4,22.5-7.6,34.5-10.4
				s21.7-4.4,28.5-4.4C2219.9,179.9,2222.3,182.7,2222.3,188.7z M2193.8,125.7c8.4,0,14.8,1.6,20.1,4.8c4.8,3.2,7.2,7.2,7.2,12.4
				c0,7.2-3.6,13.2-11.2,17.7c-11.6,6.8-25.7,10-42.5,10c-6.8,0-12.4-1.2-16.9-4c-5.6-3.6-8.4-8.4-8.4-14.4c0-8.4,6-14.8,17.7-19.3
				C2172.2,128.1,2183.4,125.7,2193.8,125.7z"/>
			<path class="st0" d="M2305,179.1c4.8,0,12.4,1.2,23.7,3.2c2,0.4,4,0.4,5.6,0.4s4.8-0.8,9.6-2.4c2-0.8,4-1.2,5.6-1.2
				c4.4,0,8.8,2.8,13.2,8.4c3.6,4.4,6.8,9.6,8.8,14.8c2.4,5.2,3.6,10,3.6,14c0,4-1.2,7.2-4,9.6c-2.8,2.4-6,4-10,4
				c-3.2,0-6.4-0.8-8.8-2.4c-2.8-1.6-6.8-5.2-12.8-10.8c-6-6-11.2-8.8-15.2-8.8c-2.8,0-5.2,0.8-6.8,2.8c-2,2-2.8,4.4-2.8,6.8
				c0,4.8,4.4,9.2,13.6,13.2c16,7.2,28.5,15.2,37.3,24.1c7.2,7.2,10.8,16,10.8,26.9c0,13.2-6,24.5-17.7,33.3
				c-10,7.6-22.5,11.6-36.9,11.6c-3.6,0-10.4-0.8-20.5-2c-9.2-1.2-14.4-1.6-15.6-1.6c-1.2,0-2.8,0-4.4,0.4c-2.8,0.4-4.8,0.4-6,0.4
				c-4.4,0-8-1.2-10.8-3.6c-4-3.6-7.6-9.2-10.8-16.9c-3.2-7.6-5.2-14-5.2-19.7c0-8.8,3.6-13.2,10.4-13.2c2.8,0,5.2,0.8,7.2,2.8
				c2.4,1.6,6.8,6.4,14,14c4,4.4,7.2,7.2,9.6,8.8c2.4,1.6,5.2,2.4,8.4,2.4c3.2,0,5.6-0.8,7.6-2.4s2.8-4,2.8-6.8
				c0-4.4-3.6-8.4-11.2-11.6c-15.6-7.6-26.5-15.2-33.3-23.3s-10.4-17.3-10.4-28.1c0-11.2,3.6-21.3,10.4-29.7
				C2274.1,184.7,2287.7,179.1,2305,179.1z"/>
			<path class="st0" d="M2474.7,216.8v48.5c0,5.6,1.6,10.4,4.4,14s6.4,5.6,10.8,5.6c3.6,0,8.8-1.6,14.8-5.2c1.6-0.8,2.8-1.2,4.4-1.2
				c2.4,0,4.4,1.2,6.4,4s2.8,5.6,2.8,9.2c0,6-3.2,11.6-9.6,17.3c-13.6,11.6-30.1,17.3-49.4,17.3c-15.2,0-27.7-4.4-36.9-12.8
				c-9.2-8.8-14-20.1-14-34.5v-66.6c0-2-0.4-3.6-0.8-4c-0.4-0.4-2-0.8-4-0.8h-14.8c-2.8,0-4.4-0.4-5.2-1.2c-0.8-0.8-1.2-3.2-1.2-6.4
				v-6.4c0-2.8,1.2-4.8,3.2-6.4l65.8-41.3c1.6-0.8,3.6-1.2,6-1.2h11.6c2.4,0,4,0.4,4.8,1.6c0.8,1.2,1.2,3.2,1.2,6.4v19.3
				c0,2.8,0.4,4.8,1.2,5.6c0.8,0.8,2.8,1.2,6,1.2h26.5c3.6,0,6,0.8,6.8,2c1.2,1.2,1.6,4,1.6,8.4v8.4c0,4.4-0.8,7.6-2,9.6
				c-1.2,1.6-3.6,2.8-7.2,2.8h-26.5c-2.8,0-4.4,0.4-5.6,1.6C2475.1,212,2474.7,214,2474.7,216.8z"/>
			<path class="st0" d="M2592.6,179.9c5.2,0,8,0.8,9.2,2c1.2,1.6,2,6,2.8,13.6c0.4,4.4,2,6.4,4.4,6.4c2,0,3.6-1.2,5.6-4
				c7.6-12,17.7-18.1,30.1-18.1c8.8,0,16,2.8,21.3,8.4c2.8,2.8,4.8,6.4,6.8,10.8c1.6,4.4,2.4,8.4,2.4,12.4c0,4.4-1.2,9.2-3.2,14
				c-2,4.8-4.8,8.8-8,11.6c-6,6-13.6,8.8-22.5,8.8c-4.8,0-8.8-0.8-12.4-2.4c-3.2-1.6-7.6-5.2-12.8-10.4c-2-2-4-3.2-5.6-3.2
				c-2.8,0-4.4,1.6-5.2,4.4c-0.8,3.2-1.2,9.2-1.2,19.3c0,14.4,0.4,24.5,1.6,29.7c0.8,2.8,1.6,4.8,2.8,6s3.6,2.4,7.6,3.2
				c8.8,2.4,12.8,7.2,12.8,13.6c0,4-1.2,7.2-4,10.4c-2.8,2.8-6.4,4.8-11.2,6c-9.2,2-22.9,2.8-40.5,2.8c-16.9,0-30.1-1.6-38.9-4.4
				c-8-2.8-11.6-7.2-11.6-14c0-4.8,2.8-9.6,8.8-13.2c2.8-2,4.8-3.6,5.6-4.8c1.2-1.6,1.6-3.6,2-6c1.6-8.8,2.4-24.9,2.4-48.5
				c0-4.4-0.4-7.2-1.6-9.2c-0.8-2-2.8-3.2-5.6-4.4c-6.8-2.8-10-6.4-10-11.6c0-4.4,2.4-8.4,7.2-12c4.8-3.2,12.4-6.4,23.7-10
				C2569.8,182.3,2582.2,179.9,2592.6,179.9z"/>
			<path class="st0" d="M2768.4,178.7c17.7,0,32.9,4.4,46.1,13.6c9.6,6.4,17.3,14.8,22.9,25.7c6,10.8,8.8,22.5,8.8,34.1
				c0,20.9-9.6,38.5-28.5,53c-18.1,14-39.3,20.9-62.6,20.9c-22.9,0-41.3-6.4-55.8-19.7c-13.6-12.8-20.9-29.3-20.9-49.4
				c0-22.5,8.4-41.3,25.3-55.8C2721.8,186.3,2743.5,178.7,2768.4,178.7z M2757.2,212c-4.4,0-7.6,1.6-10,4.8c-2.4,3.2-4,7.2-4,12.4
				c0,5.6,1.2,13.6,3.2,23.7c2,10,4.8,18.9,7.6,26.5c2.8,8,7.6,11.6,14.4,11.6c8.4,0,12.8-5.6,12.8-16.5c0-8-1.2-17.3-3.2-27.7
				s-4.8-18.5-8-24.9C2767.2,215.6,2762.8,212.4,2757.2,212z"/>
		</g>
		<g>
			<path class="st1" d="M807.2,489.2v-14c4,4,8,6,12,6c2.8,0,5.2-1.2,7.2-3.2c2-2,3.2-4.4,3.2-7.2c0-2.4-0.4-5.2-1.6-8.8
				c-1.2-3.6-4.4-10-9.2-19.3c-4.8-9.2-8.4-16.5-9.6-21.3c-1.6-4.8-2.4-9.2-2.4-12.8c0-7.2,2-12.8,6-17.7c4-4.4,9.2-6.8,15.6-6.8
				c3.6,0,7.2,0.8,11.6,2.8v12.8c-3.6-2-6.8-3.2-9.6-3.2c-6.8,0-10.4,3.2-10.4,10c0,2.4,0.4,5.6,1.6,8.8c1.2,3.6,4.4,10,9.2,19.3
				c4.8,9.2,8.4,16.5,9.6,21.3c1.6,4.8,2.4,9.2,2.4,12.8c0,7.2-2,13.2-6,17.7c-4,4.4-9.2,6.8-16,6.8
				C816,493.2,811.6,492,807.2,489.2z"/>
			<path class="st1" d="M856.1,492V385.3h38.1v12.8h-24.1v31.7h22.1v12.8h-22.1v36.5h25.7V492L856.1,492L856.1,492z"/>
			<path class="st1" d="M905.9,492l20.1-107.1h14.4L960.4,492h-13.2l-4-23.7h-19.7l-4,23.7H905.9z M925.5,455.5h15.2l-7.6-44.5h-0.4
				L925.5,455.5z"/>
			<path class="st1" d="M970.5,492V385.3h33.3v12.8h-19.7v31.7h18.1v12.8h-18.1V492H970.5z"/>
			<path class="st1" d="M1047.5,493.2c-8.4,0-15.2-4.8-20.5-14.4c-5.2-9.6-8-23.3-8-40.1c0-16,2.4-29.3,7.6-39.3
				c4.8-10,12-15.2,20.9-15.2s15.6,5.2,20.9,15.2c5.2,10,7.6,23.3,7.6,39.3c0,17.3-2.8,30.5-8,40.1
				C1062.3,488.4,1055.5,493.2,1047.5,493.2z M1047.1,396.5c-4.4,0-8,3.6-10.4,11.2c-2.4,7.6-3.6,17.7-3.6,30.9
				c0,13.6,1.2,24.1,3.6,31.3c2.4,7.2,6,10.8,10.4,10.8c4.4,0,7.6-3.6,10.4-11.2c2.4-7.2,3.6-17.7,3.6-30.9c0-13.2-1.2-23.7-4-30.9
				C1055.1,400.2,1051.9,396.5,1047.1,396.5z"/>
			<path class="st1" d="M1115.3,493.2c-8.4,0-15.2-4.8-20.5-14.4c-5.2-9.6-8-23.3-8-40.1c0-16,2.4-29.3,7.6-39.3
				c4.8-10,12-15.2,20.9-15.2s15.6,5.2,20.9,15.2c5.2,10,7.6,23.3,7.6,39.3c0,17.3-2.8,30.5-8,40.1
				C1130.5,488.4,1123.7,493.2,1115.3,493.2z M1115.3,396.5c-4.4,0-8,3.6-10.4,11.2s-3.6,17.7-3.6,30.9c0,13.6,1.2,24.1,3.6,31.3
				c2.4,7.2,6,10.8,10.4,10.8s7.6-3.6,10.4-11.2c2.4-7.2,3.6-17.7,3.6-30.9c0-13.2-1.2-23.7-4-30.9
				C1123.3,400.2,1119.7,396.5,1115.3,396.5z"/>
			<path class="st1" d="M1158.2,492V385.3h15.2c24.5,0,36.5,17.7,36.5,53c0,17.7-3.2,30.9-9.2,40.1c-6,8.8-14.4,13.2-25.7,13.2
				h-16.9V492z M1171.9,479.2h2c8,0,13.6-3.2,17.3-9.2c3.2-6,5.2-16.5,5.2-30.9c0-14.8-1.6-25.3-4.8-31.7c-3.2-6-8.8-9.2-17.3-9.2
				h-2.4L1171.9,479.2L1171.9,479.2z"/>
			<path class="st1" d="M1318.3,493.2l-4-9.2c-5.6,6.4-11.2,9.2-17.3,9.2c-6.4,0-12-3.2-16.9-9.2c-4.8-6-6.8-13.2-6.8-22.1
				c0-12.4,5.2-23.7,16-32.9c-4-8.8-6-16-6-22.1c0-6.4,2-11.6,5.6-16c4-4.4,8.4-6.8,13.6-6.8c5.2,0,9.2,2,12.8,5.6
				c3.6,4,5.2,8.4,5.2,14c0,9.2-5.2,18.1-15.6,27.3l10.4,24.5h0.4c1.6-6.8,2.8-12.4,3.6-17.3h12c-0.8,11.2-4,22.1-8.8,32.9l10,22.5
				h-14.4V493.2z M1308.7,471.6l-13.6-30.1c-2.8,3.6-5.2,6.8-6.4,9.2c-1.2,2.8-2,6-2,10.4c0,5.2,1.2,10,3.2,13.2
				c2,3.6,4.8,5.2,8,5.2C1301.9,479.6,1305.5,476.8,1308.7,471.6z M1300.3,419.8c3.2-3.2,5.6-5.6,6.8-8c1.6-2.4,2.4-4.8,2.4-8
				c0-2.4-0.8-4.8-2-6.4c-1.2-1.6-2.8-2.4-4.8-2.4c-2,0-3.6,0.8-4.8,2.8c-1.2,2-2,4-2,6.8C1295.9,409.4,1297.5,414.2,1300.3,419.8z"/>
			<path class="st1" d="M1447.9,434.7v52.2c-6.4,4-12.8,6.4-18.9,6.4c-10.8,0-19.3-4.8-25.7-14.4c-6.4-9.6-9.2-22.9-9.2-40.1
				c0-16.9,3.2-30.1,9.2-40.1c6-10,14-14.8,24.5-14.8c6,0,12.8,2.4,20.5,7.6v14.8c-7.6-6.8-14-10.4-19.7-10.4
				c-13.6,0-20.5,14.4-20.5,42.9c0,28.1,7.2,41.7,21.7,41.7c1.2,0,2.8,0,4.8-0.4v-32.5h-9.2v-12.8L1447.9,434.7L1447.9,434.7z"/>
			<path class="st1" d="M1464.8,492V385.3h11.6c9.2,0,16,2.8,20.9,8c4.8,5.2,7.2,12.4,7.2,21.3c0,10-3.6,17.7-11.2,22.9
				c5.6,4,10.4,14.8,14.4,32.5l4.8,22.1h-14l-4-18.5c-2.8-12.8-5.6-21.3-7.6-24.5c-2-3.6-4.8-5.2-8-4.8V492H1464.8z M1478.4,431.4
				h0.8c7.6,0,11.6-5.2,11.6-16c0-11.2-4-17.3-12-17.3v33.3H1478.4z"/>
			<path class="st1" d="M1522.6,492V385.3h13.6V492H1522.6z"/>
			<path class="st1" d="M1554.7,492V385.3h13.6v93.9h26.5V492H1554.7z"/>
			<path class="st1" d="M1604.4,492V385.3h13.6v93.9h26.5V492H1604.4z"/>
			<path class="st1" d="M1707.5,492V385.3h11.6c9.2,0,16,2.8,20.9,8c4.8,5.2,7.2,12.4,7.2,21.3c0,10-3.6,17.7-11.2,22.9
				c5.6,4,10.4,14.8,14.4,32.5l4.8,22.1h-14.4l-4-18.5c-2.8-12.8-5.6-21.3-7.6-24.5c-2-3.6-4.8-5.2-8-4.8V492H1707.5z M1721.2,431.4
				h0.8c7.6,0,11.6-5.2,11.6-16c0-11.2-4-17.3-12-17.3v33.3H1721.2z"/>
			<path class="st1" d="M1765.7,492V385.3h38.1v12.8h-24.1v31.7h22.1v12.8h-22.5v36.5h25.7V492L1765.7,492L1765.7,492z"/>
			<path class="st1" d="M1819.5,489.2v-14c4,4,8,6,12,6c2.8,0,5.2-1.2,7.2-3.2c2-2,3.2-4.4,3.2-7.2c0-2.4-0.4-5.2-1.6-8.8
				c-1.2-3.6-4.4-10-9.2-19.3c-4.8-9.2-8.4-16.5-9.6-21.3c-1.6-4.8-2.4-9.2-2.4-12.8c0-7.2,2-12.8,6-17.7c4-4.4,9.2-6.8,15.6-6.8
				c3.6,0,7.2,0.8,11.6,2.8v12.8c-3.6-2-6.8-3.2-9.6-3.2c-6.8,0-10.4,3.2-10.4,10c0,2.4,0.4,5.6,1.6,8.8c1.2,3.6,4.4,10,9.2,19.3
				c4.8,9.2,8.4,16.5,9.6,21.3c1.6,4.8,2.4,9.2,2.4,12.8c0,7.2-2,13.2-6,17.7s-9.2,6.8-16,6.8C1828.7,493.2,1823.9,492,1819.5,489.2
				z"/>
			<path class="st1" d="M1877.2,492v-93.9h-16.5v-12.8h46.5v12.8h-16.5V492H1877.2z"/>
			<path class="st1" d="M1906.1,492l20.1-107.1h14.4l20.1,107.1h-13.2l-4-23.7h-19.7l-4,23.7H1906.1z M1925.8,455.5h15.2l-7.6-44.5
				h-0.4L1925.8,455.5z"/>
			<path class="st1" d="M1970.3,385.3h13.6v79.8c0,10,3.2,15.2,10,15.2c2.8,0,5.2-1.2,7.2-4c2-2.8,2.8-6,2.8-10.8v-80.6h13.6v79
				c0,9.2-2.4,16.5-7.2,21.3c-4.8,4.8-10.4,7.2-16.9,7.2c-6.8,0-12.4-2.4-16.9-7.6c-4.4-5.2-6.8-11.6-6.8-20.1v-79.4H1970.3z"/>
			<path class="st1" d="M2035.7,492V385.3h11.6c9.2,0,16,2.8,20.9,8c4.8,5.2,7.2,12.4,7.2,21.3c0,10-3.6,17.7-11.2,22.9
				c5.6,4,10.4,14.8,14.4,32.5l4.8,22.1H2069l-4-18.5c-2.8-12.8-5.6-21.3-7.6-24.5c-2-3.6-4.8-5.2-8-4.8V492H2035.7z M2049.8,431.4
				h0.8c7.6,0,11.6-5.2,11.6-16c0-11.2-4-17.3-12-17.3v33.3H2049.8z"/>
			<path class="st1" d="M2085.9,492l20.1-107.1h14.4l20.1,107.1h-13.2l-4-23.7h-19.7l-4,23.7H2085.9z M2105.1,455.5h15.2l-7.6-44.5
				h-0.4L2105.1,455.5z"/>
			<path class="st1" d="M2150.5,492V385.3h11.2l23.7,65.8h0.4v-65.8h12.4V492H2187l-23.7-66.2h-0.4V492H2150.5z"/>
			<path class="st1" d="M2225.9,492v-93.9h-16.5v-12.8h46.5v12.8h-16.5V492H2225.9z"/>
		</g>
	</g>
</g>
</svg>
