<?xml version="1.0" encoding="utf-8"?>
<!-- Generator: Adobe Illustrator 25.3.1, SVG Export Plug-In . SVG Version: 6.00 Build 0)  -->










<svg version="1.1" id="Layer_1" xmlns="http://www.w3.org/2000/svg" xmlns:xlink="http://www.w3.org/1999/xlink" x="0px" y="0px" viewBox="0 0 700 700" style="enable-background:new 0 0 700 700;" xml:space="preserve">
<style type="text/css">
	.st0{fill:#344E5D;}
	.st1{fill:#FFFFFF;}
	.st2{fill:#ECF0F3;}
	.st3{fill:#28A2DB;}
	.st4{fill:#FCD463;}
	.st5{fill:#DC8743;}
	.st6{fill:#F5C359;}
</style>
<switch>
	
	<g>
		<g>
			<path class="st0" d="M634,623.7c-88,106.5-460.8,96.8-559.8,0c-99-96.8-99-450.7,0-547.5s471.8-106.5,559.8,0
				C722,182.7,722,517.3,634,623.7z"/>
			<g>
				<g>
					<g>
						<polygon class="st1" points="488.8,441 469.6,441 469.6,428.3 476,428.3 476,421.9 488.8,421.9 						"/>
					</g>
					<g>
						<path class="st1" d="M442.3,441h-27.4v-12.8h27.4V441z M387.5,441h-27.4v-12.8h27.4V441z M332.8,441h-27.4v-12.8h27.4V441z
							 M278.1,441h-27.4v-12.8h27.4V441z M223.3,441H196v-12.8h27.4V441z"/>
					</g>
					<g>
						<polygon class="st1" points="168.6,441 149.5,441 149.5,421.9 162.2,421.9 162.2,428.3 168.6,428.3 						"/>
					</g>
					<g>
						<path class="st1" d="M162.2,399.1h-12.8v-22.8h12.8V399.1z M162.2,353.4h-12.8v-22.8h12.8V353.4z M162.2,307.7h-12.8v-22.8
							h12.8V307.7z M162.2,262h-12.8v-22.8h12.8V262z"/>
					</g>
					<g>
						<polygon class="st1" points="162.2,216.4 149.5,216.4 149.5,197.2 168.6,197.2 168.6,210 162.2,210 						"/>
					</g>
					<g>
						<path class="st1" d="M442.3,210h-27.4v-12.8h27.4V210z M387.5,210h-27.4v-12.8h27.4V210z M332.8,210h-27.4v-12.8h27.4V210z
							 M278.1,210h-27.4v-12.8h27.4V210z M223.4,210H196v-12.8h27.4V210z"/>
					</g>
					<g>
						<polygon class="st1" points="488.8,216.4 476,216.4 476,210 469.6,210 469.6,197.2 488.8,197.2 						"/>
					</g>
					<g>
						<path class="st1" d="M488.8,399.1H476v-22.8h12.8V399.1z M488.8,353.4H476v-22.8h12.8V353.4z M488.8,307.7H476v-22.8h12.8
							V307.7z M488.8,262H476v-22.8h12.8V262z"/>
					</g>
				</g>
				<g>
					<g>
						<rect x="224" y="271.7" class="st2" width="326.5" height="231.1"/>
					</g>
					<g>
						
							<rect x="290.9" y="243.1" transform="matrix(-1.836970e-16 1 -1 -1.836970e-16 774.4992 1.805442e-03)" class="st3" width="192.8" height="288.3"/>
					</g>
					<g>
						<g>
							<polygon class="st4" points="243.1,438.4 328.8,352.7 459.7,483.6 243.1,483.6 							"/>
						</g>
						<g>
							<polygon class="st5" points="459.7,483.6 500.3,483.6 384.7,408.6 							"/>
						</g>
						<g>
							<polygon class="st6" points="531.4,363.4 468.3,318.2 384.7,408.6 500.3,483.6 531.4,483.6 							"/>
						</g>
					</g>
					<g>
						<path class="st1" d="M314.7,330.2c0,10.2-8.3,18.6-18.6,18.6c-10.2,0-18.6-8.3-18.6-18.6c0-10.2,8.3-18.6,18.6-18.6
							C306.4,311.6,314.7,319.9,314.7,330.2z"/>
					</g>
				</g>
			</g>
		</g>
	</g>
</switch>

</svg>
