<?xml version="1.0" encoding="utf-8"?>
<!-- Generator: Adobe Illustrator 27.4.1, SVG Export Plug-In . SVG Version: 6.00 Build 0)  -->
<svg version="1.1" id="Layer_1" xmlns="http://www.w3.org/2000/svg" xmlns:xlink="http://www.w3.org/1999/xlink" x="0px" y="0px" viewBox="0 0 397.6 397.6" style="enable-background:new 0 0 397.6 397.6;" xml:space="preserve">
<style type="text/css">
	.st0{fill:#030303;}
	.st1{fill:#FFFFFF;}
</style>
<g>
	<circle class="st0" cx="198.8" cy="198.8" r="198.8"/>
	<path class="st1" d="M341.5,214c-5.6-8.3-14.3-15.2-26-20.6c-8.1-3.7-23-8-44.7-12.9c-21.7-4.9-35.2-9.7-40.3-14.4
		c-5.2-4.7-7.9-10.7-7.9-17.9c0-8.4,3.7-15.5,11.1-21.4c7.4-5.9,19.2-8.9,35.3-8.9c15.5,0,27.3,3.3,35.2,9.8
		c7.9,6.5,12.6,16.2,14,28.9l25.6-1.9c-0.5-11.8-3.8-22.5-9.9-31.8c-6.2-9.4-15-16.5-26.4-21.3c-11.4-4.8-24.6-7.2-39.6-7.2
		c-13.6,0-26,2.3-37.1,6.9c-11,4.5-19.3,11.1-25.1,19.8c-3.5-4.1-7.4-8-11.8-11.3c-13.8-10.3-30.8-15.4-51-15.4
		c-17.8,0-34.1,4.1-49,12.2c-14.8,8.1-26.3,20-34.3,35.7c-8,15.7-12.1,34-12.1,55c0,19.3,3.6,37.3,10.7,54.2
		c7.1,16.8,17.5,29.6,31.1,38.5c13.6,8.9,31.3,13.3,53.1,13.3c21,0,38.8-5.8,53.4-17.3c3.2-2.6,6.2-5.4,8.9-8.6
		c6.5,7.6,14.5,13.6,24.3,17.9c12.4,5.3,27.7,8,45.9,8c14.4,0,27.4-2.6,38.9-7.9c11.5-5.3,20.4-12.7,26.5-22.2
		c6.2-9.5,9.2-19.6,9.2-30.4C349.9,231.9,347.1,222.3,341.5,214z M203.9,175.2c4.7,7.5,11.9,13.8,21.6,18.8c7.4,4,20.4,8.2,39,12.6
		c18.6,4.5,30.5,7.7,36,9.8c8.4,3.2,14.5,7.2,18.2,11.9c3.7,4.7,5.5,10.3,5.5,16.6c0,6.3-1.9,12-5.7,17.3
		c-3.8,5.3-9.6,9.4-17.4,12.5c-7.8,3-16.8,4.5-27,4.5c-11.5,0-21.8-2-31-6c-9.2-4-16-9.2-20.3-15.7c-2.3-3.5-4.2-7.5-5.4-13
		c-0.8-7.4-0.5-10.1-0.8-13l-24-0.1c0,0,0,9.3-1.3,15.4c-1.8,8.9-6.7,15.5-12.8,20.6c-10.4,8.6-23.1,13-38,13
		c-12.3,0-23.7-3.2-34.3-9.5c-10.6-6.3-18.3-15.9-23.4-28.7c-5-12.8-7.5-27.8-7.5-45c0-13.3,2.1-26.3,6.3-38.8
		c4.2-12.5,11.6-22.5,22-30c10.4-7.4,23.4-11.2,38.9-11.2c13.5,0,24.7,3.4,33.6,10.1c8.9,6.7,15.7,17.4,20.4,32.1
		c0,0,2.1,5.8,3.5,8.8C201.3,171.1,203.9,175.2,203.9,175.2z"/>
</g>
</svg>
