<?xml version="1.0" encoding="utf-8"?>
<!-- Generator: Adobe Illustrator 27.4.1, SVG Export Plug-In . SVG Version: 6.00 Build 0)  -->
<svg version="1.1" id="Layer_1" xmlns="http://www.w3.org/2000/svg" xmlns:xlink="http://www.w3.org/1999/xlink" x="0px" y="0px" viewBox="0 0 217.1 450" style="enable-background:new 0 0 217.1 450;" xml:space="preserve">
<style type="text/css">
	.st0{fill:#F4A984;}
	.st1{fill:#594D41;}
	.st2{fill:#42382F;}
	.st3{fill:#7A6F64;}
	.st4{fill:#333333;}
	.st5{fill:#232323;}
	.st6{fill:#D3D3D3;}
	.st7{fill:#E8E8E8;}
	.st8{fill:#D87C60;}
	.st9{fill:#CE2E1C;}
	.st10{fill:#6A371A;}
	.st11{fill:#8E5931;}
	.st12{fill:#FFFFFF;}
	.st13{fill:#B57E59;}
	.st14{fill:#9E6C47;}
	.st15{fill:#C59061;}
	.st16{fill:#BFBDBB;}
	.st17{fill:#F4F4F4;}
</style>
<g>
	<path class="st0" d="M42.6,156.4l-2.7-6.8c0,0-5.4-4.1-7.2-4.6c-1.7-0.5-9.4-4.1-10.4-4.8c0,0-3.4,2.3,3.7,7.6c0,0,1.6,2.3-3.6,1.8
		c-5.2-0.5-7.7,0.5-13.5-1.6S1,147.2,0,148.8l5.3,3c0,0,3.8,8.3,8.3,10.2s5.6,2.3,5.6,2.3s11.3,1.3,17.5-1.6L42.6,156.4z"/>
	<g>
		<g>
			<path class="st1" d="M164.6,445.3h30.2c0,0,1.6-8.2-4.7-18.8l-20.3,0.4C169.7,426.8,164.1,435.4,164.6,445.3z"/>
			<rect x="165" y="445.3" class="st2" width="29.8" height="4.7"/>
			<path class="st3" d="M190.9,436.4c0,2.1-5.1,3.7-11.4,3.7s-11.4-1.7-11.4-3.7c0-2.1,5.1-3.7,11.4-3.7
				C185.8,432.7,190.9,434.4,190.9,436.4z"/>
		</g>
	</g>
	<g>
		<g>
			<path class="st1" d="M147.5,424.1c0,0,2.3,12.3,0.6,20.7H91.6c0,0-2.2-12.5,22.5-12.5l15.8-10.7L147.5,424.1z"/>
			<polygon class="st2" points="148.2,449.5 91.7,449.2 91.7,444.8 148.2,444.8 			"/>
			<path class="st3" d="M112.5,432.3c0,0-0.6,8.6-20.2,8.2C92.3,440.5,95.1,432.3,112.5,432.3z"/>
		</g>
	</g>
	<path class="st4" d="M109.7,216.4c0,0,0.7,76,11.7,209.4c0,0,11.9,8.3,26.9,1.9c0,0-2.4-107.8-2.1-169.8c0,0,11.5,78.9,20.2,168.9
		c0,0,16.2,7.5,26.9-1.5c0,0-8.6-116.5-9.6-205.2C183.6,220,138.6,226,109.7,216.4z"/>
	<path class="st5" d="M185.1,276.9c-0.7-19.3-1.2-38.7-1.4-56.9c0,0-45,5.9-74-3.6c0,0,0,2.5,0.1,7.4c5.7,3.4,18,10.1,24.8,12.5
		v32.3c0,0,4,2.1,11.5,4.2c0-5.2,0-10.2,0-14.9c0,0,0.8,5.6,2.2,15.5C156.9,275.5,169.3,277.5,185.1,276.9z"/>
	<path class="st6" d="M111,100.4c0,0-2.5-2.8-29.7,53.9L43,146.4c0,0-10,8.7-4.9,19.6c0,0,51.5,23.2,62.3,8.5
		c10.8-14.7,21.9-38.9,21.9-38.9S126,104.3,111,100.4z"/>
	<path class="st7" d="M111,100.4c0,0-1.5,20.1-1.3,116c0,0,23.1,16.2,74,3.6c0,0,0.1-28.8,7-54.4c0,0,12.5-48.1,6.2-62.2
		C196.8,103.4,161.6,79.6,111,100.4z"/>
	<g>
		<path class="st0" d="M144.8,90.8l-0.1,3.9c0,0,3.5,4.1,11,3.8c7.5-0.3,10.7-4.7,10.7-4.7l-0.2-9.9C157.3,88.6,148.5,91,144.8,90.8
			z"/>
		<path class="st8" d="M166.1,83.9l-0.5-13.1l-21.7,0.8l0.9,19.2C148.5,91,157.3,88.6,166.1,83.9z"/>
	</g>
	<path class="st4" d="M137.7,92.9c0,0,0,41.8,4.2,61.4c0,0,23.1-50.2,30.4-60.3c0,0,8.7,0.5,18.8,6.3c0,0-8.7,27.5,1.8,55.8
		c0,0-6.3,50.9-6.7,55.4c0,0-39.7,7.4-45.5-13.9c0,0-6.1,15.7-32.4,9.7l-0.1-49c0,0,11.7-33.3,10.3-60.7
		C118.5,97.6,127.4,93.1,137.7,92.9z"/>
	<path class="st6" d="M144.7,88.7c0,0,0.2,6.6,7.2,9.7c0,0,12.4-4,14.3-11.4l6.1,7c0,0-4.6,10.5-14.7,14.2l-5.8-7.9l-7.1,6.4
		c0,0-7.8-7.6-7.1-13.7L144.7,88.7z"/>
	<path class="st9" d="M148,106.7c0,0-4,2.8-8.4,3.2c0,0-4.1-7.1,0.9-12.8c0,0,4.5,0.8,8.2,3.9c0,0,3.2-1.8,6.3,0.7
		c0,0,4.5-2.8,9.9-2.8c0,0,3.1,5.1-2.4,12.8c0,0-4.1,0.9-8.3-3.8C154.1,107.8,150,108.3,148,106.7z"/>
	<g>
		<path class="st10" d="M170.9,24.9c0,0-19.8,9.6-24.5,9.1c-4.8-0.5-20.1-7.7-20.1-7.7C124.4,35.5,129,43,129,43l43.4,8l9.7,1.8
			c1.9-7.8,2.6-13.7,2.6-18.3C175.7,32.6,170.9,24.9,170.9,24.9z"/>
		<path class="st11" d="M177.6,19.7C173.6,4.1,147,3.2,147,3.2c-14-8.4-8.7,2.4-8.7,2.4c-23.5-8.2-12.2,12.8-12.2,12.8
			c-8.7-0.3,0.2,7.9,0.2,7.9s15.3,7.2,20.1,7.7c4.8,0.5,24.5-9.1,24.5-9.1s4.8,7.7,13.7,9.7C184.5,20.7,177.6,19.7,177.6,19.7z"/>
		<path class="st0" d="M178.3,44.3l-3.8,5.8c-0.7-1.6-1.3-3.3-1.7-5c-2.7-9.8-1.9-20.1-1.9-20.1c-22.5,8.9-41.9,2.7-41.9,2.7
			c1.1,11.2-3.4,36.4,5.3,49c2.6,3.8,6.3,6.4,11.8,7.2c23.6,3.6,30.1-21.6,30.1-21.6s7.9-0.6,9.3-11.5
			C186.6,41.7,178.3,44.3,178.3,44.3z"/>
		<path class="st10" d="M141.4,52.1c-0.1,2.4-1.4,4.3-2.9,4.3c-1.5-0.1-2.7-2.1-2.6-4.5s1.4-4.3,2.9-4.3
			C140.4,47.6,141.5,49.7,141.4,52.1z"/>
		<path class="st10" d="M162.3,52.1c-0.1,2.4-1.4,4.3-2.9,4.3c-1.5-0.1-2.7-2.1-2.6-4.5s1.4-4.3,2.9-4.3
			C161.2,47.6,162.4,49.6,162.3,52.1z"/>
		<g>
			<path class="st8" d="M148.2,64.1c-4.7,1.5-7-0.8-7-3c0-1.4,0.9-2.6,2.3-3c2.9-0.9,5.1-5,5.2-5l0,0c-0.1,1-1.3,4.6-5,6.4
				c-0.8,0.4-1.3,0.8-1.3,1.5C142.3,62.2,143.9,64.1,148.2,64.1L148.2,64.1z"/>
		</g>
		<g>
			<path class="st11" d="M132.9,42l-0.2-1.4c0.3,0,5-1.3,10.5-0.9l0.1,2.2C138.7,41.2,133,42,132.9,42z"/>
		</g>
		<g>
			<path class="st11" d="M166.4,42.5c-3.7-1.4-10.6-1.6-10.6-1.6l0.4-2c0.3,0.1,6.5,0.2,10.6,2.4L166.4,42.5z"/>
		</g>
		<g>
			<path class="st12" d="M143,69.1l1.1,4.8c0,0,9.5,3.2,12.2-4.8C156.3,69.1,148.2,70.8,143,69.1z"/>
		</g>
		<path class="st13" d="M127.9,3.8c0,0,9.9,9.6,32.9,9.5c0,0-15,10.6-35.5,3.7C125.4,17,120.1,4.6,127.9,3.8z"/>
	</g>
	<g>
		<polygon class="st14" points="155.6,200.7 156.7,198.6 142,159.5 117.7,164.8 116.8,166.6 		"/>
		<polygon class="st15" points="155.6,200.9 140.6,161.5 116.8,166.8 131.6,207.2 		"/>
	</g>
	<g>
		<path class="st0" d="M155.6,190.5l-7.9-6.9c0,0-3.4-1.7-7.8-3.3c-3.9-1.5-8.2-1.4-12.5-3.4c0,0-3.7,1.5,4.6,6.4
			c0,0-11.7-0.3-11.7,2.4c0,0-0.1,1.5,1.4,2.8c0,0-2.5,2.1,1.3,4.3c0,0-1.6,2.7,3.1,3.7c0,0-0.5,2.8,3.4,3.4l5.2,0.7
			c0,0,8-0.5,14.2-2.5L155.6,190.5z"/>
	</g>
	<path class="st7" d="M217.1,193.7c0.5-82-20.3-90.3-20.3-90.3c-10.5,7.3-6.1,45.9-6.1,45.9l2.2,20.6l0.9,5.8l-43.5,4.4
		c-9.9,10.9,0,19.7,0,19.7C207.2,208.6,217.1,193.7,217.1,193.7z"/>
	<path class="st16" d="M190.8,176.1c0,0,7.8,17.1,8.3,25.3c0,0-8.4,1.4-11.6,1.1L190.8,176.1z"/>
	<path class="st17" d="M190.6,174.3c0,0,4.7,40.8,2.3,80.7l-48.2,1.4c0,0,0.4-73.1-3.1-75.4C141.7,180.9,137.2,175.4,190.6,174.3z"/>
</g>
</svg>
