<?xml version="1.0" encoding="utf-8"?>
<!-- Generator: Adobe Illustrator 27.4.1, SVG Export Plug-In . SVG Version: 6.00 Build 0)  -->
<svg version="1.1" id="Layer_1" xmlns="http://www.w3.org/2000/svg" xmlns:xlink="http://www.w3.org/1999/xlink" x="0px" y="0px" viewBox="0 0 165.5 450.2" style="enable-background:new 0 0 165.5 450.2;" xml:space="preserve">
<style type="text/css">
	.st0{fill:#D3D3D3;}
	.st1{fill:#212020;}
	.st2{fill:#7D7D7D;}
	.st3{fill:#383635;}
	.st4{opacity:0.15;enable-background:new    ;}
	.st5{opacity:0.15;}
	.st6{fill:#E5E5E5;}
	.st7{fill:#B7B6B6;}
	.st8{fill:#EE8C72;}
	.st9{fill:#DD725E;}
	.st10{opacity:0.14;}
	.st11{fill:#999999;}
	.st12{fill:#707070;}
	.st13{fill:#CE2E1C;}
	.st14{fill:#474747;}
	.st15{fill:#F7A184;}
	.st16{fill:#757575;}
	.st17{fill:#3D1A01;}
	.st18{fill:#D24646;}
	.st19{fill:#FFFFFF;}
	.st20{fill:#F4F4F4;}
	.st21{fill:#444445;}
	.st22{fill:#FAA284;}
</style>
<g>
	<g>
		<path class="st0" d="M40.1,173c1.7-2.1,3.8-5.4,6.4-10.7l1.1-2.2c9-18.1,18.5-37.1,19.9-44.7c0-0.1,0-0.2,0.1-0.3
			c0-0.2,0.1-0.4,0.1-0.5c0.5-3.4-0.6-6.9-3-9.5c-1.3-1.4-2.9-2.5-4.8-3.1c-4.9-1.7-10.2,0-13.2,3.9c-0.2,0.1-0.3,0.2-0.5,0.3
			c-10.4,22.6-29.3,57.6-20.6,67.1l0,0c0.1,0.1,0.2,0.2,0.3,0.3l0.3,0.3c0.3,0.4,0.7,0.7,1,0.9c0.4,0.4,0.9,0.7,1.4,0.9
			c0.1,0,0.2,0,0.3,0.1c0.1,0,0.7,0.2,1.6,0.4c0.1,0,0.3,0,0.4,0.1c0.1,0,0.2,0,0.3,0c0.3,0,0.5,0.1,0.8,0.1c0.1,0,0.2,0,0.3,0
			s0.2,0,0.3,0c0.9,0.1,1.9,0,2.9-0.2c0.8-0.2,1.6-0.5,2.4-1.1C38.7,174.7,39.5,174,40.1,173z"/>
	</g>
	<g>
		<path class="st1" d="M112.2,450.2c0,0,0.8-11.3,2.5-16.9c0,0,5.4,0.3,6.9-1.6s10.6-10.2,14.7,0l3,5.6c0,0,14.2-4.3,9.6,12.9H112.2
			z"/>
		<path class="st2" d="M149,450.2h-36.8c0,0,0.1-2.3,0.4-4.6h37.2C149.7,446.8,149.4,448.3,149,450.2z"/>
	</g>
	<g>
		<g>
			<g>
				<path class="st1" d="M63.4,428.4c0,0-7.3,6.5-20,10.8c0,0-22.7-7.2-16.7,10.8h59.1c0,0,2-12.9-1.9-21.5c0,0-1.5-0.7-3.6,1.3
					s-9.1,3.1-12.7,2C67.7,431.9,65.8,427.7,63.4,428.4z"/>
				<path class="st2" d="M86.3,445.8c-0.1,2.7-0.4,4.2-0.4,4.2H26.8c-0.6-1.7-0.9-3.2-1-4.2H86.3z"/>
			</g>
		</g>
	</g>
	<g>
		<g>
			<path class="st3" d="M97,231.5c0-0.3,0.1-0.7,0.1-1c0.7-10.3-7.1-19.2-17.3-19.8c-10.2-0.7-19.1,7-19.8,17.2h-0.1l0.8,104.7v0.1
				c-0.5,8.5,6,15.9,14.5,16.4c8.6,0.5,15.9-6,16.4-14.5c0-0.5,0-0.9,0-1.4L97,231.5z"/>
		</g>
		<g>
			<path class="st3" d="M60.3,428.3c0-0.2-0.1-0.3-0.1-0.5c0-0.1,0-0.2,0.1-0.3l0.4-92.5c-0.1-0.8-0.1-1.6-0.1-2.4
				c0.5-8.5,7.9-15.1,16.4-14.5c8.5,0.5,15.1,7.9,14.5,16.4l0,0l0,0L88,428.8h-0.2c0,0.1,0,0.2,0,0.2c-0.1,2.5-6.4,4.2-14,3.9
				c-6.8-0.3-12.3-2.1-13.4-4.2h-0.2L60.3,428.3z"/>
		</g>
		<path class="st4" d="M75.2,349.1c-7.7-0.5-13.7-6.5-14.5-13.9l-0.4,92.3c0,0.1-0.1,0.2-0.1,0.3c0,0.2,0,0.3,0.1,0.5v0.4h0.2
			c1.1,2.1,6.7,3.9,13.4,4.2c7.6,0.3,13.9-1.4,14-3.9c0-0.1,0-0.2,0-0.2h0.2l3.5-94.3l0,0C91.1,343.1,83.8,349.6,75.2,349.1z"/>
	</g>
	<g>
		<g>
			<path class="st3" d="M137.3,233c0-0.3,0.1-0.7,0.1-1c0.2-10.3-7.9-18.8-18.2-19.1c-10.3-0.2-18.8,7.8-19.1,18.1H100l5.3,104.5
				v0.1c-0.1,8.6,6.7,15.6,15.2,15.8c8.6,0.1,15.6-6.7,15.8-15.2c0-0.5,0-0.9,0-1.4L137.3,233z"/>
		</g>
		<g>
			<path class="st3" d="M105.3,335.6c0.1-8.6,7.2-15.4,15.8-15.2c8.6,0.1,15.4,7.2,15.2,15.8l0,0l0,0l0.3,93.1h-0.2
				c0,0.1,0,0.2,0,0.2c0,2.5-6.2,4.5-13.8,4.5c-6.8,0-12.4-1.6-13.6-3.6h-0.2V430c-0.1-0.2-0.1-0.3-0.1-0.5c0-0.1,0-0.2,0-0.3
				l-3.3-91.2C105.4,337.2,105.3,336.4,105.3,335.6z"/>
		</g>
		<path class="st4" d="M120.6,351.4c-7.7-0.1-14-5.9-15.1-13.3l3.3,91c0,0.1,0,0.2,0,0.3c0,0.2,0,0.3,0.1,0.5v0.4h0.2
			c1.2,2.1,6.8,3.6,13.6,3.6c7.6,0,13.8-2,13.8-4.5c0-0.1,0-0.2,0-0.2h0.2l-0.3-93.1l0,0C136.2,344.7,129.1,351.5,120.6,351.4z"/>
	</g>
	<path class="st3" d="M60.2,217.1c0,0-7.1,37.3,32.4,34.3h11.3c13.2,0,22.8-1.2,27.3-6.8c9.2-8.7,5.2-27.8,5.2-27.8
		c-0.7-2.9-0.2-4.3,0-6L60.6,211C60.8,212.8,60.8,213.9,60.2,217.1z"/>
	<g class="st5">
		<path d="M137.2,223.8v-0.1l0,0l0,0c-0.2-4-0.8-6.8-0.8-6.8c-0.7-2.9-0.2-4.3,0-6l-75.8,0.2c0.2,1.7,0.2,2.8-0.3,6.1
			c0,0-1.3,6.9,0.3,14.5c10.7,1,21,0.9,30.5,0.3v17.5l46-1.2L137.2,223.8L137.2,223.8z"/>
	</g>
	<g>
		<path class="st6" d="M146.7,177.7c-1.2-2.4-2.4-6.1-3.7-11.9l-0.6-2.4c-4.5-19.7-9.3-40.4-8.9-48.1c0-0.1,0-0.2,0-0.3
			c0-0.2,0-0.4,0.1-0.5c0.4-3.4,2.2-6.6,5.1-8.6c1.6-1.1,3.4-1.7,5.4-1.9c5.2-0.5,9.9,2.4,11.9,6.9c0.1,0.2,0.3,0.3,0.4,0.5
			c4.9,24.4,15.1,62.8,4.4,70l0,0c-0.1,0.1-0.2,0.2-0.3,0.2l-0.3,0.2c-0.4,0.3-0.8,0.5-1.2,0.7c-0.5,0.2-1,0.5-1.6,0.6
			c-0.1,0-0.2,0-0.3,0c-0.1,0-0.7,0.1-1.7,0c-0.1,0-0.3,0-0.4,0s-0.2,0-0.3,0c-0.3,0-0.5-0.1-0.8-0.1c-0.1,0-0.2,0-0.3,0
			c-0.1,0-0.2,0-0.3-0.1c-0.9-0.2-1.9-0.4-2.8-0.9c-0.7-0.4-1.4-0.8-2-1.6C147.7,179.6,147.1,178.7,146.7,177.7z"/>
	</g>
	<polygon class="st7" points="106.3,86 83.4,86 83.1,88.6 92.2,100.5 96.5,100 106,89.6 	"/>
	<g>
		<path class="st6" d="M137.6,155.8c0.7-10.1,7-24.2,11.4-35.1c4.1-1,7.1-4.7,7.1-9.1c0-5.2-7-8.7-11.9-10.3
			c-1.5-0.5-2.7-0.8-3.8-1.1c-12.5-6.3-32-6.3-32-6.3l-25.8,0.7c0,0-13.8,0.6-29.7,8.1c0,0,0.5,13,0.7,24.5
			c0.1,6.9,5.9,46.5,5.7,56.2c0.7,6.9-0.1,24.5-0.9,35.3c0,0.1,0.1,0.3,0.2,0.4c0.8,2,18.3,3.7,39.8,3.7c21.3,0,38.6-1.6,39.8-3.6
			c0,0,0,0,0.1,0c0-0.1,0-0.1,0-0.2l0,0c0.1-6.8-2.2-24.4-2-30.9C136.8,177.3,136.9,166.5,137.6,155.8z"/>
	</g>
	<g>
		<g>
			<path class="st8" d="M95.1,106.7c9.1-0.2,17.1-6.2,17.5-12.5c-8.3-0.8-15.6,0-15.6,0h-1.9c0,0-7.4-0.4-16.8,1.1
				C79.2,101.3,86.2,106.9,95.1,106.7z"/>
			<rect x="85.9" y="79.6" class="st8" width="17.6" height="18"/>
			<path class="st9" d="M85.9,82.1v5.1c3.6,1.1,11,3,17.6,3.2v-8.2L85.9,82.1L85.9,82.1z"/>
		</g>
	</g>
	<path class="st6" d="M92.3,153.7c9.8-12.2,21.3-51.4,23.3-59.4c-0.6-0.1-6.9-0.6-6.9-0.6l-16.1,5.6l-9.8-4.7c0,0-6.1,0.6-8.9,1.2
		C77.7,115.9,92.3,153.7,92.3,153.7z"/>
	<g class="st10">
		<path d="M112.1,94c-1.7-0.1-3.4-0.3-3.4-0.3l-16.1,5.6l-9.8-4.7c0,0-2.9,0.3-5.5,0.6l2.8,4.4c-2.5,5.6,1.3,11.2,1.3,11.2
			c4.3-0.7,8-3.5,8.4-3.9h0.1c2.2,1.4,6.3,0.6,6.3,0.6c4.6,4.5,8.8,3.3,8.8,3.3c2.5-4,2.9-7.3,2.7-9.5L112.1,94z"/>
	</g>
	<path class="st11" d="M92.1,209.4l0.5-58.3c-0.1,0.1-0.2,0.3-0.3,0.4c0,0-14.6-35.6-18.5-55.6c-5.4,1.1-13.1,2.1-21.1,5.8
		c0,0,0.7,14,0.8,25.5c0.1,6.9,5.9,46.5,5.7,56.2c0.6,5.7-0.8,24.3-1.4,34.8l19.9,2L92.1,209.4z"/>
	<path class="st11" d="M136.4,188c0.2-6.9,0.4-13.8,0.7-20.7c-8.1-24.4,3.8-57.4,7.4-66.6c-0.4-0.1-14.9-6.1-28.9-6.4
		c-1.9,8-13.5,45-23.3,57.2c0,0-0.1-0.1-0.2-0.4v58.3l12.8,11.9c0,0,23.9-0.4,34.5-3.8C138.8,209.5,136.2,192.7,136.4,188z"/>
	<polygon class="st6" points="111.2,93.9 106.3,86 92.6,98.9 102,107.4 	"/>
	<polygon class="st6" points="92.6,98.9 85.6,106.6 78.3,95 83.4,86.1 	"/>
	<circle class="st12" cx="99.5" cy="177.5" r="3.7"/>
	<circle class="st12" cx="99.5" cy="203.1" r="3.7"/>
	<polygon class="st12" points="92.9,150.7 92.3,151.5 91.7,149.9 91.7,209.8 92.1,209.4 92.9,210.2 	"/>
	<path class="st13" d="M90,105.4c0,0-3.6,3-8,3.7c0,0-4.5-6.6-0.1-12.5c0,0,4.4,0.5,8.3,3.2c0,0,3-1.9,6.2,0.2c0,0,4.1-3.1,9.5-3.5
		c0,0,3.4,4.8-1.5,12.6c0,0-4,1.1-8.4-3.1C96.1,106,92.1,106.8,90,105.4z"/>
	<g>
		<g>
			<path class="st14" d="M70.7,47.6c0,0-2.8-11.9-0.8-21.1l8.6-7.2L70.7,47.6z"/>
			<g>
				<path class="st8" d="M74.6,44.5c0,0-8.5-3-8.5,5.5s8.5,5.9,8.5,5.9V44.5z"/>
				<path class="st15" d="M116.4,44.5c0,0,8.5-3,8.5,5.5s-8.5,5.9-8.5,5.9V44.5z"/>
				<path class="st15" d="M117.2,59.4c0,13.8-10.4,25.1-23.3,25.1l0,0c-12.9,0-23.3-11.2-23.3-25.1V37.1C70.6,23.2,81,12,93.9,12
					l0,0c12.9,0,23.3,11.2,23.3,25.1V59.4z"/>
				<path class="st8" d="M81.8,24.7c0,0,4.8,1,6.1,2c0.1,0.1,3.5-1.5,3.8-1.7c1.5-0.5,3-0.8,4.6-0.8c2.2,0.1,4.4,0.7,6.6,1.1
					c4.9,0.8,9.9,2,13.5,5.7c-2.5-11-11.7-19.1-22.6-19.1c-10.2,0-18.9,7.1-22,16.9C74.3,26.5,78.1,23.6,81.8,24.7z"/>
				<path class="st8" d="M114.3,25c1.4,3.2,2.2,6.8,2.2,10.5v22.2c0,13.8-10.4,25.1-23.3,25.1c-8.8,0-16.4-5.2-20.4-12.9
					c3.7,8.6,11.7,14.5,21.1,14.5c12.9,0,23.3-11.2,23.3-25.1V37.1C117.2,32.7,116.1,28.6,114.3,25z"/>
			</g>
			<path class="st14" d="M115.1,54.2c0,0,2.5-2.8,3.6-7.4c1-4.6,6.9-10.9,6.1-17c0,0,2.8-5.6-4.1-10.7c-5.5-4.1-5.1-8.6-8.4-11.7
				C109,4.4,96.8-2,84.9,3.6c0,0-5.1,2.8-6.6,5.8c0,0,2.3-7.6,7.9-9.4c0,0-19.8,1.5-16.2,27.9l-0.1,6.2c0,0,2.2-18.1,18.9-11.8
				c0,0,15-4.8,23.6,4.6c0,0,1.3,2.8,0.8,9.6l1.3-2C114.3,34.7,114.6,43.1,115.1,54.2z"/>
			<path class="st14" d="M114.7,10.8c0,0,5.9,6.1,9.2,6.9c3.3,0.8,7.4,9.7,4.9,15.8S116,52.2,116,54l-0.5,1.3L114.7,10.8z"/>
			<path class="st16" d="M71.3,23c0.2,0,0.3-0.2,0.3-0.4l0,0c0,0-0.1-0.7-0.1-1.9l0,0c0-2.5,0.6-7.3,4.2-12.4l0,0
				c0.1-0.2,0.1-0.4-0.1-0.5l0,0c-0.2-0.1-0.4-0.1-0.5,0.1l0,0c-3.7,5.3-4.3,10.2-4.3,12.8l0,0c0,1.3,0.1,2,0.1,2l0,0
				C70.9,22.8,71.1,23,71.3,23L71.3,23L71.3,23L71.3,23z"/>
			<path class="st16" d="M77.1,9.3c0,0,0.3-0.9,0.8-2l0,0C78.4,6.2,79,5,79.6,4.4l0,0c0.1-0.1,0.1-0.4,0-0.5l0,0
				c-0.1-0.1-0.4-0.1-0.5,0l0,0c-1.5,1.5-2.6,5.2-2.6,5.3l0,0l0,0c-0.1,0.2,0,0.4,0.2,0.5l0,0h0.1l0,0C76.9,9.6,77,9.5,77.1,9.3
				L77.1,9.3z"/>
			<path class="st16" d="M80.6,9.9c0,0,0.2-0.4,0.8-1l0,0c0.5-0.6,1.3-1.4,2.4-2.2l0,0c2.2-1.6,5.6-3.1,10.5-3.1l0,0
				c1.7,0,3.6,0.2,5.6,0.6l0,0c0.2,0,0.4-0.1,0.4-0.3l0,0c0-0.2-0.1-0.4-0.3-0.4l0,0c-2.1-0.5-4-0.7-5.8-0.7l0,0
				c-10.1,0-14.3,6.6-14.4,6.6l0,0c-0.1,0.2-0.1,0.4,0.1,0.5l0,0C80,9.9,80,10,80.1,10l0,0C80.4,10.1,80.5,10.1,80.6,9.9L80.6,9.9z"/>
			<path class="st16" d="M127.6,33.3c0.6-1.8,0.8-3.4,0.8-4.8l0,0c0-6.8-5.6-8.4-5.6-8.4l0,0l0,0c-0.2-0.1-0.4,0.1-0.5,0.3l0,0
				c-0.1,0.2,0.1,0.4,0.3,0.5l0,0c0,0,0.3,0.1,0.8,0.3l0,0c0.5,0.2,1.1,0.6,1.8,1.2l0,0c1.3,1.1,2.6,3,2.6,6.2l0,0
				c0,1.3-0.2,2.8-0.8,4.6l0,0c-0.1,0.2,0.1,0.4,0.2,0.5l0,0h0.1l0,0C127.4,33.6,127.6,33.5,127.6,33.3L127.6,33.3z"/>
			<path class="st16" d="M123.2,39.9c2.6-4.1,3.1-7.8,3.1-9.8l0,0c0-1.1-0.1-1.7-0.1-1.7l0,0c0-0.2-0.2-0.3-0.4-0.3l0,0
				c-0.2,0-0.3,0.2-0.3,0.4l0,0c0,0,0.1,0.6,0.1,1.6l0,0c0,1.9-0.4,5.4-3,9.4l0,0c-0.1,0.2-0.1,0.4,0.1,0.5l0,0
				c0.1,0,0.1,0.1,0.2,0.1l0,0C123,40.1,123.1,40,123.2,39.9L123.2,39.9z"/>
			<path class="st16" d="M89,20.8c0,0,0.9-0.6,2.4-1.2l0,0c1.5-0.6,3.7-1.2,6.1-1.2l0,0c1.8,0,3.8,0.3,5.8,1.3l0,0
				c0.2,0.1,0.4,0,0.5-0.2l0,0c0.1-0.2,0-0.4-0.2-0.5l0,0c-2.1-1-4.2-1.4-6.1-1.4l0,0c-5.1,0-8.9,2.6-8.9,2.6l0,0l0,0
				c-0.2,0.1-0.2,0.3-0.1,0.5l0,0c0.1,0.1,0.2,0.2,0.3,0.2l0,0C88.9,20.8,88.9,20.8,89,20.8L89,20.8z"/>
			<path class="st16" d="M75.8,21c1.4-1.8,3.3-2.4,5.2-2.4l0,0c1.4,0,2.8,0.3,3.9,0.7l0,0c1,0.3,1.7,0.7,1.7,0.7l0,0l0,0
				c0.2,0.1,0.4,0,0.5-0.2l0,0c0.1-0.2,0-0.4-0.2-0.5l0,0c0,0-2.8-1.4-5.9-1.4l0,0c-2,0-4.3,0.6-5.8,2.7l0,0
				c-0.1,0.2-0.1,0.4,0.1,0.5l0,0c0.1,0.1,0.1,0.1,0.2,0.1l0,0C75.6,21.2,75.7,21.1,75.8,21L75.8,21z"/>
		</g>
		<g>
			<path class="st17" d="M80.7,51.2c0,1.8-0.7,3.2-1.6,3.2s-1.6-1.4-1.6-3.2c0-1.8,0.7-3.2,1.6-3.2S80.7,49.4,80.7,51.2z"/>
			<path class="st17" d="M102.5,51.2c0,1.8-0.7,3.2-1.6,3.2s-1.6-1.4-1.6-3.2c0-1.8,0.7-3.2,1.6-3.2C101.8,48,102.5,49.4,102.5,51.2
				z"/>
			<g>
				<path class="st18" d="M84,64.4h15.1c0,0,1.5,0,0.4,2.3c-0.7,1.5-2.5,4.5-7.7,4.6c-6.2,0.2-8.3-4.8-8.3-4.8S82.5,64.4,84,64.4z"/>
				<path class="st19" d="M99.8,66c0.5-1.7-0.7-1.6-0.7-1.6H84c-1.1,0-0.9,1.2-0.6,1.8C86.3,66.9,92.2,67.9,99.8,66z"/>
			</g>
			<path class="st8" d="M88.9,54.9c0,0-3.6-0.1-3.6,3s5.6,2.3,5.8,0C91.3,55.5,91.6,38.5,88.9,54.9z"/>
			<g>
				<path class="st14" d="M103.6,44.5c-1-0.3-2-0.5-3.1-0.5l0,0c-1,0-2.1,0.2-3.1,0.5l0,0c-0.4,0.1-0.8-0.1-0.9-0.5l0,0
					c-0.1-0.4,0.1-0.8,0.5-0.9l0,0c1.1-0.4,2.3-0.6,3.5-0.6l0,0c1.2,0,2.4,0.2,3.5,0.6l0,0c0.4,0.1,0.6,0.5,0.5,0.9l0,0
					c-0.1,0.3-0.4,0.5-0.7,0.5l0,0C103.8,44.6,103.7,44.6,103.6,44.5L103.6,44.5z"/>
			</g>
			<g>
				<path class="st14" d="M73.4,44.1c-0.1-0.4,0.1-0.8,0.5-0.9l0,0c1.1-0.4,2.3-0.6,3.5-0.6l0,0c1.2,0,2.4,0.2,3.5,0.6l0,0
					c0.4,0.1,0.6,0.5,0.5,0.9l0,0c-0.1,0.4-0.5,0.6-0.9,0.5l0,0c-1-0.3-2-0.5-3.1-0.5l0,0c-1,0-2.1,0.2-3.1,0.5l0,0
					c-0.1,0-0.1,0-0.2,0l0,0C73.8,44.6,73.5,44.4,73.4,44.1L73.4,44.1z"/>
			</g>
			<path class="st8" d="M113.3,58.5c0,1.1-2.4,2-5.4,2s-5.4-0.9-5.4-2s2.4-2,5.4-2C110.8,56.6,113.3,57.5,113.3,58.5z"/>
			<path class="st8" d="M80.4,58.5c0,0.6-1.4,1.1-3.1,1.1s-3.1-0.5-3.1-1.1s1.4-1.1,3.1-1.1C79,57.4,80.4,57.9,80.4,58.5z"/>
		</g>
	</g>
	<g>
		<g>
			<path class="st15" d="M101,179.3c0.9-4.8-3.7-6.9-3.7-6.9s-5.4-6-8.3-6.5c-3.6-0.7-8.3-3.9-8.3-3.9s-3.1,3.4,2.8,6.3
				c0,0-7.4-0.8-8,1.4c0,0-0.4,1.2,0.2,2.6c0,0-2.5,1.7-0.6,4.3c0,0-1.7,2.4,0.2,3.9c0,0-1.5,1.4,0.6,3s2.3,1.8,6.9,3.4
				c0,0,9.7,1.5,13.8-1.8C96.5,185.1,100.1,184.1,101,179.3z"/>
		</g>
		<g>
			<path class="st6" d="M157,165.4c2.7,0.6,5,2.3,6.3,4.8c0.3,0.6,0.5,1,0.5,1.1v0.2c0.1,0.4,0.3,0.9,0.4,1.3c0,0.3,0.1,0.9,0.1,1.8
				c0,0.1,0,0.1,0,0.2c0,1.9-0.7,3.4-1.5,4.6c-0.7,1.1-1.7,2-2.8,2.7c-0.3,0.2-0.6,0.4-0.7,0.5c-0.2,0.1-0.3,0.1-0.5,0.2
				c-0.7,0.3-1.5,0.5-2.3,0.7c-17.9,4.3-52.3,4-59.3,1.9c-0.5-3-0.4-13.5-0.4-15c6-2.1,18.8-4.7,42.5-5.3c4.7-0.1,8.3-0.2,11.3-0.4
				C153.2,164.6,155.3,164.9,157,165.4z"/>
		</g>
		<path class="st19" d="M97.2,185.3c-0.5-3-0.4-13.5-0.4-15c1.2-0.4,2.7-0.9,4.5-1.3l0.4,17.1C99.7,185.9,98.2,185.6,97.2,185.3z"/>
	</g>
	<path class="st4" d="M139,186c3.5-0.3,7-0.7,10.2-1.2c-2-8.4-7.4-19.8-7.4-19.8L139,186z"/>
	<path class="st20" d="M141.8,164.8c0,0,4.4,37.5,2,76.5l-47,1.4c0,0,0.4-71.3-3-73.6C93.7,169,89.6,165.9,141.8,164.8z"/>
	<g>
		<polygon class="st1" points="0,142.8 1.4,140.7 56.2,140.1 76.1,209.2 74.4,211.1 53.5,144.3 		"/>
		<polygon class="st21" points="0,142.8 55,142.8 74.4,211.3 19.6,211.3 		"/>
		<path class="st22" d="M26.5,182.7h-0.4c0,0-12.9-0.3-14.2-0.4l3.6-1.1c0,0,9.4,1.3,9.4-0.7v-0.3c0-1-0.6-1.9-1.6-2h0.3
			c0,0-6.7-1.4-8.2-1.3c-1.5,0.1-7.2,1.3-7.2,1.3c-1,0-2.2,0.9-2.2,2.1v0.3c0,0.5,0.6,1,0.9,1.4h0.2c0.2,0.3,0.1,0.9,0.1,0.9H6.6
			c-0.6,0.3-1.7,0.8-1.7,1.5v0.3c0,0.8,1.3,1.6,2.1,2.1h0.3c0.8,0.6,0.5,1,0.5,1h0.1c-0.2,0.2-0.3,0.4-0.4,0.6
			c-0.3,0.8,0,1.8,0.6,2.3c0.3,0.3,0.7,0.4,1.1,0.5c0.9,0.4,0.9,1,0.9,1.4c-0.1,0.1-0.1,0.3-0.1,0.4c0,0.6,0.2,1.1,0.7,1.5
			c0.6,0.5,1.5,0.7,2.3,0.8c0.6,0,1.2,0,1.7,0c2.1,0,4.3,0,6.4,0c0.5,0,0.4,0,0.9,0c0.8,0,1.2-1.1,1.2-2V193c0-1,0.2-1.5-0.6-1.5
			h1.5c1,0,1.1-1.2,1.1-2.3v-0.3c0-1.1-0.3-1.5-1.3-1.5h2.4c1.2,0,1.5-1.1,1.5-2.2v-0.8C28,183.2,27.7,182.7,26.5,182.7z"/>
		<polygon class="st3" points="9.9,176.8 4.1,156.9 18.9,142.8 49.9,142.8 		"/>
	</g>
</g>
</svg>
