<?xml version="1.0" encoding="utf-8"?>
<!-- Generator: Adobe Illustrator 27.4.1, SVG Export Plug-In . SVG Version: 6.00 Build 0)  -->
<svg version="1.1" id="Layer_1" xmlns="http://www.w3.org/2000/svg" xmlns:xlink="http://www.w3.org/1999/xlink" x="0px" y="0px" viewBox="0 0 289.2 450" style="enable-background:new 0 0 289.2 450;" xml:space="preserve">
<style type="text/css">
	.st0{fill:#FAA284;}
	.st1{fill:#EF8D72;}
	.st2{fill:#DDDDDD;}
	.st3{fill:#474747;}
	.st4{fill:#383635;}
	.st5{opacity:0.15;enable-background:new    ;}
	.st6{fill:#212020;}
	.st7{fill:#A8ADAD;}
	.st8{fill:#EE8C72;}
	.st9{fill:#DD725E;}
	.st10{fill:#EAEAEA;}
	.st11{fill:#EBF1F2;}
	.st12{opacity:0.12;fill:#666666;enable-background:new    ;}
	.st13{fill:#F7A184;}
	.st14{fill:#D24646;}
	.st15{fill:#FFFFFF;}
	.st16{fill:#3D1A01;}
	.st17{fill:#CE2E1C;}
	.st18{fill:#757575;}
</style>
<g>
	<g>
		<g>
			<path class="st0" d="M23.4,96.6c-0.5,1,0,2.4,0.6,3c0,0,4.6,5.1,4.1,5.8c-0.5,0.7-3.2,0.2-3.2,0.2c-2.1-0.4-6.9-0.5-6.9-0.5
				l-13.2-3.2c-0.9-0.1-1.7,0.6-1.8,1.5s0.8,1.8,1.7,1.9l11.9,3.3c0,0,0.4,0.1,0.3,0.5c0,0.2-0.1,0.5-0.4,0.5l-14.6-1.5
				C1,108,0.1,108.7,0,109.6c-0.1,0.9,0.6,1.7,1.5,1.8l15.1,1.8c0.4,0,0.6,0.6,0.1,0.7l-13.6,0.8c-0.9-0.1-1.6,0.5-1.7,1.4
				c-0.1,0.9,0.6,1.6,1.4,1.7l15.1-0.1c0.7,0,0.7,0.6,0.2,0.6l0,0l-10.7,2.2c-0.9,0.2-1.7,0.7-1.6,1.5c0.2,0.8,0.6,1.1,1.5,1.1
				l12.3-1.3c12.7,2.4,17.9-0.7,17.9-0.7c8.9-5.6,0.6-11.5,0.6-11.5s-1.4-3.2-4.7-6c-1.3-1.1-5.2-4.3-7.4-6.5
				c-0.7-0.7-1.4-1.6-1.4-1.6C24.4,95.4,23.8,95.7,23.4,96.6z"/>
			<path class="st1" d="M19.9,120.4c0,0-3.3-5.8-1.1-14.3C18.7,106.1,17.5,113.4,19.9,120.4z"/>
		</g>
		<g>
			<g>
				<path class="st2" d="M105.4,150L105.4,150l20-52.4c0.2-0.4,0.4-0.9,0.5-1.4c1.7-5.8-1.6-11.9-7.4-13.6
					c-5.6-1.7-11.4,1.3-13.4,6.7H105l-17.4,55c-1.7,4.5,0.3,9.7,4.8,11.8c4.7,2.1,10.2,0.1,12.3-4.6
					C105.1,150.9,105.3,150.5,105.4,150z"/>
			</g>
			<g>
				<path class="st0" d="M41.1,113c5,1.7,37.7,13.4,58.9,27l0,0l0,0c3.8,2,5.5,6.5,4,10.5c-0.1,0.3-0.3,0.7-0.4,1
					c-2.2,4.2-7.4,5.8-11.5,3.6c-0.4-0.2-42.2-20.5-55.3-33.4L41.1,113z"/>
				<g>
					<path class="st2" d="M49.5,116l-5.8,11.4c-0.2,0.5,0.7,1.3,0.7,1.3c17.4,12.5,47.3,27.1,47.3,27.1c4.5,2.4,10.2,0.7,12.6-3.9
						c2.4-4.5,0.6-10.2-3.9-12.6c-15.5-9.9-36.9-18.7-49.4-23.5C51,115.8,50,115.2,49.5,116z"/>
				</g>
			</g>
		</g>
	</g>
	<g>
		<path class="st3" d="M171.4,13.9c0,0,9.6,15,8.4,51.8c-1,30.1-28.4,31.9-33.7,31.9c-5.3,0-31,7.5-30.2-34.5
			c0.5-24.3-0.1-27.5-0.1-27.5S146.7,7.7,171.4,13.9z"/>
		<path class="st3" d="M115.4,22.5c0,0-1.8,13.3,1.1,19.7l1.3,0.7l4.8-20.1L115.4,22.5z"/>
		<g>
			<path class="st4" d="M134.7,230.6h13.1c26.4-1.2,30.9-8.7,32.1-17.5c-0.3-15.9-3.6-26.2-12.2-34.7l-55.5,0.2
				c-8.8,8.5-11.8,18.8-11.8,33.2c0,0,0.3,5.4,0.5,7.3C105.8,227.7,115.4,230.6,134.7,230.6z"/>
			<path class="st5" d="M173.8,186.3c-1.7-3-3.8-5.6-6.2-7.9l-55.5,0.2c-1.3,1.3-2.5,2.6-3.6,4C113.3,185,130.3,191.1,173.8,186.3z"/>
			<g>
				<path class="st6" d="M125.3,419.2c-3.7,10.6-13.2,22.2-13.2,22.2l-8.3,0.9l-8.3,2.1c0,0-2.1,2.1-0.3,5.2h21.1l7.2-18l-0.5,18
					h2.2l4.5-22.3C129.8,427.3,129.3,421.9,125.3,419.2z"/>
				<path class="st0" d="M125.3,419.2l-5.3-4.8l-6,4.8c0,0-6.4,20.5-10.2,23.2l7.6-0.1C111.4,442.3,121.6,429.7,125.3,419.2z"/>
			</g>
			<g>
				<path class="st6" d="M158,419.4c0,0-8.3,30.1-5.3,30.6h16.6c0,0,2.5,0.8-0.2-30l-6.1-0.7L158,419.4z"/>
				<path class="st0" d="M158,419.2l-2.8,22.8c1.4,0.3,9.1-1.2,12,0.9c0,0,1.8-10.4,1.9-23.7l-5.1-6.9L158,419.2z"/>
			</g>
			<g>
				<path class="st4" d="M100.6,215.5c-0.2-1.1-0.2-2.2-0.2-3.3c0.2-10.6,8.9-19.2,19.5-19.2h0.3c10.8,0.2,19.4,9.1,19.2,19.8
					c0,1-0.1,2-0.3,3l-5.7,95.4v1.5v1.6h-0.2c-0.9,6.4-6.4,11.4-13,11.4l0,0l0,0c-7.3,0-13.2-5.9-13.1-13.2c0-0.4,0-0.7,0-1
					L100.6,215.5z"/>
			</g>
			<g>
				<path class="st4" d="M106.9,311.9v-0.8h0.1c0.8-6.5,6.3-11.6,13.1-11.6c3.5,0,6.9,1.4,9.3,3.9c2.4,2.4,3.7,5.6,3.8,8.9v0.2
					c3.2,21.9,3.3,27.8,1,53c-1.2,13.1-3.5,24.6-7.2,43.6c-0.7,3.4-1.3,7.2-1.7,9.8l-12.8,0.4L107,314.8c-0.1-0.7-0.2-1.4-0.2-2.1
					C106.9,312.4,106.9,312.2,106.9,311.9z"/>
			</g>
			<path class="st5" d="M133.1,314.5c-0.9,6.4-6.4,11.4-13,11.4l0,0l0,0c-6.5,0-12-4.8-13-11.1l0,0l5.5,104.5l12.8-0.4
				c0.4-2.5,1-6.4,1.7-9.8c3.7-19,6-30.5,7.2-43.6c2.3-24.9,2.2-31-0.9-52.4v1.4H133.1z"/>
			<g>
				<path class="st4" d="M140.2,310.9l0.7-96.9c-0.1-1.1-0.1-2.2,0-3.3c0.9-9.9,9.4-17.7,19.4-17.7c0.5,0,1,0,1.4,0.1h0.3
					c10.7,1,18.7,10.5,17.7,21.2c-0.1,1-0.3,2-0.5,2.9l-12.6,94.7l-0.1,1.5l-0.2,1.6h-0.1c-1.2,5.4-5.7,9.7-11.5,10.3
					c-0.5,0-0.9,0.1-1.4,0.1c-6.8,0-12.4-5.1-13.1-11.8C140.1,312.6,140.1,311.8,140.2,310.9z"/>
			</g>
			<g>
				<path class="st4" d="M140.2,312.8l-0.1-0.8h0.1c0.1-6.6,5.1-12.2,11.8-12.9c0.5,0,0.9-0.1,1.4-0.1c3.1,0,5.9,1,8.3,3
					c2.6,2.1,4.3,5.2,4.7,8.5v0.2c5.5,21.4,6.2,27.3,6.5,52.6c0.2,13.2-0.9,24.8-2.6,44.2l-0.3,2.9c-0.2,2.5-0.5,5.2-0.7,8l-0.1,1.3
					l-12.6-0.2l-16.1-104c-0.2-0.6-0.3-1.3-0.4-1.9C140.2,313.3,140.2,313.1,140.2,312.8z"/>
			</g>
			<path class="st5" d="M166.5,313.4l-0.2,1.6h-0.1c-1.2,5.4-5.7,9.7-11.5,10.3c-0.5,0-0.9,0.1-1.4,0.1c-6.1,0-11.3-4.1-12.7-9.9
				l0,0l16.1,104l12.6,0.2l0.1-1.3c0.2-2.8,0.5-5.4,0.7-8l0.3-2.9c1.7-19.3,2.7-31,2.6-44.2c-0.3-24.9-1-31-6.3-51.7v0.4
				L166.5,313.4z"/>
		</g>
		<path class="st7" d="M132.5,75.2c0,0,10.4-2.8,17.7,0l0.8,5.6l-20.1,0.9L132.5,75.2z"/>
		<polygon class="st8" points="147.9,87.6 134,87.4 135.2,63.4 145.6,63.4 		"/>
		<path class="st9" d="M135.2,63.4h10.4l1.3,13.5c-4.8-0.2-9.4-1.5-12.3-2.6L135.2,63.4z"/>
		<path class="st8" d="M141.4,89.8c7.2,0,13.1-3.9,13.6-8.8c-6.6-0.8-11.8-1-11.8-1h-1.5c0,0-6.3,0.2-13.8,1.2
			C128.5,86,134.3,89.8,141.4,89.8z"/>
		<g>
			<path class="st10" d="M184.2,88.4c-1.9-3.9-10.1-6.1-16.7-6.4c-0.1,0-0.2-0.1-0.4-0.1c-3.2-0.6-7.6-1-13-1.2l0,0l0,0l0,0l0,0
				l-14.6,5.8l-11.6-5.4l0,0c-0.3,0-0.7,0-1,0c-10.3,0.5-10.3,0.5-10.9,1.6l-0.2,0.4v0.4c-0.1,0.7-1.6,9.5-1.9,10.4
				c-1.1,3.6-2.8,7-5,10.1c-3.7,5.1-7.5,11.2-6,18.9c1.4,6.8,5.4,12.5,10.9,15.5c1.4,6.1,2,18.6,1.5,24.1c-0.5,5.2-4.1,15-6.2,19.1
				c-0.8,0.7,24.4,1.6,30.5,1.6c16.1,0,30.5-2.6,30.5-2.6c-1.8-4.6-3.4-11.7-4.4-18.4c-1.2-7.9-1.2-23.6,1.4-29.5
				c2-4.5,3.9-9.2,5.7-13.7c1.1-2.9,2.3-5.8,3.5-8.6c0.7-1.6,1.3-3.2,1.9-4.8c0.4-1,0.8-2.1,1.3-3.1
				C184.7,100,186.8,93.7,184.2,88.4z"/>
		</g>
		<g>
			<path class="st7" d="M154.1,80.8l-14.6,5.8l-11.6-5.4l2.3,5c-2.7,4.3,0.4,8.8,0.4,8.8c3.3-0.5,6-2.7,6-2.7c1.5,1,4.5,0.5,4.5,0.5
				c3.3,3.2,6.2,2.3,6.2,2.3c1.5-2.4,2-4.4,2-6L154.1,80.8z"/>
		</g>
		<polygon class="st11" points="132.5,75.2 127.9,81.2 133.6,91.3 139.5,86.6 		"/>
		<polygon class="st11" points="150.3,75.2 154.1,80.8 145.3,92.4 139.5,86.6 		"/>
		<path class="st12" d="M156.4,138.6c3.6-0.2,5.5-2.5,5.5-2.5h-51.6c1,0.8,2,1.6,3.1,2.2c0.4,0.1,0.8,0.2,1.1,0.3
			C127.4,138.7,153.8,138.8,156.4,138.6z"/>
		<path class="st8" d="M120.8,37.1c0,0-8.5-3-8.5,5.5s8.5,6,8.5,6V37.1z"/>
		<g>
			<path class="st13" d="M163.9,48.1c0,13.9-10.5,25.2-23.4,25.2l0,0c-12.9,0-23.4-11.3-23.4-25.2l2.4-22.2
				c0-13.9,7.9-17.5,20.8-17.5l0,0c12.9,0,21.7,3.5,21.7,17.4L163.9,48.1z"/>
			<path class="st8" d="M157.7,19.4c0,0,1.4,3.2,4.5,5.6c-0.3-13.4-9-16.8-21.7-16.8c-12.9,0-20.8,3.6-20.8,17.5l-0.6,5
				C125.1,31.5,142.7,32,157.7,19.4z"/>
			<path class="st8" d="M139.6,70.9c12.1,0,22-9.9,23.2-22.5l1.1,0.3c-0.3,13.6-10.6,24.5-23.3,24.5c-9.9,0-18.4-6.7-21.8-16
				C122.7,65.3,130.5,70.9,139.6,70.9z"/>
		</g>
		<path class="st13" d="M162.3,37.1c0,0,8.5-3,8.5,5.5s-8.5,6-8.5,6V37.1z"/>
		<g>
			<g>
				<path class="st14" d="M128.6,56.9h14.3c0,0,1.4,0,0.4,2.1c-0.6,1.4-2.4,4.3-7.3,4.4c-5.9,0.2-7.9-4.5-7.9-4.5
					S127.1,56.9,128.6,56.9z"/>
				<path class="st15" d="M143.6,58.4c0.5-1.6-0.6-1.5-0.6-1.5h-14.4c-1.1,0-0.8,1.1-0.6,1.7C130.7,59.3,136.4,60.2,143.6,58.4z"/>
			</g>
			<path class="st8" d="M133.1,47.1c0,0-3.8-0.1-3.8,3.1s5.9,2.4,6.1,0C135.6,47.8,135.9,30,133.1,47.1z"/>
			<g>
				<path class="st3" d="M151.1,36.3c-1-0.3-2.1-0.5-3.2-0.5l0,0c-1.1,0-2.2,0.2-3.2,0.5l0,0c-0.4,0.1-0.8-0.1-0.9-0.5l0,0
					c-0.1-0.4,0.1-0.8,0.5-0.9l0,0c1.2-0.4,2.4-0.6,3.7-0.6l0,0c1.2,0,2.5,0.2,3.7,0.6l0,0c0.4,0.1,0.6,0.5,0.5,0.9l0,0
					c-0.1,0.3-0.4,0.5-0.7,0.5l0,0C151.2,36.3,151.2,36.3,151.1,36.3L151.1,36.3z"/>
			</g>
			<g>
				<path class="st3" d="M120,35.8c-0.1-0.4,0.1-0.8,0.5-0.9l0,0c1.2-0.4,2.4-0.6,3.7-0.6l0,0c1.2,0,2.5,0.2,3.7,0.6l0,0
					c0.4,0.1,0.6,0.5,0.5,0.9l0,0c-0.1,0.4-0.5,0.6-0.9,0.5l0,0c-1-0.3-2.1-0.5-3.2-0.5l0,0c-1.1,0-2.2,0.2-3.2,0.5l0,0
					c-0.1,0-0.2,0-0.2,0l0,0C120.4,36.3,120.1,36.1,120,35.8L120,35.8z"/>
			</g>
			<path class="st8" d="M159.9,51c0,1.5-2.2,2.7-4.9,2.7c-2.7,0-4.9-1.2-4.9-2.7s2.2-2.7,4.9-2.7C157.7,48.3,159.9,49.5,159.9,51z"/>
			<path class="st8" d="M125.2,51c0,1-1.5,1.8-3.3,1.8s-3.3-0.8-3.3-1.8s1.5-1.8,3.3-1.8S125.2,50,125.2,51z"/>
			<g>
				<path class="st16" d="M148.3,43.6c0,2.1-0.8,3.7-1.9,3.7c-1,0-1.9-1.7-1.9-3.7c0-2.1,0.8-3.7,1.9-3.7
					C147.4,39.9,148.3,41.6,148.3,43.6z"/>
				<path class="st16" d="M146.7,40.3c0,0,2-0.1,2.1-1c0,0-0.4,2.3-0.9,2.6L146.7,40.3z"/>
			</g>
			<g>
				<path class="st16" d="M122.7,43.6c0,2.1,0.8,3.7,1.9,3.7c1,0,1.9-1.7,1.9-3.7c0-2.1-0.8-3.7-1.9-3.7
					C123.5,39.9,122.7,41.6,122.7,43.6z"/>
				<path class="st16" d="M124.3,40.3c0,0-2-0.1-2.1-1c0,0,0.4,2.3,0.9,2.6L124.3,40.3z"/>
			</g>
		</g>
		<path class="st17" d="M136.9,91.2c0,0-2.6,2.1-5.6,2.6c0,0-3.1-4.6-0.1-8.8c0,0,3.1,0.3,5.8,2.2c0,0,2.1-1.4,4.4,0.2
			c0,0,2.9-2.2,6.6-2.4c0,0,2.4,3.4-1,8.8c0,0-2.8,0.8-5.9-2.2C141.1,91.6,138.3,92.2,136.9,91.2z"/>
		<path class="st3" d="M157.3,11.9c0,0-16.8,22-42.4,16.4c0,0-3.3-24.5,16.9-27.4C131.8,0.9,151.6-4.7,157.3,11.9z"/>
		<path class="st3" d="M145.7,2.8c0,0,16.4-4,24.8,9.3c0,0,2.7,5,4.5,10.5s-12.5,7.6-12.5,7.6S159.7,6.8,145.7,2.8z"/>
		<path class="st18" d="M119.3,26.9c-0.2,0-0.4-0.2-0.4-0.4l0,0c0-0.2,0.2-0.4,0.4-0.4l0,0c1,0.1,2,0.1,3,0.1l0,0
			c13.4,0,24.9-8.7,29.7-13.1l0,0c1.6-1.5,2.5-2.4,2.5-2.4l0,0c0.1-0.2,0.4-0.2,0.6,0l0,0c0.2,0.1,0.2,0.4,0,0.6l0,0
			c0,0-14.4,15.7-32.8,15.7l0,0C121.4,27,120.4,27,119.3,26.9L119.3,26.9z"/>
		<path class="st18" d="M154,9.1c-0.3-0.9-1-2.2-1.7-3.1l0,0c-0.7-1-1.3-1.6-1.3-1.6l0,0c-0.1-0.2-0.1-0.4,0-0.6l0,0
			c0.2-0.1,0.4-0.1,0.6,0l0,0c0,0,2.4,2.8,3.1,5.1l0,0c0.1,0.2-0.1,0.4-0.3,0.5l0,0h-0.1l0,0C154.2,9.4,154,9.2,154,9.1L154,9.1z"/>
		<path class="st18" d="M165.5,32.1c0-3.1-1.4-8.1-2.9-12.3l0,0c-1.4-4.2-2.9-7.5-2.9-7.5l0,0l0,0c-0.1-0.2,0-0.4,0.2-0.5l0,0
			c0.2-0.1,0.4,0,0.5,0.2l0,0c0,0,5.8,13.5,5.8,20.1l0,0c0,0.2-0.2,0.4-0.4,0.4l0,0C165.6,32.5,165.5,32.3,165.5,32.1L165.5,32.1z"/>
	</g>
	<g>
		<g>
			<g>
				<path class="st10" d="M204.1,145.6L204.1,145.6l-17.5-53.2c-0.1-0.5-0.3-0.9-0.5-1.4c-2.3-5.6-8.7-8.2-14.3-5.9
					c-5.4,2.2-8,8.2-6.2,13.6h-0.1l21.2,53.6c1.5,4.6,6.4,7.3,11.2,6.1c5-1.3,8-6.4,6.7-11.3C204.5,146.5,204.3,146.1,204.1,145.6z"/>
			</g>
			<g>
				<path class="st0" d="M254.6,119.5c-4,3.4-30.8,25.5-53.4,36.8l0,0l0,0c-3.7,2.2-8.4,1.4-11.1-1.9c-0.2-0.3-0.4-0.6-0.6-0.9
					c-2.4-4-1.2-9.3,2.8-11.7c0.4-0.3,39.2-25.7,57-30.4L254.6,119.5z"/>
				<g>
					<path class="st10" d="M247.7,125.2l-6.8-10.8c-0.4-0.4-1.5,0-1.5,0c-19.6,8.5-47.5,26.7-47.5,26.7c-4.4,2.7-5.8,8.4-3.1,12.8
						c2.7,4.4,8.4,5.8,12.8,3.1c16.5-8.2,35-22.1,45.5-30.4C247.1,126.6,248.2,126,247.7,125.2z"/>
				</g>
			</g>
		</g>
	</g>
	<g>
		<path class="st0" d="M265.8,95.3c0.5,1,0,2.4-0.6,3c0,0-4.6,5.1-4.1,5.8c0.5,0.7,3.2,0.2,3.2,0.2c2.1-0.4,6.9-0.5,6.9-0.5
			l13.2-3.2c0.9-0.1,1.7,0.6,1.8,1.5c0.1,0.9-0.8,1.8-1.7,1.9l-11.9,3.3c0,0-0.4,0.1-0.3,0.5c0,0.2,0.1,0.5,0.4,0.5l14.6-1.5
			c0.9-0.1,1.8,0.6,1.9,1.5s-0.6,1.7-1.5,1.8l-15.1,1.9c-0.4,0-0.6,0.6-0.1,0.7l13.6,0.8c0.9-0.1,1.6,0.5,1.7,1.4s-0.6,1.6-1.4,1.7
			l-15.1-0.1c-0.7,0-0.7,0.6-0.2,0.6l0,0l10.7,2.2c0.9,0.2,1.7,0.7,1.6,1.5c-0.2,0.8-0.6,1.1-1.5,1.1l-12.3-1.3
			c-12.8,2.4-18-0.6-18-0.6c-8.9-5.6-0.6-11.5-0.6-11.5s1.4-3.2,4.7-6c1.3-1.1,5.2-4.3,7.4-6.5c0.7-0.7,1.4-1.6,1.4-1.6
			C264.8,94,265.4,94.4,265.8,95.3z"/>
		<path class="st1" d="M269.3,119c0,0,3.3-5.8,1.1-14.3C270.5,104.7,271.7,112.1,269.3,119z"/>
	</g>
</g>
</svg>
