<?xml version="1.0" encoding="utf-8"?>
<!-- Generator: Adobe Illustrator 27.4.1, SVG Export Plug-In . SVG Version: 6.00 Build 0)  -->
<svg version="1.1" id="Layer_1" xmlns="http://www.w3.org/2000/svg" xmlns:xlink="http://www.w3.org/1999/xlink" x="0px" y="0px" viewBox="0 0 146.8 450.1" style="enable-background:new 0 0 146.8 450.1;" xml:space="preserve">
<style type="text/css">
	.st0{fill:#FAA284;}
	.st1{fill:#EF8D72;}
	.st2{fill:#DDDDDD;}
	.st3{fill:#474747;}
	.st4{fill:#383635;}
	.st5{fill:#212020;}
	.st6{opacity:0.15;enable-background:new    ;}
	.st7{opacity:0.15;}
	.st8{fill:#A8ADAD;}
	.st9{fill:#EE8C72;}
	.st10{fill:#DD725E;}
	.st11{fill:#EAEAEA;}
	.st12{fill:#EBF1F2;}
	.st13{opacity:0.12;fill:#666666;enable-background:new    ;}
	.st14{fill:#F7A184;}
	.st15{fill:#FFFFFF;}
	.st16{fill:#3D1A01;}
	.st17{fill:#CE2E1C;}
	.st18{fill:#757575;}
	.st19{fill:#F4F4F4;}
</style>
<g>
	<g>
		<g>
			<path class="st0" d="M27.9,21.3c-1-0.4-2.3,0.2-2.9,0.9c0,0-4.4,5.1-5.2,4.6c-0.7-0.4-0.6-3.1-0.6-3.1c0.2-2.1-0.3-6.8-0.3-6.8
				l1.6-13.2c0-0.9-0.8-1.6-1.6-1.6c-0.9,0-1.7,1-1.7,1.9l-1.9,12c0,0,0,0.4-0.4,0.4c-0.2,0-0.5,0-0.6-0.4L14.2,1.6
				c0-0.9-0.7-1.7-1.6-1.6C11.7,0,11,0.7,11,1.6l-0.1,14.8c0,0.4-0.5,0.7-0.7,0.2L7.9,3.4c0-0.8-0.7-1.5-1.6-1.5
				c-0.8,0-1.5,0.7-1.5,1.6l1.7,14.7c0,0.6-0.5,0.7-0.6,0.3l0,0L2.6,8.3C2.3,7.4,1.7,6.7,0.9,6.9s-1,0.7-0.9,1.6l2.6,11.9
				C1.7,33,5.2,37.7,5.2,37.7c6.5,8.1,11.2-0.7,11.2-0.7s2.9-1.7,5.3-5.2c1-1.4,3.6-5.5,5.5-7.9c0.6-0.8,1.4-1.5,1.4-1.5
				C29.2,22.2,28.8,21.7,27.9,21.3z"/>
			<path class="st1" d="M4.4,20.5c0,0,5.3-3.8,13.8-2.7C18.2,17.8,10.9,17.5,4.4,20.5z"/>
		</g>
		<g>
			<g>
				<path class="st2" d="M14.5,110.8L14.5,110.8l54.9,0.5c0.5,0,0.9,0,1.4,0c5.9-0.4,10.4-5.5,10-11.4c-0.4-5.7-5.1-10-10.7-10v-0.1
					l-56.4,2.8c-4.8,0-8.8,3.6-9.1,8.4c-0.4,5,3.4,9.4,8.4,9.7C13.5,110.8,14,110.8,14.5,110.8z"/>
			</g>
			<g>
				<path class="st0" d="M6.2,38.3c-0.6,5.1-4.3,38.9-1.4,63.5l0,0l0,0c0.1,4.2,3.4,7.6,7.6,8c0.4,0,0.7,0,1.1,0
					c4.6-0.2,8.2-4,8.1-8.6c0-0.5,0-45.9-5.8-63L6.2,38.3z"/>
				<g>
					<path class="st2" d="M5.3,47l12.5-0.2c0.5,0.1,0.8,1.2,0.8,1.2c3.6,20.6,3.7,53.2,3.7,53.2c0.2,5-3.8,9.2-8.8,9.4
						c-5,0.2-9.2-3.8-9.4-8.8C2,83.9,3.4,61.3,4.5,48.2C4.4,48.2,4.3,47.1,5.3,47z"/>
				</g>
			</g>
		</g>
	</g>
	<g>
		<path class="st3" d="M119.1,23.2c0,0,9.4,14.7,8.2,50.7c-1,29.5-27.8,31.3-33,31.3S64,112.5,64.7,71.4c0.4-23.8-0.1-26.9-0.1-26.9
			S94.9,17.1,119.1,23.2z"/>
		<path class="st3" d="M64.3,31.6c0,0-1.8,13,1.1,19.3l1.2,0.7L71.3,32L64.3,31.6z"/>
		<g>
			<path class="st4" d="M83.1,235.3h12.8c25.8-1.2,30.2-8.5,31.4-17.1c-0.3-15.6-3.6-25.7-11.9-34l-54.3,0.2
				c-8.6,8.4-11.6,18.4-11.6,32.5c0,0,0.3,5.3,0.5,7.1C54.8,232.5,64.3,235.3,83.1,235.3z"/>
			<g>
				<path class="st5" d="M74,419.9c-3.6,10.3-12.9,21.7-12.9,21.7l-8.1,0.9l-8.1,2c0,0-2,2.1-0.3,5.1h20.7l7.1-17.6l-0.5,17.6h2.2
					l4.4-21.9C78.4,427.8,77.9,422.6,74,419.9z"/>
				<path class="st0" d="M74,419.9l-5.2-4.7l-5.9,4.7c0,0-6.3,20.1-10,22.7l7.4-0.1C60.3,442.5,70.4,430.3,74,419.9z"/>
			</g>
			<g>
				<path class="st5" d="M105.9,420.2c0,0-8.2,29.5-5.2,29.9H117c0,0,2.4,0.8-0.2-29.3l-5.9-0.7L105.9,420.2z"/>
				<path class="st0" d="M105.9,420l-2.7,22.3c1.4,0.3,8.9-1.2,11.8,0.9c0,0,1.7-10.2,1.9-23.2l-5-6.7L105.9,420z"/>
			</g>
			<g>
				<path class="st4" d="M49.8,220.6c-0.2-1-0.2-2.1-0.2-3.2c0.2-10.3,8.7-18.8,19.1-18.8H69c10.6,0.2,19,8.9,18.8,19.4
					c0,1-0.1,2-0.3,2.9l-5.6,93.4v1.5v1.6h-0.2c-0.9,6.3-6.3,11.1-12.8,11.1l0,0l0,0c-7.1,0-12.9-5.8-12.9-12.9c0-0.3,0-0.7,0-1
					L49.8,220.6z"/>
			</g>
			<g>
				<path class="st4" d="M56,314.9v-0.8h0.1c0.8-6.4,6.2-11.4,12.8-11.4c3.5,0,6.7,1.4,9.1,3.8c2.3,2.4,3.7,5.5,3.7,8.8v0.2
					c3.2,21.4,3.3,27.2,1,51.8c-1.2,12.9-3.4,24.1-7,42.7c-0.6,3.3-1.3,7.1-1.7,9.6L61.4,420L56,317.7c-0.1-0.7-0.2-1.4-0.2-2.1
					C55.9,315.4,55.9,315.2,56,314.9z"/>
			</g>
			<path class="st6" d="M81.6,317.4c-0.9,6.3-6.3,11.1-12.8,11.1l0,0l0,0c-6.4,0-11.7-4.7-12.7-10.9l0,0l5.4,102.3l12.6-0.4
				c0.4-2.5,1-6.3,1.7-9.6c3.6-18.6,5.8-29.8,7-42.7c2.3-24.4,2.2-30.3-0.9-51.3v1.4h-0.3V317.4z"/>
			<g>
				<path class="st4" d="M88.6,313.9l0.7-94.9c-0.1-1.1-0.1-2.1,0-3.2c0.9-9.7,9.2-17.4,19-17.4c0.5,0,0.9,0,1.4,0.1h0.3
					c10.5,1,18.3,10.3,17.3,20.7c-0.1,1-0.3,1.9-0.5,2.9l-12.4,92.8l-0.1,1.5l-0.2,1.6H114c-1.2,5.3-5.6,9.5-11.2,10.1
					c-0.5,0-0.9,0.1-1.4,0.1c-6.6,0-12.1-5-12.8-11.6C88.5,315.6,88.5,314.8,88.6,313.9z"/>
			</g>
			<g class="st7">
				<path d="M127.4,218.1c0-0.7,0-1.5-0.1-2.2c-0.4-10-2.1-17.6-5.8-23.9l0,0c-0.2-0.4-0.5-0.8-0.8-1.3c-0.1-0.2-0.2-0.3-0.3-0.5
					c-0.2-0.2-0.3-0.5-0.5-0.7c-0.1-0.1-0.1-0.2-0.2-0.3l0,0c-1.3-1.8-2.7-3.5-4.3-5l-54.3,0.2c-1.3,1.3-2.5,2.6-3.5,3.9
					c2.1,1.1,6.7,2.9,15,4.1v41.9l14.1-0.5l2.5-0.1l24-0.8l12.3-0.4l1.4-10.4c0.2-0.9,0.4-1.9,0.5-2.9
					C127.3,218.9,127.4,218.6,127.4,218.1C127.4,218.2,127.4,218.2,127.4,218.1C127.4,218.2,127.4,218.1,127.4,218.1z"/>
			</g>
			<g>
				<path class="st4" d="M88.5,315.8l-0.1-0.8h0.1c0.1-6.4,5-12,11.5-12.7c0.5,0,0.9-0.1,1.4-0.1c3,0,5.8,1,8.1,2.9
					c2.6,2.1,4.2,5,4.6,8.3v0.2c5.4,21,6.1,26.7,6.4,51.5c0.2,12.9-0.9,24.3-2.5,43.2l-0.3,2.9c-0.2,2.5-0.4,5.1-0.7,7.8l-0.1,1.3
					l-12.4-0.2L88.7,318.3c-0.2-0.6-0.3-1.2-0.3-1.9C88.6,316.3,88.5,316,88.5,315.8z"/>
			</g>
			<path class="st6" d="M114.3,316.4l-0.2,1.6H114c-1.2,5.3-5.6,9.5-11.2,10.1c-0.5,0-0.9,0.1-1.4,0.1c-6,0-11-4.1-12.5-9.7l0,0
				l15.8,101.8l12.4,0.2l0.1-1.3c0.2-2.7,0.5-5.3,0.7-7.8l0.3-2.9c1.7-18.9,2.7-30.3,2.5-43.2c-0.3-24.4-1-30.3-6.2-50.6v0.4
				L114.3,316.4z"/>
		</g>
		<path class="st8" d="M81,83.2c0,0,10.2-2.8,17.4,0l0.7,5.4l-19.7,0.9L81,83.2z"/>
		<polygon class="st9" points="96.1,95.3 82.5,95.1 83.6,71.6 93.9,71.6 		"/>
		<path class="st10" d="M83.6,71.6h10.3l1.2,13.2c-4.7-0.2-9.2-1.5-12-2.6L83.6,71.6z"/>
		<path class="st9" d="M89.8,97.5c7.1,0,12.9-3.8,13.3-8.7c-6.5-0.8-11.6-1-11.6-1H90c0,0-6.2,0.2-13.5,1.2
			C77.1,93.8,82.8,97.5,89.8,97.5z"/>
		<g>
			<path class="st11" d="M131.6,96.1c-1.9-3.8-9.9-6-16.4-6.2c-0.1,0-0.2-0.1-0.3-0.1c-3.1-0.6-7.4-1-12.8-1.1l0,0l0,0l0,0l0,0
				l-14.3,5.6L76.4,89l0,0c-0.3,0-0.7,0-1,0c-10,0.5-10,0.5-10.6,1.6L64.6,91v0.4c-0.1,0.7-1.6,9.3-1.8,10.2
				c-1.1,3.5-2.7,6.9-4.9,9.9c-3.6,5-7.4,11-5.9,18.5c1.4,6.7,5.3,12.3,10.7,15.1c1.4,6,2,18.2,1.5,23.6c-0.5,5.1-4,14.7-6.1,18.7
				c-0.8,0.7,23.9,1.6,29.8,1.6c15.7,0,29.8-2.5,29.8-2.5c-1.8-4.5-3.3-11.5-4.3-18c-1.2-7.7-1.2-23.2,1.4-28.9
				c2-4.4,3.8-9,5.6-13.4c1.1-2.8,2.2-5.6,3.4-8.4c0.6-1.6,1.3-3.1,1.9-4.7c0.4-1,0.8-2,1.2-3C132.1,107.4,134.2,101.2,131.6,96.1z"/>
		</g>
		<g>
			<path class="st8" d="M102.2,88.6l-14.3,5.7L76.5,89l2.2,4.9c-2.6,4.2,0.4,8.7,0.4,8.7c3.2-0.5,5.9-2.7,5.9-2.7
				c1.5,1,4.4,0.4,4.4,0.4c3.2,3.1,6.1,2.3,6.1,2.3c1.5-2.4,1.9-4.3,1.9-5.8L102.2,88.6z"/>
		</g>
		<polygon class="st12" points="81,83.2 76.5,89 82.1,98.9 87.9,94.3 		"/>
		<polygon class="st12" points="98.4,83.2 102.2,88.6 93.6,100 87.9,94.3 		"/>
		<path class="st13" d="M104.5,145.3c3.5-0.2,5.4-2.4,5.4-2.4H59.4c0.9,0.8,2,1.5,3,2.1c0.4,0.1,0.7,0.2,1.1,0.3
			C76,145.3,101.8,145.4,104.5,145.3z"/>
		<path class="st9" d="M69.6,45.9c0,0-8.3-2.9-8.3,5.4s8.3,5.8,8.3,5.8V45.9z"/>
		<g>
			<path class="st14" d="M111.8,56.6c0,13.6-10.2,24.6-22.9,24.6l0,0c-12.6,0-22.9-11-22.9-24.6l2.4-21.8c0-13.6,7.7-17.2,20.4-17.2
				l0,0c12.6,0,21.2,3.4,21.2,17L111.8,56.6z"/>
			<path class="st9" d="M105.6,28.5c0,0,1.4,3.2,4.4,5.5c-0.3-13.1-8.8-16.4-21.2-16.4c-12.6,0-20.4,3.6-20.4,17.2l-0.5,4.9
				C73.8,40.4,91,40.9,105.6,28.5z"/>
			<path class="st9" d="M87.9,78.9c11.8,0,21.6-9.7,22.7-22.1l1.1,0.3c-0.3,13.3-10.4,24-22.8,24c-9.7,0-18-6.5-21.3-15.7
				C71.4,73.5,79.1,78.9,87.9,78.9z"/>
		</g>
		<path class="st14" d="M110.2,45.9c0,0,8.3-2.9,8.3,5.4s-8.3,5.8-8.3,5.8V45.9z"/>
		<g>
			<g>
				<path class="st15" d="M77.2,65.2h14c0,0,1.4,0,0.4,2.1c-0.6,1.4-2.3,5.9-7.2,6c-5.7,0.2-7.7-6.1-7.7-6.1S75.8,65.2,77.2,65.2z"/>
				<path class="st15" d="M91.8,66.7c0.5-1.5-0.6-1.5-0.6-1.5h-14c-1.1,0-0.8,1.1-0.6,1.7C79.3,67.6,84.8,68.4,91.8,66.7z"/>
			</g>
			<path class="st9" d="M81.6,55.7c0,0-3.7-0.1-3.7,3c0,3.2,5.8,2.4,5.9,0C84,56.3,84.3,38.9,81.6,55.7z"/>
			<g>
				<path class="st3" d="M99.2,45.1c-1-0.3-2.1-0.5-3.1-0.5l0,0c-1.1,0-2.1,0.2-3.1,0.5l0,0c-0.4,0.1-0.8-0.1-0.9-0.5l0,0
					c-0.1-0.4,0.1-0.8,0.5-0.9l0,0c1.2-0.4,2.4-0.6,3.6-0.6l0,0c1.2,0,2.4,0.2,3.6,0.6l0,0c0.4,0.1,0.6,0.5,0.5,0.9l0,0
					c-0.1,0.3-0.4,0.5-0.7,0.5l0,0C99.4,45.1,99.3,45.1,99.2,45.1L99.2,45.1z"/>
			</g>
			<g>
				<path class="st3" d="M68.8,44.6c-0.1-0.4,0.1-0.8,0.5-0.9l0,0c1.2-0.4,2.4-0.6,3.6-0.6l0,0c1.2,0,2.4,0.2,3.6,0.6l0,0
					c0.4,0.1,0.6,0.5,0.5,0.9l0,0c-0.1,0.4-0.5,0.6-0.9,0.5l0,0c-1-0.3-2.1-0.5-3.1-0.5l0,0c-1.1,0-2.1,0.2-3.1,0.5l0,0
					c-0.1,0-0.1,0-0.2,0l0,0C69.2,45.1,68.9,44.9,68.8,44.6L68.8,44.6z"/>
			</g>
			<path class="st9" d="M107.8,59.4c0,1.5-2.2,2.6-4.8,2.6c-2.7,0-4.8-1.2-4.8-2.6c0-1.5,2.2-2.6,4.8-2.6
				C105.7,56.8,107.8,58,107.8,59.4z"/>
			<path class="st9" d="M73.8,59.4c0,1-1.4,1.8-3.2,1.8c-1.8,0-3.2-0.8-3.2-1.8s1.4-1.8,3.2-1.8C72.4,57.7,73.8,58.5,73.8,59.4z"/>
			<g>
				<g>
					<path class="st16" d="M93.5,53.9c1-1.2,2-1.9,3.2-2c1.7-0.1,3,1,3,1l0.9-1c-0.1-0.1-1.8-1.6-4-1.4c-1.5,0.1-2.9,1-4.1,2.5
						L93.5,53.9z"/>
				</g>
				<g>
					<path class="st16" d="M75.6,53.5l1.1-0.8c-1.2-1.5-2.6-2.4-4.1-2.5c-2.3-0.2-4,1.3-4,1.4l0.9,1L69,52.1l0.5,0.5
						c0,0,1.3-1.2,3-1C73.6,51.6,74.7,52.2,75.6,53.5z"/>
				</g>
			</g>
		</g>
		<path class="st17" d="M85.3,98.8c0,0-2.5,2.1-5.5,2.5c0,0-3.1-4.5-0.1-8.6c0,0,3,0.3,5.7,2.2c0,0,2-1.3,4.3,0.2
			c0,0,2.8-2.1,6.5-2.4c0,0,2.4,3.3-1,8.7c0,0-2.7,0.8-5.7-2.1C89.5,99.3,86.7,99.8,85.3,98.8z"/>
		<path class="st3" d="M105.3,21.2c0,0-16.5,21.5-41.5,16c0,0-3.3-24,16.5-26.8C80.3,10.4,99.7,4.9,105.3,21.2z"/>
		<path class="st3" d="M93.9,12.3c0,0,16.1-3.9,24.3,9.1c0,0,2.7,4.9,4.4,10.2c1.8,5.4-12.2,7.5-12.2,7.5S107.6,16.2,93.9,12.3z"/>
		<path class="st18" d="M68.1,35.8c-0.2,0-0.4-0.2-0.3-0.4l0,0c0-0.2,0.2-0.4,0.4-0.3l0,0c1,0.1,2,0.1,2.9,0.1l0,0
			c13.2,0,24.3-8.5,29.1-12.8l0,0c1.6-1.4,2.4-2.4,2.4-2.4l0,0c0.1-0.2,0.4-0.2,0.5,0l0,0c0.2,0.1,0.2,0.4,0,0.5l0,0
			c0,0-14.1,15.4-32.1,15.4l0,0C70.1,36,69.1,35.9,68.1,35.8L68.1,35.8z"/>
		<path class="st18" d="M102,18.4c-0.3-0.9-1-2.1-1.6-3l0,0c-0.7-0.9-1.2-1.6-1.2-1.6l0,0c-0.1-0.2-0.1-0.4,0-0.5l0,0
			c0.2-0.1,0.4-0.1,0.5,0l0,0c0,0,2.4,2.8,3,5l0,0c0.1,0.2-0.1,0.4-0.3,0.5l0,0h-0.1l0,0C102.2,18.7,102.1,18.6,102,18.4L102,18.4z"/>
		<path class="st18" d="M113.3,40.9c0-3-1.4-7.9-2.8-12l0,0c-1.4-4.1-2.8-7.4-2.8-7.4l0,0c-0.1-0.2,0-0.4,0.2-0.5l0,0
			c0.2-0.1,0.4,0,0.5,0.2l0,0c0,0,5.6,13.2,5.7,19.7l0,0c0,0.2-0.2,0.4-0.4,0.4l0,0C113.5,41.3,113.3,41.2,113.3,40.9L113.3,40.9z"/>
	</g>
	<g>
		<g>
			<path class="st11" d="M128.8,158.8L128.8,158.8l-15.5-52.7c-0.2-0.4-0.3-0.9-0.4-1.4c-1.2-5.8,2.4-11.5,8.2-12.7
				c5.5-1.2,11,2.2,12.5,7.5h0.1l12.7,55c1.3,4.6-1.1,9.4-5.6,11.1c-4.7,1.7-10-0.7-11.7-5.4C129,159.7,128.9,159.2,128.8,158.8z"/>
		</g>
		<g>
			<path class="st14" d="M76.9,158.3c0-4.1-4.1-5.1-4.1-5.1s-5.4-4.1-7.8-4.1c-3.1,0-7.4-1.9-7.4-1.9s-2,3.3,3.3,4.7
				c0,0-6.2,0.5-6.4,2.4c0,0-0.1,1,0.5,2.1c0,0-1.8,1.8,0.2,3.6c0,0-1,2.2,0.7,3.2c0,0-1,1.4,0.9,2.4c2,1,2.2,1.1,6.2,1.7
				c0,0,8.2-0.3,11.1-3.6C74.2,163.7,76.9,162.3,76.9,158.3z"/>
			<g>
				<path class="st14" d="M74.4,163.4c5.1,0.7,38.8,5,63.4,2.6l0,0l0,0c4.2-0.1,7.7-3.2,8.2-7.4c0-0.4,0.1-0.7,0.1-1.1
					c-0.1-4.6-3.9-8.3-8.5-8.2c-0.5,0-45.9-0.8-63.1,4.6L74.4,163.4z"/>
				<g>
					<path class="st11" d="M83.1,164.5V152c0.1-0.5,1.2-0.8,1.2-0.8c20.7-3.2,53.3-2.7,53.3-2.7c5-0.1,9.2,3.9,9.2,9
						c0.1,5-3.9,9.2-9,9.2c-17.9,1.8-40.5,0-53.6-1.4C84.3,165.3,83.2,165.4,83.1,164.5z"/>
				</g>
			</g>
		</g>
		<path class="st6" d="M120.3,167.5c3.7,0,6.8,0,10.3-0.2c-2.1-8.8-7.2-18.7-7.2-18.7L120.3,167.5z"/>
		<path class="st19" d="M123.4,148.2c0,0,4.4,40,1.9,80.8L76,230.4c0,0,0.4-74.8-3.1-77.2C72.8,153.2,68.7,149.4,123.4,148.2z"/>
	</g>
</g>
</svg>
