<?xml version="1.0" encoding="utf-8"?>
<!-- Generator: Adobe Illustrator 27.4.1, SVG Export Plug-In . SVG Version: 6.00 Build 0)  -->
<svg version="1.1" id="Layer_1" xmlns="http://www.w3.org/2000/svg" xmlns:xlink="http://www.w3.org/1999/xlink" x="0px" y="0px" viewBox="0 0 140.3 450" style="enable-background:new 0 0 140.3 450;" xml:space="preserve">
<style type="text/css">
	.st0{fill:#D3D3D3;}
	.st1{fill:#E8E8E8;}
	.st2{fill:#594D41;}
	.st3{fill:#42382F;}
	.st4{fill:#7A6F64;}
	.st5{fill:#333333;}
	.st6{fill:#232323;}
	.st7{fill:#F4A984;}
	.st8{fill:#D87C60;}
	.st9{fill:#CE2E1C;}
	.st10{fill:#6A371A;}
	.st11{fill:#8E5931;}
	.st12{fill:#FFFFFF;}
	.st13{fill:#B57E59;}
	.st14{fill:#211717;}
	.st15{fill:#9E6C47;}
	.st16{fill:#C59061;}
	.st17{fill:#BFBDBB;}
	.st18{fill:#F4F4F4;}
</style>
<g>
	<path class="st0" d="M37.3,97.8c0,0-13.4,6.3-30.3,45.5s3.3,41.3,3.3,41.3s12,5.5,25.7-35.3C40.2,136.6,38.8,100.4,37.3,97.8z"/>
	<path class="st1" d="M18.3,133.4c0,0-7.1-1.1-11.6,8.5c-9.2,19.5-8.3,36.1-0.9,40.7c10.9,6.7,21.6-6.9,21.4-39.5
		C27.2,133.1,18.3,133.4,18.3,133.4z"/>
	<g>
		<g>
			<path class="st2" d="M91.3,445.3h30.4c0,0,1.6-8.3-4.8-19l-20.5,0.4C96.5,426.7,90.8,435.2,91.3,445.3z"/>
			<rect x="92" y="445.3" class="st3" width="30" height="4.7"/>
			<path class="st4" d="M117.8,436.3c0,2.1-5.1,3.8-11.5,3.8c-6.3,0-11.5-1.7-11.5-3.8c0-2.1,5.1-3.8,11.5-3.8
				C112.6,432.6,117.8,434.3,117.8,436.3z"/>
		</g>
	</g>
	<g>
		<g>
			<path class="st2" d="M74.1,423.9c0,0,2.4,12.4,0.6,20.8H17.8c0,0-2.2-12.6,22.6-12.6l16-10.8L74.1,423.9z"/>
			<polygon class="st3" points="75.1,449.5 18.2,449.2 18.2,444.7 75.1,444.7 			"/>
			<path class="st4" d="M38.8,432.2c0,0-0.6,8.6-20.3,8.2C18.5,440.4,21.3,432.2,38.8,432.2z"/>
		</g>
	</g>
	<path class="st5" d="M36,214.7c0,0,0.7,76.5,11.8,210.9c0,0,12,8.4,27.1,1.9c0,0-2.4-108.6-2.1-171.1c0,0,11.6,79.5,20.3,170.2
		c0,0,16.3,7.5,27.1-1.5c0,0-8.7-117.4-9.7-206.7C110.5,218.3,65.2,224.3,36,214.7z"/>
	<path class="st6" d="M111.1,252.1c-0.2-4.5-0.4-15.4-0.6-33.8c0,0-45.4,6-74.5-3.7c0,0,0.2,2.5,0.3,7.4
		c5.8,3.5,18.3,10.2,25.1,12.6v19.2C61.4,253.8,95.4,255.1,111.1,252.1z"/>
	<path class="st1" d="M37.3,97.8c0,0-1.5,20.3-1.3,116.9c0,0,23.3,16.3,74.5,3.7c0,0,0.1-29,7.1-54.8c0,0,12.6-48.5,6.2-62.7
		C123.8,100.9,88.3,76.8,37.3,97.8z"/>
	<g>
		<path class="st7" d="M71.4,88.1L71.3,92c0,0,3.5,4.1,11.1,3.8c7.6-0.3,10.7-4.7,10.7-4.7l-0.2-9.9C84,86,75.1,88.3,71.4,88.1z"/>
		<path class="st8" d="M92.9,81.2L92.4,68l-21.8,0.8l0.9,19.3C75.1,88.3,84,86,92.9,81.2z"/>
	</g>
	<path class="st5" d="M64.2,90.3c0,0,0,42.1,4.2,61.8c0,0,23.2-50.6,30.6-60.8c0,0,8.7,0.5,18.9,6.4c0,0-8.8,27.7,1.9,56.2
		c0,0-6.4,51.2-6.8,55.9c0,0-40,7.4-45.9-14c0,0-6.1,15.9-32.6,9.8l-0.1-49.4c0,0,11.8-33.5,10.4-61.2C44.8,95,53.9,90.5,64.2,90.3z
		"/>
	<path class="st0" d="M71.3,86c0,0,0.2,6.7,7.2,9.8c0,0,12.5-4,14.4-11.4l6.1,7c0,0-4.7,10.6-14.8,14.3l-5.9-8l-7.1,6.5
		c0,0-7.8-7.6-7.1-13.8L71.3,86z"/>
	<path class="st9" d="M74.6,104.2c0,0-4,2.8-8.5,3.2c0,0-4.1-7.1,0.9-12.9c0,0,4.5,0.8,8.3,3.9c0,0,3.2-1.8,6.4,0.7
		c0,0,4.5-2.8,10-2.8c0,0,3.2,5.2-2.5,12.9c0,0-4.2,0.9-8.4-3.8C80.8,105.3,76.6,105.7,74.6,104.2z"/>
	<g>
		<path class="st10" d="M91.1,21.8c0,0-18.8,11.6-23.7,11.6c-4.8,0-20.9-5.7-20.9-5.7c-1,9.4,4.4,16.5,4.4,16.5l44.3,3.6l9.9,0.9
			c1.1-8,1.2-14,0.7-18.6C96.8,29,91.1,21.8,91.1,21.8z"/>
		<path class="st11" d="M97.3,15.8C91.7,0.6,65,2.4,65,2.4c-14.9-7-8.5,3.3-8.5,3.3c-24.3-5.9-10.9,14-10.9,14c-8.7,0.6,1,7.9,1,7.9
			s16.1,5.7,20.9,5.7s23.7-11.6,23.7-11.6s5.6,7.2,14.7,8.3C104.3,16.2,97.3,15.8,97.3,15.8z"/>
		<path class="st7" d="M100.5,40.4l-3.2,6.2c-0.9-1.5-1.6-3.2-2.2-4.8c-3.7-9.6-4-20-4-20c-21.7,11.2-41.7,7-41.7,7
			c2.3,11.1,0.3,36.8,10.3,48.6c3,3.5,7,5.8,12.5,6c24.1,1.2,27.9-24.7,27.9-24.7s7.9-1.4,8.2-12.5C108.6,37,100.5,40.4,100.5,40.4z
			"/>
		<path class="st10" d="M64.4,52c0.1,2.4-1,4.5-2.5,4.6s-2.9-1.8-3-4.3c-0.1-2.4,1-4.5,2.5-4.6C62.9,47.7,64.2,49.6,64.4,52z"/>
		<path class="st10" d="M85.2,49.9c0.1,2.4-1,4.5-2.5,4.6s-2.9-1.8-3-4.3c-0.1-2.4,1-4.5,2.5-4.6S85.1,47.4,85.2,49.9z"/>
		<g>
			<path class="st8" d="M72.3,63.4c-4.6,2-7.1-0.1-7.3-2.3c-0.2-1.4,0.6-2.7,2-3.3c2.8-1.2,4.7-5.5,4.7-5.6l0,0c0,1-0.9,4.7-4.4,6.9
				c-0.8,0.5-1.2,0.9-1.2,1.6C66.3,62,68.1,63.8,72.3,63.4L72.3,63.4z"/>
		</g>
		<g>
			<path class="st11" d="M54.8,42.7l-0.3-1.4c0.3-0.1,4.9-1.9,10.5-2l0.3,2.2C60.6,41.4,54.8,42.7,54.8,42.7z"/>
		</g>
		<g>
			<path class="st11" d="M88.4,39.8c-3.9-1-10.8-0.6-10.8-0.6l0.2-2c0.3,0,6.5-0.4,10.9,1.3L88.4,39.8z"/>
		</g>
		<g>
			<path class="st12" d="M67.7,68.9l1.6,4.7c0,0,9.8,2.2,11.8-6.1C81,67.5,73.1,70,67.7,68.9z"/>
		</g>
		<path class="st13" d="M45.9,5c0,0,10.9,8.6,33.9,6.1c0,0-13.9,12.1-35.2,7.3C44.7,18.4,38.1,6.6,45.9,5z"/>
	</g>
	<polygon class="st14" points="24.8,110 39.5,142.6 39.6,148.1 35.6,144.4 21,111.7 	"/>
	<path class="st7" d="M34,144.6l1.5-5.8c0,0,1.2,0.3,3-2.2l-1.7-2c0,0,1.1-2.2,0-3.6c-1.1-1.4-8.6-7.5-13.4-7.4
		c-4.7,0.1-11.9,15-11.9,15s-2.2,8.2,4.7,9.5c7,1.3,9.1-2.4,9.1-2.4S32.4,150,34,144.6z"/>
	<g>
		<polygon class="st15" points="67.8,180.6 68.8,178.7 47.8,142.2 24.4,142.2 22.3,144.7 		"/>
		<polygon class="st16" points="67.9,180.8 46,144.9 22.3,144.9 44.1,181.6 		"/>
	</g>
	<path class="st7" d="M75,177l-5.5-7.5c0,0-4.1-4.1-4.6-4.6s-9.1-7.4-9.7-9c0,0-4,1.7,1.4,8.3c4.2,5.1-2.7,2.4-2.7,2.4
		s-10-3.5-10.6-4.7c-0.7-1.2-3.4-8.3-6.8-7c0,0,0.3,1.7,3.1,9.5l6.6,4.6c0,0-7.6-4.1-8.4-5.3s-1.4-8.1-4.7-7l0.5,4.5l-0.5,4.4
		c0,0,2,8,2.6,8.4s8.6,6.6,8.6,6.6s11.5,4.8,21.8,3.8L75,177z"/>
	<path class="st1" d="M134.5,195.3c17.8-80.7-10.8-94.5-10.8-94.5c-11.9,5-8,37.9-8,37.9l-0.1,28.1l-0.4,5.9l-43.8-4.8
		c-12,8.7-4.1,19.4-4.1,19.4C121.6,207.9,134.5,195.3,134.5,195.3z"/>
	<path class="st17" d="M115.3,172.7c0,0,7.4,12.4,7.6,26.2c0,0-5.7,0.4-7.4,0L115.3,172.7z"/>
	<path class="st18" d="M115.3,172.7c0,0,6.5,31.7,4,71.8l-48.5,1.4c0,0,4.2-75.7,0.7-78.1C71.5,167.9,64.8,164.9,115.3,172.7z"/>
</g>
</svg>
