<?xml version="1.0" encoding="utf-8"?>
<!-- Generator: Adobe Illustrator 27.4.1, SVG Export Plug-In . SVG Version: 6.00 Build 0)  -->
<svg version="1.1" id="Layer_1" xmlns="http://www.w3.org/2000/svg" xmlns:xlink="http://www.w3.org/1999/xlink" x="0px" y="0px" viewBox="0 0 150.4 450" style="enable-background:new 0 0 150.4 450;" xml:space="preserve">
<style type="text/css">
	.st0{fill:#D3D3D3;}
	.st1{fill:#E8E8E8;}
	.st2{fill:#594D41;}
	.st3{fill:#42382F;}
	.st4{fill:#7A6F64;}
	.st5{fill:#333333;}
	.st6{fill:#232323;}
	.st7{fill:#F4A984;}
	.st8{fill:#D87C60;}
	.st9{fill:#CE2E1C;}
	.st10{fill:#6A371A;}
	.st11{fill:#8E5931;}
	.st12{fill:#B57E59;}
	.st13{fill:#E8CAB0;}
	.st14{fill:#5B7730;}
	.st15{fill:#A32F2C;}
	.st16{fill:#C6664F;}
	.st17{fill:#BFBDBB;}
	.st18{fill:#F4F4F4;}
</style>
<g>
	<path class="st0" d="M43.7,98.4c0,0-57.8,50-38.1,66.8c0,0,9.3,13,47.8-35.8C53.3,129.4,54.8,105.9,43.7,98.4z"/>
	<path class="st1" d="M1.5,165.8c0,0-7.2-11.1,9.9-27.9c14.8-14.5,26.2-11,30.1-3.6C48.3,147,11,186,1.5,165.8z"/>
	<g>
		<g>
			<path class="st2" d="M97.6,445.3h30.3c0,0,1.6-8.3-4.8-18.9l-20.4,0.4C102.7,426.7,97.1,435.3,97.6,445.3z"/>
			<rect x="98" y="445.3" class="st3" width="30" height="4.7"/>
			<path class="st4" d="M124,436.4c0,2.1-5.1,3.8-11.4,3.8s-11.4-1.7-11.4-3.8c0-2.1,5.1-3.8,11.4-3.8
				C118.9,432.6,124,434.3,124,436.4z"/>
		</g>
	</g>
	<g>
		<g>
			<path class="st2" d="M80.4,424c0,0,2.4,12.4,0.6,20.8H24.2c0,0-2.2-12.6,22.6-12.6l15.9-10.8L80.4,424z"/>
			<polygon class="st3" points="81.1,449.5 24.3,449.2 24.3,444.7 81.1,444.7 			"/>
			<path class="st4" d="M45.2,432.2c0,0-0.6,8.6-20.3,8.2C24.9,440.4,27.7,432.2,45.2,432.2z"/>
		</g>
	</g>
	<path class="st5" d="M42.4,215.1c0,0,0.7,76.4,11.8,210.6c0,0,12,8.4,27,1.9c0,0-2.4-108.5-2.1-170.8c0,0,11.6,79.4,20.3,169.9
		c0,0,16.3,7.5,27-1.5c0,0-8.7-117.2-9.7-206.4C116.8,218.7,71.5,224.7,42.4,215.1z"/>
	<path class="st6" d="M118.4,281.6c-0.8-21.3-1.4-42.8-1.6-62.9c0,0-45.3,6-74.4-3.7c0,0,0.1,9.8,0.7,28.6c5.6,1.4,15.7,2.7,27-1.4
		l1.1,36.6c0,0,2.9,0.6,7.9,1.3c0-8.2,0-16.1,0-23.3c0,0,1.3,8.8,3.3,23.8C90.9,281.5,103.6,282.5,118.4,281.6z"/>
	<path class="st1" d="M43.7,98.4c0,0-1.5,20.2-1.3,116.7c0,0,23.2,16.2,74.4,3.7c0,0,0.1-29,7-54.7c0,0,12.5-48.4,6.2-62.6
		C130,101.4,94.6,77.5,43.7,98.4z"/>
	<g>
		<path class="st7" d="M77.7,88.7l-0.1,3.9c0,0,3.5,4.1,11,3.8c7.6-0.3,10.7-4.7,10.7-4.7l-0.2-9.9C90.3,86.6,81.4,88.9,77.7,88.7z"/>
		<path class="st8" d="M99.2,81.8l-0.5-13.2l-21.8,0.8l0.9,19.3C81.4,88.9,90.3,86.6,99.2,81.8z"/>
	</g>
	<path class="st5" d="M70.6,90.9c0,0,0,42.1,4.2,61.7c0,0,23.2-50.5,30.5-60.7c0,0,8.7,0.5,18.9,6.3c0,0-8.8,27.7,1.8,56.2
		c0,0-6.4,51.2-6.7,55.8c0,0-39.9,7.4-45.8-14c0,0-6.1,15.8-32.6,9.8l-0.1-49.3c0,0,11.8-33.5,10.4-61.1
		C51.2,95.6,60.2,91.1,70.6,90.9z"/>
	<path class="st0" d="M77.6,86.6c0,0,0.2,6.6,7.2,9.7c0,0,12.5-4,14.4-11.4l6.1,7c0,0-4.7,10.6-14.7,14.3l-5.9-8l-7.1,6.5
		c0,0-7.8-7.6-7.1-13.8L77.6,86.6z"/>
	<path class="st9" d="M80.9,104.8c0,0-4,2.8-8.5,3.2c0,0-4.1-7.1,0.9-12.9c0,0,4.5,0.8,8.3,3.9c0,0,3.2-1.8,6.4,0.7
		c0,0,4.5-2.8,10-2.8c0,0,3.2,5.2-2.5,12.8c0,0-4.2,0.9-8.3-3.8C87.1,105.9,82.9,106.3,80.9,104.8z"/>
	<path class="st10" d="M99.1,22.1c0,0-18.9,11.4-23.7,11.4c-4.8,0-20.8-5.9-20.8-5.9c-1.1,9.4,4.3,16.5,4.3,16.5l44.2,4L113,49
		c1.2-8,1.3-14,0.9-18.6C104.7,29.3,99.1,22.1,99.1,22.1z"/>
	<path class="st11" d="M105.3,16.2C99.9,1,73.1,2.5,73.1,2.5c-14.8-7.1-8.5,3.2-8.5,3.2c-24.3-6.1-11,13.9-11,13.9
		c-8.7,0.6,0.9,7.9,0.9,7.9s16,5.8,20.8,5.9C80.1,33.4,99,22,99,22s5.6,7.3,14.6,8.4C112.3,16.6,105.3,16.2,105.3,16.2z"/>
	<path class="st7" d="M108.3,40.7l-3.3,6.1c-0.8-1.5-1.6-3.2-2.2-4.8C99.2,32.4,99,22,99,22c-21.7,11-41.7,6.6-41.7,6.6
		c2.2,11.1,0,36.8,9.8,48.6C70,80.7,74,83,79.5,83.3c24,1.4,28.1-24.4,28.1-24.4s7.9-1.3,8.3-12.4C116.4,37.4,108.3,40.7,108.3,40.7
		z"/>
	<path class="st10" d="M72.1,52c0.1,2.4-1,4.5-2.5,4.6s-2.9-1.8-3-4.3c-0.1-2.4,1-4.5,2.5-4.6C70.7,47.6,72,49.5,72.1,52z"/>
	<path class="st10" d="M93,50c0.1,2.4-1,4.5-2.5,4.6s-2.9-1.8-3-4.3c-0.1-2.4,1-4.5,2.5-4.6C91.5,45.7,92.9,47.6,93,50z"/>
	<g>
		<path class="st8" d="M80,63.4c-4.6,1.9-7.1-0.2-7.3-2.4c-0.1-1.4,0.6-2.7,2-3.2c2.8-1.1,4.7-5.5,4.7-5.5l0,0c0,1-0.9,4.7-4.4,6.8
			c-0.8,0.5-1.2,0.9-1.2,1.6C73.9,62,75.7,63.8,80,63.4L80,63.4z"/>
	</g>
	<g>
		<path class="st11" d="M62.6,42.6l-0.3-1.4c0.3-0.1,4.9-1.8,10.5-1.9l0.3,2.2C68.4,41.3,62.7,42.6,62.6,42.6z"/>
	</g>
	<g>
		<path class="st11" d="M96.3,40c-3.8-1.1-10.7-0.7-10.8-0.7l0.3-2c0.3,0,6.5-0.4,10.9,1.4L96.3,40z"/>
	</g>
	<path class="st12" d="M54.1,4.9c0,0,10.8,8.7,33.8,6.4c0,0-14,12-35.2,7C52.8,18.3,46.3,6.4,54.1,4.9z"/>
	<g>
		<g>
			<path class="st5" d="M43.3,167.1l0.6,2.1l-2.3-4.3l-3-2.6c-0.2-0.1-0.3-0.3-0.2-0.5c0-0.2,0.2-0.4,0.4-0.4l3.1-0.9l-4.6-2.7
				c-0.2-0.1-0.3-0.3-0.3-0.5s0.2-0.4,0.4-0.4l3.1-0.9l-4.6-2.7c-0.2-0.1-0.3-0.3-0.3-0.5s0.2-0.4,0.4-0.4l3.1-0.9l-4.6-2.7
				c-0.2-0.1-0.3-0.3-0.3-0.5s0.2-0.4,0.4-0.4l3-0.9l-2.2-1.2c-0.1-0.1-0.2-0.2-0.3-0.3l-2-7.1l1-0.3l2,6.9l3.1,1.7
				c0.2,0.1,0.3,0.3,0.3,0.5s-0.2,0.4-0.4,0.5l-3.1,0.9l4.6,2.7c0.2,0.1,0.3,0.3,0.3,0.5s-0.2,0.4-0.4,0.4l-3.1,0.9l4.6,2.7
				c0.2,0.1,0.3,0.3,0.3,0.5s-0.2,0.4-0.4,0.4l-3.1,0.9l4.6,2.7c0.2,0.1,0.3,0.3,0.3,0.5s-0.2,0.4-0.4,0.4l-3.2,0.9l2.1,2.1
				c0.1,0.1,0.2,0.2,0.2,0.3L43.3,167.1z"/>
		</g>
		<path class="st9" d="M50.3,134.5c0.2,0.8-0.2,1.6-1,1.8l-29.5,8.5c-0.8,0.2-1.6-0.2-1.8-1l-0.6-2.2c-0.2-0.8,0.2-1.6,1-1.8
			l29.5-8.5c0.8-0.2,1.6,0.2,1.8,1L50.3,134.5z"/>
	</g>
	<g>
		
			<rect x="35" y="150.2" transform="matrix(0.966 -0.2587 0.2587 0.966 -38.8714 15.4909)" class="st13" width="8.8" height="10.5"/>
		<path class="st14" d="M36.2,189.6l12.4,46.3c0,0,12.9,5,22.6-6.1l-12.4-46.3c0,0-1.5-5.7-9.2-7.4L44,155.3l-8.5,2.3L41,178
			C41,178.1,34.5,183.4,36.2,189.6z"/>
		
			<rect x="36.1" y="155.8" transform="matrix(0.966 -0.2587 0.2587 0.966 -40.4207 16.128)" class="st15" width="9.9" height="11.7"/>
		
			<rect x="42.8" y="194.1" transform="matrix(0.966 -0.2587 0.2587 0.966 -52.1972 20.8384)" class="st15" width="20.5" height="29.3"/>
	</g>
	<path class="st7" d="M73,195.4c0,0-7.5-0.2-11.2-0.4l0.6,2.3c0,0-12.5,1.8-14.7,2.9c-2.2,1.1-6.3,6.8-4.3,9.7c0,0-0.9,2.2,1.1,3.6
		c0,0-0.7,3.3,1.7,3.9c0,0-0.4,1.8,1,2.4c0,0,5.7,1.2,11.8-0.3c6.1-1.5,14.2-5.6,17.2-9.3l4.5-10.8L73,195.4z M45.1,208.9l3-3.7
		l4.1-0.9L45.1,208.9z"/>
	<path class="st1" d="M150.4,185.2c0.5-82.5-20.4-83.7-20.4-83.7c-10.5,7.3-8.7,32.2-8.7,32.2l2.4,40.1l-49.6,18.8
		c-5.9,13.3,3.7,18.9,3.7,18.9C138,210.4,150.4,185.2,150.4,185.2z"/>
	<path class="st7" d="M46.3,132.7c-0.2-1.6-4.8-4.5-7.7-5.4c-2.9-0.8-15,4.5-17.3,6.3c-2.4,1.8-1,7.2-1,8s3.3,5,6,6.5
		c2.6,1.4,12.3-3.6,12.3-3.6c2.1-1,4.3-0.5,4.3-0.5C47.6,145.6,46.5,134.3,46.3,132.7z M41.8,139.7c-0.9-3-4.2-7.7-4.2-7.7
		s3.4,1.7,3.9,2.3C42.1,134.9,41.8,139.7,41.8,139.7z"/>
	<g>
		<path class="st16" d="M80.2,71.4c-2.6,0.2-4.7-0.3-4.7-0.3c-0.4-0.1-0.7-0.5-0.6-1c0.1-0.4,0.5-0.7,1-0.6
			c0.3,0.1,7.5,1.9,10.9-3.6c0.2-0.4,0.7-0.5,1.1-0.3s0.5,0.7,0.3,1.1C86.1,70.1,82.9,71.2,80.2,71.4z"/>
	</g>
	<path class="st17" d="M122.7,174.1c0,0,5.8,20.4,10.1,26c0,0-8.5,3.9-10.1,4.3V174.1z"/>
	<path class="st18" d="M122.7,174.1c0,0,5.3,53.3,2.8,93.4l-48.4,1.4c0,0,0.4-73.5-3.1-75.8C74,193.1,78.8,183.6,122.7,174.1z"/>
</g>
</svg>
