<?xml version="1.0" encoding="utf-8"?>
<!-- Generator: Adobe Illustrator 27.4.1, SVG Export Plug-In . SVG Version: 6.00 Build 0)  -->
<svg version="1.1" id="Layer_1" xmlns="http://www.w3.org/2000/svg" xmlns:xlink="http://www.w3.org/1999/xlink" x="0px" y="0px" viewBox="0 0 233.8 450.2" style="enable-background:new 0 0 233.8 450.2;" xml:space="preserve">
<style type="text/css">
	.st0{fill:#60BCD1;}
	.st1{fill:#A4E6ED;}
	.st2{fill:#F7A184;}
	.st3{fill:#212020;}
	.st4{fill:#7D7D7D;}
	.st5{fill:#383635;}
	.st6{opacity:0.15;enable-background:new    ;}
	.st7{opacity:0.15;}
	.st8{fill:#D3D3D3;}
	.st9{fill:#FFFFFF;}
	.st10{fill:#E5E5E5;}
	.st11{fill:#B7B6B6;}
	.st12{fill:#EE8C72;}
	.st13{fill:#DD725E;}
	.st14{opacity:0.14;}
	.st15{fill:#999999;}
	.st16{fill:#707070;}
	.st17{fill:#CE2E1C;}
	.st18{fill:#474747;}
	.st19{fill:#757575;}
	.st20{fill:#3D1A01;}
	.st21{fill:#9E6C47;}
	.st22{fill:#C59061;}
	.st23{fill:#F4F4F4;}
</style>
<g>
	<g>
		<polygon class="st0" points="93.8,109.8 0.4,109.8 0,105.7 94,105.7 		"/>
		<path class="st1" d="M37.6,77V62.3H18.7V77c0,5.4,3.1,9.8,8.2,10.3v16.9h-6.4c-0.4,0-0.7,0.3-0.7,0.8c0,0.4,0.3,0.8,0.7,0.8h15.4
			c0.4,0,0.7-0.3,0.7-0.8c0-0.4-0.3-0.8-0.7-0.8h-6.4V87.3C34.6,86.8,37.6,82.4,37.6,77z"/>
		<path class="st1" d="M65.7,77V62.3H46.8V77c0,5.4,3.1,9.8,8.2,10.3v16.9h-6.4c-0.4,0-0.7,0.3-0.7,0.8c0,0.4,0.3,0.8,0.7,0.8h15.3
			c0.4,0,0.7-0.3,0.7-0.8c0-0.4-0.3-0.8-0.7-0.8h-6.4V87.3C62.7,86.8,65.7,82.4,65.7,77z"/>
	</g>
	<path class="st2" d="M70,114.2c0,0-0.8-4.7-5.3-4.5c-4.6,0.3-41.8-1.5-41.8,1c0,2.6,16.3,4.5,16.3,4.5l14.8,3.2l5.4,4.4L70,114.2z"/>
	<g>
		<path class="st3" d="M180.5,450.2c0,0,0.8-11.3,2.5-16.9c0,0,5.4,0.3,6.9-1.6s10.6-10.2,14.7,0l3,5.6c0,0,14.2-4.3,9.6,12.9H180.5
			z"/>
		<path class="st4" d="M217.3,450.2h-36.8c0,0,0.1-2.3,0.4-4.6h37.2C218,446.8,217.8,448.3,217.3,450.2z"/>
	</g>
	<g>
		<g>
			<g>
				<path class="st3" d="M131.8,428.4c0,0-7.3,6.5-20,10.8c0,0-22.7-7.2-16.7,10.8h59.1c0,0,2-12.9-1.9-21.5c0,0-1.5-0.7-3.6,1.3
					s-9.1,3.1-12.7,2C136.1,431.9,134.1,427.7,131.8,428.4z"/>
				<path class="st4" d="M154.7,445.8c-0.1,2.7-0.4,4.2-0.4,4.2H95.2c-0.6-1.7-0.9-3.2-1-4.2H154.7z"/>
			</g>
		</g>
	</g>
	<g>
		<g>
			<path class="st5" d="M165.4,231.5c0-0.3,0.1-0.7,0.1-1c0.7-10.3-7.1-19.2-17.3-19.8c-10.2-0.7-19.1,7-19.8,17.2h-0.1l0.8,104.7
				v0.1c-0.5,8.5,6,15.9,14.5,16.4c8.6,0.5,15.9-6,16.4-14.5c0-0.5,0-0.9,0-1.4L165.4,231.5z"/>
		</g>
		<g>
			<path class="st5" d="M128.6,428.3c0-0.2-0.1-0.3-0.1-0.5c0-0.1,0-0.2,0.1-0.3L129,335c-0.1-0.8-0.1-1.6-0.1-2.4
				c0.5-8.5,7.9-15.1,16.4-14.5c8.5,0.5,15.1,7.9,14.5,16.4l0,0l0,0l-3.5,94.3h-0.2c0,0.1,0,0.2,0,0.2c-0.1,2.5-6.4,4.2-14,3.9
				c-6.8-0.3-12.3-2.1-13.4-4.2h-0.2L128.6,428.3z"/>
		</g>
		<path class="st6" d="M143.5,349.1c-7.7-0.5-13.7-6.5-14.5-13.9l-0.4,92.3c0,0.1-0.1,0.2-0.1,0.3c0,0.2,0,0.3,0.1,0.5v0.4h0.2
			c1.1,2.1,6.7,3.9,13.4,4.2c7.6,0.3,13.9-1.4,14-3.9c0-0.1,0-0.2,0-0.2h0.2l3.5-94.3l0,0C159.4,343.1,152.1,349.6,143.5,349.1z"/>
	</g>
	<g>
		<g>
			<path class="st5" d="M205.6,233c0-0.3,0.1-0.7,0.1-1c0.2-10.3-7.9-18.8-18.2-19.1c-10.3-0.2-18.8,7.8-19.1,18.1h-0.1l5.3,104.5
				v0.1c-0.1,8.6,6.7,15.6,15.2,15.8c8.6,0.1,15.6-6.7,15.8-15.2c0-0.5,0-0.9,0-1.4L205.6,233z"/>
		</g>
		<g>
			<path class="st5" d="M173.6,335.6c0.1-8.6,7.2-15.4,15.8-15.2c8.6,0.1,15.4,7.2,15.2,15.8l0,0l0,0l0.3,93h-0.2c0,0.1,0,0.2,0,0.2
				c0,2.5-6.2,4.5-13.8,4.5c-6.8,0-12.4-1.6-13.6-3.6h-0.2v-0.4c0-0.2-0.1-0.3-0.1-0.5c0-0.1,0-0.2,0-0.3l-3.3-91.2
				C173.7,337.2,173.6,336.4,173.6,335.6z"/>
		</g>
		<path class="st6" d="M188.9,351.4c-7.7-0.1-14-5.9-15.1-13.3l3.3,91c0,0.1,0,0.2,0,0.3c0,0.2,0,0.3,0.1,0.5v0.4h0.2
			c1.2,2.1,6.8,3.6,13.6,3.6c7.6,0,13.8-2,13.8-4.5c0-0.1,0-0.2,0-0.2h0.2l-0.3-93.1l0,0C204.5,344.7,197.4,351.5,188.9,351.4z"/>
	</g>
	<path class="st5" d="M128.6,217.1c0,0-7.1,37.3,32.4,34.3h11.3c13.2,0,22.8-1.2,27.3-6.8c9.2-8.7,5.2-27.8,5.2-27.8
		c-0.7-2.9-0.2-4.3,0-6L129,211C129.2,212.8,129.1,213.9,128.6,217.1z"/>
	<g class="st7">
		<path d="M205.5,223.8v-0.1l0,0l0,0c-0.2-4-0.8-6.8-0.8-6.8c-0.7-2.9-0.2-4.3,0-6l-75.8,0.2c0.2,1.7,0.2,2.8-0.3,6.1
			c0,0-1.3,6.9,0.3,14.5c10.7,1,23.9,0.4,33.3-0.2l1.9,17.9l41.3-1.1L205.5,223.8L205.5,223.8z"/>
	</g>
	<g>
		<path class="st8" d="M88.5,162.5c0.6-2.7,1.9-6.3,4.4-11.7l1-2.2c8.6-18.3,17.6-37.5,22.6-43.3c0.1-0.1,0.1-0.2,0.2-0.2
			c0.1-0.1,0.3-0.3,0.4-0.4c2.4-2.5,5.8-3.8,9.3-3.6c1.9,0.1,3.8,0.8,5.4,1.8c4.4,2.8,6.3,8,5.1,12.8c0,0.2,0,0.4,0,0.6
			c-11.3,22.2-26.9,58.7-39.8,57.8l0,0c-0.1,0-0.3,0-0.4,0h-0.4c-0.5,0-0.9-0.1-1.4-0.2c-0.6-0.1-1.1-0.2-1.6-0.6
			c-0.1-0.1-0.1-0.1-0.2-0.2c-0.1,0-0.6-0.4-1.3-1c-0.1-0.1-0.2-0.2-0.3-0.3c-0.1-0.1-0.1-0.1-0.2-0.2c-0.2-0.2-0.4-0.4-0.5-0.5
			s-0.1-0.2-0.2-0.2c-0.1-0.1-0.1-0.2-0.2-0.2c-0.6-0.7-1.2-1.5-1.6-2.4c-0.3-0.7-0.6-1.5-0.6-2.5C88.1,164.6,88.2,163.6,88.5,162.5
			z"/>
	</g>
	<g>
		<g>
			<path class="st8" d="M105.7,161.9c1,2.6,0.6,5.5-0.8,7.8c-0.3,0.6-0.6,0.9-0.7,1l-0.2,0.1c-0.3,0.3-0.6,0.7-0.9,1
				c-0.2,0.2-0.7,0.6-1.5,1.1c-0.1,0-0.1,0.1-0.2,0.1c-1.7,1-3.3,1.2-4.8,1.1c-1.3-0.1-2.6-0.4-3.7-1c-0.3-0.2-0.6-0.3-0.7-0.3
				c-0.1-0.1-0.3-0.2-0.4-0.3c-0.7-0.5-1.2-1-1.8-1.6c-13-13-30.7-42.5-32.6-49.6c2.3-2,11.3-7.4,12.6-8.2
				c4.9,4,13.9,13.6,26.7,33.5c2.5,4,4.5,6.9,6.2,9.4C104.4,158.2,105.3,160.2,105.7,161.9z"/>
		</g>
		<path class="st9" d="M57.5,121.3c2.3-2,11.3-7.4,12.6-8.2c1,0.8,2.2,1.8,3.5,3.1l-14.3,9.3C58.3,123.7,57.7,122.3,57.5,121.3z"/>
	</g>
	<g>
		<path class="st10" d="M215,177.7c-1.2-2.4-2.4-6.1-3.7-11.9l-0.6-2.4c-4.5-19.7-9.3-40.4-8.9-48.1c0-0.1,0-0.2,0-0.3
			c0-0.2,0-0.4,0.1-0.5c0.4-3.4,2.2-6.6,5.1-8.6c1.6-1.1,3.4-1.7,5.4-1.9c5.2-0.5,9.9,2.4,11.9,6.9c0.1,0.2,0.3,0.3,0.4,0.5
			c4.9,24.4,15.1,62.8,4.4,70l0,0c-0.1,0.1-0.2,0.2-0.3,0.2l-0.3,0.2c-0.4,0.3-0.8,0.5-1.2,0.7c-0.5,0.2-1,0.5-1.6,0.6
			c-0.1,0-0.2,0-0.3,0c-0.1,0-0.7,0.1-1.7,0c-0.1,0-0.3,0-0.4,0s-0.2,0-0.3,0c-0.3,0-0.5-0.1-0.8-0.1c-0.1,0-0.2,0-0.3,0
			c-0.1,0-0.2,0-0.3-0.1c-0.9-0.2-1.9-0.4-2.8-0.9c-0.7-0.4-1.4-0.8-2-1.6C216,179.6,215.4,178.7,215,177.7z"/>
	</g>
	<polygon class="st11" points="174.7,86 151.7,86 151.4,88.6 160.5,100.5 164.8,100 174.4,89.6 	"/>
	<g>
		<path class="st10" d="M206,155.8c0.7-10.1,7-24.2,11.4-35.1c4.1-1,7.1-4.7,7.1-9.1c0-5.2-7-8.7-11.9-10.3
			c-1.5-0.5-2.7-0.8-3.8-1.1c-12.5-6.3-32-6.3-32-6.3L151,94.6c0,0-13.8,0.6-29.7,8.1c0,0,0.5,13,0.7,24.5
			c0.1,6.9,5.9,46.5,5.7,56.2c0.7,6.9-0.1,24.5-0.9,35.3c0,0.1,0.1,0.3,0.2,0.4c0.8,2,18.3,3.7,39.8,3.7c21.3,0,38.6-1.6,39.8-3.6
			c0,0,0,0,0.1,0c0-0.1,0-0.1,0-0.2l0,0c0.1-6.8-2.2-24.4-2-30.9C205.1,177.3,205.2,166.5,206,155.8z"/>
	</g>
	<g>
		<g>
			<path class="st12" d="M163.4,106.7c9.1-0.2,17.1-6.2,17.5-12.5c-8.3-0.8-15.6,0-15.6,0h-1.9c0,0-7.4-0.4-16.8,1.1
				C147.6,101.3,154.5,106.9,163.4,106.7z"/>
			<rect x="154.3" y="79.6" class="st12" width="17.6" height="18"/>
			<path class="st13" d="M154.3,82.1v5.1c3.6,1.1,11,3,17.6,3.2v-8.2L154.3,82.1L154.3,82.1z"/>
		</g>
	</g>
	<path class="st10" d="M160.6,153.7c9.8-12.2,21.3-51.4,23.3-59.4c-0.6-0.1-6.9-0.6-6.9-0.6l-16.1,5.6l-9.8-4.7c0,0-6.1,0.6-8.9,1.2
		C146.1,115.9,160.6,153.7,160.6,153.7z"/>
	<g class="st14">
		<path d="M180.4,94c-1.7-0.1-3.4-0.3-3.4-0.3l-16.1,5.6l-9.8-4.7c0,0-2.9,0.3-5.5,0.6l2.8,4.4c-2.5,5.6,1.3,11.2,1.3,11.2
			c4.3-0.7,8-3.5,8.4-3.9h0.1c2.2,1.4,6.3,0.6,6.3,0.6c4.6,4.5,8.8,3.3,8.8,3.3c2.5-4,2.9-7.3,2.7-9.5L180.4,94z"/>
	</g>
	<path class="st15" d="M160.5,209.4l0.5-58.3c-0.1,0.1-0.2,0.3-0.3,0.4c0,0-14.6-35.6-18.5-55.6c-5.4,1.1-13.1,2.1-21.1,5.8
		c0,0,0.7,14,0.8,25.5c0.1,6.9,5.9,46.5,5.7,56.2c0.6,5.7-0.8,24.3-1.4,34.8l19.8,2.1L160.5,209.4z"/>
	<path class="st15" d="M204.7,188c0.2-6.9,0.4-13.8,0.7-20.7c-8.1-24.4,3.8-57.4,7.4-66.6c-0.4-0.1-14.9-6.1-28.9-6.4
		c-1.9,8-13.5,45-23.3,57.2c0,0-0.1-0.1-0.2-0.4v58.3l12.8,11.9c0,0,23.9-0.4,34.5-3.8C207.2,209.5,204.6,192.7,204.7,188z"/>
	<polygon class="st10" points="179.5,93.9 174.7,86 161,98.9 170.3,107.4 	"/>
	<polygon class="st10" points="161,98.9 153.9,106.6 146.7,95 151.7,86.1 	"/>
	<circle class="st16" cx="167.8" cy="177.5" r="3.7"/>
	<circle class="st16" cx="167.8" cy="203.1" r="3.7"/>
	<polygon class="st16" points="161.3,150.7 160.6,151.5 160,149.9 160,209.8 160.5,209.4 161.3,210.2 	"/>
	<path class="st17" d="M158.4,105.4c0,0-3.6,3-8,3.7c0,0-4.5-6.6-0.1-12.5c0,0,4.4,0.5,8.3,3.2c0,0,3-1.9,6.2,0.2
		c0,0,4.1-3.1,9.5-3.5c0,0,3.4,4.8-1.5,12.6c0,0-4,1.1-8.4-3.1C164.4,106,160.4,106.8,158.4,105.4z"/>
	<g>
		<g>
			<path class="st18" d="M139,47.6c0,0-2.8-11.9-0.8-21.1l8.6-7.2L139,47.6z"/>
			<g>
				<path class="st12" d="M143,44.5c0,0-8.5-3-8.5,5.5s8.5,5.9,8.5,5.9V44.5z"/>
				<path class="st2" d="M184.7,44.5c0,0,8.5-3,8.5,5.5s-8.5,5.9-8.5,5.9V44.5z"/>
				<path class="st2" d="M185.5,59.4c0,13.8-10.4,25.1-23.3,25.1l0,0c-12.9,0-23.3-11.2-23.3-25.1V37.1c0-13.9,10.4-25.1,23.3-25.1
					l0,0c12.9,0,23.3,11.2,23.3,25.1V59.4z"/>
				<path class="st12" d="M150.2,24.7c0,0,4.8,1,6.1,2c0.1,0.1,3.5-1.5,3.8-1.7c1.5-0.5,3-0.8,4.6-0.8c2.2,0.1,4.4,0.7,6.6,1.1
					c4.9,0.8,9.9,2,13.5,5.7c-2.5-11-11.7-19.1-22.6-19.1c-10.2,0-18.9,7.1-22,16.9C142.6,26.5,146.5,23.6,150.2,24.7z"/>
				<path class="st12" d="M182.6,25c1.4,3.2,2.2,6.8,2.2,10.5v22.2c0,13.8-10.4,25.1-23.3,25.1c-8.8,0-16.4-5.2-20.4-12.9
					c3.7,8.6,11.7,14.5,21.1,14.5c12.9,0,23.3-11.2,23.3-25.1V37.1C185.5,32.7,184.5,28.6,182.6,25z"/>
			</g>
			<path class="st18" d="M183.4,54.2c0,0,2.5-2.8,3.6-7.4c1-4.6,6.8-10.9,6.1-17c0,0,2.8-5.6-4.1-10.7c-5.5-4.1-5.1-8.6-8.4-11.7
				c-3.3-3-15.5-9.4-27.4-3.8c0,0-5.1,2.8-6.6,5.8c0,0,2.3-7.6,7.9-9.4c0,0-19.8,1.5-16.2,27.9l-0.1,6.2c0,0,2.2-18.1,18.9-11.8
				c0,0,15-4.8,23.6,4.6c0,0,1.3,2.8,0.8,9.6l1.3-2C182.7,34.7,182.9,43.1,183.4,54.2z"/>
			<path class="st18" d="M183,10.8c0,0,5.9,6.1,9.2,6.9c3.3,0.8,7.4,9.7,4.9,15.8S184.3,52.2,184.3,54l-0.5,1.3L183,10.8z"/>
			<path class="st19" d="M139.7,23c0.2,0,0.3-0.2,0.3-0.4l0,0c0,0-0.1-0.7-0.1-1.9l0,0c0-2.5,0.6-7.3,4.2-12.4l0,0
				c0.1-0.2,0.1-0.4-0.1-0.5l0,0c-0.2-0.1-0.4-0.1-0.5,0.1l0,0c-3.7,5.3-4.3,10.2-4.3,12.8l0,0c0,1.3,0.1,2,0.1,2l0,0
				C139.3,22.8,139.4,23,139.7,23L139.7,23C139.6,23,139.6,23,139.7,23L139.7,23z"/>
			<path class="st19" d="M145.4,9.3c0,0,0.3-0.9,0.8-2l0,0c0.5-1.1,1.1-2.3,1.7-2.9l0,0c0.1-0.1,0.1-0.4,0-0.5l0,0
				c-0.1-0.1-0.4-0.1-0.5,0l0,0c-1.5,1.5-2.6,5.2-2.6,5.3l0,0c-0.1,0.2,0,0.4,0.2,0.5l0,0h0.1l0,0C145.2,9.6,145.4,9.5,145.4,9.3
				L145.4,9.3z"/>
			<path class="st19" d="M148.9,9.9c0,0,0.2-0.4,0.8-1l0,0c0.5-0.6,1.3-1.4,2.4-2.2l0,0c2.2-1.6,5.6-3.1,10.5-3.1l0,0
				c1.7,0,3.6,0.2,5.6,0.6l0,0c0.2,0,0.4-0.1,0.4-0.3l0,0c0-0.2-0.1-0.4-0.3-0.4l0,0c-2.1-0.5-4-0.7-5.8-0.7l0,0
				c-10.1,0-14.3,6.6-14.4,6.6l0,0l0,0c-0.1,0.2-0.1,0.4,0.1,0.5l0,0c0.1,0,0.1,0.1,0.2,0.1l0,0C148.7,10.1,148.9,10.1,148.9,9.9
				L148.9,9.9z"/>
			<path class="st19" d="M196,33.3c0.6-1.8,0.8-3.4,0.8-4.8l0,0c0-6.8-5.6-8.4-5.6-8.4l0,0l0,0c-0.2-0.1-0.4,0.1-0.5,0.3l0,0
				c-0.1,0.2,0.1,0.4,0.3,0.5l0,0c0,0,0.3,0.1,0.8,0.3l0,0c0.5,0.2,1.1,0.6,1.8,1.2l0,0c1.3,1.1,2.6,3,2.6,6.2l0,0
				c0,1.3-0.2,2.8-0.8,4.6l0,0c-0.1,0.2,0,0.4,0.2,0.5l0,0h0.1l0,0C195.8,33.6,195.9,33.5,196,33.3L196,33.3z"/>
			<path class="st19" d="M191.5,39.9c2.6-4.1,3.1-7.8,3.1-9.8l0,0c0-1.1-0.1-1.7-0.1-1.7l0,0c0-0.2-0.2-0.3-0.4-0.3l0,0
				c-0.2,0-0.3,0.2-0.3,0.4l0,0c0,0,0.1,0.6,0.1,1.6l0,0c0,1.9-0.4,5.4-3,9.4l0,0c-0.1,0.2-0.1,0.4,0.1,0.5l0,0
				c0.1,0,0.1,0.1,0.2,0.1l0,0C191.3,40.1,191.4,40,191.5,39.9L191.5,39.9z"/>
			<path class="st19" d="M157.3,20.8c0,0,0.9-0.6,2.4-1.2l0,0c1.5-0.6,3.7-1.2,6.1-1.2l0,0c1.8,0,3.8,0.3,5.8,1.3l0,0
				c0.2,0.1,0.4,0,0.5-0.2l0,0c0.1-0.2,0-0.4-0.2-0.5l0,0c-2.1-1-4.2-1.4-6.1-1.4l0,0c-5.1,0-8.9,2.6-8.9,2.6l0,0l0,0
				c-0.2,0.1-0.2,0.3-0.1,0.5l0,0c0.1,0.1,0.2,0.2,0.3,0.2l0,0C157.2,20.8,157.3,20.8,157.3,20.8L157.3,20.8z"/>
			<path class="st19" d="M144.2,21c1.4-1.9,3.3-2.4,5.2-2.4l0,0c1.4,0,2.8,0.3,3.9,0.7l0,0c1,0.3,1.7,0.7,1.7,0.7l0,0l0,0
				c0.2,0.1,0.4,0,0.5-0.2l0,0c0.1-0.2,0-0.4-0.2-0.5l0,0c0,0-2.8-1.4-5.9-1.4l0,0c-2,0-4.3,0.6-5.8,2.7l0,0
				c-0.1,0.2-0.1,0.4,0.1,0.5l0,0c0.1,0.1,0.1,0.1,0.2,0.1l0,0C144,21.2,144.1,21.1,144.2,21L144.2,21z"/>
		</g>
		<g>
			<path class="st20" d="M149,51.2c0,1.8-0.7,3.2-1.6,3.2s-1.6-1.4-1.6-3.2c0-1.8,0.7-3.2,1.6-3.2S149,49.4,149,51.2z"/>
			<path class="st20" d="M170.8,51.2c0,1.8-0.7,3.2-1.6,3.2s-1.6-1.4-1.6-3.2c0-1.8,0.7-3.2,1.6-3.2C170.1,48,170.8,49.4,170.8,51.2
				z"/>
			<g>
				<path class="st9" d="M152.4,64.4h15.1c0,0,1.5,0,0.4,2.3c-0.7,1.5-2.5,6-7.7,6.1c-6.2,0.2-8.3-6.3-8.3-6.3
					S150.8,64.4,152.4,64.4z"/>
				<path class="st9" d="M168.1,66c0.5-1.7-0.7-1.6-0.7-1.6h-15.1c-1.1,0-0.9,1.2-0.6,1.8C154.6,66.9,160.6,67.9,168.1,66z"/>
			</g>
			<path class="st12" d="M157.3,54.9c0,0-3.6-0.1-3.6,3s5.6,2.3,5.8,0C159.6,55.5,159.9,38.5,157.3,54.9z"/>
			<g>
				<path class="st18" d="M172,44.5c-1-0.3-2-0.5-3.1-0.5l0,0c-1,0-2.1,0.2-3.1,0.5l0,0c-0.4,0.1-0.8-0.1-0.9-0.5l0,0
					c-0.1-0.4,0.1-0.8,0.5-0.9l0,0c1.1-0.4,2.3-0.6,3.5-0.6l0,0c1.2,0,2.4,0.2,3.5,0.6l0,0c0.4,0.1,0.6,0.5,0.5,0.9l0,0
					c-0.1,0.3-0.4,0.5-0.7,0.5l0,0C172.1,44.6,172,44.6,172,44.5L172,44.5z"/>
			</g>
			<g>
				<path class="st18" d="M141.7,44.1c-0.1-0.4,0.1-0.8,0.5-0.9l0,0c1.1-0.4,2.3-0.6,3.5-0.6l0,0c1.2,0,2.4,0.2,3.5,0.6l0,0
					c0.4,0.1,0.6,0.5,0.5,0.9l0,0c-0.1,0.4-0.5,0.6-0.9,0.5l0,0c-1-0.3-2-0.5-3.1-0.5l0,0c-1,0-2.1,0.2-3.1,0.5l0,0
					c-0.1,0-0.1,0-0.2,0l0,0C142.1,44.6,141.8,44.4,141.7,44.1L141.7,44.1z"/>
			</g>
			<path class="st12" d="M181.6,58.5c0,1.1-2.4,2-5.4,2s-5.4-0.9-5.4-2s2.4-2,5.4-2C179.2,56.6,181.6,57.5,181.6,58.5z"/>
			<path class="st12" d="M148.8,58.5c0,0.6-1.4,1.1-3.1,1.1s-3.1-0.5-3.1-1.1s1.4-1.1,3.1-1.1C147.4,57.4,148.8,57.9,148.8,58.5z"/>
		</g>
	</g>
	<g>
		<g>
			<polygon class="st21" points="177.5,191 178.4,188.9 161.6,151.8 138.2,158.6 137.4,160.4 			"/>
			<polygon class="st22" points="177.6,191.2 160.3,153.8 137.4,160.6 154.5,199 			"/>
		</g>
		<g>
			<g>
				<path class="st2" d="M170.2,179.6c-1-4.8-6-5-6-5s-7.3-3.5-10.1-2.9c-3.6,0.7-9.2-0.5-9.2-0.5s-1.6,4.3,5,4.8c0,0-7.1,2-6.9,4.3
					c0,0,0.1,1.2,1.1,2.3c0,0-1.7,2.5,1.1,4.2c0,0-0.7,2.8,1.6,3.6c0,0-0.9,1.9,1.6,2.6c2.6,0.7,2.8,0.8,7.7,0.6
					c0,0,9.6-2.3,12.2-6.8C168.3,186.6,171.2,184.4,170.2,179.6z"/>
			</g>
			<g>
				<path class="st10" d="M224.8,165.4c2.8,0.4,5.2,2,6.6,4.3c0.4,0.6,0.6,1,0.6,1.1v0.2c0.2,0.4,0.3,0.8,0.4,1.3
					c0.1,0.3,0.2,0.9,0.3,1.8c0,0.1,0,0.1,0,0.2c0.1,1.9-0.5,3.5-1.2,4.7c-0.7,1.1-1.5,2.1-2.6,2.9c-0.3,0.2-0.5,0.4-0.6,0.5
					s-0.3,0.1-0.5,0.2c-0.7,0.4-1.5,0.6-2.3,0.8c-17.5,5.5-51.9,7.5-59.1,6c-0.7-2.9-1.3-13.5-1.5-14.9c5.8-2.5,18.4-6,42-8.2
					c4.7-0.4,8.3-0.8,11.2-1.1C220.9,164.9,223,165,224.8,165.4z"/>
			</g>
			<path class="st9" d="M166.5,189.4c-0.7-2.9-1.3-13.5-1.5-14.9c1.2-0.5,2.6-1.1,4.4-1.6l1.6,17C169,189.8,167.5,189.6,166.5,189.4
				z"/>
		</g>
		<path class="st6" d="M208.2,187.2c3.5-0.5,6.9-1.2,10.1-1.8c-2.5-8.2-8.7-19.3-8.7-19.3L208.2,187.2z"/>
		<path class="st23" d="M209.5,165.9c0,0,6.9,37.2,7.2,76.1l-46.8,4.6c0,0-4.5-71.2-8-73.3C161.8,173.3,157.6,170.5,209.5,165.9z"/>
	</g>
</g>
</svg>
