<?xml version="1.0" encoding="utf-8"?>
<!-- Generator: Adobe Illustrator 27.4.1, SVG Export Plug-In . SVG Version: 6.00 Build 0)  -->
<svg version="1.1" xmlns="http://www.w3.org/2000/svg" xmlns:xlink="http://www.w3.org/1999/xlink" x="0px" y="0px" viewBox="0 0 1200 608" style="enable-background:new 0 0 1200 608;" xml:space="preserve">
<style type="text/css">
	.st0{fill:#F1F2F2;}
	.st1{fill:#87BD3D;}
	.st2{fill:#AADB69;}
	.st3{fill:#A7A9AC;}
	.st4{fill:#D1D3D4;}
	.st5{fill:#8E979E;}
	.st6{opacity:0.2;}
	.st7{fill:#C2B59B;}
	.st8{opacity:0.3;fill:#939598;enable-background:new    ;}
	.st9{opacity:0.22;fill:url(#SVGID_1_);enable-background:new    ;}
	.st10{opacity:0.2;fill:url(#SVGID_00000143619756296192784380000018142568282426219167_);enable-background:new    ;}
	.st11{opacity:0.2;fill:url(#SVGID_00000043433794566289973200000012360939475956220315_);enable-background:new    ;}
	.st12{fill:#E6E7E8;}
	.st13{opacity:0.34;}
	.st14{fill:#FFFFFF;}
	.st15{fill:#9B8579;}
	.st16{fill:#808285;}
	.st17{fill:#B7ACA1;}
	.st18{fill:#FBB040;}
	.st19{fill:#F8E05E;}
	.st20{fill:#F8BD63;}
	.st21{fill:#8B5E3C;}
	.st22{fill:#414042;}
	.st23{fill:#65B056;}
	.st24{fill:#58595B;}
	.st25{opacity:0.56;fill:#FFEAD6;enable-background:new    ;}
	.st26{fill:#683738;}
	.st27{fill:#AB5B5D;}
	.st28{fill:#422A2B;}
	.st29{opacity:0.1;}
	.st30{opacity:0.7;fill:#FFFFFF;enable-background:new    ;}
	.st31{opacity:0.3;fill:#D3D3D3;enable-background:new    ;}
	.st32{fill:#DDDDDD;}
	.st33{fill:#FAA284;}
	.st34{fill:#EF8D72;}
	.st35{fill:#474747;}
	.st36{fill:#383635;}
	.st37{opacity:0.15;enable-background:new    ;}
	.st38{fill:#212020;}
	.st39{fill:#A8ADAD;}
	.st40{fill:#EE8C72;}
	.st41{fill:#DD725E;}
	.st42{fill:#EAEAEA;}
	.st43{opacity:0.12;fill:#666666;enable-background:new    ;}
	.st44{fill:#EBF1F2;}
	.st45{fill:#F7A184;}
	.st46{fill:#D24646;}
	.st47{fill:#3D1A01;}
	.st48{fill:#CE2E1C;}
	.st49{fill:#757575;}
	.st50{fill:#775745;}
	.st51{fill:#96725A;}
	.st52{fill:#895B3D;}
	.st53{fill:#6E492F;}
	.st54{fill:#363636;}
	.st55{fill:#4D3019;}
	.st56{fill:#594D41;}
	.st57{fill:#42382F;}
	.st58{fill:#7A6F64;}
	.st59{fill:#333333;}
	.st60{fill:#232323;}
	.st61{fill:#F4A984;}
	.st62{fill:#D3D3D3;}
	.st63{fill:#D6D6D6;}
	.st64{fill:#E8E8E8;}
	.st65{fill:#D87C60;}
	.st66{fill:#6A371A;}
	.st67{fill:#8E5931;}
	.st68{fill:#B57E59;}
	.st69{fill:#BFBDBB;}
	.st70{fill:#F4F4F4;}
	.st71{fill:#E5E5E5;}
	.st72{fill:#7D7D7D;}
	.st73{fill:#B7B6B6;}
	.st74{opacity:0.14;}
	.st75{fill:#999999;}
	.st76{fill:#707070;}
	.st77{fill:#444445;}
</style>
<g id="Layer_1">
	<g>
		<rect x="-132.7" y="136.3" class="st0" width="1365.1" height="206.5"/>
		<g>
			<g>
				<path class="st1" d="M624.6,205.3c-65.5,0-118.7,44.6-118.7,99.8h237.4C743.3,250,690.1,205.3,624.6,205.3z"/>
				<path class="st1" d="M158,212.4c-50,0-90.6,41.5-90.6,92.7h181.1C248.7,254,208.1,212.4,158,212.4z"/>
				<path class="st1" d="M162.5,305.1c0-52.2-39.5-96.8-94.9-114.1v114.1H162.5z"/>
				<path class="st1" d="M993.8,199.8c-57.1,0-103.3,47.1-103.3,105.3h206.7C1097.1,246.9,1050.8,199.8,993.8,199.8z"/>
			</g>
			<path class="st1" d="M1232.2,267.7c-8.2-16.5-25.1-27.9-44.7-27.9c-21.9,0-40.4,14.1-47.2,33.7c-6-3.1-12.9-4.9-20.2-4.9
				c-21,0-38.6,14.6-43.3,34.3c-10.9-13.9-27.8-22.8-46.9-22.8c-10.3,0-20.1,2.6-28.6,7.4c-10.7-16.2-29-26.9-49.9-26.9
				c-15.2,0-29.2,5.8-39.6,15.2c-9.4-20.3-30.1-34.5-54.1-34.5c-21.4,0-40,11.2-50.5,28.1c-7.2-4-15.3-6.1-24.1-6.1
				c-7.5,0-14.5,1.7-20.9,4.7c-8.2-16.5-25.1-27.9-44.7-27.9c-21.9,0-40.4,14.1-47.2,33.7c-6-3.1-12.9-4.9-20.2-4.9
				c-20.1,0-37.1,13.4-42.6,31.8c-10.9-12.2-26.7-19.9-44.3-19.9c-10.3,0-20.1,2.6-28.6,7.4c-10.7-16.2-29-26.9-49.9-26.9
				c-15.2,0-29.2,5.8-39.6,15.2c-9.4-20.3-30.1-34.5-54.1-34.5c-21.4,0-40,11.2-50.5,28.1c-7.2-4-15.3-6.1-24.1-6.1
				c-7.5,0-14.5,1.7-20.9,4.7c-8.2-16.5-25.1-27.9-44.7-27.9c-21.9,0-40.4,14.1-47.2,33.7c-6-3.1-12.9-4.9-20.2-4.9
				c-18.7,0-34.6,11.6-41.2,27.9c-9.5-6.5-21.1-10.3-33.5-10.3c-10.3,0-20.1,2.6-28.6,7.4c-3.4-5.1-7.5-9.8-12.3-13.6v24.6h1165
				v-37.6C1232.4,267.6,1232.3,267.6,1232.2,267.7z"/>
		</g>
		<g>
			<g>
				<path class="st2" d="M632.9,271.6c-29.6,0-53.7,20.2-53.7,45.2h107.4C686.7,291.9,662.6,271.6,632.9,271.6z"/>
				<path class="st2" d="M421.6,274.8c-22.7,0-41,18.9-41,42h82.1C462.6,293.6,444.2,274.8,421.6,274.8z"/>
				<path class="st2" d="M357.2,261.6c-36.7,0-66.3,24.8-66.3,55.2h132.8C423.6,286.3,393.9,261.6,357.2,261.6z"/>
				<path class="st2" d="M800.1,269.2c-25.9,0-46.8,21.4-46.8,47.7h93.7C846.9,290.5,825.9,269.2,800.1,269.2z"/>
			</g>
			<g>
				<path class="st2" d="M951.4,276.6c-20.1,0-36.5,18.1-36.5,40.2h72.9C987.9,294.6,971.5,276.6,951.4,276.6z"/>
			</g>
			<path class="st2" d="M969.5,316.9c-1.2-11.4-10.8-20.2-22.5-20.2c-5.9,0-11.4,2.3-15.3,6c-3.9-3.1-8.7-4.9-14-4.9
				c-3.4,0-6.6,0.8-9.4,2c-3.7-7.5-11.4-12.6-20.3-12.6c-9.9,0-18.3,6.4-21.4,15.3c-2.7-1.4-5.8-2.2-9.2-2.2
				c-9.5,0-17.5,6.7-19.5,15.6c-5-6.2-12.6-10.3-21.2-10.3c-4.7,0-9.1,1.2-12.9,3.3c-4.9-7.4-13.2-12.2-22.6-12.2
				c-6.9,0-13.2,2.6-17.9,6.9c-4.3-9.2-13.6-15.7-24.5-15.7c-9.7,0-18.2,5.1-22.9,12.7c-3.2-1.8-6.9-2.8-10.9-2.8
				c-3.4,0-6.6,0.8-9.4,2c-3.7-7.5-11.4-12.6-20.3-12.6c-9.9,0-18.3,6.4-21.4,15.3c-2.7-1.4-5.8-2.2-9.2-2.2
				c-9.1,0-16.8,6.1-19.3,14.4c-5-5.5-12.2-9-20.1-9c-4.7,0-9.1,1.2-12.9,3.3c-4.9-7.4-13.2-12.2-22.6-12.2
				c-6.9,0-13.2,2.6-17.9,6.9c-4.3-9.2-13.6-15.7-24.5-15.7c-9.7,0-18.2,5.1-22.9,12.7c-3.2-1.8-6.9-2.8-10.9-2.8
				c-3.4,0-6.6,0.8-9.4,2c-3.7-7.5-11.4-12.6-20.3-12.6c-9.9,0-18.3,6.4-21.4,15.3c-2.7-1.4-5.8-2.2-9.2-2.2
				c-8.5,0-15.7,5.2-18.6,12.6c-4.3-3-9.5-4.7-15.2-4.7c-4.7,0-9.1,1.2-12.9,3.3c-4.9-7.4-13.2-12.2-22.6-12.2
				c-6.9,0-13.2,2.6-17.9,6.9c-4.3-9.2-13.6-15.7-24.5-15.7c-9.7,0-18.2,5.1-22.9,12.7c-3.2-1.8-6.9-2.8-10.9-2.8
				c-3.4,0-6.6,0.8-9.4,2c-3.7-7.5-11.4-12.6-20.3-12.6c-9.9,0-18.3,6.4-21.4,15.3c-2.7-1.4-5.8-2.2-9.2-2.2
				c-6.2,0-11.8,2.8-15.4,7.3c-3.7-2-8.1-3.2-12.7-3.2s-9.1,1.2-12.9,3.3c-4.9-7.4-13.2-12.2-22.6-12.2c-6.9,0-13.2,2.6-17.9,6.9
				c-4.3-9.2-13.6-15.7-24.5-15.7c-9.7,0-18.2,5.1-22.9,12.7c-3.2-1.8-6.9-2.8-10.9-2.8c-3.4,0-6.6,0.8-9.4,2
				c-3.7-7.5-11.4-12.6-20.3-12.6c-9.2,0-17,5.5-20.6,13.3c-3.3-2.8-7.6-4.5-12.4-4.5c-10.4,0-19,8.5-19,19h37.9l0,0h926.4V316.9z"/>
		</g>
		<g>
			<rect x="199.5" y="162.3" class="st3" width="38.5" height="154.4"/>
			<rect x="223.7" y="162.3" class="st4" width="14.3" height="154.4"/>
		</g>
		<g>
			<rect x="281.3" y="162.3" class="st3" width="29.6" height="154.4"/>
			<rect x="299.9" y="162.3" class="st4" width="11" height="154.4"/>
		</g>
		<g>
			<rect x="345.5" y="162.3" class="st3" width="26.9" height="154.4"/>
			<rect x="362.5" y="162.3" class="st4" width="10" height="154.4"/>
		</g>
		<g>
			<rect x="815.6" y="162.4" class="st3" width="38.5" height="154.4"/>
			<rect x="815.5" y="162.4" class="st4" width="14.3" height="154.4"/>
		</g>
		<g>
			<rect x="777.7" y="162.4" class="st3" width="29.6" height="154.4"/>
			<rect x="777.7" y="162.4" class="st4" width="11" height="154.4"/>
		</g>
		<g>
			<rect x="727.9" y="162.4" class="st3" width="26.9" height="154.4"/>
			<rect x="727.9" y="162.4" class="st4" width="10" height="154.4"/>
		</g>
		<g>
			<rect x="-132.7" y="327" class="st5" width="1365.1" height="327.5"/>
		</g>
		<g class="st6">
			<g>
				<g>
					<polygon class="st7" points="-121.4,342.8 -126.1,342.8 -132.7,343 -132.7,343.2 					"/>
				</g>
			</g>
			<g>
				<g>
					<polygon class="st7" points="-70.8,342.8 -75.4,342.8 -132.7,345.5 -132.7,345.7 					"/>
				</g>
			</g>
			<g>
				<g>
					<polygon class="st7" points="-20.1,342.8 -24.8,342.8 -132.7,348.2 -132.7,348.4 					"/>
				</g>
			</g>
			<g>
				<g>
					<polygon class="st7" points="30.5,342.8 25.9,342.8 -132.7,351.4 -132.7,351.6 					"/>
				</g>
			</g>
			<g>
				<g>
					<polygon class="st7" points="81.2,342.8 76.5,342.8 -132.7,355 -132.7,355.4 					"/>
				</g>
			</g>
			<g>
				<g>
					<polygon class="st7" points="131.8,342.8 127.2,342.8 -132.7,359.3 -132.7,359.8 					"/>
				</g>
			</g>
			<g>
				<g>
					<polygon class="st7" points="182.5,342.8 177.8,342.8 -132.7,364.5 -132.7,364.9 					"/>
				</g>
			</g>
			<g>
				<g>
					<polygon class="st7" points="233.1,342.8 228.3,342.8 -132.7,370.6 -132.7,371.3 					"/>
				</g>
			</g>
			<g>
				<g>
					<polygon class="st7" points="283.8,342.8 279,342.8 -132.7,378.2 -132.7,379 					"/>
				</g>
			</g>
			<g>
				<g>
					<polygon class="st7" points="334.4,342.8 329.6,342.8 -132.7,387.8 -132.7,388.9 					"/>
				</g>
			</g>
			<g>
				<g>
					<polygon class="st7" points="385.1,342.8 380.3,342.8 -132.7,400.6 -132.7,401.9 					"/>
				</g>
			</g>
			<g>
				<g>
					<polygon class="st7" points="435.7,342.8 430.9,342.8 -132.7,417.7 -132.7,419.6 					"/>
				</g>
			</g>
			<g>
				<g>
					<polygon class="st7" points="486.4,342.8 481.6,342.8 -132.7,442.5 -132.7,445.3 					"/>
				</g>
			</g>
			<g>
				<g>
					<polygon class="st7" points="537,342.8 532.2,342.8 -132.7,481.3 -132.7,486.1 					"/>
				</g>
			</g>
			<g>
				<g>
					<polygon class="st7" points="587.7,342.8 582.9,342.8 -132.7,551 -132.7,560.4 					"/>
				</g>
			</g>
			<g>
				<g>
					<polygon class="st7" points="638.3,342.8 633.5,342.8 -13.3,654.5 30.5,654.5 					"/>
				</g>
			</g>
			<g>
				<g>
					<polygon class="st7" points="689,342.8 684.2,342.8 461.6,654.5 505.4,654.5 					"/>
				</g>
			</g>
			<g>
				<g>
					<polygon class="st7" points="739.6,342.8 734.8,342.8 936.5,654.5 980.4,654.5 					"/>
				</g>
			</g>
			<g>
				<g>
					<polygon class="st7" points="790.3,342.8 785.5,342.8 1232.5,565.4 1232.5,550 					"/>
				</g>
			</g>
			<g>
				<g>
					<polygon class="st7" points="840.9,342.8 836.1,342.8 1232.5,460.4 1232.5,454.9 					"/>
				</g>
			</g>
			<g>
				<g>
					<polygon class="st7" points="891.6,342.8 886.8,342.8 1232.5,415.8 1232.5,412.9 					"/>
				</g>
			</g>
			<g>
				<g>
					<polygon class="st7" points="942.2,342.8 937.4,342.8 1232.5,391.1 1232.5,389.4 					"/>
				</g>
			</g>
			<g>
				<g>
					<polygon class="st7" points="992.9,342.8 988.1,342.8 1232.5,375.6 1232.5,374.3 					"/>
				</g>
			</g>
			<g>
				<g>
					<polygon class="st7" points="1043.4,342.8 1038.7,342.8 1232.5,364.7 1232.5,363.9 					"/>
				</g>
			</g>
			<g>
				<g>
					<polygon class="st7" points="1094.1,342.8 1089.4,342.8 1232.5,356.8 1232.5,356.2 					"/>
				</g>
			</g>
			<g>
				<g>
					<polygon class="st7" points="1144.7,342.8 1140.1,342.8 1232.5,350.7 1232.5,350.3 					"/>
				</g>
			</g>
			<g>
				<g>
					<polygon class="st7" points="1195.4,342.8 1190.7,342.8 1232.5,345.9 1232.5,345.6 					"/>
				</g>
			</g>
		</g>
		<polygon class="st8" points="1232.5,507.5 -132.7,410 -132.7,654.5 1232.5,654.5 		"/>
		<polygon class="st8" points="1087.6,366.3 1232.5,390.7 1232.5,366.3 		"/>
		<polygon class="st8" points="-45.3,366.3 -132.7,366.3 -132.7,373.2 		"/>
		
			<linearGradient id="SVGID_1_" gradientUnits="userSpaceOnUse" x1="-45.3494" y1="256.9478" x2="1232.4927" y2="256.9478" gradientTransform="matrix(1 0 0 -1 0 608)">
			<stop offset="0" style="stop-color:#FFFFFF"/>
			<stop offset="1" style="stop-color:#000000"/>
		</linearGradient>
		<rect x="-45.3" y="335.8" class="st9" width="1277.8" height="30.4"/>
		
			<linearGradient id="SVGID_00000018227846193039874680000018374282679356768156_" gradientUnits="userSpaceOnUse" x1="1209.0414" y1="-27.0702" x2="1209.0414" y2="261.6738" gradientTransform="matrix(1 0 0 -1 0 608)">
			<stop offset="0" style="stop-color:#FFFFFF"/>
			<stop offset="1" style="stop-color:#000000"/>
		</linearGradient>
		
			<rect x="1185.6" y="366.3" style="opacity:0.2;fill:url(#SVGID_00000018227846193039874680000018374282679356768156_);enable-background:new    ;" width="46.9" height="288.2"/>
		
			<linearGradient id="SVGID_00000022544878220498747380000015859462413589503155_" gradientUnits="userSpaceOnUse" x1="-88.0502" y1="-27.0702" x2="-88.0502" y2="261.6772" gradientTransform="matrix(1 0 0 -1 0 608)">
			<stop offset="0" style="stop-color:#FFFFFF"/>
			<stop offset="1" style="stop-color:#000000"/>
		</linearGradient>
		
			<rect x="-132.7" y="366.3" style="opacity:0.2;fill:url(#SVGID_00000022544878220498747380000015859462413589503155_);enable-background:new    ;" width="89.3" height="288.2"/>
		<rect x="-132.7" y="-145.2" class="st4" width="1365.1" height="281.6"/>
		<g>
			<rect x="902.9" y="163.7" class="st12" width="36" height="153.2"/>
		</g>
		<g>
			<rect x="-132.7" y="302.2" class="st4" width="1365.1" height="40.5"/>
		</g>
		<g>
			<rect x="181.2" y="163.7" class="st12" width="761.2" height="67.2"/>
		</g>
		<g class="st13">
			<g>
				<rect x="408.6" y="163.7" class="st14" width="31.6" height="172.3"/>
			</g>
			<g>
				<rect x="446" y="163.6" class="st14" width="10.4" height="172.3"/>
			</g>
		</g>
		<g class="st13">
			<g>
				<rect x="335.8" y="163.7" class="st14" width="31.6" height="172.3"/>
			</g>
			<g>
				<rect x="373.3" y="163.6" class="st14" width="10.4" height="172.3"/>
			</g>
		</g>
		<g class="st13">
			<g>
				<rect x="561.4" y="163.7" class="st14" width="31.6" height="172.3"/>
			</g>
			<g>
				<rect x="599" y="163.6" class="st14" width="10.4" height="172.3"/>
			</g>
		</g>
		<g class="st13">
			<g>
				<rect x="488.8" y="163.7" class="st14" width="31.6" height="172.3"/>
			</g>
			<g>
				<rect x="526.2" y="163.6" class="st14" width="10.4" height="172.3"/>
			</g>
		</g>
		<g class="st13">
			<g>
				<rect x="713.6" y="163.7" class="st14" width="31.6" height="172.3"/>
			</g>
			<g>
				<rect x="751" y="163.6" class="st14" width="10.4" height="172.3"/>
			</g>
		</g>
		<g class="st13">
			<g>
				<rect x="640.9" y="163.7" class="st14" width="31.6" height="172.3"/>
			</g>
			<g>
				<rect x="678.4" y="163.6" class="st14" width="10.4" height="172.3"/>
			</g>
		</g>
		<g class="st13">
			<g>
				<rect x="865.2" y="163.7" class="st14" width="31.6" height="172.3"/>
			</g>
			<g>
				<rect x="902.7" y="163.6" class="st14" width="10.4" height="172.3"/>
			</g>
		</g>
		<g class="st13">
			<g>
				<rect x="792.5" y="163.7" class="st14" width="31.6" height="172.3"/>
			</g>
			<g>
				<rect x="829.9" y="163.6" class="st14" width="10.4" height="172.3"/>
			</g>
		</g>
		<g>
			<rect x="-132.7" y="136.3" class="st15" width="1365.1" height="20.4"/>
		</g>
		<g>
			<rect x="-132.7" y="156.7" class="st16" width="1365.1" height="6.7"/>
		</g>
		<g>
			<rect x="-132.7" y="336.1" class="st16" width="1365.1" height="6.7"/>
		</g>
		<g>
			<rect x="1087.6" y="119.2" class="st17" width="144.9" height="247.1"/>
		</g>
		<g>
			<rect x="181.2" y="163.7" class="st14" width="3.4" height="179.1"/>
		</g>
		<g>
			<rect x="255.6" y="163.7" class="st14" width="1.6" height="179.1"/>
		</g>
		<g>
			<rect x="334.2" y="163.7" class="st14" width="1.6" height="179.1"/>
		</g>
		<g>
			<rect x="408.5" y="163.7" class="st14" width="1.6" height="179.1"/>
		</g>
		<g>
			<rect x="487.2" y="163.7" class="st14" width="1.6" height="179.1"/>
		</g>
		<g>
			<rect x="561.4" y="163.4" class="st14" width="1.6" height="179.1"/>
		</g>
		<g>
			<rect x="640.1" y="163.7" class="st14" width="1.6" height="179.1"/>
		</g>
		<g>
			<rect x="785.2" y="163.4" class="st14" width="1.6" height="179.1"/>
		</g>
		<g>
			<rect x="863.1" y="163.4" class="st14" width="1.6" height="179.1"/>
		</g>
		<g>
			<rect x="938.1" y="163.4" class="st14" width="1.6" height="179.1"/>
		</g>
		<g>
			<g>
				<path class="st16" d="M334.2,342.9H174.3V156.6h159.9V342.9z M181.2,335.8h145.9V163.7H181.2V335.8z"/>
			</g>
		</g>
		<g>
			<g>
				<path class="st16" d="M487.2,342.9h-160V156.6H487v186.2H487.2z M334.2,335.8h145.9V163.7H334.2V335.8z"/>
			</g>
		</g>
		<g>
			<g>
				<path class="st16" d="M640.1,342.9h-160V156.6H640v186.2H640.1z M487.2,335.8h145.9V163.7H487.2V335.8z"/>
			</g>
		</g>
		<g>
			<g>
				<path class="st16" d="M793,342.9H633.1V156.6H793V342.9z M640.1,335.8h145.9V163.7H640.1V335.8z"/>
			</g>
		</g>
		<g>
			<g>
				<path class="st16" d="M946,342.9H786.1V156.6H946L946,342.9L946,342.9z M793,335.8h145.9V163.7H793V335.8z"/>
			</g>
		</g>
		<g>
			<rect x="558.6" y="160.1" class="st16" width="3" height="179.3"/>
		</g>
		<g>
			<rect x="405.7" y="160.1" class="st16" width="3" height="179.3"/>
		</g>
		<g>
			<rect x="252.8" y="160.1" class="st16" width="3" height="179.3"/>
		</g>
		<g>
			<rect x="711.6" y="160.1" class="st16" width="3" height="179.3"/>
		</g>
		<g>
			<rect x="864.5" y="160.1" class="st16" width="3" height="179.3"/>
		</g>
		<g class="st13">
			<g>
				<rect x="257.3" y="163.7" class="st14" width="31.6" height="172.3"/>
			</g>
			<g>
				<rect x="294.8" y="163.6" class="st14" width="10.4" height="172.3"/>
			</g>
		</g>
		<g class="st13">
			<g>
				<rect x="184.6" y="163.7" class="st14" width="31.6" height="172.3"/>
			</g>
			<g>
				<rect x="222.1" y="163.6" class="st14" width="10.4" height="172.3"/>
			</g>
		</g>
		<g>
			<polygon class="st3" points="1087.6,119.2 942.4,136.3 942.4,342.8 1087.6,366.3 			"/>
		</g>
		<g>
			<polygon class="st12" points="942.4,160.1 1087.6,366.3 942.4,342.8 			"/>
		</g>
		<g>
			<polygon class="st12" points="-45.3,119.2 -132.7,214.5 -132.7,366.3 -45.3,366.3 177.7,342.8 177.7,136.3 			"/>
		</g>
		<g>
			<polygon class="st12" points="177.7,160.1 177.7,342.9 -45.3,366.3 			"/>
		</g>
		<g>
			<g>
				<g>
					<g>
						<rect x="1194.8" y="254.9" class="st14" width="12.2" height="18.1"/>
						<rect x="1195.4" y="254.9" class="st18" width="12.2" height="18.1"/>
						<rect x="1193.1" y="272.9" class="st19" width="4.2" height="2.5"/>
						<rect x="1197.2" y="272.9" class="st12" width="12.4" height="2.5"/>
					</g>
					<rect x="1201.3" y="256.3" class="st14" width="5" height="0.6"/>
					<rect x="1201.3" y="257.6" class="st14" width="5" height="0.6"/>
				</g>
				<g>
					<rect x="1216.6" y="257.6" class="st20" width="15.8" height="17.8"/>
					<rect x="1220" y="256.6" class="st16" width="12.5" height="18.9"/>
					<rect x="1221.4" y="256.6" class="st17" width="11.1" height="18.9"/>
					<rect x="1224.3" y="260.7" class="st21" width="8.1" height="14.9"/>
					<rect x="1225.9" y="260.7" class="st21" width="6.6" height="14.9"/>
				</g>
				<path class="st12" d="M1124.3,279.5c-3.5,0-6.2,2.8-6.2,6.2v80.4h114.5v-86.8h-108.2V279.5z"/>
				<path class="st4" d="M1167.2,279.5c-3.5,0-6.2,2.8-6.2,6.2v80.4h71.5v-86.8h-65.3V279.5z"/>
				<rect x="1176.8" y="275.4" class="st22" width="55.6" height="4.1"/>
				<path class="st17" d="M1191.8,299.9c-3.5,0-6.2,2.8-6.2,6.2v60h46.9v-66.3h-40.7V299.9z"/>
			</g>
		</g>
		<rect x="-132.7" y="119.2" class="st17" width="87.3" height="247.1"/>
		<polygon class="st8" points="1087.6,119.2 1232.5,119.2 1232.5,98.4 		"/>
		<g>
			<g>
				<rect x="1035.7" y="252.9" class="st4" width="25.8" height="23.8"/>
				<rect x="1038.7" y="255.7" class="st17" width="19.4" height="18.3"/>
				<rect x="1041.8" y="259" class="st4" width="12.9" height="11.7"/>
			</g>
			<g>
				<rect x="1035.7" y="282.5" class="st17" width="25.6" height="23.6"/>
				<rect x="1037.4" y="284.2" class="st4" width="22.3" height="20.2"/>
				<rect x="1040.8" y="287.5" class="st14" width="15.9" height="13.5"/>
			</g>
			<g>
				<rect x="1035.7" y="226.9" class="st12" width="25.7" height="22.6"/>
				<rect x="1038.5" y="229.7" class="st3" width="19.9" height="17.3"/>
			</g>
		</g>
		<rect x="891" y="136.3" class="st17" width="51.4" height="206.6"/>
		<rect x="676.5" y="136.9" class="st17" width="78.6" height="206.6"/>
		<rect x="437.5" y="136.9" class="st17" width="78.6" height="206.6"/>
		<rect x="177.7" y="136.3" class="st17" width="267.4" height="206.6"/>
		<path class="st14" d="M456.5,65.3c0,1.1-5.1,2-11.4,2s-11.4-0.9-11.4-2s5.1-2,11.4-2S456.5,64.2,456.5,65.3z"/>
		<ellipse class="st14" cx="193.8" cy="43.6" rx="19.5" ry="3.5"/>
		<path class="st14" d="M709.4,51.6c0,1.1-5.1,2-11.4,2c-6.2,0-11.4-0.9-11.4-2s5.1-2,11.4-2C704.3,49.5,709.4,50.4,709.4,51.6z"/>
		<ellipse class="st14" cx="1200.9" cy="-2.3" rx="24.6" ry="4.4"/>
		<ellipse class="st14" cx="586.4" cy="126.5" rx="4.7" ry="0.8"/>
		<path class="st14" d="M530.4,103.1c0,0.6-2.7,1.1-6.1,1.1s-6.1-0.5-6.1-1.1c0-0.6,2.7-1.1,6.1-1.1
			C527.7,102.1,530.4,102.6,530.4,103.1z"/>
		<path class="st14" d="M986.5,74.3c0,0.6-2.7,1.1-6.1,1.1s-6.1-0.5-6.1-1.1c0-0.6,2.7-1.1,6.1-1.1
			C983.7,73.2,986.5,73.6,986.5,74.3z"/>
		<path class="st14" d="M706.7,99.8c0,0.6-2.7,1.1-6.1,1.1c-3.4,0-6.1-0.5-6.1-1.1c0-0.6,2.7-1.1,6.1-1.1
			C704,98.7,706.7,99.2,706.7,99.8z"/>
		<ellipse class="st14" cx="702.7" cy="125.7" rx="4.7" ry="0.8"/>
		<ellipse class="st14" cx="846.9" cy="129.8" rx="4.7" ry="0.8"/>
		<g>
			<g>
				<path class="st23" d="M994.7,301c-6.6,0.2-4-6.5-1.6-11.7c2.4-5.3,5.2-11.8,0-12.5c-5.2-0.6-6.2-3.2-2.7-9.9
					c4.5-8.6,0.5-15.8-6.5-10.6c-5,3.7-1.5-13.5-4.7-17.4c-3.9-4.5-10.8-1.6-11,5.2c-0.3,10.8-6.7,3.4-8.7,7.5
					c-3.4,6.7,5.8,15.3-0.3,16.6c-6.1,1.4-4.8,7-2.6,11.5c2.2,4.4,7.9,11.2-1.1,14.1c-6.2,1.9,2.6,22,4.5,26.1h33.5
					c0.7-1.2,2.3-3.9,4.2-7.9C1000.4,305.6,1001.4,300.7,994.7,301z"/>
				<g>
					<rect x="974.1" y="258.3" class="st24" width="1.2" height="61.6"/>
				</g>
				<g>
					<rect x="972.4" y="271" transform="matrix(0.6 -0.8 0.8 0.6 173.9593 891.1744)" class="st24" width="11.5" height="1.2"/>
				</g>
				<g>
					<rect x="970.8" y="279.2" transform="matrix(0.8 -0.6 0.6 0.8 23.3349 639.8093)" class="st24" width="1.2" height="11.5"/>
				</g>
				<g>
					
						<rect x="971.1" y="293.7" transform="matrix(0.592 -0.806 0.806 0.592 162.7492 910.0815)" class="st24" width="18.2" height="1.2"/>
				</g>
				<g>
					
						<rect x="968.7" y="299.3" transform="matrix(0.8059 -0.592 0.592 0.8059 5.573 633.7336)" class="st24" width="1.2" height="18.2"/>
				</g>
			</g>
			<rect x="952.2" y="319.8" class="st14" width="46.6" height="32.7"/>
			<rect x="960.8" y="319.8" class="st3" width="37.9" height="32.7"/>
		</g>
		<rect x="-152.7" y="-93.6" class="st25" width="1400.2" height="724.1"/>
		<g>
			<g>
				<g>
					<path class="st26" d="M568.7,338.7l-3.3-23.5h-3.2c1.4,0,2.4,1,2.4,2.4v1.7h-2.4l4,19.4H568.7z"/>
					<path class="st26" d="M564.6,317.6c0-1.4-1-2.4-2.4-2.4h-0.9l0.8,4.1h2.4v-1.7H564.6z"/>
					<polygon class="st26" points="547.9,319.3 546.7,338.7 544.1,338.7 544.1,319.3 					"/>
					<polygon class="st26" points="578.7,298.9 567.5,298.9 568.7,291.7 579.8,291.7 					"/>
					<path class="st26" d="M561.3,315.2h4.1l3.5-23.5h-0.7c-1.1,0-2,0.8-2.3,1.9L561.3,315.2z"/>
					<path class="st26" d="M564.5,317v-1.8h-2.3C563.4,315.2,564.3,316,564.5,317z"/>
					<path class="st26" d="M546.3,315.2H563c0.7,0,1.2,0.5,1.5,1v3.1h-20.4V317C544.3,316,545.2,315.2,546.3,315.2z"/>
				</g>
				<g>
					<polygon class="st26" points="572.9,315.2 577,315.2 580.3,338.7 577.7,338.7 					"/>
					<polygon class="st26" points="557,338.7 559.6,338.7 560.9,319.3 557,319.3 					"/>
					<polygon class="st26" points="557,316.9 557,319.3 560.9,319.3 561.1,316.9 					"/>
					<path class="st26" d="M572.9,315.2h4.1l3.5-23.5h-0.7c-1.1,0-2,0.8-2.3,1.9L572.9,315.2z"/>
					<path class="st26" d="M562.2,315.2c1.4,0,2.4,1,2.4,2.4v1.7h11.6v-4.1H562.2z"/>
					<path class="st26" d="M562.2,315.2h-3.6c-0.9,0-1.6,0.7-1.6,1.6v2.5h7.6v-1.7C564.6,316.2,563.5,315.2,562.2,315.2z"/>
				</g>
			</g>
			<g>
				<g>
					<polygon class="st26" points="512,315.2 507.9,315.2 504.6,338.7 507.3,338.7 					"/>
					<polygon class="st26" points="527.9,316.9 531.9,316.9 531.9,338.7 529.3,338.7 					"/>
					<path class="st26" d="M512,315.2h-4.1l-3.5-23.5h0.7c1.1,0,2,0.8,2.3,1.9L512,315.2z"/>
					<polygon class="st26" points="506.5,298.9 521.6,298.9 520.3,291.7 505.3,291.7 					"/>
					<path class="st26" d="M508.7,319.3h23.2v-2.5c0-0.9-0.7-1.6-1.6-1.6h-21.6V319.3z"/>
				</g>
				<path class="st14" d="M508.7,319.3h23.2v-4.1h-20.8c-1.4,0-2.4,1-2.4,2.4V319.3z"/>
				<g>
					<polygon class="st27" points="527.2,315.2 523.3,315.2 519.9,338.7 522.5,338.7 					"/>
					<polygon class="st27" points="543.1,316.9 547.2,316.9 547.2,338.7 544.6,338.7 					"/>
					<path class="st27" d="M527.2,315.2h-4.1l-3.5-23.5h0.7c1.1,0,2,0.8,2.3,1.9L527.2,315.2z"/>
					<path class="st27" d="M524.1,319.3h23.2v-2.5c0-0.9-0.7-1.6-1.6-1.6h-21.6V319.3z"/>
				</g>
			</g>
			<g>
				<g>
					<path class="st26" d="M608,338.7l-3.3-23.5h-3.2c1.4,0,2.4,1,2.4,2.4v1.7h-2.4l4,19.4H608z"/>
					<path class="st26" d="M603.9,317.6c0-1.4-1-2.4-2.4-2.4h-0.9l0.8,4.1h2.4v-1.7H603.9z"/>
					<polygon class="st26" points="584.6,319.3 583.4,338.7 580.7,338.7 580.7,319.3 					"/>
					<polygon class="st27" points="622,298.9 606.7,298.9 608,291.7 623.2,291.7 					"/>
					<path class="st27" d="M600.6,315.2h4.1l3.5-23.5h-0.7c-1.1,0-2,0.8-2.3,1.9L600.6,315.2z"/>
					<path class="st26" d="M603.8,317v-1.8h-2.3C602.7,315.2,603.6,316,603.8,317z"/>
					<path class="st14" d="M583,315.2h19.3c0.7,0,1.2,0.5,1.5,1v3.1h-23.1V317C581,316,581.9,315.2,583,315.2z"/>
				</g>
				<g>
					<polygon class="st27" points="616.3,315.2 620.3,315.2 623.7,338.7 621.1,338.7 					"/>
					<polygon class="st27" points="596.3,338.7 598.9,338.7 600.2,319.3 596.3,319.3 					"/>
					<polygon class="st27" points="596.3,316.9 596.3,319.3 600.2,319.3 600.4,316.9 					"/>
					<path class="st27" d="M616.3,315.2h4.1l3.5-23.5h-0.7c-1.1,0-2,0.8-2.3,1.9L616.3,315.2z"/>
					<path class="st27" d="M601.5,315.2c1.4,0,2.4,1,2.4,2.4v1.7h15.6v-4.1H601.5z"/>
					<path class="st27" d="M601.5,315.2h-3.6c-0.9,0-1.6,0.7-1.6,1.6v2.5h7.6v-1.7C603.9,316.2,602.8,315.2,601.5,315.2z"/>
				</g>
			</g>
			<g>
				<rect x="531.3" y="300.9" class="st27" width="62.5" height="3.1"/>
				<rect x="531.3" y="300.9" class="st26" width="22.7" height="3.1"/>
				<rect x="563.5" y="303.9" class="st28" width="4.4" height="34.8"/>
				<rect x="556.3" y="334.6" class="st28" width="18.6" height="4"/>
			</g>
		</g>
		<g>
			<g>
				<g>
					<path class="st26" d="M782.5,338.7l-3.3-23.5h-3.2c1.4,0,2.4,1,2.4,2.4v1.7h-2.4l4,19.4H782.5z"/>
					<path class="st26" d="M778.5,317.6c0-1.4-1-2.4-2.4-2.4h-0.9l0.8,4.1h2.4v-1.7H778.5z"/>
					<polygon class="st26" points="761.8,319.3 760.5,338.7 757.9,338.7 757.9,319.3 					"/>
					<polygon class="st26" points="792.5,298.9 781.3,298.9 782.5,291.7 793.8,291.7 					"/>
					<path class="st26" d="M775.2,315.2h4.1l3.5-23.5h-0.7c-1.1,0-2,0.8-2.3,1.9L775.2,315.2z"/>
					<path class="st26" d="M778.3,317v-1.8h-2.3C777.2,315.2,778.1,316,778.3,317z"/>
					<path class="st26" d="M760.2,315.2h16.7c0.7,0,1.2,0.5,1.5,1v3.1h-20.4V317C758.1,316,759.2,315.2,760.2,315.2z"/>
				</g>
				<g>
					<polygon class="st26" points="786.7,315.2 790.8,315.2 794.1,338.7 791.5,338.7 					"/>
					<polygon class="st26" points="770.8,338.7 773.5,338.7 774.7,319.3 770.8,319.3 					"/>
					<polygon class="st26" points="770.8,316.9 770.8,319.3 774.7,319.3 774.9,316.9 					"/>
					<path class="st26" d="M786.7,315.2h4.1l3.5-23.5h-0.7c-1.1,0-2,0.8-2.3,1.9L786.7,315.2z"/>
					<path class="st26" d="M776.1,315.2c1.4,0,2.4,1,2.4,2.4v1.7H790v-4.1H776.1z"/>
					<path class="st26" d="M776.1,315.2h-3.6c-0.9,0-1.6,0.7-1.6,1.6v2.5h7.6v-1.7C778.5,316.2,777.4,315.2,776.1,315.2z"/>
				</g>
			</g>
			<g>
				<g>
					<polygon class="st26" points="725.9,315.2 721.8,315.2 718.5,338.7 721.1,338.7 					"/>
					<polygon class="st26" points="741.8,316.9 745.9,316.9 745.9,338.7 743.1,338.7 					"/>
					<path class="st26" d="M725.9,315.2h-4.1l-3.5-23.5h0.7c1.1,0,2,0.8,2.3,1.9L725.9,315.2z"/>
					<polygon class="st26" points="720.3,298.9 735.4,298.9 734.2,291.7 719.2,291.7 					"/>
					<path class="st26" d="M722.6,319.3h23.2v-2.5c0-0.9-0.7-1.6-1.6-1.6h-21.6V319.3z"/>
				</g>
				<path class="st14" d="M722.6,319.3h23.2v-4.1H725c-1.4,0-2.4,1-2.4,2.4L722.6,319.3L722.6,319.3z"/>
				<g>
					<polygon class="st27" points="741.1,315.2 737.1,315.2 733.7,338.7 736.3,338.7 					"/>
					<polygon class="st27" points="757,316.9 761.1,316.9 761.1,338.7 758.5,338.7 					"/>
					<path class="st27" d="M741.1,315.2h-4l-3.5-23.5h0.7c1.1,0,2,0.8,2.3,1.9L741.1,315.2z"/>
					<path class="st27" d="M737.9,319.3h23.2v-2.5c0-0.9-0.7-1.6-1.6-1.6h-21.6V319.3z"/>
				</g>
			</g>
			<g>
				<g>
					<path class="st26" d="M821.8,338.7l-3.3-23.5h-3.2c1.4,0,2.4,1,2.4,2.4v1.7h-2.4l4,19.4H821.8z"/>
					<path class="st26" d="M817.8,317.6c0-1.4-1-2.4-2.4-2.4h-0.9l0.8,4.1h2.4v-1.7H817.8z"/>
					<polygon class="st26" points="798.4,319.3 797.2,338.7 794.6,338.7 794.6,319.3 					"/>
					<polygon class="st27" points="835.8,298.9 820.6,298.9 821.8,291.7 837.1,291.7 					"/>
					<path class="st27" d="M814.5,315.2h4.1l3.5-23.5h-0.7c-1.1,0-2,0.8-2.3,1.9L814.5,315.2z"/>
					<path class="st26" d="M817.6,317v-1.8h-2.3C816.5,315.2,817.4,316,817.6,317z"/>
					<path class="st14" d="M796.9,315.2h19.3c0.7,0,1.2,0.5,1.5,1v3.1h-23.1V317C794.8,316,795.7,315.2,796.9,315.2z"/>
				</g>
				<g>
					<polygon class="st27" points="830.1,315.2 834.1,315.2 837.5,338.7 834.9,338.7 					"/>
					<polygon class="st27" points="810.1,338.7 812.8,338.7 814,319.3 810.1,319.3 					"/>
					<polygon class="st27" points="810.1,316.9 810.1,319.3 814,319.3 814.2,316.9 					"/>
					<path class="st27" d="M830.1,315.2h4.1l3.5-23.5h-0.7c-1.1,0-2,0.8-2.3,1.9L830.1,315.2z"/>
					<path class="st27" d="M815.4,315.2c1.4,0,2.4,1,2.4,2.4v1.7h15.6v-4.1H815.4z"/>
					<path class="st27" d="M815.4,315.2h-3.6c-0.9,0-1.6,0.7-1.6,1.6v2.5h7.6v-1.7C817.8,316.2,816.6,315.2,815.4,315.2z"/>
				</g>
			</g>
			<g>
				<rect x="745.2" y="300.9" class="st27" width="62.5" height="3.1"/>
				<rect x="745.2" y="300.9" class="st26" width="22.7" height="3.1"/>
				<rect x="777.3" y="303.9" class="st28" width="4.4" height="34.8"/>
				<rect x="770.2" y="334.6" class="st28" width="18.6" height="4"/>
			</g>
		</g>
		<g class="st29">
			<g>
				<g>
					<path class="st26" d="M554.7,373.2l-4.7,16.5h-4.4c1.8,0,3.4-0.8,3.4-1.7v-1.2h-3.4l5.6-13.5H554.7z"/>
					<path class="st26" d="M548.9,388c0,0.9-1.5,1.7-3.4,1.7h-1.2l1.1-2.8h3.4v1.1H548.9z"/>
					<polygon class="st26" points="525.5,386.7 523.7,373.2 520,373.2 520,386.7 					"/>
					<polygon class="st26" points="568.8,401 553,401 554.7,406 570.5,406 					"/>
					<path class="st26" d="M544.4,389.6h5.7l5,16.5h-1c-1.6,0-3-0.6-3.3-1.4L544.4,389.6z"/>
					<path class="st26" d="M548.9,388.3v1.2h-3.3C547.2,389.6,548.6,389,548.9,388.3z"/>
					<path class="st26" d="M523.3,389.6h23.5c0.9,0,1.8-0.3,2-0.7v-2.2H520v1.6C520.3,389,521.7,389.6,523.3,389.6z"/>
				</g>
				<g>
					<polygon class="st26" points="560.8,389.6 566.4,389.6 571.2,373.2 567.5,373.2 					"/>
					<polygon class="st26" points="538.3,373.2 542,373.2 543.7,386.7 538.3,386.7 					"/>
					<polygon class="st26" points="538.3,388.4 538.3,386.7 543.7,386.7 543.9,388.4 					"/>
					<path class="st26" d="M560.8,389.6h5.7l5,16.5h-1c-1.6,0-3-0.6-3.3-1.4L560.8,389.6z"/>
					<path class="st26" d="M545.6,389.6c1.8,0,3.4-0.8,3.4-1.7v-1.2h16.2v2.8h-19.6V389.6z"/>
					<path class="st26" d="M545.6,389.6h-5.1c-1.2,0-2.3-0.5-2.3-1.1v-1.8h10.7v1.2C548.9,388.9,547.5,389.6,545.6,389.6z"/>
				</g>
			</g>
			<g>
				<g>
					<polygon class="st26" points="474.8,389.6 469.1,389.6 464.3,373.2 468.1,373.2 					"/>
					<polygon class="st26" points="497.3,388.4 502.9,388.4 502.9,373.2 499.3,373.2 					"/>
					<path class="st26" d="M474.8,389.6h-5.7l-5,16.5h1c1.6,0,3-0.6,3.3-1.4L474.8,389.6z"/>
					<polygon class="st26" points="467.1,401 488.3,401 486.6,406 465.4,406 					"/>
					<path class="st26" d="M470.2,386.7h32.7v1.4c0,0.9-0.7,1.6-1.6,1.6h-31.1V386.7z"/>
				</g>
				<path class="st14" d="M470.1,386.7h32.7v2.8h-30.3c-1.2,0-2.4-1-2.4-2.4V386.7z"/>
				<g>
					<polygon class="st27" points="496.4,389.6 490.7,389.6 485.9,373.2 489.7,373.2 					"/>
					<polygon class="st27" points="518.8,388.4 524.5,388.4 524.5,373.2 520.9,373.2 					"/>
					<path class="st27" d="M496.4,389.6h-5.7l-5,16.5h1c1.6,0,3-0.6,3.3-1.4L496.4,389.6z"/>
					<path class="st27" d="M491.8,386.7h32.7v1.4c0,0.9-0.7,1.6-1.6,1.6h-31.1V386.7z"/>
				</g>
			</g>
			<g>
				<g>
					<path class="st26" d="M610.2,373.2l-4.7,16.5h-4.4c1.8,0,3.4-0.8,3.4-1.7v-1.2h-3.4l5.6-13.5H610.2z"/>
					<path class="st26" d="M604.4,388c0,0.9-1.5,1.7-3.4,1.7h-1.2l1.1-2.8h3.4v1.1H604.4z"/>
					<polygon class="st26" points="577.2,386.7 575.4,373.2 571.8,373.2 571.8,386.7 					"/>
					<polygon class="st27" points="629.9,401 608.4,401 610.2,406 631.6,406 					"/>
					<path class="st27" d="M599.8,389.6h5.7l5,16.5h-1c-1.6,0-3-0.6-3.3-1.4L599.8,389.6z"/>
					<path class="st26" d="M604.4,388.3v1.2h-3.3C602.7,389.6,604,389,604.4,388.3z"/>
					<path class="st14" d="M575.1,389.6h27.3c0.9,0,1.8-0.3,2-0.7v-2.2h-32.6v1.6C572.1,389,573.5,389.6,575.1,389.6z"/>
				</g>
				<g>
					<polygon class="st27" points="621.8,389.6 627.5,389.6 632.3,373.2 628.5,373.2 					"/>
					<polygon class="st27" points="593.7,373.2 597.4,373.2 599.1,386.7 593.7,386.7 					"/>
					<polygon class="st27" points="593.7,388.4 593.7,386.7 599.1,386.7 599.4,388.4 					"/>
					<path class="st27" d="M621.8,389.6h5.7l5,16.5h-1c-1.6,0-3-0.6-3.3-1.4L621.8,389.6z"/>
					<path class="st27" d="M601.1,389.6c1.8,0,3.4-0.8,3.4-1.7v-1.2h22v2.8h-25.4V389.6z"/>
					<path class="st27" d="M601.1,389.6H596c-1.2,0-2.3-0.5-2.3-1.1v-1.8h10.7v1.2C604.4,388.9,602.9,389.6,601.1,389.6z"/>
				</g>
			</g>
			<g>
				<rect x="502" y="397.5" class="st27" width="88.1" height="2.2"/>
				<rect x="502" y="397.5" class="st26" width="32" height="2.2"/>
				<rect x="547.4" y="373.2" class="st28" width="6.1" height="24.3"/>
				<rect x="537.2" y="373.2" class="st28" width="26.3" height="2.8"/>
			</g>
		</g>
		<g class="st29">
			<g>
				<g>
					<path class="st26" d="M856.4,373.2l-4.7,16.5h-4.4c1.8,0,3.4-0.8,3.4-1.7v-1.2h-3.4l5.6-13.5H856.4z"/>
					<path class="st26" d="M850.6,388c0,0.9-1.5,1.7-3.4,1.7h-1.2l1.1-2.8h3.4v1.1H850.6z"/>
					<polygon class="st26" points="827.1,386.7 825.4,373.2 821.6,373.2 821.6,386.7 					"/>
					<polygon class="st26" points="870.4,401 854.7,401 856.4,406 872.1,406 					"/>
					<path class="st26" d="M846,389.6h5.7l5,16.5h-1c-1.6,0-3-0.6-3.3-1.4L846,389.6z"/>
					<path class="st26" d="M850.5,388.3v1.2h-3.2C848.9,389.6,850.1,389,850.5,388.3z"/>
					<path class="st26" d="M824.9,389.6h23.5c0.9,0,1.8-0.3,2-0.7v-2.2h-28.8v1.6C822,389,823.3,389.6,824.9,389.6z"/>
				</g>
				<g>
					<polygon class="st26" points="862.4,389.6 868.1,389.6 872.7,373.2 869.1,373.2 					"/>
					<polygon class="st26" points="839.9,373.2 843.5,373.2 845.3,386.7 839.9,386.7 					"/>
					<polygon class="st26" points="839.9,388.4 839.9,386.7 845.3,386.7 845.6,388.4 					"/>
					<path class="st26" d="M862.4,389.6h5.7l5,16.5h-1c-1.6,0-3-0.6-3.3-1.4L862.4,389.6z"/>
					<path class="st26" d="M847.3,389.6c1.8,0,3.4-0.8,3.4-1.7v-1.2h16.2v2.8h-19.6V389.6z"/>
					<path class="st26" d="M847.3,389.6h-5.1c-1.2,0-2.3-0.5-2.3-1.1v-1.8h10.7v1.2C850.6,388.9,849.1,389.6,847.3,389.6z"/>
				</g>
			</g>
			<g>
				<g>
					<polygon class="st26" points="776.4,389.6 770.7,389.6 766,373.2 769.7,373.2 					"/>
					<polygon class="st26" points="798.9,388.4 804.6,388.4 804.6,373.2 800.8,373.2 					"/>
					<path class="st26" d="M776.4,389.6h-5.7l-5,16.5h1c1.6,0,3-0.6,3.3-1.4L776.4,389.6z"/>
					<polygon class="st26" points="768.7,401 789.9,401 788.2,406 767,406 					"/>
					<path class="st26" d="M771.9,386.7h32.7v1.4c0,0.9-0.7,1.6-1.6,1.6h-31.1L771.9,386.7L771.9,386.7z"/>
				</g>
				<path class="st14" d="M771.8,386.7h32.7v2.8h-30.3c-1.2,0-2.4-1-2.4-2.4V386.7z"/>
				<g>
					<polygon class="st27" points="798,389.6 792.2,389.6 787.5,373.2 791.2,373.2 					"/>
					<polygon class="st27" points="820.4,388.4 826.2,388.4 826.2,373.2 822.4,373.2 					"/>
					<path class="st27" d="M798,389.6h-5.7l-5,16.5h1c1.6,0,3-0.6,3.3-1.4L798,389.6z"/>
					<path class="st27" d="M793.4,386.7h32.7v1.4c0,0.9-0.7,1.6-1.6,1.6h-31.1L793.4,386.7L793.4,386.7z"/>
				</g>
			</g>
			<g>
				<g>
					<path class="st26" d="M911.8,373.2l-4.7,16.5h-4.4c1.8,0,3.4-0.8,3.4-1.7v-1.2h-3.4l5.6-13.5H911.8z"/>
					<path class="st26" d="M906,388c0,0.9-1.5,1.7-3.4,1.7h-1.2l1.1-2.8h3.4v1.1H906z"/>
					<polygon class="st26" points="878.8,386.7 877,373.2 873.4,373.2 873.4,386.7 					"/>
					<polygon class="st27" points="931.5,401 910.1,401 911.8,406 933.2,406 					"/>
					<path class="st27" d="M901.3,389.6h5.7l5,16.5h-1c-1.6,0-3-0.6-3.3-1.4L901.3,389.6z"/>
					<path class="st26" d="M905.9,388.3v1.2h-3.3C904.3,389.6,905.5,389,905.9,388.3z"/>
					<path class="st14" d="M876.6,389.6h27.3c0.9,0,1.8-0.3,2-0.7v-2.2h-32.5v1.6C873.6,389,875,389.6,876.6,389.6z"/>
				</g>
				<g>
					<polygon class="st27" points="923.5,389.6 929.2,389.6 933.8,373.2 930.2,373.2 					"/>
					<polygon class="st27" points="895.3,373.2 899,373.2 900.8,386.7 895.3,386.7 					"/>
					<polygon class="st27" points="895.3,388.4 895.3,386.7 900.8,386.7 901,388.4 					"/>
					<path class="st27" d="M923.5,389.6h5.7l5,16.5h-1c-1.6,0-3-0.6-3.3-1.4L923.5,389.6z"/>
					<path class="st27" d="M902.7,389.6c1.8,0,3.4-0.8,3.4-1.7v-1.2h22v2.8h-25.4V389.6z"/>
					<path class="st27" d="M902.7,389.6h-5.1c-1.2,0-2.3-0.5-2.3-1.1v-1.8H906v1.2C906,388.9,904.5,389.6,902.7,389.6z"/>
				</g>
			</g>
			<g>
				<rect x="803.7" y="397.5" class="st27" width="88.1" height="2.2"/>
				<rect x="803.7" y="397.5" class="st26" width="32" height="2.2"/>
				<rect x="849" y="373.2" class="st28" width="6.1" height="24.3"/>
				<rect x="838.9" y="373.2" class="st28" width="26.3" height="2.8"/>
			</g>
		</g>
		<g>
			<g>
				<g>
					<path class="st26" d="M584.9,435.2l-6.9-48.8h-6.6c2.7,0,5,2.3,5,5v3.6h-5.1l8.2,40.3h5.5V435.2z"/>
					<path class="st26" d="M576.4,391.4c0-2.7-2.3-5-5-5h-1.8l1.7,8.6h5.1V391.4z"/>
					<polygon class="st26" points="541.8,395 539.2,435.3 533.7,435.3 533.7,395 					"/>
					<polygon class="st26" points="605.7,352.6 582.3,352.6 584.9,337.5 608.2,337.5 					"/>
					<path class="st26" d="M569.6,386.4h8.4l7.4-48.8h-1.5c-2.4,0-4.3,1.6-4.9,3.9L569.6,386.4z"/>
					<path class="st26" d="M576.3,390.2v-3.9h-4.8C573.8,386.4,575.7,388.1,576.3,390.2z"/>
					<path class="st26" d="M538.5,386.4h34.6c1.5,0,2.6,0.9,3.1,2.2v6.5h-42.6v-4.8C534.2,388.1,536.1,386.4,538.5,386.4z"/>
				</g>
				<g>
					<polygon class="st26" points="593.8,386.4 602.2,386.4 609.1,435.2 603.7,435.2 					"/>
					<polygon class="st26" points="560.6,435.2 566.1,435.2 568.7,395 560.6,395 					"/>
					<polygon class="st26" points="560.6,390 560.6,395 568.7,395 569,390 					"/>
					<path class="st26" d="M593.8,386.4h8.4l7.4-48.8h-1.5c-2.4,0-4.3,1.6-4.9,3.9L593.8,386.4z"/>
					<path class="st26" d="M571.4,386.4c2.7,0,5,2.3,5,5v3.6h24.1v-8.6H571.4z"/>
					<path class="st26" d="M571.4,386.4h-7.5c-1.8,0-3.3,1.5-3.3,3.3v5.2h15.8v-3.6C576.4,388.6,574.2,386.4,571.4,386.4z"/>
				</g>
			</g>
			<g>
				<g>
					<polygon class="st26" points="466.9,386.4 458.5,386.4 451.6,435.3 457.1,435.3 					"/>
					<polygon class="st26" points="500.1,390 508.5,390 508.5,435.3 503.1,435.3 					"/>
					<path class="st26" d="M466.9,386.4h-8.4l-7.4-48.8h1.5c2.4,0,4.3,1.6,4.9,3.9L466.9,386.4z"/>
					<polygon class="st26" points="455.6,352.6 486.8,352.6 484.4,337.5 453.1,337.5 					"/>
					<path class="st26" d="M460.2,395h48.3v-5.2c0-1.8-1.5-3.3-3.3-3.3h-45V395z"/>
				</g>
				<path class="st14" d="M460.1,395h48.2v-8.6H465c-2.7,0-5,2.3-5,5v3.6H460.1z"/>
				<g>
					<polygon class="st27" points="498.7,386.4 490.3,386.4 483.4,435.3 488.9,435.3 					"/>
					<polygon class="st27" points="531.9,390 540.3,390 540.3,435.3 534.9,435.3 					"/>
					<path class="st27" d="M498.7,386.4h-8.4l-7.4-48.8h1.5c2.4,0,4.3,1.6,4.9,3.9L498.7,386.4z"/>
					<path class="st27" d="M492,395h48.3v-5.2c0-1.8-1.5-3.3-3.3-3.3h-45V395z"/>
				</g>
			</g>
			<g>
				<g>
					<path class="st26" d="M666.7,435.3l-6.9-48.8h-6.6c2.7,0,5,2.3,5,5v3.6h-5.1l8.2,40.3h5.5V435.3z"/>
					<path class="st26" d="M658.1,391.4c0-2.7-2.3-5-5-5h-1.8l1.7,8.6h5.1V391.4z"/>
					<polygon class="st26" points="618.1,395 615.4,435.3 609.9,435.3 609.9,395 					"/>
					<polygon class="st27" points="695.9,352.6 664.1,352.6 666.6,337.5 698.4,337.5 					"/>
					<path class="st27" d="M651.4,386.4h8.4l7.4-48.8h-1.5c-2.4,0-4.3,1.6-4.9,3.9L651.4,386.4z"/>
					<path class="st26" d="M658,390.2v-3.9h-4.8C655.6,386.4,657.5,388.1,658,390.2z"/>
					<path class="st14" d="M614.8,386.4h40.1c1.5,0,2.6,0.9,3.1,2.2v6.5h-48v-4.8C610.5,388.1,612.4,386.4,614.8,386.4z"/>
				</g>
				<g>
					<polygon class="st27" points="683.9,386.4 692.3,386.4 699.2,435.3 693.9,435.3 					"/>
					<polygon class="st27" points="642.3,435.3 647.7,435.3 650.5,395 642.3,395 					"/>
					<polygon class="st27" points="642.3,390 642.3,395 650.5,395 650.7,390 					"/>
					<path class="st27" d="M683.9,386.4h8.4l7.4-48.8h-1.5c-2.4,0-4.3,1.6-4.9,3.9L683.9,386.4z"/>
					<path class="st27" d="M653.2,386.4c2.7,0,5,2.3,5,5v3.6h32.4v-8.6H653.2z"/>
					<path class="st27" d="M653.2,386.4h-7.5c-1.8,0-3.3,1.5-3.3,3.3v5.2h15.8v-3.6C658.1,388.6,655.9,386.4,653.2,386.4z"/>
				</g>
			</g>
			<g>
				<rect x="507.1" y="356.5" class="st27" width="129.9" height="6.4"/>
				<rect x="507.1" y="356.5" class="st26" width="47.1" height="6.4"/>
				<rect x="574" y="363" class="st28" width="9.1" height="72.3"/>
				<rect x="559.2" y="426.9" class="st28" width="38.8" height="8.4"/>
			</g>
		</g>
		<g>
			<g>
				<g>
					<path class="st26" d="M910.3,439.3l-6.9-48.8h-6.6c2.7,0,5,2.3,5,5v3.6h-5.1l8.2,40.3h5.5V439.3z"/>
					<path class="st26" d="M901.8,395.5c0-2.7-2.3-5-5-5H895l1.7,8.6h5.1V395.5z"/>
					<polygon class="st26" points="867.2,399 864.5,439.3 859.1,439.3 859.1,399 					"/>
					<polygon class="st26" points="931.1,356.6 907.7,356.6 910.2,341.6 933.6,341.6 					"/>
					<path class="st26" d="M895,390.5h8.4l7.4-48.8h-1.5c-2.4,0-4.3,1.6-4.9,3.9L895,390.5z"/>
					<path class="st26" d="M901.7,394.3v-3.9h-4.8C899.2,390.5,901.1,392.2,901.7,394.3z"/>
					<path class="st26" d="M863.9,390.5h34.6c1.5,0,2.6,0.9,3.1,2.2v6.5H859v-4.8C859.5,392.2,861.5,390.5,863.9,390.5z"/>
				</g>
				<g>
					<polygon class="st26" points="919.2,390.5 927.6,390.5 934.5,439.3 929,439.3 					"/>
					<polygon class="st26" points="886,439.3 891.5,439.3 894.1,399.1 886,399.1 					"/>
					<polygon class="st26" points="886,394 886,399.1 894.1,399.1 894.4,394 					"/>
					<path class="st26" d="M919.2,390.5h8.4l7.4-48.8h-1.5c-2.4,0-4.3,1.6-4.9,3.9L919.2,390.5z"/>
					<path class="st26" d="M896.8,390.5c2.7,0,5,2.3,5,5v3.6h24.1v-8.6H896.8z"/>
					<path class="st26" d="M896.8,390.5h-7.5c-1.8,0-3.3,1.5-3.3,3.3v5.2h15.8v-3.6C901.8,392.6,899.5,390.5,896.8,390.5z"/>
				</g>
			</g>
			<g>
				<g>
					<polygon class="st26" points="792.3,390.5 783.9,390.5 777,439.3 782.4,439.3 					"/>
					<polygon class="st26" points="825.5,394 833.9,394 833.9,439.3 828.4,439.3 					"/>
					<path class="st26" d="M792.3,390.5h-8.4l-7.4-48.8h1.5c2.4,0,4.3,1.6,4.9,3.9L792.3,390.5z"/>
					<polygon class="st26" points="781,356.6 812.2,356.6 809.8,341.6 778.5,341.6 					"/>
					<path class="st26" d="M785.6,399.1h48.3v-5.2c0-1.8-1.5-3.3-3.3-3.3h-45V399.1z"/>
				</g>
				<path class="st14" d="M785.5,399.1h48.2v-8.6h-43.2c-2.7,0-5,2.3-5,5V399.1z"/>
				<g>
					<polygon class="st27" points="824.1,390.5 815.7,390.5 808.8,439.3 814.2,439.3 					"/>
					<polygon class="st27" points="857.3,394 865.7,394 865.7,439.3 860.2,439.3 					"/>
					<path class="st27" d="M824.1,390.5h-8.4l-7.4-48.8h1.5c2.4,0,4.3,1.6,4.9,3.9L824.1,390.5z"/>
					<path class="st27" d="M817.4,399.1h48.3v-5.2c0-1.8-1.5-3.3-3.3-3.3h-45V399.1z"/>
				</g>
			</g>
			<g>
				<g>
					<path class="st26" d="M992.1,439.3l-6.9-48.8h-6.6c2.7,0,5,2.3,5,5v3.6h-5.1l8.2,40.3h5.5V439.3z"/>
					<path class="st26" d="M983.4,395.5c0-2.7-2.3-5-5-5h-1.7l1.7,8.6h5.1v-3.6H983.4z"/>
					<polygon class="st26" points="943.5,399 940.7,439.3 935.3,439.3 935.3,399 					"/>
					<polygon class="st27" points="1021.3,356.6 989.5,356.6 992,341.6 1023.8,341.6 					"/>
					<path class="st27" d="M976.7,390.5h8.4l7.4-48.8h-1.5c-2.4,0-4.3,1.6-4.9,3.9L976.7,390.5z"/>
					<path class="st26" d="M983.3,394.3v-3.9h-4.8C980.9,390.5,982.9,392.2,983.3,394.3z"/>
					<path class="st14" d="M940.2,390.5h40.1c1.5,0,2.6,0.9,3.1,2.2v6.5h-48v-4.8C935.9,392.2,937.8,390.5,940.2,390.5z"/>
				</g>
				<g>
					<polygon class="st27" points="1009.2,390.5 1017.6,390.5 1024.6,439.3 1019.2,439.3 					"/>
					<polygon class="st27" points="967.7,439.3 973.1,439.3 975.8,399.1 967.7,399.1 					"/>
					<polygon class="st27" points="967.7,394 967.7,399.1 975.8,399.1 976.1,394 					"/>
					<path class="st27" d="M1009.2,390.5h8.4l7.4-48.8h-1.5c-2.4,0-4.3,1.6-4.9,3.9L1009.2,390.5z"/>
					<path class="st27" d="M978.6,390.5c2.7,0,5,2.3,5,5v3.6h32.5v-8.6H978.6z"/>
					<path class="st27" d="M978.6,390.5h-7.5c-1.8,0-3.3,1.5-3.3,3.3v5.2h15.8v-3.6C983.4,392.6,981.3,390.5,978.6,390.5z"/>
				</g>
			</g>
			<g>
				<rect x="832.5" y="360.6" class="st27" width="129.9" height="6.4"/>
				<rect x="832.5" y="360.6" class="st26" width="47.1" height="6.4"/>
				<rect x="899.4" y="367.1" class="st28" width="9.1" height="72.3"/>
				<rect x="884.5" y="431" class="st28" width="38.8" height="8.4"/>
			</g>
		</g>
		<g class="st6">
			<g>
				<g>
					<path class="st26" d="M584.3,435.3l-7,25.4h-6.6c2.7,0,5-1.1,5-2.6v-1.9h-5.1l8.3-21h5.5V435.3z"/>
					<path class="st26" d="M575.6,458.3c0,1.5-2.3,2.6-5,2.6h-1.9l1.7-4.4h5.1v1.8H575.6z"/>
					<polygon class="st26" points="540.6,456.4 538,435.3 532.5,435.3 532.5,456.4 					"/>
					<polygon class="st26" points="605.2,478.5 581.6,478.5 584.1,486.3 607.8,486.3 					"/>
					<path class="st26" d="M568.8,460.9h8.5l7.5,25.4h-1.5c-2.4,0-4.4-0.9-4.9-2L568.8,460.9z"/>
					<path class="st26" d="M575.5,458.8v2h-4.9C573,460.9,575.1,460,575.5,458.8z"/>
					<path class="st26" d="M537.4,460.9h35c1.5,0,2.6-0.5,3.1-1.1v-3.4h-42.9v2.5C533,460,535,460.9,537.4,460.9z"/>
				</g>
				<g>
					<polygon class="st26" points="593.1,460.9 601.6,460.9 608.7,435.3 603.1,435.3 					"/>
					<polygon class="st26" points="559.7,435.3 565.2,435.3 567.9,456.4 559.7,456.4 					"/>
					<polygon class="st26" points="559.7,459.1 559.7,456.4 567.9,456.4 568.1,459.1 					"/>
					<path class="st26" d="M593.1,460.9h8.5l7.5,25.4h-1.5c-2.4,0-4.4-0.9-4.9-2L593.1,460.9z"/>
					<path class="st26" d="M570.6,460.9c2.7,0,5-1.1,5-2.6v-1.9h24.3v4.4h-29.3V460.9z"/>
					<path class="st26" d="M570.6,460.9H563c-1.8,0-3.3-0.8-3.3-1.7v-2.7h15.9v1.9C575.6,459.7,573.4,460.9,570.6,460.9z"/>
				</g>
			</g>
			<g>
				<g>
					<polygon class="st26" points="465.1,460.9 456.7,460.9 449.7,435.3 455.1,435.3 					"/>
					<polygon class="st26" points="498.6,459.1 507.1,459.1 507.1,435.3 501.6,435.3 					"/>
					<path class="st26" d="M465.1,460.9h-8.5l-7.5,25.4h1.5c2.4,0,4.4-0.9,4.9-2L465.1,460.9z"/>
					<polygon class="st26" points="453.7,478.5 485.2,478.5 482.7,486.3 451.2,486.3 					"/>
					<path class="st26" d="M458.4,456.4h48.7v2c0,1.4-1,2.4-2.4,2.4h-46.3L458.4,456.4L458.4,456.4z"/>
				</g>
				<path class="st14" d="M458.3,456.4h48.6v4.4h-45c-1.9,0-3.6-1.6-3.6-3.6V456.4z"/>
				<g>
					<polygon class="st27" points="497.3,460.9 488.8,460.9 481.8,435.3 487.3,435.3 					"/>
					<polygon class="st27" points="530.8,459.1 539.2,459.1 539.2,435.3 533.7,435.3 					"/>
					<path class="st27" d="M497.3,460.9h-8.5l-7.5,25.4h1.5c2.4,0,4.4-0.9,4.9-2L497.3,460.9z"/>
					<path class="st27" d="M490.6,456.4h48.7v2c0,1.4-1,2.4-2.4,2.4h-46.3L490.6,456.4L490.6,456.4z"/>
				</g>
			</g>
			<g>
				<g>
					<path class="st26" d="M666.7,435.3l-7,25.4h-6.6c2.7,0,5-1.1,5-2.6v-1.9H653l8.3-21h5.5V435.3z"/>
					<path class="st26" d="M658.1,458.3c0,1.5-2.3,2.6-5,2.6h-1.9l1.7-4.4h5.1v1.8H658.1z"/>
					<polygon class="st26" points="617.6,456.4 615,435.3 609.5,435.3 609.5,456.4 					"/>
					<polygon class="st27" points="696.1,478.5 664.1,478.5 666.7,486.3 698.7,486.3 					"/>
					<path class="st27" d="M651.3,460.9h8.5l7.5,25.4h-1.5c-2.4,0-4.4-0.9-4.9-2L651.3,460.9z"/>
					<path class="st26" d="M658,458.8v2h-4.9C655.5,460.9,657.5,460,658,458.8z"/>
					<path class="st14" d="M614.4,460.9h40.5c1.5,0,2.6-0.5,3.1-1.1v-3.4h-48.5v2.5C610,460,612,460.9,614.4,460.9z"/>
				</g>
				<g>
					<polygon class="st27" points="684.1,460.9 692.6,460.9 699.6,435.3 694.1,435.3 					"/>
					<polygon class="st27" points="642.2,435.3 647.6,435.3 650.4,456.4 642.2,456.4 					"/>
					<polygon class="st27" points="642.2,459.1 642.2,456.4 650.4,456.4 650.7,459.1 					"/>
					<path class="st27" d="M684.1,460.9h8.5l7.5,25.4h-1.5c-2.4,0-4.4-0.9-4.9-2L684.1,460.9z"/>
					<path class="st27" d="M653.1,460.9c2.7,0,5-1.1,5-2.6v-1.9h32.7v4.4h-37.7V460.9z"/>
					<path class="st27" d="M653.1,460.9h-7.6c-1.8,0-3.3-0.8-3.3-1.7v-2.7h15.9v1.9C658.1,459.7,655.9,460.9,653.1,460.9z"/>
				</g>
			</g>
			<g>
				<rect x="505.8" y="473.1" class="st27" width="131.2" height="3.3"/>
				<rect x="505.8" y="473.1" class="st26" width="47.6" height="3.3"/>
				<rect x="573.2" y="435.3" class="st28" width="9.2" height="37.7"/>
				<rect x="558.3" y="435.3" class="st28" width="39.2" height="4.3"/>
			</g>
		</g>
		<g class="st6">
			<g>
				<g>
					<path class="st26" d="M911.1,438.6l-6.9,25.3h-6.6c2.7,0,5-1.1,5-2.6v-1.9h-5.1l8.2-20.9h5.5V438.6z"/>
					<path class="st26" d="M902.6,461.3c0,1.4-2.3,2.6-5,2.6h-1.8l1.7-4.4h5.1V461.3z"/>
					<polygon class="st26" points="867.8,459.4 865.2,438.6 859.8,438.6 859.8,459.4 					"/>
					<polygon class="st26" points="931.9,481.3 908.5,481.3 911,489.1 934.4,489.1 					"/>
					<path class="st26" d="M895.8,463.8h8.4l7.4,25.3h-1.5c-2.4,0-4.3-0.8-4.9-2L895.8,463.8z"/>
					<path class="st26" d="M902.4,461.9v2h-4.9C900,463.8,901.9,463,902.4,461.9z"/>
					<path class="st26" d="M864.5,463.8h34.8c1.5,0,2.6-0.5,3.1-1.1v-3.3h-42.6v2.5C860.2,463,862.3,463.8,864.5,463.8z"/>
				</g>
				<g>
					<polygon class="st26" points="920,463.8 928.4,463.8 935.3,438.6 929.8,438.6 					"/>
					<polygon class="st26" points="886.7,438.6 892.1,438.6 894.9,459.4 886.7,459.4 					"/>
					<polygon class="st26" points="886.7,462 886.7,459.4 894.9,459.4 895.1,462 					"/>
					<path class="st26" d="M920,463.8h8.4l7.4,25.3h-1.5c-2.4,0-4.3-0.8-4.9-2L920,463.8z"/>
					<path class="st26" d="M897.6,463.8c2.7,0,5-1.1,5-2.6v-1.9h24.1v4.4h-29.1V463.8z"/>
					<path class="st26" d="M897.6,463.8H890c-1.8,0-3.3-0.8-3.3-1.7v-2.7h15.8v1.9C902.6,462.7,900.3,463.8,897.6,463.8z"/>
				</g>
			</g>
			<g>
				<g>
					<polygon class="st26" points="793,463.8 784.5,463.8 777.5,438.6 783,438.6 					"/>
					<polygon class="st26" points="826.2,462 834.6,462 834.6,438.6 829.1,438.6 					"/>
					<path class="st26" d="M793,463.8h-8.4l-7.4,25.3h1.5c2.4,0,4.3-0.8,4.9-2L793,463.8z"/>
					<polygon class="st26" points="781.5,481.3 812.9,481.3 810.4,489.1 779,489.1 					"/>
					<path class="st26" d="M786.3,459.4h48.3v2c0,1.4-1,2.4-2.4,2.4h-45.9V459.4z"/>
				</g>
				<path class="st14" d="M786.2,459.4h48.3v4.4h-44.6c-1.9,0-3.5-1.6-3.5-3.5v-0.9H786.2z"/>
				<g>
					<polygon class="st27" points="824.8,463.8 816.4,463.8 809.5,438.6 814.9,438.6 					"/>
					<polygon class="st27" points="858,462 866.4,462 866.4,438.6 860.9,438.6 					"/>
					<path class="st27" d="M824.8,463.8h-8.4l-7.4,25.3h1.5c2.4,0,4.3-0.8,4.9-2L824.8,463.8z"/>
					<path class="st27" d="M818.1,459.4h48.3v2c0,1.4-1,2.4-2.4,2.4h-45.9V459.4z"/>
				</g>
			</g>
			<g>
				<g>
					<path class="st26" d="M992.9,438.6l-6.9,25.3h-6.6c2.7,0,5-1.1,5-2.6v-1.9h-5.1l8.2-20.9h5.5V438.6z"/>
					<path class="st26" d="M984.4,461.3c0,1.4-2.3,2.6-5,2.6h-1.8l1.7-4.4h5.1V461.3z"/>
					<polygon class="st26" points="944.3,459.4 941.5,438.6 936.1,438.6 936.1,459.4 					"/>
					<polygon class="st27" points="1022.1,481.3 990.4,481.3 992.9,489.1 1024.7,489.1 					"/>
					<path class="st27" d="M977.5,463.8h8.4l7.4,25.3h-1.5c-2.4,0-4.3-0.8-4.9-2L977.5,463.8z"/>
					<path class="st26" d="M984.2,461.9v2h-4.9C981.7,463.8,983.8,463,984.2,461.9z"/>
					<path class="st14" d="M941,463.8h40.2c1.5,0,2.6-0.5,3.1-1.1v-3.3h-48.2v2.5C936.7,463,938.6,463.8,941,463.8z"/>
				</g>
				<g>
					<polygon class="st27" points="1010.1,463.8 1018.5,463.8 1025.5,438.6 1020,438.6 					"/>
					<polygon class="st27" points="968.6,438.6 974,438.6 976.6,459.4 968.6,459.4 					"/>
					<polygon class="st27" points="968.6,462 968.6,459.4 976.6,459.4 977,462 					"/>
					<path class="st27" d="M1010.1,463.8h8.4l7.4,25.3h-1.5c-2.4,0-4.3-0.8-4.9-2L1010.1,463.8z"/>
					<path class="st27" d="M979.4,463.8c2.7,0,5-1.1,5-2.6v-1.9h32.5v4.4h-37.5V463.8z"/>
					<path class="st27" d="M979.4,463.8h-7.6c-1.8,0-3.3-0.8-3.3-1.7v-2.7h15.8v1.9C984.4,462.7,982.1,463.8,979.4,463.8z"/>
				</g>
			</g>
			<g>
				<rect x="833.2" y="476" class="st27" width="130.1" height="3.3"/>
				<rect x="833.2" y="476" class="st26" width="47.2" height="3.3"/>
				<rect x="900.1" y="438.6" class="st28" width="9.1" height="37.5"/>
				<rect x="885.2" y="438.6" class="st28" width="38.8" height="4.3"/>
			</g>
		</g>
	</g>
	<polygon class="st30" points="296.1,773.4 -159.1,773.4 -159.1,-194.7 439.1,-194.7 	"/>
</g>
<g id="Layer_3">
	<rect x="-173.1" y="-100.1" class="st31" width="1477.4" height="730.6"/>
</g>
<g id="Layer_2">
	<g>
		<g>
			<g>
				<g>
					<path class="st32" d="M633.2,253.3L633.2,253.3l39.2-41.8c0.3-0.3,0.7-0.7,1-1.1c3.9-4.8,3.1-11.8-1.7-15.8
						c-4.7-3.7-11.2-3.2-15.2,1.1h-0.1L618.7,241c-3.4,3.6-3.4,9.3,0,12.9c3.6,3.9,9.7,4,13.4,0.5
						C632.6,254.1,633,253.7,633.2,253.3z"/>
				</g>
				<g>
					<path class="st33" d="M561.9,268.5c4.7-2.7,34.8-20.4,59.4-28.3l0,0l0,0c4.1-1.7,8.7-0.1,10.9,3.7c0.2,0.3,0.3,0.7,0.5,1
						c1.8,4.4-0.2,9.5-4.8,11.4c-0.5,0.2-43.7,19.8-62.3,21.7L561.9,268.5z"/>
					<g>
						<path class="st32" d="M569.5,264.2l5.1,12c0.3,0.5,1.5,0.2,1.5,0.2c21.1-5.5,52.2-19.4,52.2-19.4c4.9-2,7.2-7.6,5.1-12.4
							c-2-4.9-7.6-7.2-12.4-5.1c-17.9,5.7-38.8,16.8-50.8,23.5C570.3,262.9,569,263.3,569.5,264.2z"/>
					</g>
				</g>
			</g>
			<g>
				<path class="st33" d="M545,258.7c-0.2,1.1,0.6,2.4,1.2,2.8c0,0,5.8,4.1,5.5,4.9c-0.3,0.8-3.1,0.9-3.1,0.9c-2.2,0-7,1-7,1
					l-13.9-0.2c-0.9,0.1-1.6,1-1.5,1.9c0.1,0.9,1.2,1.6,2.2,1.5l12.6,0.6c0,0,0.3,0,0.5,0.5c0,0.2,0.1,0.6-0.3,0.7l-14.9,1.8
					c-0.9,0.1-1.6,0.9-1.5,1.8c0.1,0.9,0.9,1.6,1.8,1.5l15.4-1.6c0.5-0.1,0.8,0.5,0.3,0.7l-13.4,3.9c-0.9,0.1-1.5,0.9-1.4,1.8
					c0.1,0.9,0.9,1.5,1.8,1.4l15-3.5c0.7-0.1,0.8,0.5,0.3,0.6l0,0l-10.2,4.5c-0.9,0.5-1.6,1.1-1.2,1.9c0.3,0.8,0.9,1,1.8,0.8l12-4.1
					c13.2-0.5,17.7-4.7,17.7-4.7c7.6-7.6-1.9-11.6-1.9-11.6s-2.2-2.8-6-5c-1.6-0.8-6.1-3.2-8.7-4.8c-0.9-0.6-1.7-1.2-1.7-1.2
					C545.6,257.1,545.2,257.7,545,258.7z"/>
				<path class="st34" d="M546.8,283.1c0,0-4.5-5.1-4.3-14.1C542.4,269.2,542.8,276.8,546.8,283.1z"/>
			</g>
		</g>
		<g>
			<path class="st35" d="M719.1,122.2c0,0,9.9,15.3,8.5,52.9c-1,30.8-29.1,32.6-34.5,32.6c-5.5,0-31.7,7.6-30.9-35.2
				c0.5-24.8-0.1-28.2-0.1-28.2S693.9,115.9,719.1,122.2z"/>
			<path class="st35" d="M661.8,131c0,0-1.8,13.6,1.1,20.1l1.2,0.7l5-20.6L661.8,131z"/>
			<g>
				<path class="st36" d="M681.5,343.7h13.4c27-1.2,31.6-8.9,32.8-17.8c-0.2-16.2-3.7-26.8-12.5-35.4l-56.8,0.2
					c-9,8.7-12,19.2-12,33.8c0,0,0.3,5.5,0.5,7.4C651.9,340.7,661.8,343.7,681.5,343.7z"/>
				<path class="st37" d="M721.6,298.5c-1.8-3.1-3.9-5.7-6.4-8.1l-56.8,0.2c-1.4,1.4-2.6,2.7-3.6,4.1
					C659.7,297,677.2,303.2,721.6,298.5z"/>
				<g>
					<path class="st38" d="M671.9,536.4c-3.7,10.8-13.5,22.7-13.5,22.7l-8.5,1l-8.5,2.2c0,0-2.2,2.2-0.2,5.3h21.6l7.4-18.4
						l-0.5,18.4h2.3l4.7-22.8C676.6,544.7,676.1,539.2,671.9,536.4z"/>
					<path class="st33" d="M671.9,536.4l-5.5-4.9l-6.1,4.9c0,0-6.6,20.9-10.4,23.7h7.7C657.7,560,668.2,547.2,671.9,536.4z"/>
				</g>
				<g>
					<path class="st38" d="M705.3,536.7c0,0-8.5,30.8-5.3,31.2h17c0,0,2.5,0.8-0.2-30.7l-6.2-0.8L705.3,536.7z"/>
					<path class="st33" d="M705.3,536.5l-2.8,23.3c1.5,0.3,9.3-1.2,12.3,0.9c0,0,1.8-10.7,1.9-24.2l-5.2-7L705.3,536.5z"/>
				</g>
				<g>
					<path class="st36" d="M646.7,328.2c-0.1-1.1-0.2-2.2-0.2-3.3c0.2-10.8,9.1-19.5,20-19.5h0.3c11,0.2,19.8,9.3,19.6,20.3
						c0,1-0.1,2-0.3,3.1l-5.8,97.6v1.6v1.6h-0.2c-0.9,6.6-6.6,11.6-13.3,11.6l0,0l0,0c-7.4,0-13.4-6.1-13.4-13.5c0-0.3,0-0.7,0-1
						L646.7,328.2z"/>
				</g>
				<g>
					<path class="st36" d="M653.2,426.8V426h0.1c0.8-6.7,6.5-11.9,13.4-11.9c3.6,0,7,1.4,9.5,4c2.5,2.5,3.9,5.7,3.9,9.2v0.2
						c3.3,22.4,3.4,28.4,1,54.2c-1.2,13.4-3.5,25.1-7.4,44.6c-0.7,3.4-1.4,7.4-1.7,10l-13.2,0.5l-5.6-106.9
						c-0.1-0.7-0.2-1.5-0.2-2.2C653.2,427.3,653.2,427,653.2,426.8z"/>
				</g>
				<path class="st37" d="M680,429.4c-0.9,6.6-6.6,11.6-13.3,11.6l0,0l0,0c-6.7,0-12.3-4.9-13.3-11.4l0,0l5.6,106.9l13.2-0.5
					c0.3-2.6,1-6.6,1.7-10c3.7-19.4,6.1-31.1,7.4-44.6c2.4-25.4,2.3-31.7-0.9-53.6v1.5H680V429.4z"/>
				<g>
					<path class="st36" d="M687.3,425.8l0.7-99c-0.1-1.1-0.1-2.3,0-3.4c0.9-10.2,9.7-18.2,19.9-18.2c0.5,0,1,0,1.5,0h0.3
						c11,1,19.1,10.7,18.1,21.7c-0.1,1-0.2,2-0.6,3l-12.9,97l-0.1,1.6L714,430h-0.1c-1.2,5.5-5.8,9.9-11.7,10.4
						c-0.5,0-0.9,0.1-1.4,0.1c-6.9,0-12.7-5.2-13.4-12C687.1,427.5,687.1,426.6,687.3,425.8z"/>
				</g>
				<g>
					<path class="st36" d="M687.1,427.7l-0.1-0.8h0.1c0.1-6.7,5.2-12.5,12-13.2c0.5,0,0.9-0.1,1.5-0.1c3.2,0,6,1,8.5,3.1
						c2.7,2.2,4.4,5.2,4.9,8.7v0.2c5.6,21.9,6.4,27.9,6.7,53.7c0.1,13.5-0.9,25.4-2.6,45.1l-0.2,3c-0.2,2.6-0.5,5.3-0.7,8.2
						l-0.1,1.4l-12.9-0.1l-16.5-106.3c-0.1-0.7-0.3-1.2-0.3-1.9C687.1,428.2,687.1,427.9,687.1,427.7z"/>
				</g>
				<path class="st37" d="M714.1,428.4L714,430h-0.1c-1.2,5.5-5.8,9.9-11.7,10.4c-0.5,0-0.9,0.1-1.4,0.1c-6.2,0-11.6-4.2-13.1-10.1
					l0,0l16.5,106.3l12.9,0.1l0.1-1.4c0.2-2.8,0.5-5.6,0.7-8.2l0.2-3c1.7-19.8,2.8-31.7,2.6-45.1c-0.3-25.4-1-31.7-6.5-52.8v0.3
					L714.1,428.4z"/>
			</g>
			<path class="st39" d="M679.3,184.8c0,0,10.7-3,18.2,0l0.8,5.7l-20.6,1L679.3,184.8z"/>
			<polygon class="st40" points="695.1,197.5 680.8,197.3 682,172.8 692.7,172.8 			"/>
			<path class="st41" d="M682,172.8h10.7l1.2,13.7c-4.9-0.2-9.5-1.6-12.6-2.7L682,172.8z"/>
			<path class="st40" d="M688.4,199.8c7.4,0,13.4-4,13.9-9.1c-6.7-0.8-12-1-12-1h-1.6c0,0-6.5,0.2-14.1,1.2
				C675.2,195.9,681.1,199.8,688.4,199.8z"/>
			<g>
				<path class="st42" d="M732.2,198.3c-1.9-4-10.3-6.2-17-6.5c-0.1,0-0.2,0-0.3-0.1c-3.3-0.6-7.7-1-13.3-1.2l0,0l0,0l0,0l0,0
					l-14.9,5.9l-11.8-5.6l0,0c-0.3,0-0.7,0-1,0c-10.4,0.6-10.4,0.6-11.1,1.7l-0.2,0.5v0.5c-0.1,0.8-1.7,9.8-1.9,10.7
					c-1.1,3.6-2.8,7.2-5.1,10.3c-3.7,5.2-7.7,11.5-6.1,19.3c1.4,7,5.6,12.8,11.1,15.8c1.5,6.2,2,19,1.5,24.6
					c-0.6,5.3-4.2,15.3-6.4,19.5c-0.8,0.7,25,1.6,31.1,1.6c16.5,0,31.1-2.6,31.1-2.6c-1.8-4.7-3.4-11.9-4.4-18.7
					c-1.2-8.1-1.2-24.2,1.5-30.2c2-4.7,4-9.4,5.8-14c1.1-3,2.4-5.9,3.5-8.9c0.7-1.6,1.4-3.3,1.9-4.9c0.5-1,0.8-2.2,1.2-3.2
					C732.7,210.1,734.8,203.6,732.2,198.3z"/>
			</g>
			<path class="st43" d="M714.4,204.3c-11.1-2.3-30.9,47.9-30.9,47.9c-8.5,5.1-15.8,11.1-21.6,16.9c0,1.9-0.1,3.7-0.2,5
				c-0.6,5.3-4.2,15.3-6.4,19.5c-0.3,0.3,4.1,0.7,9.7,0.9c11.7-6.6,29.1-19.2,35.8-24.5c5.3-4.3,9.4-11.1,11.9-16
				c0.3-4.3,0.9-8.1,2-10.4c2-4.7,4-9.4,5.8-14c1.1-3,2.4-5.9,3.5-8.9c0.7-1.6,1.4-3.3,1.9-4.9c0.5-1,0.8-2.2,1.2-3.2
				c2.6-1.4,4.4-3.5,5.3-6C726.3,206.1,719.4,205.3,714.4,204.3z"/>
			<g>
				<path class="st39" d="M701.5,190.5l-15,5.9l-11.8-5.6l2.4,5.1c-2.7,4.4,0.5,9.1,0.5,9.1c3.3-0.5,6.1-2.8,6.1-2.8
					c1.6,1,4.7,0.5,4.7,0.5c3.3,3.3,6.4,2.4,6.4,2.4c1.6-2.5,2-4.5,2-6.1L701.5,190.5z"/>
			</g>
			<polygon class="st44" points="679.3,184.8 674.7,190.9 680.4,201.3 686.5,196.4 			"/>
			<polygon class="st44" points="697.5,184.8 701.5,190.5 692.5,202.4 686.5,196.4 			"/>
			<path class="st43" d="M703.8,249.6c3.6-0.1,5.7-2.5,5.7-2.5h-52.7c1,0.8,2,1.6,3.2,2.3c0.3,0.1,0.8,0.2,1.1,0.2
				C674.1,249.8,701,249.8,703.8,249.6z"/>
			<path class="st40" d="M667.4,146c0,0-8.6-3.1-8.6,5.7c0,8.6,8.6,6.1,8.6,6.1V146z"/>
			<g>
				<path class="st45" d="M711.5,157.1c0,14.2-10.7,25.7-23.8,25.7l0,0c-13.2,0-23.8-11.5-23.8-25.7l2.5-22.7
					c0-14.2,8.1-17.9,21.2-17.9l0,0c13.2,0,22.1,3.6,22.1,17.8L711.5,157.1z"/>
				<path class="st40" d="M705,127.8c0,0,1.4,3.3,4.5,5.8c-0.2-13.6-9.2-17.1-22.1-17.1c-13.2,0-21.2,3.7-21.2,17.9l-0.6,5.1
					C671.8,140.2,689.8,140.6,705,127.8z"/>
				<path class="st40" d="M686.6,180.4c12.4,0,22.5-10.1,23.7-23.1l1.1,0.3c-0.3,13.9-10.9,25.1-23.8,25.1
					c-10.1,0-18.7-6.8-22.3-16.4C669.3,174.7,677.3,180.4,686.6,180.4z"/>
			</g>
			<path class="st45" d="M709.9,146c0,0,8.6-3.1,8.6,5.7c0,8.6-8.6,6.1-8.6,6.1V146z"/>
			<g>
				<g>
					<path class="st46" d="M675.3,166.1H690c0,0,1.5,0,0.5,2.2c-0.7,1.4-2.4,4.3-7.5,4.4c-6,0.1-8.1-4.7-8.1-4.7
						S673.9,166.1,675.3,166.1z"/>
					<path class="st14" d="M690.7,167.6c0.5-1.6-0.7-1.6-0.7-1.6h-14.7c-1.1,0-0.8,1.1-0.7,1.7C677.5,168.6,683.3,169.5,690.7,167.6
						z"/>
				</g>
				<path class="st40" d="M679.9,156.1c0,0-3.9-0.1-3.9,3.2c0,3.3,6,2.5,6.2,0C682.5,156.9,682.8,138.6,679.9,156.1z"/>
				<g>
					<path class="st35" d="M698.3,145c-1-0.3-2.2-0.6-3.3-0.6l0,0c-1.1,0-2.3,0.2-3.3,0.6l0,0c-0.3,0.1-0.8-0.1-0.9-0.5l0,0
						c-0.1-0.5,0.1-0.8,0.5-0.9l0,0c1.2-0.3,2.5-0.6,3.7-0.6l0,0c1.2,0,2.5,0.2,3.7,0.6l0,0c0.3,0.1,0.6,0.6,0.5,0.9l0,0
						c-0.1,0.3-0.5,0.6-0.7,0.6l0,0C698.5,145,698.4,145,698.3,145L698.3,145z"/>
				</g>
				<g>
					<path class="st35" d="M666.5,144.6c-0.1-0.5,0.1-0.8,0.5-0.9l0,0c1.2-0.3,2.5-0.6,3.7-0.6l0,0c1.2,0,2.5,0.2,3.7,0.6l0,0
						c0.3,0.1,0.6,0.6,0.5,0.9l0,0c-0.1,0.3-0.6,0.6-0.9,0.5l0,0c-1-0.3-2.2-0.6-3.3-0.6l0,0c-1.1,0-2.3,0.2-3.3,0.6l0,0
						c-0.1,0-0.1,0-0.2,0l0,0C666.9,145,666.6,144.9,666.5,144.6L666.5,144.6z"/>
				</g>
				<path class="st40" d="M707.4,160c0,1.5-2.3,2.7-5,2.7c-2.7,0-5-1.2-5-2.7c0-1.5,2.3-2.7,5-2.7
					C705.1,157.3,707.4,158.6,707.4,160z"/>
				<path class="st40" d="M671.8,160c0,1-1.5,1.8-3.4,1.8c-1.8,0-3.3-0.8-3.3-1.8c0-1,1.5-1.8,3.3-1.8
					C670.3,158.2,671.8,159,671.8,160z"/>
				<g>
					<path class="st47" d="M695.4,152.5c0,2.2-0.9,3.9-1.9,3.9c-1,0-1.9-1.7-1.9-3.9s0.8-3.9,1.9-3.9
						C694.6,148.7,695.4,150.4,695.4,152.5z"/>
					<path class="st47" d="M693.9,149.1c0,0,2-0.1,2.2-1c0,0-0.3,2.4-0.9,2.6L693.9,149.1z"/>
				</g>
				<g>
					<path class="st47" d="M669.3,152.5c0,2.2,0.9,3.9,1.9,3.9s1.9-1.7,1.9-3.9s-0.8-3.9-1.9-3.9S669.3,150.4,669.3,152.5z"/>
					<path class="st47" d="M670.9,149.1c0,0-2-0.1-2.2-1c0,0,0.3,2.4,0.9,2.6L670.9,149.1z"/>
				</g>
			</g>
			<path class="st48" d="M683.9,201.1c0,0-2.6,2.2-5.8,2.6c0,0-3.2-4.8-0.1-9c0,0,3.2,0.3,5.9,2.3c0,0,2.2-1.4,4.4,0.1
				c0,0,3-2.2,6.8-2.5c0,0,2.5,3.4-1,9.1c0,0-2.8,0.8-6-2.3C688.2,201.6,685.3,202.2,683.9,201.1z"/>
			<path class="st35" d="M704.8,120.2c0,0-17.3,22.5-43.4,16.7c0,0-3.4-25,17.3-28.1C678.6,108.8,698.8,103.1,704.8,120.2z"/>
			<path class="st35" d="M692.7,110.9c0,0,16.8-4.1,25.3,9.5c0,0,2.8,5.1,4.7,10.7c1.8,5.6-12.7,7.8-12.7,7.8
				S707.1,114.9,692.7,110.9z"/>
			<path class="st49" d="M665.8,135.4c-0.2,0-0.3-0.2-0.3-0.5l0,0c0-0.2,0.2-0.3,0.5-0.3l0,0c1,0.1,2,0.1,3.1,0.1l0,0
				c13.7,0,25.4-8.9,30.4-13.4l0,0c1.7-1.5,2.6-2.5,2.6-2.5l0,0l0,0c0.1-0.1,0.5-0.2,0.6,0l0,0c0.1,0.1,0.2,0.5,0,0.6l0,0
				c0,0-14.8,16-33.5,16.1l0,0C668,135.5,666.9,135.5,665.8,135.4L665.8,135.4z"/>
			<path class="st49" d="M701.2,117.2c-0.2-0.9-1-2.2-1.7-3.2l0,0c-0.7-1-1.2-1.7-1.2-1.7l0,0c-0.1-0.1-0.1-0.5,0-0.6l0,0
				c0.1-0.1,0.5-0.1,0.6,0l0,0c0,0,2.5,3,3.2,5.2l0,0c0.1,0.2-0.1,0.5-0.2,0.5l0,0h-0.1l0,0C701.5,117.4,701.3,117.3,701.2,117.2
				L701.2,117.2z"/>
			<path class="st49" d="M713,140.7c0-3.2-1.5-8.3-3-12.5l0,0c-1.5-4.3-3-7.7-3-7.7l0,0l0,0c-0.1-0.2,0-0.5,0.2-0.6l0,0
				c0.2-0.1,0.5,0,0.6,0.2l0,0c0,0,5.9,13.9,5.9,20.6l0,0c0,0.2-0.2,0.5-0.5,0.5l0,0C713.2,141.2,713,141,713,140.7L713,140.7z"/>
		</g>
		<g>
			<polygon class="st50" points="616.3,568 605.3,453.3 614.9,452 626.1,568 			"/>
			<polygon class="st50" points="548.4,568 537.4,453.3 547,452 558.1,568 			"/>
			<polygon class="st51" points="457.7,568 472.2,452 481.8,453.3 467.5,568 			"/>
			<polygon class="st51" points="526.1,568 540.6,452 550.2,453.3 535.9,568 			"/>
			<rect x="466.9" y="526.7" class="st51" width="68.8" height="7.3"/>
			<rect x="548.6" y="526.7" class="st50" width="68.8" height="7.3"/>
			<path class="st52" d="M502.9,442.6c0,5.7,4.7,10.3,10.3,10.3h100.6c5.7,0,10.3-4.7,10.3-10.3l19.6-158.4
				c0-5.7-4.7-10.3-10.3-10.3H532.9c-5.7,0-10.3,4.7-10.3,10.3L502.9,442.6z"/>
			<path class="st53" d="M603.8,442.6l19.6-158.4c0-5.7,4.5-10.2,10.2-10.3c5.7,0.1,10.2,4.7,10.2,10.3l-19.6,158.4
				c0,5.7-4.5,10.2-10.2,10.3C608.3,452.8,603.8,448.3,603.8,442.6z"/>
			<path class="st54" d="M466.7,452.1c0,3.2,2.6,5.8,5.8,5.8h140.8c3.2,0,5.8-2.6,5.8-5.8l0,0c0-3.2-2.6-5.8-5.8-5.8H472.6
				C469.3,446.3,466.7,448.9,466.7,452.1L466.7,452.1z"/>
			<path class="st53" d="M554.3,442c0,5.7,4.5,10.2,10.2,10.2h50.2c5.7,0,10.2-4.5,10.2-10.2l0,0c0-5.7-4.5-10.2-10.2-10.2h-50.2
				C558.9,431.8,554.3,436.3,554.3,442L554.3,442z"/>
			<path class="st55" d="M470.4,431.8h92c0.3,0,0.7,0,1.1,0.1c-5.1,0.6-9.1,4.9-9.1,10.1s4,9.5,9.1,10.1c-0.3,0-0.7,0.1-1.1,0.1h-92
				c-5.7,0-10.2-4.5-10.2-10.2S464.8,431.8,470.4,431.8z"/>
		</g>
		<g>
			<g>
				<g>
					<path class="st42" d="M705.7,261.3L705.7,261.3l27.7-50.2c0.2-0.5,0.5-0.8,0.7-1.2c2.6-5.7,0.1-12.3-5.6-14.9
						c-5.3-2.5-11.7-0.2-14.5,4.9h-0.1L688.6,253c-2.4,4.3-1,9.9,3.2,12.6c4.4,2.8,10.3,1.5,13.2-3
						C705.2,262.4,705.4,261.9,705.7,261.3z"/>
				</g>
				<g>
					<path class="st33" d="M640.2,293.6c3.7-3.9,28.6-28.4,50.5-42l0,0l0,0c3.5-2.6,8.4-2.3,11.5,0.9c0.2,0.2,0.5,0.6,0.7,0.8
						c2.8,3.9,2,9.3-1.8,12.2c-0.3,0.3-37.5,30-55.2,36.3L640.2,293.6z"/>
					<g>
						<path class="st42" d="M646.6,287.7l7.9,10.3c0.5,0.3,1.5-0.1,1.5-0.1c19.2-10.6,45.8-31.7,45.8-31.7c4.2-3.2,5.1-9.1,1.9-13.3
							c-3.2-4.2-9.1-5.1-13.3-1.9c-16,10-33.5,25.8-43.4,35.3C646.9,286.2,645.9,286.9,646.6,287.7z"/>
					</g>
				</g>
			</g>
			<g>
				<path class="st33" d="M621.4,288.4c0,1.1,1.1,2.2,1.9,2.5c0,0,6.6,2.5,6.5,3.4c-0.1,0.8-2.7,1.7-2.7,1.7
					c-2.2,0.6-6.5,2.7-6.5,2.7l-13.5,3.3c-0.9,0.3-1.2,1.4-0.9,2.2c0.3,0.9,1.6,1.2,2.4,0.9l12.4-2.6c0,0,0.3-0.1,0.6,0.3
					c0.1,0.2,0.2,0.5-0.1,0.7l-14,5.5c-0.9,0.3-1.4,1.4-1,2.2c0.3,0.9,1.2,1.2,2.2,0.9l14.5-5.3c0.5-0.2,0.9,0.2,0.5,0.6l-12,7
					c-0.8,0.3-1.2,1.2-0.9,2c0.3,0.8,1.2,1.2,2,0.9l13.7-7c0.6-0.2,0.9,0.2,0.5,0.5l0,0l-8.7,6.9c-0.7,0.7-1.2,1.5-0.7,2.2
					s1.1,0.8,1.9,0.3l10.7-6.9c12.6-3.6,16-8.9,16-8.9c5.6-9.3-4.8-10.7-4.8-10.7s-2.7-2.2-7-3.3c-1.7-0.5-6.7-1.5-9.7-2.5
					c-1-0.3-1.9-0.8-1.9-0.8C621.7,286.7,621.4,287.3,621.4,288.4z"/>
			</g>
		</g>
	</g>
	<g>
		<g>
			<g>
				<path class="st56" d="M901.6,562.9h32.3c0,0,1.7-8.9-5.1-20.1l-21.7,0.3C907,543.2,901,552.3,901.6,562.9z"/>
				<rect x="901.9" y="562.9" class="st57" width="31.9" height="5"/>
				<path class="st58" d="M929.6,553.4c0,2.2-5.5,4-12.2,4c-6.7,0-12.2-1.8-12.2-4s5.5-4,12.2-4
					C924.2,549.5,929.6,551.3,929.6,553.4z"/>
			</g>
		</g>
		<g>
			<g>
				<path class="st56" d="M883.3,540.3c0,0,2.5,13.2,0.6,22h-60.4c0,0-2.4-13.4,24-13.4l16.9-11.5L883.3,540.3z"/>
				<polygon class="st57" points="884.1,567.4 823.7,567.1 823.7,562.4 884.1,562.4 				"/>
				<path class="st58" d="M845.8,549c0,0-0.6,9.2-21.6,8.7C824.3,557.7,827.3,549,845.8,549z"/>
			</g>
		</g>
		<path class="st59" d="M842.8,318.2c0,0,0.8,81.2,12.5,223.8c0,0,12.7,8.9,28.7,2c0,0-2.6-115.3-2.3-181.5
			c0,0,12.3,84.4,21.6,180.6c0,0,17.4,7.9,28.7-1.6c0,0-9.2-124.5-10.2-219.3C921.9,322.2,873.9,328.5,842.8,318.2z"/>
		<path class="st60" d="M923.5,383c-0.8-20.7-1.4-41.3-1.5-60.8c0,0-48.2,6.4-79-3.9c0,0,0,2.7,0.1,7.8c6.1,3.6,19.3,10.9,26.6,13.3
			V374c0,0,4.3,2.3,12.3,4.4c0-5.6,0-10.9,0-15.9c0,0,0.9,6,2.3,16.6C893.4,381.4,906.6,383.5,923.5,383z"/>
		<g>
			<path class="st61" d="M774.4,206.9c0,0-0.8-5.2-5.8-4.9c-5,0.2-45.7-1.7-45.7,1.1c0,2.8,17.8,4.9,17.8,4.9l16.2,3.5l5.9,4.8
				L774.4,206.9z"/>
			<path class="st62" d="M844,194.2c0,0-7.6,8.2-35.9,57.7l-31.9-46.7c0,0-15.2,4-16.9,13.3c0,0,31.7,67.6,50.9,64.2
				c19.2-3.4,40-39.9,40-39.9S852.7,208.3,844,194.2z"/>
		</g>
		<polygon class="st63" points="801.7,202.3 699.6,202.3 691.5,197.9 810.4,197.9 		"/>
		<path class="st64" d="M707.6,197.9c0,0-0.9-40.2,43.4-40.2s42.9,40.2,42.9,40.2H707.6z"/>
		<path class="st63" d="M747.7,157.5V153c0,0-3.5,0.7-3.5-2.2c0-3.4,12.5-3.4,12.5,0s-3.4,2.2-3.4,2.2v4.5H747.7z"/>
		<path class="st14" d="M710.1,196.1c0,0,0.6-30.2,28.7-35.8c0,0-10.9,11.7-9.3,35.8H710.1z"/>
		<path class="st64" d="M844.2,194.2c0,0-1.6,21.5-1.4,124c0,0,24.6,17.3,79,3.9c0,0,0.1-30.8,7.5-58.1c0,0,13.3-51.4,6.6-66.4
			C936,197.5,898.4,172.1,844.2,194.2z"/>
		<g>
			<path class="st61" d="M880.4,184l-0.1,4.1c0,0,3.6,4.3,11.7,4.1c8.1-0.3,11.4-5,11.4-5l-0.2-10.6
				C893.7,181.7,884.4,184.2,880.4,184z"/>
			<path class="st65" d="M903.2,176.7l-0.6-14l-23.2,0.9l0.9,20.4C884.4,184.2,893.7,181.7,903.2,176.7z"/>
		</g>
		<path class="st59" d="M872.8,186.3c0,0,0,44.7,4.5,65.6c0,0,24.6-53.7,32.5-64.5c0,0,9.2,0.6,20.1,6.7c0,0-9.3,29.4,1.9,59.6
			c0,0-6.8,54.4-7.2,59.3c0,0-42.4,7.8-48.6-14.9c0,0-6.5,16.8-34.6,10.3l-0.1-52.4c0,0,12.5-35.5,11-65
			C852.3,191.3,861.8,186.5,872.8,186.3z"/>
		<path class="st62" d="M880.3,181.7c0,0,0.2,7,7.6,10.3c0,0,13.3-4.2,15.3-12.2l6.5,7.5c0,0-5,11.2-15.7,15.2l-6.2-8.5l-7.6,6.9
			c0,0-8.3-8.1-7.6-14.6L880.3,181.7z"/>
		<path class="st48" d="M883.8,201c0,0-4.2,3-9.1,3.4c0,0-4.3-7.6,0.9-13.6c0,0,4.8,0.8,8.7,4.2c0,0,3.4-1.9,6.7,0.8
			c0,0,4.8-3.1,10.6-3.1c0,0,3.4,5.5-2.6,13.6c0,0-4.4,0.9-8.9-4.1C890.3,202.3,885.9,202.7,883.8,201z"/>
		<g>
			<path class="st66" d="M908.3,113.7c0,0-21.1,10.2-26.2,9.7c-5.1-0.6-21.5-8.3-21.5-8.3c-2,9.8,2.8,17.9,2.8,17.9l46.3,8.6
				l10.3,1.9c2-8.3,2.8-14.6,2.7-19.5C913.5,121.9,908.3,113.7,908.3,113.7z"/>
			<path class="st67" d="M915.4,108c-4.2-16.7-32.7-17.6-32.7-17.6c-15-9-9.3,2.6-9.3,2.6c-25.1-8.7-13.1,13.6-13.1,13.6
				c-9.3-0.2,0.2,8.4,0.2,8.4s16.4,7.7,21.5,8.3c5.1,0.6,26.2-9.7,26.2-9.7s5.2,8.3,14.7,10.3C922.8,109.2,915.4,108,915.4,108z"/>
			<path class="st61" d="M916.2,134.4l-4.1,6.1c-0.7-1.7-1.4-3.5-1.8-5.3c-2.8-10.4-2-21.5-2-21.5c-24.1,9.5-44.7,2.8-44.7,2.8
				c1.2,11.9-3.6,39,5.6,52.4c2.7,4,6.8,6.8,12.6,7.7c25.3,3.7,32.1-23.1,32.1-23.1s8.4-0.7,10-12.3
				C925.1,131.5,916.2,134.4,916.2,134.4z"/>
			<path class="st66" d="M876.8,142.7c-0.1,2.6-1.5,4.7-3.2,4.5c-1.6-0.1-2.8-2.3-2.7-4.8c0.1-2.6,1.5-4.7,3.2-4.5
				C875.7,137.9,876.9,140,876.8,142.7z"/>
			<path class="st66" d="M899.1,142.7c-0.1,2.6-1.5,4.7-3.2,4.5c-1.6-0.1-2.8-2.3-2.7-4.8c0.1-2.6,1.5-4.7,3.2-4.5
				C897.9,137.9,899.2,140,899.1,142.7z"/>
			<g>
				<path class="st65" d="M884,155.5c-5,1.6-7.5-0.9-7.5-3.2c0-1.5,0.9-2.7,2.4-3.2c3.1-0.9,5.5-5.3,5.6-5.3l0,0
					c-0.1,1-1.5,4.9-5.3,6.8c-0.8,0.5-1.4,0.9-1.4,1.6C877.7,153.4,879.4,155.5,884,155.5L884,155.5z"/>
			</g>
			<g>
				<path class="st67" d="M867.6,131.9l-0.2-1.5c0.3,0,5.3-1.5,11.2-1l0.1,2.3C874,131,867.7,131.9,867.6,131.9z"/>
			</g>
			<g>
				<path class="st67" d="M903.5,132.4c-4-1.5-11.2-1.7-11.4-1.8l0.5-2.2c0.3,0.1,6.9,0.2,11.4,2.6L903.5,132.4z"/>
			</g>
			<g>
				<path class="st14" d="M878.5,160.8l1.1,5.1c0,0,10.1,3.4,13.1-5.1C892.7,160.8,884.1,162.6,878.5,160.8z"/>
			</g>
			<path class="st68" d="M862.4,91.1c0,0,10.6,10.3,35.2,10.1c0,0-16,11.4-37.9,4C859.7,105.2,854,91.9,862.4,91.1z"/>
		</g>
		<g>
			<path class="st65" d="M854.1,285.1c0,0-0.9-2.3,7.8-4.3c0,0,2.2,1.2,0,3.3L854.1,285.1z"/>
			<path class="st61" d="M891.9,290.5l-8.4-7.4c0,0-3.6-0.7-8.5-2.8c-3.9-1.7-7.3-2-12.7-5.2c0,0-2.6,2.2,4.4,7.6
				c0,0-12.5-0.2-12.5,2.5c0,0-0.1,1.7,1.5,3.1c0,0-2.7,2.3,1.4,4.7c0,0-1.7,2.8,3.3,4c0,0-0.6,3,3.6,3.6l5.6,0.8
				c0,0,8.6-0.6,15.1-2.6L891.9,290.5z"/>
		</g>
		<path class="st64" d="M957.7,294c0.6-87.7-21.7-96.4-21.7-96.4c-11.2,7.8-6.5,49.1-6.5,49.1l2.4,22l0.9,6.2l-46.6,4.8
			c-10.6,11.7,0,21,0,21C947,309.9,957.7,294,957.7,294z"/>
		<path class="st69" d="M929.6,275.2c0,0,8.3,18.3,9,27c0,0-9,1.5-12.5,1.1L929.6,275.2z"/>
		<path class="st70" d="M929.4,273.3c0,0,5,43.6,2.4,86.2l-51.4,1.5c0,0,0.5-78-3.3-80.6C877,280.4,872.4,274.5,929.4,273.3z"/>
	</g>
	<g>
		<g>
			<path class="st62" d="M982,257c2.4-1.8,5.5-4.8,9.5-9.7l1.7-2c14.3-16.9,29.3-34.6,32.8-42.2c0-0.1,0.1-0.2,0.1-0.3
				c0.1-0.2,0.1-0.3,0.2-0.6c1.4-3.5,1.1-7.5-0.7-10.9c-1-1.8-2.5-3.4-4.2-4.5c-4.8-3.1-10.9-2.6-15.1,0.7c-0.2,0.1-0.5,0.1-0.7,0.2
				c-17,21.4-46.2,53.6-39.4,65.9l0,0c0.1,0.1,0.1,0.2,0.2,0.3l0.2,0.3c0.2,0.5,0.6,0.9,0.9,1.2c0.3,0.5,0.8,1,1.2,1.4
				c0.1,0,0.2,0.1,0.2,0.1c0.1,0,0.7,0.5,1.6,0.9c0.1,0.1,0.2,0.1,0.3,0.2c0.1,0,0.2,0.1,0.3,0.1c0.2,0.1,0.6,0.2,0.8,0.3
				c0.1,0,0.2,0.1,0.3,0.1c0.1,0,0.2,0.1,0.3,0.1c1,0.3,2,0.6,3.1,0.6c0.9,0,1.8-0.1,2.7-0.5C980,258.4,981.1,257.8,982,257z"/>
		</g>
		<g>
			<path class="st71" d="M1148.7,256.2c-2.6-1.5-6-4.1-10.8-8.4l-2-1.8c-16.4-15-33.5-30.5-37.9-37.8c-0.1-0.1-0.1-0.2-0.2-0.3
				c-0.1-0.2-0.2-0.3-0.3-0.6c-1.8-3.3-2.2-7.3-0.7-10.9c0.8-1.9,2-3.7,3.6-5.1c4.3-3.7,10.4-4,15-1.2c0.2,0,0.5,0.1,0.7,0.1
				c19.5,19,52.6,47.2,47.5,60.3l0,0c0,0.1-0.1,0.2-0.1,0.5l-0.1,0.5c-0.2,0.5-0.5,0.9-0.7,1.4c-0.3,0.6-0.6,1.1-1.1,1.5
				c-0.1,0.1-0.1,0.1-0.2,0.2c0,0.1-0.6,0.6-1.5,1c-0.1,0.1-0.2,0.1-0.3,0.2c-0.1,0-0.2,0.1-0.3,0.1c-0.2,0.1-0.5,0.2-0.8,0.3
				c-0.1,0-0.2,0.1-0.3,0.1c-0.1,0-0.2,0.1-0.3,0.1c-0.9,0.5-1.9,0.8-3.1,0.9c-0.9,0.1-1.8,0.1-2.8-0.1
				C1150.8,257.4,1149.7,256.9,1148.7,256.2z"/>
		</g>
		<g>
			<path class="st38" d="M1072.4,568c0,0,0.9-12.4,2.7-18.5c0,0,5.9,0.3,7.5-1.7c1.7-2,11.6-11.1,16.1,0l3.3,6.1
				c0,0,15.6-4.8,10.6,14.1L1072.4,568L1072.4,568z"/>
			<path class="st72" d="M1112.7,568h-40.2c0,0,0.1-2.5,0.5-5h40.7C1113.5,564.2,1113.1,565.9,1112.7,568z"/>
		</g>
		<g>
			<g>
				<g>
					<path class="st38" d="M1019,544.1c0,0-8.1,7.2-21.8,11.8c0,0-24.9-7.8-18.3,11.9h64.7c0,0,2.2-14.1-2.2-23.5
						c0,0-1.6-0.7-3.9,1.5c-2.3,2.2-10,3.4-13.9,2.3C1023.8,547.9,1021.6,543.3,1019,544.1z"/>
					<path class="st72" d="M1044.1,563.1c-0.1,3-0.5,4.7-0.5,4.7h-64.7c-0.7-1.9-1-3.5-1-4.7H1044.1z"/>
				</g>
			</g>
		</g>
		<g>
			<g>
				<path class="st36" d="M1055.8,328.6c0-0.3,0.1-0.7,0.1-1c0.8-11.2-7.7-21-19-21.7c-11.2-0.8-20.9,7.7-21.7,18.9h-0.1l0.9,114.6
					v0.1c-0.6,9.3,6.6,17.4,15.9,17.9c9.3,0.6,17.4-6.6,17.9-15.9c0-0.6,0-1,0-1.6L1055.8,328.6z"/>
			</g>
			<g>
				<path class="st36" d="M1015.6,544c0-0.2-0.1-0.3-0.1-0.6c0-0.1,0-0.2,0.1-0.3l0.5-101.3c-0.1-0.8-0.1-1.7-0.1-2.6
					c0.6-9.3,8.6-16.5,17.9-15.9c9.3,0.6,16.5,8.6,15.9,17.9l0,0l0,0l-3.9,103.2h-0.2c0,0.1,0,0.2,0,0.2c-0.1,2.7-7,4.5-15.3,4.2
					c-7.4-0.3-13.5-2.3-14.7-4.7h-0.1L1015.6,544z"/>
			</g>
			<path class="st37" d="M1031.9,457.2c-8.4-0.6-15-7-15.9-15.2l-0.5,101.1c0,0.1-0.1,0.2-0.1,0.3c0,0.2,0,0.3,0.1,0.6v0.3h0.1
				c1.2,2.3,7.3,4.3,14.7,4.7c8.4,0.3,15.2-1.5,15.3-4.2c0-0.1,0-0.2,0-0.2h0.2l3.9-103.2l0,0
				C1049.3,450.6,1041.2,457.8,1031.9,457.2z"/>
		</g>
		<g>
			<g>
				<path class="st36" d="M1099.8,330.2c0-0.3,0.1-0.7,0.1-1.1c0.2-11.2-8.6-20.6-19.9-20.9c-11.2-0.2-20.6,8.6-20.9,19.8h-0.1
					l5.9,114.5v0.1c-0.1,9.4,7.3,17.1,16.7,17.3c9.4,0.1,17.1-7.3,17.3-16.7c0-0.6,0-1,0-1.6L1099.8,330.2z"/>
			</g>
			<g>
				<path class="st36" d="M1064.9,442.5c0.1-9.4,7.8-16.8,17.3-16.7c9.4,0.1,16.8,7.8,16.7,17.3l0,0l0,0l0.3,101.9h-0.2
					c0,0.1,0,0.2,0,0.2c0,2.7-6.8,4.9-15.1,4.9c-7.4,0-13.5-1.7-14.9-4h-0.1v-0.5c0-0.1-0.1-0.3-0.1-0.6c0-0.1,0-0.2,0-0.3
					l-3.6-99.7C1065,444.3,1064.9,443.4,1064.9,442.5z"/>
			</g>
			<path class="st37" d="M1081.6,459.8c-8.4-0.1-15.3-6.5-16.5-14.5l3.6,99.6c0,0.1,0,0.2,0,0.3c0,0.2,0,0.3,0.1,0.6v0.5h0.1
				c1.4,2.3,7.5,4,14.9,4c8.4,0,15.1-2.2,15.1-4.9c0-0.1,0-0.2,0-0.2h0.2l-0.3-101.9l0,0C1098.6,452.5,1090.9,460,1081.6,459.8z"/>
		</g>
		<path class="st36" d="M1015.6,312.8c0,0-7.8,40.9,35.4,37.6h12.4c14.4,0,25-1.4,29.9-7.4c10-9.5,5.7-30.4,5.7-30.4
			c-0.8-3.2-0.2-4.8,0-6.5l-83,0.2C1016.1,308,1016.1,309.3,1015.6,312.8z"/>
		<path class="st37" d="M1015.9,328.7c-1.8-8.4-0.3-15.9-0.3-15.9c0.6-3.5,0.7-4.8,0.3-6.6l83-0.2c-0.2,1.8-0.8,3.3,0,6.5
			c0,0,0.7,3.2,0.9,7.6C1088.5,323.5,1054.4,332.2,1015.9,328.7z"/>
		<polygon class="st73" points="1066,169.3 1040.8,169.3 1040.6,172.2 1050.6,185.2 1055.2,184.7 1065.7,173.2 		"/>
		<g>
			<path class="st71" d="M1100.3,245.8c0.8-11,7.6-26.5,12.5-38.4c4.4-1.1,7.8-5.1,7.8-10c0-5.7-7.7-9.4-13.1-11.2
				c-1.6-0.6-3-0.9-4.1-1.1c-13.6-6.8-35-6.8-35-6.8l-28.3,0.7c0,0-15.1,0.7-32.6,8.9c0,0,0.6,14.3,0.7,26.8
				c0.1,7.6,6.5,50.9,6.2,61.6c0.7,7.5-0.1,26.8-0.9,38.6c0,0.1,0.1,0.3,0.2,0.5c0.9,2.3,20.1,4,43.6,4c23.3,0,42.2-1.7,43.6-4
				c0,0,0,0,0.1,0c0-0.1,0-0.1,0-0.2l0,0c0.1-7.4-2.4-26.7-2.2-33.8C1099.3,269.2,1099.4,257.5,1100.3,245.8z"/>
		</g>
		<g>
			<g>
				<path class="st40" d="M1053.7,191.9c9.9-0.2,18.7-6.8,19.2-13.7c-9.1-0.9-17,0-17,0h-2c0,0-8.2-0.5-18.4,1.1
					C1036.4,186,1044,192.2,1053.7,191.9z"/>
				<rect x="1043.6" y="162.3" class="st40" width="19.3" height="19.8"/>
				<path class="st41" d="M1043.6,165v5.6c4,1.1,12,3.3,19.3,3.4v-9H1043.6z"/>
			</g>
		</g>
		<path class="st71" d="M1050.7,243.4c10.7-13.4,23.3-56.3,25.4-65.1c-0.7-0.1-7.6-0.6-7.6-0.6l-17.6,6.1l-10.8-5.2
			c0,0-6.7,0.7-9.8,1.4C1034.7,202.1,1050.7,243.4,1050.7,243.4z"/>
		<g class="st74">
			<path d="M1072.3,178.1c-1.9-0.1-3.7-0.3-3.7-0.3l-17.6,6.1l-10.8-5.2c0,0-3.2,0.3-6,0.7l3.1,4.8c-2.7,6.1,1.4,12.3,1.4,12.3
				c4.8-0.7,8.7-3.9,9.2-4.2h0.1c2.4,1.5,6.9,0.7,6.9,0.7c5.1,4.9,9.7,3.6,9.7,3.6c2.7-4.4,3.2-7.9,3-10.4L1072.3,178.1z"/>
		</g>
		<path class="st75" d="M1050.4,304.4l0.5-63.8c-0.1,0.1-0.2,0.3-0.3,0.5c0,0-15.9-39-20.2-60.9c-5.9,1.1-14.3,2.3-23.1,6.4
			c0,0,0.8,15.3,0.9,27.8c0.1,7.6,6.5,50.9,6.2,61.6c0.6,6.2-0.9,26.6-1.5,38l21.7,2.4L1050.4,304.4z"/>
		<path class="st75" d="M1098.8,281c0.2-7.5,0.5-15.1,0.7-22.6c-8.9-26.7,4.2-62.8,8.1-72.9c-0.5-0.1-16.2-6.6-31.6-6.9
			c-2.2,8.7-14.8,49.2-25.4,62.6c0,0-0.1-0.1-0.2-0.5v63.8l14.1,12.9c0,0,26.2-0.5,37.7-4.2C1101.6,304.5,1098.7,286.1,1098.8,281z"/>
		<polygon class="st71" points="1071.3,178 1066,169.3 1051,183.4 1061.2,192.7 		"/>
		<polygon class="st71" points="1051,183.4 1043.3,191.8 1035.3,179.2 1040.9,169.5 		"/>
		<path class="st76" d="M1062.5,269.5c0,2.3-1.8,4-4,4c-2.3,0-4-1.8-4-4c0-2.3,1.8-4,4-4C1060.7,265.4,1062.5,267.2,1062.5,269.5z"/>
		<path class="st76" d="M1062.5,297.4c0,2.3-1.8,4-4,4c-2.3,0-4-1.8-4-4c0-2.3,1.8-4,4-4C1060.7,293.4,1062.5,295.2,1062.5,297.4z"/>
		<polygon class="st76" points="1051.4,240.1 1050.7,241 1049.9,239.3 1049.9,304.8 1050.4,304.4 1051.4,305.2 		"/>
		<path class="st48" d="M1048.2,190.6c0,0-4,3.3-8.7,4c0,0-4.9-7.3-0.1-13.7c0,0,4.9,0.5,9.1,3.5c0,0,3.3-2.2,6.8,0.2
			c0,0,4.5-3.4,10.3-3.7c0,0,3.7,5.2-1.6,13.7c0,0-4.3,1.2-9.1-3.4C1054.8,191.3,1050.3,192.1,1048.2,190.6z"/>
		<g>
			<g>
				<path class="st35" d="M1026.9,127.3c0,0-3.1-13.1-0.8-23.1l9.4-7.9L1026.9,127.3z"/>
				<g>
					<path class="st40" d="M1031.3,123.8c0,0-9.3-3.3-9.3,6s9.3,6.5,9.3,6.5V123.8z"/>
					<path class="st45" d="M1077,123.8c0,0,9.3-3.3,9.3,6s-9.3,6.5-9.3,6.5V123.8z"/>
					<path class="st45" d="M1077.9,140.2c0,15.1-11.4,27.5-25.4,27.5l0,0c-14.1,0-25.4-12.3-25.4-27.5v-24.3
						c0-15.1,11.4-27.5,25.4-27.5l0,0c14.1,0,25.4,12.3,25.4,27.5V140.2z"/>
					<path class="st40" d="M1039.2,102.2c0,0,5.2,1.1,6.7,2.3c0.1,0.1,3.7-1.7,4.2-1.8c1.7-0.6,3.3-0.9,5.1-0.8
						c2.5,0.1,4.9,0.8,7.3,1.2c5.3,0.9,10.9,2.2,14.8,6.2c-2.7-12-12.7-20.9-24.8-20.9c-11.1,0-20.7,7.7-24.1,18.5
						C1030.9,104.3,1035.1,101,1039.2,102.2z"/>
					<path class="st40" d="M1074.6,102.6c1.5,3.5,2.4,7.4,2.4,11.6v24.3c0,15.1-11.4,27.5-25.4,27.5c-9.5,0-17.9-5.7-22.3-14.2
						c4.1,9.4,12.8,15.9,23.1,15.9c14.1,0,25.4-12.3,25.4-27.5v-24.3C1077.9,111,1076.7,106.4,1074.6,102.6z"/>
				</g>
				<path class="st35" d="M1075.5,134.6c0,0,2.7-3.1,3.9-8.1c1.1-5,7.5-11.9,6.7-18.6c0,0,3.1-6.1-4.4-11.7c-6-4.5-5.6-9.4-9.2-12.7
					c-3.6-3.3-16.9-10.2-30-4.2c0,0-5.6,3.1-7.3,6.4c0,0,2.5-8.3,8.6-10.2c0,0-21.7,1.7-17.8,30.5l-0.1,6.8c0,0,2.4-19.9,20.7-12.9
					c0,0,16.4-5.2,25.8,5c0,0,1.4,3.1,0.8,10.6l1.4-2.3C1074.7,113.1,1075,122.3,1075.5,134.6z"/>
				<path class="st35" d="M1075.1,87c0,0,6.5,6.7,10.1,7.5c3.6,0.8,8.1,10.7,5.3,17.4c-2.8,6.7-14,20.4-14,22.4l-0.6,1.4L1075.1,87z
					"/>
				<path class="st49" d="M1027.7,100.3c0.2,0,0.3-0.2,0.3-0.5l0,0c0,0-0.1-0.8-0.1-2l0,0c0-2.7,0.6-7.9,4.5-13.6l0,0
					c0.1-0.2,0.1-0.5-0.1-0.6l0,0c-0.2-0.1-0.5-0.1-0.6,0.1l0,0c-4.1,5.8-4.7,11.1-4.7,14.1l0,0c0,1.4,0.1,2.2,0.1,2.2l0,0l0,0
					C1027.3,100.2,1027.4,100.3,1027.7,100.3L1027.7,100.3C1027.6,100.3,1027.6,100.3,1027.7,100.3L1027.7,100.3z"/>
				<path class="st49" d="M1034,85.4c0,0,0.3-1,0.8-2.2l0,0c0.5-1.1,1.2-2.6,1.8-3.2l0,0c0.1-0.1,0.1-0.5,0-0.6l0,0
					c-0.1-0.1-0.5-0.1-0.6,0l0,0c-1.6,1.7-2.8,5.7-2.8,5.8l0,0c-0.1,0.2,0,0.5,0.2,0.5l0,0h0.1l0,0
					C1033.8,85.6,1033.9,85.5,1034,85.4L1034,85.4z"/>
				<path class="st49" d="M1037.8,86.1c0,0,0.2-0.5,0.8-1l0,0c0.6-0.7,1.5-1.5,2.6-2.4l0,0c2.4-1.7,6.1-3.4,11.6-3.4l0,0
					c1.8,0,3.9,0.2,6.1,0.7l0,0c0.2,0,0.5-0.1,0.5-0.3l0,0c0-0.2-0.1-0.5-0.3-0.5l0,0c-2.3-0.5-4.4-0.7-6.4-0.7l0,0
					c-11.1,0-15.7,7.2-15.7,7.3l0,0c-0.1,0.2-0.1,0.5,0.1,0.6l0,0c0.1,0,0.1,0.1,0.2,0.1l0,0C1037.6,86.2,1037.7,86.2,1037.8,86.1
					L1037.8,86.1z"/>
				<path class="st49" d="M1089.3,111.7c0.6-2,0.9-3.7,0.9-5.3l0,0c0-7.4-6.1-9.2-6.1-9.2l0,0c-0.2-0.1-0.5,0.1-0.5,0.2l0,0
					c-0.1,0.2,0.1,0.5,0.2,0.5l0,0c0,0,0.3,0.1,0.9,0.3l0,0c0.6,0.2,1.2,0.7,1.9,1.2l0,0c1.4,1.2,2.8,3.3,2.8,6.8l0,0
					c0,1.5-0.2,3.1-0.8,5l0,0c-0.1,0.2,0,0.5,0.2,0.5l0,0h0.1l0,0C1089.1,112,1089.3,111.9,1089.3,111.7L1089.3,111.7z"/>
				<path class="st49" d="M1084.4,118.8c2.8-4.4,3.4-8.5,3.4-10.7l0,0c0-1.1-0.1-1.8-0.1-1.8l0,0l0,0c0-0.2-0.2-0.3-0.5-0.3l0,0
					c-0.2,0-0.3,0.2-0.3,0.5l0,0c0,0,0.1,0.6,0.1,1.7l0,0c0,2.2-0.5,5.9-3.3,10.3l0,0c-0.1,0.2-0.1,0.5,0.1,0.6l0,0
					c0.1,0,0.1,0.1,0.2,0.1l0,0C1084.2,119,1084.3,119,1084.4,118.8L1084.4,118.8z"/>
				<path class="st49" d="M1047,97.9c0,0,1-0.7,2.7-1.4l0,0c1.7-0.7,4-1.4,6.7-1.4l0,0c1.9,0,4.1,0.3,6.2,1.4l0,0
					c0.2,0.1,0.5,0,0.6-0.2l0,0c0.1-0.2,0-0.5-0.2-0.6l0,0c-2.3-1.1-4.5-1.5-6.7-1.5l0,0c-5.6,0-9.8,2.8-9.8,2.8l0,0
					c-0.2,0.1-0.2,0.3-0.1,0.6l0,0c0.1,0.1,0.2,0.2,0.3,0.2l0,0C1046.9,98,1046.9,97.9,1047,97.9L1047,97.9z"/>
				<path class="st49" d="M1032.6,98.3c1.6-2,3.6-2.6,5.8-2.6l0,0c1.6,0,3.1,0.3,4.2,0.7l0,0c1.1,0.3,1.8,0.7,1.8,0.7l0,0l0,0
					c0.2,0.1,0.5,0,0.6-0.2l0,0c0.1-0.2,0-0.5-0.2-0.6l0,0c0,0-3.1-1.5-6.5-1.5l0,0c-2.3,0-4.7,0.7-6.4,3l0,0
					c-0.1,0.2-0.1,0.5,0.1,0.6l0,0c0.1,0,0.1,0.1,0.2,0.1l0,0C1032.4,98.4,1032.5,98.3,1032.6,98.3L1032.6,98.3z"/>
			</g>
			<g>
				<path class="st47" d="M1038,131.2c0,1.9-0.8,3.5-1.7,3.5c-0.9,0-1.7-1.6-1.7-3.5c0-1.9,0.8-3.5,1.7-3.5
					C1037.2,127.7,1038,129.3,1038,131.2z"/>
				<path class="st47" d="M1061.8,131.2c0,1.9-0.8,3.5-1.7,3.5s-1.7-1.6-1.7-3.5c0-1.9,0.8-3.5,1.7-3.5
					C1061,127.7,1061.8,129.3,1061.8,131.2z"/>
				<g>
					<path class="st46" d="M1041.6,145.6h16.6c0,0,1.6,0,0.5,2.5c-0.7,1.6-2.7,4.9-8.4,5.1c-6.8,0.2-9.1-5.2-9.1-5.2
						S1039.9,145.6,1041.6,145.6z"/>
					<path class="st14" d="M1058.9,147.4c0.6-1.8-0.7-1.8-0.7-1.8h-16.6c-1.2,0-0.9,1.2-0.7,1.9
						C1044.1,148.5,1050.6,149.5,1058.9,147.4z"/>
				</g>
				<path class="st40" d="M1046.9,135.3c0,0-4-0.1-4,3.3s6.1,2.5,6.4,0C1049.5,136,1049.9,117.3,1046.9,135.3z"/>
				<g>
					<path class="st35" d="M1063.1,123.9c-1.1-0.3-2.3-0.6-3.4-0.6l0,0c-1.1,0-2.3,0.2-3.4,0.6l0,0c-0.5,0.1-0.8-0.1-1-0.5l0,0
						c-0.1-0.5,0.1-0.8,0.5-1l0,0c1.2-0.5,2.5-0.6,3.9-0.6l0,0c1.2,0,2.6,0.2,3.9,0.6l0,0c0.5,0.1,0.7,0.6,0.5,1l0,0
						c-0.1,0.3-0.5,0.6-0.7,0.6l0,0C1063.2,123.9,1063.1,123.9,1063.1,123.9L1063.1,123.9z"/>
				</g>
				<g>
					<path class="st35" d="M1029.9,123.5c-0.1-0.5,0.1-0.8,0.5-1l0,0c1.2-0.5,2.5-0.6,3.9-0.6l0,0c1.2,0,2.6,0.2,3.9,0.6l0,0
						c0.5,0.1,0.7,0.6,0.5,1l0,0c-0.1,0.5-0.6,0.7-1,0.5l0,0c-1.1-0.3-2.3-0.6-3.4-0.6l0,0c-1.1,0-2.3,0.2-3.4,0.6l0,0
						c-0.1,0-0.1,0-0.2,0l0,0C1030.3,123.9,1030,123.8,1029.9,123.5L1029.9,123.5z"/>
				</g>
				<path class="st40" d="M1073.6,139.3c0,1.1-2.6,2.2-5.9,2.2s-5.9-1-5.9-2.2c0-1.1,2.6-2.2,5.9-2.2S1073.6,138.1,1073.6,139.3z"/>
				<path class="st40" d="M1037.6,139.3c0,0.7-1.6,1.2-3.4,1.2c-1.9,0-3.4-0.6-3.4-1.2c0-0.7,1.5-1.2,3.4-1.2
					C1036.1,138,1037.6,138.6,1037.6,139.3z"/>
			</g>
		</g>
		<g>
			<path class="st33" d="M1110.2,287.3l-4.8-3.7l-3.9,0.6c-3.5-1.4-5-3.7-6.7-4.1c-1.8-0.3-4.4-2.4-4.4-2.4
				c-1.8,2.4,1.2,5.2,1.2,5.2c-0.2-0.1-0.5-0.1-0.7-0.2c-0.6-0.1-1.2-0.3-1.8-0.5c-0.8-0.2-1.6-0.5-2.3-0.6
				c-0.8-0.2-1.5-0.3-2.3-0.6c-0.6-0.1-1.1-0.2-1.7-0.3c-0.6-0.1-1.2,0-1.8,0.1c-0.8,0.1-4.8,1.4-5.5,1.5c-0.3,0-1,0.1-1,0.1
				c-0.3,0.8-0.5,1.6-0.1,2.3c0.6,1.2,2.4,1.4,3.4,1.2c0.7-0.1,1.6-0.3,2.3-0.6c0.6-0.2,0.5-0.3,1.5-0.1c0.6,0.1,1.1,0.3,1.7,0.5
				c1.2,0.3,2.5,0.7,3.6,1c0.2,0.1,0.6,0.1,0.8,0.2c0,0-6,0.8-7.9,1.2c-1.4,0.3-5.6,3.9-5.6,3.9c-3,2.6,1.4,3.9,1.4,3.9
				c-0.2,0.2-0.6,0.7-0.6,1c0,0.3,0.2,0.6,0.3,0.8c0.3,0.3,0.8,0.6,1.1,0.7c0.8,0.3,1.6,0.5,2.4,0.2c0.2,0,0.5-0.1,0.7-0.2
				c0.2-0.1,0.5-0.1,0.7-0.2c0.2-0.1,0.6-0.2,0.8-0.3c0.8-0.5,1.7-0.8,2.5-1.4c0.1-0.1,0.3-0.3,0.5-0.3h4.7
				c-1.6,0.8-3.4,3.5-5.6,4.8c-0.3,0.2-0.7,0.3-0.9,0.7c-0.2,0.2-0.6,0.7-0.6,1c0,0.5,0.5,0.6,0.7,0.7c0.9,0.5,1.8,0.5,2.8,0.2
				c0.5-0.1,1-0.2,1.5-0.5c0.3-0.1,0.7-0.3,1-0.6c0.1-0.1,0.2-0.2,0.5-0.3c3-3,6.2-4.4,10.1-2.2c5.7,3.3,10.7-5.1,10.7-5.1
				L1110.2,287.3z"/>
			<g>
				<path class="st71" d="M1149.8,239.4c2.7-1.2,5.9-1.2,8.6,0.1c0.7,0.3,1.1,0.6,1.2,0.6l0.1,0.1c0.5,0.2,0.8,0.6,1.1,0.9
					c0.2,0.2,0.7,0.7,1.2,1.5c0,0.1,0.1,0.1,0.1,0.2c1.2,1.7,1.6,3.5,1.7,5.1c0.1,1.5-0.1,2.8-0.7,4.2c-0.1,0.3-0.2,0.7-0.3,0.8
					c-0.1,0.1-0.2,0.3-0.3,0.5c-0.5,0.8-1,1.5-1.6,2c-12.9,15.4-43.4,37.6-50.9,40.4c-2.4-2.3-9.2-11.7-10.1-12.9
					c3.9-5.8,13.4-16.5,33.8-32.4c4.1-3.2,7.2-5.7,9.7-7.7C1145.8,241.1,1148,240,1149.8,239.4z"/>
			</g>
			<path class="st14" d="M1100.1,283c0.7-1.1,1.7-2.4,2.8-3.7l11.9,14.3c-1.9,1.1-3.4,1.9-4.5,2.4
				C1107.9,293.6,1101.1,284.3,1100.1,283z"/>
		</g>
		<g>
			
				<rect x="981" y="218" transform="matrix(0.1878 -0.9822 0.9822 0.1878 589.5637 1211.0022)" class="st38" width="92" height="62"/>
			
				<rect x="976.8" y="216.1" transform="matrix(0.1878 -0.9822 0.9822 0.1878 586.9476 1206.1458)" class="st77" width="92" height="64.2"/>
			<polygon class="st36" points="1023,201.4 995.5,220.1 990.4,246.5 1049.3,206.5 			"/>
		</g>
		<g>
			<path class="st45" d="M1035,259.1c-0.9-5.2,4.1-7.6,4.1-7.6s6-6.6,9.1-7.2c4-0.7,9.1-4.2,9.1-4.2s3.4,3.7-3.1,6.8
				c0,0,8.1-0.8,8.7,1.5c0,0,0.3,1.2-0.2,2.8c0,0,2.7,1.8,0.7,4.7c0,0,1.8,2.6-0.2,4.3c0,0,1.7,1.6-0.6,3.3
				c-2.4,1.8-2.6,1.9-7.6,3.7c0,0-10.7,1.6-15.1-1.9C1039.9,265.4,1036,264.4,1035,259.1z"/>
		</g>
		<g>
			<g>
				<path class="st62" d="M974.6,239.5c-3.1,0.3-5.7,2.2-7.3,4.7c-0.5,0.6-0.6,1-0.7,1.1v0.2c-0.2,0.5-0.3,0.9-0.5,1.4
					c-0.1,0.3-0.2,0.9-0.2,1.9c0,0.1,0,0.1,0,0.2c-0.1,2,0.5,3.9,1.4,5.2c0.7,1.2,1.7,2.3,2.8,3.2c0.3,0.2,0.6,0.5,0.7,0.6
					c0.1,0.1,0.3,0.1,0.6,0.2c0.8,0.5,1.6,0.7,2.5,0.9c19.2,6,56.8,8.3,64.6,6.7c0.7-3.2,1.5-14.8,1.6-16.4c-6.4-2.8-20.1-6.6-46-9
					c-5.1-0.5-9.1-0.9-12.3-1.2C978.8,239,976.5,239.1,974.6,239.5z"/>
			</g>
		</g>
		<path class="st14" d="M1040,249.5c-1.1-0.5-2.4-1-4-1.5l-1.9,18.3c1.8-0.1,3.3-0.2,4.2-0.5C1039.1,262.7,1039.8,251.1,1040,249.5z
			"/>
	</g>
</g>
</svg>
