<?xml version="1.0" encoding="utf-8"?>
<!-- Generator: Adobe Illustrator 27.4.1, SVG Export Plug-In . SVG Version: 6.00 Build 0)  -->
<svg version="1.1" id="Layer_1" xmlns="http://www.w3.org/2000/svg" xmlns:xlink="http://www.w3.org/1999/xlink" x="0px" y="0px" viewBox="0 0 421.4 450" style="enable-background:new 0 0 421.4 450;" xml:space="preserve">
<style type="text/css">
	.st0{fill:#FAA284;}
	.st1{fill:#F2977E;}
	.st2{fill:#EF8D72;}
	.st3{fill:#DDDDDD;}
	.st4{fill:#474747;}
	.st5{fill:#383635;}
	.st6{opacity:0.15;enable-background:new    ;}
	.st7{fill:#212020;}
	.st8{fill:#A8ADAD;}
	.st9{fill:#EE8C72;}
	.st10{fill:#DD725E;}
	.st11{fill:#EAEAEA;}
	.st12{opacity:0.12;fill:#666666;enable-background:new    ;}
	.st13{fill:#EBF1F2;}
	.st14{fill:#F7A184;}
	.st15{fill:#D24646;}
	.st16{fill:#FFFFFF;}
	.st17{fill:#3D1A01;}
	.st18{fill:#CE2E1C;}
	.st19{fill:#757575;}
	.st20{fill:#444445;}
	.st21{fill:#0F0F0F;}
	.st22{fill:#6B7277;}
	.st23{fill:#8C949B;}
	.st24{fill:#E9F3FF;}
	.st25{fill:#AEBDCE;}
	.st26{fill:#CBDAED;}
</style>
<g>
	<g>
		<g>
			<g>
				<g>
					<g>
						<path class="st0" d="M57.7,75.5c0,0,4.3-4.7,5.6-9.1c0.4-1.4,0.8-3.9-1.3-5.9l-1.7-18.9c0,0,0.1-2.6-1.5-2.6
							c-1.9,0-1.7,2.5-1.7,2.5v12.3c0,0-0.8-2-2.5-1.9C52.8,52,52.3,54,52.3,54s-0.6-0.8-2.3-0.5c-1.4,0.3-2,1.7-2,1.7s-1,0-1.7,0.3
							c-1.2,0.5-2,2.2-2,2.2s-1.6,7.9,2,16.1C46.3,73.8,50.1,84,57.7,75.5z"/>
					</g>
					<path class="st1" d="M56.9,61.2c0,0-1.7-0.2-4-1.4c0,0-1.7,1.7-3.8,0.9c0,0-1.8,1.5-3.6,0.6c0,0-0.1,2.9,3,3.2
						c3.1,0.3,9.4-1.5,9.4-1.5S57.2,62.5,56.9,61.2z"/>
					<path class="st2" d="M52.7,55.9c0.5-0.7,2.8,1.1,5.1,1.6c1.1,0.2,4.2,3.1,4.2,3.1s-2.8-3-4.9-3.5H57c0.2-0.4,0.2-2.2,0.1-3.2
						c0,0-0.3,2.6-0.2,3.1c-1.1-0.3-2.7-1.4-4-1.5h-0.1C52.7,55,52.4,54,52.4,54s0.1,1,0.2,1.5c-0.2,0.1-0.2,0.2-0.2,0.2
						s-1,2.4,0.4,4.2c0,0.5,0,1.1,0.1,1.9c0.2,1.7-1.4,2-1.4,2h-0.1c-1.4,0.1-1.9-1.2-1.9-1.2l-1.3-7.4c0,0,0.8,6.3,1,7.4
						c0.1,1.1-0.9,1.4-1,1.4c-0.3,0-0.6,0-0.7,0c-1.7,0.1-2.7-6.2-2.7-6.2c-0.4,1.5-0.1,5.9-0.1,5.9c6.5,1.2,8.1,5.9,8.1,5.9
						c2.4-4.8,5.4-5.8,5.4-5.8l0.6-0.3l-1.6-2.7C51.2,60.3,52.4,56.3,52.7,55.9z M55.7,63.3L55.7,63.3c-0.2,0-0.5,0.1-0.7,0.1
						c-1.4,0-1.8-1.6-1.8-1.6l-0.3-1.7c0.3,0.3,0.7,0.7,1.2,0.9c1.2,0.6,2.6,0.7,2.6,0.8C56.8,63.2,55.7,63.3,55.7,63.3z"/>
				</g>
			</g>
			<g>
				<g>
					<path class="st3" d="M52.8,133.4L52.8,133.4l32.3-45.7c0.3-0.4,0.5-0.8,0.8-1.2c3.8-4.7,10.7-5.3,15.4-1.5
						c4.5,3.7,5.2,10.2,1.9,14.8l0.1,0.1l-35.9,44.9c-2.8,4-8.2,5.1-12.4,2.5c-4.4-2.7-5.7-8.4-3-12.8
						C52.2,134.1,52.5,133.7,52.8,133.4z"/>
				</g>
				<g>
					<path class="st0" d="M48,76.8c-0.3,5.3-1.4,38.6,3.2,63.3l0,0l0,0c0.4,4.3,3.9,7.6,8.2,7.7c0.4,0,0.7,0,1.1,0
						c4.7-0.5,8.1-4.6,7.6-9.3c0-0.5-3-46.7-10-63.7L48,76.8z"/>
					<g>
						<path class="st3" d="M48.1,84.5l12.7-1.1c0.5,0,0.9,1.2,0.9,1.2c5,20.8,7.2,53.9,7.2,53.9c0.5,5.1-3.2,9.6-8.3,10.1
							s-9.6-3.2-10.1-8.3c-3.3-18.1-3.4-41.1-3.1-54.5C47.3,85.8,47.1,84.6,48.1,84.5z"/>
					</g>
				</g>
			</g>
		</g>
		<g>
			<path class="st4" d="M147.7,14.4c0,0,9.6,15,8.3,51.6c-1,30-28.4,31.9-33.6,31.9c-5.3,0-30.9,7.5-30.1-34.4
				c0.5-24.2-0.1-27.4-0.1-27.4S123.1,8.3,147.7,14.4z"/>
			<path class="st4" d="M91.9,23c0,0-1.8,13.3,1.1,19.6l1.3,0.7l4.8-20L91.9,23z"/>
			<g>
				<path class="st5" d="M111.1,230.6h13.1c26.3-1.2,30.8-8.7,32-17.4c-0.3-15.9-3.6-26.1-12.2-34.6l-55.4,0.2
					c-8.8,8.5-11.8,18.7-11.8,33.1c0,0,0.3,5.3,0.5,7.3C82.3,227.7,91.9,230.6,111.1,230.6z"/>
				<path class="st6" d="M150.2,186.4c-1.7-2.9-3.8-5.6-6.2-7.9l-55.4,0.2c-1.3,1.3-2.5,2.6-3.6,4
					C89.7,185.1,106.8,191.2,150.2,186.4z"/>
				<g>
					<path class="st7" d="M101.8,418.7c-3.7,10.5-13.2,22.1-13.2,22.1l-8.3,0.9l-8.3,2.1c0,0-2.1,2.1-0.3,5.2h21.1l7.2-18l-0.5,18
						h2.2l4.5-22.3C106.2,426.8,105.8,421.5,101.8,418.7z"/>
					<path class="st0" d="M101.8,418.7l-5.3-4.8l-6,4.8c0,0-6.4,20.4-10.2,23.1l7.6-0.1C87.9,441.7,98.1,429.2,101.8,418.7z"/>
				</g>
				<g>
					<path class="st7" d="M134.3,419c0,0-8.3,30-5.3,30.5h16.7c0,0,2.5,0.8-0.2-29.9l-6.1-0.7L134.3,419z"/>
					<path class="st0" d="M134.3,418.8l-2.8,22.7c1.4,0.3,9.1-1.2,12,0.9c0,0,1.8-10.4,1.9-23.6l-5.1-6.9L134.3,418.8z"/>
				</g>
				<g>
					<path class="st5" d="M77.1,215.6c-0.2-1.1-0.2-2.2-0.2-3.3c0.2-10.5,8.9-19.1,19.5-19.1h0.3c10.8,0.2,19.3,9.1,19.1,19.8
						c0,1-0.1,2-0.3,3l-5.7,95.2v1.5v1.6h-0.2c-0.9,6.4-6.4,11.3-13,11.3l0,0l0,0c-7.2,0-13.1-5.9-13.1-13.2c0-0.4,0-0.7,0-1
						L77.1,215.6z"/>
				</g>
				<g>
					<path class="st5" d="M83.4,311.7v-0.8h0.1c0.8-6.5,6.3-11.6,13-11.6c3.5,0,6.8,1.4,9.3,3.9c2.4,2.4,3.7,5.6,3.8,8.9v0.2
						c3.2,21.8,3.3,27.7,1,52.8c-1.2,13.1-3.5,24.5-7.2,43.5c-0.7,3.4-1.3,7.2-1.7,9.7l-12.8,0.4l-5.5-104.3
						c-0.1-0.7-0.2-1.4-0.2-2.1C83.4,312.2,83.4,312,83.4,311.7z"/>
				</g>
				<path class="st6" d="M109.5,314.3c-0.9,6.4-6.4,11.3-13,11.3l0,0l0,0c-6.5,0-11.9-4.8-12.9-11.1l0,0l5.5,104.3l12.8-0.4
					c0.4-2.5,1-6.4,1.7-9.7c3.7-19,6-30.4,7.2-43.5c2.3-24.9,2.2-30.9-0.9-52.3v1.4H109.5z"/>
				<g>
					<path class="st5" d="M116.6,310.7l0.7-96.7c-0.1-1.1-0.1-2.2,0-3.3c0.9-9.9,9.4-17.7,19.4-17.7c0.5,0,0.9,0,1.4,0.1h0.3
						c10.7,1,18.6,10.5,17.6,21.1c-0.1,1-0.3,2-0.5,2.9l-12.6,94.5l-0.1,1.5l-0.2,1.6h-0.1c-1.2,5.4-5.7,9.6-11.5,10.2
						c-0.5,0-0.9,0.1-1.4,0.1c-6.8,0-12.4-5.1-13.1-11.8C116.5,312.4,116.5,311.6,116.6,310.7z"/>
				</g>
				<g>
					<path class="st5" d="M116.6,312.6l-0.1-0.8h0.1c0.1-6.6,5.1-12.2,11.8-12.9c0.5,0,0.9-0.1,1.4-0.1c3,0,5.9,1,8.3,2.9
						c2.6,2.1,4.3,5.1,4.7,8.5v0.2c5.5,21.4,6.2,27.2,6.5,52.4c0.2,13.2-0.9,24.8-2.6,44.1l-0.3,2.9c-0.2,2.5-0.5,5.2-0.7,8
						l-0.1,1.3l-12.6-0.2l-16.1-103.7c-0.2-0.6-0.3-1.3-0.4-1.9C116.6,313.1,116.6,312.9,116.6,312.6z"/>
				</g>
				<path class="st6" d="M142.8,313.2l-0.2,1.6h-0.1c-1.2,5.4-5.7,9.6-11.5,10.2c-0.5,0-0.9,0.1-1.4,0.1c-6.1,0-11.3-4.1-12.7-9.9
					l0,0L133.1,419l12.6,0.2l0.1-1.3c0.2-2.8,0.5-5.4,0.7-8l0.3-2.9c1.7-19.3,2.7-30.9,2.6-44.1c-0.3-24.8-1-30.9-6.3-51.6v0.4
					L142.8,313.2z"/>
			</g>
			<path class="st8" d="M109,75.6c0,0,10.4-2.8,17.7,0l0.8,5.5L107.4,82L109,75.6z"/>
			<polygon class="st9" points="124.3,88 110.4,87.7 111.6,63.8 122,63.8 			"/>
			<path class="st10" d="M111.6,63.8h10.5l1.3,13.4c-4.8-0.2-9.4-1.5-12.3-2.6L111.6,63.8z"/>
			<path class="st9" d="M117.8,90.1c7.2,0,13.1-3.9,13.5-8.8c-6.6-0.8-11.8-1-11.8-1H118c0,0-6.3,0.2-13.7,1.2
				C104.9,86.4,110.7,90.1,117.8,90.1z"/>
			<g>
				<path class="st11" d="M160.5,88.7c-1.9-3.9-10.1-6.1-16.7-6.3c-0.1,0-0.2-0.1-0.4-0.1c-3.2-0.6-7.6-1-13-1.2l0,0l0,0l0,0l0,0
					l-14.5,5.8l-11.6-5.4l0,0c-0.3,0-0.7,0-1,0C93.1,82,93.1,82,92.5,83.1l-0.2,0.4v0.4c-0.1,0.7-1.6,9.5-1.9,10.4
					c-1.1,3.6-2.8,7-5,10.1c-3.7,5.1-7.5,11.2-6,18.8c1.4,6.8,5.4,12.5,10.9,15.4c1.4,6.1,2,18.5,1.5,24c-0.5,5.2-4.1,14.9-6.2,19.1
					c-0.8,0.7,24.4,1.6,30.4,1.6c16,0,30.4-2.6,30.4-2.6c-1.8-4.6-3.4-11.7-4.4-18.3c-1.2-7.8-1.2-23.6,1.4-29.5
					c2-4.5,3.9-9.2,5.7-13.7c1.1-2.9,2.3-5.8,3.5-8.6c0.7-1.6,1.3-3.2,1.9-4.8c0.4-1,0.8-2.1,1.2-3.1C161,100.3,163.1,94,160.5,88.7
					z"/>
			</g>
			<path class="st12" d="M141.6,158.3c-0.7-8.3-0.3-20.3,1.9-25.3c2-4.5,3.9-9.2,5.7-13.7c1.1-2.9,2.3-5.8,3.5-8.6
				c0.7-1.6,1.3-3.2,1.9-4.8c0.4-1,0.8-2.1,1.2-3.1c2.5-1.2,4.2-3.3,5.2-5.7c-7.1-5-25.8,10.5-25.8,10.5l-13.1,33.8l-30.4,7.2
				c0.4,5.3,0.5,10.9,0.2,14.1c-0.2,2.1-0.9,5-1.9,7.9c7.4-1.2,39.2-6.3,43.2-7.2C136,162.8,139.4,160.2,141.6,158.3z"/>
			<g>
				<path class="st8" d="M130.5,81.1l-14.6,5.8l-11.6-5.4l2.3,5c-2.7,4.3,0.4,8.8,0.4,8.8c3.2-0.5,6-2.7,6-2.7
					c1.5,1,4.5,0.5,4.5,0.5c3.3,3.2,6.2,2.3,6.2,2.3c1.5-2.4,1.9-4.4,2-6L130.5,81.1z"/>
			</g>
			<polygon class="st13" points="109,75.6 104.4,81.5 110.1,91.6 115.9,86.9 			"/>
			<polygon class="st13" points="126.6,75.6 130.5,81.1 121.7,92.8 115.9,86.9 			"/>
			<path class="st12" d="M132.8,138.9c3.6-0.2,5.5-2.5,5.5-2.5H86.8c1,0.8,2,1.6,3.1,2.2c0.4,0.1,0.8,0.2,1.1,0.3
				C103.8,138.9,130.1,139,132.8,138.9z"/>
			<path class="st9" d="M97.3,37.6c0,0-8.5-3-8.5,5.5s8.5,5.9,8.5,5.9V37.6z"/>
			<g>
				<path class="st14" d="M140.3,48.5c0,13.9-10.4,25.1-23.3,25.1l0,0c-12.9,0-23.3-11.2-23.3-25.1l2.4-22.2
					c0-13.9,7.9-17.5,20.7-17.5l0,0c12.9,0,21.7,3.5,21.7,17.4L140.3,48.5z"/>
				<path class="st9" d="M134,19.9c0,0,1.4,3.2,4.5,5.6c-0.3-13.3-9-16.7-21.6-16.7c-12.9,0-20.7,3.6-20.7,17.5l-0.6,5
					C101.6,31.9,119.1,32.5,134,19.9z"/>
				<path class="st9" d="M116,71.2c12.1,0,22-9.9,23.2-22.5l1.1,0.3C140,62.6,129.7,73.5,117,73.5c-9.9,0-18.3-6.6-21.7-16
					C99.1,65.7,106.9,71.2,116,71.2z"/>
			</g>
			<path class="st14" d="M138.7,37.6c0,0,8.5-3,8.5,5.5s-8.5,5.9-8.5,5.9V37.6z"/>
			<g>
				<g>
					<path class="st15" d="M105,57.3h14.3c0,0,1.4,0,0.4,2.1c-0.6,1.4-2.4,4.2-7.3,4.4c-5.9,0.2-7.9-4.5-7.9-4.5
						S103.6,57.3,105,57.3z"/>
					<path class="st16" d="M120,58.8c0.5-1.6-0.6-1.5-0.6-1.5h-14.3c-1.1,0-0.8,1.1-0.6,1.7C107.2,59.7,112.8,60.6,120,58.8z"/>
				</g>
				<path class="st9" d="M109.5,47.5c0,0-3.8-0.1-3.8,3.1s5.9,2.4,6.1,0C112,48.2,112.3,30.4,109.5,47.5z"/>
				<g>
					<path class="st4" d="M127.5,36.7c-1-0.3-2.1-0.5-3.2-0.5l0,0c-1.1,0-2.2,0.2-3.2,0.5l0,0c-0.4,0.1-0.8-0.1-0.9-0.5l0,0
						c-0.1-0.4,0.1-0.8,0.5-0.9l0,0c1.2-0.4,2.4-0.6,3.7-0.6l0,0c1.2,0,2.5,0.2,3.7,0.6l0,0c0.4,0.1,0.6,0.5,0.5,0.9l0,0
						c-0.1,0.3-0.4,0.5-0.7,0.5l0,0C127.6,36.8,127.5,36.8,127.5,36.7L127.5,36.7z"/>
				</g>
				<g>
					<path class="st4" d="M96.5,36.3c-0.1-0.4,0.1-0.8,0.5-0.9l0,0c1.2-0.4,2.4-0.6,3.7-0.6l0,0c1.2,0,2.5,0.2,3.7,0.6l0,0
						c0.4,0.1,0.6,0.5,0.5,0.9l0,0c-0.1,0.4-0.5,0.6-0.9,0.5l0,0c-1-0.3-2.1-0.5-3.2-0.5l0,0c-1.1,0-2.2,0.2-3.2,0.5l0,0
						c-0.1,0-0.2,0-0.2,0l0,0C96.8,36.8,96.6,36.6,96.5,36.3L96.5,36.3z"/>
				</g>
				<path class="st9" d="M136.2,51.4c0,1.5-2.2,2.7-4.9,2.7s-4.9-1.2-4.9-2.7s2.2-2.7,4.9-2.7S136.2,49.9,136.2,51.4z"/>
				<path class="st9" d="M101.6,51.4c0,1-1.5,1.8-3.3,1.8S95,52.4,95,51.4s1.5-1.8,3.3-1.8C100.2,49.6,101.6,50.4,101.6,51.4z"/>
				<g>
					<path class="st17" d="M124.7,44.1c0,2.1-0.8,3.7-1.9,3.7c-1,0-1.8-1.7-1.8-3.7c0-2.1,0.8-3.7,1.8-3.7
						C123.8,40.3,124.7,42,124.7,44.1z"/>
					<path class="st17" d="M123.1,40.7c0,0,2-0.1,2.1-1c0,0-0.4,2.3-0.9,2.6L123.1,40.7z"/>
				</g>
				<g>
					<path class="st17" d="M99.1,44.1c0,2.1,0.8,3.7,1.9,3.7c1,0,1.9-1.7,1.9-3.7c0-2.1-0.8-3.7-1.9-3.7C100,40.3,99.1,42,99.1,44.1
						z"/>
					<path class="st17" d="M100.7,40.7c0,0-2-0.1-2.1-1c0,0,0.4,2.3,0.9,2.6L100.7,40.7z"/>
				</g>
			</g>
			<path class="st18" d="M113.3,91.5c0,0-2.6,2.1-5.6,2.6c0,0-3.1-4.6-0.1-8.8c0,0,3.1,0.3,5.8,2.2c0,0,2.1-1.4,4.3,0.2
				c0,0,2.9-2.1,6.6-2.4c0,0,2.4,3.4-1,8.8c0,0-2.8,0.8-5.8-2.2C117.5,92,114.7,92.5,113.3,91.5z"/>
			<path class="st4" d="M133.7,12.4c0,0-16.8,21.9-42.3,16.3c0,0-3.3-24.4,16.9-27.3C108.2,1.4,128-4.1,133.7,12.4z"/>
			<path class="st4" d="M122.1,3.3c0,0,16.4-4,24.7,9.3c0,0,2.7,5,4.5,10.4c1.8,5.5-12.5,7.6-12.5,7.6S136.1,7.4,122.1,3.3z"/>
			<path class="st19" d="M95.8,27.3c-0.2,0-0.4-0.2-0.4-0.4l0,0c0-0.2,0.2-0.4,0.4-0.4l0,0c1,0.1,2,0.1,3,0.1l0,0
				c13.4,0,24.8-8.7,29.7-13l0,0c1.6-1.4,2.5-2.4,2.5-2.4l0,0c0.1-0.2,0.4-0.2,0.6,0l0,0c0.2,0.1,0.2,0.4,0,0.6l0,0
				c0,0-14.4,15.7-32.7,15.7l0,0C97.8,27.5,96.8,27.4,95.8,27.3L95.8,27.3z"/>
			<path class="st19" d="M130.3,9.6c-0.3-0.9-1-2.2-1.6-3.1l0,0c-0.7-1-1.3-1.6-1.3-1.6l0,0l0,0c-0.1-0.2-0.1-0.4,0-0.6l0,0
				c0.2-0.1,0.4-0.1,0.6,0l0,0c0,0,2.4,2.8,3.1,5l0,0c0.1,0.2-0.1,0.4-0.3,0.5l0,0h-0.1l0,0C130.5,9.9,130.4,9.8,130.3,9.6
				L130.3,9.6z"/>
			<path class="st19" d="M141.8,32.5c0-3.1-1.4-8.1-2.8-12.2l0,0c-1.4-4.2-2.9-7.5-2.9-7.5l0,0l0,0c-0.1-0.2,0-0.4,0.2-0.5l0,0
				c0.2-0.1,0.4,0,0.5,0.2l0,0c0,0,5.7,13.5,5.8,20.1l0,0c0,0.2-0.2,0.4-0.4,0.4l0,0C142,32.9,141.8,32.8,141.8,32.5L141.8,32.5z"/>
		</g>
		<g>
			<g>
				<g>
					<polygon class="st7" points="66.2,197.1 67.6,195.3 51.1,131.3 2,134.8 0,137.2 					"/>
					<polygon class="st20" points="49.3,135.5 66.2,198.5 17.7,198.5 0,138.2 					"/>
					<polygon class="st5" points="22.1,137 4.7,154.4 9.7,171.5 45.5,135.7 					"/>
					<path class="st14" d="M74.7,164l-5.6-4.1c0,0-5.1-2.1-8-2.7c-2.9-0.5-3.8-2.2-3.8-2.2l1.2,4.5c0,0-15.2-1.9-15.8,0
						c0,0-0.3,0.7,0.2,1.8c0,0-2.4,0-1.8,2.4c0,0-0.1,0.1,1.4,0.5c0,0-1.4,1.7,1,2.8c0,0-0.7,1.5,1.3,2.3s12.5,3,12.5,3
						s9.2,0.3,12.9-1.8L74.7,164z"/>
				</g>
			</g>
			<g>
				<g>
					<path class="st11" d="M124.6,146.1L124.6,146.1l17.7-53c0.1-0.5,0.3-0.9,0.5-1.4c2.3-5.6,8.7-8.2,14.3-5.8
						c5.3,2.2,7.9,8.2,6.1,13.6h0.1l-21.4,53.4c-1.5,4.6-6.4,7.3-11.2,6c-5-1.3-7.9-6.4-6.6-11.3C124.2,147,124.4,146.5,124.6,146.1
						z"/>
				</g>
				<g>
					<path class="st14" d="M70.8,169.5c5.3-0.4,39.6-3.2,63.6-10.6l0,0l0,0c4.2-0.9,7-4.8,6.6-9.1c0-0.4-0.1-0.7-0.2-1.1
						c-1-4.6-5.6-7.5-10.1-6.5c-0.5,0.1-46,8.6-62,17.7L70.8,169.5z"/>
					<g>
						<path class="st11" d="M79.5,168.7l-2.6-12.5c0-0.5,1.1-1,1.1-1c20-7.5,52.6-13.7,52.6-13.7c5-1.1,10,2,11.1,7s-2,10-7.1,11.1
							c-17.5,5.5-40.4,8.4-53.7,9.7C80.9,169.3,79.7,169.6,79.5,168.7z"/>
					</g>
				</g>
			</g>
		</g>
	</g>
	<g>
		<g>
			<g>
				<path class="st0" d="M398.2,96.6c0.5,1,0,2.4-0.6,3c0,0-4.6,5.1-4.1,5.8c0.5,0.7,3.2,0.2,3.2,0.2c2.1-0.4,6.9-0.5,6.9-0.5
					l13.1-3.1c0.9-0.1,1.7,0.6,1.8,1.5s-0.8,1.8-1.7,1.9l-11.9,3.3c0,0-0.4,0.1-0.3,0.5c0,0.2,0.1,0.5,0.4,0.5l14.6-1.5
					c0.9-0.1,1.8,0.6,1.8,1.5c0.1,0.9-0.6,1.7-1.5,1.8l-15,1.8c-0.4,0-0.6,0.6-0.1,0.7l13.6,0.8c0.9-0.1,1.6,0.5,1.7,1.4
					c0.1,0.9-0.5,1.6-1.4,1.7l-15-0.1c-0.7,0-0.7,0.6-0.2,0.6l0,0l10.7,2.2c0.9,0.2,1.7,0.7,1.6,1.5c-0.2,0.8-0.6,1.1-1.5,1.1
					l-12.3-1.3c-12.6,2.4-17.8-0.7-17.8-0.7c-8.9-5.6-0.6-11.4-0.6-11.4s1.4-3.2,4.7-6c1.3-1.1,5.2-4.3,7.3-6.5
					c0.7-0.7,1.4-1.6,1.4-1.6C397.2,95.3,397.7,95.7,398.2,96.6z"/>
				<path class="st2" d="M401.7,120.3c0,0,3.3-5.8,1.1-14.3C402.8,106,404,113.4,401.7,120.3z"/>
			</g>
			<g>
				<g>
					<path class="st3" d="M316.3,149.8L316.3,149.8l-20-52.2c-0.2-0.4-0.4-0.9-0.5-1.4c-1.7-5.8,1.6-11.9,7.3-13.6
						c5.5-1.7,11.4,1.3,13.4,6.6h0.1l17.3,54.8c1.7,4.5-0.3,9.7-4.8,11.7c-4.7,2.1-10.2,0.1-12.3-4.6
						C316.6,150.8,316.5,150.3,316.3,149.8z"/>
				</g>
				<g>
					<path class="st0" d="M380.5,112.9c-5,1.7-37.6,13.4-58.8,26.9l0,0l0,0c-3.8,2-5.5,6.5-4,10.5c0.1,0.3,0.3,0.7,0.4,1
						c2.2,4.1,7.3,5.7,11.5,3.6c0.4-0.2,42.1-20.4,55.2-33.4L380.5,112.9z"/>
					<g>
						<path class="st3" d="M372.1,115.9l5.8,11.3c0.2,0.5-0.7,1.3-0.7,1.3C359.9,141,330,155.6,330,155.6
							c-4.5,2.4-10.1,0.6-12.5-3.9c-2.4-4.5-0.6-10.1,3.9-12.5c15.5-9.9,36.8-18.7,49.3-23.5C370.6,115.7,371.6,115.1,372.1,115.9z"/>
					</g>
				</g>
			</g>
		</g>
		<g>
			<g>
				<g>
					<path class="st5" d="M286.3,230h-13.1c-26.3-1.2-30.9-6.5-32.1-15.2c0.3-15.9,3.8-28.3,12.3-36.8l55.4,0.2
						c8.8,8.5,11.8,18.7,11.8,33.1c0,0,0,5.3-0.2,7.3C315.4,227.2,305.5,230,286.3,230z"/>
					<path class="st6" d="M247.4,186c1.6-2.9,3.6-5.6,6-8l55.4,0.2c1.3,1.3,2.5,2.6,3.6,4C307.6,184.5,290.8,190.7,247.4,186z"/>
					<g>
						<path class="st21" d="M261.8,419.3c3.7,10.5,13.2,22.1,13.2,22.1l8.3,0.9l8.3,2.1c0,0,2.1,2.1,0.3,5.2h-21.1l-7.2-18l0.5,18
							h-2.2l-4.5-22.3C257.3,427.3,257.8,422,261.8,419.3z"/>
						<path class="st0" d="M261.8,419.2l5.3-4.8l6,4.8c0,0,6.4,20.4,10.2,23.1l-7.6-0.1C275.7,442.3,265.5,429.8,261.8,419.2z"/>
					</g>
					<g>
						<path class="st7" d="M264.4,419.5c0,0,8.3,30,5.3,30.5h-16.6c0,0-2.5,0.8,0.2-29.9l6.1-0.7L264.4,419.5z"/>
						<path class="st0" d="M264.4,419.3l2.8,22.7c-1.4,0.3-9.1-1.2-12,0.9c0,0-1.8-10.4-1.9-23.6l5.1-6.9L264.4,419.3z"/>
					</g>
					<g>
						<path class="st5" d="M320.3,217.1c-0.5-10.4-9.1-18.5-19.4-18.5c-0.2,0-0.4,0-0.6,0H300c-10.7,0.5-19,9.7-18.5,20.4
							c0.1,1,0.2,2,0.4,3l8.8,94.5c-0.1,1,0,2,0.2,3v0.5h0.1c0.9,4.3,4,8,8.4,9.6c1.5,0.5,2.9,0.8,4.4,0.8c5.5,0,10.5-3.5,12.4-8.7
							c0.3-0.8,0.5-1.7,0.6-2.5h0.2l0.1-1.5l3.2-97.3C320.3,219.3,320.4,218.2,320.3,217.1z"/>
					</g>
					<g>
						<path class="st5" d="M279.6,216.3c0.2-1.1,0.3-2.2,0.3-3.3c-0.1-10.5-8.7-19.2-19.2-19.4h-0.3c-0.2,0-0.3,0-0.5,0
							c-10.5,0.3-18.9,9.1-18.9,19.5c0,1,0.1,2,0.3,3l4.5,95.2v1.5v1.6h0.2c0.8,6.4,6.3,11.4,12.9,11.5c0.2,0,0.4,0,0.6,0
							c7.1-0.2,12.7-5.9,12.7-13c0-0.4,0-0.7,0-1L279.6,216.3z"/>
					</g>
					<g>
						<path class="st5" d="M316.6,320.3c1.5-6.4-2-13.1-8.4-15.3c-1.5-0.5-3-0.8-4.5-0.8c-1.9,0-3.8,0.4-5.6,1.3
							c-3,1.4-5.3,3.9-6.6,7l-0.1,0.2c-10.4,19.4-12.5,25-18.8,49.4c-3.3,12.8-5.1,24.3-8,43.4c-0.5,3.3-1.1,6.9-1.7,10.8l-0.2,1.3
							l1.3,0.5l0.9,0.3l8,2.9l1.5,0.5l0.6-1.4l40.3-96.8c0.3-0.6,0.6-1.2,0.8-1.9c0.1-0.2,0.2-0.5,0.2-0.7L316.6,320.3L316.6,320.3z
							"/>
					</g>
					<path class="st6" d="M263,416.3c0.6-3.8,1.1-7.4,1.7-10.8c2.9-19.1,4.7-30.7,8-43.4c6.1-23.6,8.3-29.6,17.8-47.6l0.2,2
						c-0.1,1,0,2,0.2,3v0.5h0.1c0.9,4.3,4,8,8.4,9.6c1.5,0.5,2.9,0.8,4.4,0.8c4.9,0,9.3-2.7,11.6-6.9l0,0l-40.3,96.8l-0.6,1.4
						l-1.5-0.5l-8-2.9l-0.9-0.3l-1.3-0.5L263,416.3z"/>
					<g>
						<path class="st5" d="M272.1,312.4v-0.8H272c-0.7-6.5-6.2-11.7-12.9-11.8c-0.2,0-0.4,0-0.5,0c-3.3,0.1-6.5,1.4-8.8,3.8
							c-2.4,2.4-3.8,5.5-3.9,8.9v0.2c-3.5,21.8-3.7,27.7-1.6,52.8c1.1,13.1,3.2,24.6,6.7,43.6l0.4,2c0.5,2.7,1.1,6.2,1.7,9.3
							l12.7-0.5l6.4-104.7c0.1-0.7,0.2-1.4,0.2-2.1C272.2,312.9,272.1,312.6,272.1,312.4z"/>
					</g>
					<path class="st6" d="M246,314.6c0.8,6.4,6.3,11.4,12.9,11.5c0.2,0,0.4,0,0.6,0c6.4-0.2,11.5-4.8,12.6-10.9l0,0l-6.4,104.7
						l-12.7,0.5c-0.6-3.1-1.2-6.5-1.7-9.3l-0.4-2c-3.5-19-5.6-30.5-6.7-43.6c-2-24.9-1.8-30.9,1.5-52.3v1.4L246,314.6z"/>
				</g>
			</g>
			<g>
				<path class="st4" d="M249.6,13.9c0,0-9.6,15-8.3,51.6c1,30,28.4,31.9,33.6,31.9s30.9,7.5,30.1-34.4c-0.5-24.2,0.1-27.4,0.1-27.4
					S274.2,7.7,249.6,13.9z"/>
				<path class="st4" d="M305.5,22.5c0,0,1.8,13.3-1.1,19.6l-1.3,0.7l-4.8-20L305.5,22.5z"/>
				<path class="st8" d="M288.4,75.1c0,0-10.4-2.8-17.7,0l-0.8,5.5l20.1,0.9L288.4,75.1z"/>
				<polygon class="st9" points="273,87.4 286.9,87.2 285.7,63.3 275.3,63.3 				"/>
				<path class="st10" d="M285.7,63.3h-10.5l-1.3,13.4c4.8-0.2,9.4-1.5,12.3-2.6L285.7,63.3z"/>
				<path class="st9" d="M279.5,89.6c-7.2,0-13.1-3.9-13.5-8.8c6.6-0.8,11.8-1,11.8-1h1.5c0,0,6.3,0.2,13.7,1.2
					C292.4,85.8,286.6,89.6,279.5,89.6z"/>
				<g>
					<path class="st11" d="M236.8,88.2c1.9-3.9,10.1-6.1,16.7-6.3c0.1,0,0.2-0.1,0.4-0.1c3.2-0.6,7.6-1,13-1.2l0,0l0,0l0,0l0,0
						l14.5,5.8L293,81l0,0c0.3,0,0.7,0,1,0c10.2,0.5,10.2,0.5,10.8,1.6L305,83v0.4c0.1,0.7,1.6,9.5,1.9,10.4c1.1,3.6,2.8,7,5,10.1
						c3.7,5.1,7.5,11.2,6,18.8c-1.4,6.8-5.4,12.5-10.9,15.4c-1.4,6.1-2,18.5-1.5,24c0.5,5.2,4.1,14.9,6.2,19.1
						c0.8,0.7-24.4,1.6-30.4,1.6c-16,0-30.4-2.6-30.4-2.6c1.8-4.6,3.4-11.7,4.4-18.3c1.2-7.8,1.2-23.6-1.4-29.5
						c-2-4.5-3.9-9.2-5.7-13.7c-1.1-2.9-2.3-5.8-3.5-8.6c-0.7-1.6-1.3-3.2-1.9-4.8c-0.4-1-0.8-2.1-1.3-3.1
						C236.3,99.8,234.2,93.4,236.8,88.2z"/>
				</g>
				<g>
					<path class="st8" d="M266.8,80.6l14.6,5.8L293,81l-2.3,5c2.7,4.3-0.4,8.8-0.4,8.8c-3.2-0.5-6-2.7-6-2.7c-1.5,1-4.5,0.5-4.5,0.5
						c-3.3,3.2-6.2,2.3-6.2,2.3c-1.5-2.4-1.9-4.4-2-6L266.8,80.6z"/>
				</g>
				<polygon class="st13" points="288.4,75.1 293,81 287.2,91.1 281.4,86.4 				"/>
				<polygon class="st13" points="270.7,75.1 266.8,80.6 275.6,92.2 281.4,86.4 				"/>
				<path class="st12" d="M264.5,138.3c-3.6-0.2-5.5-2.5-5.5-2.5h51.5c-1,0.8-2,1.6-3.1,2.2c-0.4,0.1-0.8,0.2-1.1,0.3
					C293.5,138.4,267.2,138.4,264.5,138.3z"/>
				<path class="st9" d="M300,37c0,0,8.5-3,8.5,5.5s-8.5,5.9-8.5,5.9V37z"/>
				<g>
					<path class="st14" d="M257,47.9c0,13.9,10.4,25.1,23.3,25.1l0,0c12.9,0,23.3-11.2,23.3-25.1l-2.4-22.2
						c0-13.9-7.9-17.5-20.7-17.5l0,0c-12.9,0-21.7,3.5-21.7,17.4L257,47.9z"/>
					<path class="st9" d="M263.3,19.4c0,0-1.4,3.2-4.5,5.6c0.3-13.3,9-16.7,21.6-16.7c12.9,0,20.7,3.6,20.7,17.5l0.6,5
						C295.7,31.4,278.2,31.9,263.3,19.4z"/>
					<path class="st9" d="M281.3,70.7c-12.1,0-22-9.9-23.2-22.5l-1.1,0.3c0.4,13.6,10.7,24.5,23.3,24.5c9.9,0,18.3-6.6,21.7-16
						C298.2,65.2,290.4,70.7,281.3,70.7z"/>
				</g>
				<path class="st14" d="M258.6,37c0,0-8.5-3-8.5,5.5s8.5,5.9,8.5,5.9V37z"/>
				<g>
					<g>
						<path class="st15" d="M292.3,56.7H278c0,0-1.4,0-0.4,2.1c0.6,1.4,2.4,4.2,7.3,4.4c5.9,0.2,7.9-4.5,7.9-4.5
							S293.7,56.7,292.3,56.7z"/>
						<path class="st16" d="M277.4,58.3c-0.5-1.6,0.6-1.5,0.6-1.5h14.3c1.1,0,0.8,1.1,0.6,1.7C290.2,59.1,284.5,60,277.4,58.3z"/>
					</g>
					<path class="st9" d="M287.8,47c0,0,3.8-0.1,3.8,3.1s-5.9,2.4-6.1,0C285.3,47.7,285,29.9,287.8,47z"/>
					<g>
						<path class="st4" d="M269.9,36.2c1-0.3,2.1-0.5,3.2-0.5l0,0c1.1,0,2.2,0.2,3.2,0.5l0,0c0.4,0.1,0.8-0.1,0.9-0.5l0,0
							c0.1-0.4-0.1-0.8-0.5-0.9l0,0c-1.2-0.4-2.4-0.6-3.7-0.6l0,0c-1.2,0-2.5,0.2-3.7,0.6l0,0c-0.4,0.1-0.6,0.5-0.5,0.9l0,0
							c0.1,0.3,0.4,0.5,0.7,0.5l0,0C269.7,36.3,269.8,36.2,269.9,36.2L269.9,36.2z"/>
					</g>
					<g>
						<path class="st4" d="M300.9,35.7c0.1-0.4-0.1-0.8-0.5-0.9l0,0c-1.2-0.4-2.4-0.6-3.7-0.6l0,0c-1.2,0-2.5,0.2-3.7,0.6l0,0
							c-0.4,0.1-0.6,0.5-0.5,0.9l0,0c0.1,0.4,0.5,0.6,0.9,0.5l0,0c1-0.3,2.1-0.5,3.2-0.5l0,0c1.1,0,2.2,0.2,3.2,0.5l0,0
							c0.1,0,0.2,0,0.2,0l0,0C300.5,36.3,300.8,36.1,300.9,35.7L300.9,35.7z"/>
					</g>
					<path class="st9" d="M261.1,50.8c0,1.5,2.2,2.7,4.9,2.7s4.9-1.2,4.9-2.7s-2.2-2.7-4.9-2.7C263.3,48.2,261.1,49.4,261.1,50.8z"/>
					<path class="st9" d="M295.7,50.8c0,1,1.5,1.8,3.3,1.8s3.3-0.8,3.3-1.8S300.8,49,299,49S295.7,49.9,295.7,50.8z"/>
					<g>
						<path class="st17" d="M272.6,43.5c0,2.1,0.8,3.7,1.9,3.7c1,0,1.8-1.7,1.8-3.7c0-2.1-0.8-3.7-1.8-3.7S272.6,41.5,272.6,43.5z"/>
						<path class="st17" d="M274.2,40.2c0,0-2-0.1-2.1-1c0,0,0.4,2.3,0.9,2.6L274.2,40.2z"/>
					</g>
					<g>
						<path class="st17" d="M298.2,43.5c0,2.1-0.8,3.7-1.9,3.7c-1,0-1.9-1.7-1.9-3.7c0-2.1,0.8-3.7,1.9-3.7
							C297.3,39.8,298.2,41.5,298.2,43.5z"/>
						<path class="st17" d="M296.6,40.2c0,0,2-0.1,2.1-1c0,0-0.4,2.3-0.9,2.6L296.6,40.2z"/>
					</g>
				</g>
				<path class="st18" d="M284,91c0,0,2.6,2.1,5.6,2.6c0,0,3.1-4.6,0.1-8.8c0,0-3.1,0.3-5.8,2.2c0,0-2.1-1.4-4.3,0.2
					c0,0-2.9-2.1-6.6-2.4c0,0-2.4,3.4,1,8.8c0,0,2.8,0.8,5.8-2.2C279.8,91.4,282.6,91.9,284,91z"/>
				<path class="st4" d="M263.6,11.9c0,0,16.8,21.9,42.3,16.3c0,0,3.3-24.4-16.9-27.3C289.1,0.9,269.3-4.7,263.6,11.9z"/>
				<path class="st4" d="M275.3,2.8c0,0-16.4-4-24.7,9.3c0,0-2.7,5-4.5,10.4c-1.8,5.5,12.5,7.6,12.5,7.6S261.3,6.8,275.3,2.8z"/>
				<path class="st19" d="M301.5,26.8c0.2,0,0.4-0.2,0.4-0.4l0,0c0-0.2-0.2-0.4-0.4-0.4l0,0c-1,0.1-2,0.1-3,0.1l0,0
					c-13.4,0-24.8-8.7-29.7-13l0,0c-1.6-1.4-2.5-2.4-2.5-2.4l0,0l0,0c-0.1-0.2-0.4-0.2-0.6,0l0,0c-0.2,0.1-0.2,0.4,0,0.6l0,0
					c0,0,14.4,15.7,32.7,15.7l0,0C299.5,27,300.5,26.9,301.5,26.8L301.5,26.8z"/>
				<path class="st19" d="M267,9c0.3-0.9,1-2.2,1.6-3.1l0,0c0.7-1,1.3-1.6,1.3-1.6l0,0l0,0c0.1-0.2,0.1-0.4,0-0.6l0,0
					c-0.2-0.1-0.4-0.1-0.6,0l0,0c0,0-2.4,2.8-3.1,5l0,0c-0.1,0.2,0.1,0.4,0.3,0.5l0,0h0.1l0,0C266.8,9.3,266.9,9.2,267,9L267,9z"/>
				<path class="st19" d="M255.5,32c0-3.1,1.4-8.1,2.8-12.2l0,0c1.4-4.2,2.9-7.5,2.9-7.5l0,0c0.1-0.2,0-0.4-0.2-0.5l0,0
					c-0.2-0.1-0.4,0-0.5,0.2l0,0c0,0-5.7,13.5-5.8,20.1l0,0c0,0.2,0.2,0.4,0.4,0.4l0,0C255.3,32.4,255.5,32.2,255.5,32L255.5,32z"/>
			</g>
		</g>
		<g>
			<g>
				<g>
					<path class="st11" d="M216.9,145.3L216.9,145.3l17.5-53.1c0.1-0.5,0.3-0.9,0.5-1.4c2.3-5.6,8.7-8.2,14.3-5.9
						c5.3,2.2,8,8.2,6.2,13.6h0.1L234.3,152c-1.5,4.6-6.4,7.3-11.1,6.1c-5-1.3-7.9-6.3-6.7-11.3
						C216.5,146.2,216.7,145.7,216.9,145.3z"/>
				</g>
				<g>
					<path class="st0" d="M166.5,119.2c4,3.4,30.8,25.4,53.3,36.7l0,0l0,0c3.6,2.2,8.4,1.4,11.1-1.9c0.2-0.3,0.4-0.6,0.6-0.9
						c2.4-4,1.2-9.3-2.8-11.7c-0.4-0.3-39.1-25.7-56.9-30.3L166.5,119.2z"/>
					<g>
						<path class="st11" d="M173.4,124.9l6.8-10.8c0.4-0.4,1.5,0,1.5,0c19.6,8.5,47.4,26.6,47.4,26.6c4.4,2.7,5.8,8.4,3.1,12.8
							c-2.7,4.4-8.4,5.8-12.8,3.1c-16.4-8.2-34.9-22-45.4-30.3C174,126.3,172.9,125.7,173.4,124.9z"/>
					</g>
				</g>
			</g>
			<g>
				<path class="st0" d="M159.8,114.3c3.9,5,7,5.1,8.9,4.6l0,0c3.8-1.3,3.5-5.8,2.1-9.8l-2.3-7.1c-1.3-4-4.7-3.9-8.5-2.7l0,0
					c-3.8,1.3-6.6,3.1-5.1,7.6L159.8,114.3z"/>
				<g>
					<g>
						<polygon class="st22" points="164.8,72.7 163.4,74 171.7,143.9 220,138.2 221.9,136.2 						"/>
						
							<rect x="168.9" y="69.4" transform="matrix(0.9929 -0.1186 0.1186 0.9929 -11.0112 23.6729)" class="st23" width="49" height="69.9"/>
						
							<rect x="173.3" y="76.2" transform="matrix(0.993 -0.1185 0.1185 0.993 -11.1572 23.703)" class="st24" width="40.9" height="58.9"/>
						<path class="st25" d="M188.1,69l-0.1-0.7c-0.1-0.8,0.5-1.4,1.2-1.5h0.2c0.8-0.1,1.5,0.5,1.5,1.2l0.1,0.7l5.9-0.7l1.2,9.7
							l-15.2,1.8l-1.2-9.7L188.1,69z"/>
						
							<rect x="183.6" y="83.2" transform="matrix(0.993 -0.1185 0.1185 0.993 -8.6362 23.2629)" class="st26" width="15.4" height="2.1"/>
						
							<rect x="179.3" y="90.5" transform="matrix(0.993 -0.1185 0.1185 0.993 -9.4535 23.3299)" class="st26" width="24.3" height="1.3"/>
						
							<rect x="177.6" y="94.3" transform="matrix(0.9929 -0.1186 0.1186 0.9929 -9.907 23.4294)" class="st26" width="28.6" height="1.3"/>
						
							<rect x="182.7" y="98.1" transform="matrix(0.9929 -0.1186 0.1186 0.9929 -10.3547 23.5038)" class="st26" width="19.2" height="1.3"/>
						
							<rect x="178.5" y="101.9" transform="matrix(0.993 -0.1185 0.1185 0.993 -10.7958 23.5685)" class="st26" width="28.6" height="1.3"/>
						
							<rect x="181.1" y="105.7" transform="matrix(0.9929 -0.1186 0.1186 0.9929 -11.2486 23.6698)" class="st26" width="24.3" height="1.3"/>
						
							<rect x="179.4" y="109.5" transform="matrix(0.993 -0.1185 0.1185 0.993 -11.6901 23.7284)" class="st26" width="28.6" height="1.3"/>
						
							<rect x="180.7" y="113.3" transform="matrix(0.9929 -0.1186 0.1186 0.9929 -12.1433 23.83)" class="st26" width="26.9" height="1.3"/>
						
							<rect x="180.3" y="117.2" transform="matrix(0.9929 -0.1186 0.1186 0.9929 -12.6028 23.9121)" class="st26" width="28.6" height="1.3"/>
						
							<rect x="184.6" y="121" transform="matrix(0.993 -0.1185 0.1185 0.993 -13.0429 23.9715)" class="st26" width="20.9" height="1.3"/>
					</g>
					<g>
						<g>
							<path class="st0" d="M157.6,104.4c0.3-0.1,0.7-0.4,0.9-0.7c2.4-3.4,10.7-6.2,13.6-7c1-0.3,1.7-1.2,1.5-2.2
								c-0.2-0.9-1.2-1.4-2.2-1.2c-1.2,0.3-12.3,3.4-16,8.6c-0.6,0.8-0.4,1.9,0.5,2.4C156.4,104.7,157.1,104.7,157.6,104.4z"/>
						</g>
						<g>
							<path class="st0" d="M159.7,106.8c0.3-0.1,0.6-0.3,0.8-0.5c4.5-4.8,15.1-6.6,15.2-6.6c1-0.2,1.8-1.1,1.6-2.1
								c-0.2-1-1.1-1.7-2.2-1.5c-0.5,0.1-12,2-17.5,7.8c-0.7,0.8-0.7,1.9,0.1,2.6C158.3,106.8,159,107,159.7,106.8z"/>
						</g>
						<g>
							<path class="st0" d="M163.9,107.6c0.2-0.1,0.4-0.2,0.6-0.3c4.3-3.1,10.4-4.2,10.5-4.2c1-0.2,1.8-1.1,1.6-2
								c-0.1-0.9-1.1-1.5-2.1-1.3c-0.3,0.1-7.1,1.4-12.2,5c-0.8,0.6-1,1.7-0.4,2.4C162.3,107.6,163.2,107.8,163.9,107.6z"/>
						</g>
						<g>
							<path class="st0" d="M165.5,110.6c0.2-0.1,0.3-0.1,0.5-0.2c4-2.6,8-3.5,8.1-3.5c1-0.2,1.7-1.2,1.5-2.1
								c-0.2-1-1.2-1.6-2.2-1.4c-0.2,0-4.8,1-9.5,4c-0.9,0.6-1.1,1.7-0.6,2.5C163.8,110.6,164.7,110.8,165.5,110.6z"/>
						</g>
					</g>
				</g>
			</g>
		</g>
	</g>
</g>
</svg>
