<?xml version="1.0" encoding="utf-8"?>
<!-- Generator: Adobe Illustrator 28.1.0, SVG Export Plug-In . SVG Version: 6.00 Build 0)  -->
<svg version="1.1" id="Layer_1" xmlns="http://www.w3.org/2000/svg" xmlns:xlink="http://www.w3.org/1999/xlink" x="0px" y="0px"
	 viewBox="0 0 1000 1000" style="enable-background:new 0 0 1000 1000;" xml:space="preserve">
<style type="text/css">
	.st0{fill:none;stroke:#000000;stroke-width:4;stroke-miterlimit:10;}
	.st1{opacity:0.5;}
	.st2{fill:none;stroke:#000000;stroke-miterlimit:10;}
</style>
<g id="Layer_2_00000000903671739942144520000018137499422940922517_">
	<g>
		<g>
			<polyline class="st0" points="995.7,924.6 75.4,924.6 75.4,4.3 			"/>
			<g>
				<polygon points="982.4,908.2 979.7,911.1 994.1,924.6 979.7,938 982.4,940.9 1000,924.6 				"/>
			</g>
			<g>
				<polygon points="91.8,17.6 88.9,20.3 75.4,5.9 62,20.3 59.1,17.6 75.4,0 				"/>
			</g>
		</g>
	</g>
	<g>
		<path d="M404.9,975.8h15.3v3.5h-19.6V947h4.3L404.9,975.8L404.9,975.8z"/>
		<path d="M424.4,949c0-0.7,0.2-1.2,0.6-1.7s1-0.7,1.8-0.7s1.4,0.2,1.8,0.7s0.6,1,0.6,1.7s-0.2,1.2-0.6,1.7c-0.4,0.4-1,0.7-1.8,0.7
			s-1.4-0.2-1.8-0.7S424.4,949.6,424.4,949z M428.8,979.3h-4.1v-24h4.1V979.3z"/>
		<path d="M442.1,968.2l-2.6,2.7v8.4h-4.1v-34h4.1v20.6l2.2-2.6l7.5-7.9h5l-9.3,10l10.4,14h-4.8L442.1,968.2z"/>
		<path d="M467.9,979.7c-3.2,0-5.9-1.1-7.9-3.2c-2-2.1-3.1-5-3.1-8.6v-0.8c0-2.4,0.5-4.5,1.4-6.4s2.2-3.3,3.8-4.4s3.4-1.6,5.3-1.6
			c3.1,0,5.5,1,7.3,3.1c1.7,2.1,2.6,5,2.6,8.8v1.7H461c0.1,2.4,0.7,4.3,2.1,5.7s3,2.2,5,2.2c1.4,0,2.7-0.3,3.7-0.9
			c1-0.6,1.9-1.4,2.6-2.3l2.5,1.9C474.9,978.2,471.9,979.7,467.9,979.7z M467.3,958.2c-1.7,0-3,0.6-4.2,1.8
			c-1.1,1.2-1.8,2.9-2.1,5.1h12v-0.3c-0.1-2.1-0.7-3.7-1.7-4.8C470.4,958.8,469.1,958.2,467.3,958.2z"/>
		<path d="M486.4,979.3h-4.1v-34h4.1V979.3z"/>
		<path d="M493,949c0-0.7,0.2-1.2,0.6-1.7s1-0.7,1.8-0.7s1.4,0.2,1.8,0.7s0.6,1,0.6,1.7s-0.2,1.2-0.6,1.7c-0.4,0.4-1,0.7-1.8,0.7
			s-1.4-0.2-1.8-0.7S493,949.6,493,949z M497.4,979.3h-4.1v-24h4.1V979.3z"/>
		<path d="M508,958.2c1.8-2.2,4.2-3.3,7.1-3.3c5.1,0,7.6,2.9,7.7,8.6v15.8h-4.1v-15.9c0-1.7-0.4-3-1.2-3.8s-2-1.2-3.6-1.2
			c-1.3,0-2.5,0.4-3.5,1.1c-1,0.7-1.8,1.6-2.3,2.8v17.1H504v-34h4.1v12.8H508z"/>
		<path d="M527.8,967.1c0-2.3,0.5-4.5,1.4-6.3s2.2-3.3,3.9-4.3c1.6-1,3.5-1.5,5.6-1.5c3.3,0,5.9,1.1,7.9,3.4c2,2.3,3,5.3,3,9v0.3
			c0,2.3-0.4,4.4-1.3,6.3c-0.9,1.9-2.2,3.3-3.8,4.3c-1.7,1-3.6,1.6-5.7,1.6c-3.2,0-5.9-1.1-7.9-3.4s-3-5.2-3-9v-0.4H527.8z
			 M532,967.6c0,2.7,0.6,4.8,1.8,6.4c1.2,1.6,2.9,2.4,4.9,2.4c2.1,0,3.7-0.8,5-2.4c1.2-1.6,1.8-3.9,1.8-6.9c0-2.6-0.6-4.8-1.9-6.4
			c-1.2-1.6-2.9-2.4-5-2.4c-2,0-3.7,0.8-4.9,2.4C532.6,962.3,532,964.6,532,967.6z"/>
		<path d="M553.7,967.1c0-2.3,0.5-4.5,1.4-6.3s2.2-3.3,3.9-4.3c1.6-1,3.5-1.5,5.6-1.5c3.3,0,5.9,1.1,7.9,3.4c2,2.3,3,5.3,3,9v0.3
			c0,2.3-0.4,4.4-1.3,6.3c-0.9,1.9-2.2,3.3-3.8,4.3c-1.7,1-3.6,1.6-5.7,1.6c-3.2,0-5.9-1.1-7.9-3.4s-3-5.2-3-9v-0.4H553.7z
			 M557.8,967.6c0,2.7,0.6,4.8,1.8,6.4c1.2,1.6,2.9,2.4,4.9,2.4c2.1,0,3.7-0.8,5-2.4c1.2-1.6,1.8-3.9,1.8-6.9c0-2.6-0.6-4.8-1.9-6.4
			c-1.2-1.6-2.9-2.4-5-2.4c-2,0-3.7,0.8-4.9,2.4C558.5,962.3,557.8,964.6,557.8,967.6z"/>
		<path d="M579.7,967.1c0-3.7,0.9-6.6,2.6-8.9c1.7-2.2,4-3.4,6.8-3.4s5,1,6.7,2.9v-12.5h4.1v34h-3.8l-0.2-2.6c-1.6,2-3.9,3-6.8,3
			c-2.8,0-5-1.1-6.8-3.4c-1.8-2.3-2.6-5.2-2.6-8.9V967.1z M583.8,967.6c0,2.7,0.6,4.8,1.7,6.4s2.7,2.3,4.7,2.3
			c2.6,0,4.5-1.2,5.7-3.5v-11c-1.2-2.3-3.1-3.4-5.6-3.4c-2,0-3.6,0.8-4.7,2.3C584.3,962.2,583.8,964.5,583.8,967.6z"/>
	</g>
	<g>
		<path d="M54.7,561.9v4.3H22.5v-4.3H54.7z"/>
		<path d="M30.8,550.9l2.7-0.1c-2.1-1.8-3.1-4.1-3.1-7.1c0-3.4,1.3-5.6,3.9-6.8c-1.2-0.8-2.1-1.8-2.8-3.1s-1.1-2.8-1.1-4.5
			c0-5.3,2.8-7.9,8.3-8h16.1v4.1H38.9c-1.7,0-3,0.4-3.8,1.2s-1.3,2.1-1.3,3.9c0,1.5,0.5,2.8,1.4,3.8s2.1,1.6,3.7,1.7h15.9v4.1H39
			c-3.5,0-5.2,1.7-5.2,5.1c0,2.7,1.1,4.5,3.4,5.5h17.5v4.1h-24L30.8,550.9L30.8,550.9z"/>
		<path d="M43,494.8c3.6,0,6.6,0.8,8.8,2.5s3.3,3.9,3.3,6.8s-0.9,5.2-2.8,6.9h11.5v4.1h-33v-3.7l2.7-0.2c-2.1-1.7-3.1-4-3.1-7
			c0-2.9,1.1-5.2,3.3-6.8c2.2-1.7,5.2-2.5,9.1-2.5L43,494.8L43,494.8z M42.6,498.9c-2.7,0-4.8,0.6-6.4,1.7s-2.3,2.7-2.3,4.7
			c0,2.5,1.1,4.3,3.3,5.6h11.4c2.2-1.2,3.3-3.1,3.3-5.6c0-2-0.8-3.5-2.3-4.7S45.6,498.9,42.6,498.9z"/>
		<path d="M54.7,474.8c-0.5,0.2-1.3,0.4-2.5,0.6c2,1.9,3,4.2,3,6.8c0,2.4-0.7,4.3-2,5.8s-3,2.3-5.1,2.3c-2.5,0-4.4-0.9-5.8-2.8
			c-1.4-1.9-2.1-4.6-2.1-8v-4h-1.9c-1.4,0-2.6,0.4-3.4,1.3c-0.8,0.9-1.3,2.1-1.3,3.8c0,1.5,0.4,2.7,1.1,3.7s1.6,1.5,2.7,1.5v4.1
			c-1.2,0-2.4-0.4-3.5-1.3c-1.1-0.8-2-2-2.6-3.5c-0.7-1.5-1-3.1-1-4.8c0-2.8,0.7-4.9,2.1-6.5c1.4-1.6,3.3-2.4,5.7-2.4h11
			c2.2,0,3.9-0.3,5.2-0.8h0.4C54.7,470.6,54.7,474.8,54.7,474.8z M51.6,481.6c0-1.3-0.3-2.5-1-3.7s-1.5-2-2.6-2.5h-4.9v3.2
			c0,5,1.5,7.5,4.4,7.5c1.3,0,2.3-0.4,3-1.3C51.2,484,51.6,482.9,51.6,481.6z"/>
		<path d="M51.8,455.3c0-1.5-0.4-2.7-1.3-3.8c-0.9-1.1-2-1.7-3.3-1.8v-3.9c1.4,0.1,2.7,0.5,3.9,1.4s2.2,2,3,3.5
			c0.7,1.5,1.1,3,1.1,4.6c0,3.3-1.1,5.9-3.3,7.8S46.7,466,43,466h-0.7c-2.3,0-4.4-0.4-6.2-1.3s-3.2-2.1-4.2-3.7s-1.5-3.5-1.5-5.7
			c0-2.7,0.8-4.9,2.4-6.7c1.6-1.8,3.7-2.7,6.3-2.8v3.9c-1.5,0.1-2.8,0.7-3.8,1.8c-1,1.1-1.5,2.4-1.5,3.9c0,2.1,0.7,3.7,2.2,4.8
			c1.5,1.1,3.7,1.7,6.5,1.7h0.8c2.8,0,4.9-0.6,6.4-1.7C51.1,459,51.8,457.4,51.8,455.3z"/>
		<path d="M25,435.6h5.8v-4.5H34v4.5h14.9c1,0,1.7-0.2,2.2-0.6s0.7-1.1,0.7-2c0-0.5-0.1-1.1-0.3-1.9h3.3c0.3,1.1,0.4,2.1,0.4,3.1
			c0,1.8-0.6,3.2-1.7,4.1c-1.1,0.9-2.7,1.4-4.7,1.4H33.9v4.4h-3.2v-4.4H25V435.6z"/>
	</g>
</g>
<g id="Layer_1_00000086665006576730323390000005348343413496676250_">
	<g class="st1">
		<line class="st2" x1="75.4" y1="184.9" x2="981.1" y2="184.9"/>
	</g>
	<g class="st1">
		<line class="st2" x1="75.4" y1="277.4" x2="981.1" y2="277.4"/>
	</g>
	<g class="st1">
		<line class="st2" x1="75.4" y1="369.8" x2="981.1" y2="369.8"/>
	</g>
	<g class="st1">
		<line class="st2" x1="75.4" y1="462.3" x2="981.1" y2="462.3"/>
	</g>
	<g class="st1">
		<line class="st2" x1="75.4" y1="554.8" x2="981.1" y2="554.8"/>
	</g>
	<g class="st1">
		<line class="st2" x1="75.4" y1="647.2" x2="981.1" y2="647.2"/>
	</g>
	<g class="st1">
		<line class="st2" x1="75.4" y1="739.7" x2="981.1" y2="739.7"/>
	</g>
	<g class="st1">
		<line class="st2" x1="75.4" y1="832.1" x2="981.1" y2="832.1"/>
	</g>
	<g class="st1">
		<line class="st2" x1="815.1" y1="19.2" x2="815.1" y2="924.6"/>
	</g>
	<g class="st1">
		<line class="st2" x1="722.6" y1="19.2" x2="722.6" y2="924.6"/>
	</g>
	<g class="st1">
		<line class="st2" x1="630.2" y1="19.2" x2="630.2" y2="924.6"/>
	</g>
	<g class="st1">
		<line class="st2" x1="537.7" y1="19.2" x2="537.7" y2="924.6"/>
	</g>
	<g class="st1">
		<line class="st2" x1="445.3" y1="19.2" x2="445.3" y2="924.6"/>
	</g>
	<g class="st1">
		<line class="st2" x1="352.8" y1="19.2" x2="352.8" y2="924.6"/>
	</g>
	<g class="st1">
		<line class="st2" x1="260.4" y1="19.2" x2="260.4" y2="924.6"/>
	</g>
	<g class="st1">
		<line class="st2" x1="167.9" y1="19.2" x2="167.9" y2="924.6"/>
	</g>
	<g class="st1">
		<line class="st2" x1="907.5" y1="19.2" x2="907.5" y2="924.6"/>
	</g>
	<g class="st1">
		<line class="st2" x1="75.4" y1="92.5" x2="981.1" y2="92.5"/>
	</g>
</g>
</svg>
