<?xml version="1.0" encoding="UTF-8"?><svg id="Layer_1" xmlns="http://www.w3.org/2000/svg" viewBox="0 0 159.5 112.24"><defs><style>.cls-1{fill:#010101;fill-rule:evenodd;stroke-width:0px;}</style></defs><path class="cls-1" d="M86.19,87.85c.14.36-.13.76-.52.76h-11.86c-.38,0-.65-.38-.53-.74l3.17-9.07c.07-.19-.02-.4-.2-.51-6.01-3.47-3.7-12.94,3.5-13,7.36.07,9.52,9.84,3.25,13.14-.19.1-.29.32-.21.53l3.39,8.89ZM114.81,41.66h-49.5v-7.83C65.34,15.62,51.03.04,32.76,0,14.42.06.67,15.66.23,33.75c0,0-.23,8.91-.23,8.91-.04,1.6,1.23,2.94,2.84,2.97,1.6.04,2.94-1.23,2.97-2.84l.23-8.91C6.57,9.58,34.05-3.84,51.59,14.01c4.86,5.07,7.88,12.08,7.88,19.81v7.83h-14.78c-4.45,0-8.07,3.62-8.07,8.07v54.44c0,4.45,3.62,8.07,8.07,8.07h70.12c4.45,0,8.07-3.63,8.07-8.07v-54.44c0-4.44-3.63-8.07-8.07-8.07ZM44.69,47.49h70.12c.61,0,1.17.25,1.58.66.41.41.66.97.66,1.58v54.44c0,1.22-1.01,2.23-2.24,2.23H44.69c-1.22,0-2.24-1.01-2.23-2.23v-54.44c0-1.22,1.01-2.24,2.23-2.24h0Z"/></svg>