<?xml version="1.0" encoding="UTF-8"?><svg id="Layer_1" xmlns="http://www.w3.org/2000/svg" viewBox="0 0 116.19 110.24"><defs><style>.cls-1{fill:#010101;stroke-width:0px;}</style></defs><path class="cls-1" d="M36.85,110.23c-6.55.04-5.83-10.36.65-9.39l14.77-14.77-46.42-.02C2.62,86.06,0,83.44,0,80.21V12.07C0,8.84,2.61,6.23,5.83,6.22c13.65-.02,46.53-.1,46.96-.5v-3.3c0-1.34,1.09-2.42,2.42-2.42h3.08c1.34,0,2.42,1.09,2.42,2.42v3.3c.46.4,35.72-.46,49.78-.06,3.17.09,5.69,2.67,5.69,5.84,0,14.3,0,53.75,0,68.7,0,3.23-2.62,5.84-5.85,5.84h-45.46v1.41c.26.28,13.01,13.01,13.3,13.31,6.29-.38,6.54,9.51.25,9.46-3.15.04-5.39-3.11-4.56-6.09l-13.14-13.13v7.46c0,1.15-.93,2.09-2.09,2.09h-1.75c-1.15,0-2.09-.93-2.09-2.09v-7.24l-13.28,13.29c.55,2.91-1.65,5.75-4.66,5.72ZM8.52,79.23h98.99c1.07,0,1.94-.87,1.94-1.94V20.84c0-1.07-.87-1.94-1.94-1.94H8.52c-1.07,0-1.94.87-1.94,1.94v56.45c0,1.07.87,1.94,1.94,1.94ZM76.22,62.61l3.96-3.96-15.41-15.61c-.45-.45-1.17-.46-1.62-.01-5.04,4.98-10.11,10.04-15.02,14.95-.44.44-1.16.45-1.61,0l-19.3-18.87c-.46-.45-.46-1.18,0-1.63l2.82-2.82c.45-.45,1.17-.45,1.62,0l14.77,14.46c.45.44,1.16.44,1.61,0l15.15-14.96c.45-.44,1.18-.44,1.62,0,6.79,6.81,13.45,13.56,19.84,20.04l3.65-3.65c.72-.72,1.96-.21,1.96.81v12.16c0,.64-.52,1.15-1.16,1.15l-12.06-.11c-1.02,0-1.52-1.24-.8-1.96Z"/></svg>