<?xml version="1.0" encoding="UTF-8"?><svg id="Layer_1" xmlns="http://www.w3.org/2000/svg" viewBox="0 0 142.11 113.75"><defs><style>.cls-1{fill:#010101;}.cls-1,.cls-2{stroke-width:0px;}.cls-2{fill:none;}</style></defs><path class="cls-2" d="M7.46,104.35c-.3.65-.25,1.41.14,2.02.39.61,1.06.98,1.79.98h123.38c.73,0,1.39-.37,1.78-.98.39-.61.44-1.37.14-2.03-.15-.32-.31-.61-.48-.9L72.75,7.05c-.24-.41-.91-.67-1.67-.67s-1.48.27-1.68.67L7.92,103.48c-.16.27-.32.56-.46.87ZM74.96,94.33c-.67,1.6-2.29,2.71-3.93,2.71h0c-1.04,0-2.03-.43-2.88-1.24-.42-.4-.73-.87-.94-1.37-.64-1.54-.26-3.41.92-4.54.73-.77,1.81-1.22,2.94-1.22s2.19.44,2.93,1.21c1.26,1.28,1.6,2.9.95,4.45ZM71.07,40.92c2.85,0,5.75.69,5.8,2.24t-1.79,23.38c-.68,8.84-1.32,17.19-1.33,17.38-.03,1.47-1.41,2.14-2.68,2.14s-2.65-.67-2.68-2.14l-3.11-40.7c.04-1.6,2.94-2.29,5.79-2.29Z"/><path class="cls-1" d="M71.08,86.06c1.27,0,2.65-.67,2.68-2.14,0-.19.65-8.54,1.33-17.38q1.79-23.36,1.79-23.38c-.05-1.55-2.95-2.24-5.8-2.24s-5.75.69-5.79,2.29l3.11,40.7c.03,1.47,1.41,2.14,2.68,2.14Z"/><path class="cls-1" d="M71.08,88.67c-1.13,0-2.21.45-2.94,1.22-1.18,1.13-1.56,3-.92,4.54.21.51.53.97.94,1.37.84.81,1.84,1.24,2.88,1.24h0c1.64,0,3.26-1.12,3.93-2.71.65-1.55.3-3.17-.95-4.45-.74-.77-1.81-1.21-2.93-1.21Z"/><path class="cls-1" d="M139.59,100.03L78.15,3.66c-.76-1.24-1.8-2.18-3.08-2.8-1.19-.56-2.57-.86-3.99-.86-3.13,0-5.79,1.38-7.09,3.67-.05.07-61.49,96.45-61.5,96.47-1.42,2.44-3.43,7.45-2,10.73.63,1.45,1.84,2.38,3.59,2.77.39.07.77.11,1.14.11h131.74c2.14-.06,3.65-.87,4.48-2.43,1.66-3.1-.08-8.47-1.85-11.29ZM71.08,6.37c.76,0,1.43.27,1.67.67l61.45,96.4c.17.28.33.58.48.9.31.66.26,1.42-.14,2.03-.39.61-1.06.98-1.78.98H9.39c-.73,0-1.39-.37-1.79-.98-.39-.61-.44-1.37-.14-2.02.14-.31.3-.6.46-.87L69.4,7.04c.2-.39.89-.67,1.68-.67Z"/></svg>