<?xml version="1.0" encoding="utf-8"?>
<!-- Generator: Adobe Illustrator 25.4.1, SVG Export Plug-In . SVG Version: 6.00 Build 0)  -->










<svg version="1.1" id="Layer_1" xmlns="http://www.w3.org/2000/svg" xmlns:xlink="http://www.w3.org/1999/xlink" x="0px" y="0px" viewBox="0 0 486.3 548.2" style="enable-background:new 0 0 486.3 548.2;" xml:space="preserve">
<style type="text/css">
	.st0{opacity:7.000000e-02;fill-rule:evenodd;clip-rule:evenodd;}
	.st1{fill-rule:evenodd;clip-rule:evenodd;fill:#FFFFFF;stroke:#E4E4E4;stroke-miterlimit:10;}
	.st2{fill-rule:evenodd;clip-rule:evenodd;fill:#E4E4E4;}
	.st3{fill-rule:evenodd;clip-rule:evenodd;fill:#808080;}
	.st4{fill-rule:evenodd;clip-rule:evenodd;fill:#FFFFFF;}
	.st5{fill-rule:evenodd;clip-rule:evenodd;fill:#EDCA25;}
	.st6{fill-rule:evenodd;clip-rule:evenodd;fill:#D2D2D2;}
	.st7{fill-rule:evenodd;clip-rule:evenodd;fill:#EAEAEA;}
	.st8{fill:none;}
	.st9{fill-rule:evenodd;clip-rule:evenodd;fill:none;}
	.st10{fill:#878787;}
	.st11{font-family:'CourierNewPSMT';}
	.st12{font-size:21px;}
	.st13{fill-rule:evenodd;clip-rule:evenodd;fill:#F7DAC6;}
</style>
<switch>
	
	<g>
		<path class="st0" d="M16.1,4.2h458.8c6.3,0,11.4,5.2,11.4,11.5v521c0,6.3-5.2,11.5-11.4,11.5H16.1c-6.3,0-11.5-5.2-11.5-11.5V15.6
			C4.7,9.3,9.8,4.2,16.1,4.2L16.1,4.2L16.1,4.2z"/>
		<path class="st1" d="M12,0.5h458.8c6.3,0,11.5,5.2,11.5,11.5v521c0,6.3-5.2,11.5-11.5,11.5H12c-6.3,0-11.5-5.2-11.5-11.5V11.9
			C0.5,5.7,5.7,0.5,12,0.5L12,0.5L12,0.5z"/>
		<path class="st2" d="M12,0.5h458.8c6.3,0,11.5,5.2,11.5,11.5v40H0.5V12C0.5,5.7,5.7,0.5,12,0.5L12,0.5L12,0.5z"/>
		<path class="st3" d="M87.9,32.5c-1.7,1.7-4,2.6-6.2,2.6c-2.3,0-4.5-0.9-6.2-2.6c-1.7-1.7-2.6-4-2.6-6.2c0-2.3,0.9-4.5,2.6-6.2
			s4-2.6,6.2-2.6c2.1,0,4.1,0.7,5.8,2.2l2.1-2.1l0.6,3.8l0.6,3.8L87,24.5l-3.8-0.6l2.2-2.2c-1.1-0.9-2.4-1.3-3.7-1.3
			c-1.5,0-3,0.6-4.1,1.7s-1.7,2.6-1.7,4.1s0.6,3,1.7,4.1s2.6,1.7,4.1,1.7s3-0.6,4.1-1.7L87.9,32.5L87.9,32.5z"/>
		<path class="st4" d="M108.9,14.8h319.2c2.2,0,4.1,1.8,4.1,4.1v14.8c0,2.2-1.8,4.1-4.1,4.1H108.9c-2.2,0-4.1-1.8-4.1-4.1V18.9
			C104.9,16.6,106.7,14.8,108.9,14.8L108.9,14.8L108.9,14.8z"/>
		<polygon class="st5" points="417.9,20.3 419.8,24.2 424.2,24.8 421,27.9 421.8,32.2 417.9,30.1 414.1,32.2 414.8,27.9 411.7,24.8 
			416,24.2 		"/>
		<polygon class="st6" points="41.3,24.8 55.4,24.8 50,19.8 51.9,17.8 61.1,26.3 51.9,34.8 50,32.7 55.4,27.7 41.3,27.7 		"/>
		<polygon class="st3" points="472.5,20.2 447.8,20.2 447.8,23 472.5,23 		"/>
		<polygon class="st3" points="472.5,24.8 447.8,24.8 447.8,27.7 472.5,27.7 		"/>
		<polygon class="st3" points="472.5,29.5 447.8,29.5 447.8,32.4 472.5,32.4 		"/>
		<polygon class="st3" points="34.5,24.8 20.4,24.8 25.8,19.8 23.9,17.8 14.7,26.3 23.9,34.8 25.8,32.7 20.4,27.7 34.5,27.7 		"/>
		<rect x="14.7" y="71.8" class="st7" width="452.2" height="54.6"/>
		<rect x="14.7" y="131.9" class="st7" width="452.2" height="54.6"/>
		<rect x="14.7" y="253.2" class="st7" width="302" height="54.6"/>
		<rect x="14.7" y="314.3" class="st7" width="302" height="145"/>
		<rect x="322.2" y="192" class="st7" width="145.2" height="267.3"/>
		<rect x="14.7" y="465.2" class="st7" width="452.2" height="54.6"/>
		<rect x="34.5" y="91.4" class="st8" width="120.6" height="22.7"/>
		<rect x="21.7" y="71.8" class="st9" width="438.2" height="54.6"/>
		<text transform="matrix(1 0 0 1 21.7004 107.3489)" class="st10 st11 st12"/>
		<rect x="21.7" y="131.9" class="st9" width="438.2" height="54.6"/>
		<text transform="matrix(1 0 0 1 21.7004 167.4495)" class="st10 st11 st12"/>
		<rect x="21.7" y="253.2" class="st9" width="288" height="54.6"/>
		<text transform="matrix(1 0 0 1 21.7004 288.7495)" class="st10 st11 st12"/>
		<rect x="329.2" y="192" class="st9" width="131.2" height="54.6"/>
		<text transform="matrix(1 0 0 1 329.2001 227.5498)" class="st10 st11 st12"/>
		<rect x="21.7" y="314.4" class="st9" width="288" height="54.6"/>
		<text transform="matrix(1 0 0 1 21.7004 349.9492)" class="st10 st11 st12"/>
		<rect x="21.7" y="465.2" class="st9" width="438.2" height="54.6"/>
		<text transform="matrix(1 0 0 1 21.7004 500.7491)" class="st10 st11 st12"/>
		<rect x="14.7" y="192" class="st13" width="302" height="54.6"/>
		<rect x="21.7" y="192" class="st9" width="288" height="54.6"/>
		<text transform="matrix(1 0 0 1 21.7004 227.5493)" class="st11 st12"/>
	</g>
</switch>

</svg>
