<?xml version="1.0" encoding="utf-8"?>
<!-- Generator: Adobe Illustrator 25.4.1, SVG Export Plug-In . SVG Version: 6.00 Build 0)  -->










<svg version="1.1" id="Layer_1" xmlns="http://www.w3.org/2000/svg" xmlns:xlink="http://www.w3.org/1999/xlink" x="0px" y="0px" viewBox="0 0 60 60" style="enable-background:new 0 0 60 60;" xml:space="preserve">
<style type="text/css">
	.st0{fill:#8EC640;}
	.st1{fill:#FFFFFF;}
</style>
<switch>
	
	<g>
		<g>
			<g>
				<ellipse transform="matrix(5.514564e-03 -1 1 5.514564e-03 -0.165 59.8341)" class="st0" cx="30" cy="30" rx="30" ry="30"/>
			</g>
			<g>
				<path class="st1" d="M13.3,45.8c-0.3,0-0.6-0.1-0.9-0.4c-0.2-0.2-0.4-0.5-0.4-0.9V26.3c0-0.7,0.6-1.2,1.2-1.2l7.1,0
					c0.3,0,0.6,0.1,0.9,0.4c0.2,0.2,0.4,0.5,0.4,0.9v18.2c0,0.3-0.1,0.6-0.4,0.9c-0.2,0.2-0.5,0.4-0.9,0.4L13.3,45.8z"/>
				<path class="st1" d="M25.5,44.5c-0.7,0-1.3-0.4-1.5-0.5c-0.2-0.1-0.6-0.5-0.8-0.7c0,0,0-17.2,0-17.3c0,0,0.2-0.7,0.8-1.3
					c3-2.8,8.1-6.6,9.9-10.3c0.6-1.3,1.2-2.6,1.6-4c0.3-1,0.8-1.7,1.9-1.9c1.2-0.2,2.4,0.5,3,1.5c1.4,2.2,0.7,4.8-0.2,7.1
					c-0.5,1.2-1.1,2.3-1.7,3.4c-0.2,0.3-1.5,2.6-1.5,2.6c3.1,0,7.4,0,7.4,0c1.6,0,4.5,0.8,4.5,3.9c0,1.5-1,2.4-1.7,2.8
					c0.7,0.5,1.6,1.5,1.4,2.9c-0.2,1.4-1.1,2.2-1.9,2.6c0.5,0.6,1,1.4,0.8,2.6c-0.2,1.1-1.1,1.8-1.8,2.1c0.4,0.5,0.8,1.2,0.6,2.1
					c-0.4,2-2.1,2.2-2.9,2.2c-0.1,0-0.1,0-0.2,0l0,0H25.5z"/>
			</g>
		</g>
	</g>
</switch>

</svg>
