<?xml version="1.0" encoding="utf-8"?>
<!-- Generator: Adobe Illustrator 25.4.1, SVG Export Plug-In . SVG Version: 6.00 Build 0)  -->










<svg version="1.1" id="Layer_1" xmlns="http://www.w3.org/2000/svg" xmlns:xlink="http://www.w3.org/1999/xlink" x="0px" y="0px" viewBox="0 0 73.1 50" style="enable-background:new 0 0 73.1 50;" xml:space="preserve">
<style type="text/css">
	.st0{fill:#00AEEF;}
</style>
<switch>
	
	<g>
		<path class="st0" d="M70.4,0H2.7C1.2,0,0,1.2,0,2.7v44.6C0,48.8,1.2,50,2.7,50h67.7c1.5,0,2.7-1.2,2.7-2.7V2.7
			C73.1,1.2,71.9,0,70.4,0z M67.9,42.3c0.9,0.8,1,2.1,0.2,3c-0.4,0.5-1,0.7-1.6,0.7c-0.5,0-1-0.2-1.4-0.5L46,28.7l-1.9,1.8
			c-2.1,2-4.8,3-7.5,3c-2.7,0-5.5-1-7.6-3.1l-1.9-1.8l-19,16.8C7.8,45.8,7.2,46,6.7,46c-0.6,0-1.2-0.2-1.6-0.7
			c-0.8-0.9-0.7-2.3,0.2-3L24,25.7L4.7,7.5c-0.9-0.8-0.9-2.2-0.1-3c0.8-0.9,2.2-0.9,3-0.1L28.4,24c0.2,0.1,0.3,0.2,0.4,0.4
			c0,0,0.1,0.1,0.1,0.1l3.1,2.9c2.5,2.4,6.7,2.4,9.1,0L65,4.2c0.9-0.8,2.2-0.8,3,0c0.8,0.9,0.8,2.2,0,3L49.1,25.7L67.9,42.3z"/>
	</g>
</switch>

</svg>
