<?xml version="1.0" encoding="utf-8"?>
<!-- Generator: Adobe Illustrator 25.4.1, SVG Export Plug-In . SVG Version: 6.00 Build 0)  -->










<svg version="1.1" xmlns="http://www.w3.org/2000/svg" xmlns:xlink="http://www.w3.org/1999/xlink" x="0px" y="0px" viewBox="0 0 1200 1200" style="enable-background:new 0 0 1200 1200;" xml:space="preserve">
<style type="text/css">
	.st0{fill:none;stroke:#ABE1FA;stroke-width:14;stroke-miterlimit:10;}
	.st1{display:none;}
	.st2{display:inline;}
	.st3{fill:#505050;}
	.st4{fill:none;}
	.st5{font-family:'Roboto-Regular';}
	.st6{font-size:36px;}
	.st7{display:inline;fill:none;}
	.st8{font-size:72px;}
	.st9{fill:#FBB040;}
	.st10{fill:none;stroke:#FFFFFF;stroke-width:3;stroke-miterlimit:10;}
	.st11{display:inline;fill:#FFFFFF;}
	.st12{display:inline;fill:#00AEEF;}
	.st13{fill:#8EC640;}
	.st14{fill:#FFFFFF;}
	.st15{fill:#D12C4F;}
	.st16{fill:#8DC63F;}
</style>
<switch>
	
	<g>
		<g id="ring">
			<circle class="st0" cx="600.8" cy="601.1" r="280"/>
		</g>
		<g id="Layer_8" class="st1">
			<rect x="575" y="291.3" class="st2" width="50" height="50"/>
			<rect x="575" y="856.1" class="st2" width="50" height="50"/>
			<rect x="795.9" y="740" class="st2" width="50" height="50"/>
			<rect x="357" y="740" class="st2" width="50" height="50"/>
			<rect x="795.9" y="405.3" class="st2" width="50" height="50"/>
			<rect x="357" y="405.3" class="st2" width="50" height="50"/>
		</g>
		<g id="computers">
			<path class="st3" d="M655.1,70.3H445.7c-5.9,0-10.7,4.8-10.7,10.7v136.3c0,5.9,4.8,10.7,10.7,10.7h209.4
				c5.9,0,10.7-4.8,10.7-10.7V81C665.8,75.1,661,70.3,655.1,70.3z M548.6,222c-3,0-5.5-2.4-5.5-5.5c0-3,2.4-5.5,5.5-5.5
				c3,0,5.5,2.4,5.5,5.5C554.1,219.6,551.7,222,548.6,222z M654.2,198.1c0,4.5-4.4,8.8-9,8.8H453.2c-4.6,0-6.6-4.3-6.6-8.8V89.6
				c0-4.5,2-7.8,6.6-7.8h192.1c4.6,0,9,3.2,9,7.8L654.2,198.1L654.2,198.1z M596.3,258.7h-15.8c-2.9,0-5.2-2.7-5.2-5.7l-3.7-13.7
				c0-3.3-2.7-5.6-6-5.6h-32.9c-3.3,0-6,2.3-6,5.6l-3.7,13.8c0,3-2.3,5.5-5.2,5.5h-14.9c-3,0-5.5,2.7-5.5,5.8s2.5,5.8,5.5,5.8h93.2
				c3,0,5.5-2.7,5.5-5.8C601.8,261.5,599.3,258.7,596.3,258.7z M754.5,70.3h-67.9c-6.2,0-11.2,5-11.2,11.2v177.5
				c0,6.2,5,11.2,11.2,11.2h67.9c6.2,0,11.2-5,11.2-11.2V81.5C765.8,75.3,760.7,70.3,754.5,70.3z M721.5,225.3c-4,0-7.2-3.2-7.2-7.2
				s3.2-7.2,7.2-7.2c4,0,7.2,3.2,7.2,7.2C728.7,222.1,725.5,225.3,721.5,225.3z M756.2,133.9c0,2.7-1.7,5.6-4.5,5.6H692
				c-2.8,0-5.1-2.9-5.1-5.6v-1.1c0-2.7,2.3-4.8,5.1-4.8h59.7c2.8,0,4.5,2.1,4.5,4.8V133.9z M756.2,110.8c0,2.7-1.7,5.6-4.5,5.6H692
				c-2.8,0-5.1-2.9-5.1-5.6v-1.1c0-2.7,2.3-4.8,5.1-4.8h59.7c2.8,0,4.5,2.1,4.5,4.8V110.8z M756.2,87.7c0,2.7-1.7,5.6-4.5,5.6H692
				c-2.8,0-5.1-2.9-5.1-5.6v-1.1c0-2.7,2.3-4.8,5.1-4.8h59.7c2.8,0,4.5,2.1,4.5,4.8V87.7z"/>
			<path class="st3" d="M220.1,230.3H10.7C4.8,230.3,0,235.1,0,241v136.3c0,5.9,4.8,10.7,10.7,10.7h209.4c5.9,0,10.7-4.8,10.7-10.7
				V241C230.8,235.1,226,230.3,220.1,230.3z M113.6,382c-3,0-5.5-2.4-5.5-5.5s2.4-5.5,5.5-5.5c3,0,5.5,2.4,5.5,5.5
				S116.6,382,113.6,382z M219.2,358.1c0,4.5-4.4,8.8-9,8.8H18.1c-4.6,0-6.6-4.3-6.6-8.8V249.6c0-4.5,2-7.8,6.6-7.8h192.1
				c4.6,0,9,3.2,9,7.8L219.2,358.1L219.2,358.1z M161.3,418.7h-15.8c-2.9,0-5.2-2.7-5.2-5.7l-3.7-13.7c0-3.3-2.7-5.6-6-5.6H97.8
				c-3.3,0-6,2.3-6,5.6l-3.7,13.8c0,3-2.3,5.5-5.2,5.5H68c-3,0-5.5,2.7-5.5,5.8s2.5,5.8,5.5,5.8h93.2c3,0,5.5-2.7,5.5-5.8
				C166.8,421.5,164.3,418.7,161.3,418.7z M319.5,230.3h-67.9c-6.2,0-11.2,5-11.2,11.2v177.5c0,6.2,5,11.2,11.2,11.2h67.9
				c6.2,0,11.2-5,11.2-11.2V241.5C330.8,235.3,325.7,230.3,319.5,230.3z M286.5,385.3c-4,0-7.2-3.2-7.2-7.2s3.2-7.2,7.2-7.2
				s7.2,3.2,7.2,7.2C293.7,382.1,290.5,385.3,286.5,385.3z M321.1,293.9c0,2.7-1.7,5.6-4.5,5.6H257c-2.8,0-5.1-2.9-5.1-5.6v-1.1
				c0-2.7,2.3-4.8,5.1-4.8h59.7c2.8,0,4.5,2.1,4.5,4.8V293.9z M321.1,270.8c0,2.7-1.7,5.6-4.5,5.6H257c-2.8,0-5.1-2.9-5.1-5.6v-1.1
				c0-2.7,2.3-4.8,5.1-4.8h59.7c2.8,0,4.5,2.1,4.5,4.8V270.8z M321.1,247.7c0,2.7-1.7,5.6-4.5,5.6H257c-2.8,0-5.1-2.9-5.1-5.6v-1.1
				c0-2.7,2.3-4.8,5.1-4.8h59.7c2.8,0,4.5,2.1,4.5,4.8V247.7z"/>
			<path class="st3" d="M1089.3,230.3H879.9c-5.9,0-10.7,4.8-10.7,10.7v136.3c0,5.9,4.8,10.7,10.7,10.7h209.4
				c5.9,0,10.7-4.8,10.7-10.7V241C1100,235.1,1095.2,230.3,1089.3,230.3z M982.9,382c-3,0-5.5-2.4-5.5-5.5s2.4-5.5,5.5-5.5
				c3,0,5.5,2.4,5.5,5.5S985.9,382,982.9,382z M1088.5,358.1c0,4.5-4.4,8.8-9,8.8H887.4c-4.6,0-6.6-4.3-6.6-8.8V249.6
				c0-4.5,2-7.8,6.6-7.8h192.1c4.6,0,9,3.2,9,7.8L1088.5,358.1L1088.5,358.1z M1030.5,418.7h-15.8c-2.9,0-5.2-2.7-5.2-5.7l-3.7-13.7
				c0-3.3-2.7-5.6-6-5.6H967c-3.3,0-6,2.3-6,5.6l-3.7,13.8c0,3-2.3,5.5-5.2,5.5h-14.9c-3,0-5.5,2.7-5.5,5.8s2.5,5.8,5.5,5.8h93.2
				c3,0,5.5-2.7,5.5-5.8C1036,421.5,1033.6,418.7,1030.5,418.7z M1188.8,230.3h-67.9c-6.2,0-11.2,5-11.2,11.2v177.5
				c0,6.2,5,11.2,11.2,11.2h67.9c6.2,0,11.2-5,11.2-11.2V241.5C1200,235.3,1195,230.3,1188.8,230.3z M1155.8,385.3
				c-4,0-7.2-3.2-7.2-7.2s3.2-7.2,7.2-7.2s7.2,3.2,7.2,7.2C1162.9,382.1,1159.7,385.3,1155.8,385.3z M1190.4,293.9
				c0,2.7-1.7,5.6-4.5,5.6h-59.7c-2.8,0-5.1-2.9-5.1-5.6v-1.1c0-2.7,2.3-4.8,5.1-4.8h59.7c2.8,0,4.5,2.1,4.5,4.8V293.9z
				 M1190.4,270.8c0,2.7-1.7,5.6-4.5,5.6h-59.7c-2.8,0-5.1-2.9-5.1-5.6v-1.1c0-2.7,2.3-4.8,5.1-4.8h59.7c2.8,0,4.5,2.1,4.5,4.8
				V270.8z M1190.4,247.7c0,2.7-1.7,5.6-4.5,5.6h-59.7c-2.8,0-5.1-2.9-5.1-5.6v-1.1c0-2.7,2.3-4.8,5.1-4.8h59.7
				c2.8,0,4.5,2.1,4.5,4.8V247.7z"/>
			<path class="st3" d="M655.1,930H445.7c-5.9,0-10.7,4.8-10.7,10.7V1077c0,5.9,4.8,10.7,10.7,10.7h209.4c5.9,0,10.7-4.8,10.7-10.7
				V940.7C665.8,934.8,661,930,655.1,930z M548.6,1081.7c-3,0-5.5-2.4-5.5-5.5s2.4-5.5,5.5-5.5c3,0,5.5,2.4,5.5,5.5
				S551.7,1081.7,548.6,1081.7z M654.2,1057.8c0,4.5-4.4,8.8-9,8.8H453.2c-4.6,0-6.6-4.3-6.6-8.8V949.3c0-4.5,2-7.8,6.6-7.8h192.1
				c4.6,0,9,3.2,9,7.8L654.2,1057.8L654.2,1057.8z M596.3,1118.5h-15.8c-2.9,0-5.2-2.7-5.2-5.7l-3.7-13.7c0-3.3-2.7-5.6-6-5.6h-32.9
				c-3.3,0-6,2.3-6,5.6l-3.7,13.8c0,3-2.3,5.5-5.2,5.5h-14.9c-3,0-5.5,2.7-5.5,5.8c0,3,2.5,5.8,5.5,5.8h93.2c3,0,5.5-2.7,5.5-5.8
				C601.8,1121.2,599.3,1118.5,596.3,1118.5z M754.5,930h-67.9c-6.2,0-11.2,5-11.2,11.2v177.5c0,6.2,5,11.2,11.2,11.2h67.9
				c6.2,0,11.2-5,11.2-11.2V941.2C765.8,935,760.7,930,754.5,930z M721.5,1085c-4,0-7.2-3.2-7.2-7.2s3.2-7.2,7.2-7.2
				c4,0,7.2,3.2,7.2,7.2C728.7,1081.8,725.5,1085,721.5,1085z M756.2,993.6c0,2.7-1.7,5.6-4.5,5.6H692c-2.8,0-5.1-2.9-5.1-5.6v-1.1
				c0-2.7,2.3-4.8,5.1-4.8h59.7c2.8,0,4.5,2.1,4.5,4.8V993.6z M756.2,970.5c0,2.7-1.7,5.6-4.5,5.6H692c-2.8,0-5.1-2.9-5.1-5.6v-1.1
				c0-2.7,2.3-4.8,5.1-4.8h59.7c2.8,0,4.5,2.1,4.5,4.8V970.5z M756.2,947.4c0,2.7-1.7,5.6-4.5,5.6H692c-2.8,0-5.1-2.9-5.1-5.6v-1.1
				c0-2.7,2.3-4.8,5.1-4.8h59.7c2.8,0,4.5,2.1,4.5,4.8V947.4z"/>
			<path class="st3" d="M1090.7,770H881.3c-5.9,0-10.7,4.8-10.7,10.7V917c0,5.9,4.8,10.7,10.7,10.7h209.4c5.9,0,10.7-4.8,10.7-10.7
				V780.7C1101.4,774.8,1096.6,770,1090.7,770z M984.3,921.7c-3,0-5.5-2.4-5.5-5.5c0-3,2.4-5.5,5.5-5.5c3,0,5.5,2.4,5.5,5.5
				C989.7,919.3,987.3,921.7,984.3,921.7z M1089.9,897.8c0,4.5-4.4,8.8-9,8.8H888.8c-4.6,0-6.6-4.3-6.6-8.8V789.3
				c0-4.5,2-7.8,6.6-7.8h192.1c4.6,0,9,3.2,9,7.8L1089.9,897.8L1089.9,897.8z M1031.9,958.5h-15.8c-2.9,0-5.2-2.7-5.2-5.7l-3.7-13.7
				c0-3.3-2.7-5.6-6-5.6h-32.9c-3.3,0-6,2.3-6,5.6l-3.7,13.8c0,3-2.3,5.5-5.2,5.5h-14.9c-3,0-5.5,2.7-5.5,5.8s2.5,5.8,5.5,5.8h93.2
				c3,0,5.5-2.7,5.5-5.8C1037.4,961.2,1035,958.5,1031.9,958.5z M1190.2,770h-67.9c-6.2,0-11.2,5-11.2,11.2v177.5
				c0,6.2,5,11.2,11.2,11.2h67.9c6.2,0,11.2-5,11.2-11.2V781.2C1201.4,775,1196.4,770,1190.2,770z M1157.2,925c-4,0-7.2-3.2-7.2-7.2
				s3.2-7.2,7.2-7.2s7.2,3.2,7.2,7.2C1164.3,921.8,1161.1,925,1157.2,925z M1191.8,833.6c0,2.7-1.7,5.6-4.5,5.6h-59.7
				c-2.8,0-5.1-2.9-5.1-5.6v-1.1c0-2.7,2.3-4.8,5.1-4.8h59.7c2.8,0,4.5,2.1,4.5,4.8V833.6z M1191.8,810.5c0,2.7-1.7,5.6-4.5,5.6
				h-59.7c-2.8,0-5.1-2.9-5.1-5.6v-1.1c0-2.7,2.3-4.8,5.1-4.8h59.7c2.8,0,4.5,2.1,4.5,4.8V810.5z M1191.8,787.4
				c0,2.7-1.7,5.6-4.5,5.6h-59.7c-2.8,0-5.1-2.9-5.1-5.6v-1.1c0-2.7,2.3-4.8,5.1-4.8h59.7c2.8,0,4.5,2.1,4.5,4.8V787.4z"/>
			<path class="st3" d="M221.5,770H12.1c-5.9,0-10.7,4.8-10.7,10.7V917c0,5.9,4.8,10.7,10.7,10.7h209.4c5.9,0,10.7-4.8,10.7-10.7
				V780.7C232.2,774.8,227.4,770,221.5,770z M115,921.7c-3,0-5.5-2.4-5.5-5.5c0-3,2.4-5.5,5.5-5.5c3,0,5.5,2.4,5.5,5.5
				C120.5,919.3,118,921.7,115,921.7z M220.6,897.8c0,4.5-4.4,8.8-9,8.8H19.5c-4.6,0-6.6-4.3-6.6-8.8V789.3c0-4.5,2-7.8,6.6-7.8
				h192.1c4.6,0,9,3.2,9,7.8L220.6,897.8L220.6,897.8z M162.7,958.5h-15.8c-2.9,0-5.2-2.7-5.2-5.7L138,939c0-3.3-2.7-5.6-6-5.6H99.2
				c-3.3,0-6,2.3-6,5.6l-3.7,13.8c0,3-2.3,5.5-5.2,5.5H69.4c-3,0-5.5,2.7-5.5,5.8s2.5,5.8,5.5,5.8h93.2c3,0,5.5-2.7,5.5-5.8
				C168.2,961.2,165.7,958.5,162.7,958.5z M320.9,770H253c-6.2,0-11.2,5-11.2,11.2v177.5c0,6.2,5,11.2,11.2,11.2h67.9
				c6.2,0,11.2-5,11.2-11.2V781.2C332.2,775,327.1,770,320.9,770z M287.9,925c-4,0-7.2-3.2-7.2-7.2s3.2-7.2,7.2-7.2s7.2,3.2,7.2,7.2
				C295.1,921.8,291.9,925,287.9,925z M322.5,833.6c0,2.7-1.7,5.6-4.5,5.6h-59.7c-2.8,0-5.1-2.9-5.1-5.6v-1.1c0-2.7,2.3-4.8,5.1-4.8
				h59.7c2.8,0,4.5,2.1,4.5,4.8V833.6z M322.5,810.5c0,2.7-1.7,5.6-4.5,5.6h-59.7c-2.8,0-5.1-2.9-5.1-5.6v-1.1
				c0-2.7,2.3-4.8,5.1-4.8h59.7c2.8,0,4.5,2.1,4.5,4.8V810.5z M322.5,787.4c0,2.7-1.7,5.6-4.5,5.6h-59.7c-2.8,0-5.1-2.9-5.1-5.6
				v-1.1c0-2.7,2.3-4.8,5.1-4.8h59.7c2.8,0,4.5,2.1,4.5,4.8V787.4z"/>
			<rect x="435" y="1" class="st4" width="330.8" height="50.3"/>
			<text transform="matrix(1 0 0 1 544.4651 39.6466)" class="st5 st6"/>
			<rect x="435" y="1147.9" class="st4" width="330.8" height="50.3"/>
			<text transform="matrix(1 0 0 1 532.0989 1186.4977)" class="st5 st6"/>
		</g>
		<g id="Layer_9" class="st1">
			<rect x="446.5" y="81.8" class="st7" width="207.7" height="123"/>
			<text transform="matrix(1 0 0 1 526.9095 170.3216)" class="st2 st5 st8"/>
			<rect x="446.5" y="941.5" class="st7" width="207.7" height="123"/>
			<text transform="matrix(1 0 0 1 526.7864 1030.0358)" class="st2 st5 st8"/>
			<rect x="879" y="241.8" class="st7" width="207.7" height="123"/>
			<text transform="matrix(1 0 0 1 960.4535 330.3289)" class="st2 st5 st8"/>
			<rect x="882" y="781" class="st7" width="207.7" height="123"/>
			<text transform="matrix(1 0 0 1 962.434 869.4609)" class="st2 st5 st8"/>
			<rect x="10.8" y="241.8" class="st7" width="207.7" height="123"/>
			<text transform="matrix(1 0 0 1 94.7673 330.3289)" class="st2 st5 st8"/>
			<rect x="10.8" y="781" class="st7" width="207.7" height="123"/>
			<text transform="matrix(1 0 0 1 94.2048 869.4609)" class="st2 st5 st8"/>
		</g>
		<g id="Token" class="st1">
			<g class="st2">
				<circle class="st9" cx="1021.7" cy="119.5" r="30"/>
				<circle class="st10" cx="1021.7" cy="119.5" r="17.5"/>
			</g>
		</g>
		<g id="Message" class="st1">
			<rect x="905.2" y="96.1" class="st11" width="69.1" height="45.8"/>
			<path class="st12" d="M973.6,94.5h-67.7c-1.5,0-2.7,1.2-2.7,2.7v44.6c0,1.5,1.2,2.7,2.7,2.7h67.7c1.5,0,2.7-1.2,2.7-2.7V97.2
				C976.3,95.7,975.1,94.5,973.6,94.5z M971.1,136.8c0.9,0.8,1,2.1,0.2,3c-0.4,0.5-1,0.7-1.6,0.7c-0.5,0-1-0.2-1.4-0.5l-19.1-16.8
				l-1.9,1.8c-2.1,2-4.8,3-7.5,3c-2.7,0-5.5-1-7.6-3.1l-1.9-1.8l-19,16.8c-0.4,0.4-0.9,0.5-1.4,0.5c-0.6,0-1.2-0.2-1.6-0.7
				c-0.8-0.9-0.7-2.3,0.2-3l18.7-16.5l-19.3-18.2c-0.9-0.8-0.9-2.2-0.1-3c0.8-0.9,2.2-0.9,3-0.1l20.8,19.5c0.2,0.1,0.3,0.2,0.4,0.4
				c0,0,0.1,0.1,0.1,0.1l3.1,2.9c2.5,2.4,6.7,2.4,9.1,0l23.9-23.2c0.9-0.8,2.2-0.8,3,0c0.8,0.9,0.8,2.2,0,3l-18.9,18.3L971.1,136.8z
				"/>
		</g>
		<g id="Acknowledgement" class="st1">
			<g class="st2">
				<g>
					
						<ellipse transform="matrix(5.514564e-03 -1 1 5.514564e-03 964.5218 1208.5359)" class="st13" cx="1089.9" cy="119.3" rx="30" ry="30"/>
				</g>
				<g>
					<path class="st14" d="M1073.1,135.1c-0.3,0-0.6-0.1-0.9-0.4c-0.2-0.2-0.4-0.5-0.4-0.9v-18.2c0-0.7,0.6-1.2,1.2-1.2l7.1,0
						c0.3,0,0.6,0.1,0.9,0.4c0.2,0.2,0.4,0.5,0.4,0.9v18.2c0,0.3-0.1,0.6-0.4,0.9c-0.2,0.2-0.5,0.4-0.9,0.4L1073.1,135.1z"/>
					<path class="st14" d="M1085.4,133.9c-0.7,0-1.3-0.4-1.5-0.5c-0.2-0.1-0.6-0.5-0.8-0.7c0,0,0-17.2,0-17.3c0,0,0.2-0.7,0.8-1.3
						c3-2.8,8.1-6.6,9.9-10.3c0.6-1.3,1.2-2.6,1.6-4c0.3-1,0.8-1.7,1.9-1.9c1.2-0.2,2.4,0.5,3,1.5c1.4,2.2,0.7,4.8-0.2,7.1
						c-0.5,1.2-1.1,2.3-1.7,3.4c-0.2,0.3-1.5,2.6-1.5,2.6c3.1,0,7.4,0,7.4,0c1.6,0,4.5,0.8,4.5,3.9c0,1.5-1,2.4-1.7,2.8
						c0.7,0.5,1.6,1.5,1.4,2.9c-0.2,1.4-1.1,2.2-1.9,2.6c0.5,0.6,1,1.4,0.8,2.6c-0.2,1.1-1.1,1.8-1.8,2.1c0.4,0.5,0.8,1.2,0.6,2.1
						c-0.4,2-2.1,2.2-2.9,2.2c-0.1,0-0.1,0-0.2,0l0,0H1085.4z"/>
				</g>
			</g>
		</g>
		<g id="Cross" class="st1">
			<g class="st2">
				<path class="st15" d="M219.6,592.2c0,4.6-4.4,8.8-9,8.8H17.7c-4.6,0-6.6-4.3-6.6-8.8V483.3c0-4.6,2-7.8,6.6-7.8h192.9
					c4.6,0,9,3.3,9,7.8L219.6,592.2L219.6,592.2z"/>
				<polygon class="st14" points="154.5,518.6 135,499.1 115.3,518.8 95.6,499.1 76.2,518.6 95.9,538.3 76.2,558 95.6,577.4 
					115.3,557.8 135,577.4 154.5,558 134.8,538.3 				"/>
			</g>
		</g>
		<g id="Tick" class="st1">
			<g class="st2">
				<path class="st16" d="M219,731.2c0,4.6-4.4,8.8-9,8.8H17c-4.6,0-6.6-4.3-6.6-8.8V622.3c0-4.6,2-7.8,6.6-7.8h192.9
					c4.6,0,9,3.3,9,7.8L219,731.2L219,731.2z"/>
				<polygon class="st14" points="163.8,657.5 144.3,638.1 104.7,677.6 85,658 65.6,677.4 104.9,716.4 				"/>
			</g>
		</g>
	</g>
</switch>

</svg>
