<?xml version="1.0" encoding="utf-8"?>
<!-- Generator: Adobe Illustrator 25.4.1, SVG Export Plug-In . SVG Version: 6.00 Build 0)  -->










<svg version="1.1" id="Layer_1" xmlns="http://www.w3.org/2000/svg" xmlns:xlink="http://www.w3.org/1999/xlink" x="0px" y="0px" viewBox="0 0 1200 1200" style="enable-background:new 0 0 1200 1200;" xml:space="preserve">
<style type="text/css">
	.st0{fill:none;stroke:#ABE1FA;stroke-width:14;stroke-miterlimit:10;}
	.st1{fill:#505050;}
	.st2{fill:none;}
	.st3{font-family:'Roboto-Regular';}
	.st4{font-size:36px;}
</style>
<switch>
	
	<g>
		<circle class="st0" cx="600.4" cy="599.7" r="280"/>
		<path class="st1" d="M654.7,68.9H445.3c-5.9,0-10.7,4.8-10.7,10.7v136.3c0,5.9,4.8,10.7,10.7,10.7h209.4c5.9,0,10.7-4.8,10.7-10.7
			V79.6C665.4,73.7,660.6,68.9,654.7,68.9z M548.3,220.7c-3,0-5.5-2.4-5.5-5.5s2.4-5.5,5.5-5.5c3,0,5.5,2.4,5.5,5.5
			S551.3,220.7,548.3,220.7z M653.9,196.7c0,4.5-4.4,8.8-9,8.8H452.8c-4.6,0-6.6-4.3-6.6-8.8V88.2c0-4.5,2-7.8,6.6-7.8h192.1
			c4.6,0,9,3.2,9,7.8L653.9,196.7L653.9,196.7z M595.9,257.4h-15.8c-2.9,0-5.2-2.7-5.2-5.7l-3.7-13.7c0-3.3-2.7-5.6-6-5.6h-32.9
			c-3.3,0-6,2.3-6,5.6l-3.7,13.8c0,3-2.3,5.5-5.2,5.5h-14.9c-3,0-5.5,2.7-5.5,5.8s2.5,5.8,5.5,5.8h93.2c3,0,5.5-2.7,5.5-5.8
			C601.4,260.1,598.9,257.4,595.9,257.4z M754.2,68.9h-67.9c-6.2,0-11.2,5-11.2,11.2v177.5c0,6.2,5,11.2,11.2,11.2h67.9
			c6.2,0,11.2-5,11.2-11.2V80.2C765.4,74,760.4,68.9,754.2,68.9z M721.1,223.9c-4,0-7.2-3.2-7.2-7.2c0-4,3.2-7.2,7.2-7.2
			s7.2,3.2,7.2,7.2C728.3,220.7,725.1,223.9,721.1,223.9z M755.8,132.5c0,2.7-1.7,5.6-4.5,5.6h-59.7c-2.8,0-5.1-2.9-5.1-5.6v-1.1
			c0-2.7,2.3-4.8,5.1-4.8h59.7c2.8,0,4.5,2.1,4.5,4.8V132.5z M755.8,109.4c0,2.7-1.7,5.6-4.5,5.6h-59.7c-2.8,0-5.1-2.9-5.1-5.6v-1.1
			c0-2.7,2.3-4.8,5.1-4.8h59.7c2.8,0,4.5,2.1,4.5,4.8V109.4z M755.8,86.4c0,2.7-1.7,5.6-4.5,5.6h-59.7c-2.8,0-5.1-2.9-5.1-5.6v-1.1
			c0-2.7,2.3-4.8,5.1-4.8h59.7c2.8,0,4.5,2.1,4.5,4.8V86.4z"/>
		<path class="st1" d="M219.7,228.9H10.3c-5.9,0-10.7,4.8-10.7,10.7v136.3c0,5.9,4.8,10.7,10.7,10.7h209.4c5.9,0,10.7-4.8,10.7-10.7
			V239.6C230.4,233.7,225.6,228.9,219.7,228.9z M113.2,380.7c-3,0-5.5-2.4-5.5-5.5s2.4-5.5,5.5-5.5c3,0,5.5,2.4,5.5,5.5
			S116.3,380.7,113.2,380.7z M218.8,356.7c0,4.5-4.4,8.8-9,8.8H17.8c-4.6,0-6.6-4.3-6.6-8.8V248.2c0-4.5,2-7.8,6.6-7.8h192.1
			c4.6,0,9,3.2,9,7.8L218.8,356.7L218.8,356.7z M160.9,417.4h-15.8c-2.9,0-5.2-2.7-5.2-5.7l-3.7-13.7c0-3.3-2.7-5.6-6-5.6H97.4
			c-3.3,0-6,2.3-6,5.6l-3.7,13.8c0,3-2.3,5.5-5.2,5.5H67.7c-3,0-5.5,2.7-5.5,5.8s2.5,5.8,5.5,5.8h93.2c3,0,5.5-2.7,5.5-5.8
			C166.4,420.1,163.9,417.4,160.9,417.4z M319.1,228.9h-67.9c-6.2,0-11.2,5-11.2,11.2v177.5c0,6.2,5,11.2,11.2,11.2h67.9
			c6.2,0,11.2-5,11.2-11.2V240.2C330.4,234,325.3,228.9,319.1,228.9z M286.1,383.9c-4,0-7.2-3.2-7.2-7.2c0-4,3.2-7.2,7.2-7.2
			s7.2,3.2,7.2,7.2C293.3,380.7,290.1,383.9,286.1,383.9z M320.8,292.5c0,2.7-1.7,5.6-4.5,5.6h-59.7c-2.8,0-5.1-2.9-5.1-5.6v-1.1
			c0-2.7,2.3-4.8,5.1-4.8h59.7c2.8,0,4.5,2.1,4.5,4.8V292.5z M320.8,269.4c0,2.7-1.7,5.6-4.5,5.6h-59.7c-2.8,0-5.1-2.9-5.1-5.6v-1.1
			c0-2.7,2.3-4.8,5.1-4.8h59.7c2.8,0,4.5,2.1,4.5,4.8V269.4z M320.8,246.4c0,2.7-1.7,5.6-4.5,5.6h-59.7c-2.8,0-5.1-2.9-5.1-5.6v-1.1
			c0-2.7,2.3-4.8,5.1-4.8h59.7c2.8,0,4.5,2.1,4.5,4.8V246.4z"/>
		<path class="st1" d="M1088.9,228.9H879.6c-5.9,0-10.7,4.8-10.7,10.7v136.3c0,5.9,4.8,10.7,10.7,10.7h209.4
			c5.9,0,10.7-4.8,10.7-10.7V239.6C1099.6,233.7,1094.8,228.9,1088.9,228.9z M982.5,380.7c-3,0-5.5-2.4-5.5-5.5s2.4-5.5,5.5-5.5
			c3,0,5.5,2.4,5.5,5.5S985.5,380.7,982.5,380.7z M1088.1,356.7c0,4.5-4.4,8.8-9,8.8H887c-4.6,0-6.6-4.3-6.6-8.8V248.2
			c0-4.5,2-7.8,6.6-7.8h192.1c4.6,0,9,3.2,9,7.8L1088.1,356.7L1088.1,356.7z M1030.1,417.4h-15.8c-2.9,0-5.2-2.7-5.2-5.7l-3.7-13.7
			c0-3.3-2.7-5.6-6-5.6h-32.9c-3.3,0-6,2.3-6,5.6l-3.7,13.8c0,3-2.3,5.5-5.2,5.5h-14.9c-3,0-5.5,2.7-5.5,5.8s2.5,5.8,5.5,5.8h93.2
			c3,0,5.5-2.7,5.5-5.8C1035.6,420.1,1033.2,417.4,1030.1,417.4z M1188.4,228.9h-67.9c-6.2,0-11.2,5-11.2,11.2v177.5
			c0,6.2,5,11.2,11.2,11.2h67.9c6.2,0,11.2-5,11.2-11.2V240.2C1199.6,234,1194.6,228.9,1188.4,228.9z M1155.4,383.9
			c-4,0-7.2-3.2-7.2-7.2c0-4,3.2-7.2,7.2-7.2s7.2,3.2,7.2,7.2C1162.5,380.7,1159.3,383.9,1155.4,383.9z M1190,292.5
			c0,2.7-1.7,5.6-4.5,5.6h-59.7c-2.8,0-5.1-2.9-5.1-5.6v-1.1c0-2.7,2.3-4.8,5.1-4.8h59.7c2.8,0,4.5,2.1,4.5,4.8V292.5z M1190,269.4
			c0,2.7-1.7,5.6-4.5,5.6h-59.7c-2.8,0-5.1-2.9-5.1-5.6v-1.1c0-2.7,2.3-4.8,5.1-4.8h59.7c2.8,0,4.5,2.1,4.5,4.8V269.4z M1190,246.4
			c0,2.7-1.7,5.6-4.5,5.6h-59.7c-2.8,0-5.1-2.9-5.1-5.6v-1.1c0-2.7,2.3-4.8,5.1-4.8h59.7c2.8,0,4.5,2.1,4.5,4.8V246.4z"/>
		<path class="st1" d="M654.7,928.6H445.3c-5.9,0-10.7,4.8-10.7,10.7v136.3c0,5.9,4.8,10.7,10.7,10.7h209.4
			c5.9,0,10.7-4.8,10.7-10.7V939.3C665.4,933.4,660.6,928.6,654.7,928.6z M548.3,1080.4c-3,0-5.5-2.4-5.5-5.5s2.4-5.5,5.5-5.5
			c3,0,5.5,2.4,5.5,5.5S551.3,1080.4,548.3,1080.4z M653.9,1056.4c0,4.5-4.4,8.8-9,8.8H452.8c-4.6,0-6.6-4.3-6.6-8.8V947.9
			c0-4.5,2-7.8,6.6-7.8h192.1c4.6,0,9,3.2,9,7.8L653.9,1056.4L653.9,1056.4z M595.9,1117.1h-15.8c-2.9,0-5.2-2.7-5.2-5.7l-3.7-13.7
			c0-3.3-2.7-5.6-6-5.6h-32.9c-3.3,0-6,2.3-6,5.6l-3.7,13.8c0,3-2.3,5.5-5.2,5.5h-14.9c-3,0-5.5,2.7-5.5,5.8c0,3,2.5,5.8,5.5,5.8
			h93.2c3,0,5.5-2.7,5.5-5.8C601.4,1119.8,598.9,1117.1,595.9,1117.1z M754.2,928.6h-67.9c-6.2,0-11.2,5-11.2,11.2v177.5
			c0,6.2,5,11.2,11.2,11.2h67.9c6.2,0,11.2-5,11.2-11.2V939.9C765.4,933.7,760.4,928.6,754.2,928.6z M721.1,1083.6
			c-4,0-7.2-3.2-7.2-7.2c0-4,3.2-7.2,7.2-7.2s7.2,3.2,7.2,7.2C728.3,1080.4,725.1,1083.6,721.1,1083.6z M755.8,992.2
			c0,2.7-1.7,5.6-4.5,5.6h-59.7c-2.8,0-5.1-2.9-5.1-5.6v-1.1c0-2.7,2.3-4.8,5.1-4.8h59.7c2.8,0,4.5,2.1,4.5,4.8V992.2z M755.8,969.2
			c0,2.7-1.7,5.6-4.5,5.6h-59.7c-2.8,0-5.1-2.9-5.1-5.6V968c0-2.7,2.3-4.8,5.1-4.8h59.7c2.8,0,4.5,2.1,4.5,4.8V969.2z M755.8,946.1
			c0,2.7-1.7,5.6-4.5,5.6h-59.7c-2.8,0-5.1-2.9-5.1-5.6v-1.1c0-2.7,2.3-4.8,5.1-4.8h59.7c2.8,0,4.5,2.1,4.5,4.8V946.1z"/>
		<path class="st1" d="M1090.3,768.6H881c-5.9,0-10.7,4.8-10.7,10.7v136.3c0,5.9,4.8,10.7,10.7,10.7h209.4c5.9,0,10.7-4.8,10.7-10.7
			V779.3C1101,773.4,1096.2,768.6,1090.3,768.6z M983.9,920.4c-3,0-5.5-2.4-5.5-5.5c0-3,2.4-5.5,5.5-5.5c3,0,5.5,2.4,5.5,5.5
			C989.3,917.9,986.9,920.4,983.9,920.4z M1089.5,896.4c0,4.5-4.4,8.8-9,8.8H888.4c-4.6,0-6.6-4.3-6.6-8.8V787.9
			c0-4.5,2-7.8,6.6-7.8h192.1c4.6,0,9,3.2,9,7.8L1089.5,896.4L1089.5,896.4z M1031.5,957.1h-15.8c-2.9,0-5.2-2.7-5.2-5.7l-3.7-13.7
			c0-3.3-2.7-5.6-6-5.6H968c-3.3,0-6,2.3-6,5.6l-3.7,13.8c0,3-2.3,5.5-5.2,5.5h-14.9c-3,0-5.5,2.7-5.5,5.8s2.5,5.8,5.5,5.8h93.2
			c3,0,5.5-2.7,5.5-5.8C1037,959.8,1034.6,957.1,1031.5,957.1z M1189.8,768.6h-67.9c-6.2,0-11.2,5-11.2,11.2v177.5
			c0,6.2,5,11.2,11.2,11.2h67.9c6.2,0,11.2-5,11.2-11.2V779.9C1201,773.7,1196,768.6,1189.8,768.6z M1156.8,923.6
			c-4,0-7.2-3.2-7.2-7.2s3.2-7.2,7.2-7.2s7.2,3.2,7.2,7.2C1163.9,920.4,1160.7,923.6,1156.8,923.6z M1191.4,832.2
			c0,2.7-1.7,5.6-4.5,5.6h-59.7c-2.8,0-5.1-2.9-5.1-5.6v-1.1c0-2.7,2.3-4.8,5.1-4.8h59.7c2.8,0,4.5,2.1,4.5,4.8V832.2z
			 M1191.4,809.2c0,2.7-1.7,5.6-4.5,5.6h-59.7c-2.8,0-5.1-2.9-5.1-5.6V808c0-2.7,2.3-4.8,5.1-4.8h59.7c2.8,0,4.5,2.1,4.5,4.8V809.2z
			 M1191.4,786.1c0,2.7-1.7,5.6-4.5,5.6h-59.7c-2.8,0-5.1-2.9-5.1-5.6v-1.1c0-2.7,2.3-4.8,5.1-4.8h59.7c2.8,0,4.5,2.1,4.5,4.8V786.1
			z"/>
		<path class="st1" d="M221.1,768.6H11.7c-5.9,0-10.7,4.8-10.7,10.7v136.3c0,5.9,4.8,10.7,10.7,10.7h209.4c5.9,0,10.7-4.8,10.7-10.7
			V779.3C231.8,773.4,227,768.6,221.1,768.6z M114.6,920.4c-3,0-5.5-2.4-5.5-5.5c0-3,2.4-5.5,5.5-5.5c3,0,5.5,2.4,5.5,5.5
			C120.1,917.9,117.7,920.4,114.6,920.4z M220.2,896.4c0,4.5-4.4,8.8-9,8.8H19.2c-4.6,0-6.6-4.3-6.6-8.8V787.9c0-4.5,2-7.8,6.6-7.8
			h192.1c4.6,0,9,3.2,9,7.8L220.2,896.4L220.2,896.4z M162.3,957.1h-15.8c-2.9,0-5.2-2.7-5.2-5.7l-3.7-13.7c0-3.3-2.7-5.6-6-5.6
			H98.8c-3.3,0-6,2.3-6,5.6l-3.7,13.8c0,3-2.3,5.5-5.2,5.5H69.1c-3,0-5.5,2.7-5.5,5.8s2.5,5.8,5.5,5.8h93.2c3,0,5.5-2.7,5.5-5.8
			C167.8,959.8,165.3,957.1,162.3,957.1z M320.5,768.6h-67.9c-6.2,0-11.2,5-11.2,11.2v177.5c0,6.2,5,11.2,11.2,11.2h67.9
			c6.2,0,11.2-5,11.2-11.2V779.9C331.8,773.7,326.7,768.6,320.5,768.6z M287.5,923.6c-4,0-7.2-3.2-7.2-7.2s3.2-7.2,7.2-7.2
			s7.2,3.2,7.2,7.2C294.7,920.4,291.5,923.6,287.5,923.6z M322.2,832.2c0,2.7-1.7,5.6-4.5,5.6H258c-2.8,0-5.1-2.9-5.1-5.6v-1.1
			c0-2.7,2.3-4.8,5.1-4.8h59.7c2.8,0,4.5,2.1,4.5,4.8V832.2z M322.2,809.2c0,2.7-1.7,5.6-4.5,5.6H258c-2.8,0-5.1-2.9-5.1-5.6V808
			c0-2.7,2.3-4.8,5.1-4.8h59.7c2.8,0,4.5,2.1,4.5,4.8V809.2z M322.2,786.1c0,2.7-1.7,5.6-4.5,5.6H258c-2.8,0-5.1-2.9-5.1-5.6v-1.1
			c0-2.7,2.3-4.8,5.1-4.8h59.7c2.8,0,4.5,2.1,4.5,4.8V786.1z"/>
		<rect x="434.6" y="-0.4" class="st2" width="330.8" height="50.3"/>
		<text transform="matrix(1 0 0 1 544.0817 38.2803)" class="st3 st4"/>
		<rect x="434.6" y="1146.5" class="st2" width="330.8" height="50.3"/>
		<text transform="matrix(1 0 0 1 531.7155 1185.1315)" class="st3 st4"/>
	</g>
</switch>

</svg>
