<?xml version="1.0" encoding="UTF-8"?><svg id="Layer_1" xmlns="http://www.w3.org/2000/svg" viewBox="0 0 111.57 131.08"><defs><style>.cls-1{fill:#cbdd67;}.cls-1,.cls-2,.cls-3,.cls-4,.cls-5{stroke-width:0px;}.cls-2{fill:#ddd;}.cls-3{fill:#fff;}.cls-4{fill:#4ebcb9;}.cls-5{fill:#565656;}</style></defs><path class="cls-4" d="M94.06,55.94c-.82-4.75-2.39-11.42-3.52-15.46-1.41-5.06-3.27-7.06-7.73-9.52,1.26-1.64,1.26-5.5-.67-6.84-5.64-3.9-10.85-5.91-21.93-6.1-13.01-.22-19.63,2.01-24.98,4.91-2.92,1.58-2.43,4.46-2.03,6.24-3.99,1.93-5.63,4.83-8.33,10.51-1.38,2.89-4.76,16.65-4.76,16.65-.34,1.01-1.3-.27-1.56-.75-.26-.48-.54-.99-.86-1.53-1.19-6.47.19-18.64,4.39-26.47,5.25-9.79,15.81-19.83,35.07-19.83,20.62,0,31.97,12.12,35.61,19.7,3.67,7.64,5.8,16.36,4.31,26.54-.35.54-.63,1.1-.92,1.58-.53.91-1.79,2.21-2.11.35Z"/><path class="cls-2" d="M109.47,128.48c-7.73-11-18.78-16.32-33.85-20.56-1.4-.4-2.76-.68-3.82-.68-.04,5.37-.82,13.67-2.43,22.72h41.08c-.32-.52-.64-1.02-.97-1.49ZM37.01,107.92c-15.31,3.99-28.25,10.25-35.79,21.75-.06.1-.12.2-.19.3h43.18c-1.43-8.22-2.21-16.38-2.21-23.32-1.44.37-2.72.68-5,1.27Z"/><path class="cls-3" d="M69.37,129.97c1.61-9.06,2.39-17.35,2.43-22.72-.64-.49-1.26-.97-1.86-1.45h0c-3.37.75-7.22,1.2-11.67,1.2-5.36,0-10.13-.64-14.29-1.63h0c-.73.45-1.42.9-1.97,1.3,0,6.94.77,15.1,2.21,23.32h25.15Z"/><path class="cls-1" d="M54.42,119.2c-.69,1.92-1.64,5.94-2.51,10.77h10.39c-.88-4.83-1.83-8.84-2.52-10.77,1.19-.85,3.99-4.41,5.48-6.45l-8.16-5.77-8.12,5.8c1.49,2.03,4.25,5.56,5.44,6.41Z"/><path class="cls-3" d="M17.7,54.06c.32.54.59,1.05.86,1.53.26.48,1.22,1.75,1.56.75,0,0,3.38-13.76,4.76-16.65,2.7-5.68,4.34-8.57,8.33-10.51-.4-1.78-.89-4.66,2.03-6.24,5.35-2.9,11.97-5.13,24.98-4.91,11.08.19,16.3,2.2,21.93,6.1,1.93,1.34,1.93,5.2.67,6.84,4.46,2.45,6.32,4.46,7.73,9.52,1.13,4.05,2.7,10.71,3.52,15.46.32,1.86,1.57.56,2.11-.35.28-.48.56-1.05.92-1.58h0c1.58-2.42,3.04-2.83,4.81-2.28,2.14.66,2.81,3.49,3.16,8.31.41,5.67-.2,10.49-2.24,13.6-2.29,3.5-7.41,3.77-8.64,1.46.03.13.05.25.08.36.4,1.59,1.3,4.64.1,9.52-1.49,6.05-4.36,11.1-10.41,14.97-3.58,2.29-8.05,4.53-14.01,5.84h0s0,0,0,0c-3.37.74-7.22,1.2-11.67,1.2-5.36,0-10.13-.64-14.29-1.63h0s0,0,0,0c-5.38-1.29-9.73-3.19-12.97-5.11-7.04-4.16-9.12-10.11-10.21-14.47-.63-2.53-.79-9.02-.4-10.61-1.22,2.31-6.21,1.97-8.5-1.52-2.04-3.12-2.65-7.94-2.24-13.6.35-4.82,1.02-7.65,3.16-8.31,1.8-.56,3.27-.18,4.87,2.33Z"/><path class="cls-4" d="M57.58,95.69c1.4,0,3.77.1,5.55.59,2.53-1.39,6.05-2.36,9.32-1.66,4.6-2.82,7.04-5.34,7.73-8.45-1.59-.1-5.35-2.28-6.54-3.77-2.28.2-5.16.21-7.73-1.09-2.08,1.09-6.15,1.54-8.33-.3-2.13,1.93-6.25,1.39-8.33.3-2.52,1.54-6.74,2.08-7.73,1.09-1.19,1.49-4.96,3.67-6.54,3.77,1.22,3.24,3.43,5.71,7.73,8.38,3.27-.69,6.72.34,9.32,1.73,1.78-.5,3.96-.59,5.55-.59ZM43.98,105.35c-5.38-1.29-9.73-3.19-12.97-5.11-7.04-4.16-9.12-10.11-10.21-14.47-.63-2.53-.79-9.02-.4-10.61.4-1.59.79-5.06,1.09-6.84,1.88.79,3.19,1.71,3.96,2.87,1.19,1.78,2.13,3.05,3.32,5.89,1.78,0,4.07,1,5.9,2.84,2.48-2.15,7.53-2.78,9.42-1.78,2.82-2.02,10.73-3.44,13.48-2.03,2.84-1.3,10.59.13,13.22,1.85,2.57-.99,7.2.38,9.68,1.97,1.83-1.83,4.86-3.22,6.25-2.83.92-2.46,1.78-4.11,2.97-5.9.78-1.17,1.79-1.98,3.67-2.78.28,1.66.47,4.95.81,6.68.03.13.05.25.08.36.4,1.59,1.3,4.64.1,9.52-1.49,6.05-4.36,11.1-10.41,14.97-3.58,2.29-8.05,4.53-14.01,5.84h0s0,0,0,0c-3.37.74-7.22,1.2-11.67,1.2-5.36,0-10.13-.64-14.29-1.63h0s0,0,0,0Z"/><path class="cls-5" d="M57.36,73.73c-.98,0-2.54,0-3.28-.07-.92-.07-1.8-.44-.65-1.01,1.17-.58,3.15-.76,3.93-.76s2.79.21,3.93.76c1.16.56.27.94-.64,1.01-.74.06-2.3.07-3.28.07Z"/><path class="cls-5" d="M64.97,43.47c.15-1.04.89-2.01,2.69-2.75,2.64-1.09,7.35-1,8.68-.74,2.34.45,3.85,1.14,4.91,2.3,1.45,1.6,1.19,4.13-.37,3.87-1.6-.27-4.16-.78-7.68-1.03-2.49-.18-6.12-.39-6.92-.39-.8,0-1.38-.73-1.31-1.26Z"/><path class="cls-5" d="M50.62,43.47c-.15-1.04-.89-2.01-2.69-2.75-2.64-1.09-7.35-1-8.68-.74-2.34.45-3.85,1.14-4.91,2.3-1.45,1.6-1.19,4.13.37,3.87,1.6-.27,4.16-.78,7.68-1.03,2.49-.18,6.12-.39,6.92-.39.8,0,1.38-.73,1.31-1.26Z"/><path class="cls-5" d="M44.92,86.21h0c-.35-.35-.35-.91,0-1.26h0c.35-.35.91-.35,1.26,0h0c1.96,2,6.6,3.92,11.2,3.9h0c4.6.02,9.23-1.9,11.2-3.9h0c.35-.35.91-.35,1.26,0h0c.35.35.35.91,0,1.26h0c-2.49,2.46-7.38,4.41-12.46,4.42h0c-5.08-.02-9.97-1.96-12.46-4.42h0Z"/><path class="cls-5" d="M80.29,85.13c-1.17-.07-4.7-2.03-5.77-3.37-.22-.28-.57-.43-.94-.4-1.91.17-4.73.25-7.15-.98-.31-.16-.68-.15-.99,0-1.78.93-5.36,1.32-7.13-.17-.41-.35-1.02-.34-1.42.03-1.67,1.52-5.26,1.1-7.1.14-.34-.18-.74-.16-1.06.04-2.3,1.41-5.8,1.7-6.41,1.25-.22-.22-.52-.33-.82-.31-.31.02-.59.16-.78.4-1.07,1.33-4.6,3.29-5.77,3.37-.34.02-.65.2-.84.49-.19.29-.22.64-.1.96,1.32,3.52,3.77,6.19,8.17,8.92.24.15.52.2.79.14,3.45-.73,6.86.7,8.59,1.62.24.13.53.16.8.09,1.33-.37,3.1-.56,5.26-.56.98,0,3.46.05,5.26.56.09.03.19.04.29.04.18,0,.36-.04.52-.13,2.77-1.52,5.98-2.11,8.58-1.56.27.06.55,0,.79-.14,5.03-3.08,7.49-5.81,8.22-9.13.07-.31,0-.63-.19-.88-.19-.25-.48-.41-.79-.43ZM72.28,93.51c-2.88-.48-6.27.12-9.25,1.65-1.91-.45-4.18-.52-5.41-.52-2.15,0-3.97.18-5.42.53-1.64-.83-4.31-1.88-7.26-1.88-.65,0-1.3.05-1.97.16-3.3-2.1-5.26-4.06-6.45-6.5,1.76-.62,3.98-1.99,5.26-3.18,1.97.66,5.42-.1,7.56-1.21,2.21.95,5.85,1.39,8.31-.17,2.53,1.52,6.15,1.08,8.3.16,2.55,1.13,5.27,1.15,7.29,1.01,1.26,1.26,3.73,2.81,5.62,3.44-.86,2.21-2.9,4.22-6.58,6.52Z"/><path class="cls-5" d="M68.4,59.32c0,1.36,1.1,2.47,2.47,2.47s2.47-1.1,2.47-2.47-1.1-2.47-2.47-2.47-2.47,1.1-2.47,2.47Z"/><path class="cls-5" d="M45.96,59.32c0,1.36-1.1,2.47-2.47,2.47s-2.47-1.1-2.47-2.47,1.1-2.47,2.47-2.47,2.47,1.1,2.47,2.47Z"/><path class="cls-5" d="M20.52,56.68s11.13,1.52,11.35,1.56c0,0,0,.03,0,.07.01,1.42.01,3.64.64,5.63.61,1.98,2.01,3.82,4.64,4.02,2.78.23,5.17.4,7.44.4,1.86,0,3.64-.12,5.51-.4,3.7-.64,4.76-4.84,4.98-7.65.03-.35.04-.7.04-1.04,0-.04,0-.08,0-.11h3.96s0,.08,0,.11c0,.35.01.7.04,1.05.22,2.8,1.28,7.01,4.98,7.65,1.86.29,3.65.4,5.51.4,2.27,0,4.65-.17,7.44-.4,2.63-.2,4.03-2.04,4.64-4.02.63-1.99.63-4.22.64-5.64l11.27-1.44-.27-1.46-11.12,1.42c-.33-1.91-1.42-3.93-3.88-4.3-1.74-.25-5.05-.42-8.27-.42-2.71,0-5.31.12-6.84.42h0c-2.71.56-3.85,2.99-4.09,5.58h-4.06c-.24-2.59-1.38-5.02-4.09-5.58-1.53-.31-4.13-.42-6.84-.42-3.21,0-6.54.17-8.27.41-2.46.38-3.55,2.39-3.88,4.3l-11.06-1.43-.42,1.29ZM53.17,60.23c-.18,2.49-1.2,5.81-3.77,6.15-1.66.26-3.25.36-4.92.36-2.04,0-4.21-.15-6.76-.36-1.97-.18-2.88-1.39-3.43-3.03-.52-1.63-.54-3.6-.55-4.9v-.04s0-.01,0-.01h0c.01-1.84.74-4.02,2.85-4.31,1.49-.22,4.55-.37,7.47-.37,2.45,0,4.84.11,6.1.37,2.17.42,3.02,2.65,3.03,5.26,0,.3,0,.59-.03.89ZM64.01,54.09c1.26-.26,3.65-.37,6.1-.37,2.92,0,5.97.15,7.47.37,2.11.28,2.84,2.46,2.85,4.31,0,0,0,.02,0,.06,0,1.3-.02,3.26-.54,4.89-.54,1.64-1.46,2.85-3.43,3.03-2.56.21-4.72.36-6.76.36-1.67,0-3.26-.1-4.92-.36-2.56-.34-3.59-3.66-3.77-6.15-.02-.3-.04-.59-.04-.89.02-2.61.87-4.84,3.04-5.26h0Z"/><path class="cls-5" d="M80.29,85.13c-1.17-.07-4.7-2.03-5.77-3.37-.22-.28-.57-.43-.94-.4-1.91.17-4.73.25-7.15-.98-.31-.16-.68-.15-.99,0-1.78.93-5.36,1.32-7.13-.17-.41-.35-1.02-.34-1.42.03-1.67,1.52-5.26,1.1-7.1.14-.34-.18-.74-.16-1.06.04-2.3,1.41-5.8,1.7-6.41,1.25-.22-.22-.52-.33-.82-.31-.31.02-.59.16-.78.4-1.07,1.33-4.6,3.29-5.77,3.37-.34.02-.65.2-.84.49-.19.29-.22.64-.1.96,1.32,3.52,3.77,6.19,8.17,8.92.24.15.52.2.79.14,3.45-.73,6.86.7,8.59,1.62.24.13.53.16.8.09,1.33-.37,3.1-.56,5.26-.56.98,0,3.46.05,5.26.56.09.03.19.04.29.04.18,0,.36-.04.52-.13,2.77-1.52,5.98-2.11,8.58-1.56.27.06.55,0,.79-.14,5.03-3.08,7.49-5.81,8.22-9.13.07-.31,0-.63-.19-.88-.19-.25-.48-.41-.79-.43ZM72.28,93.51c-2.88-.48-6.27.12-9.25,1.65-1.91-.45-4.18-.52-5.41-.52-2.15,0-3.97.18-5.42.53-1.64-.83-4.31-1.88-7.26-1.88-.65,0-1.3.05-1.97.16-3.3-2.1-5.26-4.06-6.45-6.5,1.76-.62,3.98-1.99,5.26-3.18,1.97.66,5.42-.1,7.56-1.21,2.21.95,5.85,1.39,8.31-.17,2.53,1.52,6.15,1.08,8.3.16,2.55,1.13,5.27,1.15,7.29,1.01,1.26,1.26,3.73,2.81,5.62,3.44-.86,2.21-2.9,4.22-6.58,6.52Z"/><path class="cls-5" d="M111.41,129.44c-.33-.54-.67-1.06-1.01-1.55-2.49-3.54-5.33-6.46-8.42-8.93-1.06-.62-2.34.77-1.3,1.68,0,0,.01.02.02.03,3.08,2.47,5.67,5.25,7.93,8.46.32.45.63.93.94,1.43.31.51.98.67,1.48.36.51-.31.67-.97.36-1.48Z"/><path class="cls-5" d="M44.47,10.57s.02,0,.02,0c3.69-1.07,7.9-1.7,12.7-1.7,24.75,0,33.7,17.14,34.64,19.09.75,1.56,1.4,3.11,1.97,4.67,0,0,0,0,0,0,.49,1.23,2.36.82,2.07-.55-.61-1.68-1.29-3.37-2.11-5.05-1-2.08-10.51-20.31-36.58-20.31-5.07,0-9.5.7-13.38,1.85-1.21.44-.84,2.46.65,2.01Z"/><path class="cls-5" d="M106.17,59.99c-.38-5.22-1.14-8.41-3.92-9.27-1.41-.44-2.62-.32-3.72.33.33-4.21.06-8.35-.79-12.47-.43-1.45-2.4-1.13-2.1.42,0,0,0,.02,0,.03,1,4.81,1.14,9.66.44,14.62-.19.31-.36.61-.52.91-.1.18-.19.35-.29.51-.06.1-.13.2-.19.29-.87-4.88-2.42-11.39-3.47-15.15-1.33-4.76-3.1-7.15-7.31-9.64.46-1.11.62-2.52.41-3.87-.24-1.52-.92-2.74-1.92-3.44-5.67-3.93-10.94-6.09-22.53-6.29-13.83-.24-20.43,2.28-25.51,5.04-3.2,1.73-3.06,4.82-2.74,6.61-3.9,2.17-5.65,5.51-8.08,10.63-1.18,2.48-3.67,12.23-4.52,15.62-.2-.37-.41-.75-.65-1.16-1.12-6.44.33-18.17,4.31-25.59,2.73-5.09,7.16-10.75,14.22-14.6.01,0,.02-.01.03-.02,1.27-.71.41-2.52-1.03-1.81-8.03,4.41-12.66,10.84-15.12,15.42-3.74,6.98-5.28,16.99-4.87,23.96-1.11-.67-2.34-.78-3.77-.34-2.78.86-3.54,4.05-3.92,9.27-.45,6.33.36,11.13,2.42,14.27,1.4,2.14,3.86,3.49,6.34,3.49.1,0,.21,0,.31,0,.53-.02,1.02-.12,1.47-.27-.07,2.73.14,6.64.63,8.59.25.99.55,2.04.92,3.11.56,1.3,2.44.7,2.01-.75,0,0,0-.01,0-.02-.33-.97-.61-1.93-.84-2.86-.61-2.44-.72-8.78-.4-10.08.27-1.1.54-3,.78-4.67.04-.28.08-.56.12-.83,1.03.56,1.76,1.18,2.22,1.87l.37.56c1.02,1.51,1.82,2.71,2.85,5.15.17.4.56.66.99.66,1.59,0,3.61.99,5.14,2.52.4.4,1.04.42,1.47.05,2.16-1.88,6.76-2.41,8.21-1.65.36.19.8.16,1.13-.08,2.65-1.9,10.16-3.08,12.36-1.95.29.15.64.16.94.02,2.4-1.1,9.72.17,12.18,1.77.29.19.65.23.98.1,2.07-.8,6.3.33,8.71,1.87.43.27.98.21,1.34-.15,1.73-1.73,4.38-2.78,5.19-2.55.54.15,1.11-.13,1.31-.66.85-2.28,1.65-3.87,2.86-5.68.42-.63.94-1.19,1.9-1.75.05.44.09.91.14,1.39.14,1.41.29,2.87.49,3.87.03.15.06.29.09.41l.06.25c.42,1.64,1.11,4.37.04,8.75-1.61,6.53-4.67,10.95-9.94,14.32-4.61,2.95-12.23,6.87-25.09,6.87-13.55,0-22.55-4.13-26.71-6.59-2.55-1.51-4.41-3.25-5.81-5.08-.02-.02-.04-.04-.06-.06-.75-.99-2.46.05-1.84,1.11,1.56,2.13,3.67,4.16,6.6,5.89,2.25,1.33,5.87,3.13,10.78,4.56l-.86.22c-1,.25-2.09.52-3.65.93-17.99,4.69-29.57,11.75-36.41,22.2l-.19.31c-.32.5-.18,1.17.32,1.49.5.32,1.17.18,1.49-.32l.18-.29c6.36-9.7,17.11-16.36,33.74-20.91-3.3,4.87-6.45,11.92-6.9,14.4-.08.49.23.85.67.93.83.17,2.43.45,3.69.57l-3.39.81c-.38.07-.72.5-.59.98.23.86.59,2.07.97,3.23.15.45.59.78,1.08.74.06,0,.12-.01.18-.03.56-.15.92-.73.74-1.27-.4-1.24-.68-2.07-.95-3l7.66-2.19c.27-.1.22-.36-.09-.45l-2.66-.51s-2.9-.55-4.93-1.04c.79-2.69,3.66-8.98,5.62-13.47.1-.03.2-.06.31-.08,1.55-.4,2.64-.68,3.63-.92h.03c.09,6.71.85,14.32,2.21,22.12.09.52.55.89,1.06.89.06,0,.12,0,.19-.02.59-.1.98-.66.88-1.25-1.17-6.72-1.88-13.28-2.11-19.23,1.04,1.69,2.14,3.41,2.82,4.37.19.27.49.41.8.41.19,0,.39-.06.56-.18.35-.25.84-.6,1.42-1.01,1.01,1.34,3.12,4.07,4.51,5.37-.7,2.19-1.55,5.94-2.34,10.27-.1.53.26,1.04.79,1.14.54.1,1.04-.26,1.14-.79.84-4.62,1.79-8.69,2.47-10.61.15-.41,0-.87-.36-1.13-.84-.6-2.89-3.08-4.63-5.39l6.74-4.82,5.03,3.55c.6.42,1.18.84,1.74,1.23-1.75,2.33-3.82,4.83-4.66,5.42-.36.25-.5.72-.36,1.13.69,1.93,1.64,5.99,2.48,10.61.09.47.5.8.96.8.06,0,.12,0,.18-.02.53-.1.89-.61.79-1.14-.79-4.33-1.64-8.08-2.34-10.27,1.4-1.31,3.54-4.07,4.56-5.42.56.39,1.05.73,1.4.95.17.11.35.16.54.16.29,0,.58-.13.78-.38.62-.8,1.51-2.16,2.38-3.57-.31,5.38-1.11,12-2.27,18.52-.1.59.29,1.15.87,1.25.06.01.13.02.19.02.51,0,.97-.37,1.06-.89,1.4-7.85,2.29-15.86,2.43-21.75.69.1,1.52.28,2.47.55.82.23,1.6.46,2.39.7,1.95,4.43,4.6,10.29,5.36,12.86-2.03.49-4.92,1.04-4.93,1.04l-2.66.51c-.3.09-.36.35-.09.45l7.66,2.19c-.27.93-.54,1.76-.95,3-.18.55.19,1.13.74,1.27.06.02.12.03.18.03.49.04.94-.29,1.08-.74.38-1.16.75-2.38.97-3.23.13-.48-.21-.91-.59-.98l-3.39-.81c1.26-.11,2.86-.4,3.69-.57.43-.08.75-.43.67-.93-.43-2.36-3.3-8.87-6.43-13.69,5.94,1.85,10.89,3.89,15.11,6.24.02,0,.04,0,.05.02,1.25.62,2.3-1.03,1.04-1.9-6.09-3.44-12.74-5.68-19.33-7.54-1.27-.36-2.35-.58-3.25-.67,5.27-1.48,9.09-3.58,11.86-5.36,5.69-3.64,9.15-8.6,10.87-15.62.83-3.37.7-5.92.4-7.74.38.1.79.16,1.22.18.11,0,.22,0,.33,0,2.51,0,4.98-1.33,6.37-3.45,2.06-3.14,2.87-7.95,2.42-14.27ZM50.56,110.5c-1.31.95-2.57,1.85-3.49,2.5-1.17-1.76-2.95-4.64-3.96-6.43-.01-.12-.05-.23-.1-.34,3.21.82,6.91,1.46,11.1,1.72-1.07.76-2.32,1.66-3.55,2.55ZM70.79,107.15c-1.06,1.9-2.55,4.32-3.56,5.77-.39-.27-.85-.59-1.35-.94,0,0,0,0,0,0l-2.58-1.82c-.53-.38-1.07-.76-1.59-1.13-.48-.34-.94-.67-1.37-.98,4.04-.13,7.57-.63,10.63-1.36-.09.14-.16.29-.18.46ZM101.95,73.08c-1.18,1.8-3.27,2.53-4.79,2.47-.91-.04-1.6-.36-1.92-.83-.16-.91-.29-2.19-.42-3.46-.11-1.13-.22-2.2-.35-2.98-.05-.33-.25-.61-.54-.77-.29-.16-.64-.18-.94-.05-2.01.85-3.21,1.76-4.15,3.17-1.15,1.72-1.98,3.32-2.79,5.36-1.74.08-4.03,1.23-5.68,2.63-2.46-1.34-6.54-2.59-9.4-1.81-3-1.63-9.93-2.99-13.33-1.84-3.26-1.2-10.37.06-13.62,1.99-2.31-.74-6.55-.17-9.23,1.59-1.61-1.37-3.51-2.27-5.25-2.47-.99-2.23-1.82-3.48-2.78-4.9l-.37-.55c-.88-1.33-2.3-2.37-4.44-3.27-.3-.13-.65-.11-.94.05-.29.16-.49.44-.54.77-.1.62-.22,1.43-.34,2.31-.22,1.53-.46,3.25-.69,4.27-.3.48-.97.79-1.84.83-1.5.06-3.55-.68-4.75-2.51-1.79-2.74-2.49-7.09-2.07-12.94.35-4.87,1.03-6.93,2.4-7.36,1.12-.35,2.16-.44,3.64,1.87.3.52.57,1.01.83,1.48.16.3,1.04,1.78,2.24,1.68.28-.02.97-.18,1.31-1.19,1.16-4.72,3.63-14.24,4.68-16.45,2.73-5.74,4.2-8.25,7.82-10,.45-.22.69-.72.58-1.2-.51-2.28-.44-4.01,1.49-5.06,4.83-2.62,11.14-5,24.45-4.78,11.04.19,16.01,2.22,21.34,5.91.5.35.88,1.08,1.02,2,.19,1.22-.06,2.61-.59,3.3-.19.25-.27.57-.2.88.06.31.26.57.54.72,4.39,2.42,5.94,4.32,7.21,8.86,1.07,3.82,2.65,10.5,3.49,15.36h0c.23,1.32.91,1.72,1.44,1.81.1.02.19.03.28.03,1.2,0,2.11-1.38,2.37-1.83.1-.18.21-.37.32-.56.17-.31.35-.65.57-.97,0,0,0,0,.01-.01,1.48-2.26,2.54-2.16,3.59-1.84,1.38.43,2.05,2.49,2.41,7.36.42,5.84-.28,10.2-2.07,12.94Z"/></svg>